%TF.GenerationSoftware,KiCad,Pcbnew,7.0.9-69-ge1c0bddff3*%
%TF.CreationDate,2024-02-19T10:18:07+01:00*%
%TF.ProjectId,ASP_Display,4153505f-4469-4737-906c-61792e6b6963,rev?*%
%TF.SameCoordinates,Original*%
%TF.FileFunction,Drillmap*%
%TF.FilePolarity,Positive*%
%FSLAX45Y45*%
G04 Gerber Fmt 4.5, Leading zero omitted, Abs format (unit mm)*
G04 Created by KiCad (PCBNEW 7.0.9-69-ge1c0bddff3) date 2024-02-19 10:18:07*
%MOMM*%
%LPD*%
G01*
G04 APERTURE LIST*
%ADD10C,0.100000*%
%ADD11C,0.200000*%
%ADD12C,0.320000*%
G04 APERTURE END LIST*
D10*
X22050000Y-8550000D02*
X26650000Y-8550000D01*
X26650000Y-11850000D01*
X22050000Y-11850000D01*
X22050000Y-8550000D01*
D11*
D10*
X23022676Y-10270755D02*
X23042676Y-10290755D01*
X23042676Y-10270755D02*
X23022676Y-10290755D01*
X23055760Y-9451449D02*
X23075760Y-9471449D01*
X23075760Y-9451449D02*
X23055760Y-9471449D01*
X23065362Y-10206301D02*
X23085362Y-10226301D01*
X23085362Y-10206301D02*
X23065362Y-10226301D01*
X23071448Y-9651448D02*
X23091448Y-9671448D01*
X23091448Y-9651448D02*
X23071448Y-9671448D01*
X23100000Y-9770000D02*
X23120000Y-9790000D01*
X23120000Y-9770000D02*
X23100000Y-9790000D01*
X23100000Y-9820000D02*
X23120000Y-9840000D01*
X23120000Y-9820000D02*
X23100000Y-9840000D01*
X23140000Y-11494950D02*
X23160000Y-11514950D01*
X23160000Y-11494950D02*
X23140000Y-11514950D01*
X23190000Y-10100000D02*
X23210000Y-10120000D01*
X23210000Y-10100000D02*
X23190000Y-10120000D01*
X23193089Y-9100050D02*
X23213089Y-9120050D01*
X23213089Y-9100050D02*
X23193089Y-9120050D01*
X23221479Y-9047249D02*
X23241479Y-9067249D01*
X23241479Y-9047249D02*
X23221479Y-9067249D01*
X23239852Y-9760078D02*
X23259852Y-9780078D01*
X23259852Y-9760078D02*
X23239852Y-9780078D01*
X23260000Y-10080000D02*
X23280000Y-10100000D01*
X23280000Y-10080000D02*
X23260000Y-10100000D01*
X23274606Y-10755394D02*
X23294606Y-10775394D01*
X23294606Y-10755394D02*
X23274606Y-10775394D01*
X23320000Y-9299950D02*
X23340000Y-9319950D01*
X23340000Y-9299950D02*
X23320000Y-9319950D01*
X23324750Y-10381040D02*
X23344750Y-10401040D01*
X23344750Y-10381040D02*
X23324750Y-10401040D01*
X23363142Y-10904610D02*
X23383142Y-10924610D01*
X23383142Y-10904610D02*
X23363142Y-10924610D01*
X23394857Y-9960000D02*
X23414857Y-9980000D01*
X23414857Y-9960000D02*
X23394857Y-9980000D01*
X23410000Y-10070000D02*
X23430000Y-10090000D01*
X23430000Y-10070000D02*
X23410000Y-10090000D01*
X23410000Y-10860000D02*
X23430000Y-10880000D01*
X23430000Y-10860000D02*
X23410000Y-10880000D01*
X23410000Y-10995000D02*
X23430000Y-11015000D01*
X23430000Y-10995000D02*
X23410000Y-11015000D01*
X23411607Y-8643393D02*
X23431607Y-8663393D01*
X23431607Y-8643393D02*
X23411607Y-8663393D01*
X23420000Y-10400000D02*
X23440000Y-10420000D01*
X23440000Y-10400000D02*
X23420000Y-10420000D01*
X23460000Y-10070000D02*
X23480000Y-10090000D01*
X23480000Y-10070000D02*
X23460000Y-10090000D01*
X23470000Y-10400000D02*
X23490000Y-10420000D01*
X23490000Y-10400000D02*
X23470000Y-10420000D01*
X23491647Y-10505351D02*
X23511647Y-10525351D01*
X23511647Y-10505351D02*
X23491647Y-10525351D01*
X23519950Y-10075116D02*
X23539950Y-10095116D01*
X23539950Y-10075116D02*
X23519950Y-10095116D01*
X23530000Y-9940000D02*
X23550000Y-9960000D01*
X23550000Y-9940000D02*
X23530000Y-9960000D01*
X23535050Y-9890000D02*
X23555050Y-9910000D01*
X23555050Y-9890000D02*
X23535050Y-9910000D01*
X23546680Y-10328961D02*
X23566680Y-10348961D01*
X23566680Y-10328961D02*
X23546680Y-10348961D01*
X23550000Y-10890000D02*
X23570000Y-10910000D01*
X23570000Y-10890000D02*
X23550000Y-10910000D01*
X23550000Y-11420000D02*
X23570000Y-11440000D01*
X23570000Y-11420000D02*
X23550000Y-11440000D01*
X23571440Y-9276122D02*
X23591440Y-9296122D01*
X23591440Y-9276122D02*
X23571440Y-9296122D01*
X23645331Y-10058353D02*
X23665331Y-10078353D01*
X23665331Y-10058353D02*
X23645331Y-10078353D01*
X23650000Y-9570000D02*
X23670000Y-9590000D01*
X23670000Y-9570000D02*
X23650000Y-9590000D01*
X23650000Y-9620000D02*
X23670000Y-9640000D01*
X23670000Y-9620000D02*
X23650000Y-9640000D01*
X23650000Y-10280000D02*
X23670000Y-10300000D01*
X23670000Y-10280000D02*
X23650000Y-10300000D01*
X23650000Y-10330000D02*
X23670000Y-10350000D01*
X23670000Y-10330000D02*
X23650000Y-10350000D01*
X23650258Y-10167192D02*
X23670258Y-10187192D01*
X23670258Y-10167192D02*
X23650258Y-10187192D01*
X23728373Y-10368561D02*
X23748373Y-10388561D01*
X23748373Y-10368561D02*
X23728373Y-10388561D01*
X23790000Y-10360000D02*
X23810000Y-10380000D01*
X23810000Y-10360000D02*
X23790000Y-10380000D01*
X23830000Y-10390000D02*
X23850000Y-10410000D01*
X23850000Y-10390000D02*
X23830000Y-10410000D01*
X23900000Y-10394854D02*
X23920000Y-10414854D01*
X23920000Y-10394854D02*
X23900000Y-10414854D01*
X24000000Y-8850000D02*
X24020000Y-8870000D01*
X24020000Y-8850000D02*
X24000000Y-8870000D01*
X24050000Y-10130000D02*
X24070000Y-10150000D01*
X24070000Y-10130000D02*
X24050000Y-10150000D01*
X24341199Y-9780486D02*
X24361199Y-9800486D01*
X24361199Y-9780486D02*
X24341199Y-9800486D01*
X24375050Y-10690000D02*
X24395050Y-10710000D01*
X24395050Y-10690000D02*
X24375050Y-10710000D01*
X24499950Y-8804651D02*
X24519950Y-8824651D01*
X24519950Y-8804651D02*
X24499950Y-8824651D01*
X24535050Y-10883102D02*
X24555050Y-10903102D01*
X24555050Y-10883102D02*
X24535050Y-10903102D01*
X24535050Y-10980000D02*
X24555050Y-11000000D01*
X24555050Y-10980000D02*
X24535050Y-11000000D01*
X24570000Y-10010000D02*
X24590000Y-10030000D01*
X24590000Y-10010000D02*
X24570000Y-10030000D01*
X24639729Y-11202307D02*
X24659729Y-11222307D01*
X24659729Y-11202307D02*
X24639729Y-11222307D01*
X24659674Y-9940554D02*
X24679674Y-9960554D01*
X24679674Y-9940554D02*
X24659674Y-9960554D01*
X24660000Y-9160000D02*
X24680000Y-9180000D01*
X24680000Y-9160000D02*
X24660000Y-9180000D01*
X24660000Y-10565000D02*
X24680000Y-10585000D01*
X24680000Y-10565000D02*
X24660000Y-10585000D01*
X24660000Y-10860000D02*
X24680000Y-10880000D01*
X24680000Y-10860000D02*
X24660000Y-10880000D01*
X24710000Y-10555000D02*
X24730000Y-10575000D01*
X24730000Y-10555000D02*
X24710000Y-10575000D01*
X24710000Y-10860000D02*
X24730000Y-10880000D01*
X24730000Y-10860000D02*
X24710000Y-10880000D01*
X24860000Y-9290000D02*
X24880000Y-9310000D01*
X24880000Y-9290000D02*
X24860000Y-9310000D01*
X24877352Y-10560000D02*
X24897352Y-10580000D01*
X24897352Y-10560000D02*
X24877352Y-10580000D01*
X25132401Y-10771285D02*
X25152401Y-10791285D01*
X25152401Y-10771285D02*
X25132401Y-10791285D01*
X25170000Y-10004950D02*
X25190000Y-10024950D01*
X25190000Y-10004950D02*
X25170000Y-10024950D01*
X25207450Y-9635050D02*
X25227450Y-9655050D01*
X25227450Y-9635050D02*
X25207450Y-9655050D01*
X25236062Y-10510272D02*
X25256062Y-10530272D01*
X25256062Y-10510272D02*
X25236062Y-10530272D01*
X25239909Y-10284898D02*
X25259909Y-10304898D01*
X25259909Y-10284898D02*
X25239909Y-10304898D01*
X25241986Y-9736016D02*
X25261986Y-9756016D01*
X25261986Y-9736016D02*
X25241986Y-9756016D01*
X25246448Y-10683552D02*
X25266448Y-10703552D01*
X25266448Y-10683552D02*
X25246448Y-10703552D01*
X25254657Y-10812530D02*
X25274657Y-10832530D01*
X25274657Y-10812530D02*
X25254657Y-10832530D01*
X25258801Y-10058303D02*
X25278801Y-10078303D01*
X25278801Y-10058303D02*
X25258801Y-10078303D01*
X25260000Y-10190000D02*
X25280000Y-10210000D01*
X25280000Y-10190000D02*
X25260000Y-10210000D01*
X25260000Y-10392550D02*
X25280000Y-10412550D01*
X25280000Y-10392550D02*
X25260000Y-10412550D01*
X25262803Y-9844796D02*
X25282803Y-9864796D01*
X25282803Y-9844796D02*
X25262803Y-9864796D01*
X22550000Y-9910000D02*
G75*
G03*
X22550000Y-9910000I-20000J0D01*
G01*
X22750000Y-11020000D02*
G75*
G03*
X22750000Y-11020000I-20000J0D01*
G01*
X22989966Y-11777766D02*
G75*
G03*
X22989966Y-11777766I-20000J0D01*
G01*
X23067100Y-8790374D02*
G75*
G03*
X23067100Y-8790374I-20000J0D01*
G01*
X23070000Y-9350000D02*
G75*
G03*
X23070000Y-9350000I-20000J0D01*
G01*
X23070000Y-10130000D02*
G75*
G03*
X23070000Y-10130000I-20000J0D01*
G01*
X23101338Y-10401155D02*
G75*
G03*
X23101338Y-10401155I-20000J0D01*
G01*
X23155481Y-11316749D02*
G75*
G03*
X23155481Y-11316749I-20000J0D01*
G01*
X23190000Y-9200000D02*
G75*
G03*
X23190000Y-9200000I-20000J0D01*
G01*
X23290401Y-11372423D02*
G75*
G03*
X23290401Y-11372423I-20000J0D01*
G01*
X23310000Y-11020000D02*
G75*
G03*
X23310000Y-11020000I-20000J0D01*
G01*
X23524518Y-11083988D02*
G75*
G03*
X23524518Y-11083988I-20000J0D01*
G01*
X23582923Y-8685071D02*
G75*
G03*
X23582923Y-8685071I-20000J0D01*
G01*
X23620000Y-9040000D02*
G75*
G03*
X23620000Y-9040000I-20000J0D01*
G01*
X23650000Y-10850000D02*
G75*
G03*
X23650000Y-10850000I-20000J0D01*
G01*
X23660000Y-10950000D02*
G75*
G03*
X23660000Y-10950000I-20000J0D01*
G01*
X23664011Y-11429982D02*
G75*
G03*
X23664011Y-11429982I-20000J0D01*
G01*
X23790000Y-8710000D02*
G75*
G03*
X23790000Y-8710000I-20000J0D01*
G01*
X24010000Y-11420000D02*
G75*
G03*
X24010000Y-11420000I-20000J0D01*
G01*
X24020000Y-10390000D02*
G75*
G03*
X24020000Y-10390000I-20000J0D01*
G01*
X24210000Y-8930000D02*
G75*
G03*
X24210000Y-8930000I-20000J0D01*
G01*
X24210000Y-10640000D02*
G75*
G03*
X24210000Y-10640000I-20000J0D01*
G01*
X24221674Y-9816976D02*
G75*
G03*
X24221674Y-9816976I-20000J0D01*
G01*
X24349166Y-9679950D02*
G75*
G03*
X24349166Y-9679950I-20000J0D01*
G01*
X24350000Y-11430050D02*
G75*
G03*
X24350000Y-11430050I-20000J0D01*
G01*
X24370000Y-11110000D02*
G75*
G03*
X24370000Y-11110000I-20000J0D01*
G01*
X24390000Y-9570000D02*
G75*
G03*
X24390000Y-9570000I-20000J0D01*
G01*
X24447451Y-10278634D02*
G75*
G03*
X24447451Y-10278634I-20000J0D01*
G01*
X24449304Y-10192154D02*
G75*
G03*
X24449304Y-10192154I-20000J0D01*
G01*
X24480000Y-8670000D02*
G75*
G03*
X24480000Y-8670000I-20000J0D01*
G01*
X24550000Y-9300000D02*
G75*
G03*
X24550000Y-9300000I-20000J0D01*
G01*
X24610000Y-10560000D02*
G75*
G03*
X24610000Y-10560000I-20000J0D01*
G01*
X24635843Y-10242550D02*
G75*
G03*
X24635843Y-10242550I-20000J0D01*
G01*
X24880000Y-8680000D02*
G75*
G03*
X24880000Y-8680000I-20000J0D01*
G01*
X24990000Y-9090000D02*
G75*
G03*
X24990000Y-9090000I-20000J0D01*
G01*
X25000000Y-11380000D02*
G75*
G03*
X25000000Y-11380000I-20000J0D01*
G01*
X25250000Y-11050000D02*
G75*
G03*
X25250000Y-11050000I-20000J0D01*
G01*
X25510427Y-9909573D02*
G75*
G03*
X25510427Y-9909573I-20000J0D01*
G01*
X25520000Y-10510000D02*
G75*
G03*
X25520000Y-10510000I-20000J0D01*
G01*
X25520000Y-10800000D02*
G75*
G03*
X25520000Y-10800000I-20000J0D01*
G01*
X25530000Y-9610000D02*
G75*
G03*
X25530000Y-9610000I-20000J0D01*
G01*
X25540000Y-10190000D02*
G75*
G03*
X25540000Y-10190000I-20000J0D01*
G01*
X25720000Y-9380000D02*
G75*
G03*
X25720000Y-9380000I-20000J0D01*
G01*
X26150000Y-8810000D02*
X26150000Y-8890000D01*
X26110000Y-8850000D02*
X26190000Y-8850000D01*
X26150000Y-9060000D02*
X26150000Y-9140000D01*
X26110000Y-9100000D02*
X26190000Y-9100000D01*
X26150000Y-9310000D02*
X26150000Y-9390000D01*
X26110000Y-9350000D02*
X26190000Y-9350000D01*
X26150000Y-9560000D02*
X26150000Y-9640000D01*
X26110000Y-9600000D02*
X26190000Y-9600000D01*
X26150000Y-9810000D02*
X26150000Y-9890000D01*
X26110000Y-9850000D02*
X26190000Y-9850000D01*
X26150000Y-10060000D02*
X26150000Y-10140000D01*
X26110000Y-10100000D02*
X26190000Y-10100000D01*
X26150000Y-10310000D02*
X26150000Y-10390000D01*
X26110000Y-10350000D02*
X26190000Y-10350000D01*
X26150000Y-10560000D02*
X26150000Y-10640000D01*
X26110000Y-10600000D02*
X26190000Y-10600000D01*
X26150000Y-10810000D02*
X26150000Y-10890000D01*
X26110000Y-10850000D02*
X26190000Y-10850000D01*
X26150000Y-11060000D02*
X26150000Y-11140000D01*
X26110000Y-11100000D02*
X26190000Y-11100000D01*
X26150000Y-11310000D02*
X26150000Y-11390000D01*
X26110000Y-11350000D02*
X26190000Y-11350000D01*
X26150000Y-11560000D02*
X26150000Y-11640000D01*
X26110000Y-11600000D02*
X26190000Y-11600000D01*
X26404000Y-8810000D02*
X26404000Y-8890000D01*
X26364000Y-8850000D02*
X26444000Y-8850000D01*
X26404000Y-9060000D02*
X26404000Y-9140000D01*
X26364000Y-9100000D02*
X26444000Y-9100000D01*
X26404000Y-9310000D02*
X26404000Y-9390000D01*
X26364000Y-9350000D02*
X26444000Y-9350000D01*
X26404000Y-9560000D02*
X26404000Y-9640000D01*
X26364000Y-9600000D02*
X26444000Y-9600000D01*
X26404000Y-9810000D02*
X26404000Y-9890000D01*
X26364000Y-9850000D02*
X26444000Y-9850000D01*
X26404000Y-10060000D02*
X26404000Y-10140000D01*
X26364000Y-10100000D02*
X26444000Y-10100000D01*
X26404000Y-10310000D02*
X26404000Y-10390000D01*
X26364000Y-10350000D02*
X26444000Y-10350000D01*
X26404000Y-10560000D02*
X26404000Y-10640000D01*
X26364000Y-10600000D02*
X26444000Y-10600000D01*
X26404000Y-10810000D02*
X26404000Y-10890000D01*
X26364000Y-10850000D02*
X26444000Y-10850000D01*
X26404000Y-11060000D02*
X26404000Y-11140000D01*
X26364000Y-11100000D02*
X26444000Y-11100000D01*
X26404000Y-11310000D02*
X26404000Y-11390000D01*
X26364000Y-11350000D02*
X26444000Y-11350000D01*
X26404000Y-11560000D02*
X26404000Y-11640000D01*
X26364000Y-11600000D02*
X26444000Y-11600000D01*
X22322856Y-9600356D02*
X22322856Y-9529644D01*
X22252144Y-9529644D01*
X22252144Y-9600356D01*
X22322856Y-9600356D01*
X22322856Y-9854356D02*
X22322856Y-9783644D01*
X22252144Y-9783644D01*
X22252144Y-9854356D01*
X22322856Y-9854356D01*
X22322856Y-10108356D02*
X22322856Y-10037644D01*
X22252144Y-10037644D01*
X22252144Y-10108356D01*
X22322856Y-10108356D01*
X22322856Y-10362356D02*
X22322856Y-10291644D01*
X22252144Y-10291644D01*
X22252144Y-10362356D01*
X22322856Y-10362356D01*
X22322856Y-10616356D02*
X22322856Y-10545644D01*
X22252144Y-10545644D01*
X22252144Y-10616356D01*
X22322856Y-10616356D01*
X22322856Y-10870356D02*
X22322856Y-10799644D01*
X22252144Y-10799644D01*
X22252144Y-10870356D01*
X22322856Y-10870356D01*
D12*
X22450000Y-9110000D02*
X22610000Y-8950000D01*
X22450000Y-8790000D01*
X22290000Y-8950000D01*
X22450000Y-9110000D01*
X22450000Y-11610000D02*
X22610000Y-11450000D01*
X22450000Y-11290000D01*
X22290000Y-11450000D01*
X22450000Y-11610000D01*
X25500000Y-9110000D02*
X25660000Y-8950000D01*
X25500000Y-8790000D01*
X25340000Y-8950000D01*
X25500000Y-9110000D01*
X25500000Y-11610000D02*
X25660000Y-11450000D01*
X25500000Y-11290000D01*
X25340000Y-11450000D01*
X25500000Y-11610000D01*
D11*
X22305777Y-12166484D02*
X22305777Y-11966484D01*
X22305777Y-11966484D02*
X22353396Y-11966484D01*
X22353396Y-11966484D02*
X22381967Y-11976008D01*
X22381967Y-11976008D02*
X22401015Y-11995055D01*
X22401015Y-11995055D02*
X22410539Y-12014103D01*
X22410539Y-12014103D02*
X22420062Y-12052198D01*
X22420062Y-12052198D02*
X22420062Y-12080769D01*
X22420062Y-12080769D02*
X22410539Y-12118865D01*
X22410539Y-12118865D02*
X22401015Y-12137912D01*
X22401015Y-12137912D02*
X22381967Y-12156960D01*
X22381967Y-12156960D02*
X22353396Y-12166484D01*
X22353396Y-12166484D02*
X22305777Y-12166484D01*
X22505777Y-12166484D02*
X22505777Y-12033150D01*
X22505777Y-12071246D02*
X22515301Y-12052198D01*
X22515301Y-12052198D02*
X22524824Y-12042674D01*
X22524824Y-12042674D02*
X22543872Y-12033150D01*
X22543872Y-12033150D02*
X22562920Y-12033150D01*
X22629586Y-12166484D02*
X22629586Y-12033150D01*
X22629586Y-11966484D02*
X22620062Y-11976008D01*
X22620062Y-11976008D02*
X22629586Y-11985531D01*
X22629586Y-11985531D02*
X22639110Y-11976008D01*
X22639110Y-11976008D02*
X22629586Y-11966484D01*
X22629586Y-11966484D02*
X22629586Y-11985531D01*
X22753396Y-12166484D02*
X22734348Y-12156960D01*
X22734348Y-12156960D02*
X22724824Y-12137912D01*
X22724824Y-12137912D02*
X22724824Y-11966484D01*
X22858158Y-12166484D02*
X22839110Y-12156960D01*
X22839110Y-12156960D02*
X22829586Y-12137912D01*
X22829586Y-12137912D02*
X22829586Y-11966484D01*
X23086729Y-12166484D02*
X23086729Y-11966484D01*
X23086729Y-11966484D02*
X23153396Y-12109341D01*
X23153396Y-12109341D02*
X23220062Y-11966484D01*
X23220062Y-11966484D02*
X23220062Y-12166484D01*
X23401015Y-12166484D02*
X23401015Y-12061722D01*
X23401015Y-12061722D02*
X23391491Y-12042674D01*
X23391491Y-12042674D02*
X23372443Y-12033150D01*
X23372443Y-12033150D02*
X23334348Y-12033150D01*
X23334348Y-12033150D02*
X23315301Y-12042674D01*
X23401015Y-12156960D02*
X23381967Y-12166484D01*
X23381967Y-12166484D02*
X23334348Y-12166484D01*
X23334348Y-12166484D02*
X23315301Y-12156960D01*
X23315301Y-12156960D02*
X23305777Y-12137912D01*
X23305777Y-12137912D02*
X23305777Y-12118865D01*
X23305777Y-12118865D02*
X23315301Y-12099817D01*
X23315301Y-12099817D02*
X23334348Y-12090293D01*
X23334348Y-12090293D02*
X23381967Y-12090293D01*
X23381967Y-12090293D02*
X23401015Y-12080769D01*
X23496253Y-12033150D02*
X23496253Y-12233150D01*
X23496253Y-12042674D02*
X23515301Y-12033150D01*
X23515301Y-12033150D02*
X23553396Y-12033150D01*
X23553396Y-12033150D02*
X23572443Y-12042674D01*
X23572443Y-12042674D02*
X23581967Y-12052198D01*
X23581967Y-12052198D02*
X23591491Y-12071246D01*
X23591491Y-12071246D02*
X23591491Y-12128388D01*
X23591491Y-12128388D02*
X23581967Y-12147436D01*
X23581967Y-12147436D02*
X23572443Y-12156960D01*
X23572443Y-12156960D02*
X23553396Y-12166484D01*
X23553396Y-12166484D02*
X23515301Y-12166484D01*
X23515301Y-12166484D02*
X23496253Y-12156960D01*
X23677205Y-12147436D02*
X23686729Y-12156960D01*
X23686729Y-12156960D02*
X23677205Y-12166484D01*
X23677205Y-12166484D02*
X23667682Y-12156960D01*
X23667682Y-12156960D02*
X23677205Y-12147436D01*
X23677205Y-12147436D02*
X23677205Y-12166484D01*
X23677205Y-12042674D02*
X23686729Y-12052198D01*
X23686729Y-12052198D02*
X23677205Y-12061722D01*
X23677205Y-12061722D02*
X23667682Y-12052198D01*
X23667682Y-12052198D02*
X23677205Y-12042674D01*
X23677205Y-12042674D02*
X23677205Y-12061722D01*
D10*
X22025000Y-12485000D02*
X22045000Y-12505000D01*
X22045000Y-12485000D02*
X22025000Y-12505000D01*
D11*
X22343872Y-12386484D02*
X22362920Y-12386484D01*
X22362920Y-12386484D02*
X22381967Y-12396008D01*
X22381967Y-12396008D02*
X22391491Y-12405531D01*
X22391491Y-12405531D02*
X22401015Y-12424579D01*
X22401015Y-12424579D02*
X22410539Y-12462674D01*
X22410539Y-12462674D02*
X22410539Y-12510293D01*
X22410539Y-12510293D02*
X22401015Y-12548388D01*
X22401015Y-12548388D02*
X22391491Y-12567436D01*
X22391491Y-12567436D02*
X22381967Y-12576960D01*
X22381967Y-12576960D02*
X22362920Y-12586484D01*
X22362920Y-12586484D02*
X22343872Y-12586484D01*
X22343872Y-12586484D02*
X22324824Y-12576960D01*
X22324824Y-12576960D02*
X22315301Y-12567436D01*
X22315301Y-12567436D02*
X22305777Y-12548388D01*
X22305777Y-12548388D02*
X22296253Y-12510293D01*
X22296253Y-12510293D02*
X22296253Y-12462674D01*
X22296253Y-12462674D02*
X22305777Y-12424579D01*
X22305777Y-12424579D02*
X22315301Y-12405531D01*
X22315301Y-12405531D02*
X22324824Y-12396008D01*
X22324824Y-12396008D02*
X22343872Y-12386484D01*
X22496253Y-12567436D02*
X22505777Y-12576960D01*
X22505777Y-12576960D02*
X22496253Y-12586484D01*
X22496253Y-12586484D02*
X22486729Y-12576960D01*
X22486729Y-12576960D02*
X22496253Y-12567436D01*
X22496253Y-12567436D02*
X22496253Y-12586484D01*
X22581967Y-12405531D02*
X22591491Y-12396008D01*
X22591491Y-12396008D02*
X22610539Y-12386484D01*
X22610539Y-12386484D02*
X22658158Y-12386484D01*
X22658158Y-12386484D02*
X22677205Y-12396008D01*
X22677205Y-12396008D02*
X22686729Y-12405531D01*
X22686729Y-12405531D02*
X22696253Y-12424579D01*
X22696253Y-12424579D02*
X22696253Y-12443627D01*
X22696253Y-12443627D02*
X22686729Y-12472198D01*
X22686729Y-12472198D02*
X22572443Y-12586484D01*
X22572443Y-12586484D02*
X22696253Y-12586484D01*
X22820062Y-12386484D02*
X22839110Y-12386484D01*
X22839110Y-12386484D02*
X22858158Y-12396008D01*
X22858158Y-12396008D02*
X22867682Y-12405531D01*
X22867682Y-12405531D02*
X22877205Y-12424579D01*
X22877205Y-12424579D02*
X22886729Y-12462674D01*
X22886729Y-12462674D02*
X22886729Y-12510293D01*
X22886729Y-12510293D02*
X22877205Y-12548388D01*
X22877205Y-12548388D02*
X22867682Y-12567436D01*
X22867682Y-12567436D02*
X22858158Y-12576960D01*
X22858158Y-12576960D02*
X22839110Y-12586484D01*
X22839110Y-12586484D02*
X22820062Y-12586484D01*
X22820062Y-12586484D02*
X22801015Y-12576960D01*
X22801015Y-12576960D02*
X22791491Y-12567436D01*
X22791491Y-12567436D02*
X22781967Y-12548388D01*
X22781967Y-12548388D02*
X22772443Y-12510293D01*
X22772443Y-12510293D02*
X22772443Y-12462674D01*
X22772443Y-12462674D02*
X22781967Y-12424579D01*
X22781967Y-12424579D02*
X22791491Y-12405531D01*
X22791491Y-12405531D02*
X22801015Y-12396008D01*
X22801015Y-12396008D02*
X22820062Y-12386484D01*
X23010539Y-12386484D02*
X23029586Y-12386484D01*
X23029586Y-12386484D02*
X23048634Y-12396008D01*
X23048634Y-12396008D02*
X23058158Y-12405531D01*
X23058158Y-12405531D02*
X23067682Y-12424579D01*
X23067682Y-12424579D02*
X23077205Y-12462674D01*
X23077205Y-12462674D02*
X23077205Y-12510293D01*
X23077205Y-12510293D02*
X23067682Y-12548388D01*
X23067682Y-12548388D02*
X23058158Y-12567436D01*
X23058158Y-12567436D02*
X23048634Y-12576960D01*
X23048634Y-12576960D02*
X23029586Y-12586484D01*
X23029586Y-12586484D02*
X23010539Y-12586484D01*
X23010539Y-12586484D02*
X22991491Y-12576960D01*
X22991491Y-12576960D02*
X22981967Y-12567436D01*
X22981967Y-12567436D02*
X22972443Y-12548388D01*
X22972443Y-12548388D02*
X22962920Y-12510293D01*
X22962920Y-12510293D02*
X22962920Y-12462674D01*
X22962920Y-12462674D02*
X22972443Y-12424579D01*
X22972443Y-12424579D02*
X22981967Y-12405531D01*
X22981967Y-12405531D02*
X22991491Y-12396008D01*
X22991491Y-12396008D02*
X23010539Y-12386484D01*
X23162920Y-12586484D02*
X23162920Y-12453150D01*
X23162920Y-12472198D02*
X23172443Y-12462674D01*
X23172443Y-12462674D02*
X23191491Y-12453150D01*
X23191491Y-12453150D02*
X23220063Y-12453150D01*
X23220063Y-12453150D02*
X23239110Y-12462674D01*
X23239110Y-12462674D02*
X23248634Y-12481722D01*
X23248634Y-12481722D02*
X23248634Y-12586484D01*
X23248634Y-12481722D02*
X23258158Y-12462674D01*
X23258158Y-12462674D02*
X23277205Y-12453150D01*
X23277205Y-12453150D02*
X23305777Y-12453150D01*
X23305777Y-12453150D02*
X23324824Y-12462674D01*
X23324824Y-12462674D02*
X23334348Y-12481722D01*
X23334348Y-12481722D02*
X23334348Y-12586484D01*
X23429586Y-12586484D02*
X23429586Y-12453150D01*
X23429586Y-12472198D02*
X23439110Y-12462674D01*
X23439110Y-12462674D02*
X23458158Y-12453150D01*
X23458158Y-12453150D02*
X23486729Y-12453150D01*
X23486729Y-12453150D02*
X23505777Y-12462674D01*
X23505777Y-12462674D02*
X23515301Y-12481722D01*
X23515301Y-12481722D02*
X23515301Y-12586484D01*
X23515301Y-12481722D02*
X23524824Y-12462674D01*
X23524824Y-12462674D02*
X23543872Y-12453150D01*
X23543872Y-12453150D02*
X23572443Y-12453150D01*
X23572443Y-12453150D02*
X23591491Y-12462674D01*
X23591491Y-12462674D02*
X23601015Y-12481722D01*
X23601015Y-12481722D02*
X23601015Y-12586484D01*
X23991491Y-12376960D02*
X23820063Y-12634103D01*
X24248634Y-12386484D02*
X24267682Y-12386484D01*
X24267682Y-12386484D02*
X24286729Y-12396008D01*
X24286729Y-12396008D02*
X24296253Y-12405531D01*
X24296253Y-12405531D02*
X24305777Y-12424579D01*
X24305777Y-12424579D02*
X24315301Y-12462674D01*
X24315301Y-12462674D02*
X24315301Y-12510293D01*
X24315301Y-12510293D02*
X24305777Y-12548388D01*
X24305777Y-12548388D02*
X24296253Y-12567436D01*
X24296253Y-12567436D02*
X24286729Y-12576960D01*
X24286729Y-12576960D02*
X24267682Y-12586484D01*
X24267682Y-12586484D02*
X24248634Y-12586484D01*
X24248634Y-12586484D02*
X24229586Y-12576960D01*
X24229586Y-12576960D02*
X24220063Y-12567436D01*
X24220063Y-12567436D02*
X24210539Y-12548388D01*
X24210539Y-12548388D02*
X24201015Y-12510293D01*
X24201015Y-12510293D02*
X24201015Y-12462674D01*
X24201015Y-12462674D02*
X24210539Y-12424579D01*
X24210539Y-12424579D02*
X24220063Y-12405531D01*
X24220063Y-12405531D02*
X24229586Y-12396008D01*
X24229586Y-12396008D02*
X24248634Y-12386484D01*
X24401015Y-12567436D02*
X24410539Y-12576960D01*
X24410539Y-12576960D02*
X24401015Y-12586484D01*
X24401015Y-12586484D02*
X24391491Y-12576960D01*
X24391491Y-12576960D02*
X24401015Y-12567436D01*
X24401015Y-12567436D02*
X24401015Y-12586484D01*
X24534348Y-12386484D02*
X24553396Y-12386484D01*
X24553396Y-12386484D02*
X24572444Y-12396008D01*
X24572444Y-12396008D02*
X24581967Y-12405531D01*
X24581967Y-12405531D02*
X24591491Y-12424579D01*
X24591491Y-12424579D02*
X24601015Y-12462674D01*
X24601015Y-12462674D02*
X24601015Y-12510293D01*
X24601015Y-12510293D02*
X24591491Y-12548388D01*
X24591491Y-12548388D02*
X24581967Y-12567436D01*
X24581967Y-12567436D02*
X24572444Y-12576960D01*
X24572444Y-12576960D02*
X24553396Y-12586484D01*
X24553396Y-12586484D02*
X24534348Y-12586484D01*
X24534348Y-12586484D02*
X24515301Y-12576960D01*
X24515301Y-12576960D02*
X24505777Y-12567436D01*
X24505777Y-12567436D02*
X24496253Y-12548388D01*
X24496253Y-12548388D02*
X24486729Y-12510293D01*
X24486729Y-12510293D02*
X24486729Y-12462674D01*
X24486729Y-12462674D02*
X24496253Y-12424579D01*
X24496253Y-12424579D02*
X24505777Y-12405531D01*
X24505777Y-12405531D02*
X24515301Y-12396008D01*
X24515301Y-12396008D02*
X24534348Y-12386484D01*
X24724825Y-12386484D02*
X24743872Y-12386484D01*
X24743872Y-12386484D02*
X24762920Y-12396008D01*
X24762920Y-12396008D02*
X24772444Y-12405531D01*
X24772444Y-12405531D02*
X24781967Y-12424579D01*
X24781967Y-12424579D02*
X24791491Y-12462674D01*
X24791491Y-12462674D02*
X24791491Y-12510293D01*
X24791491Y-12510293D02*
X24781967Y-12548388D01*
X24781967Y-12548388D02*
X24772444Y-12567436D01*
X24772444Y-12567436D02*
X24762920Y-12576960D01*
X24762920Y-12576960D02*
X24743872Y-12586484D01*
X24743872Y-12586484D02*
X24724825Y-12586484D01*
X24724825Y-12586484D02*
X24705777Y-12576960D01*
X24705777Y-12576960D02*
X24696253Y-12567436D01*
X24696253Y-12567436D02*
X24686729Y-12548388D01*
X24686729Y-12548388D02*
X24677206Y-12510293D01*
X24677206Y-12510293D02*
X24677206Y-12462674D01*
X24677206Y-12462674D02*
X24686729Y-12424579D01*
X24686729Y-12424579D02*
X24696253Y-12405531D01*
X24696253Y-12405531D02*
X24705777Y-12396008D01*
X24705777Y-12396008D02*
X24724825Y-12386484D01*
X24858158Y-12386484D02*
X24991491Y-12386484D01*
X24991491Y-12386484D02*
X24905777Y-12586484D01*
X25077206Y-12586484D02*
X25115301Y-12586484D01*
X25115301Y-12586484D02*
X25134348Y-12576960D01*
X25134348Y-12576960D02*
X25143872Y-12567436D01*
X25143872Y-12567436D02*
X25162920Y-12538865D01*
X25162920Y-12538865D02*
X25172444Y-12500769D01*
X25172444Y-12500769D02*
X25172444Y-12424579D01*
X25172444Y-12424579D02*
X25162920Y-12405531D01*
X25162920Y-12405531D02*
X25153396Y-12396008D01*
X25153396Y-12396008D02*
X25134348Y-12386484D01*
X25134348Y-12386484D02*
X25096253Y-12386484D01*
X25096253Y-12386484D02*
X25077206Y-12396008D01*
X25077206Y-12396008D02*
X25067682Y-12405531D01*
X25067682Y-12405531D02*
X25058158Y-12424579D01*
X25058158Y-12424579D02*
X25058158Y-12472198D01*
X25058158Y-12472198D02*
X25067682Y-12491246D01*
X25067682Y-12491246D02*
X25077206Y-12500769D01*
X25077206Y-12500769D02*
X25096253Y-12510293D01*
X25096253Y-12510293D02*
X25134348Y-12510293D01*
X25134348Y-12510293D02*
X25153396Y-12500769D01*
X25153396Y-12500769D02*
X25162920Y-12491246D01*
X25162920Y-12491246D02*
X25172444Y-12472198D01*
X25248634Y-12386484D02*
X25248634Y-12424579D01*
X25324825Y-12386484D02*
X25324825Y-12424579D01*
X25620063Y-12662674D02*
X25610539Y-12653150D01*
X25610539Y-12653150D02*
X25591491Y-12624579D01*
X25591491Y-12624579D02*
X25581968Y-12605531D01*
X25581968Y-12605531D02*
X25572444Y-12576960D01*
X25572444Y-12576960D02*
X25562920Y-12529341D01*
X25562920Y-12529341D02*
X25562920Y-12491246D01*
X25562920Y-12491246D02*
X25572444Y-12443627D01*
X25572444Y-12443627D02*
X25581968Y-12415055D01*
X25581968Y-12415055D02*
X25591491Y-12396008D01*
X25591491Y-12396008D02*
X25610539Y-12367436D01*
X25610539Y-12367436D02*
X25620063Y-12357912D01*
X25677206Y-12386484D02*
X25810539Y-12386484D01*
X25810539Y-12386484D02*
X25724825Y-12586484D01*
X25991491Y-12586484D02*
X25877206Y-12586484D01*
X25934348Y-12586484D02*
X25934348Y-12386484D01*
X25934348Y-12386484D02*
X25915301Y-12415055D01*
X25915301Y-12415055D02*
X25896253Y-12434103D01*
X25896253Y-12434103D02*
X25877206Y-12443627D01*
X26229587Y-12586484D02*
X26229587Y-12386484D01*
X26315301Y-12586484D02*
X26315301Y-12481722D01*
X26315301Y-12481722D02*
X26305777Y-12462674D01*
X26305777Y-12462674D02*
X26286730Y-12453150D01*
X26286730Y-12453150D02*
X26258158Y-12453150D01*
X26258158Y-12453150D02*
X26239110Y-12462674D01*
X26239110Y-12462674D02*
X26229587Y-12472198D01*
X26439110Y-12586484D02*
X26420063Y-12576960D01*
X26420063Y-12576960D02*
X26410539Y-12567436D01*
X26410539Y-12567436D02*
X26401015Y-12548388D01*
X26401015Y-12548388D02*
X26401015Y-12491246D01*
X26401015Y-12491246D02*
X26410539Y-12472198D01*
X26410539Y-12472198D02*
X26420063Y-12462674D01*
X26420063Y-12462674D02*
X26439110Y-12453150D01*
X26439110Y-12453150D02*
X26467682Y-12453150D01*
X26467682Y-12453150D02*
X26486730Y-12462674D01*
X26486730Y-12462674D02*
X26496253Y-12472198D01*
X26496253Y-12472198D02*
X26505777Y-12491246D01*
X26505777Y-12491246D02*
X26505777Y-12548388D01*
X26505777Y-12548388D02*
X26496253Y-12567436D01*
X26496253Y-12567436D02*
X26486730Y-12576960D01*
X26486730Y-12576960D02*
X26467682Y-12586484D01*
X26467682Y-12586484D02*
X26439110Y-12586484D01*
X26620063Y-12586484D02*
X26601015Y-12576960D01*
X26601015Y-12576960D02*
X26591491Y-12557912D01*
X26591491Y-12557912D02*
X26591491Y-12386484D01*
X26772444Y-12576960D02*
X26753396Y-12586484D01*
X26753396Y-12586484D02*
X26715301Y-12586484D01*
X26715301Y-12586484D02*
X26696253Y-12576960D01*
X26696253Y-12576960D02*
X26686730Y-12557912D01*
X26686730Y-12557912D02*
X26686730Y-12481722D01*
X26686730Y-12481722D02*
X26696253Y-12462674D01*
X26696253Y-12462674D02*
X26715301Y-12453150D01*
X26715301Y-12453150D02*
X26753396Y-12453150D01*
X26753396Y-12453150D02*
X26772444Y-12462674D01*
X26772444Y-12462674D02*
X26781968Y-12481722D01*
X26781968Y-12481722D02*
X26781968Y-12500769D01*
X26781968Y-12500769D02*
X26686730Y-12519817D01*
X26858158Y-12576960D02*
X26877206Y-12586484D01*
X26877206Y-12586484D02*
X26915301Y-12586484D01*
X26915301Y-12586484D02*
X26934349Y-12576960D01*
X26934349Y-12576960D02*
X26943872Y-12557912D01*
X26943872Y-12557912D02*
X26943872Y-12548388D01*
X26943872Y-12548388D02*
X26934349Y-12529341D01*
X26934349Y-12529341D02*
X26915301Y-12519817D01*
X26915301Y-12519817D02*
X26886730Y-12519817D01*
X26886730Y-12519817D02*
X26867682Y-12510293D01*
X26867682Y-12510293D02*
X26858158Y-12491246D01*
X26858158Y-12491246D02*
X26858158Y-12481722D01*
X26858158Y-12481722D02*
X26867682Y-12462674D01*
X26867682Y-12462674D02*
X26886730Y-12453150D01*
X26886730Y-12453150D02*
X26915301Y-12453150D01*
X26915301Y-12453150D02*
X26934349Y-12462674D01*
X27010539Y-12662674D02*
X27020063Y-12653150D01*
X27020063Y-12653150D02*
X27039111Y-12624579D01*
X27039111Y-12624579D02*
X27048634Y-12605531D01*
X27048634Y-12605531D02*
X27058158Y-12576960D01*
X27058158Y-12576960D02*
X27067682Y-12529341D01*
X27067682Y-12529341D02*
X27067682Y-12491246D01*
X27067682Y-12491246D02*
X27058158Y-12443627D01*
X27058158Y-12443627D02*
X27048634Y-12415055D01*
X27048634Y-12415055D02*
X27039111Y-12396008D01*
X27039111Y-12396008D02*
X27020063Y-12367436D01*
X27020063Y-12367436D02*
X27010539Y-12357912D01*
D10*
X22045000Y-12759000D02*
G75*
G03*
X22045000Y-12759000I-20000J0D01*
G01*
D11*
X22343872Y-12650484D02*
X22362920Y-12650484D01*
X22362920Y-12650484D02*
X22381967Y-12660008D01*
X22381967Y-12660008D02*
X22391491Y-12669531D01*
X22391491Y-12669531D02*
X22401015Y-12688579D01*
X22401015Y-12688579D02*
X22410539Y-12726674D01*
X22410539Y-12726674D02*
X22410539Y-12774293D01*
X22410539Y-12774293D02*
X22401015Y-12812388D01*
X22401015Y-12812388D02*
X22391491Y-12831436D01*
X22391491Y-12831436D02*
X22381967Y-12840960D01*
X22381967Y-12840960D02*
X22362920Y-12850484D01*
X22362920Y-12850484D02*
X22343872Y-12850484D01*
X22343872Y-12850484D02*
X22324824Y-12840960D01*
X22324824Y-12840960D02*
X22315301Y-12831436D01*
X22315301Y-12831436D02*
X22305777Y-12812388D01*
X22305777Y-12812388D02*
X22296253Y-12774293D01*
X22296253Y-12774293D02*
X22296253Y-12726674D01*
X22296253Y-12726674D02*
X22305777Y-12688579D01*
X22305777Y-12688579D02*
X22315301Y-12669531D01*
X22315301Y-12669531D02*
X22324824Y-12660008D01*
X22324824Y-12660008D02*
X22343872Y-12650484D01*
X22496253Y-12831436D02*
X22505777Y-12840960D01*
X22505777Y-12840960D02*
X22496253Y-12850484D01*
X22496253Y-12850484D02*
X22486729Y-12840960D01*
X22486729Y-12840960D02*
X22496253Y-12831436D01*
X22496253Y-12831436D02*
X22496253Y-12850484D01*
X22677205Y-12717150D02*
X22677205Y-12850484D01*
X22629586Y-12640960D02*
X22581967Y-12783817D01*
X22581967Y-12783817D02*
X22705777Y-12783817D01*
X22820062Y-12650484D02*
X22839110Y-12650484D01*
X22839110Y-12650484D02*
X22858158Y-12660008D01*
X22858158Y-12660008D02*
X22867682Y-12669531D01*
X22867682Y-12669531D02*
X22877205Y-12688579D01*
X22877205Y-12688579D02*
X22886729Y-12726674D01*
X22886729Y-12726674D02*
X22886729Y-12774293D01*
X22886729Y-12774293D02*
X22877205Y-12812388D01*
X22877205Y-12812388D02*
X22867682Y-12831436D01*
X22867682Y-12831436D02*
X22858158Y-12840960D01*
X22858158Y-12840960D02*
X22839110Y-12850484D01*
X22839110Y-12850484D02*
X22820062Y-12850484D01*
X22820062Y-12850484D02*
X22801015Y-12840960D01*
X22801015Y-12840960D02*
X22791491Y-12831436D01*
X22791491Y-12831436D02*
X22781967Y-12812388D01*
X22781967Y-12812388D02*
X22772443Y-12774293D01*
X22772443Y-12774293D02*
X22772443Y-12726674D01*
X22772443Y-12726674D02*
X22781967Y-12688579D01*
X22781967Y-12688579D02*
X22791491Y-12669531D01*
X22791491Y-12669531D02*
X22801015Y-12660008D01*
X22801015Y-12660008D02*
X22820062Y-12650484D01*
X23010539Y-12650484D02*
X23029586Y-12650484D01*
X23029586Y-12650484D02*
X23048634Y-12660008D01*
X23048634Y-12660008D02*
X23058158Y-12669531D01*
X23058158Y-12669531D02*
X23067682Y-12688579D01*
X23067682Y-12688579D02*
X23077205Y-12726674D01*
X23077205Y-12726674D02*
X23077205Y-12774293D01*
X23077205Y-12774293D02*
X23067682Y-12812388D01*
X23067682Y-12812388D02*
X23058158Y-12831436D01*
X23058158Y-12831436D02*
X23048634Y-12840960D01*
X23048634Y-12840960D02*
X23029586Y-12850484D01*
X23029586Y-12850484D02*
X23010539Y-12850484D01*
X23010539Y-12850484D02*
X22991491Y-12840960D01*
X22991491Y-12840960D02*
X22981967Y-12831436D01*
X22981967Y-12831436D02*
X22972443Y-12812388D01*
X22972443Y-12812388D02*
X22962920Y-12774293D01*
X22962920Y-12774293D02*
X22962920Y-12726674D01*
X22962920Y-12726674D02*
X22972443Y-12688579D01*
X22972443Y-12688579D02*
X22981967Y-12669531D01*
X22981967Y-12669531D02*
X22991491Y-12660008D01*
X22991491Y-12660008D02*
X23010539Y-12650484D01*
X23162920Y-12850484D02*
X23162920Y-12717150D01*
X23162920Y-12736198D02*
X23172443Y-12726674D01*
X23172443Y-12726674D02*
X23191491Y-12717150D01*
X23191491Y-12717150D02*
X23220063Y-12717150D01*
X23220063Y-12717150D02*
X23239110Y-12726674D01*
X23239110Y-12726674D02*
X23248634Y-12745722D01*
X23248634Y-12745722D02*
X23248634Y-12850484D01*
X23248634Y-12745722D02*
X23258158Y-12726674D01*
X23258158Y-12726674D02*
X23277205Y-12717150D01*
X23277205Y-12717150D02*
X23305777Y-12717150D01*
X23305777Y-12717150D02*
X23324824Y-12726674D01*
X23324824Y-12726674D02*
X23334348Y-12745722D01*
X23334348Y-12745722D02*
X23334348Y-12850484D01*
X23429586Y-12850484D02*
X23429586Y-12717150D01*
X23429586Y-12736198D02*
X23439110Y-12726674D01*
X23439110Y-12726674D02*
X23458158Y-12717150D01*
X23458158Y-12717150D02*
X23486729Y-12717150D01*
X23486729Y-12717150D02*
X23505777Y-12726674D01*
X23505777Y-12726674D02*
X23515301Y-12745722D01*
X23515301Y-12745722D02*
X23515301Y-12850484D01*
X23515301Y-12745722D02*
X23524824Y-12726674D01*
X23524824Y-12726674D02*
X23543872Y-12717150D01*
X23543872Y-12717150D02*
X23572443Y-12717150D01*
X23572443Y-12717150D02*
X23591491Y-12726674D01*
X23591491Y-12726674D02*
X23601015Y-12745722D01*
X23601015Y-12745722D02*
X23601015Y-12850484D01*
X23991491Y-12640960D02*
X23820063Y-12898103D01*
X24248634Y-12650484D02*
X24267682Y-12650484D01*
X24267682Y-12650484D02*
X24286729Y-12660008D01*
X24286729Y-12660008D02*
X24296253Y-12669531D01*
X24296253Y-12669531D02*
X24305777Y-12688579D01*
X24305777Y-12688579D02*
X24315301Y-12726674D01*
X24315301Y-12726674D02*
X24315301Y-12774293D01*
X24315301Y-12774293D02*
X24305777Y-12812388D01*
X24305777Y-12812388D02*
X24296253Y-12831436D01*
X24296253Y-12831436D02*
X24286729Y-12840960D01*
X24286729Y-12840960D02*
X24267682Y-12850484D01*
X24267682Y-12850484D02*
X24248634Y-12850484D01*
X24248634Y-12850484D02*
X24229586Y-12840960D01*
X24229586Y-12840960D02*
X24220063Y-12831436D01*
X24220063Y-12831436D02*
X24210539Y-12812388D01*
X24210539Y-12812388D02*
X24201015Y-12774293D01*
X24201015Y-12774293D02*
X24201015Y-12726674D01*
X24201015Y-12726674D02*
X24210539Y-12688579D01*
X24210539Y-12688579D02*
X24220063Y-12669531D01*
X24220063Y-12669531D02*
X24229586Y-12660008D01*
X24229586Y-12660008D02*
X24248634Y-12650484D01*
X24401015Y-12831436D02*
X24410539Y-12840960D01*
X24410539Y-12840960D02*
X24401015Y-12850484D01*
X24401015Y-12850484D02*
X24391491Y-12840960D01*
X24391491Y-12840960D02*
X24401015Y-12831436D01*
X24401015Y-12831436D02*
X24401015Y-12850484D01*
X24534348Y-12650484D02*
X24553396Y-12650484D01*
X24553396Y-12650484D02*
X24572444Y-12660008D01*
X24572444Y-12660008D02*
X24581967Y-12669531D01*
X24581967Y-12669531D02*
X24591491Y-12688579D01*
X24591491Y-12688579D02*
X24601015Y-12726674D01*
X24601015Y-12726674D02*
X24601015Y-12774293D01*
X24601015Y-12774293D02*
X24591491Y-12812388D01*
X24591491Y-12812388D02*
X24581967Y-12831436D01*
X24581967Y-12831436D02*
X24572444Y-12840960D01*
X24572444Y-12840960D02*
X24553396Y-12850484D01*
X24553396Y-12850484D02*
X24534348Y-12850484D01*
X24534348Y-12850484D02*
X24515301Y-12840960D01*
X24515301Y-12840960D02*
X24505777Y-12831436D01*
X24505777Y-12831436D02*
X24496253Y-12812388D01*
X24496253Y-12812388D02*
X24486729Y-12774293D01*
X24486729Y-12774293D02*
X24486729Y-12726674D01*
X24486729Y-12726674D02*
X24496253Y-12688579D01*
X24496253Y-12688579D02*
X24505777Y-12669531D01*
X24505777Y-12669531D02*
X24515301Y-12660008D01*
X24515301Y-12660008D02*
X24534348Y-12650484D01*
X24791491Y-12850484D02*
X24677206Y-12850484D01*
X24734348Y-12850484D02*
X24734348Y-12650484D01*
X24734348Y-12650484D02*
X24715301Y-12679055D01*
X24715301Y-12679055D02*
X24696253Y-12698103D01*
X24696253Y-12698103D02*
X24677206Y-12707627D01*
X24972444Y-12650484D02*
X24877206Y-12650484D01*
X24877206Y-12650484D02*
X24867682Y-12745722D01*
X24867682Y-12745722D02*
X24877206Y-12736198D01*
X24877206Y-12736198D02*
X24896253Y-12726674D01*
X24896253Y-12726674D02*
X24943872Y-12726674D01*
X24943872Y-12726674D02*
X24962920Y-12736198D01*
X24962920Y-12736198D02*
X24972444Y-12745722D01*
X24972444Y-12745722D02*
X24981967Y-12764769D01*
X24981967Y-12764769D02*
X24981967Y-12812388D01*
X24981967Y-12812388D02*
X24972444Y-12831436D01*
X24972444Y-12831436D02*
X24962920Y-12840960D01*
X24962920Y-12840960D02*
X24943872Y-12850484D01*
X24943872Y-12850484D02*
X24896253Y-12850484D01*
X24896253Y-12850484D02*
X24877206Y-12840960D01*
X24877206Y-12840960D02*
X24867682Y-12831436D01*
X25048634Y-12650484D02*
X25181967Y-12650484D01*
X25181967Y-12650484D02*
X25096253Y-12850484D01*
X25248634Y-12650484D02*
X25248634Y-12688579D01*
X25324825Y-12650484D02*
X25324825Y-12688579D01*
X25620063Y-12926674D02*
X25610539Y-12917150D01*
X25610539Y-12917150D02*
X25591491Y-12888579D01*
X25591491Y-12888579D02*
X25581968Y-12869531D01*
X25581968Y-12869531D02*
X25572444Y-12840960D01*
X25572444Y-12840960D02*
X25562920Y-12793341D01*
X25562920Y-12793341D02*
X25562920Y-12755246D01*
X25562920Y-12755246D02*
X25572444Y-12707627D01*
X25572444Y-12707627D02*
X25581968Y-12679055D01*
X25581968Y-12679055D02*
X25591491Y-12660008D01*
X25591491Y-12660008D02*
X25610539Y-12631436D01*
X25610539Y-12631436D02*
X25620063Y-12621912D01*
X25781968Y-12717150D02*
X25781968Y-12850484D01*
X25734348Y-12640960D02*
X25686729Y-12783817D01*
X25686729Y-12783817D02*
X25810539Y-12783817D01*
X25867682Y-12650484D02*
X25991491Y-12650484D01*
X25991491Y-12650484D02*
X25924825Y-12726674D01*
X25924825Y-12726674D02*
X25953396Y-12726674D01*
X25953396Y-12726674D02*
X25972444Y-12736198D01*
X25972444Y-12736198D02*
X25981968Y-12745722D01*
X25981968Y-12745722D02*
X25991491Y-12764769D01*
X25991491Y-12764769D02*
X25991491Y-12812388D01*
X25991491Y-12812388D02*
X25981968Y-12831436D01*
X25981968Y-12831436D02*
X25972444Y-12840960D01*
X25972444Y-12840960D02*
X25953396Y-12850484D01*
X25953396Y-12850484D02*
X25896253Y-12850484D01*
X25896253Y-12850484D02*
X25877206Y-12840960D01*
X25877206Y-12840960D02*
X25867682Y-12831436D01*
X26229587Y-12850484D02*
X26229587Y-12650484D01*
X26315301Y-12850484D02*
X26315301Y-12745722D01*
X26315301Y-12745722D02*
X26305777Y-12726674D01*
X26305777Y-12726674D02*
X26286730Y-12717150D01*
X26286730Y-12717150D02*
X26258158Y-12717150D01*
X26258158Y-12717150D02*
X26239110Y-12726674D01*
X26239110Y-12726674D02*
X26229587Y-12736198D01*
X26439110Y-12850484D02*
X26420063Y-12840960D01*
X26420063Y-12840960D02*
X26410539Y-12831436D01*
X26410539Y-12831436D02*
X26401015Y-12812388D01*
X26401015Y-12812388D02*
X26401015Y-12755246D01*
X26401015Y-12755246D02*
X26410539Y-12736198D01*
X26410539Y-12736198D02*
X26420063Y-12726674D01*
X26420063Y-12726674D02*
X26439110Y-12717150D01*
X26439110Y-12717150D02*
X26467682Y-12717150D01*
X26467682Y-12717150D02*
X26486730Y-12726674D01*
X26486730Y-12726674D02*
X26496253Y-12736198D01*
X26496253Y-12736198D02*
X26505777Y-12755246D01*
X26505777Y-12755246D02*
X26505777Y-12812388D01*
X26505777Y-12812388D02*
X26496253Y-12831436D01*
X26496253Y-12831436D02*
X26486730Y-12840960D01*
X26486730Y-12840960D02*
X26467682Y-12850484D01*
X26467682Y-12850484D02*
X26439110Y-12850484D01*
X26620063Y-12850484D02*
X26601015Y-12840960D01*
X26601015Y-12840960D02*
X26591491Y-12821912D01*
X26591491Y-12821912D02*
X26591491Y-12650484D01*
X26772444Y-12840960D02*
X26753396Y-12850484D01*
X26753396Y-12850484D02*
X26715301Y-12850484D01*
X26715301Y-12850484D02*
X26696253Y-12840960D01*
X26696253Y-12840960D02*
X26686730Y-12821912D01*
X26686730Y-12821912D02*
X26686730Y-12745722D01*
X26686730Y-12745722D02*
X26696253Y-12726674D01*
X26696253Y-12726674D02*
X26715301Y-12717150D01*
X26715301Y-12717150D02*
X26753396Y-12717150D01*
X26753396Y-12717150D02*
X26772444Y-12726674D01*
X26772444Y-12726674D02*
X26781968Y-12745722D01*
X26781968Y-12745722D02*
X26781968Y-12764769D01*
X26781968Y-12764769D02*
X26686730Y-12783817D01*
X26858158Y-12840960D02*
X26877206Y-12850484D01*
X26877206Y-12850484D02*
X26915301Y-12850484D01*
X26915301Y-12850484D02*
X26934349Y-12840960D01*
X26934349Y-12840960D02*
X26943872Y-12821912D01*
X26943872Y-12821912D02*
X26943872Y-12812388D01*
X26943872Y-12812388D02*
X26934349Y-12793341D01*
X26934349Y-12793341D02*
X26915301Y-12783817D01*
X26915301Y-12783817D02*
X26886730Y-12783817D01*
X26886730Y-12783817D02*
X26867682Y-12774293D01*
X26867682Y-12774293D02*
X26858158Y-12755246D01*
X26858158Y-12755246D02*
X26858158Y-12745722D01*
X26858158Y-12745722D02*
X26867682Y-12726674D01*
X26867682Y-12726674D02*
X26886730Y-12717150D01*
X26886730Y-12717150D02*
X26915301Y-12717150D01*
X26915301Y-12717150D02*
X26934349Y-12726674D01*
X27010539Y-12926674D02*
X27020063Y-12917150D01*
X27020063Y-12917150D02*
X27039111Y-12888579D01*
X27039111Y-12888579D02*
X27048634Y-12869531D01*
X27048634Y-12869531D02*
X27058158Y-12840960D01*
X27058158Y-12840960D02*
X27067682Y-12793341D01*
X27067682Y-12793341D02*
X27067682Y-12755246D01*
X27067682Y-12755246D02*
X27058158Y-12707627D01*
X27058158Y-12707627D02*
X27048634Y-12679055D01*
X27048634Y-12679055D02*
X27039111Y-12660008D01*
X27039111Y-12660008D02*
X27020063Y-12631436D01*
X27020063Y-12631436D02*
X27010539Y-12621912D01*
D10*
X22005000Y-12983000D02*
X22005000Y-13063000D01*
X21965000Y-13023000D02*
X22045000Y-13023000D01*
D11*
X22343872Y-12914484D02*
X22362920Y-12914484D01*
X22362920Y-12914484D02*
X22381967Y-12924008D01*
X22381967Y-12924008D02*
X22391491Y-12933531D01*
X22391491Y-12933531D02*
X22401015Y-12952579D01*
X22401015Y-12952579D02*
X22410539Y-12990674D01*
X22410539Y-12990674D02*
X22410539Y-13038293D01*
X22410539Y-13038293D02*
X22401015Y-13076388D01*
X22401015Y-13076388D02*
X22391491Y-13095436D01*
X22391491Y-13095436D02*
X22381967Y-13104960D01*
X22381967Y-13104960D02*
X22362920Y-13114484D01*
X22362920Y-13114484D02*
X22343872Y-13114484D01*
X22343872Y-13114484D02*
X22324824Y-13104960D01*
X22324824Y-13104960D02*
X22315301Y-13095436D01*
X22315301Y-13095436D02*
X22305777Y-13076388D01*
X22305777Y-13076388D02*
X22296253Y-13038293D01*
X22296253Y-13038293D02*
X22296253Y-12990674D01*
X22296253Y-12990674D02*
X22305777Y-12952579D01*
X22305777Y-12952579D02*
X22315301Y-12933531D01*
X22315301Y-12933531D02*
X22324824Y-12924008D01*
X22324824Y-12924008D02*
X22343872Y-12914484D01*
X22496253Y-13095436D02*
X22505777Y-13104960D01*
X22505777Y-13104960D02*
X22496253Y-13114484D01*
X22496253Y-13114484D02*
X22486729Y-13104960D01*
X22486729Y-13104960D02*
X22496253Y-13095436D01*
X22496253Y-13095436D02*
X22496253Y-13114484D01*
X22620062Y-13000198D02*
X22601015Y-12990674D01*
X22601015Y-12990674D02*
X22591491Y-12981150D01*
X22591491Y-12981150D02*
X22581967Y-12962103D01*
X22581967Y-12962103D02*
X22581967Y-12952579D01*
X22581967Y-12952579D02*
X22591491Y-12933531D01*
X22591491Y-12933531D02*
X22601015Y-12924008D01*
X22601015Y-12924008D02*
X22620062Y-12914484D01*
X22620062Y-12914484D02*
X22658158Y-12914484D01*
X22658158Y-12914484D02*
X22677205Y-12924008D01*
X22677205Y-12924008D02*
X22686729Y-12933531D01*
X22686729Y-12933531D02*
X22696253Y-12952579D01*
X22696253Y-12952579D02*
X22696253Y-12962103D01*
X22696253Y-12962103D02*
X22686729Y-12981150D01*
X22686729Y-12981150D02*
X22677205Y-12990674D01*
X22677205Y-12990674D02*
X22658158Y-13000198D01*
X22658158Y-13000198D02*
X22620062Y-13000198D01*
X22620062Y-13000198D02*
X22601015Y-13009722D01*
X22601015Y-13009722D02*
X22591491Y-13019246D01*
X22591491Y-13019246D02*
X22581967Y-13038293D01*
X22581967Y-13038293D02*
X22581967Y-13076388D01*
X22581967Y-13076388D02*
X22591491Y-13095436D01*
X22591491Y-13095436D02*
X22601015Y-13104960D01*
X22601015Y-13104960D02*
X22620062Y-13114484D01*
X22620062Y-13114484D02*
X22658158Y-13114484D01*
X22658158Y-13114484D02*
X22677205Y-13104960D01*
X22677205Y-13104960D02*
X22686729Y-13095436D01*
X22686729Y-13095436D02*
X22696253Y-13076388D01*
X22696253Y-13076388D02*
X22696253Y-13038293D01*
X22696253Y-13038293D02*
X22686729Y-13019246D01*
X22686729Y-13019246D02*
X22677205Y-13009722D01*
X22677205Y-13009722D02*
X22658158Y-13000198D01*
X22820062Y-12914484D02*
X22839110Y-12914484D01*
X22839110Y-12914484D02*
X22858158Y-12924008D01*
X22858158Y-12924008D02*
X22867682Y-12933531D01*
X22867682Y-12933531D02*
X22877205Y-12952579D01*
X22877205Y-12952579D02*
X22886729Y-12990674D01*
X22886729Y-12990674D02*
X22886729Y-13038293D01*
X22886729Y-13038293D02*
X22877205Y-13076388D01*
X22877205Y-13076388D02*
X22867682Y-13095436D01*
X22867682Y-13095436D02*
X22858158Y-13104960D01*
X22858158Y-13104960D02*
X22839110Y-13114484D01*
X22839110Y-13114484D02*
X22820062Y-13114484D01*
X22820062Y-13114484D02*
X22801015Y-13104960D01*
X22801015Y-13104960D02*
X22791491Y-13095436D01*
X22791491Y-13095436D02*
X22781967Y-13076388D01*
X22781967Y-13076388D02*
X22772443Y-13038293D01*
X22772443Y-13038293D02*
X22772443Y-12990674D01*
X22772443Y-12990674D02*
X22781967Y-12952579D01*
X22781967Y-12952579D02*
X22791491Y-12933531D01*
X22791491Y-12933531D02*
X22801015Y-12924008D01*
X22801015Y-12924008D02*
X22820062Y-12914484D01*
X23010539Y-12914484D02*
X23029586Y-12914484D01*
X23029586Y-12914484D02*
X23048634Y-12924008D01*
X23048634Y-12924008D02*
X23058158Y-12933531D01*
X23058158Y-12933531D02*
X23067682Y-12952579D01*
X23067682Y-12952579D02*
X23077205Y-12990674D01*
X23077205Y-12990674D02*
X23077205Y-13038293D01*
X23077205Y-13038293D02*
X23067682Y-13076388D01*
X23067682Y-13076388D02*
X23058158Y-13095436D01*
X23058158Y-13095436D02*
X23048634Y-13104960D01*
X23048634Y-13104960D02*
X23029586Y-13114484D01*
X23029586Y-13114484D02*
X23010539Y-13114484D01*
X23010539Y-13114484D02*
X22991491Y-13104960D01*
X22991491Y-13104960D02*
X22981967Y-13095436D01*
X22981967Y-13095436D02*
X22972443Y-13076388D01*
X22972443Y-13076388D02*
X22962920Y-13038293D01*
X22962920Y-13038293D02*
X22962920Y-12990674D01*
X22962920Y-12990674D02*
X22972443Y-12952579D01*
X22972443Y-12952579D02*
X22981967Y-12933531D01*
X22981967Y-12933531D02*
X22991491Y-12924008D01*
X22991491Y-12924008D02*
X23010539Y-12914484D01*
X23162920Y-13114484D02*
X23162920Y-12981150D01*
X23162920Y-13000198D02*
X23172443Y-12990674D01*
X23172443Y-12990674D02*
X23191491Y-12981150D01*
X23191491Y-12981150D02*
X23220063Y-12981150D01*
X23220063Y-12981150D02*
X23239110Y-12990674D01*
X23239110Y-12990674D02*
X23248634Y-13009722D01*
X23248634Y-13009722D02*
X23248634Y-13114484D01*
X23248634Y-13009722D02*
X23258158Y-12990674D01*
X23258158Y-12990674D02*
X23277205Y-12981150D01*
X23277205Y-12981150D02*
X23305777Y-12981150D01*
X23305777Y-12981150D02*
X23324824Y-12990674D01*
X23324824Y-12990674D02*
X23334348Y-13009722D01*
X23334348Y-13009722D02*
X23334348Y-13114484D01*
X23429586Y-13114484D02*
X23429586Y-12981150D01*
X23429586Y-13000198D02*
X23439110Y-12990674D01*
X23439110Y-12990674D02*
X23458158Y-12981150D01*
X23458158Y-12981150D02*
X23486729Y-12981150D01*
X23486729Y-12981150D02*
X23505777Y-12990674D01*
X23505777Y-12990674D02*
X23515301Y-13009722D01*
X23515301Y-13009722D02*
X23515301Y-13114484D01*
X23515301Y-13009722D02*
X23524824Y-12990674D01*
X23524824Y-12990674D02*
X23543872Y-12981150D01*
X23543872Y-12981150D02*
X23572443Y-12981150D01*
X23572443Y-12981150D02*
X23591491Y-12990674D01*
X23591491Y-12990674D02*
X23601015Y-13009722D01*
X23601015Y-13009722D02*
X23601015Y-13114484D01*
X23991491Y-12904960D02*
X23820063Y-13162103D01*
X24248634Y-12914484D02*
X24267682Y-12914484D01*
X24267682Y-12914484D02*
X24286729Y-12924008D01*
X24286729Y-12924008D02*
X24296253Y-12933531D01*
X24296253Y-12933531D02*
X24305777Y-12952579D01*
X24305777Y-12952579D02*
X24315301Y-12990674D01*
X24315301Y-12990674D02*
X24315301Y-13038293D01*
X24315301Y-13038293D02*
X24305777Y-13076388D01*
X24305777Y-13076388D02*
X24296253Y-13095436D01*
X24296253Y-13095436D02*
X24286729Y-13104960D01*
X24286729Y-13104960D02*
X24267682Y-13114484D01*
X24267682Y-13114484D02*
X24248634Y-13114484D01*
X24248634Y-13114484D02*
X24229586Y-13104960D01*
X24229586Y-13104960D02*
X24220063Y-13095436D01*
X24220063Y-13095436D02*
X24210539Y-13076388D01*
X24210539Y-13076388D02*
X24201015Y-13038293D01*
X24201015Y-13038293D02*
X24201015Y-12990674D01*
X24201015Y-12990674D02*
X24210539Y-12952579D01*
X24210539Y-12952579D02*
X24220063Y-12933531D01*
X24220063Y-12933531D02*
X24229586Y-12924008D01*
X24229586Y-12924008D02*
X24248634Y-12914484D01*
X24401015Y-13095436D02*
X24410539Y-13104960D01*
X24410539Y-13104960D02*
X24401015Y-13114484D01*
X24401015Y-13114484D02*
X24391491Y-13104960D01*
X24391491Y-13104960D02*
X24401015Y-13095436D01*
X24401015Y-13095436D02*
X24401015Y-13114484D01*
X24534348Y-12914484D02*
X24553396Y-12914484D01*
X24553396Y-12914484D02*
X24572444Y-12924008D01*
X24572444Y-12924008D02*
X24581967Y-12933531D01*
X24581967Y-12933531D02*
X24591491Y-12952579D01*
X24591491Y-12952579D02*
X24601015Y-12990674D01*
X24601015Y-12990674D02*
X24601015Y-13038293D01*
X24601015Y-13038293D02*
X24591491Y-13076388D01*
X24591491Y-13076388D02*
X24581967Y-13095436D01*
X24581967Y-13095436D02*
X24572444Y-13104960D01*
X24572444Y-13104960D02*
X24553396Y-13114484D01*
X24553396Y-13114484D02*
X24534348Y-13114484D01*
X24534348Y-13114484D02*
X24515301Y-13104960D01*
X24515301Y-13104960D02*
X24505777Y-13095436D01*
X24505777Y-13095436D02*
X24496253Y-13076388D01*
X24496253Y-13076388D02*
X24486729Y-13038293D01*
X24486729Y-13038293D02*
X24486729Y-12990674D01*
X24486729Y-12990674D02*
X24496253Y-12952579D01*
X24496253Y-12952579D02*
X24505777Y-12933531D01*
X24505777Y-12933531D02*
X24515301Y-12924008D01*
X24515301Y-12924008D02*
X24534348Y-12914484D01*
X24667682Y-12914484D02*
X24791491Y-12914484D01*
X24791491Y-12914484D02*
X24724825Y-12990674D01*
X24724825Y-12990674D02*
X24753396Y-12990674D01*
X24753396Y-12990674D02*
X24772444Y-13000198D01*
X24772444Y-13000198D02*
X24781967Y-13009722D01*
X24781967Y-13009722D02*
X24791491Y-13028769D01*
X24791491Y-13028769D02*
X24791491Y-13076388D01*
X24791491Y-13076388D02*
X24781967Y-13095436D01*
X24781967Y-13095436D02*
X24772444Y-13104960D01*
X24772444Y-13104960D02*
X24753396Y-13114484D01*
X24753396Y-13114484D02*
X24696253Y-13114484D01*
X24696253Y-13114484D02*
X24677206Y-13104960D01*
X24677206Y-13104960D02*
X24667682Y-13095436D01*
X24981967Y-13114484D02*
X24867682Y-13114484D01*
X24924825Y-13114484D02*
X24924825Y-12914484D01*
X24924825Y-12914484D02*
X24905777Y-12943055D01*
X24905777Y-12943055D02*
X24886729Y-12962103D01*
X24886729Y-12962103D02*
X24867682Y-12971627D01*
X25162920Y-12914484D02*
X25067682Y-12914484D01*
X25067682Y-12914484D02*
X25058158Y-13009722D01*
X25058158Y-13009722D02*
X25067682Y-13000198D01*
X25067682Y-13000198D02*
X25086729Y-12990674D01*
X25086729Y-12990674D02*
X25134348Y-12990674D01*
X25134348Y-12990674D02*
X25153396Y-13000198D01*
X25153396Y-13000198D02*
X25162920Y-13009722D01*
X25162920Y-13009722D02*
X25172444Y-13028769D01*
X25172444Y-13028769D02*
X25172444Y-13076388D01*
X25172444Y-13076388D02*
X25162920Y-13095436D01*
X25162920Y-13095436D02*
X25153396Y-13104960D01*
X25153396Y-13104960D02*
X25134348Y-13114484D01*
X25134348Y-13114484D02*
X25086729Y-13114484D01*
X25086729Y-13114484D02*
X25067682Y-13104960D01*
X25067682Y-13104960D02*
X25058158Y-13095436D01*
X25248634Y-12914484D02*
X25248634Y-12952579D01*
X25324825Y-12914484D02*
X25324825Y-12952579D01*
X25620063Y-13190674D02*
X25610539Y-13181150D01*
X25610539Y-13181150D02*
X25591491Y-13152579D01*
X25591491Y-13152579D02*
X25581968Y-13133531D01*
X25581968Y-13133531D02*
X25572444Y-13104960D01*
X25572444Y-13104960D02*
X25562920Y-13057341D01*
X25562920Y-13057341D02*
X25562920Y-13019246D01*
X25562920Y-13019246D02*
X25572444Y-12971627D01*
X25572444Y-12971627D02*
X25581968Y-12943055D01*
X25581968Y-12943055D02*
X25591491Y-12924008D01*
X25591491Y-12924008D02*
X25610539Y-12895436D01*
X25610539Y-12895436D02*
X25620063Y-12885912D01*
X25686729Y-12933531D02*
X25696253Y-12924008D01*
X25696253Y-12924008D02*
X25715301Y-12914484D01*
X25715301Y-12914484D02*
X25762920Y-12914484D01*
X25762920Y-12914484D02*
X25781968Y-12924008D01*
X25781968Y-12924008D02*
X25791491Y-12933531D01*
X25791491Y-12933531D02*
X25801015Y-12952579D01*
X25801015Y-12952579D02*
X25801015Y-12971627D01*
X25801015Y-12971627D02*
X25791491Y-13000198D01*
X25791491Y-13000198D02*
X25677206Y-13114484D01*
X25677206Y-13114484D02*
X25801015Y-13114484D01*
X25972444Y-12981150D02*
X25972444Y-13114484D01*
X25924825Y-12904960D02*
X25877206Y-13047817D01*
X25877206Y-13047817D02*
X26001015Y-13047817D01*
X26229587Y-13114484D02*
X26229587Y-12914484D01*
X26315301Y-13114484D02*
X26315301Y-13009722D01*
X26315301Y-13009722D02*
X26305777Y-12990674D01*
X26305777Y-12990674D02*
X26286730Y-12981150D01*
X26286730Y-12981150D02*
X26258158Y-12981150D01*
X26258158Y-12981150D02*
X26239110Y-12990674D01*
X26239110Y-12990674D02*
X26229587Y-13000198D01*
X26439110Y-13114484D02*
X26420063Y-13104960D01*
X26420063Y-13104960D02*
X26410539Y-13095436D01*
X26410539Y-13095436D02*
X26401015Y-13076388D01*
X26401015Y-13076388D02*
X26401015Y-13019246D01*
X26401015Y-13019246D02*
X26410539Y-13000198D01*
X26410539Y-13000198D02*
X26420063Y-12990674D01*
X26420063Y-12990674D02*
X26439110Y-12981150D01*
X26439110Y-12981150D02*
X26467682Y-12981150D01*
X26467682Y-12981150D02*
X26486730Y-12990674D01*
X26486730Y-12990674D02*
X26496253Y-13000198D01*
X26496253Y-13000198D02*
X26505777Y-13019246D01*
X26505777Y-13019246D02*
X26505777Y-13076388D01*
X26505777Y-13076388D02*
X26496253Y-13095436D01*
X26496253Y-13095436D02*
X26486730Y-13104960D01*
X26486730Y-13104960D02*
X26467682Y-13114484D01*
X26467682Y-13114484D02*
X26439110Y-13114484D01*
X26620063Y-13114484D02*
X26601015Y-13104960D01*
X26601015Y-13104960D02*
X26591491Y-13085912D01*
X26591491Y-13085912D02*
X26591491Y-12914484D01*
X26772444Y-13104960D02*
X26753396Y-13114484D01*
X26753396Y-13114484D02*
X26715301Y-13114484D01*
X26715301Y-13114484D02*
X26696253Y-13104960D01*
X26696253Y-13104960D02*
X26686730Y-13085912D01*
X26686730Y-13085912D02*
X26686730Y-13009722D01*
X26686730Y-13009722D02*
X26696253Y-12990674D01*
X26696253Y-12990674D02*
X26715301Y-12981150D01*
X26715301Y-12981150D02*
X26753396Y-12981150D01*
X26753396Y-12981150D02*
X26772444Y-12990674D01*
X26772444Y-12990674D02*
X26781968Y-13009722D01*
X26781968Y-13009722D02*
X26781968Y-13028769D01*
X26781968Y-13028769D02*
X26686730Y-13047817D01*
X26858158Y-13104960D02*
X26877206Y-13114484D01*
X26877206Y-13114484D02*
X26915301Y-13114484D01*
X26915301Y-13114484D02*
X26934349Y-13104960D01*
X26934349Y-13104960D02*
X26943872Y-13085912D01*
X26943872Y-13085912D02*
X26943872Y-13076388D01*
X26943872Y-13076388D02*
X26934349Y-13057341D01*
X26934349Y-13057341D02*
X26915301Y-13047817D01*
X26915301Y-13047817D02*
X26886730Y-13047817D01*
X26886730Y-13047817D02*
X26867682Y-13038293D01*
X26867682Y-13038293D02*
X26858158Y-13019246D01*
X26858158Y-13019246D02*
X26858158Y-13009722D01*
X26858158Y-13009722D02*
X26867682Y-12990674D01*
X26867682Y-12990674D02*
X26886730Y-12981150D01*
X26886730Y-12981150D02*
X26915301Y-12981150D01*
X26915301Y-12981150D02*
X26934349Y-12990674D01*
X27010539Y-13190674D02*
X27020063Y-13181150D01*
X27020063Y-13181150D02*
X27039111Y-13152579D01*
X27039111Y-13152579D02*
X27048634Y-13133531D01*
X27048634Y-13133531D02*
X27058158Y-13104960D01*
X27058158Y-13104960D02*
X27067682Y-13057341D01*
X27067682Y-13057341D02*
X27067682Y-13019246D01*
X27067682Y-13019246D02*
X27058158Y-12971627D01*
X27058158Y-12971627D02*
X27048634Y-12943055D01*
X27048634Y-12943055D02*
X27039111Y-12924008D01*
X27039111Y-12924008D02*
X27020063Y-12895436D01*
X27020063Y-12895436D02*
X27010539Y-12885912D01*
D10*
X22030356Y-13322356D02*
X22030356Y-13251644D01*
X21959644Y-13251644D01*
X21959644Y-13322356D01*
X22030356Y-13322356D01*
D11*
X22410539Y-13378484D02*
X22296253Y-13378484D01*
X22353396Y-13378484D02*
X22353396Y-13178484D01*
X22353396Y-13178484D02*
X22334348Y-13207055D01*
X22334348Y-13207055D02*
X22315301Y-13226103D01*
X22315301Y-13226103D02*
X22296253Y-13235627D01*
X22496253Y-13359436D02*
X22505777Y-13368960D01*
X22505777Y-13368960D02*
X22496253Y-13378484D01*
X22496253Y-13378484D02*
X22486729Y-13368960D01*
X22486729Y-13368960D02*
X22496253Y-13359436D01*
X22496253Y-13359436D02*
X22496253Y-13378484D01*
X22629586Y-13178484D02*
X22648634Y-13178484D01*
X22648634Y-13178484D02*
X22667682Y-13188008D01*
X22667682Y-13188008D02*
X22677205Y-13197531D01*
X22677205Y-13197531D02*
X22686729Y-13216579D01*
X22686729Y-13216579D02*
X22696253Y-13254674D01*
X22696253Y-13254674D02*
X22696253Y-13302293D01*
X22696253Y-13302293D02*
X22686729Y-13340388D01*
X22686729Y-13340388D02*
X22677205Y-13359436D01*
X22677205Y-13359436D02*
X22667682Y-13368960D01*
X22667682Y-13368960D02*
X22648634Y-13378484D01*
X22648634Y-13378484D02*
X22629586Y-13378484D01*
X22629586Y-13378484D02*
X22610539Y-13368960D01*
X22610539Y-13368960D02*
X22601015Y-13359436D01*
X22601015Y-13359436D02*
X22591491Y-13340388D01*
X22591491Y-13340388D02*
X22581967Y-13302293D01*
X22581967Y-13302293D02*
X22581967Y-13254674D01*
X22581967Y-13254674D02*
X22591491Y-13216579D01*
X22591491Y-13216579D02*
X22601015Y-13197531D01*
X22601015Y-13197531D02*
X22610539Y-13188008D01*
X22610539Y-13188008D02*
X22629586Y-13178484D01*
X22820062Y-13178484D02*
X22839110Y-13178484D01*
X22839110Y-13178484D02*
X22858158Y-13188008D01*
X22858158Y-13188008D02*
X22867682Y-13197531D01*
X22867682Y-13197531D02*
X22877205Y-13216579D01*
X22877205Y-13216579D02*
X22886729Y-13254674D01*
X22886729Y-13254674D02*
X22886729Y-13302293D01*
X22886729Y-13302293D02*
X22877205Y-13340388D01*
X22877205Y-13340388D02*
X22867682Y-13359436D01*
X22867682Y-13359436D02*
X22858158Y-13368960D01*
X22858158Y-13368960D02*
X22839110Y-13378484D01*
X22839110Y-13378484D02*
X22820062Y-13378484D01*
X22820062Y-13378484D02*
X22801015Y-13368960D01*
X22801015Y-13368960D02*
X22791491Y-13359436D01*
X22791491Y-13359436D02*
X22781967Y-13340388D01*
X22781967Y-13340388D02*
X22772443Y-13302293D01*
X22772443Y-13302293D02*
X22772443Y-13254674D01*
X22772443Y-13254674D02*
X22781967Y-13216579D01*
X22781967Y-13216579D02*
X22791491Y-13197531D01*
X22791491Y-13197531D02*
X22801015Y-13188008D01*
X22801015Y-13188008D02*
X22820062Y-13178484D01*
X23010539Y-13178484D02*
X23029586Y-13178484D01*
X23029586Y-13178484D02*
X23048634Y-13188008D01*
X23048634Y-13188008D02*
X23058158Y-13197531D01*
X23058158Y-13197531D02*
X23067682Y-13216579D01*
X23067682Y-13216579D02*
X23077205Y-13254674D01*
X23077205Y-13254674D02*
X23077205Y-13302293D01*
X23077205Y-13302293D02*
X23067682Y-13340388D01*
X23067682Y-13340388D02*
X23058158Y-13359436D01*
X23058158Y-13359436D02*
X23048634Y-13368960D01*
X23048634Y-13368960D02*
X23029586Y-13378484D01*
X23029586Y-13378484D02*
X23010539Y-13378484D01*
X23010539Y-13378484D02*
X22991491Y-13368960D01*
X22991491Y-13368960D02*
X22981967Y-13359436D01*
X22981967Y-13359436D02*
X22972443Y-13340388D01*
X22972443Y-13340388D02*
X22962920Y-13302293D01*
X22962920Y-13302293D02*
X22962920Y-13254674D01*
X22962920Y-13254674D02*
X22972443Y-13216579D01*
X22972443Y-13216579D02*
X22981967Y-13197531D01*
X22981967Y-13197531D02*
X22991491Y-13188008D01*
X22991491Y-13188008D02*
X23010539Y-13178484D01*
X23162920Y-13378484D02*
X23162920Y-13245150D01*
X23162920Y-13264198D02*
X23172443Y-13254674D01*
X23172443Y-13254674D02*
X23191491Y-13245150D01*
X23191491Y-13245150D02*
X23220063Y-13245150D01*
X23220063Y-13245150D02*
X23239110Y-13254674D01*
X23239110Y-13254674D02*
X23248634Y-13273722D01*
X23248634Y-13273722D02*
X23248634Y-13378484D01*
X23248634Y-13273722D02*
X23258158Y-13254674D01*
X23258158Y-13254674D02*
X23277205Y-13245150D01*
X23277205Y-13245150D02*
X23305777Y-13245150D01*
X23305777Y-13245150D02*
X23324824Y-13254674D01*
X23324824Y-13254674D02*
X23334348Y-13273722D01*
X23334348Y-13273722D02*
X23334348Y-13378484D01*
X23429586Y-13378484D02*
X23429586Y-13245150D01*
X23429586Y-13264198D02*
X23439110Y-13254674D01*
X23439110Y-13254674D02*
X23458158Y-13245150D01*
X23458158Y-13245150D02*
X23486729Y-13245150D01*
X23486729Y-13245150D02*
X23505777Y-13254674D01*
X23505777Y-13254674D02*
X23515301Y-13273722D01*
X23515301Y-13273722D02*
X23515301Y-13378484D01*
X23515301Y-13273722D02*
X23524824Y-13254674D01*
X23524824Y-13254674D02*
X23543872Y-13245150D01*
X23543872Y-13245150D02*
X23572443Y-13245150D01*
X23572443Y-13245150D02*
X23591491Y-13254674D01*
X23591491Y-13254674D02*
X23601015Y-13273722D01*
X23601015Y-13273722D02*
X23601015Y-13378484D01*
X23991491Y-13168960D02*
X23820063Y-13426103D01*
X24248634Y-13178484D02*
X24267682Y-13178484D01*
X24267682Y-13178484D02*
X24286729Y-13188008D01*
X24286729Y-13188008D02*
X24296253Y-13197531D01*
X24296253Y-13197531D02*
X24305777Y-13216579D01*
X24305777Y-13216579D02*
X24315301Y-13254674D01*
X24315301Y-13254674D02*
X24315301Y-13302293D01*
X24315301Y-13302293D02*
X24305777Y-13340388D01*
X24305777Y-13340388D02*
X24296253Y-13359436D01*
X24296253Y-13359436D02*
X24286729Y-13368960D01*
X24286729Y-13368960D02*
X24267682Y-13378484D01*
X24267682Y-13378484D02*
X24248634Y-13378484D01*
X24248634Y-13378484D02*
X24229586Y-13368960D01*
X24229586Y-13368960D02*
X24220063Y-13359436D01*
X24220063Y-13359436D02*
X24210539Y-13340388D01*
X24210539Y-13340388D02*
X24201015Y-13302293D01*
X24201015Y-13302293D02*
X24201015Y-13254674D01*
X24201015Y-13254674D02*
X24210539Y-13216579D01*
X24210539Y-13216579D02*
X24220063Y-13197531D01*
X24220063Y-13197531D02*
X24229586Y-13188008D01*
X24229586Y-13188008D02*
X24248634Y-13178484D01*
X24401015Y-13359436D02*
X24410539Y-13368960D01*
X24410539Y-13368960D02*
X24401015Y-13378484D01*
X24401015Y-13378484D02*
X24391491Y-13368960D01*
X24391491Y-13368960D02*
X24401015Y-13359436D01*
X24401015Y-13359436D02*
X24401015Y-13378484D01*
X24534348Y-13178484D02*
X24553396Y-13178484D01*
X24553396Y-13178484D02*
X24572444Y-13188008D01*
X24572444Y-13188008D02*
X24581967Y-13197531D01*
X24581967Y-13197531D02*
X24591491Y-13216579D01*
X24591491Y-13216579D02*
X24601015Y-13254674D01*
X24601015Y-13254674D02*
X24601015Y-13302293D01*
X24601015Y-13302293D02*
X24591491Y-13340388D01*
X24591491Y-13340388D02*
X24581967Y-13359436D01*
X24581967Y-13359436D02*
X24572444Y-13368960D01*
X24572444Y-13368960D02*
X24553396Y-13378484D01*
X24553396Y-13378484D02*
X24534348Y-13378484D01*
X24534348Y-13378484D02*
X24515301Y-13368960D01*
X24515301Y-13368960D02*
X24505777Y-13359436D01*
X24505777Y-13359436D02*
X24496253Y-13340388D01*
X24496253Y-13340388D02*
X24486729Y-13302293D01*
X24486729Y-13302293D02*
X24486729Y-13254674D01*
X24486729Y-13254674D02*
X24496253Y-13216579D01*
X24496253Y-13216579D02*
X24505777Y-13197531D01*
X24505777Y-13197531D02*
X24515301Y-13188008D01*
X24515301Y-13188008D02*
X24534348Y-13178484D01*
X24667682Y-13178484D02*
X24791491Y-13178484D01*
X24791491Y-13178484D02*
X24724825Y-13254674D01*
X24724825Y-13254674D02*
X24753396Y-13254674D01*
X24753396Y-13254674D02*
X24772444Y-13264198D01*
X24772444Y-13264198D02*
X24781967Y-13273722D01*
X24781967Y-13273722D02*
X24791491Y-13292769D01*
X24791491Y-13292769D02*
X24791491Y-13340388D01*
X24791491Y-13340388D02*
X24781967Y-13359436D01*
X24781967Y-13359436D02*
X24772444Y-13368960D01*
X24772444Y-13368960D02*
X24753396Y-13378484D01*
X24753396Y-13378484D02*
X24696253Y-13378484D01*
X24696253Y-13378484D02*
X24677206Y-13368960D01*
X24677206Y-13368960D02*
X24667682Y-13359436D01*
X24886729Y-13378484D02*
X24924825Y-13378484D01*
X24924825Y-13378484D02*
X24943872Y-13368960D01*
X24943872Y-13368960D02*
X24953396Y-13359436D01*
X24953396Y-13359436D02*
X24972444Y-13330865D01*
X24972444Y-13330865D02*
X24981967Y-13292769D01*
X24981967Y-13292769D02*
X24981967Y-13216579D01*
X24981967Y-13216579D02*
X24972444Y-13197531D01*
X24972444Y-13197531D02*
X24962920Y-13188008D01*
X24962920Y-13188008D02*
X24943872Y-13178484D01*
X24943872Y-13178484D02*
X24905777Y-13178484D01*
X24905777Y-13178484D02*
X24886729Y-13188008D01*
X24886729Y-13188008D02*
X24877206Y-13197531D01*
X24877206Y-13197531D02*
X24867682Y-13216579D01*
X24867682Y-13216579D02*
X24867682Y-13264198D01*
X24867682Y-13264198D02*
X24877206Y-13283246D01*
X24877206Y-13283246D02*
X24886729Y-13292769D01*
X24886729Y-13292769D02*
X24905777Y-13302293D01*
X24905777Y-13302293D02*
X24943872Y-13302293D01*
X24943872Y-13302293D02*
X24962920Y-13292769D01*
X24962920Y-13292769D02*
X24972444Y-13283246D01*
X24972444Y-13283246D02*
X24981967Y-13264198D01*
X25153396Y-13245150D02*
X25153396Y-13378484D01*
X25105777Y-13168960D02*
X25058158Y-13311817D01*
X25058158Y-13311817D02*
X25181967Y-13311817D01*
X25248634Y-13178484D02*
X25248634Y-13216579D01*
X25324825Y-13178484D02*
X25324825Y-13216579D01*
X25620063Y-13454674D02*
X25610539Y-13445150D01*
X25610539Y-13445150D02*
X25591491Y-13416579D01*
X25591491Y-13416579D02*
X25581968Y-13397531D01*
X25581968Y-13397531D02*
X25572444Y-13368960D01*
X25572444Y-13368960D02*
X25562920Y-13321341D01*
X25562920Y-13321341D02*
X25562920Y-13283246D01*
X25562920Y-13283246D02*
X25572444Y-13235627D01*
X25572444Y-13235627D02*
X25581968Y-13207055D01*
X25581968Y-13207055D02*
X25591491Y-13188008D01*
X25591491Y-13188008D02*
X25610539Y-13159436D01*
X25610539Y-13159436D02*
X25620063Y-13149912D01*
X25781968Y-13178484D02*
X25743872Y-13178484D01*
X25743872Y-13178484D02*
X25724825Y-13188008D01*
X25724825Y-13188008D02*
X25715301Y-13197531D01*
X25715301Y-13197531D02*
X25696253Y-13226103D01*
X25696253Y-13226103D02*
X25686729Y-13264198D01*
X25686729Y-13264198D02*
X25686729Y-13340388D01*
X25686729Y-13340388D02*
X25696253Y-13359436D01*
X25696253Y-13359436D02*
X25705777Y-13368960D01*
X25705777Y-13368960D02*
X25724825Y-13378484D01*
X25724825Y-13378484D02*
X25762920Y-13378484D01*
X25762920Y-13378484D02*
X25781968Y-13368960D01*
X25781968Y-13368960D02*
X25791491Y-13359436D01*
X25791491Y-13359436D02*
X25801015Y-13340388D01*
X25801015Y-13340388D02*
X25801015Y-13292769D01*
X25801015Y-13292769D02*
X25791491Y-13273722D01*
X25791491Y-13273722D02*
X25781968Y-13264198D01*
X25781968Y-13264198D02*
X25762920Y-13254674D01*
X25762920Y-13254674D02*
X25724825Y-13254674D01*
X25724825Y-13254674D02*
X25705777Y-13264198D01*
X25705777Y-13264198D02*
X25696253Y-13273722D01*
X25696253Y-13273722D02*
X25686729Y-13292769D01*
X26039110Y-13378484D02*
X26039110Y-13178484D01*
X26124825Y-13378484D02*
X26124825Y-13273722D01*
X26124825Y-13273722D02*
X26115301Y-13254674D01*
X26115301Y-13254674D02*
X26096253Y-13245150D01*
X26096253Y-13245150D02*
X26067682Y-13245150D01*
X26067682Y-13245150D02*
X26048634Y-13254674D01*
X26048634Y-13254674D02*
X26039110Y-13264198D01*
X26248634Y-13378484D02*
X26229587Y-13368960D01*
X26229587Y-13368960D02*
X26220063Y-13359436D01*
X26220063Y-13359436D02*
X26210539Y-13340388D01*
X26210539Y-13340388D02*
X26210539Y-13283246D01*
X26210539Y-13283246D02*
X26220063Y-13264198D01*
X26220063Y-13264198D02*
X26229587Y-13254674D01*
X26229587Y-13254674D02*
X26248634Y-13245150D01*
X26248634Y-13245150D02*
X26277206Y-13245150D01*
X26277206Y-13245150D02*
X26296253Y-13254674D01*
X26296253Y-13254674D02*
X26305777Y-13264198D01*
X26305777Y-13264198D02*
X26315301Y-13283246D01*
X26315301Y-13283246D02*
X26315301Y-13340388D01*
X26315301Y-13340388D02*
X26305777Y-13359436D01*
X26305777Y-13359436D02*
X26296253Y-13368960D01*
X26296253Y-13368960D02*
X26277206Y-13378484D01*
X26277206Y-13378484D02*
X26248634Y-13378484D01*
X26429587Y-13378484D02*
X26410539Y-13368960D01*
X26410539Y-13368960D02*
X26401015Y-13349912D01*
X26401015Y-13349912D02*
X26401015Y-13178484D01*
X26581968Y-13368960D02*
X26562920Y-13378484D01*
X26562920Y-13378484D02*
X26524825Y-13378484D01*
X26524825Y-13378484D02*
X26505777Y-13368960D01*
X26505777Y-13368960D02*
X26496253Y-13349912D01*
X26496253Y-13349912D02*
X26496253Y-13273722D01*
X26496253Y-13273722D02*
X26505777Y-13254674D01*
X26505777Y-13254674D02*
X26524825Y-13245150D01*
X26524825Y-13245150D02*
X26562920Y-13245150D01*
X26562920Y-13245150D02*
X26581968Y-13254674D01*
X26581968Y-13254674D02*
X26591491Y-13273722D01*
X26591491Y-13273722D02*
X26591491Y-13292769D01*
X26591491Y-13292769D02*
X26496253Y-13311817D01*
X26667682Y-13368960D02*
X26686730Y-13378484D01*
X26686730Y-13378484D02*
X26724825Y-13378484D01*
X26724825Y-13378484D02*
X26743872Y-13368960D01*
X26743872Y-13368960D02*
X26753396Y-13349912D01*
X26753396Y-13349912D02*
X26753396Y-13340388D01*
X26753396Y-13340388D02*
X26743872Y-13321341D01*
X26743872Y-13321341D02*
X26724825Y-13311817D01*
X26724825Y-13311817D02*
X26696253Y-13311817D01*
X26696253Y-13311817D02*
X26677206Y-13302293D01*
X26677206Y-13302293D02*
X26667682Y-13283246D01*
X26667682Y-13283246D02*
X26667682Y-13273722D01*
X26667682Y-13273722D02*
X26677206Y-13254674D01*
X26677206Y-13254674D02*
X26696253Y-13245150D01*
X26696253Y-13245150D02*
X26724825Y-13245150D01*
X26724825Y-13245150D02*
X26743872Y-13254674D01*
X26820063Y-13454674D02*
X26829587Y-13445150D01*
X26829587Y-13445150D02*
X26848634Y-13416579D01*
X26848634Y-13416579D02*
X26858158Y-13397531D01*
X26858158Y-13397531D02*
X26867682Y-13368960D01*
X26867682Y-13368960D02*
X26877206Y-13321341D01*
X26877206Y-13321341D02*
X26877206Y-13283246D01*
X26877206Y-13283246D02*
X26867682Y-13235627D01*
X26867682Y-13235627D02*
X26858158Y-13207055D01*
X26858158Y-13207055D02*
X26848634Y-13188008D01*
X26848634Y-13188008D02*
X26829587Y-13159436D01*
X26829587Y-13159436D02*
X26820063Y-13149912D01*
X21945000Y-13651000D02*
X22045000Y-13551000D01*
X21945000Y-13451000D01*
X21845000Y-13551000D01*
X21945000Y-13651000D01*
X22286729Y-13442484D02*
X22410539Y-13442484D01*
X22410539Y-13442484D02*
X22343872Y-13518674D01*
X22343872Y-13518674D02*
X22372443Y-13518674D01*
X22372443Y-13518674D02*
X22391491Y-13528198D01*
X22391491Y-13528198D02*
X22401015Y-13537722D01*
X22401015Y-13537722D02*
X22410539Y-13556769D01*
X22410539Y-13556769D02*
X22410539Y-13604388D01*
X22410539Y-13604388D02*
X22401015Y-13623436D01*
X22401015Y-13623436D02*
X22391491Y-13632960D01*
X22391491Y-13632960D02*
X22372443Y-13642484D01*
X22372443Y-13642484D02*
X22315301Y-13642484D01*
X22315301Y-13642484D02*
X22296253Y-13632960D01*
X22296253Y-13632960D02*
X22286729Y-13623436D01*
X22496253Y-13623436D02*
X22505777Y-13632960D01*
X22505777Y-13632960D02*
X22496253Y-13642484D01*
X22496253Y-13642484D02*
X22486729Y-13632960D01*
X22486729Y-13632960D02*
X22496253Y-13623436D01*
X22496253Y-13623436D02*
X22496253Y-13642484D01*
X22581967Y-13461531D02*
X22591491Y-13452008D01*
X22591491Y-13452008D02*
X22610539Y-13442484D01*
X22610539Y-13442484D02*
X22658158Y-13442484D01*
X22658158Y-13442484D02*
X22677205Y-13452008D01*
X22677205Y-13452008D02*
X22686729Y-13461531D01*
X22686729Y-13461531D02*
X22696253Y-13480579D01*
X22696253Y-13480579D02*
X22696253Y-13499627D01*
X22696253Y-13499627D02*
X22686729Y-13528198D01*
X22686729Y-13528198D02*
X22572443Y-13642484D01*
X22572443Y-13642484D02*
X22696253Y-13642484D01*
X22820062Y-13442484D02*
X22839110Y-13442484D01*
X22839110Y-13442484D02*
X22858158Y-13452008D01*
X22858158Y-13452008D02*
X22867682Y-13461531D01*
X22867682Y-13461531D02*
X22877205Y-13480579D01*
X22877205Y-13480579D02*
X22886729Y-13518674D01*
X22886729Y-13518674D02*
X22886729Y-13566293D01*
X22886729Y-13566293D02*
X22877205Y-13604388D01*
X22877205Y-13604388D02*
X22867682Y-13623436D01*
X22867682Y-13623436D02*
X22858158Y-13632960D01*
X22858158Y-13632960D02*
X22839110Y-13642484D01*
X22839110Y-13642484D02*
X22820062Y-13642484D01*
X22820062Y-13642484D02*
X22801015Y-13632960D01*
X22801015Y-13632960D02*
X22791491Y-13623436D01*
X22791491Y-13623436D02*
X22781967Y-13604388D01*
X22781967Y-13604388D02*
X22772443Y-13566293D01*
X22772443Y-13566293D02*
X22772443Y-13518674D01*
X22772443Y-13518674D02*
X22781967Y-13480579D01*
X22781967Y-13480579D02*
X22791491Y-13461531D01*
X22791491Y-13461531D02*
X22801015Y-13452008D01*
X22801015Y-13452008D02*
X22820062Y-13442484D01*
X23010539Y-13442484D02*
X23029586Y-13442484D01*
X23029586Y-13442484D02*
X23048634Y-13452008D01*
X23048634Y-13452008D02*
X23058158Y-13461531D01*
X23058158Y-13461531D02*
X23067682Y-13480579D01*
X23067682Y-13480579D02*
X23077205Y-13518674D01*
X23077205Y-13518674D02*
X23077205Y-13566293D01*
X23077205Y-13566293D02*
X23067682Y-13604388D01*
X23067682Y-13604388D02*
X23058158Y-13623436D01*
X23058158Y-13623436D02*
X23048634Y-13632960D01*
X23048634Y-13632960D02*
X23029586Y-13642484D01*
X23029586Y-13642484D02*
X23010539Y-13642484D01*
X23010539Y-13642484D02*
X22991491Y-13632960D01*
X22991491Y-13632960D02*
X22981967Y-13623436D01*
X22981967Y-13623436D02*
X22972443Y-13604388D01*
X22972443Y-13604388D02*
X22962920Y-13566293D01*
X22962920Y-13566293D02*
X22962920Y-13518674D01*
X22962920Y-13518674D02*
X22972443Y-13480579D01*
X22972443Y-13480579D02*
X22981967Y-13461531D01*
X22981967Y-13461531D02*
X22991491Y-13452008D01*
X22991491Y-13452008D02*
X23010539Y-13442484D01*
X23162920Y-13642484D02*
X23162920Y-13509150D01*
X23162920Y-13528198D02*
X23172443Y-13518674D01*
X23172443Y-13518674D02*
X23191491Y-13509150D01*
X23191491Y-13509150D02*
X23220063Y-13509150D01*
X23220063Y-13509150D02*
X23239110Y-13518674D01*
X23239110Y-13518674D02*
X23248634Y-13537722D01*
X23248634Y-13537722D02*
X23248634Y-13642484D01*
X23248634Y-13537722D02*
X23258158Y-13518674D01*
X23258158Y-13518674D02*
X23277205Y-13509150D01*
X23277205Y-13509150D02*
X23305777Y-13509150D01*
X23305777Y-13509150D02*
X23324824Y-13518674D01*
X23324824Y-13518674D02*
X23334348Y-13537722D01*
X23334348Y-13537722D02*
X23334348Y-13642484D01*
X23429586Y-13642484D02*
X23429586Y-13509150D01*
X23429586Y-13528198D02*
X23439110Y-13518674D01*
X23439110Y-13518674D02*
X23458158Y-13509150D01*
X23458158Y-13509150D02*
X23486729Y-13509150D01*
X23486729Y-13509150D02*
X23505777Y-13518674D01*
X23505777Y-13518674D02*
X23515301Y-13537722D01*
X23515301Y-13537722D02*
X23515301Y-13642484D01*
X23515301Y-13537722D02*
X23524824Y-13518674D01*
X23524824Y-13518674D02*
X23543872Y-13509150D01*
X23543872Y-13509150D02*
X23572443Y-13509150D01*
X23572443Y-13509150D02*
X23591491Y-13518674D01*
X23591491Y-13518674D02*
X23601015Y-13537722D01*
X23601015Y-13537722D02*
X23601015Y-13642484D01*
X23991491Y-13432960D02*
X23820063Y-13690103D01*
X24248634Y-13442484D02*
X24267682Y-13442484D01*
X24267682Y-13442484D02*
X24286729Y-13452008D01*
X24286729Y-13452008D02*
X24296253Y-13461531D01*
X24296253Y-13461531D02*
X24305777Y-13480579D01*
X24305777Y-13480579D02*
X24315301Y-13518674D01*
X24315301Y-13518674D02*
X24315301Y-13566293D01*
X24315301Y-13566293D02*
X24305777Y-13604388D01*
X24305777Y-13604388D02*
X24296253Y-13623436D01*
X24296253Y-13623436D02*
X24286729Y-13632960D01*
X24286729Y-13632960D02*
X24267682Y-13642484D01*
X24267682Y-13642484D02*
X24248634Y-13642484D01*
X24248634Y-13642484D02*
X24229586Y-13632960D01*
X24229586Y-13632960D02*
X24220063Y-13623436D01*
X24220063Y-13623436D02*
X24210539Y-13604388D01*
X24210539Y-13604388D02*
X24201015Y-13566293D01*
X24201015Y-13566293D02*
X24201015Y-13518674D01*
X24201015Y-13518674D02*
X24210539Y-13480579D01*
X24210539Y-13480579D02*
X24220063Y-13461531D01*
X24220063Y-13461531D02*
X24229586Y-13452008D01*
X24229586Y-13452008D02*
X24248634Y-13442484D01*
X24401015Y-13623436D02*
X24410539Y-13632960D01*
X24410539Y-13632960D02*
X24401015Y-13642484D01*
X24401015Y-13642484D02*
X24391491Y-13632960D01*
X24391491Y-13632960D02*
X24401015Y-13623436D01*
X24401015Y-13623436D02*
X24401015Y-13642484D01*
X24601015Y-13642484D02*
X24486729Y-13642484D01*
X24543872Y-13642484D02*
X24543872Y-13442484D01*
X24543872Y-13442484D02*
X24524825Y-13471055D01*
X24524825Y-13471055D02*
X24505777Y-13490103D01*
X24505777Y-13490103D02*
X24486729Y-13499627D01*
X24677206Y-13461531D02*
X24686729Y-13452008D01*
X24686729Y-13452008D02*
X24705777Y-13442484D01*
X24705777Y-13442484D02*
X24753396Y-13442484D01*
X24753396Y-13442484D02*
X24772444Y-13452008D01*
X24772444Y-13452008D02*
X24781967Y-13461531D01*
X24781967Y-13461531D02*
X24791491Y-13480579D01*
X24791491Y-13480579D02*
X24791491Y-13499627D01*
X24791491Y-13499627D02*
X24781967Y-13528198D01*
X24781967Y-13528198D02*
X24667682Y-13642484D01*
X24667682Y-13642484D02*
X24791491Y-13642484D01*
X24962920Y-13442484D02*
X24924825Y-13442484D01*
X24924825Y-13442484D02*
X24905777Y-13452008D01*
X24905777Y-13452008D02*
X24896253Y-13461531D01*
X24896253Y-13461531D02*
X24877206Y-13490103D01*
X24877206Y-13490103D02*
X24867682Y-13528198D01*
X24867682Y-13528198D02*
X24867682Y-13604388D01*
X24867682Y-13604388D02*
X24877206Y-13623436D01*
X24877206Y-13623436D02*
X24886729Y-13632960D01*
X24886729Y-13632960D02*
X24905777Y-13642484D01*
X24905777Y-13642484D02*
X24943872Y-13642484D01*
X24943872Y-13642484D02*
X24962920Y-13632960D01*
X24962920Y-13632960D02*
X24972444Y-13623436D01*
X24972444Y-13623436D02*
X24981967Y-13604388D01*
X24981967Y-13604388D02*
X24981967Y-13556769D01*
X24981967Y-13556769D02*
X24972444Y-13537722D01*
X24972444Y-13537722D02*
X24962920Y-13528198D01*
X24962920Y-13528198D02*
X24943872Y-13518674D01*
X24943872Y-13518674D02*
X24905777Y-13518674D01*
X24905777Y-13518674D02*
X24886729Y-13528198D01*
X24886729Y-13528198D02*
X24877206Y-13537722D01*
X24877206Y-13537722D02*
X24867682Y-13556769D01*
X25105777Y-13442484D02*
X25124825Y-13442484D01*
X25124825Y-13442484D02*
X25143872Y-13452008D01*
X25143872Y-13452008D02*
X25153396Y-13461531D01*
X25153396Y-13461531D02*
X25162920Y-13480579D01*
X25162920Y-13480579D02*
X25172444Y-13518674D01*
X25172444Y-13518674D02*
X25172444Y-13566293D01*
X25172444Y-13566293D02*
X25162920Y-13604388D01*
X25162920Y-13604388D02*
X25153396Y-13623436D01*
X25153396Y-13623436D02*
X25143872Y-13632960D01*
X25143872Y-13632960D02*
X25124825Y-13642484D01*
X25124825Y-13642484D02*
X25105777Y-13642484D01*
X25105777Y-13642484D02*
X25086729Y-13632960D01*
X25086729Y-13632960D02*
X25077206Y-13623436D01*
X25077206Y-13623436D02*
X25067682Y-13604388D01*
X25067682Y-13604388D02*
X25058158Y-13566293D01*
X25058158Y-13566293D02*
X25058158Y-13518674D01*
X25058158Y-13518674D02*
X25067682Y-13480579D01*
X25067682Y-13480579D02*
X25077206Y-13461531D01*
X25077206Y-13461531D02*
X25086729Y-13452008D01*
X25086729Y-13452008D02*
X25105777Y-13442484D01*
X25248634Y-13442484D02*
X25248634Y-13480579D01*
X25324825Y-13442484D02*
X25324825Y-13480579D01*
X25620063Y-13718674D02*
X25610539Y-13709150D01*
X25610539Y-13709150D02*
X25591491Y-13680579D01*
X25591491Y-13680579D02*
X25581968Y-13661531D01*
X25581968Y-13661531D02*
X25572444Y-13632960D01*
X25572444Y-13632960D02*
X25562920Y-13585341D01*
X25562920Y-13585341D02*
X25562920Y-13547246D01*
X25562920Y-13547246D02*
X25572444Y-13499627D01*
X25572444Y-13499627D02*
X25581968Y-13471055D01*
X25581968Y-13471055D02*
X25591491Y-13452008D01*
X25591491Y-13452008D02*
X25610539Y-13423436D01*
X25610539Y-13423436D02*
X25620063Y-13413912D01*
X25781968Y-13509150D02*
X25781968Y-13642484D01*
X25734348Y-13432960D02*
X25686729Y-13575817D01*
X25686729Y-13575817D02*
X25810539Y-13575817D01*
X26039110Y-13642484D02*
X26039110Y-13442484D01*
X26124825Y-13642484D02*
X26124825Y-13537722D01*
X26124825Y-13537722D02*
X26115301Y-13518674D01*
X26115301Y-13518674D02*
X26096253Y-13509150D01*
X26096253Y-13509150D02*
X26067682Y-13509150D01*
X26067682Y-13509150D02*
X26048634Y-13518674D01*
X26048634Y-13518674D02*
X26039110Y-13528198D01*
X26248634Y-13642484D02*
X26229587Y-13632960D01*
X26229587Y-13632960D02*
X26220063Y-13623436D01*
X26220063Y-13623436D02*
X26210539Y-13604388D01*
X26210539Y-13604388D02*
X26210539Y-13547246D01*
X26210539Y-13547246D02*
X26220063Y-13528198D01*
X26220063Y-13528198D02*
X26229587Y-13518674D01*
X26229587Y-13518674D02*
X26248634Y-13509150D01*
X26248634Y-13509150D02*
X26277206Y-13509150D01*
X26277206Y-13509150D02*
X26296253Y-13518674D01*
X26296253Y-13518674D02*
X26305777Y-13528198D01*
X26305777Y-13528198D02*
X26315301Y-13547246D01*
X26315301Y-13547246D02*
X26315301Y-13604388D01*
X26315301Y-13604388D02*
X26305777Y-13623436D01*
X26305777Y-13623436D02*
X26296253Y-13632960D01*
X26296253Y-13632960D02*
X26277206Y-13642484D01*
X26277206Y-13642484D02*
X26248634Y-13642484D01*
X26429587Y-13642484D02*
X26410539Y-13632960D01*
X26410539Y-13632960D02*
X26401015Y-13613912D01*
X26401015Y-13613912D02*
X26401015Y-13442484D01*
X26581968Y-13632960D02*
X26562920Y-13642484D01*
X26562920Y-13642484D02*
X26524825Y-13642484D01*
X26524825Y-13642484D02*
X26505777Y-13632960D01*
X26505777Y-13632960D02*
X26496253Y-13613912D01*
X26496253Y-13613912D02*
X26496253Y-13537722D01*
X26496253Y-13537722D02*
X26505777Y-13518674D01*
X26505777Y-13518674D02*
X26524825Y-13509150D01*
X26524825Y-13509150D02*
X26562920Y-13509150D01*
X26562920Y-13509150D02*
X26581968Y-13518674D01*
X26581968Y-13518674D02*
X26591491Y-13537722D01*
X26591491Y-13537722D02*
X26591491Y-13556769D01*
X26591491Y-13556769D02*
X26496253Y-13575817D01*
X26667682Y-13632960D02*
X26686730Y-13642484D01*
X26686730Y-13642484D02*
X26724825Y-13642484D01*
X26724825Y-13642484D02*
X26743872Y-13632960D01*
X26743872Y-13632960D02*
X26753396Y-13613912D01*
X26753396Y-13613912D02*
X26753396Y-13604388D01*
X26753396Y-13604388D02*
X26743872Y-13585341D01*
X26743872Y-13585341D02*
X26724825Y-13575817D01*
X26724825Y-13575817D02*
X26696253Y-13575817D01*
X26696253Y-13575817D02*
X26677206Y-13566293D01*
X26677206Y-13566293D02*
X26667682Y-13547246D01*
X26667682Y-13547246D02*
X26667682Y-13537722D01*
X26667682Y-13537722D02*
X26677206Y-13518674D01*
X26677206Y-13518674D02*
X26696253Y-13509150D01*
X26696253Y-13509150D02*
X26724825Y-13509150D01*
X26724825Y-13509150D02*
X26743872Y-13518674D01*
X26820063Y-13718674D02*
X26829587Y-13709150D01*
X26829587Y-13709150D02*
X26848634Y-13680579D01*
X26848634Y-13680579D02*
X26858158Y-13661531D01*
X26858158Y-13661531D02*
X26867682Y-13632960D01*
X26867682Y-13632960D02*
X26877206Y-13585341D01*
X26877206Y-13585341D02*
X26877206Y-13547246D01*
X26877206Y-13547246D02*
X26867682Y-13499627D01*
X26867682Y-13499627D02*
X26858158Y-13471055D01*
X26858158Y-13471055D02*
X26848634Y-13452008D01*
X26848634Y-13452008D02*
X26829587Y-13423436D01*
X26829587Y-13423436D02*
X26820063Y-13413912D01*
M02*
