G04 #@! TF.GenerationSoftware,KiCad,Pcbnew,7.0.9-69-ge1c0bddff3*
G04 #@! TF.CreationDate,2024-02-19T10:17:23+01:00*
G04 #@! TF.ProjectId,ASP_Display,4153505f-4469-4737-906c-61792e6b6963,rev?*
G04 #@! TF.SameCoordinates,Original*
G04 #@! TF.FileFunction,Soldermask,Bot*
G04 #@! TF.FilePolarity,Negative*
%FSLAX46Y46*%
G04 Gerber Fmt 4.6, Leading zero omitted, Abs format (unit mm)*
G04 Created by KiCad (PCBNEW 7.0.9-69-ge1c0bddff3) date 2024-02-19 10:17:23*
%MOMM*%
%LPD*%
G01*
G04 APERTURE LIST*
G04 Aperture macros list*
%AMRoundRect*
0 Rectangle with rounded corners*
0 $1 Rounding radius*
0 $2 $3 $4 $5 $6 $7 $8 $9 X,Y pos of 4 corners*
0 Add a 4 corners polygon primitive as box body*
4,1,4,$2,$3,$4,$5,$6,$7,$8,$9,$2,$3,0*
0 Add four circle primitives for the rounded corners*
1,1,$1+$1,$2,$3*
1,1,$1+$1,$4,$5*
1,1,$1+$1,$6,$7*
1,1,$1+$1,$8,$9*
0 Add four rect primitives between the rounded corners*
20,1,$1+$1,$2,$3,$4,$5,0*
20,1,$1+$1,$4,$5,$6,$7,0*
20,1,$1+$1,$6,$7,$8,$9,0*
20,1,$1+$1,$8,$9,$2,$3,0*%
G04 Aperture macros list end*
%ADD10C,5.600000*%
%ADD11R,1.400000X1.400000*%
%ADD12C,1.400000*%
%ADD13R,1.700000X1.700000*%
%ADD14O,1.700000X1.700000*%
%ADD15RoundRect,0.200000X-0.275000X0.200000X-0.275000X-0.200000X0.275000X-0.200000X0.275000X0.200000X0*%
%ADD16RoundRect,0.250000X0.262500X0.450000X-0.262500X0.450000X-0.262500X-0.450000X0.262500X-0.450000X0*%
%ADD17RoundRect,0.225000X0.225000X0.250000X-0.225000X0.250000X-0.225000X-0.250000X0.225000X-0.250000X0*%
%ADD18RoundRect,0.100000X-0.225000X-0.100000X0.225000X-0.100000X0.225000X0.100000X-0.225000X0.100000X0*%
%ADD19RoundRect,0.200000X0.200000X0.275000X-0.200000X0.275000X-0.200000X-0.275000X0.200000X-0.275000X0*%
%ADD20RoundRect,0.100000X0.100000X-0.637500X0.100000X0.637500X-0.100000X0.637500X-0.100000X-0.637500X0*%
%ADD21RoundRect,0.125000X-0.275000X-0.125000X0.275000X-0.125000X0.275000X0.125000X-0.275000X0.125000X0*%
%ADD22RoundRect,0.100000X-0.300000X-0.100000X0.300000X-0.100000X0.300000X0.100000X-0.300000X0.100000X0*%
%ADD23RoundRect,0.100000X-0.100000X0.637500X-0.100000X-0.637500X0.100000X-0.637500X0.100000X0.637500X0*%
%ADD24RoundRect,0.250000X-0.650000X0.325000X-0.650000X-0.325000X0.650000X-0.325000X0.650000X0.325000X0*%
%ADD25RoundRect,0.112500X0.237500X-0.112500X0.237500X0.112500X-0.237500X0.112500X-0.237500X-0.112500X0*%
%ADD26RoundRect,0.225000X-0.250000X0.225000X-0.250000X-0.225000X0.250000X-0.225000X0.250000X0.225000X0*%
%ADD27RoundRect,0.200000X-0.200000X-0.275000X0.200000X-0.275000X0.200000X0.275000X-0.200000X0.275000X0*%
%ADD28RoundRect,0.250000X0.650000X-0.325000X0.650000X0.325000X-0.650000X0.325000X-0.650000X-0.325000X0*%
%ADD29RoundRect,0.225000X0.250000X-0.225000X0.250000X0.225000X-0.250000X0.225000X-0.250000X-0.225000X0*%
G04 APERTURE END LIST*
D10*
G04 #@! TO.C,REF\u002A\u002A*
X224500000Y-114500000D03*
G04 #@! TD*
G04 #@! TO.C,REF\u002A\u002A*
X255000000Y-114500000D03*
G04 #@! TD*
G04 #@! TO.C,REF\u002A\u002A*
X255000000Y-89500000D03*
G04 #@! TD*
G04 #@! TO.C,REF\u002A\u002A*
X224500000Y-89500000D03*
G04 #@! TD*
D11*
G04 #@! TO.C,D16*
X261500000Y-98500000D03*
D12*
X264040000Y-98500000D03*
G04 #@! TD*
D11*
G04 #@! TO.C,D14*
X261500000Y-103500000D03*
D12*
X264040000Y-103500000D03*
G04 #@! TD*
D11*
G04 #@! TO.C,D3*
X261500000Y-116000000D03*
D12*
X264040000Y-116000000D03*
G04 #@! TD*
D11*
G04 #@! TO.C,D25*
X261500000Y-91000000D03*
D12*
X264040000Y-91000000D03*
G04 #@! TD*
D11*
G04 #@! TO.C,D4*
X261500000Y-113500000D03*
D12*
X264040000Y-113500000D03*
G04 #@! TD*
D11*
G04 #@! TO.C,D17*
X261500000Y-96000000D03*
D12*
X264040000Y-96000000D03*
G04 #@! TD*
D11*
G04 #@! TO.C,D13*
X261500000Y-106000000D03*
D12*
X264040000Y-106000000D03*
G04 #@! TD*
D11*
G04 #@! TO.C,D6*
X261500000Y-108500000D03*
D12*
X264040000Y-108500000D03*
G04 #@! TD*
D11*
G04 #@! TO.C,D18*
X261500000Y-93500000D03*
D12*
X264040000Y-93500000D03*
G04 #@! TD*
D11*
G04 #@! TO.C,D26*
X261500000Y-88500000D03*
D12*
X264040000Y-88500000D03*
G04 #@! TD*
D13*
G04 #@! TO.C,J1*
X222875000Y-108350000D03*
D14*
X222875000Y-105810000D03*
X222875000Y-103270000D03*
X222875000Y-100730000D03*
X222875000Y-98190000D03*
X222875000Y-95650000D03*
G04 #@! TD*
D11*
G04 #@! TO.C,D15*
X261500000Y-101000000D03*
D12*
X264040000Y-101000000D03*
G04 #@! TD*
D11*
G04 #@! TO.C,D5*
X261500000Y-111000000D03*
D12*
X264040000Y-111000000D03*
G04 #@! TD*
D15*
G04 #@! TO.C,R21*
X228800000Y-103275000D03*
X228800000Y-104925000D03*
G04 #@! TD*
D16*
G04 #@! TO.C,R11*
X259112500Y-105000000D03*
X257287500Y-105000000D03*
G04 #@! TD*
D17*
G04 #@! TO.C,C3*
X242775000Y-113400000D03*
X241225000Y-113400000D03*
G04 #@! TD*
D18*
G04 #@! TO.C,Q7*
X253850000Y-104150000D03*
X253850000Y-103500000D03*
X253850000Y-102850000D03*
X255750000Y-102850000D03*
X255750000Y-103500000D03*
X255750000Y-104150000D03*
G04 #@! TD*
D19*
G04 #@! TO.C,R12*
X242725000Y-105200000D03*
X241075000Y-105200000D03*
G04 #@! TD*
D15*
G04 #@! TO.C,R16*
X228800000Y-113875000D03*
X228800000Y-115525000D03*
G04 #@! TD*
D17*
G04 #@! TO.C,C8*
X242675000Y-103600000D03*
X241125000Y-103600000D03*
G04 #@! TD*
D18*
G04 #@! TO.C,Q13*
X253850000Y-95150000D03*
X253850000Y-94500000D03*
X253850000Y-93850000D03*
X255750000Y-93850000D03*
X255750000Y-94500000D03*
X255750000Y-95150000D03*
G04 #@! TD*
D20*
G04 #@! TO.C,U7*
X235950000Y-112162500D03*
X235300000Y-112162500D03*
X234650000Y-112162500D03*
X234000000Y-112162500D03*
X233350000Y-112162500D03*
X232700000Y-112162500D03*
X232050000Y-112162500D03*
X232050000Y-106437500D03*
X232700000Y-106437500D03*
X233350000Y-106437500D03*
X234000000Y-106437500D03*
X234650000Y-106437500D03*
X235300000Y-106437500D03*
X235950000Y-106437500D03*
G04 #@! TD*
D21*
G04 #@! TO.C,RN8*
X237500000Y-90600000D03*
D22*
X237500000Y-89800000D03*
X237500000Y-89000000D03*
D21*
X237500000Y-88200000D03*
X239300000Y-88200000D03*
D22*
X239300000Y-89000000D03*
X239300000Y-89800000D03*
D21*
X239300000Y-90600000D03*
G04 #@! TD*
D23*
G04 #@! TO.C,U5*
X244450000Y-98437500D03*
X245100000Y-98437500D03*
X245750000Y-98437500D03*
X246400000Y-98437500D03*
X247050000Y-98437500D03*
X247700000Y-98437500D03*
X248350000Y-98437500D03*
X248350000Y-104162500D03*
X247700000Y-104162500D03*
X247050000Y-104162500D03*
X246400000Y-104162500D03*
X245750000Y-104162500D03*
X245100000Y-104162500D03*
X244450000Y-104162500D03*
G04 #@! TD*
D24*
G04 #@! TO.C,C6*
X226800000Y-105725000D03*
X226800000Y-108675000D03*
G04 #@! TD*
D21*
G04 #@! TO.C,RN7*
X237500000Y-102600000D03*
D22*
X237500000Y-101800000D03*
X237500000Y-101000000D03*
D21*
X237500000Y-100200000D03*
X239300000Y-100200000D03*
D22*
X239300000Y-101000000D03*
X239300000Y-101800000D03*
D21*
X239300000Y-102600000D03*
G04 #@! TD*
D15*
G04 #@! TO.C,R19*
X228800000Y-109275000D03*
X228800000Y-110925000D03*
G04 #@! TD*
D16*
G04 #@! TO.C,R33*
X259112500Y-97000000D03*
X257287500Y-97000000D03*
G04 #@! TD*
D20*
G04 #@! TO.C,U8*
X235950000Y-102162500D03*
X235300000Y-102162500D03*
X234650000Y-102162500D03*
X234000000Y-102162500D03*
X233350000Y-102162500D03*
X232700000Y-102162500D03*
X232050000Y-102162500D03*
X232050000Y-96437500D03*
X232700000Y-96437500D03*
X233350000Y-96437500D03*
X234000000Y-96437500D03*
X234650000Y-96437500D03*
X235300000Y-96437500D03*
X235950000Y-96437500D03*
G04 #@! TD*
D25*
G04 #@! TO.C,D9*
X240800000Y-98250000D03*
X240800000Y-96950000D03*
X242800000Y-97600000D03*
G04 #@! TD*
D21*
G04 #@! TO.C,RN6*
X237500000Y-98800000D03*
D22*
X237500000Y-98000000D03*
X237500000Y-97200000D03*
D21*
X237500000Y-96400000D03*
X239300000Y-96400000D03*
D22*
X239300000Y-97200000D03*
X239300000Y-98000000D03*
D21*
X239300000Y-98800000D03*
G04 #@! TD*
D26*
G04 #@! TO.C,C18*
X230400000Y-109125000D03*
X230400000Y-110675000D03*
G04 #@! TD*
D18*
G04 #@! TO.C,Q5*
X253850000Y-107150000D03*
X253850000Y-106500000D03*
X253850000Y-105850000D03*
X255750000Y-105850000D03*
X255750000Y-106500000D03*
X255750000Y-107150000D03*
G04 #@! TD*
D23*
G04 #@! TO.C,U6*
X244450000Y-89637500D03*
X245100000Y-89637500D03*
X245750000Y-89637500D03*
X246400000Y-89637500D03*
X247050000Y-89637500D03*
X247700000Y-89637500D03*
X248350000Y-89637500D03*
X248350000Y-95362500D03*
X247700000Y-95362500D03*
X247050000Y-95362500D03*
X246400000Y-95362500D03*
X245750000Y-95362500D03*
X245100000Y-95362500D03*
X244450000Y-95362500D03*
G04 #@! TD*
D15*
G04 #@! TO.C,R17*
X230400000Y-113875000D03*
X230400000Y-115525000D03*
G04 #@! TD*
D21*
G04 #@! TO.C,RN4*
X237500000Y-108600000D03*
D22*
X237500000Y-107800000D03*
X237500000Y-107000000D03*
D21*
X237500000Y-106200000D03*
X239300000Y-106200000D03*
D22*
X239300000Y-107000000D03*
X239300000Y-107800000D03*
D21*
X239300000Y-108600000D03*
G04 #@! TD*
G04 #@! TO.C,RN2*
X249900000Y-103300000D03*
D22*
X249900000Y-102500000D03*
X249900000Y-101700000D03*
D21*
X249900000Y-100900000D03*
X251700000Y-100900000D03*
D22*
X251700000Y-101700000D03*
X251700000Y-102500000D03*
D21*
X251700000Y-103300000D03*
G04 #@! TD*
D24*
G04 #@! TO.C,C1*
X226800000Y-95425000D03*
X226800000Y-98375000D03*
G04 #@! TD*
D25*
G04 #@! TO.C,D10*
X240800000Y-102050000D03*
X240800000Y-100750000D03*
X242800000Y-101400000D03*
G04 #@! TD*
D23*
G04 #@! TO.C,U2*
X244450000Y-107437500D03*
X245100000Y-107437500D03*
X245750000Y-107437500D03*
X246400000Y-107437500D03*
X247050000Y-107437500D03*
X247700000Y-107437500D03*
X248350000Y-107437500D03*
X248350000Y-113162500D03*
X247700000Y-113162500D03*
X247050000Y-113162500D03*
X246400000Y-113162500D03*
X245750000Y-113162500D03*
X245100000Y-113162500D03*
X244450000Y-113162500D03*
G04 #@! TD*
D20*
G04 #@! TO.C,U9*
X235950000Y-94362500D03*
X235300000Y-94362500D03*
X234650000Y-94362500D03*
X234000000Y-94362500D03*
X233350000Y-94362500D03*
X232700000Y-94362500D03*
X232050000Y-94362500D03*
X232050000Y-88637500D03*
X232700000Y-88637500D03*
X233350000Y-88637500D03*
X234000000Y-88637500D03*
X234650000Y-88637500D03*
X235300000Y-88637500D03*
X235950000Y-88637500D03*
G04 #@! TD*
D15*
G04 #@! TO.C,R26*
X228800000Y-88275000D03*
X228800000Y-89925000D03*
G04 #@! TD*
D18*
G04 #@! TO.C,Q11*
X253850000Y-98150000D03*
X253850000Y-97500000D03*
X253850000Y-96850000D03*
X255750000Y-96850000D03*
X255750000Y-97500000D03*
X255750000Y-98150000D03*
G04 #@! TD*
D27*
G04 #@! TO.C,R18*
X228875000Y-112400000D03*
X230525000Y-112400000D03*
G04 #@! TD*
D21*
G04 #@! TO.C,RN9*
X237500000Y-94400000D03*
D22*
X237500000Y-93600000D03*
X237500000Y-92800000D03*
D21*
X237500000Y-92000000D03*
X239300000Y-92000000D03*
D22*
X239300000Y-92800000D03*
X239300000Y-93600000D03*
D21*
X239300000Y-94400000D03*
G04 #@! TD*
D19*
G04 #@! TO.C,R28*
X233325000Y-86800000D03*
X231675000Y-86800000D03*
G04 #@! TD*
D26*
G04 #@! TO.C,C17*
X230400000Y-98525000D03*
X230400000Y-100075000D03*
G04 #@! TD*
D19*
G04 #@! TO.C,R27*
X230325000Y-86800000D03*
X228675000Y-86800000D03*
G04 #@! TD*
D15*
G04 #@! TO.C,R23*
X228800000Y-97250000D03*
X228800000Y-98900000D03*
G04 #@! TD*
D21*
G04 #@! TO.C,RN3*
X249900000Y-99500000D03*
D22*
X249900000Y-98700000D03*
X249900000Y-97900000D03*
D21*
X249900000Y-97100000D03*
X251700000Y-97100000D03*
D22*
X251700000Y-97900000D03*
X251700000Y-98700000D03*
D21*
X251700000Y-99500000D03*
G04 #@! TD*
D25*
G04 #@! TO.C,D12*
X240800000Y-93850000D03*
X240800000Y-92550000D03*
X242800000Y-93200000D03*
G04 #@! TD*
D21*
G04 #@! TO.C,RN1*
X249900000Y-107100000D03*
D22*
X249900000Y-106300000D03*
X249900000Y-105500000D03*
D21*
X249900000Y-104700000D03*
X251700000Y-104700000D03*
D22*
X251700000Y-105500000D03*
X251700000Y-106300000D03*
D21*
X251700000Y-107100000D03*
G04 #@! TD*
D25*
G04 #@! TO.C,D8*
X240800000Y-111850000D03*
X240800000Y-110550000D03*
X242800000Y-111200000D03*
G04 #@! TD*
D28*
G04 #@! TO.C,C9*
X226800000Y-103575000D03*
X226800000Y-100625000D03*
G04 #@! TD*
D15*
G04 #@! TO.C,R24*
X228800000Y-94275000D03*
X228800000Y-95925000D03*
G04 #@! TD*
D25*
G04 #@! TO.C,D11*
X240800000Y-89950000D03*
X240800000Y-88650000D03*
X242800000Y-89300000D03*
G04 #@! TD*
D15*
G04 #@! TO.C,R20*
X228800000Y-106275000D03*
X228800000Y-107925000D03*
G04 #@! TD*
D16*
G04 #@! TO.C,R31*
X259112500Y-99000000D03*
X257287500Y-99000000D03*
G04 #@! TD*
D15*
G04 #@! TO.C,R22*
X228800000Y-100275000D03*
X228800000Y-101925000D03*
G04 #@! TD*
D29*
G04 #@! TO.C,C16*
X230400000Y-92275000D03*
X230400000Y-90725000D03*
G04 #@! TD*
D16*
G04 #@! TO.C,R14*
X259112500Y-103000000D03*
X257287500Y-103000000D03*
G04 #@! TD*
G04 #@! TO.C,R29*
X259112500Y-101000000D03*
X257287500Y-101000000D03*
G04 #@! TD*
D25*
G04 #@! TO.C,D7*
X240800000Y-108050000D03*
X240800000Y-106750000D03*
X242800000Y-107400000D03*
G04 #@! TD*
D18*
G04 #@! TO.C,Q9*
X253850000Y-101150000D03*
X253850000Y-100500000D03*
X253850000Y-99850000D03*
X255750000Y-99850000D03*
X255750000Y-100500000D03*
X255750000Y-101150000D03*
G04 #@! TD*
D16*
G04 #@! TO.C,R9*
X259112500Y-107000000D03*
X257287500Y-107000000D03*
G04 #@! TD*
D21*
G04 #@! TO.C,RN5*
X237500000Y-112400000D03*
D22*
X237500000Y-111600000D03*
X237500000Y-110800000D03*
D21*
X237500000Y-110000000D03*
X239300000Y-110000000D03*
D22*
X239300000Y-110800000D03*
X239300000Y-111600000D03*
D21*
X239300000Y-112400000D03*
G04 #@! TD*
D15*
G04 #@! TO.C,R25*
X228800000Y-91275000D03*
X228800000Y-92925000D03*
G04 #@! TD*
D17*
G04 #@! TO.C,C10*
X242775000Y-95400000D03*
X241225000Y-95400000D03*
G04 #@! TD*
D18*
G04 #@! TO.C,Q3*
X253850000Y-110150000D03*
X253850000Y-109500000D03*
X253850000Y-108850000D03*
X255750000Y-108850000D03*
X255750000Y-109500000D03*
X255750000Y-110150000D03*
G04 #@! TD*
M02*
