G04 #@! TF.GenerationSoftware,KiCad,Pcbnew,7.0.9-69-ge1c0bddff3*
G04 #@! TF.CreationDate,2024-02-19T10:17:23+01:00*
G04 #@! TF.ProjectId,ASP_Display,4153505f-4469-4737-906c-61792e6b6963,rev?*
G04 #@! TF.SameCoordinates,Original*
G04 #@! TF.FileFunction,Legend,Bot*
G04 #@! TF.FilePolarity,Positive*
%FSLAX46Y46*%
G04 Gerber Fmt 4.6, Leading zero omitted, Abs format (unit mm)*
G04 Created by KiCad (PCBNEW 7.0.9-69-ge1c0bddff3) date 2024-02-19 10:17:23*
%MOMM*%
%LPD*%
G01*
G04 APERTURE LIST*
G04 Aperture macros list*
%AMRoundRect*
0 Rectangle with rounded corners*
0 $1 Rounding radius*
0 $2 $3 $4 $5 $6 $7 $8 $9 X,Y pos of 4 corners*
0 Add a 4 corners polygon primitive as box body*
4,1,4,$2,$3,$4,$5,$6,$7,$8,$9,$2,$3,0*
0 Add four circle primitives for the rounded corners*
1,1,$1+$1,$2,$3*
1,1,$1+$1,$4,$5*
1,1,$1+$1,$6,$7*
1,1,$1+$1,$8,$9*
0 Add four rect primitives between the rounded corners*
20,1,$1+$1,$2,$3,$4,$5,0*
20,1,$1+$1,$4,$5,$6,$7,0*
20,1,$1+$1,$6,$7,$8,$9,0*
20,1,$1+$1,$8,$9,$2,$3,0*%
G04 Aperture macros list end*
%ADD10C,0.150000*%
%ADD11C,0.120000*%
%ADD12C,0.200000*%
%ADD13C,0.300000*%
%ADD14C,5.600000*%
%ADD15R,1.400000X1.400000*%
%ADD16C,1.400000*%
%ADD17R,1.700000X1.700000*%
%ADD18O,1.700000X1.700000*%
%ADD19RoundRect,0.200000X-0.275000X0.200000X-0.275000X-0.200000X0.275000X-0.200000X0.275000X0.200000X0*%
%ADD20RoundRect,0.250000X0.262500X0.450000X-0.262500X0.450000X-0.262500X-0.450000X0.262500X-0.450000X0*%
%ADD21RoundRect,0.225000X0.225000X0.250000X-0.225000X0.250000X-0.225000X-0.250000X0.225000X-0.250000X0*%
%ADD22RoundRect,0.100000X-0.225000X-0.100000X0.225000X-0.100000X0.225000X0.100000X-0.225000X0.100000X0*%
%ADD23RoundRect,0.200000X0.200000X0.275000X-0.200000X0.275000X-0.200000X-0.275000X0.200000X-0.275000X0*%
%ADD24RoundRect,0.100000X0.100000X-0.637500X0.100000X0.637500X-0.100000X0.637500X-0.100000X-0.637500X0*%
%ADD25RoundRect,0.125000X-0.275000X-0.125000X0.275000X-0.125000X0.275000X0.125000X-0.275000X0.125000X0*%
%ADD26RoundRect,0.100000X-0.300000X-0.100000X0.300000X-0.100000X0.300000X0.100000X-0.300000X0.100000X0*%
%ADD27RoundRect,0.100000X-0.100000X0.637500X-0.100000X-0.637500X0.100000X-0.637500X0.100000X0.637500X0*%
%ADD28RoundRect,0.250000X-0.650000X0.325000X-0.650000X-0.325000X0.650000X-0.325000X0.650000X0.325000X0*%
%ADD29RoundRect,0.112500X0.237500X-0.112500X0.237500X0.112500X-0.237500X0.112500X-0.237500X-0.112500X0*%
%ADD30RoundRect,0.225000X-0.250000X0.225000X-0.250000X-0.225000X0.250000X-0.225000X0.250000X0.225000X0*%
%ADD31RoundRect,0.200000X-0.200000X-0.275000X0.200000X-0.275000X0.200000X0.275000X-0.200000X0.275000X0*%
%ADD32RoundRect,0.250000X0.650000X-0.325000X0.650000X0.325000X-0.650000X0.325000X-0.650000X-0.325000X0*%
%ADD33RoundRect,0.225000X0.250000X-0.225000X0.250000X0.225000X-0.250000X0.225000X-0.250000X-0.225000X0*%
G04 APERTURE END LIST*
D10*
X234761904Y-108754819D02*
X234761904Y-109564342D01*
X234761904Y-109564342D02*
X234714285Y-109659580D01*
X234714285Y-109659580D02*
X234666666Y-109707200D01*
X234666666Y-109707200D02*
X234571428Y-109754819D01*
X234571428Y-109754819D02*
X234380952Y-109754819D01*
X234380952Y-109754819D02*
X234285714Y-109707200D01*
X234285714Y-109707200D02*
X234238095Y-109659580D01*
X234238095Y-109659580D02*
X234190476Y-109564342D01*
X234190476Y-109564342D02*
X234190476Y-108754819D01*
X233809523Y-108754819D02*
X233142857Y-108754819D01*
X233142857Y-108754819D02*
X233571428Y-109754819D01*
X247161904Y-100754819D02*
X247161904Y-101564342D01*
X247161904Y-101564342D02*
X247114285Y-101659580D01*
X247114285Y-101659580D02*
X247066666Y-101707200D01*
X247066666Y-101707200D02*
X246971428Y-101754819D01*
X246971428Y-101754819D02*
X246780952Y-101754819D01*
X246780952Y-101754819D02*
X246685714Y-101707200D01*
X246685714Y-101707200D02*
X246638095Y-101659580D01*
X246638095Y-101659580D02*
X246590476Y-101564342D01*
X246590476Y-101564342D02*
X246590476Y-100754819D01*
X245638095Y-100754819D02*
X246114285Y-100754819D01*
X246114285Y-100754819D02*
X246161904Y-101231009D01*
X246161904Y-101231009D02*
X246114285Y-101183390D01*
X246114285Y-101183390D02*
X246019047Y-101135771D01*
X246019047Y-101135771D02*
X245780952Y-101135771D01*
X245780952Y-101135771D02*
X245685714Y-101183390D01*
X245685714Y-101183390D02*
X245638095Y-101231009D01*
X245638095Y-101231009D02*
X245590476Y-101326247D01*
X245590476Y-101326247D02*
X245590476Y-101564342D01*
X245590476Y-101564342D02*
X245638095Y-101659580D01*
X245638095Y-101659580D02*
X245685714Y-101707200D01*
X245685714Y-101707200D02*
X245780952Y-101754819D01*
X245780952Y-101754819D02*
X246019047Y-101754819D01*
X246019047Y-101754819D02*
X246114285Y-101707200D01*
X246114285Y-101707200D02*
X246161904Y-101659580D01*
X234761904Y-98754819D02*
X234761904Y-99564342D01*
X234761904Y-99564342D02*
X234714285Y-99659580D01*
X234714285Y-99659580D02*
X234666666Y-99707200D01*
X234666666Y-99707200D02*
X234571428Y-99754819D01*
X234571428Y-99754819D02*
X234380952Y-99754819D01*
X234380952Y-99754819D02*
X234285714Y-99707200D01*
X234285714Y-99707200D02*
X234238095Y-99659580D01*
X234238095Y-99659580D02*
X234190476Y-99564342D01*
X234190476Y-99564342D02*
X234190476Y-98754819D01*
X233571428Y-99183390D02*
X233666666Y-99135771D01*
X233666666Y-99135771D02*
X233714285Y-99088152D01*
X233714285Y-99088152D02*
X233761904Y-98992914D01*
X233761904Y-98992914D02*
X233761904Y-98945295D01*
X233761904Y-98945295D02*
X233714285Y-98850057D01*
X233714285Y-98850057D02*
X233666666Y-98802438D01*
X233666666Y-98802438D02*
X233571428Y-98754819D01*
X233571428Y-98754819D02*
X233380952Y-98754819D01*
X233380952Y-98754819D02*
X233285714Y-98802438D01*
X233285714Y-98802438D02*
X233238095Y-98850057D01*
X233238095Y-98850057D02*
X233190476Y-98945295D01*
X233190476Y-98945295D02*
X233190476Y-98992914D01*
X233190476Y-98992914D02*
X233238095Y-99088152D01*
X233238095Y-99088152D02*
X233285714Y-99135771D01*
X233285714Y-99135771D02*
X233380952Y-99183390D01*
X233380952Y-99183390D02*
X233571428Y-99183390D01*
X233571428Y-99183390D02*
X233666666Y-99231009D01*
X233666666Y-99231009D02*
X233714285Y-99278628D01*
X233714285Y-99278628D02*
X233761904Y-99373866D01*
X233761904Y-99373866D02*
X233761904Y-99564342D01*
X233761904Y-99564342D02*
X233714285Y-99659580D01*
X233714285Y-99659580D02*
X233666666Y-99707200D01*
X233666666Y-99707200D02*
X233571428Y-99754819D01*
X233571428Y-99754819D02*
X233380952Y-99754819D01*
X233380952Y-99754819D02*
X233285714Y-99707200D01*
X233285714Y-99707200D02*
X233238095Y-99659580D01*
X233238095Y-99659580D02*
X233190476Y-99564342D01*
X233190476Y-99564342D02*
X233190476Y-99373866D01*
X233190476Y-99373866D02*
X233238095Y-99278628D01*
X233238095Y-99278628D02*
X233285714Y-99231009D01*
X233285714Y-99231009D02*
X233380952Y-99183390D01*
X247161904Y-91954819D02*
X247161904Y-92764342D01*
X247161904Y-92764342D02*
X247114285Y-92859580D01*
X247114285Y-92859580D02*
X247066666Y-92907200D01*
X247066666Y-92907200D02*
X246971428Y-92954819D01*
X246971428Y-92954819D02*
X246780952Y-92954819D01*
X246780952Y-92954819D02*
X246685714Y-92907200D01*
X246685714Y-92907200D02*
X246638095Y-92859580D01*
X246638095Y-92859580D02*
X246590476Y-92764342D01*
X246590476Y-92764342D02*
X246590476Y-91954819D01*
X245685714Y-91954819D02*
X245876190Y-91954819D01*
X245876190Y-91954819D02*
X245971428Y-92002438D01*
X245971428Y-92002438D02*
X246019047Y-92050057D01*
X246019047Y-92050057D02*
X246114285Y-92192914D01*
X246114285Y-92192914D02*
X246161904Y-92383390D01*
X246161904Y-92383390D02*
X246161904Y-92764342D01*
X246161904Y-92764342D02*
X246114285Y-92859580D01*
X246114285Y-92859580D02*
X246066666Y-92907200D01*
X246066666Y-92907200D02*
X245971428Y-92954819D01*
X245971428Y-92954819D02*
X245780952Y-92954819D01*
X245780952Y-92954819D02*
X245685714Y-92907200D01*
X245685714Y-92907200D02*
X245638095Y-92859580D01*
X245638095Y-92859580D02*
X245590476Y-92764342D01*
X245590476Y-92764342D02*
X245590476Y-92526247D01*
X245590476Y-92526247D02*
X245638095Y-92431009D01*
X245638095Y-92431009D02*
X245685714Y-92383390D01*
X245685714Y-92383390D02*
X245780952Y-92335771D01*
X245780952Y-92335771D02*
X245971428Y-92335771D01*
X245971428Y-92335771D02*
X246066666Y-92383390D01*
X246066666Y-92383390D02*
X246114285Y-92431009D01*
X246114285Y-92431009D02*
X246161904Y-92526247D01*
X247161904Y-109754819D02*
X247161904Y-110564342D01*
X247161904Y-110564342D02*
X247114285Y-110659580D01*
X247114285Y-110659580D02*
X247066666Y-110707200D01*
X247066666Y-110707200D02*
X246971428Y-110754819D01*
X246971428Y-110754819D02*
X246780952Y-110754819D01*
X246780952Y-110754819D02*
X246685714Y-110707200D01*
X246685714Y-110707200D02*
X246638095Y-110659580D01*
X246638095Y-110659580D02*
X246590476Y-110564342D01*
X246590476Y-110564342D02*
X246590476Y-109754819D01*
X246161904Y-109850057D02*
X246114285Y-109802438D01*
X246114285Y-109802438D02*
X246019047Y-109754819D01*
X246019047Y-109754819D02*
X245780952Y-109754819D01*
X245780952Y-109754819D02*
X245685714Y-109802438D01*
X245685714Y-109802438D02*
X245638095Y-109850057D01*
X245638095Y-109850057D02*
X245590476Y-109945295D01*
X245590476Y-109945295D02*
X245590476Y-110040533D01*
X245590476Y-110040533D02*
X245638095Y-110183390D01*
X245638095Y-110183390D02*
X246209523Y-110754819D01*
X246209523Y-110754819D02*
X245590476Y-110754819D01*
X234761904Y-90954819D02*
X234761904Y-91764342D01*
X234761904Y-91764342D02*
X234714285Y-91859580D01*
X234714285Y-91859580D02*
X234666666Y-91907200D01*
X234666666Y-91907200D02*
X234571428Y-91954819D01*
X234571428Y-91954819D02*
X234380952Y-91954819D01*
X234380952Y-91954819D02*
X234285714Y-91907200D01*
X234285714Y-91907200D02*
X234238095Y-91859580D01*
X234238095Y-91859580D02*
X234190476Y-91764342D01*
X234190476Y-91764342D02*
X234190476Y-90954819D01*
X233666666Y-91954819D02*
X233476190Y-91954819D01*
X233476190Y-91954819D02*
X233380952Y-91907200D01*
X233380952Y-91907200D02*
X233333333Y-91859580D01*
X233333333Y-91859580D02*
X233238095Y-91716723D01*
X233238095Y-91716723D02*
X233190476Y-91526247D01*
X233190476Y-91526247D02*
X233190476Y-91145295D01*
X233190476Y-91145295D02*
X233238095Y-91050057D01*
X233238095Y-91050057D02*
X233285714Y-91002438D01*
X233285714Y-91002438D02*
X233380952Y-90954819D01*
X233380952Y-90954819D02*
X233571428Y-90954819D01*
X233571428Y-90954819D02*
X233666666Y-91002438D01*
X233666666Y-91002438D02*
X233714285Y-91050057D01*
X233714285Y-91050057D02*
X233761904Y-91145295D01*
X233761904Y-91145295D02*
X233761904Y-91383390D01*
X233761904Y-91383390D02*
X233714285Y-91478628D01*
X233714285Y-91478628D02*
X233666666Y-91526247D01*
X233666666Y-91526247D02*
X233571428Y-91573866D01*
X233571428Y-91573866D02*
X233380952Y-91573866D01*
X233380952Y-91573866D02*
X233285714Y-91526247D01*
X233285714Y-91526247D02*
X233238095Y-91478628D01*
X233238095Y-91478628D02*
X233190476Y-91383390D01*
D11*
G04 #@! TO.C,R21*
X229600000Y-105600000D02*
X228000000Y-105600000D01*
X228000000Y-102600000D02*
X229600000Y-102600000D01*
X228000000Y-105600000D02*
X228000000Y-102600000D01*
X229600000Y-102600000D02*
X229600000Y-105600000D01*
G04 #@! TO.C,R11*
X256500000Y-106000000D02*
X256500000Y-104000000D01*
X256500000Y-104000000D02*
X259900000Y-104000000D01*
X259900000Y-104000000D02*
X259900000Y-106000000D01*
X259900000Y-106000000D02*
X256500000Y-106000000D01*
G04 #@! TO.C,C3*
X243300000Y-114200002D02*
X240700000Y-114200000D01*
X240700000Y-112599998D02*
X243300000Y-112600000D01*
X240700001Y-112599999D02*
G75*
G03*
X240700001Y-114199999I840223J-800000D01*
G01*
X243299999Y-114200001D02*
G75*
G03*
X243299999Y-112600001I-840223J800000D01*
G01*
G04 #@! TO.C,Q7*
X253100000Y-104400000D02*
X253100000Y-102000000D01*
X256500000Y-105000000D02*
X253700000Y-105000000D01*
X253100000Y-102000000D02*
X256500000Y-102000000D01*
X256500000Y-102000000D02*
X256500000Y-105000000D01*
D12*
X253363500Y-104800000D02*
G75*
G03*
X253363500Y-104800000I-63500J0D01*
G01*
D11*
G04 #@! TO.C,R12*
X243400000Y-104400000D02*
X243400000Y-106000000D01*
X240400000Y-106000000D02*
X240400000Y-104400000D01*
X240400000Y-104400000D02*
X243400000Y-104400000D01*
X243400000Y-106000000D02*
X240400000Y-106000000D01*
G04 #@! TO.C,R16*
X229600000Y-116200000D02*
X228000000Y-116200000D01*
X228000000Y-116200000D02*
X228000000Y-113200000D01*
X229600000Y-113200000D02*
X229600000Y-116200000D01*
X228000000Y-113200000D02*
X229600000Y-113200000D01*
G04 #@! TO.C,C8*
X243200000Y-104400002D02*
X240600000Y-104400000D01*
X240600000Y-102799998D02*
X243200000Y-102800000D01*
X243199999Y-104400001D02*
G75*
G03*
X243199999Y-102800001I-840223J800000D01*
G01*
X240600001Y-102799999D02*
G75*
G03*
X240600001Y-104399999I840223J-800000D01*
G01*
G04 #@! TO.C,Q13*
X256500000Y-96000000D02*
X253700000Y-96000000D01*
X253100000Y-95400000D02*
X253100000Y-93000000D01*
X253100000Y-93000000D02*
X256500000Y-93000000D01*
X256500000Y-93000000D02*
X256500000Y-96000000D01*
D12*
X253363500Y-95800000D02*
G75*
G03*
X253363500Y-95800000I-63500J0D01*
G01*
D11*
G04 #@! TO.C,U7*
X236800000Y-105400000D02*
X236800000Y-112600000D01*
X236200000Y-113200000D02*
X231200000Y-113200000D01*
X231200000Y-113200000D02*
X231200000Y-105400000D01*
X231200000Y-105400000D02*
X236800000Y-105400000D01*
D13*
X236663500Y-113000000D02*
G75*
G03*
X236663500Y-113000000I-63500J0D01*
G01*
D11*
G04 #@! TO.C,RN8*
X240000000Y-89400000D02*
X239873000Y-89400000D01*
X240000000Y-91300000D02*
X240000000Y-87500000D01*
X239873000Y-90174700D02*
X239987300Y-90174700D01*
X236927000Y-88625300D02*
X236812700Y-88625300D01*
X240000000Y-87500000D02*
X236800000Y-87500000D01*
X236927000Y-90174700D02*
X236812700Y-90174700D01*
X236800000Y-87500000D02*
X236800000Y-91300000D01*
X236800000Y-91300000D02*
X240000000Y-91300000D01*
X236800000Y-89400000D02*
X236927000Y-89400000D01*
X239873000Y-88625300D02*
X239987300Y-88625300D01*
G04 #@! TO.C,U5*
X249200000Y-97400000D02*
X249200000Y-105200000D01*
X244200000Y-97400000D02*
X249200000Y-97400000D01*
X243600000Y-105200000D02*
X243600000Y-98000000D01*
X249200000Y-105200000D02*
X243600000Y-105200000D01*
D13*
X243863500Y-97600000D02*
G75*
G03*
X243863500Y-97600000I-63500J0D01*
G01*
D11*
G04 #@! TO.C,C6*
X228000000Y-105100000D02*
X228000000Y-109300000D01*
X225600000Y-109300000D02*
X225600000Y-105100000D01*
X225600000Y-109300000D02*
G75*
G03*
X228000000Y-109300000I1200000J1408120D01*
G01*
X228000000Y-105100000D02*
G75*
G03*
X225600000Y-105100000I-1200000J-1474352D01*
G01*
G04 #@! TO.C,RN7*
X240000000Y-99500000D02*
X236800000Y-99500000D01*
X236927000Y-102174700D02*
X236812700Y-102174700D01*
X239873000Y-100625300D02*
X239987300Y-100625300D01*
X240000000Y-101400000D02*
X239873000Y-101400000D01*
X240000000Y-103300000D02*
X240000000Y-99500000D01*
X236800000Y-99500000D02*
X236800000Y-103300000D01*
X236927000Y-100625300D02*
X236812700Y-100625300D01*
X236800000Y-101400000D02*
X236927000Y-101400000D01*
X236800000Y-103300000D02*
X240000000Y-103300000D01*
X239873000Y-102174700D02*
X239987300Y-102174700D01*
G04 #@! TO.C,R19*
X228000000Y-108600000D02*
X229600000Y-108600000D01*
X229600000Y-111600000D02*
X228000000Y-111600000D01*
X229600000Y-108600000D02*
X229600000Y-111600000D01*
X228000000Y-111600000D02*
X228000000Y-108600000D01*
G04 #@! TO.C,R33*
X256500000Y-96000000D02*
X259900000Y-96000000D01*
X256500000Y-98000000D02*
X256500000Y-96000000D01*
X259900000Y-96000000D02*
X259900000Y-98000000D01*
X259900000Y-98000000D02*
X256500000Y-98000000D01*
G04 #@! TO.C,U8*
X231200000Y-103200000D02*
X231200000Y-95400000D01*
X231200000Y-95400000D02*
X236800000Y-95400000D01*
X236800000Y-95400000D02*
X236800000Y-102600000D01*
X236200000Y-103200000D02*
X231200000Y-103200000D01*
D13*
X236663500Y-103000000D02*
G75*
G03*
X236663500Y-103000000I-63500J0D01*
G01*
D11*
G04 #@! TO.C,D9*
X240000000Y-96200000D02*
X243600000Y-96200000D01*
X243600000Y-96200000D02*
X243600000Y-99000000D01*
X243600000Y-99000000D02*
X240000000Y-99000000D01*
X240000000Y-99000000D02*
X240000000Y-96200000D01*
G04 #@! TO.C,RN6*
X236800000Y-95700000D02*
X236800000Y-99500000D01*
X239873000Y-96825300D02*
X239987300Y-96825300D01*
X236800000Y-99500000D02*
X240000000Y-99500000D01*
X236800000Y-97600000D02*
X236927000Y-97600000D01*
X236927000Y-96825300D02*
X236812700Y-96825300D01*
X240000000Y-95700000D02*
X236800000Y-95700000D01*
X240000000Y-99500000D02*
X240000000Y-95700000D01*
X236927000Y-98374700D02*
X236812700Y-98374700D01*
X240000000Y-97600000D02*
X239873000Y-97600000D01*
X239873000Y-98374700D02*
X239987300Y-98374700D01*
G04 #@! TO.C,C18*
X229599998Y-111200000D02*
X229600000Y-108600000D01*
X231200002Y-108600000D02*
X231200000Y-111200000D01*
X231200001Y-108600001D02*
G75*
G03*
X229600001Y-108600001I-800000J-840223D01*
G01*
X229599999Y-111199999D02*
G75*
G03*
X231199999Y-111199999I800000J840223D01*
G01*
G04 #@! TO.C,Q5*
X256500000Y-108000000D02*
X253700000Y-108000000D01*
X256500000Y-105000000D02*
X256500000Y-108000000D01*
X253100000Y-107400000D02*
X253100000Y-105000000D01*
X253100000Y-105000000D02*
X256500000Y-105000000D01*
D12*
X253363500Y-107800000D02*
G75*
G03*
X253363500Y-107800000I-63500J0D01*
G01*
D11*
G04 #@! TO.C,U6*
X244200000Y-88600000D02*
X249200000Y-88600000D01*
X249200000Y-88600000D02*
X249200000Y-96400000D01*
X243600000Y-96400000D02*
X243600000Y-89200000D01*
X249200000Y-96400000D02*
X243600000Y-96400000D01*
D13*
X243863500Y-88800000D02*
G75*
G03*
X243863500Y-88800000I-63500J0D01*
G01*
D11*
G04 #@! TO.C,R17*
X231200000Y-116200000D02*
X229600000Y-116200000D01*
X229600000Y-113200000D02*
X231200000Y-113200000D01*
X229600000Y-116200000D02*
X229600000Y-113200000D01*
X231200000Y-113200000D02*
X231200000Y-116200000D01*
G04 #@! TO.C,RN4*
X236800000Y-107400000D02*
X236927000Y-107400000D01*
X236927000Y-108174700D02*
X236812700Y-108174700D01*
X236800000Y-109300000D02*
X240000000Y-109300000D01*
X236800000Y-105500000D02*
X236800000Y-109300000D01*
X240000000Y-109300000D02*
X240000000Y-105500000D01*
X236927000Y-106625300D02*
X236812700Y-106625300D01*
X239873000Y-106625300D02*
X239987300Y-106625300D01*
X240000000Y-107400000D02*
X239873000Y-107400000D01*
X239873000Y-108174700D02*
X239987300Y-108174700D01*
X240000000Y-105500000D02*
X236800000Y-105500000D01*
G04 #@! TO.C,RN2*
X252400000Y-104000000D02*
X252400000Y-100200000D01*
X252400000Y-100200000D02*
X249200000Y-100200000D01*
X249200000Y-102100000D02*
X249327000Y-102100000D01*
X252400000Y-102100000D02*
X252273000Y-102100000D01*
X252273000Y-102874700D02*
X252387300Y-102874700D01*
X249327000Y-101325300D02*
X249212700Y-101325300D01*
X249200000Y-100200000D02*
X249200000Y-104000000D01*
X252273000Y-101325300D02*
X252387300Y-101325300D01*
X249327000Y-102874700D02*
X249212700Y-102874700D01*
X249200000Y-104000000D02*
X252400000Y-104000000D01*
G04 #@! TO.C,C1*
X228000000Y-94800000D02*
X228000000Y-99000000D01*
X225600000Y-99000000D02*
X225600000Y-94800000D01*
X228000000Y-94800000D02*
G75*
G03*
X225600000Y-94800000I-1200000J-1474352D01*
G01*
X225600000Y-99000000D02*
G75*
G03*
X228000000Y-99000000I1200000J1408120D01*
G01*
G04 #@! TO.C,D10*
X243600000Y-102800000D02*
X240000000Y-102800000D01*
X243600000Y-100000000D02*
X243600000Y-102800000D01*
X240000000Y-100000000D02*
X243600000Y-100000000D01*
X240000000Y-102800000D02*
X240000000Y-100000000D01*
G04 #@! TO.C,U2*
X243600000Y-114200000D02*
X243600000Y-107000000D01*
X244200000Y-106400000D02*
X249200000Y-106400000D01*
X249200000Y-106400000D02*
X249200000Y-114200000D01*
X249200000Y-114200000D02*
X243600000Y-114200000D01*
D13*
X243863500Y-106600000D02*
G75*
G03*
X243863500Y-106600000I-63500J0D01*
G01*
D11*
G04 #@! TO.C,U9*
X231200000Y-87600000D02*
X236800000Y-87600000D01*
X236200000Y-95400000D02*
X231200000Y-95400000D01*
X231200000Y-95400000D02*
X231200000Y-87600000D01*
X236800000Y-87600000D02*
X236800000Y-94800000D01*
D13*
X236663500Y-95200000D02*
G75*
G03*
X236663500Y-95200000I-63500J0D01*
G01*
D11*
G04 #@! TO.C,R26*
X228000000Y-90600000D02*
X228000000Y-87600000D01*
X229600000Y-90600000D02*
X228000000Y-90600000D01*
X229600000Y-87600000D02*
X229600000Y-90600000D01*
X228000000Y-87600000D02*
X229600000Y-87600000D01*
G04 #@! TO.C,Q11*
X253100000Y-98400000D02*
X253100000Y-96000000D01*
X253100000Y-96000000D02*
X256500000Y-96000000D01*
X256500000Y-96000000D02*
X256500000Y-99000000D01*
X256500000Y-99000000D02*
X253700000Y-99000000D01*
D12*
X253363500Y-98800000D02*
G75*
G03*
X253363500Y-98800000I-63500J0D01*
G01*
D11*
G04 #@! TO.C,R18*
X231200000Y-113200000D02*
X228200000Y-113200000D01*
X228200000Y-113200000D02*
X228200000Y-111600000D01*
X228200000Y-111600000D02*
X231200000Y-111600000D01*
X231200000Y-111600000D02*
X231200000Y-113200000D01*
G04 #@! TO.C,RN9*
X236927000Y-92425300D02*
X236812700Y-92425300D01*
X236927000Y-93974700D02*
X236812700Y-93974700D01*
X236800000Y-91300000D02*
X236800000Y-95100000D01*
X240000000Y-95100000D02*
X240000000Y-91300000D01*
X239873000Y-92425300D02*
X239987300Y-92425300D01*
X239873000Y-93974700D02*
X239987300Y-93974700D01*
X240000000Y-91300000D02*
X236800000Y-91300000D01*
X240000000Y-93200000D02*
X239873000Y-93200000D01*
X236800000Y-95100000D02*
X240000000Y-95100000D01*
X236800000Y-93200000D02*
X236927000Y-93200000D01*
G04 #@! TO.C,R28*
X231000000Y-86000000D02*
X234000000Y-86000000D01*
X234000000Y-86000000D02*
X234000000Y-87600000D01*
X234000000Y-87600000D02*
X231000000Y-87600000D01*
X231000000Y-87600000D02*
X231000000Y-86000000D01*
G04 #@! TO.C,C17*
X229599998Y-100600000D02*
X229600000Y-98000000D01*
X231200002Y-98000000D02*
X231200000Y-100600000D01*
X231200001Y-98000001D02*
G75*
G03*
X229600001Y-98000001I-800000J-840223D01*
G01*
X229599999Y-100599999D02*
G75*
G03*
X231199999Y-100599999I800000J840223D01*
G01*
G04 #@! TO.C,R27*
X228000000Y-87600000D02*
X228000000Y-86000000D01*
X228000000Y-86000000D02*
X231000000Y-86000000D01*
X231000000Y-87600000D02*
X228000000Y-87600000D01*
X231000000Y-86000000D02*
X231000000Y-87600000D01*
G04 #@! TO.C,R23*
X229600000Y-96575000D02*
X229600000Y-99575000D01*
X228000000Y-99575000D02*
X228000000Y-96575000D01*
X229600000Y-99575000D02*
X228000000Y-99575000D01*
X228000000Y-96575000D02*
X229600000Y-96575000D01*
G04 #@! TO.C,RN3*
X249200000Y-96400000D02*
X249200000Y-100200000D01*
X249327000Y-97525300D02*
X249212700Y-97525300D01*
X252273000Y-97525300D02*
X252387300Y-97525300D01*
X252400000Y-98300000D02*
X252273000Y-98300000D01*
X249327000Y-99074700D02*
X249212700Y-99074700D01*
X252400000Y-96400000D02*
X249200000Y-96400000D01*
X249200000Y-98300000D02*
X249327000Y-98300000D01*
X252400000Y-100200000D02*
X252400000Y-96400000D01*
X249200000Y-100200000D02*
X252400000Y-100200000D01*
X252273000Y-99074700D02*
X252387300Y-99074700D01*
G04 #@! TO.C,D12*
X240000000Y-94600000D02*
X240000000Y-91800000D01*
X243600000Y-94600000D02*
X240000000Y-94600000D01*
X240000000Y-91800000D02*
X243600000Y-91800000D01*
X243600000Y-91800000D02*
X243600000Y-94600000D01*
G04 #@! TO.C,RN1*
X252400000Y-105900000D02*
X252273000Y-105900000D01*
X249200000Y-104000000D02*
X249200000Y-107800000D01*
X249327000Y-106674700D02*
X249212700Y-106674700D01*
X252273000Y-105125300D02*
X252387300Y-105125300D01*
X249327000Y-105125300D02*
X249212700Y-105125300D01*
X249200000Y-105900000D02*
X249327000Y-105900000D01*
X249200000Y-107800000D02*
X252400000Y-107800000D01*
X252400000Y-107800000D02*
X252400000Y-104000000D01*
X252400000Y-104000000D02*
X249200000Y-104000000D01*
X252273000Y-106674700D02*
X252387300Y-106674700D01*
G04 #@! TO.C,D8*
X243600000Y-109800000D02*
X243600000Y-112600000D01*
X240000000Y-109800000D02*
X243600000Y-109800000D01*
X240000000Y-112600000D02*
X240000000Y-109800000D01*
X243600000Y-112600000D02*
X240000000Y-112600000D01*
G04 #@! TO.C,C9*
X228000000Y-100000000D02*
X228000000Y-104200000D01*
X225600000Y-104200000D02*
X225600000Y-100000000D01*
X228000000Y-100000000D02*
G75*
G03*
X225600000Y-100000000I-1200000J-1408120D01*
G01*
X225600000Y-104200000D02*
G75*
G03*
X228000000Y-104200000I1200000J1474352D01*
G01*
G04 #@! TO.C,R24*
X228000000Y-96600000D02*
X228000000Y-93600000D01*
X229600000Y-96600000D02*
X228000000Y-96600000D01*
X228000000Y-93600000D02*
X229600000Y-93600000D01*
X229600000Y-93600000D02*
X229600000Y-96600000D01*
G04 #@! TO.C,D11*
X240000000Y-87900000D02*
X243600000Y-87900000D01*
X243600000Y-90700000D02*
X240000000Y-90700000D01*
X240000000Y-90700000D02*
X240000000Y-87900000D01*
X243600000Y-87900000D02*
X243600000Y-90700000D01*
G04 #@! TO.C,R20*
X229600000Y-108600000D02*
X228000000Y-108600000D01*
X228000000Y-108600000D02*
X228000000Y-105600000D01*
X228000000Y-105600000D02*
X229600000Y-105600000D01*
X229600000Y-105600000D02*
X229600000Y-108600000D01*
G04 #@! TO.C,R31*
X256500000Y-100000000D02*
X256500000Y-98000000D01*
X256500000Y-98000000D02*
X259900000Y-98000000D01*
X259900000Y-100000000D02*
X256500000Y-100000000D01*
X259900000Y-98000000D02*
X259900000Y-100000000D01*
G04 #@! TO.C,R22*
X228000000Y-102600000D02*
X228000000Y-99600000D01*
X228000000Y-99600000D02*
X229600000Y-99600000D01*
X229600000Y-102600000D02*
X228000000Y-102600000D01*
X229600000Y-99600000D02*
X229600000Y-102600000D01*
G04 #@! TO.C,C16*
X231200002Y-90200000D02*
X231200000Y-92800000D01*
X229599998Y-92800000D02*
X229600000Y-90200000D01*
X231200001Y-90200001D02*
G75*
G03*
X229600001Y-90200001I-800000J-840223D01*
G01*
X229599999Y-92799999D02*
G75*
G03*
X231199999Y-92799999I800000J840223D01*
G01*
G04 #@! TO.C,R14*
X259900000Y-104000000D02*
X256500000Y-104000000D01*
X256500000Y-102000000D02*
X259900000Y-102000000D01*
X256500000Y-104000000D02*
X256500000Y-102000000D01*
X259900000Y-102000000D02*
X259900000Y-104000000D01*
G04 #@! TO.C,R29*
X256500000Y-100000000D02*
X259900000Y-100000000D01*
X256500000Y-102000000D02*
X256500000Y-100000000D01*
X259900000Y-100000000D02*
X259900000Y-102000000D01*
X259900000Y-102000000D02*
X256500000Y-102000000D01*
G04 #@! TO.C,D7*
X240000000Y-108800000D02*
X240000000Y-106000000D01*
X240000000Y-106000000D02*
X243600000Y-106000000D01*
X243600000Y-108800000D02*
X240000000Y-108800000D01*
X243600000Y-106000000D02*
X243600000Y-108800000D01*
G04 #@! TO.C,Q9*
X256500000Y-102000000D02*
X253700000Y-102000000D01*
X256500000Y-99000000D02*
X256500000Y-102000000D01*
X253100000Y-101400000D02*
X253100000Y-99000000D01*
X253100000Y-99000000D02*
X256500000Y-99000000D01*
D12*
X253363500Y-101800000D02*
G75*
G03*
X253363500Y-101800000I-63500J0D01*
G01*
D11*
G04 #@! TO.C,R9*
X256500000Y-106000000D02*
X259900000Y-106000000D01*
X256500000Y-108000000D02*
X256500000Y-106000000D01*
X259900000Y-106000000D02*
X259900000Y-108000000D01*
X259900000Y-108000000D02*
X256500000Y-108000000D01*
G04 #@! TO.C,RN5*
X236800000Y-113100000D02*
X240000000Y-113100000D01*
X236927000Y-111974700D02*
X236812700Y-111974700D01*
X240000000Y-111200000D02*
X239873000Y-111200000D01*
X236800000Y-109300000D02*
X236800000Y-113100000D01*
X239873000Y-111974700D02*
X239987300Y-111974700D01*
X236800000Y-111200000D02*
X236927000Y-111200000D01*
X240000000Y-113100000D02*
X240000000Y-109300000D01*
X236927000Y-110425300D02*
X236812700Y-110425300D01*
X240000000Y-109300000D02*
X236800000Y-109300000D01*
X239873000Y-110425300D02*
X239987300Y-110425300D01*
G04 #@! TO.C,R25*
X228000000Y-93600000D02*
X228000000Y-90600000D01*
X229600000Y-90600000D02*
X229600000Y-93600000D01*
X229600000Y-93600000D02*
X228000000Y-93600000D01*
X228000000Y-90600000D02*
X229600000Y-90600000D01*
G04 #@! TO.C,C10*
X240700000Y-94599998D02*
X243300000Y-94600000D01*
X243300000Y-96200002D02*
X240700000Y-96200000D01*
X243299999Y-96200001D02*
G75*
G03*
X243299999Y-94600001I-840223J800000D01*
G01*
X240700001Y-94599999D02*
G75*
G03*
X240700001Y-96199999I840223J-800000D01*
G01*
G04 #@! TO.C,Q3*
X256500000Y-108000000D02*
X256500000Y-111000000D01*
X256500000Y-111000000D02*
X253700000Y-111000000D01*
X253100000Y-108000000D02*
X256500000Y-108000000D01*
X253100000Y-110400000D02*
X253100000Y-108000000D01*
D12*
X253363500Y-110800000D02*
G75*
G03*
X253363500Y-110800000I-63500J0D01*
G01*
G04 #@! TD*
%LPC*%
D14*
G04 #@! TO.C,REF\u002A\u002A*
X224500000Y-114500000D03*
G04 #@! TD*
G04 #@! TO.C,REF\u002A\u002A*
X255000000Y-114500000D03*
G04 #@! TD*
G04 #@! TO.C,REF\u002A\u002A*
X255000000Y-89500000D03*
G04 #@! TD*
G04 #@! TO.C,REF\u002A\u002A*
X224500000Y-89500000D03*
G04 #@! TD*
D15*
G04 #@! TO.C,D16*
X261500000Y-98500000D03*
D16*
X264040000Y-98500000D03*
G04 #@! TD*
D15*
G04 #@! TO.C,D14*
X261500000Y-103500000D03*
D16*
X264040000Y-103500000D03*
G04 #@! TD*
D15*
G04 #@! TO.C,D3*
X261500000Y-116000000D03*
D16*
X264040000Y-116000000D03*
G04 #@! TD*
D15*
G04 #@! TO.C,D25*
X261500000Y-91000000D03*
D16*
X264040000Y-91000000D03*
G04 #@! TD*
D15*
G04 #@! TO.C,D4*
X261500000Y-113500000D03*
D16*
X264040000Y-113500000D03*
G04 #@! TD*
D15*
G04 #@! TO.C,D17*
X261500000Y-96000000D03*
D16*
X264040000Y-96000000D03*
G04 #@! TD*
D15*
G04 #@! TO.C,D13*
X261500000Y-106000000D03*
D16*
X264040000Y-106000000D03*
G04 #@! TD*
D15*
G04 #@! TO.C,D6*
X261500000Y-108500000D03*
D16*
X264040000Y-108500000D03*
G04 #@! TD*
D15*
G04 #@! TO.C,D18*
X261500000Y-93500000D03*
D16*
X264040000Y-93500000D03*
G04 #@! TD*
D15*
G04 #@! TO.C,D26*
X261500000Y-88500000D03*
D16*
X264040000Y-88500000D03*
G04 #@! TD*
D17*
G04 #@! TO.C,J1*
X222875000Y-108350000D03*
D18*
X222875000Y-105810000D03*
X222875000Y-103270000D03*
X222875000Y-100730000D03*
X222875000Y-98190000D03*
X222875000Y-95650000D03*
G04 #@! TD*
D15*
G04 #@! TO.C,D15*
X261500000Y-101000000D03*
D16*
X264040000Y-101000000D03*
G04 #@! TD*
D15*
G04 #@! TO.C,D5*
X261500000Y-111000000D03*
D16*
X264040000Y-111000000D03*
G04 #@! TD*
D19*
G04 #@! TO.C,R21*
X228800000Y-103275000D03*
X228800000Y-104925000D03*
G04 #@! TD*
D20*
G04 #@! TO.C,R11*
X259112500Y-105000000D03*
X257287500Y-105000000D03*
G04 #@! TD*
D21*
G04 #@! TO.C,C3*
X242775000Y-113400000D03*
X241225000Y-113400000D03*
G04 #@! TD*
D22*
G04 #@! TO.C,Q7*
X253850000Y-104150000D03*
X253850000Y-103500000D03*
X253850000Y-102850000D03*
X255750000Y-102850000D03*
X255750000Y-103500000D03*
X255750000Y-104150000D03*
G04 #@! TD*
D23*
G04 #@! TO.C,R12*
X242725000Y-105200000D03*
X241075000Y-105200000D03*
G04 #@! TD*
D19*
G04 #@! TO.C,R16*
X228800000Y-113875000D03*
X228800000Y-115525000D03*
G04 #@! TD*
D21*
G04 #@! TO.C,C8*
X242675000Y-103600000D03*
X241125000Y-103600000D03*
G04 #@! TD*
D22*
G04 #@! TO.C,Q13*
X253850000Y-95150000D03*
X253850000Y-94500000D03*
X253850000Y-93850000D03*
X255750000Y-93850000D03*
X255750000Y-94500000D03*
X255750000Y-95150000D03*
G04 #@! TD*
D24*
G04 #@! TO.C,U7*
X235950000Y-112162500D03*
X235300000Y-112162500D03*
X234650000Y-112162500D03*
X234000000Y-112162500D03*
X233350000Y-112162500D03*
X232700000Y-112162500D03*
X232050000Y-112162500D03*
X232050000Y-106437500D03*
X232700000Y-106437500D03*
X233350000Y-106437500D03*
X234000000Y-106437500D03*
X234650000Y-106437500D03*
X235300000Y-106437500D03*
X235950000Y-106437500D03*
G04 #@! TD*
D25*
G04 #@! TO.C,RN8*
X237500000Y-90600000D03*
D26*
X237500000Y-89800000D03*
X237500000Y-89000000D03*
D25*
X237500000Y-88200000D03*
X239300000Y-88200000D03*
D26*
X239300000Y-89000000D03*
X239300000Y-89800000D03*
D25*
X239300000Y-90600000D03*
G04 #@! TD*
D27*
G04 #@! TO.C,U5*
X244450000Y-98437500D03*
X245100000Y-98437500D03*
X245750000Y-98437500D03*
X246400000Y-98437500D03*
X247050000Y-98437500D03*
X247700000Y-98437500D03*
X248350000Y-98437500D03*
X248350000Y-104162500D03*
X247700000Y-104162500D03*
X247050000Y-104162500D03*
X246400000Y-104162500D03*
X245750000Y-104162500D03*
X245100000Y-104162500D03*
X244450000Y-104162500D03*
G04 #@! TD*
D28*
G04 #@! TO.C,C6*
X226800000Y-105725000D03*
X226800000Y-108675000D03*
G04 #@! TD*
D25*
G04 #@! TO.C,RN7*
X237500000Y-102600000D03*
D26*
X237500000Y-101800000D03*
X237500000Y-101000000D03*
D25*
X237500000Y-100200000D03*
X239300000Y-100200000D03*
D26*
X239300000Y-101000000D03*
X239300000Y-101800000D03*
D25*
X239300000Y-102600000D03*
G04 #@! TD*
D19*
G04 #@! TO.C,R19*
X228800000Y-109275000D03*
X228800000Y-110925000D03*
G04 #@! TD*
D20*
G04 #@! TO.C,R33*
X259112500Y-97000000D03*
X257287500Y-97000000D03*
G04 #@! TD*
D24*
G04 #@! TO.C,U8*
X235950000Y-102162500D03*
X235300000Y-102162500D03*
X234650000Y-102162500D03*
X234000000Y-102162500D03*
X233350000Y-102162500D03*
X232700000Y-102162500D03*
X232050000Y-102162500D03*
X232050000Y-96437500D03*
X232700000Y-96437500D03*
X233350000Y-96437500D03*
X234000000Y-96437500D03*
X234650000Y-96437500D03*
X235300000Y-96437500D03*
X235950000Y-96437500D03*
G04 #@! TD*
D29*
G04 #@! TO.C,D9*
X240800000Y-98250000D03*
X240800000Y-96950000D03*
X242800000Y-97600000D03*
G04 #@! TD*
D25*
G04 #@! TO.C,RN6*
X237500000Y-98800000D03*
D26*
X237500000Y-98000000D03*
X237500000Y-97200000D03*
D25*
X237500000Y-96400000D03*
X239300000Y-96400000D03*
D26*
X239300000Y-97200000D03*
X239300000Y-98000000D03*
D25*
X239300000Y-98800000D03*
G04 #@! TD*
D30*
G04 #@! TO.C,C18*
X230400000Y-109125000D03*
X230400000Y-110675000D03*
G04 #@! TD*
D22*
G04 #@! TO.C,Q5*
X253850000Y-107150000D03*
X253850000Y-106500000D03*
X253850000Y-105850000D03*
X255750000Y-105850000D03*
X255750000Y-106500000D03*
X255750000Y-107150000D03*
G04 #@! TD*
D27*
G04 #@! TO.C,U6*
X244450000Y-89637500D03*
X245100000Y-89637500D03*
X245750000Y-89637500D03*
X246400000Y-89637500D03*
X247050000Y-89637500D03*
X247700000Y-89637500D03*
X248350000Y-89637500D03*
X248350000Y-95362500D03*
X247700000Y-95362500D03*
X247050000Y-95362500D03*
X246400000Y-95362500D03*
X245750000Y-95362500D03*
X245100000Y-95362500D03*
X244450000Y-95362500D03*
G04 #@! TD*
D19*
G04 #@! TO.C,R17*
X230400000Y-113875000D03*
X230400000Y-115525000D03*
G04 #@! TD*
D25*
G04 #@! TO.C,RN4*
X237500000Y-108600000D03*
D26*
X237500000Y-107800000D03*
X237500000Y-107000000D03*
D25*
X237500000Y-106200000D03*
X239300000Y-106200000D03*
D26*
X239300000Y-107000000D03*
X239300000Y-107800000D03*
D25*
X239300000Y-108600000D03*
G04 #@! TD*
G04 #@! TO.C,RN2*
X249900000Y-103300000D03*
D26*
X249900000Y-102500000D03*
X249900000Y-101700000D03*
D25*
X249900000Y-100900000D03*
X251700000Y-100900000D03*
D26*
X251700000Y-101700000D03*
X251700000Y-102500000D03*
D25*
X251700000Y-103300000D03*
G04 #@! TD*
D28*
G04 #@! TO.C,C1*
X226800000Y-95425000D03*
X226800000Y-98375000D03*
G04 #@! TD*
D29*
G04 #@! TO.C,D10*
X240800000Y-102050000D03*
X240800000Y-100750000D03*
X242800000Y-101400000D03*
G04 #@! TD*
D27*
G04 #@! TO.C,U2*
X244450000Y-107437500D03*
X245100000Y-107437500D03*
X245750000Y-107437500D03*
X246400000Y-107437500D03*
X247050000Y-107437500D03*
X247700000Y-107437500D03*
X248350000Y-107437500D03*
X248350000Y-113162500D03*
X247700000Y-113162500D03*
X247050000Y-113162500D03*
X246400000Y-113162500D03*
X245750000Y-113162500D03*
X245100000Y-113162500D03*
X244450000Y-113162500D03*
G04 #@! TD*
D24*
G04 #@! TO.C,U9*
X235950000Y-94362500D03*
X235300000Y-94362500D03*
X234650000Y-94362500D03*
X234000000Y-94362500D03*
X233350000Y-94362500D03*
X232700000Y-94362500D03*
X232050000Y-94362500D03*
X232050000Y-88637500D03*
X232700000Y-88637500D03*
X233350000Y-88637500D03*
X234000000Y-88637500D03*
X234650000Y-88637500D03*
X235300000Y-88637500D03*
X235950000Y-88637500D03*
G04 #@! TD*
D19*
G04 #@! TO.C,R26*
X228800000Y-88275000D03*
X228800000Y-89925000D03*
G04 #@! TD*
D22*
G04 #@! TO.C,Q11*
X253850000Y-98150000D03*
X253850000Y-97500000D03*
X253850000Y-96850000D03*
X255750000Y-96850000D03*
X255750000Y-97500000D03*
X255750000Y-98150000D03*
G04 #@! TD*
D31*
G04 #@! TO.C,R18*
X228875000Y-112400000D03*
X230525000Y-112400000D03*
G04 #@! TD*
D25*
G04 #@! TO.C,RN9*
X237500000Y-94400000D03*
D26*
X237500000Y-93600000D03*
X237500000Y-92800000D03*
D25*
X237500000Y-92000000D03*
X239300000Y-92000000D03*
D26*
X239300000Y-92800000D03*
X239300000Y-93600000D03*
D25*
X239300000Y-94400000D03*
G04 #@! TD*
D23*
G04 #@! TO.C,R28*
X233325000Y-86800000D03*
X231675000Y-86800000D03*
G04 #@! TD*
D30*
G04 #@! TO.C,C17*
X230400000Y-98525000D03*
X230400000Y-100075000D03*
G04 #@! TD*
D23*
G04 #@! TO.C,R27*
X230325000Y-86800000D03*
X228675000Y-86800000D03*
G04 #@! TD*
D19*
G04 #@! TO.C,R23*
X228800000Y-97250000D03*
X228800000Y-98900000D03*
G04 #@! TD*
D25*
G04 #@! TO.C,RN3*
X249900000Y-99500000D03*
D26*
X249900000Y-98700000D03*
X249900000Y-97900000D03*
D25*
X249900000Y-97100000D03*
X251700000Y-97100000D03*
D26*
X251700000Y-97900000D03*
X251700000Y-98700000D03*
D25*
X251700000Y-99500000D03*
G04 #@! TD*
D29*
G04 #@! TO.C,D12*
X240800000Y-93850000D03*
X240800000Y-92550000D03*
X242800000Y-93200000D03*
G04 #@! TD*
D25*
G04 #@! TO.C,RN1*
X249900000Y-107100000D03*
D26*
X249900000Y-106300000D03*
X249900000Y-105500000D03*
D25*
X249900000Y-104700000D03*
X251700000Y-104700000D03*
D26*
X251700000Y-105500000D03*
X251700000Y-106300000D03*
D25*
X251700000Y-107100000D03*
G04 #@! TD*
D29*
G04 #@! TO.C,D8*
X240800000Y-111850000D03*
X240800000Y-110550000D03*
X242800000Y-111200000D03*
G04 #@! TD*
D32*
G04 #@! TO.C,C9*
X226800000Y-103575000D03*
X226800000Y-100625000D03*
G04 #@! TD*
D19*
G04 #@! TO.C,R24*
X228800000Y-94275000D03*
X228800000Y-95925000D03*
G04 #@! TD*
D29*
G04 #@! TO.C,D11*
X240800000Y-89950000D03*
X240800000Y-88650000D03*
X242800000Y-89300000D03*
G04 #@! TD*
D19*
G04 #@! TO.C,R20*
X228800000Y-106275000D03*
X228800000Y-107925000D03*
G04 #@! TD*
D20*
G04 #@! TO.C,R31*
X259112500Y-99000000D03*
X257287500Y-99000000D03*
G04 #@! TD*
D19*
G04 #@! TO.C,R22*
X228800000Y-100275000D03*
X228800000Y-101925000D03*
G04 #@! TD*
D33*
G04 #@! TO.C,C16*
X230400000Y-92275000D03*
X230400000Y-90725000D03*
G04 #@! TD*
D20*
G04 #@! TO.C,R14*
X259112500Y-103000000D03*
X257287500Y-103000000D03*
G04 #@! TD*
G04 #@! TO.C,R29*
X259112500Y-101000000D03*
X257287500Y-101000000D03*
G04 #@! TD*
D29*
G04 #@! TO.C,D7*
X240800000Y-108050000D03*
X240800000Y-106750000D03*
X242800000Y-107400000D03*
G04 #@! TD*
D22*
G04 #@! TO.C,Q9*
X253850000Y-101150000D03*
X253850000Y-100500000D03*
X253850000Y-99850000D03*
X255750000Y-99850000D03*
X255750000Y-100500000D03*
X255750000Y-101150000D03*
G04 #@! TD*
D20*
G04 #@! TO.C,R9*
X259112500Y-107000000D03*
X257287500Y-107000000D03*
G04 #@! TD*
D25*
G04 #@! TO.C,RN5*
X237500000Y-112400000D03*
D26*
X237500000Y-111600000D03*
X237500000Y-110800000D03*
D25*
X237500000Y-110000000D03*
X239300000Y-110000000D03*
D26*
X239300000Y-110800000D03*
X239300000Y-111600000D03*
D25*
X239300000Y-112400000D03*
G04 #@! TD*
D19*
G04 #@! TO.C,R25*
X228800000Y-91275000D03*
X228800000Y-92925000D03*
G04 #@! TD*
D21*
G04 #@! TO.C,C10*
X242775000Y-95400000D03*
X241225000Y-95400000D03*
G04 #@! TD*
D22*
G04 #@! TO.C,Q3*
X253850000Y-110150000D03*
X253850000Y-109500000D03*
X253850000Y-108850000D03*
X255750000Y-108850000D03*
X255750000Y-109500000D03*
X255750000Y-110150000D03*
G04 #@! TD*
%LPD*%
M02*
