M48
; DRILL file {KiCad 7.0.9-69-ge1c0bddff3} date Mon Feb 19 10:18:06 2024
; FORMAT={-:-/ absolute / metric / decimal}
; #@! TF.CreationDate,2024-02-19T10:18:06+01:00
; #@! TF.GenerationSoftware,Kicad,Pcbnew,7.0.9-69-ge1c0bddff3
; #@! TF.FileFunction,Plated,1,4,PTH
FMAT,2
METRIC
; #@! TA.AperFunction,Plated,PTH,ViaDrill
T1C0.200
; #@! TA.AperFunction,Plated,PTH,ViaDrill
T2C0.400
; #@! TA.AperFunction,Plated,PTH,ComponentDrill
T3C0.800
; #@! TA.AperFunction,Plated,PTH,ComponentDrill
T4C1.000
; #@! TA.AperFunction,Plated,PTH,ComponentDrill
T5C3.200
%
G90
G05
T1
X230.327Y-102.808
X230.658Y-94.614
X230.754Y-102.163
X230.814Y-96.614
X231.1Y-97.8
X231.1Y-98.3
X231.5Y-115.049
X232.0Y-101.1
X232.031Y-91.1
X232.315Y-90.572
X232.499Y-97.701
X232.7Y-100.9
X232.846Y-107.654
X233.3Y-93.099
X233.347Y-103.91
X233.731Y-109.146
X234.049Y-99.7
X234.2Y-100.8
X234.2Y-108.7
X234.2Y-110.05
X234.216Y-86.534
X234.3Y-104.1
X234.7Y-100.8
X234.8Y-104.1
X235.016Y-105.154
X235.299Y-100.851
X235.4Y-99.5
X235.45Y-99.0
X235.567Y-103.39
X235.6Y-109.0
X235.6Y-114.3
X235.814Y-92.861
X236.553Y-100.684
X236.6Y-95.8
X236.6Y-96.3
X236.6Y-102.9
X236.6Y-103.4
X236.603Y-101.772
X237.384Y-103.786
X238.0Y-103.7
X238.4Y-104.0
X239.1Y-104.049
X240.1Y-88.6
X240.6Y-101.4
X243.512Y-97.905
X243.85Y-107.0
X245.099Y-88.147
X245.45Y-108.931
X245.45Y-109.9
X245.8Y-100.2
X246.497Y-112.123
X246.697Y-99.506
X246.7Y-91.7
X246.7Y-105.75
X246.7Y-108.7
X247.2Y-105.65
X247.2Y-108.7
X248.7Y-93.0
X248.874Y-105.7
X251.424Y-107.813
X251.8Y-100.149
X252.174Y-96.45
X252.461Y-105.203
X252.499Y-102.949
X252.52Y-97.46
X252.564Y-106.936
X252.647Y-108.225
X252.688Y-100.683
X252.7Y-102.0
X252.7Y-104.025
X252.728Y-98.548
T2
X225.3Y-99.1
X227.3Y-110.2
X229.7Y-117.778
X230.471Y-87.904
X230.5Y-93.5
X230.5Y-101.3
X230.813Y-104.012
X231.355Y-113.167
X231.7Y-92.0
X232.704Y-113.724
X232.9Y-110.2
X235.045Y-110.84
X235.629Y-86.851
X236.0Y-90.4
X236.3Y-108.5
X236.4Y-109.5
X236.44Y-114.3
X237.7Y-87.1
X239.9Y-114.2
X240.0Y-103.9
X241.9Y-89.3
X241.9Y-106.4
X242.017Y-98.17
X243.292Y-96.799
X243.3Y-114.3
X243.5Y-111.1
X243.7Y-95.7
X244.275Y-102.786
X244.293Y-101.922
X244.6Y-86.7
X245.3Y-93.0
X245.9Y-105.6
X246.158Y-102.425
X248.6Y-86.8
X249.7Y-90.9
X249.8Y-113.8
X252.3Y-110.5
X254.904Y-99.096
X255.0Y-105.1
X255.0Y-108.0
X255.1Y-96.1
X255.2Y-101.9
X257.0Y-93.8
T3
X261.5Y-88.5
X261.5Y-91.0
X261.5Y-93.5
X261.5Y-96.0
X261.5Y-98.5
X261.5Y-101.0
X261.5Y-103.5
X261.5Y-106.0
X261.5Y-108.5
X261.5Y-111.0
X261.5Y-113.5
X261.5Y-116.0
X264.04Y-88.5
X264.04Y-91.0
X264.04Y-93.5
X264.04Y-96.0
X264.04Y-98.5
X264.04Y-101.0
X264.04Y-103.5
X264.04Y-106.0
X264.04Y-108.5
X264.04Y-111.0
X264.04Y-113.5
X264.04Y-116.0
T4
X222.875Y-95.65
X222.875Y-98.19
X222.875Y-100.73
X222.875Y-103.27
X222.875Y-105.81
X222.875Y-108.35
T5
X224.5Y-89.5
X224.5Y-114.5
X255.0Y-89.5
X255.0Y-114.5
M30
