G04 #@! TF.GenerationSoftware,KiCad,Pcbnew,7.0.9-69-ge1c0bddff3*
G04 #@! TF.CreationDate,2024-02-19T10:17:23+01:00*
G04 #@! TF.ProjectId,ASP_Display,4153505f-4469-4737-906c-61792e6b6963,rev?*
G04 #@! TF.SameCoordinates,Original*
G04 #@! TF.FileFunction,Soldermask,Top*
G04 #@! TF.FilePolarity,Negative*
%FSLAX46Y46*%
G04 Gerber Fmt 4.6, Leading zero omitted, Abs format (unit mm)*
G04 Created by KiCad (PCBNEW 7.0.9-69-ge1c0bddff3) date 2024-02-19 10:17:23*
%MOMM*%
%LPD*%
G01*
G04 APERTURE LIST*
G04 Aperture macros list*
%AMRoundRect*
0 Rectangle with rounded corners*
0 $1 Rounding radius*
0 $2 $3 $4 $5 $6 $7 $8 $9 X,Y pos of 4 corners*
0 Add a 4 corners polygon primitive as box body*
4,1,4,$2,$3,$4,$5,$6,$7,$8,$9,$2,$3,0*
0 Add four circle primitives for the rounded corners*
1,1,$1+$1,$2,$3*
1,1,$1+$1,$4,$5*
1,1,$1+$1,$6,$7*
1,1,$1+$1,$8,$9*
0 Add four rect primitives between the rounded corners*
20,1,$1+$1,$2,$3,$4,$5,0*
20,1,$1+$1,$4,$5,$6,$7,0*
20,1,$1+$1,$6,$7,$8,$9,0*
20,1,$1+$1,$8,$9,$2,$3,0*%
G04 Aperture macros list end*
%ADD10C,5.600000*%
%ADD11RoundRect,0.200000X-0.275000X0.200000X-0.275000X-0.200000X0.275000X-0.200000X0.275000X0.200000X0*%
%ADD12RoundRect,0.112500X-0.237500X0.112500X-0.237500X-0.112500X0.237500X-0.112500X0.237500X0.112500X0*%
%ADD13RoundRect,0.225000X0.250000X-0.225000X0.250000X0.225000X-0.250000X0.225000X-0.250000X-0.225000X0*%
%ADD14RoundRect,0.100000X0.100000X-0.637500X0.100000X0.637500X-0.100000X0.637500X-0.100000X-0.637500X0*%
%ADD15RoundRect,0.225000X-0.250000X0.225000X-0.250000X-0.225000X0.250000X-0.225000X0.250000X0.225000X0*%
%ADD16RoundRect,0.125000X-0.275000X-0.125000X0.275000X-0.125000X0.275000X0.125000X-0.275000X0.125000X0*%
%ADD17RoundRect,0.100000X-0.300000X-0.100000X0.300000X-0.100000X0.300000X0.100000X-0.300000X0.100000X0*%
%ADD18R,1.400000X1.400000*%
%ADD19C,1.400000*%
%ADD20RoundRect,0.100000X-0.100000X0.637500X-0.100000X-0.637500X0.100000X-0.637500X0.100000X0.637500X0*%
%ADD21RoundRect,0.100000X-0.225000X-0.100000X0.225000X-0.100000X0.225000X0.100000X-0.225000X0.100000X0*%
%ADD22RoundRect,0.250000X0.262500X0.450000X-0.262500X0.450000X-0.262500X-0.450000X0.262500X-0.450000X0*%
%ADD23RoundRect,0.200000X0.275000X-0.200000X0.275000X0.200000X-0.275000X0.200000X-0.275000X-0.200000X0*%
%ADD24RoundRect,0.200000X0.200000X0.275000X-0.200000X0.275000X-0.200000X-0.275000X0.200000X-0.275000X0*%
%ADD25RoundRect,0.200000X-0.200000X-0.275000X0.200000X-0.275000X0.200000X0.275000X-0.200000X0.275000X0*%
%ADD26RoundRect,0.225000X-0.225000X-0.250000X0.225000X-0.250000X0.225000X0.250000X-0.225000X0.250000X0*%
%ADD27R,1.700000X1.700000*%
%ADD28O,1.700000X1.700000*%
%ADD29RoundRect,0.112500X0.237500X-0.112500X0.237500X0.112500X-0.237500X0.112500X-0.237500X-0.112500X0*%
G04 APERTURE END LIST*
D10*
G04 #@! TO.C,REF\u002A\u002A*
X224500000Y-114500000D03*
G04 #@! TD*
G04 #@! TO.C,REF\u002A\u002A*
X255000000Y-114500000D03*
G04 #@! TD*
G04 #@! TO.C,REF\u002A\u002A*
X255000000Y-89500000D03*
G04 #@! TD*
G04 #@! TO.C,REF\u002A\u002A*
X224500000Y-89500000D03*
G04 #@! TD*
D11*
G04 #@! TO.C,R34*
X228900000Y-114425000D03*
X228900000Y-116075000D03*
G04 #@! TD*
D12*
G04 #@! TO.C,D22*
X244800000Y-99850000D03*
X244800000Y-101150000D03*
X246800000Y-100500000D03*
G04 #@! TD*
D13*
G04 #@! TO.C,C12*
X230500000Y-116025000D03*
X230500000Y-114475000D03*
G04 #@! TD*
G04 #@! TO.C,C15*
X232000000Y-111775000D03*
X232000000Y-110225000D03*
G04 #@! TD*
D14*
G04 #@! TO.C,U3*
X228850000Y-105262500D03*
X229500000Y-105262500D03*
X230150000Y-105262500D03*
X230800000Y-105262500D03*
X231450000Y-105262500D03*
X232100000Y-105262500D03*
X232750000Y-105262500D03*
X232750000Y-99537500D03*
X232100000Y-99537500D03*
X231450000Y-99537500D03*
X230800000Y-99537500D03*
X230150000Y-99537500D03*
X229500000Y-99537500D03*
X228850000Y-99537500D03*
G04 #@! TD*
D15*
G04 #@! TO.C,C11*
X229300000Y-89525000D03*
X229300000Y-91075000D03*
G04 #@! TD*
D16*
G04 #@! TO.C,RN16*
X249900000Y-104700000D03*
D17*
X249900000Y-105500000D03*
X249900000Y-106300000D03*
D16*
X249900000Y-107100000D03*
X251700000Y-107100000D03*
D17*
X251700000Y-106300000D03*
X251700000Y-105500000D03*
D16*
X251700000Y-104700000D03*
G04 #@! TD*
D14*
G04 #@! TO.C,U1*
X246050000Y-115662500D03*
X246700000Y-115662500D03*
X247350000Y-115662500D03*
X248000000Y-115662500D03*
X248650000Y-115662500D03*
X249300000Y-115662500D03*
X249950000Y-115662500D03*
X249950000Y-109937500D03*
X249300000Y-109937500D03*
X248650000Y-109937500D03*
X248000000Y-109937500D03*
X247350000Y-109937500D03*
X246700000Y-109937500D03*
X246050000Y-109937500D03*
G04 #@! TD*
D18*
G04 #@! TO.C,D16*
X261500000Y-98500000D03*
D19*
X264040000Y-98500000D03*
G04 #@! TD*
D18*
G04 #@! TO.C,D14*
X261500000Y-103500000D03*
D19*
X264040000Y-103500000D03*
G04 #@! TD*
D20*
G04 #@! TO.C,U11*
X239950000Y-99537500D03*
X239300000Y-99537500D03*
X238650000Y-99537500D03*
X238000000Y-99537500D03*
X237350000Y-99537500D03*
X236700000Y-99537500D03*
X236050000Y-99537500D03*
X236050000Y-105262500D03*
X236700000Y-105262500D03*
X237350000Y-105262500D03*
X238000000Y-105262500D03*
X238650000Y-105262500D03*
X239300000Y-105262500D03*
X239950000Y-105262500D03*
G04 #@! TD*
D21*
G04 #@! TO.C,Q2*
X253850000Y-108850000D03*
X253850000Y-109500000D03*
X253850000Y-110150000D03*
X255750000Y-110150000D03*
X255750000Y-109500000D03*
X255750000Y-108850000D03*
G04 #@! TD*
D12*
G04 #@! TO.C,D20*
X242400000Y-107550000D03*
X242400000Y-108850000D03*
X244400000Y-108200000D03*
G04 #@! TD*
D21*
G04 #@! TO.C,Q10*
X253850000Y-96850000D03*
X253850000Y-97500000D03*
X253850000Y-98150000D03*
X255750000Y-98150000D03*
X255750000Y-97500000D03*
X255750000Y-96850000D03*
G04 #@! TD*
D20*
G04 #@! TO.C,U10*
X237550000Y-107337500D03*
X236900000Y-107337500D03*
X236250000Y-107337500D03*
X235600000Y-107337500D03*
X234950000Y-107337500D03*
X234300000Y-107337500D03*
X233650000Y-107337500D03*
X233650000Y-113062500D03*
X234300000Y-113062500D03*
X234950000Y-113062500D03*
X235600000Y-113062500D03*
X236250000Y-113062500D03*
X236900000Y-113062500D03*
X237550000Y-113062500D03*
G04 #@! TD*
D22*
G04 #@! TO.C,R13*
X259112500Y-103000000D03*
X257287500Y-103000000D03*
G04 #@! TD*
D23*
G04 #@! TO.C,R4*
X232000000Y-108625000D03*
X232000000Y-106975000D03*
G04 #@! TD*
D21*
G04 #@! TO.C,Q8*
X253850000Y-99850000D03*
X253850000Y-100500000D03*
X253850000Y-101150000D03*
X255750000Y-101150000D03*
X255750000Y-100500000D03*
X255750000Y-99850000D03*
G04 #@! TD*
D18*
G04 #@! TO.C,D3*
X261500000Y-116000000D03*
D19*
X264040000Y-116000000D03*
G04 #@! TD*
D13*
G04 #@! TO.C,C13*
X232000000Y-94775000D03*
X232000000Y-93225000D03*
G04 #@! TD*
D11*
G04 #@! TO.C,R2*
X226800000Y-96175000D03*
X226800000Y-97825000D03*
G04 #@! TD*
D18*
G04 #@! TO.C,D25*
X261500000Y-91000000D03*
D19*
X264040000Y-91000000D03*
G04 #@! TD*
D24*
G04 #@! TO.C,R6*
X230525000Y-111500000D03*
X228875000Y-111500000D03*
G04 #@! TD*
D22*
G04 #@! TO.C,R8*
X259112500Y-107000000D03*
X257287500Y-107000000D03*
G04 #@! TD*
D13*
G04 #@! TO.C,C14*
X234400000Y-103175000D03*
X234400000Y-101625000D03*
G04 #@! TD*
D12*
G04 #@! TO.C,D2*
X230000000Y-96450000D03*
X230000000Y-97750000D03*
X232000000Y-97100000D03*
G04 #@! TD*
D18*
G04 #@! TO.C,D4*
X261500000Y-113500000D03*
D19*
X264040000Y-113500000D03*
G04 #@! TD*
D12*
G04 #@! TO.C,D24*
X242400000Y-92150000D03*
X242400000Y-93450000D03*
X244400000Y-92800000D03*
G04 #@! TD*
D22*
G04 #@! TO.C,R10*
X259112500Y-105000000D03*
X257287500Y-105000000D03*
G04 #@! TD*
D16*
G04 #@! TO.C,RN15*
X239100000Y-91600000D03*
D17*
X239100000Y-92400000D03*
X239100000Y-93200000D03*
D16*
X239100000Y-94000000D03*
X240900000Y-94000000D03*
D17*
X240900000Y-93200000D03*
X240900000Y-92400000D03*
D16*
X240900000Y-91600000D03*
G04 #@! TD*
D20*
G04 #@! TO.C,U12*
X237550000Y-91737500D03*
X236900000Y-91737500D03*
X236250000Y-91737500D03*
X235600000Y-91737500D03*
X234950000Y-91737500D03*
X234300000Y-91737500D03*
X233650000Y-91737500D03*
X233650000Y-97462500D03*
X234300000Y-97462500D03*
X234950000Y-97462500D03*
X235600000Y-97462500D03*
X236250000Y-97462500D03*
X236900000Y-97462500D03*
X237550000Y-97462500D03*
G04 #@! TD*
D15*
G04 #@! TO.C,C5*
X227200000Y-99825000D03*
X227200000Y-101375000D03*
G04 #@! TD*
D12*
G04 #@! TO.C,D21*
X244800000Y-103550000D03*
X244800000Y-104850000D03*
X246800000Y-104200000D03*
G04 #@! TD*
D16*
G04 #@! TO.C,RN18*
X249900000Y-97100000D03*
D17*
X249900000Y-97900000D03*
X249900000Y-98700000D03*
D16*
X249900000Y-99500000D03*
X251700000Y-99500000D03*
D17*
X251700000Y-98700000D03*
X251700000Y-97900000D03*
D16*
X251700000Y-97100000D03*
G04 #@! TD*
D22*
G04 #@! TO.C,R30*
X259112500Y-99000000D03*
X257287500Y-99000000D03*
G04 #@! TD*
D25*
G04 #@! TO.C,R5*
X226675000Y-94700000D03*
X228325000Y-94700000D03*
G04 #@! TD*
D21*
G04 #@! TO.C,Q6*
X253850000Y-102850000D03*
X253850000Y-103500000D03*
X253850000Y-104150000D03*
X255750000Y-104150000D03*
X255750000Y-103500000D03*
X255750000Y-102850000D03*
G04 #@! TD*
G04 #@! TO.C,Q4*
X253850000Y-105850000D03*
X253850000Y-106500000D03*
X253850000Y-107150000D03*
X255750000Y-107150000D03*
X255750000Y-106500000D03*
X255750000Y-105850000D03*
G04 #@! TD*
D18*
G04 #@! TO.C,D17*
X261500000Y-96000000D03*
D19*
X264040000Y-96000000D03*
G04 #@! TD*
D26*
G04 #@! TO.C,C7*
X246025000Y-87000000D03*
X247575000Y-87000000D03*
G04 #@! TD*
D12*
G04 #@! TO.C,D23*
X242400000Y-95950000D03*
X242400000Y-97250000D03*
X244400000Y-96600000D03*
G04 #@! TD*
G04 #@! TO.C,D19*
X242400000Y-111350000D03*
X242400000Y-112650000D03*
X244400000Y-112000000D03*
G04 #@! TD*
D18*
G04 #@! TO.C,D13*
X261500000Y-106000000D03*
D19*
X264040000Y-106000000D03*
G04 #@! TD*
D16*
G04 #@! TO.C,RN17*
X249900000Y-100900000D03*
D17*
X249900000Y-101700000D03*
X249900000Y-102500000D03*
D16*
X249900000Y-103300000D03*
X251700000Y-103300000D03*
D17*
X251700000Y-102500000D03*
X251700000Y-101700000D03*
D16*
X251700000Y-100900000D03*
G04 #@! TD*
D18*
G04 #@! TO.C,D6*
X261500000Y-108500000D03*
D19*
X264040000Y-108500000D03*
G04 #@! TD*
D13*
G04 #@! TO.C,C4*
X227200000Y-104675000D03*
X227200000Y-103125000D03*
G04 #@! TD*
D16*
G04 #@! TO.C,RN14*
X239100000Y-95400000D03*
D17*
X239100000Y-96200000D03*
X239100000Y-97000000D03*
D16*
X239100000Y-97800000D03*
X240900000Y-97800000D03*
D17*
X240900000Y-97000000D03*
X240900000Y-96200000D03*
D16*
X240900000Y-95400000D03*
G04 #@! TD*
D22*
G04 #@! TO.C,R15*
X259112500Y-101000000D03*
X257287500Y-101000000D03*
G04 #@! TD*
D25*
G04 #@! TO.C,R1*
X228875000Y-107100000D03*
X230525000Y-107100000D03*
G04 #@! TD*
D18*
G04 #@! TO.C,D18*
X261500000Y-93500000D03*
D19*
X264040000Y-93500000D03*
G04 #@! TD*
D16*
G04 #@! TO.C,RN13*
X241500000Y-99300000D03*
D17*
X241500000Y-100100000D03*
X241500000Y-100900000D03*
D16*
X241500000Y-101700000D03*
X243300000Y-101700000D03*
D17*
X243300000Y-100900000D03*
X243300000Y-100100000D03*
D16*
X243300000Y-99300000D03*
G04 #@! TD*
G04 #@! TO.C,RN10*
X239100000Y-110800000D03*
D17*
X239100000Y-111600000D03*
X239100000Y-112400000D03*
D16*
X239100000Y-113200000D03*
X240900000Y-113200000D03*
D17*
X240900000Y-112400000D03*
X240900000Y-111600000D03*
D16*
X240900000Y-110800000D03*
G04 #@! TD*
G04 #@! TO.C,RN11*
X239100000Y-107000000D03*
D17*
X239100000Y-107800000D03*
X239100000Y-108600000D03*
D16*
X239100000Y-109400000D03*
X240900000Y-109400000D03*
D17*
X240900000Y-108600000D03*
X240900000Y-107800000D03*
D16*
X240900000Y-107000000D03*
G04 #@! TD*
D18*
G04 #@! TO.C,D26*
X261500000Y-88500000D03*
D19*
X264040000Y-88500000D03*
G04 #@! TD*
D27*
G04 #@! TO.C,J1*
X222875000Y-108350000D03*
D28*
X222875000Y-105810000D03*
X222875000Y-103270000D03*
X222875000Y-100730000D03*
X222875000Y-98190000D03*
X222875000Y-95650000D03*
G04 #@! TD*
D11*
G04 #@! TO.C,R3*
X228400000Y-96175000D03*
X228400000Y-97825000D03*
G04 #@! TD*
D16*
G04 #@! TO.C,RN12*
X241500000Y-103100000D03*
D17*
X241500000Y-103900000D03*
X241500000Y-104700000D03*
D16*
X241500000Y-105500000D03*
X243300000Y-105500000D03*
D17*
X243300000Y-104700000D03*
X243300000Y-103900000D03*
D16*
X243300000Y-103100000D03*
G04 #@! TD*
D14*
G04 #@! TO.C,U4*
X246050000Y-94562500D03*
X246700000Y-94562500D03*
X247350000Y-94562500D03*
X248000000Y-94562500D03*
X248650000Y-94562500D03*
X249300000Y-94562500D03*
X249950000Y-94562500D03*
X249950000Y-88837500D03*
X249300000Y-88837500D03*
X248650000Y-88837500D03*
X248000000Y-88837500D03*
X247350000Y-88837500D03*
X246700000Y-88837500D03*
X246050000Y-88837500D03*
G04 #@! TD*
D29*
G04 #@! TO.C,D1*
X230400000Y-109950000D03*
X230400000Y-108650000D03*
X228400000Y-109300000D03*
G04 #@! TD*
D21*
G04 #@! TO.C,Q12*
X253850000Y-93850000D03*
X253850000Y-94500000D03*
X253850000Y-95150000D03*
X255750000Y-95150000D03*
X255750000Y-94500000D03*
X255750000Y-93850000D03*
G04 #@! TD*
D22*
G04 #@! TO.C,R32*
X259112500Y-97000000D03*
X257287500Y-97000000D03*
G04 #@! TD*
D18*
G04 #@! TO.C,D15*
X261500000Y-101000000D03*
D19*
X264040000Y-101000000D03*
G04 #@! TD*
D18*
G04 #@! TO.C,D5*
X261500000Y-111000000D03*
D19*
X264040000Y-111000000D03*
G04 #@! TD*
D13*
G04 #@! TO.C,C2*
X246000000Y-108025000D03*
X246000000Y-106475000D03*
G04 #@! TD*
M02*
