G04 #@! TF.GenerationSoftware,KiCad,Pcbnew,7.0.9-69-ge1c0bddff3*
G04 #@! TF.CreationDate,2024-02-19T10:17:23+01:00*
G04 #@! TF.ProjectId,ASP_Display,4153505f-4469-4737-906c-61792e6b6963,rev?*
G04 #@! TF.SameCoordinates,Original*
G04 #@! TF.FileFunction,Copper,L2,Inr*
G04 #@! TF.FilePolarity,Positive*
%FSLAX46Y46*%
G04 Gerber Fmt 4.6, Leading zero omitted, Abs format (unit mm)*
G04 Created by KiCad (PCBNEW 7.0.9-69-ge1c0bddff3) date 2024-02-19 10:17:23*
%MOMM*%
%LPD*%
G01*
G04 APERTURE LIST*
G04 #@! TA.AperFunction,NonConductor*
%ADD10C,0.200000*%
G04 #@! TD*
%ADD11C,0.300000*%
G04 #@! TA.AperFunction,NonConductor*
%ADD12C,0.300000*%
G04 #@! TD*
G04 #@! TA.AperFunction,ComponentPad*
%ADD13C,5.600000*%
G04 #@! TD*
G04 #@! TA.AperFunction,ComponentPad*
%ADD14R,1.400000X1.400000*%
G04 #@! TD*
G04 #@! TA.AperFunction,ComponentPad*
%ADD15C,1.400000*%
G04 #@! TD*
G04 #@! TA.AperFunction,ComponentPad*
%ADD16R,1.700000X1.700000*%
G04 #@! TD*
G04 #@! TA.AperFunction,ComponentPad*
%ADD17O,1.700000X1.700000*%
G04 #@! TD*
G04 #@! TA.AperFunction,ViaPad*
%ADD18C,0.800000*%
G04 #@! TD*
G04 #@! TA.AperFunction,ViaPad*
%ADD19C,0.400000*%
G04 #@! TD*
G04 #@! TA.AperFunction,Conductor*
%ADD20C,0.700000*%
G04 #@! TD*
G04 #@! TA.AperFunction,Conductor*
%ADD21C,0.400000*%
G04 #@! TD*
G04 #@! TA.AperFunction,Conductor*
%ADD22C,1.000000*%
G04 #@! TD*
G04 #@! TA.AperFunction,Conductor*
%ADD23C,0.500000*%
G04 #@! TD*
G04 #@! TA.AperFunction,Conductor*
%ADD24C,0.800000*%
G04 #@! TD*
G04 #@! TA.AperFunction,Conductor*
%ADD25C,0.600000*%
G04 #@! TD*
G04 APERTURE END LIST*
D10*
X241500000Y-115000000D02*
X244500000Y-115000000D01*
X244500000Y-118000000D01*
X241500000Y-118000000D01*
X241500000Y-115000000D01*
X232500000Y-115000000D02*
X235500000Y-115000000D01*
X235500000Y-118000000D01*
X232500000Y-118000000D01*
X232500000Y-115000000D01*
X238500000Y-115000000D02*
X241500000Y-115000000D01*
X241500000Y-118000000D01*
X238500000Y-118000000D01*
X238500000Y-115000000D01*
X235500000Y-115000000D02*
X238500000Y-115000000D01*
X238500000Y-118000000D01*
X235500000Y-118000000D01*
X235500000Y-115000000D01*
D11*
D12*
X236571429Y-115821185D02*
X236642857Y-115749757D01*
X236642857Y-115749757D02*
X236785715Y-115678328D01*
X236785715Y-115678328D02*
X237142857Y-115678328D01*
X237142857Y-115678328D02*
X237285715Y-115749757D01*
X237285715Y-115749757D02*
X237357143Y-115821185D01*
X237357143Y-115821185D02*
X237428572Y-115964042D01*
X237428572Y-115964042D02*
X237428572Y-116106900D01*
X237428572Y-116106900D02*
X237357143Y-116321185D01*
X237357143Y-116321185D02*
X236500000Y-117178328D01*
X236500000Y-117178328D02*
X237428572Y-117178328D01*
D13*
G04 #@! TO.N,GND*
G04 #@! TO.C,REF\u002A\u002A*
X224500000Y-114500000D03*
G04 #@! TD*
G04 #@! TO.N,GND*
G04 #@! TO.C,REF\u002A\u002A*
X255000000Y-114500000D03*
G04 #@! TD*
G04 #@! TO.N,GND*
G04 #@! TO.C,REF\u002A\u002A*
X255000000Y-89500000D03*
G04 #@! TD*
G04 #@! TO.N,GND*
G04 #@! TO.C,REF\u002A\u002A*
X224500000Y-89500000D03*
G04 #@! TD*
D14*
G04 #@! TO.N,Net-(D16-K)*
G04 #@! TO.C,D16*
X261500000Y-98500000D03*
D15*
G04 #@! TO.N,+5V*
X264040000Y-98500000D03*
G04 #@! TD*
D14*
G04 #@! TO.N,Net-(D14-K)*
G04 #@! TO.C,D14*
X261500000Y-103500000D03*
D15*
G04 #@! TO.N,+5V*
X264040000Y-103500000D03*
G04 #@! TD*
D14*
G04 #@! TO.N,Net-(D3-K)*
G04 #@! TO.C,D3*
X261500000Y-116000000D03*
D15*
G04 #@! TO.N,+5V*
X264040000Y-116000000D03*
G04 #@! TD*
D14*
G04 #@! TO.N,Net-(D25-K)*
G04 #@! TO.C,D25*
X261500000Y-91000000D03*
D15*
G04 #@! TO.N,+5V*
X264040000Y-91000000D03*
G04 #@! TD*
D14*
G04 #@! TO.N,Net-(D4-K)*
G04 #@! TO.C,D4*
X261500000Y-113500000D03*
D15*
G04 #@! TO.N,+5V*
X264040000Y-113500000D03*
G04 #@! TD*
D14*
G04 #@! TO.N,Net-(D17-K)*
G04 #@! TO.C,D17*
X261500000Y-96000000D03*
D15*
G04 #@! TO.N,+5V*
X264040000Y-96000000D03*
G04 #@! TD*
D14*
G04 #@! TO.N,Net-(D13-K)*
G04 #@! TO.C,D13*
X261500000Y-106000000D03*
D15*
G04 #@! TO.N,+5V*
X264040000Y-106000000D03*
G04 #@! TD*
D14*
G04 #@! TO.N,Net-(D6-K)*
G04 #@! TO.C,D6*
X261500000Y-108500000D03*
D15*
G04 #@! TO.N,+5V*
X264040000Y-108500000D03*
G04 #@! TD*
D14*
G04 #@! TO.N,Net-(D18-K)*
G04 #@! TO.C,D18*
X261500000Y-93500000D03*
D15*
G04 #@! TO.N,+5V*
X264040000Y-93500000D03*
G04 #@! TD*
D14*
G04 #@! TO.N,Net-(D26-K)*
G04 #@! TO.C,D26*
X261500000Y-88500000D03*
D15*
G04 #@! TO.N,+5V*
X264040000Y-88500000D03*
G04 #@! TD*
D16*
G04 #@! TO.N,Net-(J1-Pin_1)*
G04 #@! TO.C,J1*
X222875000Y-108350000D03*
D17*
G04 #@! TO.N,GND*
X222875000Y-105810000D03*
G04 #@! TO.N,unconnected-(J1-Pin_3-Pad3)*
X222875000Y-103270000D03*
G04 #@! TO.N,VCC*
X222875000Y-100730000D03*
G04 #@! TO.N,VEE*
X222875000Y-98190000D03*
G04 #@! TO.N,+5V*
X222875000Y-95650000D03*
G04 #@! TD*
D14*
G04 #@! TO.N,Net-(D15-K)*
G04 #@! TO.C,D15*
X261500000Y-101000000D03*
D15*
G04 #@! TO.N,+5V*
X264040000Y-101000000D03*
G04 #@! TD*
D14*
G04 #@! TO.N,Net-(D5-K)*
G04 #@! TO.C,D5*
X261500000Y-111000000D03*
D15*
G04 #@! TO.N,+5V*
X264040000Y-111000000D03*
G04 #@! TD*
D18*
G04 #@! TO.N,GND*
X229699660Y-117777658D03*
D19*
X234216069Y-86533931D03*
D18*
X230471000Y-87903739D03*
G04 #@! TO.N,+5V*
X243700000Y-95700000D03*
D19*
X240600000Y-101400000D03*
D18*
X240000000Y-103900000D03*
X244293040Y-101921542D03*
X244600000Y-86700000D03*
D19*
X246700000Y-105750000D03*
D18*
X236400000Y-109500000D03*
X237700000Y-87100000D03*
D19*
X247200000Y-105650000D03*
D18*
X244274507Y-102786344D03*
X243300000Y-114300500D03*
X242016737Y-98169761D03*
G04 #@! TO.N,GND*
X249700000Y-90900000D03*
X243291656Y-96799500D03*
X249800000Y-113800000D03*
X225300000Y-99100000D03*
X245300000Y-93000000D03*
X248600000Y-86800000D03*
X245900000Y-105600000D03*
X241900000Y-89300000D03*
X255000000Y-105100000D03*
X255100000Y-96100000D03*
X252300000Y-110500000D03*
X257000000Y-93800000D03*
X254904270Y-99095730D03*
X255200000Y-101900000D03*
X241900000Y-106400000D03*
X243500000Y-111100000D03*
X246158431Y-102425500D03*
D19*
X247200000Y-108700000D03*
D18*
X239900000Y-114200000D03*
X255000000Y-108000000D03*
D19*
X246700000Y-108700000D03*
G04 #@! TO.N,VCC*
X236600000Y-102900000D03*
D18*
X232704008Y-113724228D03*
X230813381Y-104011554D03*
X236300000Y-108500000D03*
D19*
X236600000Y-103400000D03*
D18*
X230500000Y-101300000D03*
X236000000Y-90400000D03*
D19*
X234700000Y-100800000D03*
D18*
X235045177Y-110839879D03*
X231700000Y-92000000D03*
D19*
X234200000Y-100800000D03*
D18*
X232900000Y-110200000D03*
D19*
G04 #@! TO.N,VEE*
X238400000Y-104000000D03*
X235400000Y-99500000D03*
D18*
X231354807Y-113167487D03*
X227300000Y-110200000D03*
X230500000Y-93500000D03*
D19*
X231100000Y-97800000D03*
X236600000Y-95800000D03*
X235450500Y-99000000D03*
X234300000Y-104100000D03*
X231100000Y-98300000D03*
X238000000Y-103700000D03*
D18*
X236440110Y-114299817D03*
D19*
X236600000Y-96300000D03*
D18*
X235629227Y-86850713D03*
D19*
X234800000Y-104100000D03*
G04 #@! TO.N,Net-(D7-K2)*
X243850500Y-107000000D03*
X245450500Y-109900000D03*
X245450500Y-108931024D03*
G04 #@! TO.N,Net-(D8-K2)*
X239100000Y-104048537D03*
X243511991Y-97904861D03*
G04 #@! TO.N,Net-(D9-K2)*
X245800000Y-100200000D03*
X246696743Y-99505536D03*
G04 #@! TO.N,Net-(D11-K2)*
X245099500Y-88146512D03*
X240100000Y-88600000D03*
X248700000Y-93000000D03*
X246700000Y-91700000D03*
G04 #@! TO.N,/S.1*
X251424011Y-107812845D03*
G04 #@! TO.N,/F.2*
X252564477Y-106935523D03*
G04 #@! TO.N,/S.3*
X252646575Y-108225297D03*
G04 #@! TO.N,/F.4*
X252460623Y-105202716D03*
G04 #@! TO.N,/S.5*
X252700000Y-104025500D03*
G04 #@! TO.N,/F.6*
X252499089Y-102948982D03*
G04 #@! TO.N,/S.7*
X252700000Y-102000000D03*
G04 #@! TO.N,/F.8*
X252688013Y-100683033D03*
G04 #@! TO.N,/S.9*
X251800000Y-100149500D03*
G04 #@! TO.N,/F.10*
X252728031Y-98547956D03*
G04 #@! TO.N,/S.11*
X252519865Y-97460155D03*
G04 #@! TO.N,/F.12*
X252174500Y-96450500D03*
G04 #@! TO.N,Net-(U3D--)*
X230814477Y-96614477D03*
G04 #@! TO.N,Net-(U10A--)*
X236602582Y-101771918D03*
X236553307Y-100683534D03*
G04 #@! TO.N,Net-(U10C-+)*
X231500000Y-115049500D03*
X232846059Y-107653941D03*
G04 #@! TO.N,Net-(U10D-+)*
X235600000Y-114300000D03*
X235600000Y-109000000D03*
G04 #@! TO.N,Net-(U10A-+)*
X233731418Y-109146099D03*
G04 #@! TO.N,Net-(U10B-+)*
X234200000Y-108700000D03*
X234200000Y-110050000D03*
G04 #@! TO.N,Net-(U11C-+)*
X233347496Y-103910399D03*
G04 #@! TO.N,Net-(U11D-+)*
X235016468Y-105153506D03*
X237383731Y-103785605D03*
X235566804Y-103389609D03*
X235299500Y-100851157D03*
X230326758Y-102807554D03*
G04 #@! TO.N,Net-(U12C-+)*
X230657597Y-94614489D03*
G04 #@! TO.N,Net-(U12D-+)*
X235814405Y-92861222D03*
G04 #@! TO.N,Net-(RN1-R4.1)*
X246497286Y-112123074D03*
X248873522Y-105700000D03*
G04 #@! TO.N,Net-(U11A-+)*
X232000000Y-101100000D03*
X230753616Y-102163007D03*
G04 #@! TO.N,Net-(U11B-+)*
X234048575Y-99700000D03*
X232700000Y-100900000D03*
X232498522Y-97700775D03*
G04 #@! TO.N,Net-(U12A-+)*
X232030886Y-91100500D03*
G04 #@! TO.N,Net-(U12B-+)*
X233300000Y-93099500D03*
X232314794Y-90572485D03*
G04 #@! TD*
D20*
G04 #@! TO.N,VCC*
X229900000Y-114300000D02*
X226145000Y-110545000D01*
X232128236Y-114300000D02*
X229900000Y-114300000D01*
X232704008Y-113724228D02*
X232128236Y-114300000D01*
X226145000Y-110545000D02*
X226145000Y-104000000D01*
D21*
G04 #@! TO.N,+5V*
X247200000Y-105650000D02*
X246800000Y-105650000D01*
D22*
X247200000Y-105100000D02*
X247200000Y-105650000D01*
X222875000Y-95650000D02*
X225650000Y-95650000D01*
X242016737Y-101726788D02*
X240000000Y-103743525D01*
X242016737Y-98169761D02*
X242016737Y-101726788D01*
X264040000Y-103500000D02*
X264040000Y-106000000D01*
X257600000Y-95000000D02*
X259600000Y-93000000D01*
X237600000Y-109500000D02*
X236900000Y-109500000D01*
D21*
X246700000Y-105750000D02*
X247100000Y-105750000D01*
D23*
X241689949Y-101400000D02*
X242016737Y-101726788D01*
D22*
X243700000Y-95700000D02*
X242200000Y-95700000D01*
X248300000Y-89000000D02*
X248300000Y-91300000D01*
X264040000Y-113500000D02*
X264040000Y-116000000D01*
X264040000Y-88500000D02*
X264040000Y-91000000D01*
X244274507Y-102786344D02*
X244886344Y-102786344D01*
X238499500Y-109500000D02*
X243199980Y-114200480D01*
X248300000Y-91300000D02*
X249200000Y-92200000D01*
X264040000Y-98500000D02*
X264040000Y-101000000D01*
X241700000Y-96200000D02*
X241700000Y-97853024D01*
X264040000Y-106000000D02*
X264040000Y-108500000D01*
X253800000Y-95000000D02*
X257600000Y-95000000D01*
D24*
X236900000Y-109500000D02*
X236400000Y-109500000D01*
D22*
X264100000Y-87100000D02*
X264040000Y-87160000D01*
X244200000Y-87100000D02*
X244200000Y-95200000D01*
X264040000Y-93500000D02*
X264040000Y-96000000D01*
X237600000Y-109500000D02*
X240000000Y-107100000D01*
X264040000Y-101000000D02*
X264040000Y-103500000D01*
X259600000Y-87400000D02*
X260600000Y-86400000D01*
X244200000Y-87100000D02*
X244600000Y-86700000D01*
X260600000Y-86400000D02*
X263400000Y-86400000D01*
X264040000Y-96000000D02*
X264040000Y-98500000D01*
X240000000Y-103743525D02*
X240000000Y-103900000D01*
X225650000Y-95650000D02*
X232900000Y-88400000D01*
X244600000Y-86700000D02*
X246000000Y-86700000D01*
X264040000Y-87160000D02*
X264040000Y-88500000D01*
X237600000Y-109500000D02*
X238499500Y-109500000D01*
X242016737Y-101726788D02*
X244098286Y-101726788D01*
X244098286Y-101726788D02*
X244293040Y-101921542D01*
X236400000Y-88400000D02*
X237700000Y-87100000D01*
X259600000Y-93000000D02*
X259600000Y-87400000D01*
X264040000Y-111000000D02*
X264040000Y-113500000D01*
X241700000Y-97853024D02*
X242016737Y-98169761D01*
D21*
X247100000Y-105750000D02*
X247200000Y-105650000D01*
D22*
X244293040Y-102767811D02*
X244274507Y-102786344D01*
X232900000Y-88400000D02*
X236400000Y-88400000D01*
X263400000Y-86400000D02*
X264100000Y-87100000D01*
X246000000Y-86700000D02*
X248300000Y-89000000D01*
X244886344Y-102786344D02*
X247200000Y-105100000D01*
X240000000Y-107100000D02*
X240000000Y-103900000D01*
X264040000Y-108500000D02*
X264040000Y-111000000D01*
X264040000Y-91000000D02*
X264040000Y-93500000D01*
X244293040Y-101921542D02*
X244293040Y-102767811D01*
X237700000Y-87100000D02*
X244200000Y-87100000D01*
X251000000Y-92200000D02*
X253800000Y-95000000D01*
X244200000Y-95200000D02*
X243700000Y-95700000D01*
X249200000Y-92200000D02*
X251000000Y-92200000D01*
X242200000Y-95700000D02*
X241700000Y-96200000D01*
D23*
X240600000Y-101400000D02*
X241689949Y-101400000D01*
D21*
X246800000Y-105650000D02*
X246700000Y-105750000D01*
D22*
G04 #@! TO.N,VCC*
X226145000Y-104000000D02*
X228900000Y-104000000D01*
X230500000Y-101300000D02*
X230000000Y-101300000D01*
D24*
X235700000Y-102000000D02*
X234900000Y-102000000D01*
X234500000Y-100900000D02*
X234400000Y-100800000D01*
X234885056Y-111000000D02*
X233700000Y-111000000D01*
D22*
X222875000Y-100730000D02*
X226145000Y-104000000D01*
D24*
X233700000Y-111000000D02*
X232900000Y-110200000D01*
D22*
X228900000Y-104000000D02*
X230801827Y-104000000D01*
D24*
X231800000Y-100000000D02*
X230500000Y-101300000D01*
D22*
X234400000Y-92000000D02*
X231700000Y-92000000D01*
D24*
X236600000Y-102900000D02*
X235700000Y-102000000D01*
D25*
X235500000Y-107700000D02*
X233900000Y-107700000D01*
D24*
X235045177Y-110839879D02*
X234885056Y-111000000D01*
X234200000Y-100800000D02*
X233800000Y-100800000D01*
X236600000Y-103400000D02*
X236600000Y-102900000D01*
X233800000Y-100800000D02*
X233000000Y-100000000D01*
D22*
X230000000Y-101300000D02*
X228900000Y-102400000D01*
D24*
X234500000Y-101600000D02*
X234500000Y-100900000D01*
D22*
X230801827Y-104000000D02*
X230813381Y-104011554D01*
D24*
X233000000Y-100000000D02*
X231800000Y-100000000D01*
D25*
X233900000Y-107700000D02*
X232900000Y-108700000D01*
D22*
X236000000Y-90400000D02*
X234400000Y-92000000D01*
D24*
X234900000Y-102000000D02*
X234500000Y-101600000D01*
D22*
X228900000Y-102400000D02*
X228900000Y-104000000D01*
D25*
X232900000Y-108700000D02*
X232900000Y-110200000D01*
D24*
X234400000Y-100800000D02*
X234200000Y-100800000D01*
D25*
X236300000Y-108500000D02*
X235500000Y-107700000D01*
D22*
G04 #@! TO.N,VEE*
X234300000Y-104400000D02*
X234300000Y-104100000D01*
X235400000Y-99500000D02*
X235400000Y-99050500D01*
X235400000Y-99500000D02*
X237200000Y-99500000D01*
X232100000Y-105400000D02*
X233300000Y-105400000D01*
X231100000Y-97800000D02*
X231100000Y-98300000D01*
D24*
X235200000Y-104100000D02*
X235800000Y-104700000D01*
D22*
X231800000Y-93500000D02*
X234100000Y-95800000D01*
X237200000Y-99500000D02*
X238300000Y-100600000D01*
D24*
X236440110Y-114299817D02*
X236440110Y-113740110D01*
X235800000Y-104700000D02*
X237600000Y-104700000D01*
D22*
X235400000Y-99050500D02*
X235450500Y-99000000D01*
X222875000Y-98190000D02*
X223810000Y-98190000D01*
D24*
X237600000Y-104700000D02*
X238200000Y-104100000D01*
D22*
X229000000Y-95000000D02*
X229000000Y-97600000D01*
X233300000Y-105400000D02*
X234300000Y-104400000D01*
X236600000Y-95800000D02*
X236600000Y-96300000D01*
X230900000Y-97600000D02*
X231100000Y-97800000D01*
D24*
X232322294Y-112200000D02*
X231354807Y-113167487D01*
D22*
X223810000Y-98190000D02*
X224400000Y-97600000D01*
X235450500Y-99000000D02*
X234100000Y-97649500D01*
X234300000Y-104100000D02*
X234800000Y-104100000D01*
X229000000Y-97600000D02*
X230900000Y-97600000D01*
X227300000Y-110200000D02*
X232100000Y-105400000D01*
X224400000Y-97600000D02*
X229000000Y-97600000D01*
X238300000Y-100600000D02*
X238300000Y-103600000D01*
D24*
X234800000Y-104100000D02*
X235200000Y-104100000D01*
X236440110Y-113740110D02*
X234900000Y-112200000D01*
X234900000Y-112200000D02*
X232322294Y-112200000D01*
D22*
X234100000Y-95800000D02*
X236600000Y-95800000D01*
X231354807Y-113167487D02*
X230267487Y-113167487D01*
X234100000Y-97649500D02*
X234100000Y-95800000D01*
X230500000Y-93500000D02*
X229000000Y-95000000D01*
X230500000Y-93500000D02*
X231800000Y-93500000D01*
X230267487Y-113167487D02*
X227300000Y-110200000D01*
G04 #@! TD*
M02*
