G04 #@! TF.GenerationSoftware,KiCad,Pcbnew,7.0.9-69-ge1c0bddff3*
G04 #@! TF.CreationDate,2024-02-19T10:17:23+01:00*
G04 #@! TF.ProjectId,ASP_Display,4153505f-4469-4737-906c-61792e6b6963,rev?*
G04 #@! TF.SameCoordinates,Original*
G04 #@! TF.FileFunction,Legend,Top*
G04 #@! TF.FilePolarity,Positive*
%FSLAX46Y46*%
G04 Gerber Fmt 4.6, Leading zero omitted, Abs format (unit mm)*
G04 Created by KiCad (PCBNEW 7.0.9-69-ge1c0bddff3) date 2024-02-19 10:17:23*
%MOMM*%
%LPD*%
G01*
G04 APERTURE LIST*
G04 Aperture macros list*
%AMRoundRect*
0 Rectangle with rounded corners*
0 $1 Rounding radius*
0 $2 $3 $4 $5 $6 $7 $8 $9 X,Y pos of 4 corners*
0 Add a 4 corners polygon primitive as box body*
4,1,4,$2,$3,$4,$5,$6,$7,$8,$9,$2,$3,0*
0 Add four circle primitives for the rounded corners*
1,1,$1+$1,$2,$3*
1,1,$1+$1,$4,$5*
1,1,$1+$1,$6,$7*
1,1,$1+$1,$8,$9*
0 Add four rect primitives between the rounded corners*
20,1,$1+$1,$2,$3,$4,$5,0*
20,1,$1+$1,$4,$5,$6,$7,0*
20,1,$1+$1,$6,$7,$8,$9,0*
20,1,$1+$1,$8,$9,$2,$3,0*%
G04 Aperture macros list end*
%ADD10C,0.300000*%
%ADD11C,0.153000*%
%ADD12C,0.150000*%
%ADD13C,0.120000*%
%ADD14C,0.200000*%
%ADD15C,5.600000*%
%ADD16RoundRect,0.200000X-0.275000X0.200000X-0.275000X-0.200000X0.275000X-0.200000X0.275000X0.200000X0*%
%ADD17RoundRect,0.112500X-0.237500X0.112500X-0.237500X-0.112500X0.237500X-0.112500X0.237500X0.112500X0*%
%ADD18RoundRect,0.225000X0.250000X-0.225000X0.250000X0.225000X-0.250000X0.225000X-0.250000X-0.225000X0*%
%ADD19RoundRect,0.100000X0.100000X-0.637500X0.100000X0.637500X-0.100000X0.637500X-0.100000X-0.637500X0*%
%ADD20RoundRect,0.225000X-0.250000X0.225000X-0.250000X-0.225000X0.250000X-0.225000X0.250000X0.225000X0*%
%ADD21RoundRect,0.125000X-0.275000X-0.125000X0.275000X-0.125000X0.275000X0.125000X-0.275000X0.125000X0*%
%ADD22RoundRect,0.100000X-0.300000X-0.100000X0.300000X-0.100000X0.300000X0.100000X-0.300000X0.100000X0*%
%ADD23R,1.400000X1.400000*%
%ADD24C,1.400000*%
%ADD25RoundRect,0.100000X-0.100000X0.637500X-0.100000X-0.637500X0.100000X-0.637500X0.100000X0.637500X0*%
%ADD26RoundRect,0.100000X-0.225000X-0.100000X0.225000X-0.100000X0.225000X0.100000X-0.225000X0.100000X0*%
%ADD27RoundRect,0.250000X0.262500X0.450000X-0.262500X0.450000X-0.262500X-0.450000X0.262500X-0.450000X0*%
%ADD28RoundRect,0.200000X0.275000X-0.200000X0.275000X0.200000X-0.275000X0.200000X-0.275000X-0.200000X0*%
%ADD29RoundRect,0.200000X0.200000X0.275000X-0.200000X0.275000X-0.200000X-0.275000X0.200000X-0.275000X0*%
%ADD30RoundRect,0.200000X-0.200000X-0.275000X0.200000X-0.275000X0.200000X0.275000X-0.200000X0.275000X0*%
%ADD31RoundRect,0.225000X-0.225000X-0.250000X0.225000X-0.250000X0.225000X0.250000X-0.225000X0.250000X0*%
%ADD32R,1.700000X1.700000*%
%ADD33O,1.700000X1.700000*%
%ADD34RoundRect,0.112500X0.237500X-0.112500X0.237500X0.112500X-0.237500X0.112500X-0.237500X-0.112500X0*%
G04 APERTURE END LIST*
D10*
X258200000Y-92900000D02*
X258200000Y-95200000D01*
X258200000Y-108650000D02*
X258200000Y-110950000D01*
D11*
X258200000Y-111150000D02*
X257400000Y-110350000D01*
X259000000Y-110350000D01*
X258200000Y-111150000D01*
G36*
X258200000Y-111150000D02*
G01*
X257400000Y-110350000D01*
X259000000Y-110350000D01*
X258200000Y-111150000D01*
G37*
X258200000Y-95400000D02*
X257400000Y-94600000D01*
X259000000Y-94600000D01*
X258200000Y-95400000D01*
G36*
X258200000Y-95400000D02*
G01*
X257400000Y-94600000D01*
X259000000Y-94600000D01*
X258200000Y-95400000D01*
G37*
X235776191Y-90154663D02*
X235776191Y-89154663D01*
X235776191Y-89154663D02*
X236014286Y-89154663D01*
X236014286Y-89154663D02*
X236157143Y-89202282D01*
X236157143Y-89202282D02*
X236252381Y-89297520D01*
X236252381Y-89297520D02*
X236300000Y-89392758D01*
X236300000Y-89392758D02*
X236347619Y-89583234D01*
X236347619Y-89583234D02*
X236347619Y-89726091D01*
X236347619Y-89726091D02*
X236300000Y-89916567D01*
X236300000Y-89916567D02*
X236252381Y-90011805D01*
X236252381Y-90011805D02*
X236157143Y-90107044D01*
X236157143Y-90107044D02*
X236014286Y-90154663D01*
X236014286Y-90154663D02*
X235776191Y-90154663D01*
X236728572Y-89868948D02*
X237204762Y-89868948D01*
X236633334Y-90154663D02*
X236966667Y-89154663D01*
X236966667Y-89154663D02*
X237300000Y-90154663D01*
X237538096Y-89154663D02*
X237776191Y-90154663D01*
X237776191Y-90154663D02*
X237966667Y-89440377D01*
X237966667Y-89440377D02*
X238157143Y-90154663D01*
X238157143Y-90154663D02*
X238395239Y-89154663D01*
X238776191Y-90154663D02*
X238776191Y-89154663D01*
X239252381Y-90154663D02*
X239252381Y-89154663D01*
X239252381Y-89154663D02*
X239490476Y-89154663D01*
X239490476Y-89154663D02*
X239633333Y-89202282D01*
X239633333Y-89202282D02*
X239728571Y-89297520D01*
X239728571Y-89297520D02*
X239776190Y-89392758D01*
X239776190Y-89392758D02*
X239823809Y-89583234D01*
X239823809Y-89583234D02*
X239823809Y-89726091D01*
X239823809Y-89726091D02*
X239776190Y-89916567D01*
X239776190Y-89916567D02*
X239728571Y-90011805D01*
X239728571Y-90011805D02*
X239633333Y-90107044D01*
X239633333Y-90107044D02*
X239490476Y-90154663D01*
X239490476Y-90154663D02*
X239252381Y-90154663D01*
X241585714Y-90059424D02*
X241538095Y-90107044D01*
X241538095Y-90107044D02*
X241395238Y-90154663D01*
X241395238Y-90154663D02*
X241300000Y-90154663D01*
X241300000Y-90154663D02*
X241157143Y-90107044D01*
X241157143Y-90107044D02*
X241061905Y-90011805D01*
X241061905Y-90011805D02*
X241014286Y-89916567D01*
X241014286Y-89916567D02*
X240966667Y-89726091D01*
X240966667Y-89726091D02*
X240966667Y-89583234D01*
X240966667Y-89583234D02*
X241014286Y-89392758D01*
X241014286Y-89392758D02*
X241061905Y-89297520D01*
X241061905Y-89297520D02*
X241157143Y-89202282D01*
X241157143Y-89202282D02*
X241300000Y-89154663D01*
X241300000Y-89154663D02*
X241395238Y-89154663D01*
X241395238Y-89154663D02*
X241538095Y-89202282D01*
X241538095Y-89202282D02*
X241585714Y-89249901D01*
X242014286Y-90154663D02*
X242014286Y-89154663D01*
X242442857Y-90107044D02*
X242585714Y-90154663D01*
X242585714Y-90154663D02*
X242823809Y-90154663D01*
X242823809Y-90154663D02*
X242919047Y-90107044D01*
X242919047Y-90107044D02*
X242966666Y-90059424D01*
X242966666Y-90059424D02*
X243014285Y-89964186D01*
X243014285Y-89964186D02*
X243014285Y-89868948D01*
X243014285Y-89868948D02*
X242966666Y-89773710D01*
X242966666Y-89773710D02*
X242919047Y-89726091D01*
X242919047Y-89726091D02*
X242823809Y-89678472D01*
X242823809Y-89678472D02*
X242633333Y-89630853D01*
X242633333Y-89630853D02*
X242538095Y-89583234D01*
X242538095Y-89583234D02*
X242490476Y-89535615D01*
X242490476Y-89535615D02*
X242442857Y-89440377D01*
X242442857Y-89440377D02*
X242442857Y-89345139D01*
X242442857Y-89345139D02*
X242490476Y-89249901D01*
X242490476Y-89249901D02*
X242538095Y-89202282D01*
X242538095Y-89202282D02*
X242633333Y-89154663D01*
X242633333Y-89154663D02*
X242871428Y-89154663D01*
X242871428Y-89154663D02*
X243014285Y-89202282D01*
X243919047Y-90154663D02*
X243442857Y-90154663D01*
X243442857Y-90154663D02*
X243442857Y-89154663D01*
X243300000Y-89678472D02*
X243585714Y-89487996D01*
X244442857Y-89154663D02*
X244633333Y-89154663D01*
X244633333Y-89154663D02*
X244728571Y-89202282D01*
X244728571Y-89202282D02*
X244823809Y-89297520D01*
X244823809Y-89297520D02*
X244871428Y-89487996D01*
X244871428Y-89487996D02*
X244871428Y-89821329D01*
X244871428Y-89821329D02*
X244823809Y-90011805D01*
X244823809Y-90011805D02*
X244728571Y-90107044D01*
X244728571Y-90107044D02*
X244633333Y-90154663D01*
X244633333Y-90154663D02*
X244442857Y-90154663D01*
X244442857Y-90154663D02*
X244347619Y-90107044D01*
X244347619Y-90107044D02*
X244252381Y-90011805D01*
X244252381Y-90011805D02*
X244204762Y-89821329D01*
X244204762Y-89821329D02*
X244204762Y-89487996D01*
X244204762Y-89487996D02*
X244252381Y-89297520D01*
X244252381Y-89297520D02*
X244347619Y-89202282D01*
X244347619Y-89202282D02*
X244442857Y-89154663D01*
X235776190Y-88654663D02*
X235776190Y-87654663D01*
X235776190Y-87654663D02*
X236014285Y-87654663D01*
X236014285Y-87654663D02*
X236157142Y-87702282D01*
X236157142Y-87702282D02*
X236252380Y-87797520D01*
X236252380Y-87797520D02*
X236299999Y-87892758D01*
X236299999Y-87892758D02*
X236347618Y-88083234D01*
X236347618Y-88083234D02*
X236347618Y-88226091D01*
X236347618Y-88226091D02*
X236299999Y-88416567D01*
X236299999Y-88416567D02*
X236252380Y-88511805D01*
X236252380Y-88511805D02*
X236157142Y-88607044D01*
X236157142Y-88607044D02*
X236014285Y-88654663D01*
X236014285Y-88654663D02*
X235776190Y-88654663D01*
X236776190Y-88654663D02*
X236776190Y-87654663D01*
X237204761Y-88607044D02*
X237347618Y-88654663D01*
X237347618Y-88654663D02*
X237585713Y-88654663D01*
X237585713Y-88654663D02*
X237680951Y-88607044D01*
X237680951Y-88607044D02*
X237728570Y-88559424D01*
X237728570Y-88559424D02*
X237776189Y-88464186D01*
X237776189Y-88464186D02*
X237776189Y-88368948D01*
X237776189Y-88368948D02*
X237728570Y-88273710D01*
X237728570Y-88273710D02*
X237680951Y-88226091D01*
X237680951Y-88226091D02*
X237585713Y-88178472D01*
X237585713Y-88178472D02*
X237395237Y-88130853D01*
X237395237Y-88130853D02*
X237299999Y-88083234D01*
X237299999Y-88083234D02*
X237252380Y-88035615D01*
X237252380Y-88035615D02*
X237204761Y-87940377D01*
X237204761Y-87940377D02*
X237204761Y-87845139D01*
X237204761Y-87845139D02*
X237252380Y-87749901D01*
X237252380Y-87749901D02*
X237299999Y-87702282D01*
X237299999Y-87702282D02*
X237395237Y-87654663D01*
X237395237Y-87654663D02*
X237633332Y-87654663D01*
X237633332Y-87654663D02*
X237776189Y-87702282D01*
X238204761Y-88654663D02*
X238204761Y-87654663D01*
X238204761Y-87654663D02*
X238585713Y-87654663D01*
X238585713Y-87654663D02*
X238680951Y-87702282D01*
X238680951Y-87702282D02*
X238728570Y-87749901D01*
X238728570Y-87749901D02*
X238776189Y-87845139D01*
X238776189Y-87845139D02*
X238776189Y-87987996D01*
X238776189Y-87987996D02*
X238728570Y-88083234D01*
X238728570Y-88083234D02*
X238680951Y-88130853D01*
X238680951Y-88130853D02*
X238585713Y-88178472D01*
X238585713Y-88178472D02*
X238204761Y-88178472D01*
X239680951Y-88654663D02*
X239204761Y-88654663D01*
X239204761Y-88654663D02*
X239204761Y-87654663D01*
X239966666Y-88368948D02*
X240442856Y-88368948D01*
X239871428Y-88654663D02*
X240204761Y-87654663D01*
X240204761Y-87654663D02*
X240538094Y-88654663D01*
X241061904Y-88178472D02*
X241061904Y-88654663D01*
X240728571Y-87654663D02*
X241061904Y-88178472D01*
X241061904Y-88178472D02*
X241395237Y-87654663D01*
X242347619Y-87654663D02*
X242680952Y-88654663D01*
X242680952Y-88654663D02*
X243014285Y-87654663D01*
X243300000Y-87749901D02*
X243347619Y-87702282D01*
X243347619Y-87702282D02*
X243442857Y-87654663D01*
X243442857Y-87654663D02*
X243680952Y-87654663D01*
X243680952Y-87654663D02*
X243776190Y-87702282D01*
X243776190Y-87702282D02*
X243823809Y-87749901D01*
X243823809Y-87749901D02*
X243871428Y-87845139D01*
X243871428Y-87845139D02*
X243871428Y-87940377D01*
X243871428Y-87940377D02*
X243823809Y-88083234D01*
X243823809Y-88083234D02*
X243252381Y-88654663D01*
X243252381Y-88654663D02*
X243871428Y-88654663D01*
X228409524Y-86868948D02*
X228885714Y-86868948D01*
X228314286Y-87154663D02*
X228647619Y-86154663D01*
X228647619Y-86154663D02*
X228980952Y-87154663D01*
X229314286Y-86154663D02*
X229314286Y-86964186D01*
X229314286Y-86964186D02*
X229361905Y-87059424D01*
X229361905Y-87059424D02*
X229409524Y-87107044D01*
X229409524Y-87107044D02*
X229504762Y-87154663D01*
X229504762Y-87154663D02*
X229695238Y-87154663D01*
X229695238Y-87154663D02*
X229790476Y-87107044D01*
X229790476Y-87107044D02*
X229838095Y-87059424D01*
X229838095Y-87059424D02*
X229885714Y-86964186D01*
X229885714Y-86964186D02*
X229885714Y-86154663D01*
X230361905Y-87154663D02*
X230361905Y-86154663D01*
X230361905Y-86154663D02*
X230600000Y-86154663D01*
X230600000Y-86154663D02*
X230742857Y-86202282D01*
X230742857Y-86202282D02*
X230838095Y-86297520D01*
X230838095Y-86297520D02*
X230885714Y-86392758D01*
X230885714Y-86392758D02*
X230933333Y-86583234D01*
X230933333Y-86583234D02*
X230933333Y-86726091D01*
X230933333Y-86726091D02*
X230885714Y-86916567D01*
X230885714Y-86916567D02*
X230838095Y-87011805D01*
X230838095Y-87011805D02*
X230742857Y-87107044D01*
X230742857Y-87107044D02*
X230600000Y-87154663D01*
X230600000Y-87154663D02*
X230361905Y-87154663D01*
X231361905Y-87154663D02*
X231361905Y-86154663D01*
X232028571Y-86154663D02*
X232219047Y-86154663D01*
X232219047Y-86154663D02*
X232314285Y-86202282D01*
X232314285Y-86202282D02*
X232409523Y-86297520D01*
X232409523Y-86297520D02*
X232457142Y-86487996D01*
X232457142Y-86487996D02*
X232457142Y-86821329D01*
X232457142Y-86821329D02*
X232409523Y-87011805D01*
X232409523Y-87011805D02*
X232314285Y-87107044D01*
X232314285Y-87107044D02*
X232219047Y-87154663D01*
X232219047Y-87154663D02*
X232028571Y-87154663D01*
X232028571Y-87154663D02*
X231933333Y-87107044D01*
X231933333Y-87107044D02*
X231838095Y-87011805D01*
X231838095Y-87011805D02*
X231790476Y-86821329D01*
X231790476Y-86821329D02*
X231790476Y-86487996D01*
X231790476Y-86487996D02*
X231838095Y-86297520D01*
X231838095Y-86297520D02*
X231933333Y-86202282D01*
X231933333Y-86202282D02*
X232028571Y-86154663D01*
X233600000Y-87107044D02*
X233742857Y-87154663D01*
X233742857Y-87154663D02*
X233980952Y-87154663D01*
X233980952Y-87154663D02*
X234076190Y-87107044D01*
X234076190Y-87107044D02*
X234123809Y-87059424D01*
X234123809Y-87059424D02*
X234171428Y-86964186D01*
X234171428Y-86964186D02*
X234171428Y-86868948D01*
X234171428Y-86868948D02*
X234123809Y-86773710D01*
X234123809Y-86773710D02*
X234076190Y-86726091D01*
X234076190Y-86726091D02*
X233980952Y-86678472D01*
X233980952Y-86678472D02*
X233790476Y-86630853D01*
X233790476Y-86630853D02*
X233695238Y-86583234D01*
X233695238Y-86583234D02*
X233647619Y-86535615D01*
X233647619Y-86535615D02*
X233600000Y-86440377D01*
X233600000Y-86440377D02*
X233600000Y-86345139D01*
X233600000Y-86345139D02*
X233647619Y-86249901D01*
X233647619Y-86249901D02*
X233695238Y-86202282D01*
X233695238Y-86202282D02*
X233790476Y-86154663D01*
X233790476Y-86154663D02*
X234028571Y-86154663D01*
X234028571Y-86154663D02*
X234171428Y-86202282D01*
X234600000Y-87154663D02*
X234600000Y-86154663D01*
X234600000Y-86154663D02*
X234980952Y-86154663D01*
X234980952Y-86154663D02*
X235076190Y-86202282D01*
X235076190Y-86202282D02*
X235123809Y-86249901D01*
X235123809Y-86249901D02*
X235171428Y-86345139D01*
X235171428Y-86345139D02*
X235171428Y-86487996D01*
X235171428Y-86487996D02*
X235123809Y-86583234D01*
X235123809Y-86583234D02*
X235076190Y-86630853D01*
X235076190Y-86630853D02*
X234980952Y-86678472D01*
X234980952Y-86678472D02*
X234600000Y-86678472D01*
X235600000Y-86630853D02*
X235933333Y-86630853D01*
X236076190Y-87154663D02*
X235600000Y-87154663D01*
X235600000Y-87154663D02*
X235600000Y-86154663D01*
X235600000Y-86154663D02*
X236076190Y-86154663D01*
X237076190Y-87059424D02*
X237028571Y-87107044D01*
X237028571Y-87107044D02*
X236885714Y-87154663D01*
X236885714Y-87154663D02*
X236790476Y-87154663D01*
X236790476Y-87154663D02*
X236647619Y-87107044D01*
X236647619Y-87107044D02*
X236552381Y-87011805D01*
X236552381Y-87011805D02*
X236504762Y-86916567D01*
X236504762Y-86916567D02*
X236457143Y-86726091D01*
X236457143Y-86726091D02*
X236457143Y-86583234D01*
X236457143Y-86583234D02*
X236504762Y-86392758D01*
X236504762Y-86392758D02*
X236552381Y-86297520D01*
X236552381Y-86297520D02*
X236647619Y-86202282D01*
X236647619Y-86202282D02*
X236790476Y-86154663D01*
X236790476Y-86154663D02*
X236885714Y-86154663D01*
X236885714Y-86154663D02*
X237028571Y-86202282D01*
X237028571Y-86202282D02*
X237076190Y-86249901D01*
X237361905Y-86154663D02*
X237933333Y-86154663D01*
X237647619Y-87154663D02*
X237647619Y-86154663D01*
X238838095Y-87154663D02*
X238504762Y-86678472D01*
X238266667Y-87154663D02*
X238266667Y-86154663D01*
X238266667Y-86154663D02*
X238647619Y-86154663D01*
X238647619Y-86154663D02*
X238742857Y-86202282D01*
X238742857Y-86202282D02*
X238790476Y-86249901D01*
X238790476Y-86249901D02*
X238838095Y-86345139D01*
X238838095Y-86345139D02*
X238838095Y-86487996D01*
X238838095Y-86487996D02*
X238790476Y-86583234D01*
X238790476Y-86583234D02*
X238742857Y-86630853D01*
X238742857Y-86630853D02*
X238647619Y-86678472D01*
X238647619Y-86678472D02*
X238266667Y-86678472D01*
X239457143Y-86154663D02*
X239647619Y-86154663D01*
X239647619Y-86154663D02*
X239742857Y-86202282D01*
X239742857Y-86202282D02*
X239838095Y-86297520D01*
X239838095Y-86297520D02*
X239885714Y-86487996D01*
X239885714Y-86487996D02*
X239885714Y-86821329D01*
X239885714Y-86821329D02*
X239838095Y-87011805D01*
X239838095Y-87011805D02*
X239742857Y-87107044D01*
X239742857Y-87107044D02*
X239647619Y-87154663D01*
X239647619Y-87154663D02*
X239457143Y-87154663D01*
X239457143Y-87154663D02*
X239361905Y-87107044D01*
X239361905Y-87107044D02*
X239266667Y-87011805D01*
X239266667Y-87011805D02*
X239219048Y-86821329D01*
X239219048Y-86821329D02*
X239219048Y-86487996D01*
X239219048Y-86487996D02*
X239266667Y-86297520D01*
X239266667Y-86297520D02*
X239361905Y-86202282D01*
X239361905Y-86202282D02*
X239457143Y-86154663D01*
X240266667Y-87107044D02*
X240409524Y-87154663D01*
X240409524Y-87154663D02*
X240647619Y-87154663D01*
X240647619Y-87154663D02*
X240742857Y-87107044D01*
X240742857Y-87107044D02*
X240790476Y-87059424D01*
X240790476Y-87059424D02*
X240838095Y-86964186D01*
X240838095Y-86964186D02*
X240838095Y-86868948D01*
X240838095Y-86868948D02*
X240790476Y-86773710D01*
X240790476Y-86773710D02*
X240742857Y-86726091D01*
X240742857Y-86726091D02*
X240647619Y-86678472D01*
X240647619Y-86678472D02*
X240457143Y-86630853D01*
X240457143Y-86630853D02*
X240361905Y-86583234D01*
X240361905Y-86583234D02*
X240314286Y-86535615D01*
X240314286Y-86535615D02*
X240266667Y-86440377D01*
X240266667Y-86440377D02*
X240266667Y-86345139D01*
X240266667Y-86345139D02*
X240314286Y-86249901D01*
X240314286Y-86249901D02*
X240361905Y-86202282D01*
X240361905Y-86202282D02*
X240457143Y-86154663D01*
X240457143Y-86154663D02*
X240695238Y-86154663D01*
X240695238Y-86154663D02*
X240838095Y-86202282D01*
X241838095Y-87059424D02*
X241790476Y-87107044D01*
X241790476Y-87107044D02*
X241647619Y-87154663D01*
X241647619Y-87154663D02*
X241552381Y-87154663D01*
X241552381Y-87154663D02*
X241409524Y-87107044D01*
X241409524Y-87107044D02*
X241314286Y-87011805D01*
X241314286Y-87011805D02*
X241266667Y-86916567D01*
X241266667Y-86916567D02*
X241219048Y-86726091D01*
X241219048Y-86726091D02*
X241219048Y-86583234D01*
X241219048Y-86583234D02*
X241266667Y-86392758D01*
X241266667Y-86392758D02*
X241314286Y-86297520D01*
X241314286Y-86297520D02*
X241409524Y-86202282D01*
X241409524Y-86202282D02*
X241552381Y-86154663D01*
X241552381Y-86154663D02*
X241647619Y-86154663D01*
X241647619Y-86154663D02*
X241790476Y-86202282D01*
X241790476Y-86202282D02*
X241838095Y-86249901D01*
X242457143Y-86154663D02*
X242647619Y-86154663D01*
X242647619Y-86154663D02*
X242742857Y-86202282D01*
X242742857Y-86202282D02*
X242838095Y-86297520D01*
X242838095Y-86297520D02*
X242885714Y-86487996D01*
X242885714Y-86487996D02*
X242885714Y-86821329D01*
X242885714Y-86821329D02*
X242838095Y-87011805D01*
X242838095Y-87011805D02*
X242742857Y-87107044D01*
X242742857Y-87107044D02*
X242647619Y-87154663D01*
X242647619Y-87154663D02*
X242457143Y-87154663D01*
X242457143Y-87154663D02*
X242361905Y-87107044D01*
X242361905Y-87107044D02*
X242266667Y-87011805D01*
X242266667Y-87011805D02*
X242219048Y-86821329D01*
X242219048Y-86821329D02*
X242219048Y-86487996D01*
X242219048Y-86487996D02*
X242266667Y-86297520D01*
X242266667Y-86297520D02*
X242361905Y-86202282D01*
X242361905Y-86202282D02*
X242457143Y-86154663D01*
X243314286Y-87154663D02*
X243314286Y-86154663D01*
X243314286Y-86154663D02*
X243695238Y-86154663D01*
X243695238Y-86154663D02*
X243790476Y-86202282D01*
X243790476Y-86202282D02*
X243838095Y-86249901D01*
X243838095Y-86249901D02*
X243885714Y-86345139D01*
X243885714Y-86345139D02*
X243885714Y-86487996D01*
X243885714Y-86487996D02*
X243838095Y-86583234D01*
X243838095Y-86583234D02*
X243790476Y-86630853D01*
X243790476Y-86630853D02*
X243695238Y-86678472D01*
X243695238Y-86678472D02*
X243314286Y-86678472D01*
X244314286Y-86630853D02*
X244647619Y-86630853D01*
X244790476Y-87154663D02*
X244314286Y-87154663D01*
X244314286Y-87154663D02*
X244314286Y-86154663D01*
X244314286Y-86154663D02*
X244790476Y-86154663D01*
D12*
X230038095Y-101854819D02*
X230038095Y-102664342D01*
X230038095Y-102664342D02*
X230085714Y-102759580D01*
X230085714Y-102759580D02*
X230133333Y-102807200D01*
X230133333Y-102807200D02*
X230228571Y-102854819D01*
X230228571Y-102854819D02*
X230419047Y-102854819D01*
X230419047Y-102854819D02*
X230514285Y-102807200D01*
X230514285Y-102807200D02*
X230561904Y-102759580D01*
X230561904Y-102759580D02*
X230609523Y-102664342D01*
X230609523Y-102664342D02*
X230609523Y-101854819D01*
X230990476Y-101854819D02*
X231609523Y-101854819D01*
X231609523Y-101854819D02*
X231276190Y-102235771D01*
X231276190Y-102235771D02*
X231419047Y-102235771D01*
X231419047Y-102235771D02*
X231514285Y-102283390D01*
X231514285Y-102283390D02*
X231561904Y-102331009D01*
X231561904Y-102331009D02*
X231609523Y-102426247D01*
X231609523Y-102426247D02*
X231609523Y-102664342D01*
X231609523Y-102664342D02*
X231561904Y-102759580D01*
X231561904Y-102759580D02*
X231514285Y-102807200D01*
X231514285Y-102807200D02*
X231419047Y-102854819D01*
X231419047Y-102854819D02*
X231133333Y-102854819D01*
X231133333Y-102854819D02*
X231038095Y-102807200D01*
X231038095Y-102807200D02*
X230990476Y-102759580D01*
X247238095Y-112254819D02*
X247238095Y-113064342D01*
X247238095Y-113064342D02*
X247285714Y-113159580D01*
X247285714Y-113159580D02*
X247333333Y-113207200D01*
X247333333Y-113207200D02*
X247428571Y-113254819D01*
X247428571Y-113254819D02*
X247619047Y-113254819D01*
X247619047Y-113254819D02*
X247714285Y-113207200D01*
X247714285Y-113207200D02*
X247761904Y-113159580D01*
X247761904Y-113159580D02*
X247809523Y-113064342D01*
X247809523Y-113064342D02*
X247809523Y-112254819D01*
X248809523Y-113254819D02*
X248238095Y-113254819D01*
X248523809Y-113254819D02*
X248523809Y-112254819D01*
X248523809Y-112254819D02*
X248428571Y-112397676D01*
X248428571Y-112397676D02*
X248333333Y-112492914D01*
X248333333Y-112492914D02*
X248238095Y-112540533D01*
X237061905Y-101854819D02*
X237061905Y-102664342D01*
X237061905Y-102664342D02*
X237109524Y-102759580D01*
X237109524Y-102759580D02*
X237157143Y-102807200D01*
X237157143Y-102807200D02*
X237252381Y-102854819D01*
X237252381Y-102854819D02*
X237442857Y-102854819D01*
X237442857Y-102854819D02*
X237538095Y-102807200D01*
X237538095Y-102807200D02*
X237585714Y-102759580D01*
X237585714Y-102759580D02*
X237633333Y-102664342D01*
X237633333Y-102664342D02*
X237633333Y-101854819D01*
X238633333Y-102854819D02*
X238061905Y-102854819D01*
X238347619Y-102854819D02*
X238347619Y-101854819D01*
X238347619Y-101854819D02*
X238252381Y-101997676D01*
X238252381Y-101997676D02*
X238157143Y-102092914D01*
X238157143Y-102092914D02*
X238061905Y-102140533D01*
X239585714Y-102854819D02*
X239014286Y-102854819D01*
X239300000Y-102854819D02*
X239300000Y-101854819D01*
X239300000Y-101854819D02*
X239204762Y-101997676D01*
X239204762Y-101997676D02*
X239109524Y-102092914D01*
X239109524Y-102092914D02*
X239014286Y-102140533D01*
X234361905Y-109654819D02*
X234361905Y-110464342D01*
X234361905Y-110464342D02*
X234409524Y-110559580D01*
X234409524Y-110559580D02*
X234457143Y-110607200D01*
X234457143Y-110607200D02*
X234552381Y-110654819D01*
X234552381Y-110654819D02*
X234742857Y-110654819D01*
X234742857Y-110654819D02*
X234838095Y-110607200D01*
X234838095Y-110607200D02*
X234885714Y-110559580D01*
X234885714Y-110559580D02*
X234933333Y-110464342D01*
X234933333Y-110464342D02*
X234933333Y-109654819D01*
X235933333Y-110654819D02*
X235361905Y-110654819D01*
X235647619Y-110654819D02*
X235647619Y-109654819D01*
X235647619Y-109654819D02*
X235552381Y-109797676D01*
X235552381Y-109797676D02*
X235457143Y-109892914D01*
X235457143Y-109892914D02*
X235361905Y-109940533D01*
X236552381Y-109654819D02*
X236647619Y-109654819D01*
X236647619Y-109654819D02*
X236742857Y-109702438D01*
X236742857Y-109702438D02*
X236790476Y-109750057D01*
X236790476Y-109750057D02*
X236838095Y-109845295D01*
X236838095Y-109845295D02*
X236885714Y-110035771D01*
X236885714Y-110035771D02*
X236885714Y-110273866D01*
X236885714Y-110273866D02*
X236838095Y-110464342D01*
X236838095Y-110464342D02*
X236790476Y-110559580D01*
X236790476Y-110559580D02*
X236742857Y-110607200D01*
X236742857Y-110607200D02*
X236647619Y-110654819D01*
X236647619Y-110654819D02*
X236552381Y-110654819D01*
X236552381Y-110654819D02*
X236457143Y-110607200D01*
X236457143Y-110607200D02*
X236409524Y-110559580D01*
X236409524Y-110559580D02*
X236361905Y-110464342D01*
X236361905Y-110464342D02*
X236314286Y-110273866D01*
X236314286Y-110273866D02*
X236314286Y-110035771D01*
X236314286Y-110035771D02*
X236361905Y-109845295D01*
X236361905Y-109845295D02*
X236409524Y-109750057D01*
X236409524Y-109750057D02*
X236457143Y-109702438D01*
X236457143Y-109702438D02*
X236552381Y-109654819D01*
X234361905Y-94054819D02*
X234361905Y-94864342D01*
X234361905Y-94864342D02*
X234409524Y-94959580D01*
X234409524Y-94959580D02*
X234457143Y-95007200D01*
X234457143Y-95007200D02*
X234552381Y-95054819D01*
X234552381Y-95054819D02*
X234742857Y-95054819D01*
X234742857Y-95054819D02*
X234838095Y-95007200D01*
X234838095Y-95007200D02*
X234885714Y-94959580D01*
X234885714Y-94959580D02*
X234933333Y-94864342D01*
X234933333Y-94864342D02*
X234933333Y-94054819D01*
X235933333Y-95054819D02*
X235361905Y-95054819D01*
X235647619Y-95054819D02*
X235647619Y-94054819D01*
X235647619Y-94054819D02*
X235552381Y-94197676D01*
X235552381Y-94197676D02*
X235457143Y-94292914D01*
X235457143Y-94292914D02*
X235361905Y-94340533D01*
X236314286Y-94150057D02*
X236361905Y-94102438D01*
X236361905Y-94102438D02*
X236457143Y-94054819D01*
X236457143Y-94054819D02*
X236695238Y-94054819D01*
X236695238Y-94054819D02*
X236790476Y-94102438D01*
X236790476Y-94102438D02*
X236838095Y-94150057D01*
X236838095Y-94150057D02*
X236885714Y-94245295D01*
X236885714Y-94245295D02*
X236885714Y-94340533D01*
X236885714Y-94340533D02*
X236838095Y-94483390D01*
X236838095Y-94483390D02*
X236266667Y-95054819D01*
X236266667Y-95054819D02*
X236885714Y-95054819D01*
X221966666Y-110254819D02*
X221966666Y-110969104D01*
X221966666Y-110969104D02*
X221919047Y-111111961D01*
X221919047Y-111111961D02*
X221823809Y-111207200D01*
X221823809Y-111207200D02*
X221680952Y-111254819D01*
X221680952Y-111254819D02*
X221585714Y-111254819D01*
X222966666Y-111254819D02*
X222395238Y-111254819D01*
X222680952Y-111254819D02*
X222680952Y-110254819D01*
X222680952Y-110254819D02*
X222585714Y-110397676D01*
X222585714Y-110397676D02*
X222490476Y-110492914D01*
X222490476Y-110492914D02*
X222395238Y-110540533D01*
X247438095Y-91154819D02*
X247438095Y-91964342D01*
X247438095Y-91964342D02*
X247485714Y-92059580D01*
X247485714Y-92059580D02*
X247533333Y-92107200D01*
X247533333Y-92107200D02*
X247628571Y-92154819D01*
X247628571Y-92154819D02*
X247819047Y-92154819D01*
X247819047Y-92154819D02*
X247914285Y-92107200D01*
X247914285Y-92107200D02*
X247961904Y-92059580D01*
X247961904Y-92059580D02*
X248009523Y-91964342D01*
X248009523Y-91964342D02*
X248009523Y-91154819D01*
X248914285Y-91488152D02*
X248914285Y-92154819D01*
X248676190Y-91107200D02*
X248438095Y-91821485D01*
X248438095Y-91821485D02*
X249057142Y-91821485D01*
D13*
G04 #@! TO.C,R34*
X228100000Y-113750000D02*
X228100000Y-116750000D01*
X229700000Y-113750000D02*
X228100000Y-113750000D01*
X229700000Y-116750000D02*
X229700000Y-113750000D01*
X228100000Y-116750000D02*
X229700000Y-116750000D01*
G04 #@! TO.C,D22*
X244000000Y-101900000D02*
X247600000Y-101900000D01*
X244000000Y-99100000D02*
X244000000Y-101900000D01*
X247600000Y-99100000D02*
X244000000Y-99100000D01*
X247600000Y-101900000D02*
X247600000Y-99100000D01*
G04 #@! TO.C,C12*
X231300002Y-116550000D02*
X231300000Y-113950000D01*
X229699998Y-113950000D02*
X229700000Y-116550000D01*
X231299999Y-113950001D02*
G75*
G03*
X229699999Y-113950001I-800000J-840223D01*
G01*
X229700001Y-116549999D02*
G75*
G03*
X231300001Y-116549999I800000J840223D01*
G01*
G04 #@! TO.C,C15*
X231199998Y-109700000D02*
X231200000Y-112300000D01*
X232800002Y-112300000D02*
X232800000Y-109700000D01*
X232799999Y-109700001D02*
G75*
G03*
X231199999Y-109700001I-800000J-840223D01*
G01*
X231200001Y-112299999D02*
G75*
G03*
X232800001Y-112299999I800000J840223D01*
G01*
G04 #@! TO.C,U3*
X228000000Y-98500000D02*
X228000000Y-105700000D01*
X228600000Y-106300000D02*
X233600000Y-106300000D01*
X233600000Y-98500000D02*
X228000000Y-98500000D01*
X233600000Y-106300000D02*
X233600000Y-98500000D01*
D10*
X228263500Y-106100000D02*
G75*
G03*
X228263500Y-106100000I-63500J0D01*
G01*
D13*
G04 #@! TO.C,C11*
X230100002Y-91600000D02*
X230100000Y-89000000D01*
X228499998Y-89000000D02*
X228500000Y-91600000D01*
X230099999Y-89000001D02*
G75*
G03*
X228499999Y-89000001I-800000J-840223D01*
G01*
X228500001Y-91599999D02*
G75*
G03*
X230100001Y-91599999I800000J840223D01*
G01*
G04 #@! TO.C,RN16*
X252400000Y-105900000D02*
X252273000Y-105900000D01*
X252273000Y-105125300D02*
X252387300Y-105125300D01*
X249200000Y-105900000D02*
X249327000Y-105900000D01*
X249200000Y-104000000D02*
X252400000Y-104000000D01*
X249327000Y-106674700D02*
X249212700Y-106674700D01*
X252400000Y-104000000D02*
X252400000Y-107800000D01*
X252400000Y-107800000D02*
X249200000Y-107800000D01*
X249200000Y-107800000D02*
X249200000Y-104000000D01*
X252273000Y-106674700D02*
X252387300Y-106674700D01*
X249327000Y-105125300D02*
X249212700Y-105125300D01*
G04 #@! TO.C,U1*
X250800000Y-108900000D02*
X245200000Y-108900000D01*
X250800000Y-116700000D02*
X250800000Y-108900000D01*
X245800000Y-116700000D02*
X250800000Y-116700000D01*
X245200000Y-108900000D02*
X245200000Y-116100000D01*
D10*
X245463500Y-116500000D02*
G75*
G03*
X245463500Y-116500000I-63500J0D01*
G01*
D13*
G04 #@! TO.C,D16*
X264770000Y-97440000D02*
X265330000Y-97440000D01*
X260420000Y-99560000D02*
X263311000Y-99560000D01*
X262580000Y-97440000D02*
X264770000Y-97440000D01*
X263024000Y-97992000D02*
X263024000Y-97611000D01*
X262947800Y-98500000D02*
X262643000Y-98500000D01*
X263024000Y-97611000D02*
X262897000Y-97738000D01*
X262897000Y-97738000D02*
X263151000Y-97738000D01*
X262643000Y-97738000D02*
X262516000Y-97611000D01*
X260210000Y-97440000D02*
X262580000Y-97440000D01*
X262643000Y-98195200D02*
X262643000Y-98804800D01*
X265330000Y-97440000D02*
X265330000Y-99560000D01*
X262516000Y-97611000D02*
X262389000Y-97738000D01*
X263311000Y-99560000D02*
X265330000Y-99560000D01*
X260210000Y-97440000D02*
X260210000Y-99560000D01*
X263151000Y-97738000D02*
X263024000Y-97611000D01*
X262516000Y-97992000D02*
X262516000Y-97611000D01*
X262389000Y-97738000D02*
X262643000Y-97738000D01*
X260210000Y-99560000D02*
X260420000Y-99560000D01*
X262947800Y-98804800D02*
X262643000Y-98500000D01*
X262947800Y-98195200D01*
X262947800Y-98804800D01*
G36*
X262947800Y-98804800D02*
G01*
X262643000Y-98500000D01*
X262947800Y-98195200D01*
X262947800Y-98804800D01*
G37*
G04 #@! TO.C,D14*
X260210000Y-104560000D02*
X260420000Y-104560000D01*
X260210000Y-102440000D02*
X262580000Y-102440000D01*
X262947800Y-103500000D02*
X262643000Y-103500000D01*
X262516000Y-102992000D02*
X262516000Y-102611000D01*
X265330000Y-102440000D02*
X265330000Y-104560000D01*
X260420000Y-104560000D02*
X263311000Y-104560000D01*
X263024000Y-102611000D02*
X262897000Y-102738000D01*
X262516000Y-102611000D02*
X262389000Y-102738000D01*
X263024000Y-102992000D02*
X263024000Y-102611000D01*
X263311000Y-104560000D02*
X265330000Y-104560000D01*
X260210000Y-102440000D02*
X260210000Y-104560000D01*
X262643000Y-102738000D02*
X262516000Y-102611000D01*
X264770000Y-102440000D02*
X265330000Y-102440000D01*
X262897000Y-102738000D02*
X263151000Y-102738000D01*
X263151000Y-102738000D02*
X263024000Y-102611000D01*
X262389000Y-102738000D02*
X262643000Y-102738000D01*
X262580000Y-102440000D02*
X264770000Y-102440000D01*
X262643000Y-103195200D02*
X262643000Y-103804800D01*
X262947800Y-103804800D02*
X262643000Y-103500000D01*
X262947800Y-103195200D01*
X262947800Y-103804800D01*
G36*
X262947800Y-103804800D02*
G01*
X262643000Y-103500000D01*
X262947800Y-103195200D01*
X262947800Y-103804800D01*
G37*
G04 #@! TO.C,U11*
X240800000Y-106300000D02*
X240800000Y-99100000D01*
X235200000Y-98500000D02*
X235200000Y-106300000D01*
X235200000Y-106300000D02*
X240800000Y-106300000D01*
X240200000Y-98500000D02*
X235200000Y-98500000D01*
D10*
X240663500Y-98700000D02*
G75*
G03*
X240663500Y-98700000I-63500J0D01*
G01*
D13*
G04 #@! TO.C,Q2*
X253100000Y-108600000D02*
X253100000Y-111000000D01*
X253100000Y-111000000D02*
X256500000Y-111000000D01*
X256500000Y-108000000D02*
X253700000Y-108000000D01*
X256500000Y-111000000D02*
X256500000Y-108000000D01*
D14*
X253363500Y-108200000D02*
G75*
G03*
X253363500Y-108200000I-63500J0D01*
G01*
D13*
G04 #@! TO.C,D20*
X241600000Y-109600000D02*
X245200000Y-109600000D01*
X241600000Y-106800000D02*
X241600000Y-109600000D01*
X245200000Y-106800000D02*
X241600000Y-106800000D01*
X245200000Y-109600000D02*
X245200000Y-106800000D01*
G04 #@! TO.C,Q10*
X256500000Y-96000000D02*
X253700000Y-96000000D01*
X253100000Y-96600000D02*
X253100000Y-99000000D01*
X253100000Y-99000000D02*
X256500000Y-99000000D01*
X256500000Y-99000000D02*
X256500000Y-96000000D01*
D14*
X253363500Y-96200000D02*
G75*
G03*
X253363500Y-96200000I-63500J0D01*
G01*
D13*
G04 #@! TO.C,U10*
X238400000Y-114100000D02*
X238400000Y-106900000D01*
X232800000Y-114100000D02*
X238400000Y-114100000D01*
X237800000Y-106300000D02*
X232800000Y-106300000D01*
X232800000Y-106300000D02*
X232800000Y-114100000D01*
D10*
X238263500Y-106500000D02*
G75*
G03*
X238263500Y-106500000I-63500J0D01*
G01*
D13*
G04 #@! TO.C,R13*
X256500000Y-104000000D02*
X259900000Y-104000000D01*
X256500000Y-102000000D02*
X256500000Y-104000000D01*
X259900000Y-102000000D02*
X256500000Y-102000000D01*
X259900000Y-104000000D02*
X259900000Y-102000000D01*
G04 #@! TO.C,R4*
X231200000Y-106300000D02*
X231200000Y-109300000D01*
X232800000Y-106300000D02*
X231200000Y-106300000D01*
X231200000Y-109300000D02*
X232800000Y-109300000D01*
X232800000Y-109300000D02*
X232800000Y-106300000D01*
G04 #@! TO.C,Q8*
X253100000Y-102000000D02*
X256500000Y-102000000D01*
X256500000Y-99000000D02*
X253700000Y-99000000D01*
X253100000Y-99600000D02*
X253100000Y-102000000D01*
X256500000Y-102000000D02*
X256500000Y-99000000D01*
D14*
X253363500Y-99200000D02*
G75*
G03*
X253363500Y-99200000I-63500J0D01*
G01*
D13*
G04 #@! TO.C,D3*
X262643000Y-115238000D02*
X262516000Y-115111000D01*
X262516000Y-115492000D02*
X262516000Y-115111000D01*
X262516000Y-115111000D02*
X262389000Y-115238000D01*
X262580000Y-114940000D02*
X264770000Y-114940000D01*
X263024000Y-115492000D02*
X263024000Y-115111000D01*
X262389000Y-115238000D02*
X262643000Y-115238000D01*
X262897000Y-115238000D02*
X263151000Y-115238000D01*
X265330000Y-114940000D02*
X265330000Y-117060000D01*
X260210000Y-114940000D02*
X262580000Y-114940000D01*
X263024000Y-115111000D02*
X262897000Y-115238000D01*
X260210000Y-114940000D02*
X260210000Y-117060000D01*
X264770000Y-114940000D02*
X265330000Y-114940000D01*
X260420000Y-117060000D02*
X263311000Y-117060000D01*
X262643000Y-115695200D02*
X262643000Y-116304800D01*
X263311000Y-117060000D02*
X265330000Y-117060000D01*
X263151000Y-115238000D02*
X263024000Y-115111000D01*
X262947800Y-116000000D02*
X262643000Y-116000000D01*
X260210000Y-117060000D02*
X260420000Y-117060000D01*
X262947800Y-116304800D02*
X262643000Y-116000000D01*
X262947800Y-115695200D01*
X262947800Y-116304800D01*
G36*
X262947800Y-116304800D02*
G01*
X262643000Y-116000000D01*
X262947800Y-115695200D01*
X262947800Y-116304800D01*
G37*
G04 #@! TO.C,C13*
X232800002Y-95300000D02*
X232800000Y-92700000D01*
X231199998Y-92700000D02*
X231200000Y-95300000D01*
X232799999Y-92700001D02*
G75*
G03*
X231199999Y-92700001I-800000J-840223D01*
G01*
X231200001Y-95299999D02*
G75*
G03*
X232800001Y-95299999I800000J840223D01*
G01*
G04 #@! TO.C,R2*
X226000000Y-95500000D02*
X226000000Y-98500000D01*
X226000000Y-98500000D02*
X227600000Y-98500000D01*
X227600000Y-95500000D02*
X226000000Y-95500000D01*
X227600000Y-98500000D02*
X227600000Y-95500000D01*
G04 #@! TO.C,D25*
X263151000Y-90238000D02*
X263024000Y-90111000D01*
X263024000Y-90111000D02*
X262897000Y-90238000D01*
X263311000Y-92060000D02*
X265330000Y-92060000D01*
X260420000Y-92060000D02*
X263311000Y-92060000D01*
X260210000Y-89940000D02*
X260210000Y-92060000D01*
X262643000Y-90238000D02*
X262516000Y-90111000D01*
X264770000Y-89940000D02*
X265330000Y-89940000D01*
X262643000Y-90695200D02*
X262643000Y-91304800D01*
X260210000Y-89940000D02*
X262580000Y-89940000D01*
X262947800Y-91000000D02*
X262643000Y-91000000D01*
X260210000Y-92060000D02*
X260420000Y-92060000D01*
X262897000Y-90238000D02*
X263151000Y-90238000D01*
X265330000Y-89940000D02*
X265330000Y-92060000D01*
X262516000Y-90111000D02*
X262389000Y-90238000D01*
X262389000Y-90238000D02*
X262643000Y-90238000D01*
X262580000Y-89940000D02*
X264770000Y-89940000D01*
X263024000Y-90492000D02*
X263024000Y-90111000D01*
X262516000Y-90492000D02*
X262516000Y-90111000D01*
X262947800Y-91304800D02*
X262643000Y-91000000D01*
X262947800Y-90695200D01*
X262947800Y-91304800D01*
G36*
X262947800Y-91304800D02*
G01*
X262643000Y-91000000D01*
X262947800Y-90695200D01*
X262947800Y-91304800D01*
G37*
G04 #@! TO.C,R6*
X228200000Y-112300000D02*
X231200000Y-112300000D01*
X231200000Y-110700000D02*
X228200000Y-110700000D01*
X231200000Y-112300000D02*
X231200000Y-110700000D01*
X228200000Y-110700000D02*
X228200000Y-112300000D01*
G04 #@! TO.C,R8*
X259900000Y-106000000D02*
X256500000Y-106000000D01*
X256500000Y-108000000D02*
X259900000Y-108000000D01*
X259900000Y-108000000D02*
X259900000Y-106000000D01*
X256500000Y-106000000D02*
X256500000Y-108000000D01*
G04 #@! TO.C,C14*
X233599998Y-101100000D02*
X233600000Y-103700000D01*
X235200002Y-103700000D02*
X235200000Y-101100000D01*
X235199999Y-101100001D02*
G75*
G03*
X233599999Y-101100001I-800000J-840223D01*
G01*
X233600001Y-103699999D02*
G75*
G03*
X235200001Y-103699999I800000J840223D01*
G01*
G04 #@! TO.C,D2*
X232800000Y-95700000D02*
X229200000Y-95700000D01*
X229200000Y-95700000D02*
X229200000Y-98500000D01*
X229200000Y-98500000D02*
X232800000Y-98500000D01*
X232800000Y-98500000D02*
X232800000Y-95700000D01*
G04 #@! TO.C,D4*
X260420000Y-114560000D02*
X263311000Y-114560000D01*
X263024000Y-112611000D02*
X262897000Y-112738000D01*
X262897000Y-112738000D02*
X263151000Y-112738000D01*
X263311000Y-114560000D02*
X265330000Y-114560000D01*
X263024000Y-112992000D02*
X263024000Y-112611000D01*
X260210000Y-114560000D02*
X260420000Y-114560000D01*
X262389000Y-112738000D02*
X262643000Y-112738000D01*
X262516000Y-112992000D02*
X262516000Y-112611000D01*
X265330000Y-112440000D02*
X265330000Y-114560000D01*
X260210000Y-112440000D02*
X260210000Y-114560000D01*
X262580000Y-112440000D02*
X264770000Y-112440000D01*
X262643000Y-112738000D02*
X262516000Y-112611000D01*
X262516000Y-112611000D02*
X262389000Y-112738000D01*
X260210000Y-112440000D02*
X262580000Y-112440000D01*
X263151000Y-112738000D02*
X263024000Y-112611000D01*
X262643000Y-113195200D02*
X262643000Y-113804800D01*
X262947800Y-113500000D02*
X262643000Y-113500000D01*
X264770000Y-112440000D02*
X265330000Y-112440000D01*
X262947800Y-113804800D02*
X262643000Y-113500000D01*
X262947800Y-113195200D01*
X262947800Y-113804800D01*
G36*
X262947800Y-113804800D02*
G01*
X262643000Y-113500000D01*
X262947800Y-113195200D01*
X262947800Y-113804800D01*
G37*
G04 #@! TO.C,D24*
X241600000Y-94200000D02*
X245200000Y-94200000D01*
X245200000Y-94200000D02*
X245200000Y-91400000D01*
X241600000Y-91400000D02*
X241600000Y-94200000D01*
X245200000Y-91400000D02*
X241600000Y-91400000D01*
G04 #@! TO.C,R10*
X256500000Y-104000000D02*
X256500000Y-106000000D01*
X259900000Y-104000000D02*
X256500000Y-104000000D01*
X259900000Y-106000000D02*
X259900000Y-104000000D01*
X256500000Y-106000000D02*
X259900000Y-106000000D01*
G04 #@! TO.C,RN15*
X241473000Y-92025300D02*
X241587300Y-92025300D01*
X238527000Y-92025300D02*
X238412700Y-92025300D01*
X238400000Y-92800000D02*
X238527000Y-92800000D01*
X241600000Y-92800000D02*
X241473000Y-92800000D01*
X238527000Y-93574700D02*
X238412700Y-93574700D01*
X238400000Y-90900000D02*
X241600000Y-90900000D01*
X238400000Y-94700000D02*
X238400000Y-90900000D01*
X241600000Y-94700000D02*
X238400000Y-94700000D01*
X241473000Y-93574700D02*
X241587300Y-93574700D01*
X241600000Y-90900000D02*
X241600000Y-94700000D01*
G04 #@! TO.C,U12*
X232800000Y-90700000D02*
X232800000Y-98500000D01*
X238400000Y-98500000D02*
X238400000Y-91300000D01*
X237800000Y-90700000D02*
X232800000Y-90700000D01*
X232800000Y-98500000D02*
X238400000Y-98500000D01*
D10*
X238263500Y-90900000D02*
G75*
G03*
X238263500Y-90900000I-63500J0D01*
G01*
D13*
G04 #@! TO.C,C5*
X228000002Y-101900000D02*
X228000000Y-99300000D01*
X226399998Y-99300000D02*
X226400000Y-101900000D01*
X226400001Y-101899999D02*
G75*
G03*
X228000001Y-101899999I800000J840223D01*
G01*
X227999999Y-99300001D02*
G75*
G03*
X226399999Y-99300001I-800000J-840223D01*
G01*
G04 #@! TO.C,D21*
X247600000Y-105600000D02*
X247600000Y-102800000D01*
X244000000Y-105600000D02*
X247600000Y-105600000D01*
X244000000Y-102800000D02*
X244000000Y-105600000D01*
X247600000Y-102800000D02*
X244000000Y-102800000D01*
G04 #@! TO.C,RN18*
X252400000Y-98300000D02*
X252273000Y-98300000D01*
X252273000Y-99074700D02*
X252387300Y-99074700D01*
X249327000Y-99074700D02*
X249212700Y-99074700D01*
X249200000Y-100200000D02*
X249200000Y-96400000D01*
X249327000Y-97525300D02*
X249212700Y-97525300D01*
X252400000Y-96400000D02*
X252400000Y-100200000D01*
X249200000Y-96400000D02*
X252400000Y-96400000D01*
X249200000Y-98300000D02*
X249327000Y-98300000D01*
X252400000Y-100200000D02*
X249200000Y-100200000D01*
X252273000Y-97525300D02*
X252387300Y-97525300D01*
G04 #@! TO.C,R30*
X256500000Y-98000000D02*
X256500000Y-100000000D01*
X259900000Y-100000000D02*
X259900000Y-98000000D01*
X259900000Y-98000000D02*
X256500000Y-98000000D01*
X256500000Y-100000000D02*
X259900000Y-100000000D01*
G04 #@! TO.C,R5*
X226000000Y-95500000D02*
X229000000Y-95500000D01*
X229000000Y-95500000D02*
X229000000Y-93900000D01*
X226000000Y-93900000D02*
X226000000Y-95500000D01*
X229000000Y-93900000D02*
X226000000Y-93900000D01*
G04 #@! TO.C,Q6*
X253100000Y-105000000D02*
X256500000Y-105000000D01*
X253100000Y-102600000D02*
X253100000Y-105000000D01*
X256500000Y-102000000D02*
X253700000Y-102000000D01*
X256500000Y-105000000D02*
X256500000Y-102000000D01*
D14*
X253363500Y-102200000D02*
G75*
G03*
X253363500Y-102200000I-63500J0D01*
G01*
D13*
G04 #@! TO.C,Q4*
X256500000Y-105000000D02*
X253700000Y-105000000D01*
X256500000Y-108000000D02*
X256500000Y-105000000D01*
X253100000Y-108000000D02*
X256500000Y-108000000D01*
X253100000Y-105600000D02*
X253100000Y-108000000D01*
D14*
X253363500Y-105200000D02*
G75*
G03*
X253363500Y-105200000I-63500J0D01*
G01*
D13*
G04 #@! TO.C,D17*
X263311000Y-97060000D02*
X265330000Y-97060000D01*
X263151000Y-95238000D02*
X263024000Y-95111000D01*
X260210000Y-94940000D02*
X262580000Y-94940000D01*
X263024000Y-95492000D02*
X263024000Y-95111000D01*
X264770000Y-94940000D02*
X265330000Y-94940000D01*
X263024000Y-95111000D02*
X262897000Y-95238000D01*
X262389000Y-95238000D02*
X262643000Y-95238000D01*
X262643000Y-95695200D02*
X262643000Y-96304800D01*
X260210000Y-94940000D02*
X260210000Y-97060000D01*
X262897000Y-95238000D02*
X263151000Y-95238000D01*
X262580000Y-94940000D02*
X264770000Y-94940000D01*
X262516000Y-95111000D02*
X262389000Y-95238000D01*
X262947800Y-96000000D02*
X262643000Y-96000000D01*
X262516000Y-95492000D02*
X262516000Y-95111000D01*
X260210000Y-97060000D02*
X260420000Y-97060000D01*
X265330000Y-94940000D02*
X265330000Y-97060000D01*
X260420000Y-97060000D02*
X263311000Y-97060000D01*
X262643000Y-95238000D02*
X262516000Y-95111000D01*
X262947800Y-96304800D02*
X262643000Y-96000000D01*
X262947800Y-95695200D01*
X262947800Y-96304800D01*
G36*
X262947800Y-96304800D02*
G01*
X262643000Y-96000000D01*
X262947800Y-95695200D01*
X262947800Y-96304800D01*
G37*
G04 #@! TO.C,C7*
X245500000Y-87800002D02*
X248100000Y-87800000D01*
X248100000Y-86199998D02*
X245500000Y-86200000D01*
X245500001Y-86200001D02*
G75*
G03*
X245500001Y-87800001I840223J-800000D01*
G01*
X248099999Y-87799999D02*
G75*
G03*
X248099999Y-86199999I-840223J800000D01*
G01*
G04 #@! TO.C,D23*
X245200000Y-95200000D02*
X241600000Y-95200000D01*
X241600000Y-98000000D02*
X245200000Y-98000000D01*
X245200000Y-98000000D02*
X245200000Y-95200000D01*
X241600000Y-95200000D02*
X241600000Y-98000000D01*
G04 #@! TO.C,D19*
X241600000Y-113400000D02*
X245200000Y-113400000D01*
X245200000Y-113400000D02*
X245200000Y-110600000D01*
X241600000Y-110600000D02*
X241600000Y-113400000D01*
X245200000Y-110600000D02*
X241600000Y-110600000D01*
G04 #@! TO.C,D13*
X260210000Y-104940000D02*
X260210000Y-107060000D01*
X262389000Y-105238000D02*
X262643000Y-105238000D01*
X260210000Y-104940000D02*
X262580000Y-104940000D01*
X263024000Y-105111000D02*
X262897000Y-105238000D01*
X263151000Y-105238000D02*
X263024000Y-105111000D01*
X262643000Y-105695200D02*
X262643000Y-106304800D01*
X262580000Y-104940000D02*
X264770000Y-104940000D01*
X263024000Y-105492000D02*
X263024000Y-105111000D01*
X260420000Y-107060000D02*
X263311000Y-107060000D01*
X262897000Y-105238000D02*
X263151000Y-105238000D01*
X260210000Y-107060000D02*
X260420000Y-107060000D01*
X265330000Y-104940000D02*
X265330000Y-107060000D01*
X262947800Y-106000000D02*
X262643000Y-106000000D01*
X264770000Y-104940000D02*
X265330000Y-104940000D01*
X262516000Y-105492000D02*
X262516000Y-105111000D01*
X262643000Y-105238000D02*
X262516000Y-105111000D01*
X263311000Y-107060000D02*
X265330000Y-107060000D01*
X262516000Y-105111000D02*
X262389000Y-105238000D01*
X262947800Y-106304800D02*
X262643000Y-106000000D01*
X262947800Y-105695200D01*
X262947800Y-106304800D01*
G36*
X262947800Y-106304800D02*
G01*
X262643000Y-106000000D01*
X262947800Y-105695200D01*
X262947800Y-106304800D01*
G37*
G04 #@! TO.C,RN17*
X249327000Y-101325300D02*
X249212700Y-101325300D01*
X249200000Y-102100000D02*
X249327000Y-102100000D01*
X252400000Y-104000000D02*
X249200000Y-104000000D01*
X252273000Y-101325300D02*
X252387300Y-101325300D01*
X249327000Y-102874700D02*
X249212700Y-102874700D01*
X249200000Y-100200000D02*
X252400000Y-100200000D01*
X249200000Y-104000000D02*
X249200000Y-100200000D01*
X252400000Y-100200000D02*
X252400000Y-104000000D01*
X252400000Y-102100000D02*
X252273000Y-102100000D01*
X252273000Y-102874700D02*
X252387300Y-102874700D01*
G04 #@! TO.C,D6*
X260210000Y-107440000D02*
X262580000Y-107440000D01*
X262389000Y-107738000D02*
X262643000Y-107738000D01*
X263311000Y-109560000D02*
X265330000Y-109560000D01*
X262516000Y-107611000D02*
X262389000Y-107738000D01*
X260210000Y-107440000D02*
X260210000Y-109560000D01*
X262643000Y-108195200D02*
X262643000Y-108804800D01*
X263024000Y-107611000D02*
X262897000Y-107738000D01*
X263151000Y-107738000D02*
X263024000Y-107611000D01*
X265330000Y-107440000D02*
X265330000Y-109560000D01*
X260210000Y-109560000D02*
X260420000Y-109560000D01*
X264770000Y-107440000D02*
X265330000Y-107440000D01*
X262947800Y-108500000D02*
X262643000Y-108500000D01*
X262580000Y-107440000D02*
X264770000Y-107440000D01*
X263024000Y-107992000D02*
X263024000Y-107611000D01*
X262643000Y-107738000D02*
X262516000Y-107611000D01*
X262516000Y-107992000D02*
X262516000Y-107611000D01*
X262897000Y-107738000D02*
X263151000Y-107738000D01*
X260420000Y-109560000D02*
X263311000Y-109560000D01*
X262947800Y-108804800D02*
X262643000Y-108500000D01*
X262947800Y-108195200D01*
X262947800Y-108804800D01*
G36*
X262947800Y-108804800D02*
G01*
X262643000Y-108500000D01*
X262947800Y-108195200D01*
X262947800Y-108804800D01*
G37*
G04 #@! TO.C,C4*
X228000002Y-105200000D02*
X228000000Y-102600000D01*
X226399998Y-102600000D02*
X226400000Y-105200000D01*
X227999999Y-102600001D02*
G75*
G03*
X226399999Y-102600001I-800000J-840223D01*
G01*
X226400001Y-105199999D02*
G75*
G03*
X228000001Y-105199999I800000J840223D01*
G01*
G04 #@! TO.C,RN14*
X238400000Y-98500000D02*
X238400000Y-94700000D01*
X238527000Y-95825300D02*
X238412700Y-95825300D01*
X238400000Y-96600000D02*
X238527000Y-96600000D01*
X241600000Y-96600000D02*
X241473000Y-96600000D01*
X241600000Y-98500000D02*
X238400000Y-98500000D01*
X238527000Y-97374700D02*
X238412700Y-97374700D01*
X238400000Y-94700000D02*
X241600000Y-94700000D01*
X241473000Y-95825300D02*
X241587300Y-95825300D01*
X241600000Y-94700000D02*
X241600000Y-98500000D01*
X241473000Y-97374700D02*
X241587300Y-97374700D01*
G04 #@! TO.C,R15*
X256500000Y-100000000D02*
X256500000Y-102000000D01*
X256500000Y-102000000D02*
X259900000Y-102000000D01*
X259900000Y-100000000D02*
X256500000Y-100000000D01*
X259900000Y-102000000D02*
X259900000Y-100000000D01*
G04 #@! TO.C,R1*
X228200000Y-107900000D02*
X231200000Y-107900000D01*
X228200000Y-106300000D02*
X228200000Y-107900000D01*
X231200000Y-106300000D02*
X228200000Y-106300000D01*
X231200000Y-107900000D02*
X231200000Y-106300000D01*
G04 #@! TO.C,D18*
X265330000Y-92440000D02*
X265330000Y-94560000D01*
X263311000Y-94560000D02*
X265330000Y-94560000D01*
X262516000Y-92992000D02*
X262516000Y-92611000D01*
X264770000Y-92440000D02*
X265330000Y-92440000D01*
X262580000Y-92440000D02*
X264770000Y-92440000D01*
X262643000Y-92738000D02*
X262516000Y-92611000D01*
X262643000Y-93195200D02*
X262643000Y-93804800D01*
X262516000Y-92611000D02*
X262389000Y-92738000D01*
X263151000Y-92738000D02*
X263024000Y-92611000D01*
X262389000Y-92738000D02*
X262643000Y-92738000D01*
X260210000Y-92440000D02*
X260210000Y-94560000D01*
X260420000Y-94560000D02*
X263311000Y-94560000D01*
X263024000Y-92611000D02*
X262897000Y-92738000D01*
X262947800Y-93500000D02*
X262643000Y-93500000D01*
X263024000Y-92992000D02*
X263024000Y-92611000D01*
X262897000Y-92738000D02*
X263151000Y-92738000D01*
X260210000Y-94560000D02*
X260420000Y-94560000D01*
X260210000Y-92440000D02*
X262580000Y-92440000D01*
X262947800Y-93804800D02*
X262643000Y-93500000D01*
X262947800Y-93195200D01*
X262947800Y-93804800D01*
G36*
X262947800Y-93804800D02*
G01*
X262643000Y-93500000D01*
X262947800Y-93195200D01*
X262947800Y-93804800D01*
G37*
G04 #@! TO.C,RN13*
X244000000Y-102400000D02*
X240800000Y-102400000D01*
X243873000Y-101274700D02*
X243987300Y-101274700D01*
X244000000Y-100500000D02*
X243873000Y-100500000D01*
X244000000Y-98600000D02*
X244000000Y-102400000D01*
X240800000Y-98600000D02*
X244000000Y-98600000D01*
X240800000Y-100500000D02*
X240927000Y-100500000D01*
X240800000Y-102400000D02*
X240800000Y-98600000D01*
X243873000Y-99725300D02*
X243987300Y-99725300D01*
X240927000Y-101274700D02*
X240812700Y-101274700D01*
X240927000Y-99725300D02*
X240812700Y-99725300D01*
G04 #@! TO.C,RN10*
X241600000Y-113900000D02*
X238400000Y-113900000D01*
X238400000Y-113900000D02*
X238400000Y-110100000D01*
X241600000Y-112000000D02*
X241473000Y-112000000D01*
X238527000Y-111225300D02*
X238412700Y-111225300D01*
X241473000Y-111225300D02*
X241587300Y-111225300D01*
X238400000Y-112000000D02*
X238527000Y-112000000D01*
X238400000Y-110100000D02*
X241600000Y-110100000D01*
X238527000Y-112774700D02*
X238412700Y-112774700D01*
X241600000Y-110100000D02*
X241600000Y-113900000D01*
X241473000Y-112774700D02*
X241587300Y-112774700D01*
G04 #@! TO.C,RN11*
X241600000Y-108200000D02*
X241473000Y-108200000D01*
X238527000Y-107425300D02*
X238412700Y-107425300D01*
X241473000Y-108974700D02*
X241587300Y-108974700D01*
X238400000Y-110100000D02*
X238400000Y-106300000D01*
X241473000Y-107425300D02*
X241587300Y-107425300D01*
X238400000Y-108200000D02*
X238527000Y-108200000D01*
X241600000Y-110100000D02*
X238400000Y-110100000D01*
X238400000Y-106300000D02*
X241600000Y-106300000D01*
X241600000Y-106300000D02*
X241600000Y-110100000D01*
X238527000Y-108974700D02*
X238412700Y-108974700D01*
G04 #@! TO.C,D26*
X260210000Y-87440000D02*
X262580000Y-87440000D01*
X263311000Y-89560000D02*
X265330000Y-89560000D01*
X262389000Y-87738000D02*
X262643000Y-87738000D01*
X260210000Y-89560000D02*
X260420000Y-89560000D01*
X260420000Y-89560000D02*
X263311000Y-89560000D01*
X262516000Y-87992000D02*
X262516000Y-87611000D01*
X262643000Y-88195200D02*
X262643000Y-88804800D01*
X262580000Y-87440000D02*
X264770000Y-87440000D01*
X262643000Y-87738000D02*
X262516000Y-87611000D01*
X263024000Y-87992000D02*
X263024000Y-87611000D01*
X262897000Y-87738000D02*
X263151000Y-87738000D01*
X264770000Y-87440000D02*
X265330000Y-87440000D01*
X262516000Y-87611000D02*
X262389000Y-87738000D01*
X263151000Y-87738000D02*
X263024000Y-87611000D01*
X262947800Y-88500000D02*
X262643000Y-88500000D01*
X265330000Y-87440000D02*
X265330000Y-89560000D01*
X260210000Y-87440000D02*
X260210000Y-89560000D01*
X263024000Y-87611000D02*
X262897000Y-87738000D01*
X262947800Y-88804800D02*
X262643000Y-88500000D01*
X262947800Y-88195200D01*
X262947800Y-88804800D01*
G36*
X262947800Y-88804800D02*
G01*
X262643000Y-88500000D01*
X262947800Y-88195200D01*
X262947800Y-88804800D01*
G37*
G04 #@! TO.C,J1*
X221435000Y-107080000D02*
X218775000Y-107080000D01*
X212775000Y-108730000D02*
X212775000Y-107970000D01*
X218775000Y-96030000D02*
X212775000Y-96030000D01*
X212775000Y-97810000D02*
X218775000Y-97810000D01*
X218775000Y-103650000D02*
X212775000Y-103650000D01*
X212775000Y-105430000D02*
X218775000Y-105430000D01*
X221832071Y-101110000D02*
X221435000Y-101110000D01*
X218775000Y-106190000D02*
X212775000Y-106190000D01*
X221435000Y-94320000D02*
X218775000Y-94320000D01*
X218775000Y-108550000D02*
X212775000Y-108550000D01*
X221435000Y-109680000D02*
X221435000Y-94320000D01*
X218775000Y-108190000D02*
X212775000Y-108190000D01*
X218775000Y-108730000D02*
X212775000Y-108730000D01*
X212775000Y-102890000D02*
X218775000Y-102890000D01*
X221832071Y-103650000D02*
X221435000Y-103650000D01*
X221832071Y-96030000D02*
X221435000Y-96030000D01*
X218775000Y-109680000D02*
X221435000Y-109680000D01*
X218775000Y-108670000D02*
X212775000Y-108670000D01*
X221832071Y-106190000D02*
X221435000Y-106190000D01*
X212775000Y-101110000D02*
X212775000Y-100350000D01*
X218775000Y-94320000D02*
X218775000Y-109680000D01*
X221832071Y-97810000D02*
X221435000Y-97810000D01*
X212775000Y-96030000D02*
X212775000Y-95270000D01*
X221765000Y-107970000D02*
X221435000Y-107970000D01*
X221435000Y-102000000D02*
X218775000Y-102000000D01*
X221832071Y-102890000D02*
X221435000Y-102890000D01*
X212775000Y-100350000D02*
X218775000Y-100350000D01*
X221435000Y-96920000D02*
X218775000Y-96920000D01*
X221765000Y-108730000D02*
X221435000Y-108730000D01*
X218775000Y-108310000D02*
X212775000Y-108310000D01*
X218775000Y-101110000D02*
X212775000Y-101110000D01*
X218775000Y-108430000D02*
X212775000Y-108430000D01*
X221832071Y-100350000D02*
X221435000Y-100350000D01*
X212775000Y-98570000D02*
X212775000Y-97810000D01*
X221832071Y-98570000D02*
X221435000Y-98570000D01*
X224145000Y-109620000D02*
X222875000Y-109620000D01*
X218775000Y-98570000D02*
X212775000Y-98570000D01*
X224145000Y-108350000D02*
X224145000Y-109620000D01*
X221832071Y-105430000D02*
X221435000Y-105430000D01*
X221435000Y-104540000D02*
X218775000Y-104540000D01*
X212775000Y-106190000D02*
X212775000Y-105430000D01*
X221435000Y-99460000D02*
X218775000Y-99460000D01*
X218775000Y-108070000D02*
X212775000Y-108070000D01*
X212775000Y-103650000D02*
X212775000Y-102890000D01*
X221832071Y-95270000D02*
X221435000Y-95270000D01*
X212775000Y-95270000D02*
X218775000Y-95270000D01*
X212775000Y-107970000D02*
X218775000Y-107970000D01*
G04 #@! TO.C,R3*
X229200000Y-95500000D02*
X227600000Y-95500000D01*
X229200000Y-98500000D02*
X229200000Y-95500000D01*
X227600000Y-95500000D02*
X227600000Y-98500000D01*
X227600000Y-98500000D02*
X229200000Y-98500000D01*
G04 #@! TO.C,RN12*
X243873000Y-105074700D02*
X243987300Y-105074700D01*
X240800000Y-102400000D02*
X244000000Y-102400000D01*
X244000000Y-104300000D02*
X243873000Y-104300000D01*
X240800000Y-106200000D02*
X240800000Y-102400000D01*
X240927000Y-103525300D02*
X240812700Y-103525300D01*
X240800000Y-104300000D02*
X240927000Y-104300000D01*
X240927000Y-105074700D02*
X240812700Y-105074700D01*
X244000000Y-102400000D02*
X244000000Y-106200000D01*
X244000000Y-106200000D02*
X240800000Y-106200000D01*
X243873000Y-103525300D02*
X243987300Y-103525300D01*
G04 #@! TO.C,U4*
X250800000Y-95600000D02*
X250800000Y-87800000D01*
X245200000Y-87800000D02*
X245200000Y-95000000D01*
X245800000Y-95600000D02*
X250800000Y-95600000D01*
X250800000Y-87800000D02*
X245200000Y-87800000D01*
D10*
X245463500Y-95400000D02*
G75*
G03*
X245463500Y-95400000I-63500J0D01*
G01*
D13*
G04 #@! TO.C,D1*
X231200000Y-110700000D02*
X231200000Y-107900000D01*
X227600000Y-107900000D02*
X227600000Y-110700000D01*
X231200000Y-107900000D02*
X227600000Y-107900000D01*
X227600000Y-110700000D02*
X231200000Y-110700000D01*
G04 #@! TO.C,Q12*
X256500000Y-93000000D02*
X253700000Y-93000000D01*
X253100000Y-93600000D02*
X253100000Y-96000000D01*
X253100000Y-96000000D02*
X256500000Y-96000000D01*
X256500000Y-96000000D02*
X256500000Y-93000000D01*
D14*
X253363500Y-93200000D02*
G75*
G03*
X253363500Y-93200000I-63500J0D01*
G01*
D13*
G04 #@! TO.C,R32*
X256500000Y-98000000D02*
X259900000Y-98000000D01*
X259900000Y-98000000D02*
X259900000Y-96000000D01*
X256500000Y-96000000D02*
X256500000Y-98000000D01*
X259900000Y-96000000D02*
X256500000Y-96000000D01*
G04 #@! TO.C,D15*
X262897000Y-100238000D02*
X263151000Y-100238000D01*
X262389000Y-100238000D02*
X262643000Y-100238000D01*
X262516000Y-100492000D02*
X262516000Y-100111000D01*
X263151000Y-100238000D02*
X263024000Y-100111000D01*
X260210000Y-99940000D02*
X260210000Y-102060000D01*
X260210000Y-99940000D02*
X262580000Y-99940000D01*
X260420000Y-102060000D02*
X263311000Y-102060000D01*
X265330000Y-99940000D02*
X265330000Y-102060000D01*
X260210000Y-102060000D02*
X260420000Y-102060000D01*
X262643000Y-100695200D02*
X262643000Y-101304800D01*
X264770000Y-99940000D02*
X265330000Y-99940000D01*
X263024000Y-100111000D02*
X262897000Y-100238000D01*
X262643000Y-100238000D02*
X262516000Y-100111000D01*
X262580000Y-99940000D02*
X264770000Y-99940000D01*
X263311000Y-102060000D02*
X265330000Y-102060000D01*
X262947800Y-101000000D02*
X262643000Y-101000000D01*
X262516000Y-100111000D02*
X262389000Y-100238000D01*
X263024000Y-100492000D02*
X263024000Y-100111000D01*
X262947800Y-101304800D02*
X262643000Y-101000000D01*
X262947800Y-100695200D01*
X262947800Y-101304800D01*
G36*
X262947800Y-101304800D02*
G01*
X262643000Y-101000000D01*
X262947800Y-100695200D01*
X262947800Y-101304800D01*
G37*
G04 #@! TO.C,D5*
X262580000Y-109940000D02*
X264770000Y-109940000D01*
X263024000Y-110111000D02*
X262897000Y-110238000D01*
X260210000Y-109940000D02*
X262580000Y-109940000D01*
X265330000Y-109940000D02*
X265330000Y-112060000D01*
X260210000Y-112060000D02*
X260420000Y-112060000D01*
X262516000Y-110111000D02*
X262389000Y-110238000D01*
X263024000Y-110492000D02*
X263024000Y-110111000D01*
X260420000Y-112060000D02*
X263311000Y-112060000D01*
X262897000Y-110238000D02*
X263151000Y-110238000D01*
X262947800Y-111000000D02*
X262643000Y-111000000D01*
X263311000Y-112060000D02*
X265330000Y-112060000D01*
X262643000Y-110238000D02*
X262516000Y-110111000D01*
X263151000Y-110238000D02*
X263024000Y-110111000D01*
X264770000Y-109940000D02*
X265330000Y-109940000D01*
X262516000Y-110492000D02*
X262516000Y-110111000D01*
X260210000Y-109940000D02*
X260210000Y-112060000D01*
X262389000Y-110238000D02*
X262643000Y-110238000D01*
X262643000Y-110695200D02*
X262643000Y-111304800D01*
X262947800Y-111304800D02*
X262643000Y-111000000D01*
X262947800Y-110695200D01*
X262947800Y-111304800D01*
G36*
X262947800Y-111304800D02*
G01*
X262643000Y-111000000D01*
X262947800Y-110695200D01*
X262947800Y-111304800D01*
G37*
G04 #@! TO.C,C2*
X245199998Y-105950000D02*
X245200000Y-108550000D01*
X246800002Y-108550000D02*
X246800000Y-105950000D01*
X246799999Y-105950001D02*
G75*
G03*
X245199999Y-105950001I-800000J-840223D01*
G01*
X245200001Y-108549999D02*
G75*
G03*
X246800001Y-108549999I800000J840223D01*
G01*
G04 #@! TD*
%LPC*%
D15*
G04 #@! TO.C,REF\u002A\u002A*
X224500000Y-114500000D03*
G04 #@! TD*
G04 #@! TO.C,REF\u002A\u002A*
X255000000Y-114500000D03*
G04 #@! TD*
G04 #@! TO.C,REF\u002A\u002A*
X255000000Y-89500000D03*
G04 #@! TD*
G04 #@! TO.C,REF\u002A\u002A*
X224500000Y-89500000D03*
G04 #@! TD*
D16*
G04 #@! TO.C,R34*
X228900000Y-114425000D03*
X228900000Y-116075000D03*
G04 #@! TD*
D17*
G04 #@! TO.C,D22*
X244800000Y-99850000D03*
X244800000Y-101150000D03*
X246800000Y-100500000D03*
G04 #@! TD*
D18*
G04 #@! TO.C,C12*
X230500000Y-116025000D03*
X230500000Y-114475000D03*
G04 #@! TD*
G04 #@! TO.C,C15*
X232000000Y-111775000D03*
X232000000Y-110225000D03*
G04 #@! TD*
D19*
G04 #@! TO.C,U3*
X228850000Y-105262500D03*
X229500000Y-105262500D03*
X230150000Y-105262500D03*
X230800000Y-105262500D03*
X231450000Y-105262500D03*
X232100000Y-105262500D03*
X232750000Y-105262500D03*
X232750000Y-99537500D03*
X232100000Y-99537500D03*
X231450000Y-99537500D03*
X230800000Y-99537500D03*
X230150000Y-99537500D03*
X229500000Y-99537500D03*
X228850000Y-99537500D03*
G04 #@! TD*
D20*
G04 #@! TO.C,C11*
X229300000Y-89525000D03*
X229300000Y-91075000D03*
G04 #@! TD*
D21*
G04 #@! TO.C,RN16*
X249900000Y-104700000D03*
D22*
X249900000Y-105500000D03*
X249900000Y-106300000D03*
D21*
X249900000Y-107100000D03*
X251700000Y-107100000D03*
D22*
X251700000Y-106300000D03*
X251700000Y-105500000D03*
D21*
X251700000Y-104700000D03*
G04 #@! TD*
D19*
G04 #@! TO.C,U1*
X246050000Y-115662500D03*
X246700000Y-115662500D03*
X247350000Y-115662500D03*
X248000000Y-115662500D03*
X248650000Y-115662500D03*
X249300000Y-115662500D03*
X249950000Y-115662500D03*
X249950000Y-109937500D03*
X249300000Y-109937500D03*
X248650000Y-109937500D03*
X248000000Y-109937500D03*
X247350000Y-109937500D03*
X246700000Y-109937500D03*
X246050000Y-109937500D03*
G04 #@! TD*
D23*
G04 #@! TO.C,D16*
X261500000Y-98500000D03*
D24*
X264040000Y-98500000D03*
G04 #@! TD*
D23*
G04 #@! TO.C,D14*
X261500000Y-103500000D03*
D24*
X264040000Y-103500000D03*
G04 #@! TD*
D25*
G04 #@! TO.C,U11*
X239950000Y-99537500D03*
X239300000Y-99537500D03*
X238650000Y-99537500D03*
X238000000Y-99537500D03*
X237350000Y-99537500D03*
X236700000Y-99537500D03*
X236050000Y-99537500D03*
X236050000Y-105262500D03*
X236700000Y-105262500D03*
X237350000Y-105262500D03*
X238000000Y-105262500D03*
X238650000Y-105262500D03*
X239300000Y-105262500D03*
X239950000Y-105262500D03*
G04 #@! TD*
D26*
G04 #@! TO.C,Q2*
X253850000Y-108850000D03*
X253850000Y-109500000D03*
X253850000Y-110150000D03*
X255750000Y-110150000D03*
X255750000Y-109500000D03*
X255750000Y-108850000D03*
G04 #@! TD*
D17*
G04 #@! TO.C,D20*
X242400000Y-107550000D03*
X242400000Y-108850000D03*
X244400000Y-108200000D03*
G04 #@! TD*
D26*
G04 #@! TO.C,Q10*
X253850000Y-96850000D03*
X253850000Y-97500000D03*
X253850000Y-98150000D03*
X255750000Y-98150000D03*
X255750000Y-97500000D03*
X255750000Y-96850000D03*
G04 #@! TD*
D25*
G04 #@! TO.C,U10*
X237550000Y-107337500D03*
X236900000Y-107337500D03*
X236250000Y-107337500D03*
X235600000Y-107337500D03*
X234950000Y-107337500D03*
X234300000Y-107337500D03*
X233650000Y-107337500D03*
X233650000Y-113062500D03*
X234300000Y-113062500D03*
X234950000Y-113062500D03*
X235600000Y-113062500D03*
X236250000Y-113062500D03*
X236900000Y-113062500D03*
X237550000Y-113062500D03*
G04 #@! TD*
D27*
G04 #@! TO.C,R13*
X259112500Y-103000000D03*
X257287500Y-103000000D03*
G04 #@! TD*
D28*
G04 #@! TO.C,R4*
X232000000Y-108625000D03*
X232000000Y-106975000D03*
G04 #@! TD*
D26*
G04 #@! TO.C,Q8*
X253850000Y-99850000D03*
X253850000Y-100500000D03*
X253850000Y-101150000D03*
X255750000Y-101150000D03*
X255750000Y-100500000D03*
X255750000Y-99850000D03*
G04 #@! TD*
D23*
G04 #@! TO.C,D3*
X261500000Y-116000000D03*
D24*
X264040000Y-116000000D03*
G04 #@! TD*
D18*
G04 #@! TO.C,C13*
X232000000Y-94775000D03*
X232000000Y-93225000D03*
G04 #@! TD*
D16*
G04 #@! TO.C,R2*
X226800000Y-96175000D03*
X226800000Y-97825000D03*
G04 #@! TD*
D23*
G04 #@! TO.C,D25*
X261500000Y-91000000D03*
D24*
X264040000Y-91000000D03*
G04 #@! TD*
D29*
G04 #@! TO.C,R6*
X230525000Y-111500000D03*
X228875000Y-111500000D03*
G04 #@! TD*
D27*
G04 #@! TO.C,R8*
X259112500Y-107000000D03*
X257287500Y-107000000D03*
G04 #@! TD*
D18*
G04 #@! TO.C,C14*
X234400000Y-103175000D03*
X234400000Y-101625000D03*
G04 #@! TD*
D17*
G04 #@! TO.C,D2*
X230000000Y-96450000D03*
X230000000Y-97750000D03*
X232000000Y-97100000D03*
G04 #@! TD*
D23*
G04 #@! TO.C,D4*
X261500000Y-113500000D03*
D24*
X264040000Y-113500000D03*
G04 #@! TD*
D17*
G04 #@! TO.C,D24*
X242400000Y-92150000D03*
X242400000Y-93450000D03*
X244400000Y-92800000D03*
G04 #@! TD*
D27*
G04 #@! TO.C,R10*
X259112500Y-105000000D03*
X257287500Y-105000000D03*
G04 #@! TD*
D21*
G04 #@! TO.C,RN15*
X239100000Y-91600000D03*
D22*
X239100000Y-92400000D03*
X239100000Y-93200000D03*
D21*
X239100000Y-94000000D03*
X240900000Y-94000000D03*
D22*
X240900000Y-93200000D03*
X240900000Y-92400000D03*
D21*
X240900000Y-91600000D03*
G04 #@! TD*
D25*
G04 #@! TO.C,U12*
X237550000Y-91737500D03*
X236900000Y-91737500D03*
X236250000Y-91737500D03*
X235600000Y-91737500D03*
X234950000Y-91737500D03*
X234300000Y-91737500D03*
X233650000Y-91737500D03*
X233650000Y-97462500D03*
X234300000Y-97462500D03*
X234950000Y-97462500D03*
X235600000Y-97462500D03*
X236250000Y-97462500D03*
X236900000Y-97462500D03*
X237550000Y-97462500D03*
G04 #@! TD*
D20*
G04 #@! TO.C,C5*
X227200000Y-99825000D03*
X227200000Y-101375000D03*
G04 #@! TD*
D17*
G04 #@! TO.C,D21*
X244800000Y-103550000D03*
X244800000Y-104850000D03*
X246800000Y-104200000D03*
G04 #@! TD*
D21*
G04 #@! TO.C,RN18*
X249900000Y-97100000D03*
D22*
X249900000Y-97900000D03*
X249900000Y-98700000D03*
D21*
X249900000Y-99500000D03*
X251700000Y-99500000D03*
D22*
X251700000Y-98700000D03*
X251700000Y-97900000D03*
D21*
X251700000Y-97100000D03*
G04 #@! TD*
D27*
G04 #@! TO.C,R30*
X259112500Y-99000000D03*
X257287500Y-99000000D03*
G04 #@! TD*
D30*
G04 #@! TO.C,R5*
X226675000Y-94700000D03*
X228325000Y-94700000D03*
G04 #@! TD*
D26*
G04 #@! TO.C,Q6*
X253850000Y-102850000D03*
X253850000Y-103500000D03*
X253850000Y-104150000D03*
X255750000Y-104150000D03*
X255750000Y-103500000D03*
X255750000Y-102850000D03*
G04 #@! TD*
G04 #@! TO.C,Q4*
X253850000Y-105850000D03*
X253850000Y-106500000D03*
X253850000Y-107150000D03*
X255750000Y-107150000D03*
X255750000Y-106500000D03*
X255750000Y-105850000D03*
G04 #@! TD*
D23*
G04 #@! TO.C,D17*
X261500000Y-96000000D03*
D24*
X264040000Y-96000000D03*
G04 #@! TD*
D31*
G04 #@! TO.C,C7*
X246025000Y-87000000D03*
X247575000Y-87000000D03*
G04 #@! TD*
D17*
G04 #@! TO.C,D23*
X242400000Y-95950000D03*
X242400000Y-97250000D03*
X244400000Y-96600000D03*
G04 #@! TD*
G04 #@! TO.C,D19*
X242400000Y-111350000D03*
X242400000Y-112650000D03*
X244400000Y-112000000D03*
G04 #@! TD*
D23*
G04 #@! TO.C,D13*
X261500000Y-106000000D03*
D24*
X264040000Y-106000000D03*
G04 #@! TD*
D21*
G04 #@! TO.C,RN17*
X249900000Y-100900000D03*
D22*
X249900000Y-101700000D03*
X249900000Y-102500000D03*
D21*
X249900000Y-103300000D03*
X251700000Y-103300000D03*
D22*
X251700000Y-102500000D03*
X251700000Y-101700000D03*
D21*
X251700000Y-100900000D03*
G04 #@! TD*
D23*
G04 #@! TO.C,D6*
X261500000Y-108500000D03*
D24*
X264040000Y-108500000D03*
G04 #@! TD*
D18*
G04 #@! TO.C,C4*
X227200000Y-104675000D03*
X227200000Y-103125000D03*
G04 #@! TD*
D21*
G04 #@! TO.C,RN14*
X239100000Y-95400000D03*
D22*
X239100000Y-96200000D03*
X239100000Y-97000000D03*
D21*
X239100000Y-97800000D03*
X240900000Y-97800000D03*
D22*
X240900000Y-97000000D03*
X240900000Y-96200000D03*
D21*
X240900000Y-95400000D03*
G04 #@! TD*
D27*
G04 #@! TO.C,R15*
X259112500Y-101000000D03*
X257287500Y-101000000D03*
G04 #@! TD*
D30*
G04 #@! TO.C,R1*
X228875000Y-107100000D03*
X230525000Y-107100000D03*
G04 #@! TD*
D23*
G04 #@! TO.C,D18*
X261500000Y-93500000D03*
D24*
X264040000Y-93500000D03*
G04 #@! TD*
D21*
G04 #@! TO.C,RN13*
X241500000Y-99300000D03*
D22*
X241500000Y-100100000D03*
X241500000Y-100900000D03*
D21*
X241500000Y-101700000D03*
X243300000Y-101700000D03*
D22*
X243300000Y-100900000D03*
X243300000Y-100100000D03*
D21*
X243300000Y-99300000D03*
G04 #@! TD*
G04 #@! TO.C,RN10*
X239100000Y-110800000D03*
D22*
X239100000Y-111600000D03*
X239100000Y-112400000D03*
D21*
X239100000Y-113200000D03*
X240900000Y-113200000D03*
D22*
X240900000Y-112400000D03*
X240900000Y-111600000D03*
D21*
X240900000Y-110800000D03*
G04 #@! TD*
G04 #@! TO.C,RN11*
X239100000Y-107000000D03*
D22*
X239100000Y-107800000D03*
X239100000Y-108600000D03*
D21*
X239100000Y-109400000D03*
X240900000Y-109400000D03*
D22*
X240900000Y-108600000D03*
X240900000Y-107800000D03*
D21*
X240900000Y-107000000D03*
G04 #@! TD*
D23*
G04 #@! TO.C,D26*
X261500000Y-88500000D03*
D24*
X264040000Y-88500000D03*
G04 #@! TD*
D32*
G04 #@! TO.C,J1*
X222875000Y-108350000D03*
D33*
X222875000Y-105810000D03*
X222875000Y-103270000D03*
X222875000Y-100730000D03*
X222875000Y-98190000D03*
X222875000Y-95650000D03*
G04 #@! TD*
D16*
G04 #@! TO.C,R3*
X228400000Y-96175000D03*
X228400000Y-97825000D03*
G04 #@! TD*
D21*
G04 #@! TO.C,RN12*
X241500000Y-103100000D03*
D22*
X241500000Y-103900000D03*
X241500000Y-104700000D03*
D21*
X241500000Y-105500000D03*
X243300000Y-105500000D03*
D22*
X243300000Y-104700000D03*
X243300000Y-103900000D03*
D21*
X243300000Y-103100000D03*
G04 #@! TD*
D19*
G04 #@! TO.C,U4*
X246050000Y-94562500D03*
X246700000Y-94562500D03*
X247350000Y-94562500D03*
X248000000Y-94562500D03*
X248650000Y-94562500D03*
X249300000Y-94562500D03*
X249950000Y-94562500D03*
X249950000Y-88837500D03*
X249300000Y-88837500D03*
X248650000Y-88837500D03*
X248000000Y-88837500D03*
X247350000Y-88837500D03*
X246700000Y-88837500D03*
X246050000Y-88837500D03*
G04 #@! TD*
D34*
G04 #@! TO.C,D1*
X230400000Y-109950000D03*
X230400000Y-108650000D03*
X228400000Y-109300000D03*
G04 #@! TD*
D26*
G04 #@! TO.C,Q12*
X253850000Y-93850000D03*
X253850000Y-94500000D03*
X253850000Y-95150000D03*
X255750000Y-95150000D03*
X255750000Y-94500000D03*
X255750000Y-93850000D03*
G04 #@! TD*
D27*
G04 #@! TO.C,R32*
X259112500Y-97000000D03*
X257287500Y-97000000D03*
G04 #@! TD*
D23*
G04 #@! TO.C,D15*
X261500000Y-101000000D03*
D24*
X264040000Y-101000000D03*
G04 #@! TD*
D23*
G04 #@! TO.C,D5*
X261500000Y-111000000D03*
D24*
X264040000Y-111000000D03*
G04 #@! TD*
D18*
G04 #@! TO.C,C2*
X246000000Y-108025000D03*
X246000000Y-106475000D03*
G04 #@! TD*
%LPD*%
M02*
