G04 #@! TF.GenerationSoftware,KiCad,Pcbnew,7.0.9-69-ge1c0bddff3*
G04 #@! TF.CreationDate,2024-02-19T13:42:33+01:00*
G04 #@! TF.ProjectId,ASP_Backplane,4153505f-4261-4636-9b70-6c616e652e6b,B*
G04 #@! TF.SameCoordinates,Original*
G04 #@! TF.FileFunction,Legend,Bot*
G04 #@! TF.FilePolarity,Positive*
%FSLAX46Y46*%
G04 Gerber Fmt 4.6, Leading zero omitted, Abs format (unit mm)*
G04 Created by KiCad (PCBNEW 7.0.9-69-ge1c0bddff3) date 2024-02-19 13:42:33*
%MOMM*%
%LPD*%
G01*
G04 APERTURE LIST*
G04 Aperture macros list*
%AMRoundRect*
0 Rectangle with rounded corners*
0 $1 Rounding radius*
0 $2 $3 $4 $5 $6 $7 $8 $9 X,Y pos of 4 corners*
0 Add a 4 corners polygon primitive as box body*
4,1,4,$2,$3,$4,$5,$6,$7,$8,$9,$2,$3,0*
0 Add four circle primitives for the rounded corners*
1,1,$1+$1,$2,$3*
1,1,$1+$1,$4,$5*
1,1,$1+$1,$6,$7*
1,1,$1+$1,$8,$9*
0 Add four rect primitives between the rounded corners*
20,1,$1+$1,$2,$3,$4,$5,0*
20,1,$1+$1,$4,$5,$6,$7,0*
20,1,$1+$1,$6,$7,$8,$9,0*
20,1,$1+$1,$8,$9,$2,$3,0*%
G04 Aperture macros list end*
%ADD10C,0.150000*%
%ADD11C,0.120000*%
%ADD12C,0.200000*%
%ADD13C,0.100000*%
%ADD14C,0.300000*%
%ADD15RoundRect,0.250000X-0.475000X0.250000X-0.475000X-0.250000X0.475000X-0.250000X0.475000X0.250000X0*%
%ADD16C,3.200000*%
%ADD17O,4.000000X1.600000*%
%ADD18O,1.600000X4.000000*%
%ADD19RoundRect,0.250000X-1.500000X-0.550000X1.500000X-0.550000X1.500000X0.550000X-1.500000X0.550000X0*%
%ADD20R,1.700000X1.700000*%
%ADD21O,1.700000X1.700000*%
%ADD22RoundRect,0.225000X0.225000X0.250000X-0.225000X0.250000X-0.225000X-0.250000X0.225000X-0.250000X0*%
%ADD23O,1.800000X1.800000*%
%ADD24R,1.800000X1.800000*%
%ADD25RoundRect,0.150000X-0.150000X0.825000X-0.150000X-0.825000X0.150000X-0.825000X0.150000X0.825000X0*%
%ADD26RoundRect,0.200000X-0.200000X-0.275000X0.200000X-0.275000X0.200000X0.275000X-0.200000X0.275000X0*%
%ADD27RoundRect,0.225000X0.250000X-0.225000X0.250000X0.225000X-0.250000X0.225000X-0.250000X-0.225000X0*%
%ADD28RoundRect,0.200000X-0.275000X0.200000X-0.275000X-0.200000X0.275000X-0.200000X0.275000X0.200000X0*%
%ADD29RoundRect,0.225000X-0.250000X0.225000X-0.250000X-0.225000X0.250000X-0.225000X0.250000X0.225000X0*%
%ADD30RoundRect,0.250000X-0.400000X-0.600000X0.400000X-0.600000X0.400000X0.600000X-0.400000X0.600000X0*%
%ADD31O,1.600000X5.000000*%
%ADD32O,5.000000X1.600000*%
%ADD33RoundRect,0.200000X0.275000X-0.200000X0.275000X0.200000X-0.275000X0.200000X-0.275000X-0.200000X0*%
%ADD34RoundRect,0.200000X0.200000X0.275000X-0.200000X0.275000X-0.200000X-0.275000X0.200000X-0.275000X0*%
%ADD35RoundRect,0.250000X0.475000X-0.250000X0.475000X0.250000X-0.475000X0.250000X-0.475000X-0.250000X0*%
%ADD36RoundRect,0.100000X0.637500X0.100000X-0.637500X0.100000X-0.637500X-0.100000X0.637500X-0.100000X0*%
%ADD37C,4.000000*%
%ADD38C,1.800000*%
%ADD39RoundRect,0.250000X0.600000X-0.400000X0.600000X0.400000X-0.600000X0.400000X-0.600000X-0.400000X0*%
%ADD40O,3.000000X2.000000*%
%ADD41RoundRect,0.250000X2.450000X-1.200000X2.450000X1.200000X-2.450000X1.200000X-2.450000X-1.200000X0*%
%ADD42RoundRect,0.250000X2.250000X-2.000000X2.250000X2.000000X-2.250000X2.000000X-2.250000X-2.000000X0*%
G04 APERTURE END LIST*
D10*
X83700000Y-137200000D02*
X83900000Y-137400000D01*
X83700000Y-137200000D02*
X83600000Y-137500000D01*
X84000000Y-138300000D02*
X83700000Y-137200000D01*
X82900000Y-138700000D02*
X86300000Y-138700000D01*
X86300000Y-143900000D01*
X82900000Y-143900000D01*
X82900000Y-138700000D01*
X82900000Y-140400000D02*
X86300000Y-140400000D01*
X86300000Y-142200000D02*
X82900000Y-142200000D01*
X84290476Y-140054819D02*
X84623809Y-139578628D01*
X84861904Y-140054819D02*
X84861904Y-139054819D01*
X84861904Y-139054819D02*
X84480952Y-139054819D01*
X84480952Y-139054819D02*
X84385714Y-139102438D01*
X84385714Y-139102438D02*
X84338095Y-139150057D01*
X84338095Y-139150057D02*
X84290476Y-139245295D01*
X84290476Y-139245295D02*
X84290476Y-139388152D01*
X84290476Y-139388152D02*
X84338095Y-139483390D01*
X84338095Y-139483390D02*
X84385714Y-139531009D01*
X84385714Y-139531009D02*
X84480952Y-139578628D01*
X84480952Y-139578628D02*
X84861904Y-139578628D01*
X85409523Y-141754819D02*
X85885713Y-141754819D01*
X85885713Y-141754819D02*
X85885713Y-140754819D01*
X85076189Y-141373866D02*
X84314285Y-141373866D01*
X84695237Y-141754819D02*
X84695237Y-140992914D01*
X83266666Y-141754819D02*
X83599999Y-141278628D01*
X83838094Y-141754819D02*
X83838094Y-140754819D01*
X83838094Y-140754819D02*
X83457142Y-140754819D01*
X83457142Y-140754819D02*
X83361904Y-140802438D01*
X83361904Y-140802438D02*
X83314285Y-140850057D01*
X83314285Y-140850057D02*
X83266666Y-140945295D01*
X83266666Y-140945295D02*
X83266666Y-141088152D01*
X83266666Y-141088152D02*
X83314285Y-141183390D01*
X83314285Y-141183390D02*
X83361904Y-141231009D01*
X83361904Y-141231009D02*
X83457142Y-141278628D01*
X83457142Y-141278628D02*
X83838094Y-141278628D01*
X106133332Y-127269104D02*
X105657142Y-127269104D01*
X106228570Y-127554819D02*
X105895237Y-126554819D01*
X105895237Y-126554819D02*
X105561904Y-127554819D01*
X105228570Y-126554819D02*
X105228570Y-127364342D01*
X105228570Y-127364342D02*
X105180951Y-127459580D01*
X105180951Y-127459580D02*
X105133332Y-127507200D01*
X105133332Y-127507200D02*
X105038094Y-127554819D01*
X105038094Y-127554819D02*
X104847618Y-127554819D01*
X104847618Y-127554819D02*
X104752380Y-127507200D01*
X104752380Y-127507200D02*
X104704761Y-127459580D01*
X104704761Y-127459580D02*
X104657142Y-127364342D01*
X104657142Y-127364342D02*
X104657142Y-126554819D01*
X104180951Y-127554819D02*
X104180951Y-126554819D01*
X104180951Y-126554819D02*
X103942856Y-126554819D01*
X103942856Y-126554819D02*
X103799999Y-126602438D01*
X103799999Y-126602438D02*
X103704761Y-126697676D01*
X103704761Y-126697676D02*
X103657142Y-126792914D01*
X103657142Y-126792914D02*
X103609523Y-126983390D01*
X103609523Y-126983390D02*
X103609523Y-127126247D01*
X103609523Y-127126247D02*
X103657142Y-127316723D01*
X103657142Y-127316723D02*
X103704761Y-127411961D01*
X103704761Y-127411961D02*
X103799999Y-127507200D01*
X103799999Y-127507200D02*
X103942856Y-127554819D01*
X103942856Y-127554819D02*
X104180951Y-127554819D01*
X103180951Y-127554819D02*
X103180951Y-126554819D01*
X102514285Y-126554819D02*
X102323809Y-126554819D01*
X102323809Y-126554819D02*
X102228571Y-126602438D01*
X102228571Y-126602438D02*
X102133333Y-126697676D01*
X102133333Y-126697676D02*
X102085714Y-126888152D01*
X102085714Y-126888152D02*
X102085714Y-127221485D01*
X102085714Y-127221485D02*
X102133333Y-127411961D01*
X102133333Y-127411961D02*
X102228571Y-127507200D01*
X102228571Y-127507200D02*
X102323809Y-127554819D01*
X102323809Y-127554819D02*
X102514285Y-127554819D01*
X102514285Y-127554819D02*
X102609523Y-127507200D01*
X102609523Y-127507200D02*
X102704761Y-127411961D01*
X102704761Y-127411961D02*
X102752380Y-127221485D01*
X102752380Y-127221485D02*
X102752380Y-126888152D01*
X102752380Y-126888152D02*
X102704761Y-126697676D01*
X102704761Y-126697676D02*
X102609523Y-126602438D01*
X102609523Y-126602438D02*
X102514285Y-126554819D01*
X100704761Y-126554819D02*
X100514285Y-126554819D01*
X100514285Y-126554819D02*
X100419047Y-126602438D01*
X100419047Y-126602438D02*
X100323809Y-126697676D01*
X100323809Y-126697676D02*
X100276190Y-126888152D01*
X100276190Y-126888152D02*
X100276190Y-127221485D01*
X100276190Y-127221485D02*
X100323809Y-127411961D01*
X100323809Y-127411961D02*
X100419047Y-127507200D01*
X100419047Y-127507200D02*
X100514285Y-127554819D01*
X100514285Y-127554819D02*
X100704761Y-127554819D01*
X100704761Y-127554819D02*
X100799999Y-127507200D01*
X100799999Y-127507200D02*
X100895237Y-127411961D01*
X100895237Y-127411961D02*
X100942856Y-127221485D01*
X100942856Y-127221485D02*
X100942856Y-126888152D01*
X100942856Y-126888152D02*
X100895237Y-126697676D01*
X100895237Y-126697676D02*
X100799999Y-126602438D01*
X100799999Y-126602438D02*
X100704761Y-126554819D01*
X99847618Y-126554819D02*
X99847618Y-127364342D01*
X99847618Y-127364342D02*
X99799999Y-127459580D01*
X99799999Y-127459580D02*
X99752380Y-127507200D01*
X99752380Y-127507200D02*
X99657142Y-127554819D01*
X99657142Y-127554819D02*
X99466666Y-127554819D01*
X99466666Y-127554819D02*
X99371428Y-127507200D01*
X99371428Y-127507200D02*
X99323809Y-127459580D01*
X99323809Y-127459580D02*
X99276190Y-127364342D01*
X99276190Y-127364342D02*
X99276190Y-126554819D01*
X98942856Y-126554819D02*
X98371428Y-126554819D01*
X98657142Y-127554819D02*
X98657142Y-126554819D01*
X114109523Y-128554819D02*
X114109523Y-127554819D01*
X114109523Y-127554819D02*
X113728571Y-127554819D01*
X113728571Y-127554819D02*
X113633333Y-127602438D01*
X113633333Y-127602438D02*
X113585714Y-127650057D01*
X113585714Y-127650057D02*
X113538095Y-127745295D01*
X113538095Y-127745295D02*
X113538095Y-127888152D01*
X113538095Y-127888152D02*
X113585714Y-127983390D01*
X113585714Y-127983390D02*
X113633333Y-128031009D01*
X113633333Y-128031009D02*
X113728571Y-128078628D01*
X113728571Y-128078628D02*
X114109523Y-128078628D01*
X112919047Y-127554819D02*
X112728571Y-127554819D01*
X112728571Y-127554819D02*
X112633333Y-127602438D01*
X112633333Y-127602438D02*
X112538095Y-127697676D01*
X112538095Y-127697676D02*
X112490476Y-127888152D01*
X112490476Y-127888152D02*
X112490476Y-128221485D01*
X112490476Y-128221485D02*
X112538095Y-128411961D01*
X112538095Y-128411961D02*
X112633333Y-128507200D01*
X112633333Y-128507200D02*
X112728571Y-128554819D01*
X112728571Y-128554819D02*
X112919047Y-128554819D01*
X112919047Y-128554819D02*
X113014285Y-128507200D01*
X113014285Y-128507200D02*
X113109523Y-128411961D01*
X113109523Y-128411961D02*
X113157142Y-128221485D01*
X113157142Y-128221485D02*
X113157142Y-127888152D01*
X113157142Y-127888152D02*
X113109523Y-127697676D01*
X113109523Y-127697676D02*
X113014285Y-127602438D01*
X113014285Y-127602438D02*
X112919047Y-127554819D01*
X112157142Y-127554819D02*
X111919047Y-128554819D01*
X111919047Y-128554819D02*
X111728571Y-127840533D01*
X111728571Y-127840533D02*
X111538095Y-128554819D01*
X111538095Y-128554819D02*
X111300000Y-127554819D01*
X110919047Y-128031009D02*
X110585714Y-128031009D01*
X110442857Y-128554819D02*
X110919047Y-128554819D01*
X110919047Y-128554819D02*
X110919047Y-127554819D01*
X110919047Y-127554819D02*
X110442857Y-127554819D01*
X109442857Y-128554819D02*
X109776190Y-128078628D01*
X110014285Y-128554819D02*
X110014285Y-127554819D01*
X110014285Y-127554819D02*
X109633333Y-127554819D01*
X109633333Y-127554819D02*
X109538095Y-127602438D01*
X109538095Y-127602438D02*
X109490476Y-127650057D01*
X109490476Y-127650057D02*
X109442857Y-127745295D01*
X109442857Y-127745295D02*
X109442857Y-127888152D01*
X109442857Y-127888152D02*
X109490476Y-127983390D01*
X109490476Y-127983390D02*
X109538095Y-128031009D01*
X109538095Y-128031009D02*
X109633333Y-128078628D01*
X109633333Y-128078628D02*
X110014285Y-128078628D01*
X84190476Y-143554819D02*
X84666666Y-143554819D01*
X84666666Y-143554819D02*
X84666666Y-142554819D01*
X76328571Y-126702438D02*
X76423809Y-126654819D01*
X76423809Y-126654819D02*
X76566666Y-126654819D01*
X76566666Y-126654819D02*
X76709523Y-126702438D01*
X76709523Y-126702438D02*
X76804761Y-126797676D01*
X76804761Y-126797676D02*
X76852380Y-126892914D01*
X76852380Y-126892914D02*
X76899999Y-127083390D01*
X76899999Y-127083390D02*
X76899999Y-127226247D01*
X76899999Y-127226247D02*
X76852380Y-127416723D01*
X76852380Y-127416723D02*
X76804761Y-127511961D01*
X76804761Y-127511961D02*
X76709523Y-127607200D01*
X76709523Y-127607200D02*
X76566666Y-127654819D01*
X76566666Y-127654819D02*
X76471428Y-127654819D01*
X76471428Y-127654819D02*
X76328571Y-127607200D01*
X76328571Y-127607200D02*
X76280952Y-127559580D01*
X76280952Y-127559580D02*
X76280952Y-127226247D01*
X76280952Y-127226247D02*
X76471428Y-127226247D01*
X75899999Y-127369104D02*
X75423809Y-127369104D01*
X75995237Y-127654819D02*
X75661904Y-126654819D01*
X75661904Y-126654819D02*
X75328571Y-127654819D01*
X74995237Y-127654819D02*
X74995237Y-126654819D01*
X74519047Y-127654819D02*
X74519047Y-126654819D01*
X74519047Y-126654819D02*
X73947619Y-127654819D01*
X73947619Y-127654819D02*
X73947619Y-126654819D01*
X94066665Y-127269104D02*
X93590475Y-127269104D01*
X94161903Y-127554819D02*
X93828570Y-126554819D01*
X93828570Y-126554819D02*
X93495237Y-127554819D01*
X93161903Y-126554819D02*
X93161903Y-127364342D01*
X93161903Y-127364342D02*
X93114284Y-127459580D01*
X93114284Y-127459580D02*
X93066665Y-127507200D01*
X93066665Y-127507200D02*
X92971427Y-127554819D01*
X92971427Y-127554819D02*
X92780951Y-127554819D01*
X92780951Y-127554819D02*
X92685713Y-127507200D01*
X92685713Y-127507200D02*
X92638094Y-127459580D01*
X92638094Y-127459580D02*
X92590475Y-127364342D01*
X92590475Y-127364342D02*
X92590475Y-126554819D01*
X92114284Y-127554819D02*
X92114284Y-126554819D01*
X92114284Y-126554819D02*
X91876189Y-126554819D01*
X91876189Y-126554819D02*
X91733332Y-126602438D01*
X91733332Y-126602438D02*
X91638094Y-126697676D01*
X91638094Y-126697676D02*
X91590475Y-126792914D01*
X91590475Y-126792914D02*
X91542856Y-126983390D01*
X91542856Y-126983390D02*
X91542856Y-127126247D01*
X91542856Y-127126247D02*
X91590475Y-127316723D01*
X91590475Y-127316723D02*
X91638094Y-127411961D01*
X91638094Y-127411961D02*
X91733332Y-127507200D01*
X91733332Y-127507200D02*
X91876189Y-127554819D01*
X91876189Y-127554819D02*
X92114284Y-127554819D01*
X91114284Y-127554819D02*
X91114284Y-126554819D01*
X90447618Y-126554819D02*
X90257142Y-126554819D01*
X90257142Y-126554819D02*
X90161904Y-126602438D01*
X90161904Y-126602438D02*
X90066666Y-126697676D01*
X90066666Y-126697676D02*
X90019047Y-126888152D01*
X90019047Y-126888152D02*
X90019047Y-127221485D01*
X90019047Y-127221485D02*
X90066666Y-127411961D01*
X90066666Y-127411961D02*
X90161904Y-127507200D01*
X90161904Y-127507200D02*
X90257142Y-127554819D01*
X90257142Y-127554819D02*
X90447618Y-127554819D01*
X90447618Y-127554819D02*
X90542856Y-127507200D01*
X90542856Y-127507200D02*
X90638094Y-127411961D01*
X90638094Y-127411961D02*
X90685713Y-127221485D01*
X90685713Y-127221485D02*
X90685713Y-126888152D01*
X90685713Y-126888152D02*
X90638094Y-126697676D01*
X90638094Y-126697676D02*
X90542856Y-126602438D01*
X90542856Y-126602438D02*
X90447618Y-126554819D01*
X88828570Y-127554819D02*
X88828570Y-126554819D01*
X88352380Y-127554819D02*
X88352380Y-126554819D01*
X88352380Y-126554819D02*
X87780952Y-127554819D01*
X87780952Y-127554819D02*
X87780952Y-126554819D01*
X102933333Y-139054819D02*
X102933333Y-139769104D01*
X102933333Y-139769104D02*
X102980952Y-139911961D01*
X102980952Y-139911961D02*
X103076190Y-140007200D01*
X103076190Y-140007200D02*
X103219047Y-140054819D01*
X103219047Y-140054819D02*
X103314285Y-140054819D01*
X102552380Y-139054819D02*
X101933333Y-139054819D01*
X101933333Y-139054819D02*
X102266666Y-139435771D01*
X102266666Y-139435771D02*
X102123809Y-139435771D01*
X102123809Y-139435771D02*
X102028571Y-139483390D01*
X102028571Y-139483390D02*
X101980952Y-139531009D01*
X101980952Y-139531009D02*
X101933333Y-139626247D01*
X101933333Y-139626247D02*
X101933333Y-139864342D01*
X101933333Y-139864342D02*
X101980952Y-139959580D01*
X101980952Y-139959580D02*
X102028571Y-140007200D01*
X102028571Y-140007200D02*
X102123809Y-140054819D01*
X102123809Y-140054819D02*
X102409523Y-140054819D01*
X102409523Y-140054819D02*
X102504761Y-140007200D01*
X102504761Y-140007200D02*
X102552380Y-139959580D01*
X88133333Y-139054819D02*
X88133333Y-139769104D01*
X88133333Y-139769104D02*
X88180952Y-139911961D01*
X88180952Y-139911961D02*
X88276190Y-140007200D01*
X88276190Y-140007200D02*
X88419047Y-140054819D01*
X88419047Y-140054819D02*
X88514285Y-140054819D01*
X87704761Y-139150057D02*
X87657142Y-139102438D01*
X87657142Y-139102438D02*
X87561904Y-139054819D01*
X87561904Y-139054819D02*
X87323809Y-139054819D01*
X87323809Y-139054819D02*
X87228571Y-139102438D01*
X87228571Y-139102438D02*
X87180952Y-139150057D01*
X87180952Y-139150057D02*
X87133333Y-139245295D01*
X87133333Y-139245295D02*
X87133333Y-139340533D01*
X87133333Y-139340533D02*
X87180952Y-139483390D01*
X87180952Y-139483390D02*
X87752380Y-140054819D01*
X87752380Y-140054819D02*
X87133333Y-140054819D01*
X132059580Y-138733333D02*
X132107200Y-138685714D01*
X132107200Y-138685714D02*
X132154819Y-138542857D01*
X132154819Y-138542857D02*
X132154819Y-138447619D01*
X132154819Y-138447619D02*
X132107200Y-138304762D01*
X132107200Y-138304762D02*
X132011961Y-138209524D01*
X132011961Y-138209524D02*
X131916723Y-138161905D01*
X131916723Y-138161905D02*
X131726247Y-138114286D01*
X131726247Y-138114286D02*
X131583390Y-138114286D01*
X131583390Y-138114286D02*
X131392914Y-138161905D01*
X131392914Y-138161905D02*
X131297676Y-138209524D01*
X131297676Y-138209524D02*
X131202438Y-138304762D01*
X131202438Y-138304762D02*
X131154819Y-138447619D01*
X131154819Y-138447619D02*
X131154819Y-138542857D01*
X131154819Y-138542857D02*
X131202438Y-138685714D01*
X131202438Y-138685714D02*
X131250057Y-138733333D01*
X131154819Y-139066667D02*
X131154819Y-139685714D01*
X131154819Y-139685714D02*
X131535771Y-139352381D01*
X131535771Y-139352381D02*
X131535771Y-139495238D01*
X131535771Y-139495238D02*
X131583390Y-139590476D01*
X131583390Y-139590476D02*
X131631009Y-139638095D01*
X131631009Y-139638095D02*
X131726247Y-139685714D01*
X131726247Y-139685714D02*
X131964342Y-139685714D01*
X131964342Y-139685714D02*
X132059580Y-139638095D01*
X132059580Y-139638095D02*
X132107200Y-139590476D01*
X132107200Y-139590476D02*
X132154819Y-139495238D01*
X132154819Y-139495238D02*
X132154819Y-139209524D01*
X132154819Y-139209524D02*
X132107200Y-139114286D01*
X132107200Y-139114286D02*
X132059580Y-139066667D01*
X122854819Y-160538095D02*
X123664342Y-160538095D01*
X123664342Y-160538095D02*
X123759580Y-160585714D01*
X123759580Y-160585714D02*
X123807200Y-160633333D01*
X123807200Y-160633333D02*
X123854819Y-160728571D01*
X123854819Y-160728571D02*
X123854819Y-160919047D01*
X123854819Y-160919047D02*
X123807200Y-161014285D01*
X123807200Y-161014285D02*
X123759580Y-161061904D01*
X123759580Y-161061904D02*
X123664342Y-161109523D01*
X123664342Y-161109523D02*
X122854819Y-161109523D01*
X122950057Y-161538095D02*
X122902438Y-161585714D01*
X122902438Y-161585714D02*
X122854819Y-161680952D01*
X122854819Y-161680952D02*
X122854819Y-161919047D01*
X122854819Y-161919047D02*
X122902438Y-162014285D01*
X122902438Y-162014285D02*
X122950057Y-162061904D01*
X122950057Y-162061904D02*
X123045295Y-162109523D01*
X123045295Y-162109523D02*
X123140533Y-162109523D01*
X123140533Y-162109523D02*
X123283390Y-162061904D01*
X123283390Y-162061904D02*
X123854819Y-161490476D01*
X123854819Y-161490476D02*
X123854819Y-162109523D01*
X55638094Y-155654819D02*
X55638094Y-154654819D01*
X55638094Y-154654819D02*
X55399999Y-154654819D01*
X55399999Y-154654819D02*
X55257142Y-154702438D01*
X55257142Y-154702438D02*
X55161904Y-154797676D01*
X55161904Y-154797676D02*
X55114285Y-154892914D01*
X55114285Y-154892914D02*
X55066666Y-155083390D01*
X55066666Y-155083390D02*
X55066666Y-155226247D01*
X55066666Y-155226247D02*
X55114285Y-155416723D01*
X55114285Y-155416723D02*
X55161904Y-155511961D01*
X55161904Y-155511961D02*
X55257142Y-155607200D01*
X55257142Y-155607200D02*
X55399999Y-155654819D01*
X55399999Y-155654819D02*
X55638094Y-155654819D01*
X54685713Y-154750057D02*
X54638094Y-154702438D01*
X54638094Y-154702438D02*
X54542856Y-154654819D01*
X54542856Y-154654819D02*
X54304761Y-154654819D01*
X54304761Y-154654819D02*
X54209523Y-154702438D01*
X54209523Y-154702438D02*
X54161904Y-154750057D01*
X54161904Y-154750057D02*
X54114285Y-154845295D01*
X54114285Y-154845295D02*
X54114285Y-154940533D01*
X54114285Y-154940533D02*
X54161904Y-155083390D01*
X54161904Y-155083390D02*
X54733332Y-155654819D01*
X54733332Y-155654819D02*
X54114285Y-155654819D01*
X118133333Y-138454819D02*
X118133333Y-139169104D01*
X118133333Y-139169104D02*
X118180952Y-139311961D01*
X118180952Y-139311961D02*
X118276190Y-139407200D01*
X118276190Y-139407200D02*
X118419047Y-139454819D01*
X118419047Y-139454819D02*
X118514285Y-139454819D01*
X117133333Y-139454819D02*
X117704761Y-139454819D01*
X117419047Y-139454819D02*
X117419047Y-138454819D01*
X117419047Y-138454819D02*
X117514285Y-138597676D01*
X117514285Y-138597676D02*
X117609523Y-138692914D01*
X117609523Y-138692914D02*
X117704761Y-138740533D01*
X119019048Y-129826133D02*
X119780953Y-129826133D01*
X118719048Y-133626133D02*
X119480953Y-133626133D01*
X119100000Y-133245180D02*
X119100000Y-134007085D01*
X58461904Y-134454819D02*
X58461904Y-135264342D01*
X58461904Y-135264342D02*
X58414285Y-135359580D01*
X58414285Y-135359580D02*
X58366666Y-135407200D01*
X58366666Y-135407200D02*
X58271428Y-135454819D01*
X58271428Y-135454819D02*
X58080952Y-135454819D01*
X58080952Y-135454819D02*
X57985714Y-135407200D01*
X57985714Y-135407200D02*
X57938095Y-135359580D01*
X57938095Y-135359580D02*
X57890476Y-135264342D01*
X57890476Y-135264342D02*
X57890476Y-134454819D01*
X56985714Y-134788152D02*
X56985714Y-135454819D01*
X57223809Y-134407200D02*
X57461904Y-135121485D01*
X57461904Y-135121485D02*
X56842857Y-135121485D01*
X67645238Y-127654819D02*
X67978571Y-127178628D01*
X68216666Y-127654819D02*
X68216666Y-126654819D01*
X68216666Y-126654819D02*
X67835714Y-126654819D01*
X67835714Y-126654819D02*
X67740476Y-126702438D01*
X67740476Y-126702438D02*
X67692857Y-126750057D01*
X67692857Y-126750057D02*
X67645238Y-126845295D01*
X67645238Y-126845295D02*
X67645238Y-126988152D01*
X67645238Y-126988152D02*
X67692857Y-127083390D01*
X67692857Y-127083390D02*
X67740476Y-127131009D01*
X67740476Y-127131009D02*
X67835714Y-127178628D01*
X67835714Y-127178628D02*
X68216666Y-127178628D01*
X67359523Y-126654819D02*
X67026190Y-127654819D01*
X67026190Y-127654819D02*
X66692857Y-126654819D01*
X65835714Y-127654819D02*
X66407142Y-127654819D01*
X66121428Y-127654819D02*
X66121428Y-126654819D01*
X66121428Y-126654819D02*
X66216666Y-126797676D01*
X66216666Y-126797676D02*
X66311904Y-126892914D01*
X66311904Y-126892914D02*
X66407142Y-126940533D01*
X127454819Y-141461905D02*
X126454819Y-141461905D01*
X126454819Y-141461905D02*
X126454819Y-141700000D01*
X126454819Y-141700000D02*
X126502438Y-141842857D01*
X126502438Y-141842857D02*
X126597676Y-141938095D01*
X126597676Y-141938095D02*
X126692914Y-141985714D01*
X126692914Y-141985714D02*
X126883390Y-142033333D01*
X126883390Y-142033333D02*
X127026247Y-142033333D01*
X127026247Y-142033333D02*
X127216723Y-141985714D01*
X127216723Y-141985714D02*
X127311961Y-141938095D01*
X127311961Y-141938095D02*
X127407200Y-141842857D01*
X127407200Y-141842857D02*
X127454819Y-141700000D01*
X127454819Y-141700000D02*
X127454819Y-141461905D01*
X126454819Y-142366667D02*
X126454819Y-142985714D01*
X126454819Y-142985714D02*
X126835771Y-142652381D01*
X126835771Y-142652381D02*
X126835771Y-142795238D01*
X126835771Y-142795238D02*
X126883390Y-142890476D01*
X126883390Y-142890476D02*
X126931009Y-142938095D01*
X126931009Y-142938095D02*
X127026247Y-142985714D01*
X127026247Y-142985714D02*
X127264342Y-142985714D01*
X127264342Y-142985714D02*
X127359580Y-142938095D01*
X127359580Y-142938095D02*
X127407200Y-142890476D01*
X127407200Y-142890476D02*
X127454819Y-142795238D01*
X127454819Y-142795238D02*
X127454819Y-142509524D01*
X127454819Y-142509524D02*
X127407200Y-142414286D01*
X127407200Y-142414286D02*
X127359580Y-142366667D01*
X112433332Y-138707200D02*
X112290475Y-138754819D01*
X112290475Y-138754819D02*
X112052380Y-138754819D01*
X112052380Y-138754819D02*
X111957142Y-138707200D01*
X111957142Y-138707200D02*
X111909523Y-138659580D01*
X111909523Y-138659580D02*
X111861904Y-138564342D01*
X111861904Y-138564342D02*
X111861904Y-138469104D01*
X111861904Y-138469104D02*
X111909523Y-138373866D01*
X111909523Y-138373866D02*
X111957142Y-138326247D01*
X111957142Y-138326247D02*
X112052380Y-138278628D01*
X112052380Y-138278628D02*
X112242856Y-138231009D01*
X112242856Y-138231009D02*
X112338094Y-138183390D01*
X112338094Y-138183390D02*
X112385713Y-138135771D01*
X112385713Y-138135771D02*
X112433332Y-138040533D01*
X112433332Y-138040533D02*
X112433332Y-137945295D01*
X112433332Y-137945295D02*
X112385713Y-137850057D01*
X112385713Y-137850057D02*
X112338094Y-137802438D01*
X112338094Y-137802438D02*
X112242856Y-137754819D01*
X112242856Y-137754819D02*
X112004761Y-137754819D01*
X112004761Y-137754819D02*
X111861904Y-137802438D01*
X111528570Y-137754819D02*
X111290475Y-138754819D01*
X111290475Y-138754819D02*
X111099999Y-138040533D01*
X111099999Y-138040533D02*
X110909523Y-138754819D01*
X110909523Y-138754819D02*
X110671428Y-137754819D01*
X109766666Y-138754819D02*
X110338094Y-138754819D01*
X110052380Y-138754819D02*
X110052380Y-137754819D01*
X110052380Y-137754819D02*
X110147618Y-137897676D01*
X110147618Y-137897676D02*
X110242856Y-137992914D01*
X110242856Y-137992914D02*
X110338094Y-138040533D01*
X130154819Y-150233333D02*
X130154819Y-149757143D01*
X130154819Y-149757143D02*
X129154819Y-149757143D01*
X130154819Y-151090476D02*
X130154819Y-150519048D01*
X130154819Y-150804762D02*
X129154819Y-150804762D01*
X129154819Y-150804762D02*
X129297676Y-150709524D01*
X129297676Y-150709524D02*
X129392914Y-150614286D01*
X129392914Y-150614286D02*
X129440533Y-150519048D01*
X52116666Y-146454819D02*
X52592856Y-146454819D01*
X52592856Y-146454819D02*
X52592856Y-145454819D01*
X51878570Y-145454819D02*
X51259523Y-145454819D01*
X51259523Y-145454819D02*
X51592856Y-145835771D01*
X51592856Y-145835771D02*
X51449999Y-145835771D01*
X51449999Y-145835771D02*
X51354761Y-145883390D01*
X51354761Y-145883390D02*
X51307142Y-145931009D01*
X51307142Y-145931009D02*
X51259523Y-146026247D01*
X51259523Y-146026247D02*
X51259523Y-146264342D01*
X51259523Y-146264342D02*
X51307142Y-146359580D01*
X51307142Y-146359580D02*
X51354761Y-146407200D01*
X51354761Y-146407200D02*
X51449999Y-146454819D01*
X51449999Y-146454819D02*
X51735713Y-146454819D01*
X51735713Y-146454819D02*
X51830951Y-146407200D01*
X51830951Y-146407200D02*
X51878570Y-146359580D01*
X59159580Y-161633333D02*
X59207200Y-161585714D01*
X59207200Y-161585714D02*
X59254819Y-161442857D01*
X59254819Y-161442857D02*
X59254819Y-161347619D01*
X59254819Y-161347619D02*
X59207200Y-161204762D01*
X59207200Y-161204762D02*
X59111961Y-161109524D01*
X59111961Y-161109524D02*
X59016723Y-161061905D01*
X59016723Y-161061905D02*
X58826247Y-161014286D01*
X58826247Y-161014286D02*
X58683390Y-161014286D01*
X58683390Y-161014286D02*
X58492914Y-161061905D01*
X58492914Y-161061905D02*
X58397676Y-161109524D01*
X58397676Y-161109524D02*
X58302438Y-161204762D01*
X58302438Y-161204762D02*
X58254819Y-161347619D01*
X58254819Y-161347619D02*
X58254819Y-161442857D01*
X58254819Y-161442857D02*
X58302438Y-161585714D01*
X58302438Y-161585714D02*
X58350057Y-161633333D01*
X59254819Y-162585714D02*
X59254819Y-162014286D01*
X59254819Y-162300000D02*
X58254819Y-162300000D01*
X58254819Y-162300000D02*
X58397676Y-162204762D01*
X58397676Y-162204762D02*
X58492914Y-162109524D01*
X58492914Y-162109524D02*
X58540533Y-162014286D01*
D11*
G04 #@! TO.C,C67*
X72900000Y-157900000D02*
X72900000Y-154900000D01*
X74900000Y-154900000D02*
X74900000Y-157900000D01*
X72900000Y-157900000D02*
G75*
G03*
X74900000Y-157900000I1000000J1122254D01*
G01*
X74900000Y-154900000D02*
G75*
G03*
X72900000Y-154900000I-1000000J-1122254D01*
G01*
G04 #@! TO.C,J3*
X106000000Y-138600000D02*
X98800000Y-138600000D01*
X107000000Y-138100000D02*
X106000000Y-138600000D01*
X98800000Y-138600000D02*
X97800000Y-138100000D01*
X97800000Y-127900000D02*
X107000000Y-127900000D01*
X107000000Y-127900000D02*
X107000000Y-138100000D01*
X97800000Y-138100000D02*
X97800000Y-127900000D01*
G04 #@! TO.C,J2*
X95500000Y-127900000D02*
X95500000Y-138100000D01*
X86300000Y-127900000D02*
X95500000Y-127900000D01*
X87300000Y-138600000D02*
X86300000Y-138100000D01*
X86300000Y-138100000D02*
X86300000Y-127900000D01*
X95500000Y-138100000D02*
X94500000Y-138600000D01*
X94500000Y-138600000D02*
X87300000Y-138600000D01*
G04 #@! TO.C,C3*
X126900000Y-140000000D02*
X126900000Y-137800000D01*
X135300000Y-135300000D02*
X135300000Y-137800000D01*
X135300000Y-137800000D02*
X136500000Y-137800000D01*
X136500000Y-140000000D02*
X135300000Y-140000000D01*
X129200000Y-135300000D02*
X135300000Y-135300000D01*
X127006250Y-140700000D02*
X127793750Y-140700000D01*
X128100000Y-136400000D02*
X129200000Y-135300000D01*
X135300000Y-142500000D02*
X129200000Y-142500000D01*
X129200000Y-142500000D02*
X128100000Y-141400000D01*
X136500000Y-137800000D02*
X136500000Y-140000000D01*
X135300000Y-140000000D02*
X135300000Y-142500000D01*
X126900000Y-137800000D02*
X128100000Y-137800000D01*
X127400000Y-141093750D02*
X127400000Y-140306250D01*
X128100000Y-140000000D02*
X126900000Y-140000000D01*
X128100000Y-137800000D02*
X128100000Y-136400000D01*
X128100000Y-141400000D02*
X128100000Y-140000000D01*
G04 #@! TO.C,C24*
X59800000Y-130599998D02*
X62400000Y-130600000D01*
X62400000Y-132200002D02*
X59800000Y-132200000D01*
X59800001Y-130599999D02*
G75*
G03*
X59800001Y-132199999I840223J-800000D01*
G01*
X62399999Y-132200001D02*
G75*
G03*
X62399999Y-130600001I-840223J800000D01*
G01*
D12*
G04 #@! TO.C,U2*
X120763500Y-157700000D02*
G75*
G03*
X120763500Y-157700000I-63500J0D01*
G01*
D11*
X126100000Y-165100000D02*
X120500000Y-165100000D01*
X121000000Y-157500000D02*
X126100000Y-157500000D01*
X120500000Y-165100000D02*
X120500000Y-158000000D01*
X126100000Y-157500000D02*
X126100000Y-165100000D01*
G04 #@! TO.C,R27*
X102500000Y-162800000D02*
X105500000Y-162800000D01*
X105500000Y-162800000D02*
X105500000Y-164400000D01*
X102500000Y-164400000D02*
X102500000Y-162800000D01*
X105500000Y-164400000D02*
X102500000Y-164400000D01*
G04 #@! TO.C,C43*
X91800002Y-160300000D02*
X91800000Y-162900000D01*
X90199998Y-162900000D02*
X90200000Y-160300000D01*
X91800001Y-160300001D02*
G75*
G03*
X90200001Y-160300001I-800000J-840223D01*
G01*
X90199999Y-162899999D02*
G75*
G03*
X91799999Y-162899999I800000J840223D01*
G01*
G04 #@! TO.C,R19*
X90900000Y-154100000D02*
X89300000Y-154100000D01*
X90900000Y-151100000D02*
X90900000Y-154100000D01*
X89300000Y-151100000D02*
X90900000Y-151100000D01*
X89300000Y-154100000D02*
X89300000Y-151100000D01*
G04 #@! TO.C,R16*
X112400000Y-163000000D02*
X109400000Y-163000000D01*
X109400000Y-161400000D02*
X112400000Y-161400000D01*
X112400000Y-161400000D02*
X112400000Y-163000000D01*
X109400000Y-163000000D02*
X109400000Y-161400000D01*
G04 #@! TO.C,C52*
X86500002Y-154400000D02*
X86500000Y-157000000D01*
X84899998Y-157000000D02*
X84900000Y-154400000D01*
X86500001Y-154400001D02*
G75*
G03*
X84900001Y-154400001I-800000J-840223D01*
G01*
X84899999Y-156999999D02*
G75*
G03*
X86499999Y-156999999I800000J840223D01*
G01*
G04 #@! TO.C,R17*
X105500000Y-162764166D02*
X102500000Y-162764166D01*
X102500000Y-162764166D02*
X102500000Y-161164166D01*
X102500000Y-161164166D02*
X105500000Y-161164166D01*
X105500000Y-161164166D02*
X105500000Y-162764166D01*
G04 #@! TO.C,R24*
X73000000Y-161600000D02*
X73000000Y-163200000D01*
X73000000Y-163200000D02*
X70000000Y-163200000D01*
X70000000Y-163200000D02*
X70000000Y-161600000D01*
X70000000Y-161600000D02*
X73000000Y-161600000D01*
G04 #@! TO.C,C62*
X88100002Y-154400000D02*
X88100000Y-157000000D01*
X86499998Y-157000000D02*
X86500000Y-154400000D01*
X86499999Y-156999999D02*
G75*
G03*
X88099999Y-156999999I800000J840223D01*
G01*
X88100001Y-154400001D02*
G75*
G03*
X86500001Y-154400001I-800000J-840223D01*
G01*
G04 #@! TO.C,D2*
X61700000Y-157400000D02*
X56300000Y-157400000D01*
X56300000Y-157400000D02*
X56300000Y-155000000D01*
X61700000Y-155000000D02*
X61700000Y-157400000D01*
X56300000Y-155000000D02*
X61700000Y-155000000D01*
D13*
X58300000Y-155000000D02*
X57500000Y-155000000D01*
X57500000Y-154700000D01*
X58300000Y-154700000D01*
X58300000Y-155000000D01*
G36*
X58300000Y-155000000D02*
G01*
X57500000Y-155000000D01*
X57500000Y-154700000D01*
X58300000Y-154700000D01*
X58300000Y-155000000D01*
G37*
X58300000Y-157700000D02*
X57500000Y-157700000D01*
X57500000Y-157400000D01*
X58300000Y-157400000D01*
X58300000Y-157700000D01*
G36*
X58300000Y-157700000D02*
G01*
X57500000Y-157700000D01*
X57500000Y-157400000D01*
X58300000Y-157400000D01*
X58300000Y-157700000D01*
G37*
D11*
G04 #@! TO.C,C35*
X78999998Y-163000000D02*
X79000000Y-160400000D01*
X80600002Y-160400000D02*
X80600000Y-163000000D01*
X78999999Y-162999999D02*
G75*
G03*
X80599999Y-162999999I800000J840223D01*
G01*
X80600001Y-160400001D02*
G75*
G03*
X79000001Y-160400001I-800000J-840223D01*
G01*
G04 #@! TO.C,R57*
X103500000Y-155300000D02*
X106500000Y-155300000D01*
X106500000Y-156900000D02*
X103500000Y-156900000D01*
X103500000Y-156900000D02*
X103500000Y-155300000D01*
X106500000Y-155300000D02*
X106500000Y-156900000D01*
G04 #@! TO.C,R63*
X69700000Y-154300000D02*
X69700000Y-151300000D01*
X69700000Y-151300000D02*
X71300000Y-151300000D01*
X71300000Y-151300000D02*
X71300000Y-154300000D01*
X71300000Y-154300000D02*
X69700000Y-154300000D01*
G04 #@! TO.C,R49*
X85100000Y-151000000D02*
X86700000Y-151000000D01*
X86700000Y-151000000D02*
X86700000Y-154000000D01*
X85100000Y-154000000D02*
X85100000Y-151000000D01*
X86700000Y-154000000D02*
X85100000Y-154000000D01*
G04 #@! TO.C,R55*
X51900000Y-134000000D02*
X53500000Y-134000000D01*
X53500000Y-134000000D02*
X53500000Y-137000000D01*
X51900000Y-137000000D02*
X51900000Y-134000000D01*
X53500000Y-137000000D02*
X51900000Y-137000000D01*
G04 #@! TO.C,C30*
X108700002Y-161500000D02*
X108700000Y-164100000D01*
X107099998Y-164100000D02*
X107100000Y-161500000D01*
X107099999Y-164099999D02*
G75*
G03*
X108699999Y-164099999I800000J840223D01*
G01*
X108700001Y-161500001D02*
G75*
G03*
X107100001Y-161500001I-800000J-840223D01*
G01*
G04 #@! TO.C,J1*
X125600000Y-127500000D02*
X125600000Y-129900000D01*
X116850000Y-137950000D02*
X125150000Y-137950000D01*
X116400000Y-127500000D02*
X116400000Y-137500000D01*
X125600000Y-137500000D02*
X125600000Y-131800000D01*
X125150000Y-127050000D02*
X116850000Y-127050000D01*
X125600000Y-127500000D02*
G75*
G03*
X125150000Y-127050000I-450000J0D01*
G01*
X116850000Y-127050000D02*
G75*
G03*
X116400000Y-127500000I0J-450000D01*
G01*
X116400000Y-137500000D02*
G75*
G03*
X116850000Y-137950000I450000J0D01*
G01*
X125150000Y-137950000D02*
G75*
G03*
X125600000Y-137500000I0J450000D01*
G01*
G04 #@! TO.C,R46*
X110600000Y-158600000D02*
X110600000Y-157000000D01*
X113600000Y-158600000D02*
X110600000Y-158600000D01*
X110600000Y-157000000D02*
X113600000Y-157000000D01*
X113600000Y-157000000D02*
X113600000Y-158600000D01*
G04 #@! TO.C,R35*
X58100000Y-127000000D02*
X58100000Y-130000000D01*
X56500000Y-130000000D02*
X56500000Y-127000000D01*
X56500000Y-127000000D02*
X58100000Y-127000000D01*
X58100000Y-130000000D02*
X56500000Y-130000000D01*
G04 #@! TO.C,R62*
X82300000Y-163300000D02*
X85300000Y-163300000D01*
X85300000Y-163300000D02*
X85300000Y-164900000D01*
X85300000Y-164900000D02*
X82300000Y-164900000D01*
X82300000Y-164900000D02*
X82300000Y-163300000D01*
G04 #@! TO.C,R30*
X93400000Y-164800000D02*
X90400000Y-164800000D01*
X93400000Y-163200000D02*
X93400000Y-164800000D01*
X90400000Y-164800000D02*
X90400000Y-163200000D01*
X90400000Y-163200000D02*
X93400000Y-163200000D01*
G04 #@! TO.C,C42*
X89699998Y-157000000D02*
X89700000Y-154400000D01*
X91300002Y-154400000D02*
X91300000Y-157000000D01*
X91300001Y-154400001D02*
G75*
G03*
X89700001Y-154400001I-800000J-840223D01*
G01*
X89699999Y-156999999D02*
G75*
G03*
X91299999Y-156999999I800000J840223D01*
G01*
G04 #@! TO.C,R45*
X56000000Y-132200000D02*
X53000000Y-132200000D01*
X53000000Y-132200000D02*
X53000000Y-130600000D01*
X56000000Y-130600000D02*
X56000000Y-132200000D01*
X53000000Y-130600000D02*
X56000000Y-130600000D01*
G04 #@! TO.C,R32*
X79000000Y-164000000D02*
X79000000Y-165600000D01*
X79000000Y-165600000D02*
X76000000Y-165600000D01*
X76000000Y-165600000D02*
X76000000Y-164000000D01*
X76000000Y-164000000D02*
X79000000Y-164000000D01*
G04 #@! TO.C,R53*
X71300000Y-154300000D02*
X71300000Y-157300000D01*
X69700000Y-154300000D02*
X71300000Y-154300000D01*
X71300000Y-157300000D02*
X69700000Y-157300000D01*
X69700000Y-157300000D02*
X69700000Y-154300000D01*
G04 #@! TO.C,R20*
X91800000Y-163200000D02*
X91800000Y-160200000D01*
X91800000Y-160200000D02*
X93400000Y-160200000D01*
X93400000Y-163200000D02*
X91800000Y-163200000D01*
X93400000Y-160200000D02*
X93400000Y-163200000D01*
G04 #@! TO.C,R34*
X70000000Y-164800000D02*
X70000000Y-163200000D01*
X73000000Y-164800000D02*
X70000000Y-164800000D01*
X73000000Y-163200000D02*
X73000000Y-164800000D01*
X70000000Y-163200000D02*
X73000000Y-163200000D01*
G04 #@! TO.C,R31*
X82900000Y-151000000D02*
X82900000Y-148000000D01*
X84500000Y-151000000D02*
X82900000Y-151000000D01*
X84500000Y-148000000D02*
X84500000Y-151000000D01*
X82900000Y-148000000D02*
X84500000Y-148000000D01*
G04 #@! TO.C,C37*
X75000000Y-160600000D02*
X75000000Y-163600000D01*
X73000000Y-163600000D02*
X73000000Y-160600000D01*
X73000000Y-163600000D02*
G75*
G03*
X75000000Y-163600000I1000000J1122254D01*
G01*
X75000000Y-160600000D02*
G75*
G03*
X73000000Y-160600000I-1000000J-1122254D01*
G01*
G04 #@! TO.C,U4*
X53800000Y-132200000D02*
X61000000Y-132200000D01*
X61600000Y-137800000D02*
X53800000Y-137800000D01*
X53800000Y-137800000D02*
X53800000Y-132200000D01*
X61600000Y-132800000D02*
X61600000Y-137800000D01*
D14*
X61463500Y-132400000D02*
G75*
G03*
X61463500Y-132400000I-63500J0D01*
G01*
D11*
G04 #@! TO.C,C54*
X78499998Y-157000000D02*
X78500000Y-154400000D01*
X80100002Y-154400000D02*
X80100000Y-157000000D01*
X80100001Y-154400001D02*
G75*
G03*
X78500001Y-154400001I-800000J-840223D01*
G01*
X78499999Y-156999999D02*
G75*
G03*
X80099999Y-156999999I800000J840223D01*
G01*
G04 #@! TO.C,C48*
X54500000Y-127000000D02*
X54500000Y-130000000D01*
X52500000Y-130000000D02*
X52500000Y-127000000D01*
X54500000Y-127000000D02*
G75*
G03*
X52500000Y-127000000I-1000000J-1122254D01*
G01*
X52500000Y-130000000D02*
G75*
G03*
X54500000Y-130000000I1000000J1122254D01*
G01*
G04 #@! TO.C,R26*
X109400000Y-163000000D02*
X112400000Y-163000000D01*
X109400000Y-164600000D02*
X109400000Y-163000000D01*
X112400000Y-163000000D02*
X112400000Y-164600000D01*
X112400000Y-164600000D02*
X109400000Y-164600000D01*
G04 #@! TO.C,R64*
X78500000Y-155000000D02*
X76900000Y-155000000D01*
X76900000Y-152000000D02*
X78500000Y-152000000D01*
X78500000Y-152000000D02*
X78500000Y-155000000D01*
X76900000Y-155000000D02*
X76900000Y-152000000D01*
G04 #@! TO.C,RV1*
X66800000Y-135600000D02*
X65550000Y-135600000D01*
X77420000Y-138121000D02*
X77420000Y-128080000D01*
X73484000Y-138121000D02*
X77420000Y-138121000D01*
X65180000Y-132229000D02*
X65180000Y-131470000D01*
X66800000Y-134600000D02*
X66800000Y-135600000D01*
X66800000Y-130600000D02*
X65550000Y-130600000D01*
X65180000Y-134729000D02*
X65180000Y-133970000D01*
X65180000Y-128080000D02*
X69117000Y-128080000D01*
X65180000Y-138121000D02*
X69117000Y-138121000D01*
X65180000Y-129730000D02*
X65180000Y-128080000D01*
X66300000Y-133100000D02*
X65550000Y-133100000D01*
X73484000Y-128080000D02*
X77420000Y-128080000D01*
X66800000Y-131600000D02*
X66800000Y-130600000D01*
X65180000Y-138121000D02*
X65180000Y-136471000D01*
X66300000Y-134600000D02*
X67300000Y-134600000D01*
X67300000Y-134600000D02*
X67300000Y-131600000D01*
X67300000Y-131600000D02*
X66300000Y-131600000D01*
X66300000Y-131600000D02*
X66300000Y-134600000D01*
X66300000Y-133100000D02*
X65925000Y-133300000D01*
X65925000Y-132900000D01*
X66300000Y-133100000D01*
G36*
X66300000Y-133100000D02*
G01*
X65925000Y-133300000D01*
X65925000Y-132900000D01*
X66300000Y-133100000D01*
G37*
G04 #@! TO.C,R29*
X89300000Y-151100000D02*
X89300000Y-148100000D01*
X90900000Y-151100000D02*
X89300000Y-151100000D01*
X89300000Y-148100000D02*
X90900000Y-148100000D01*
X90900000Y-148100000D02*
X90900000Y-151100000D01*
G04 #@! TO.C,D3*
X123300000Y-143500000D02*
X123300000Y-138100000D01*
X125700000Y-143500000D02*
X123300000Y-143500000D01*
X125700000Y-138100000D02*
X125700000Y-143500000D01*
X123300000Y-138100000D02*
X125700000Y-138100000D01*
D13*
X126000000Y-142300000D02*
X125700000Y-142300000D01*
X125700000Y-141500000D01*
X126000000Y-141500000D01*
X126000000Y-142300000D01*
G36*
X126000000Y-142300000D02*
G01*
X125700000Y-142300000D01*
X125700000Y-141500000D01*
X126000000Y-141500000D01*
X126000000Y-142300000D01*
G37*
X123300000Y-142300000D02*
X123000000Y-142300000D01*
X123000000Y-141500000D01*
X123300000Y-141500000D01*
X123300000Y-142300000D01*
G36*
X123300000Y-142300000D02*
G01*
X123000000Y-142300000D01*
X123000000Y-141500000D01*
X123300000Y-141500000D01*
X123300000Y-142300000D01*
G37*
D11*
G04 #@! TO.C,C5*
X122400000Y-157200002D02*
X119800000Y-157200000D01*
X119800000Y-155599998D02*
X122400000Y-155600000D01*
X122399999Y-157200001D02*
G75*
G03*
X122399999Y-155600001I-840223J800000D01*
G01*
X119800001Y-155599999D02*
G75*
G03*
X119800001Y-157199999I840223J-800000D01*
G01*
G04 #@! TO.C,C25*
X56600000Y-130599998D02*
X59200000Y-130600000D01*
X59200000Y-132200002D02*
X56600000Y-132200000D01*
X59199999Y-132200001D02*
G75*
G03*
X59199999Y-130600001I-840223J800000D01*
G01*
X56600001Y-130599999D02*
G75*
G03*
X56600001Y-132199999I840223J-800000D01*
G01*
G04 #@! TO.C,R51*
X78500000Y-154000000D02*
X78500000Y-151000000D01*
X80100000Y-154000000D02*
X78500000Y-154000000D01*
X78500000Y-151000000D02*
X80100000Y-151000000D01*
X80100000Y-151000000D02*
X80100000Y-154000000D01*
G04 #@! TO.C,C50*
X108100002Y-155600000D02*
X108100000Y-158200000D01*
X106499998Y-158200000D02*
X106500000Y-155600000D01*
X108100001Y-155600001D02*
G75*
G03*
X106500001Y-155600001I-800000J-840223D01*
G01*
X106499999Y-158199999D02*
G75*
G03*
X108099999Y-158199999I800000J840223D01*
G01*
G04 #@! TO.C,C38*
X56500000Y-127000000D02*
X56500000Y-130000000D01*
X54500000Y-130000000D02*
X54500000Y-127000000D01*
X54500000Y-130000000D02*
G75*
G03*
X56500000Y-130000000I1000000J1122254D01*
G01*
X56500000Y-127000000D02*
G75*
G03*
X54500000Y-127000000I-1000000J-1122254D01*
G01*
G04 #@! TO.C,R47*
X106500000Y-156900000D02*
X106500000Y-158500000D01*
X103500000Y-158500000D02*
X103500000Y-156900000D01*
X106500000Y-158500000D02*
X103500000Y-158500000D01*
X103500000Y-156900000D02*
X106500000Y-156900000D01*
G04 #@! TO.C,C65*
X80599998Y-163000000D02*
X80600000Y-160400000D01*
X82200002Y-160400000D02*
X82200000Y-163000000D01*
X82200001Y-160400001D02*
G75*
G03*
X80600001Y-160400001I-800000J-840223D01*
G01*
X80599999Y-162999999D02*
G75*
G03*
X82199999Y-162999999I800000J840223D01*
G01*
G04 #@! TO.C,JP3*
X84805000Y-134290000D02*
X84805000Y-132960000D01*
X82205000Y-131630000D02*
X79605000Y-131630000D01*
X79605000Y-134290000D02*
X79605000Y-131630000D01*
X82205000Y-134290000D02*
X79605000Y-134290000D01*
X83475000Y-134290000D02*
X84805000Y-134290000D01*
X82205000Y-134290000D02*
X82205000Y-131630000D01*
G04 #@! TO.C,R25*
X59700000Y-127000000D02*
X59700000Y-130000000D01*
X58100000Y-127000000D02*
X59700000Y-127000000D01*
X58100000Y-130000000D02*
X58100000Y-127000000D01*
X59700000Y-130000000D02*
X58100000Y-130000000D01*
G04 #@! TO.C,R22*
X73000000Y-164000000D02*
X76000000Y-164000000D01*
X76000000Y-164000000D02*
X76000000Y-165600000D01*
X73000000Y-165600000D02*
X73000000Y-164000000D01*
X76000000Y-165600000D02*
X73000000Y-165600000D01*
G04 #@! TO.C,C33*
X90200002Y-160300000D02*
X90200000Y-162900000D01*
X88599998Y-162900000D02*
X88600000Y-160300000D01*
X90200001Y-160300001D02*
G75*
G03*
X88600001Y-160300001I-800000J-840223D01*
G01*
X88599999Y-162899999D02*
G75*
G03*
X90199999Y-162899999I800000J840223D01*
G01*
G04 #@! TO.C,C47*
X75000000Y-163600000D02*
X75000000Y-160600000D01*
X77000000Y-160600000D02*
X77000000Y-163600000D01*
X77000000Y-160600000D02*
G75*
G03*
X75000000Y-160600000I-1000000J-1122254D01*
G01*
X75000000Y-163600000D02*
G75*
G03*
X77000000Y-163600000I1000000J1122254D01*
G01*
G04 #@! TO.C,C39*
X114000002Y-161700000D02*
X114000000Y-164300000D01*
X112399998Y-164300000D02*
X112400000Y-161700000D01*
X112399999Y-164299999D02*
G75*
G03*
X113999999Y-164299999I800000J840223D01*
G01*
X114000001Y-161700001D02*
G75*
G03*
X112400001Y-161700001I-800000J-840223D01*
G01*
G04 #@! TO.C,R52*
X79300000Y-164900000D02*
X79300000Y-163300000D01*
X82300000Y-164900000D02*
X79300000Y-164900000D01*
X82300000Y-163300000D02*
X82300000Y-164900000D01*
X79300000Y-163300000D02*
X82300000Y-163300000D01*
G04 #@! TO.C,C59*
X116800002Y-155700000D02*
X116800000Y-158300000D01*
X115199998Y-158300000D02*
X115200000Y-155700000D01*
X115199999Y-158299999D02*
G75*
G03*
X116799999Y-158299999I800000J840223D01*
G01*
X116800001Y-155700001D02*
G75*
G03*
X115200001Y-155700001I-800000J-840223D01*
G01*
G04 #@! TO.C,C49*
X115200002Y-155700000D02*
X115200000Y-158300000D01*
X113599998Y-158300000D02*
X113600000Y-155700000D01*
X115200001Y-155700001D02*
G75*
G03*
X113600001Y-155700001I-800000J-840223D01*
G01*
X113599999Y-158299999D02*
G75*
G03*
X115199999Y-158299999I800000J840223D01*
G01*
G04 #@! TO.C,R54*
X78500000Y-155000000D02*
X78500000Y-158000000D01*
X76900000Y-158000000D02*
X76900000Y-155000000D01*
X76900000Y-155000000D02*
X78500000Y-155000000D01*
X78500000Y-158000000D02*
X76900000Y-158000000D01*
G04 #@! TO.C,SW1*
X114403500Y-129072500D02*
X109196500Y-129072500D01*
X109196500Y-129072500D02*
X109196500Y-137327500D01*
X109196500Y-137327500D02*
X114403500Y-137327500D01*
X114403500Y-137327500D02*
X114403500Y-129072500D01*
G04 #@! TO.C,C34*
X81699998Y-157000000D02*
X81700000Y-154400000D01*
X83300002Y-154400000D02*
X83300000Y-157000000D01*
X83300001Y-154400001D02*
G75*
G03*
X81700001Y-154400001I-800000J-840223D01*
G01*
X81699999Y-156999999D02*
G75*
G03*
X83299999Y-156999999I800000J840223D01*
G01*
G04 #@! TO.C,C32*
X89700002Y-154400000D02*
X89700000Y-157000000D01*
X88099998Y-157000000D02*
X88100000Y-154400000D01*
X89700001Y-154400001D02*
G75*
G03*
X88100001Y-154400001I-800000J-840223D01*
G01*
X88099999Y-156999999D02*
G75*
G03*
X89699999Y-156999999I800000J840223D01*
G01*
G04 #@! TO.C,C55*
X82199998Y-163000000D02*
X82200000Y-160400000D01*
X83800002Y-160400000D02*
X83800000Y-163000000D01*
X82199999Y-162999999D02*
G75*
G03*
X83799999Y-162999999I800000J840223D01*
G01*
X83800001Y-160400001D02*
G75*
G03*
X82200001Y-160400001I-800000J-840223D01*
G01*
G04 #@! TO.C,R56*
X110600000Y-155400000D02*
X113600000Y-155400000D01*
X113600000Y-157000000D02*
X110600000Y-157000000D01*
X113600000Y-155400000D02*
X113600000Y-157000000D01*
X110600000Y-157000000D02*
X110600000Y-155400000D01*
G04 #@! TO.C,C60*
X108099998Y-158200000D02*
X108100000Y-155600000D01*
X109700002Y-155600000D02*
X109700000Y-158200000D01*
X108099999Y-158199999D02*
G75*
G03*
X109699999Y-158199999I800000J840223D01*
G01*
X109700001Y-155600001D02*
G75*
G03*
X108100001Y-155600001I-800000J-840223D01*
G01*
G04 #@! TO.C,C40*
X107100002Y-161500000D02*
X107100000Y-164100000D01*
X105499998Y-164100000D02*
X105500000Y-161500000D01*
X105499999Y-164099999D02*
G75*
G03*
X107099999Y-164099999I800000J840223D01*
G01*
X107100001Y-161500001D02*
G75*
G03*
X105500001Y-161500001I-800000J-840223D01*
G01*
G04 #@! TO.C,C44*
X84900002Y-154400000D02*
X84900000Y-157000000D01*
X83299998Y-157000000D02*
X83300000Y-154400000D01*
X84900001Y-154400001D02*
G75*
G03*
X83300001Y-154400001I-800000J-840223D01*
G01*
X83299999Y-156999999D02*
G75*
G03*
X84899999Y-156999999I800000J840223D01*
G01*
G04 #@! TO.C,R50*
X85300000Y-163300000D02*
X88300000Y-163300000D01*
X85300000Y-164900000D02*
X85300000Y-163300000D01*
X88300000Y-164900000D02*
X85300000Y-164900000D01*
X88300000Y-163300000D02*
X88300000Y-164900000D01*
G04 #@! TO.C,R65*
X51900000Y-137000000D02*
X48900000Y-137000000D01*
X51900000Y-135400000D02*
X51900000Y-137000000D01*
X48900000Y-135400000D02*
X51900000Y-135400000D01*
X48900000Y-137000000D02*
X48900000Y-135400000D01*
G04 #@! TO.C,C64*
X81700002Y-154400000D02*
X81700000Y-157000000D01*
X80099998Y-157000000D02*
X80100000Y-154400000D01*
X81700001Y-154400001D02*
G75*
G03*
X80100001Y-154400001I-800000J-840223D01*
G01*
X80099999Y-156999999D02*
G75*
G03*
X81699999Y-156999999I800000J840223D01*
G01*
G04 #@! TO.C,C57*
X76900000Y-154900000D02*
X76900000Y-157900000D01*
X74900000Y-157900000D02*
X74900000Y-154900000D01*
X76900000Y-154900000D02*
G75*
G03*
X74900000Y-154900000I-1000000J-1122254D01*
G01*
X74900000Y-157900000D02*
G75*
G03*
X76900000Y-157900000I1000000J1122254D01*
G01*
G04 #@! TO.C,L1*
X123000000Y-157300000D02*
X129700000Y-157300000D01*
X129700000Y-157300000D02*
X136400000Y-157300000D01*
X136400000Y-157300000D02*
X136400000Y-143500000D01*
X136400000Y-143500000D02*
X123000000Y-143500000D01*
X123000000Y-143500000D02*
X123000000Y-157300000D01*
G04 #@! TO.C,L3*
X52000000Y-153900000D02*
X58800000Y-153900000D01*
X58800000Y-153900000D02*
X58800000Y-138100000D01*
X45200000Y-138100000D02*
X45200000Y-153900000D01*
X45200000Y-153900000D02*
X52000000Y-153900000D01*
X58800000Y-138100000D02*
X45200000Y-138100000D01*
G04 #@! TO.C,R60*
X83800000Y-163300000D02*
X83800000Y-160300000D01*
X83800000Y-160300000D02*
X85400000Y-160300000D01*
X85400000Y-163300000D02*
X83800000Y-163300000D01*
X85400000Y-160300000D02*
X85400000Y-163300000D01*
G04 #@! TO.C,C29*
X113999998Y-164300000D02*
X114000000Y-161700000D01*
X115600002Y-161700000D02*
X115600000Y-164300000D01*
X113999999Y-164299999D02*
G75*
G03*
X115599999Y-164299999I800000J840223D01*
G01*
X115600001Y-161700001D02*
G75*
G03*
X114000001Y-161700001I-800000J-840223D01*
G01*
G04 #@! TO.C,C1*
X54106250Y-163500000D02*
X54893750Y-163500000D01*
X63600000Y-160600000D02*
X63600000Y-162800000D01*
X56300000Y-158100000D02*
X62400000Y-158100000D01*
X54500000Y-163893750D02*
X54500000Y-163106250D01*
X54000000Y-160600000D02*
X55200000Y-160600000D01*
X62400000Y-158100000D02*
X62400000Y-160600000D01*
X63600000Y-162800000D02*
X62400000Y-162800000D01*
X55200000Y-162800000D02*
X54000000Y-162800000D01*
X62400000Y-165300000D02*
X56300000Y-165300000D01*
X56300000Y-165300000D02*
X55200000Y-164200000D01*
X55200000Y-160600000D02*
X55200000Y-159200000D01*
X62400000Y-162800000D02*
X62400000Y-165300000D01*
X54000000Y-162800000D02*
X54000000Y-160600000D01*
X55200000Y-159200000D02*
X56300000Y-158100000D01*
X62400000Y-160600000D02*
X63600000Y-160600000D01*
X55200000Y-164200000D02*
X55200000Y-162800000D01*
G04 #@! TO.C,R21*
X84500000Y-151000000D02*
X84500000Y-154000000D01*
X82900000Y-154000000D02*
X82900000Y-151000000D01*
X82900000Y-151000000D02*
X84500000Y-151000000D01*
X84500000Y-154000000D02*
X82900000Y-154000000D01*
G04 #@! TO.C,R59*
X85100000Y-151000000D02*
X85100000Y-148000000D01*
X86700000Y-151000000D02*
X85100000Y-151000000D01*
X86700000Y-148000000D02*
X86700000Y-151000000D01*
X85100000Y-148000000D02*
X86700000Y-148000000D01*
G04 #@! TO.C,C45*
X77399998Y-163000000D02*
X77400000Y-160400000D01*
X79000002Y-160400000D02*
X79000000Y-163000000D01*
X77399999Y-162999999D02*
G75*
G03*
X78999999Y-162999999I800000J840223D01*
G01*
X79000001Y-160400001D02*
G75*
G03*
X77400001Y-160400001I-800000J-840223D01*
G01*
G04 #@! TO.C,JP2*
X83475000Y-136830000D02*
X84805000Y-136830000D01*
X79605000Y-136830000D02*
X79605000Y-134170000D01*
X82205000Y-136830000D02*
X79605000Y-136830000D01*
X84805000Y-136830000D02*
X84805000Y-135500000D01*
X82205000Y-134170000D02*
X79605000Y-134170000D01*
X82205000Y-136830000D02*
X82205000Y-134170000D01*
G04 #@! TO.C,JP1*
X82205000Y-131750000D02*
X79605000Y-131750000D01*
X82205000Y-131750000D02*
X82205000Y-129090000D01*
X79605000Y-131750000D02*
X79605000Y-129090000D01*
X84805000Y-131750000D02*
X84805000Y-130420000D01*
X82205000Y-129090000D02*
X79605000Y-129090000D01*
X83475000Y-131750000D02*
X84805000Y-131750000D01*
G04 #@! TO.C,R61*
X78500000Y-151000000D02*
X78500000Y-148000000D01*
X80100000Y-148000000D02*
X80100000Y-151000000D01*
X78500000Y-148000000D02*
X80100000Y-148000000D01*
X80100000Y-151000000D02*
X78500000Y-151000000D01*
G04 #@! TO.C,R23*
X68400000Y-161800000D02*
X70000000Y-161800000D01*
X70000000Y-164800000D02*
X68400000Y-164800000D01*
X68400000Y-164800000D02*
X68400000Y-161800000D01*
X70000000Y-161800000D02*
X70000000Y-164800000D01*
G04 #@! TO.C,C53*
X87000002Y-160300000D02*
X87000000Y-162900000D01*
X85399998Y-162900000D02*
X85400000Y-160300000D01*
X85399999Y-162899999D02*
G75*
G03*
X86999999Y-162899999I800000J840223D01*
G01*
X87000001Y-160300001D02*
G75*
G03*
X85400001Y-160300001I-800000J-840223D01*
G01*
G04 #@! TO.C,C63*
X88600002Y-160300000D02*
X88600000Y-162900000D01*
X86999998Y-162900000D02*
X87000000Y-160300000D01*
X86999999Y-162899999D02*
G75*
G03*
X88599999Y-162899999I800000J840223D01*
G01*
X88600001Y-160300001D02*
G75*
G03*
X87000001Y-160300001I-800000J-840223D01*
G01*
G04 #@! TD*
%LPC*%
D15*
G04 #@! TO.C,C67*
X73900000Y-155450000D03*
X73900000Y-157350000D03*
G04 #@! TD*
D16*
G04 #@! TO.C,REF\u002A\u002A*
X49000000Y-131000000D03*
G04 #@! TD*
G04 #@! TO.C,REF\u002A\u002A*
X130000000Y-161000000D03*
G04 #@! TD*
G04 #@! TO.C,REF\u002A\u002A*
X130000000Y-131000000D03*
G04 #@! TD*
G04 #@! TO.C,*
X66000000Y-158000000D03*
G04 #@! TD*
D17*
G04 #@! TO.C,J3*
X102400000Y-137300000D03*
D18*
X98900000Y-134100000D03*
X105900000Y-134100000D03*
D17*
X102400000Y-129200000D03*
G04 #@! TD*
G04 #@! TO.C,J2*
X90900000Y-137300000D03*
D18*
X87400000Y-134100000D03*
X94400000Y-134100000D03*
D17*
X90900000Y-129200000D03*
G04 #@! TD*
D19*
G04 #@! TO.C,C3*
X129000000Y-138900000D03*
X134400000Y-138900000D03*
G04 #@! TD*
D20*
G04 #@! TO.C,J10*
X81325000Y-140000000D03*
D21*
X81325000Y-142540000D03*
X81325000Y-145080000D03*
X81325000Y-147620000D03*
X81325000Y-150160000D03*
X81325000Y-152700000D03*
G04 #@! TD*
D20*
G04 #@! TO.C,J9*
X87925000Y-140000000D03*
D21*
X87925000Y-142540000D03*
X87925000Y-145080000D03*
X87925000Y-147620000D03*
X87925000Y-150160000D03*
X87925000Y-152700000D03*
G04 #@! TD*
D20*
G04 #@! TO.C,J7*
X101125000Y-140000000D03*
D21*
X101125000Y-142540000D03*
X101125000Y-145080000D03*
X101125000Y-147620000D03*
X101125000Y-150160000D03*
X101125000Y-152700000D03*
G04 #@! TD*
D20*
G04 #@! TO.C,J12*
X68125000Y-140000000D03*
D21*
X68125000Y-142540000D03*
X68125000Y-145080000D03*
X68125000Y-147620000D03*
X68125000Y-150160000D03*
X68125000Y-152700000D03*
G04 #@! TD*
D20*
G04 #@! TO.C,J13*
X61525000Y-140000000D03*
D21*
X61525000Y-142540000D03*
X61525000Y-145080000D03*
X61525000Y-147620000D03*
X61525000Y-150160000D03*
X61525000Y-152700000D03*
G04 #@! TD*
D20*
G04 #@! TO.C,J6*
X107725000Y-140000000D03*
D21*
X107725000Y-142540000D03*
X107725000Y-145080000D03*
X107725000Y-147620000D03*
X107725000Y-150160000D03*
X107725000Y-152700000D03*
G04 #@! TD*
D20*
G04 #@! TO.C,J11*
X74725000Y-140000000D03*
D21*
X74725000Y-142540000D03*
X74725000Y-145080000D03*
X74725000Y-147620000D03*
X74725000Y-150160000D03*
X74725000Y-152700000D03*
G04 #@! TD*
D20*
G04 #@! TO.C,J5*
X114325000Y-140000000D03*
D21*
X114325000Y-142540000D03*
X114325000Y-145080000D03*
X114325000Y-147620000D03*
X114325000Y-150160000D03*
X114325000Y-152700000D03*
G04 #@! TD*
D20*
G04 #@! TO.C,J8*
X94525000Y-140000000D03*
D21*
X94525000Y-142540000D03*
X94525000Y-145080000D03*
X94525000Y-147620000D03*
X94525000Y-150160000D03*
X94525000Y-152700000D03*
G04 #@! TD*
D22*
G04 #@! TO.C,C24*
X61875000Y-131400000D03*
X60325000Y-131400000D03*
G04 #@! TD*
D20*
G04 #@! TO.C,J4*
X120925000Y-140000000D03*
D21*
X120925000Y-142540000D03*
X120925000Y-145080000D03*
X120925000Y-147620000D03*
X120925000Y-150160000D03*
X120925000Y-152700000D03*
G04 #@! TD*
D23*
G04 #@! TO.C,U3*
X47100000Y-157350000D03*
X48800000Y-161050000D03*
X50500000Y-157350000D03*
X52200000Y-161050000D03*
D24*
X53900000Y-157350000D03*
G04 #@! TD*
D25*
G04 #@! TO.C,U2*
X121395000Y-163775000D03*
X122665000Y-163775000D03*
X123935000Y-163775000D03*
X125205000Y-163775000D03*
X125205000Y-158825000D03*
X123935000Y-158825000D03*
X122665000Y-158825000D03*
X121395000Y-158825000D03*
G04 #@! TD*
D26*
G04 #@! TO.C,R27*
X103175000Y-163600000D03*
X104825000Y-163600000D03*
G04 #@! TD*
D27*
G04 #@! TO.C,C43*
X91000000Y-162375000D03*
X91000000Y-160825000D03*
G04 #@! TD*
D28*
G04 #@! TO.C,R19*
X90100000Y-151775000D03*
X90100000Y-153425000D03*
G04 #@! TD*
D26*
G04 #@! TO.C,R16*
X110075000Y-162200000D03*
X111725000Y-162200000D03*
G04 #@! TD*
D29*
G04 #@! TO.C,C52*
X85700000Y-154925000D03*
X85700000Y-156475000D03*
G04 #@! TD*
D26*
G04 #@! TO.C,R17*
X103175000Y-161964166D03*
X104825000Y-161964166D03*
G04 #@! TD*
G04 #@! TO.C,R24*
X70675000Y-162400000D03*
X72325000Y-162400000D03*
G04 #@! TD*
D29*
G04 #@! TO.C,C62*
X87300000Y-154925000D03*
X87300000Y-156475000D03*
G04 #@! TD*
D30*
G04 #@! TO.C,D2*
X57250000Y-156200000D03*
X60750000Y-156200000D03*
G04 #@! TD*
D27*
G04 #@! TO.C,C35*
X79800000Y-162475000D03*
X79800000Y-160925000D03*
G04 #@! TD*
D26*
G04 #@! TO.C,R57*
X104175000Y-156100000D03*
X105825000Y-156100000D03*
G04 #@! TD*
D28*
G04 #@! TO.C,R63*
X70500000Y-151975000D03*
X70500000Y-153625000D03*
G04 #@! TD*
G04 #@! TO.C,R49*
X85900000Y-151675000D03*
X85900000Y-153325000D03*
G04 #@! TD*
G04 #@! TO.C,R55*
X52700000Y-134675000D03*
X52700000Y-136325000D03*
G04 #@! TD*
D27*
G04 #@! TO.C,C30*
X107900000Y-163575000D03*
X107900000Y-162025000D03*
G04 #@! TD*
D31*
G04 #@! TO.C,J1*
X117500000Y-133650000D03*
D32*
X119800000Y-128350000D03*
X123500000Y-130850000D03*
G04 #@! TD*
D26*
G04 #@! TO.C,R46*
X111275000Y-157800000D03*
X112925000Y-157800000D03*
G04 #@! TD*
D33*
G04 #@! TO.C,R35*
X57300000Y-129325000D03*
X57300000Y-127675000D03*
G04 #@! TD*
D34*
G04 #@! TO.C,R62*
X84625000Y-164100000D03*
X82975000Y-164100000D03*
G04 #@! TD*
G04 #@! TO.C,R30*
X92725000Y-164000000D03*
X91075000Y-164000000D03*
G04 #@! TD*
D29*
G04 #@! TO.C,C42*
X90500000Y-154925000D03*
X90500000Y-156475000D03*
G04 #@! TD*
D34*
G04 #@! TO.C,R45*
X55325000Y-131400000D03*
X53675000Y-131400000D03*
G04 #@! TD*
G04 #@! TO.C,R32*
X78325000Y-164800000D03*
X76675000Y-164800000D03*
G04 #@! TD*
D33*
G04 #@! TO.C,R53*
X70500000Y-156625000D03*
X70500000Y-154975000D03*
G04 #@! TD*
D28*
G04 #@! TO.C,R20*
X92600000Y-160875000D03*
X92600000Y-162525000D03*
G04 #@! TD*
D26*
G04 #@! TO.C,R34*
X70675000Y-164000000D03*
X72325000Y-164000000D03*
G04 #@! TD*
D28*
G04 #@! TO.C,R31*
X83700000Y-148675000D03*
X83700000Y-150325000D03*
G04 #@! TD*
D35*
G04 #@! TO.C,C37*
X74000000Y-163050000D03*
X74000000Y-161150000D03*
G04 #@! TD*
D36*
G04 #@! TO.C,U4*
X60562500Y-133050000D03*
X60562500Y-133700000D03*
X60562500Y-134350000D03*
X60562500Y-135000000D03*
X60562500Y-135650000D03*
X60562500Y-136300000D03*
X60562500Y-136950000D03*
X54837500Y-136950000D03*
X54837500Y-136300000D03*
X54837500Y-135650000D03*
X54837500Y-135000000D03*
X54837500Y-134350000D03*
X54837500Y-133700000D03*
X54837500Y-133050000D03*
G04 #@! TD*
D29*
G04 #@! TO.C,C54*
X79300000Y-154925000D03*
X79300000Y-156475000D03*
G04 #@! TD*
D15*
G04 #@! TO.C,C48*
X53500000Y-127550000D03*
X53500000Y-129450000D03*
G04 #@! TD*
D26*
G04 #@! TO.C,R26*
X110075000Y-163800000D03*
X111725000Y-163800000D03*
G04 #@! TD*
D28*
G04 #@! TO.C,R64*
X77700000Y-152675000D03*
X77700000Y-154325000D03*
G04 #@! TD*
D37*
G04 #@! TO.C,RV1*
X71300000Y-128700000D03*
X71300000Y-137500000D03*
D38*
X64300000Y-130600000D03*
X64300000Y-133100000D03*
X64300000Y-135600000D03*
G04 #@! TD*
D28*
G04 #@! TO.C,R29*
X90100000Y-148775000D03*
X90100000Y-150425000D03*
G04 #@! TD*
D39*
G04 #@! TO.C,D3*
X124500000Y-142550000D03*
X124500000Y-139050000D03*
G04 #@! TD*
D22*
G04 #@! TO.C,C5*
X121875000Y-156400000D03*
X120325000Y-156400000D03*
G04 #@! TD*
G04 #@! TO.C,C25*
X58675000Y-131400000D03*
X57125000Y-131400000D03*
G04 #@! TD*
D28*
G04 #@! TO.C,R51*
X79300000Y-151675000D03*
X79300000Y-153325000D03*
G04 #@! TD*
D29*
G04 #@! TO.C,C50*
X107300000Y-156125000D03*
X107300000Y-157675000D03*
G04 #@! TD*
D15*
G04 #@! TO.C,C38*
X55500000Y-127550000D03*
X55500000Y-129450000D03*
G04 #@! TD*
D26*
G04 #@! TO.C,R47*
X104175000Y-157700000D03*
X105825000Y-157700000D03*
G04 #@! TD*
D27*
G04 #@! TO.C,C65*
X81400000Y-162475000D03*
X81400000Y-160925000D03*
G04 #@! TD*
D20*
G04 #@! TO.C,JP3*
X83475000Y-132960000D03*
D21*
X80935000Y-132960000D03*
G04 #@! TD*
D33*
G04 #@! TO.C,R25*
X58900000Y-129325000D03*
X58900000Y-127675000D03*
G04 #@! TD*
D26*
G04 #@! TO.C,R22*
X73675000Y-164800000D03*
X75325000Y-164800000D03*
G04 #@! TD*
D27*
G04 #@! TO.C,C33*
X89400000Y-162375000D03*
X89400000Y-160825000D03*
G04 #@! TD*
D35*
G04 #@! TO.C,C47*
X76000000Y-163050000D03*
X76000000Y-161150000D03*
G04 #@! TD*
D27*
G04 #@! TO.C,C39*
X113200000Y-163775000D03*
X113200000Y-162225000D03*
G04 #@! TD*
D26*
G04 #@! TO.C,R52*
X79975000Y-164100000D03*
X81625000Y-164100000D03*
G04 #@! TD*
D29*
G04 #@! TO.C,C59*
X116000000Y-156225000D03*
X116000000Y-157775000D03*
G04 #@! TD*
G04 #@! TO.C,C49*
X114400000Y-156225000D03*
X114400000Y-157775000D03*
G04 #@! TD*
D33*
G04 #@! TO.C,R54*
X77700000Y-157325000D03*
X77700000Y-155675000D03*
G04 #@! TD*
D40*
G04 #@! TO.C,SW1*
X111800000Y-130660000D03*
X111800000Y-133200000D03*
X111800000Y-135740000D03*
G04 #@! TD*
D29*
G04 #@! TO.C,C34*
X82500000Y-154925000D03*
X82500000Y-156475000D03*
G04 #@! TD*
G04 #@! TO.C,C32*
X88900000Y-154925000D03*
X88900000Y-156475000D03*
G04 #@! TD*
D27*
G04 #@! TO.C,C55*
X83000000Y-162475000D03*
X83000000Y-160925000D03*
G04 #@! TD*
D26*
G04 #@! TO.C,R56*
X111275000Y-156200000D03*
X112925000Y-156200000D03*
G04 #@! TD*
D29*
G04 #@! TO.C,C60*
X108900000Y-156125000D03*
X108900000Y-157675000D03*
G04 #@! TD*
D27*
G04 #@! TO.C,C40*
X106300000Y-163575000D03*
X106300000Y-162025000D03*
G04 #@! TD*
D29*
G04 #@! TO.C,C44*
X84100000Y-154925000D03*
X84100000Y-156475000D03*
G04 #@! TD*
D34*
G04 #@! TO.C,R50*
X87625000Y-164100000D03*
X85975000Y-164100000D03*
G04 #@! TD*
D26*
G04 #@! TO.C,R65*
X49575000Y-136200000D03*
X51225000Y-136200000D03*
G04 #@! TD*
D29*
G04 #@! TO.C,C64*
X80900000Y-154925000D03*
X80900000Y-156475000D03*
G04 #@! TD*
D15*
G04 #@! TO.C,C57*
X75900000Y-155450000D03*
X75900000Y-157350000D03*
G04 #@! TD*
D41*
G04 #@! TO.C,L1*
X129700000Y-145450000D03*
X129700000Y-155350000D03*
G04 #@! TD*
D42*
G04 #@! TO.C,L3*
X52000000Y-151250000D03*
X52000000Y-140750000D03*
G04 #@! TD*
D33*
G04 #@! TO.C,R60*
X84600000Y-162625000D03*
X84600000Y-160975000D03*
G04 #@! TD*
D27*
G04 #@! TO.C,C29*
X114800000Y-163775000D03*
X114800000Y-162225000D03*
G04 #@! TD*
D19*
G04 #@! TO.C,C1*
X56100000Y-161700000D03*
X61500000Y-161700000D03*
G04 #@! TD*
D28*
G04 #@! TO.C,R21*
X83700000Y-151675000D03*
X83700000Y-153325000D03*
G04 #@! TD*
G04 #@! TO.C,R59*
X85900000Y-148675000D03*
X85900000Y-150325000D03*
G04 #@! TD*
D27*
G04 #@! TO.C,C45*
X78200000Y-162475000D03*
X78200000Y-160925000D03*
G04 #@! TD*
D20*
G04 #@! TO.C,JP2*
X83475000Y-135500000D03*
D21*
X80935000Y-135500000D03*
G04 #@! TD*
D20*
G04 #@! TO.C,JP1*
X83475000Y-130420000D03*
D21*
X80935000Y-130420000D03*
G04 #@! TD*
D28*
G04 #@! TO.C,R61*
X79300000Y-148675000D03*
X79300000Y-150325000D03*
G04 #@! TD*
G04 #@! TO.C,R23*
X69200000Y-162475000D03*
X69200000Y-164125000D03*
G04 #@! TD*
D27*
G04 #@! TO.C,C53*
X86200000Y-162375000D03*
X86200000Y-160825000D03*
G04 #@! TD*
G04 #@! TO.C,C63*
X87800000Y-162375000D03*
X87800000Y-160825000D03*
G04 #@! TD*
%LPD*%
M02*
