G04 #@! TF.GenerationSoftware,KiCad,Pcbnew,7.0.9-69-ge1c0bddff3*
G04 #@! TF.CreationDate,2024-02-19T13:42:33+01:00*
G04 #@! TF.ProjectId,ASP_Backplane,4153505f-4261-4636-9b70-6c616e652e6b,B*
G04 #@! TF.SameCoordinates,Original*
G04 #@! TF.FileFunction,Soldermask,Top*
G04 #@! TF.FilePolarity,Negative*
%FSLAX46Y46*%
G04 Gerber Fmt 4.6, Leading zero omitted, Abs format (unit mm)*
G04 Created by KiCad (PCBNEW 7.0.9-69-ge1c0bddff3) date 2024-02-19 13:42:33*
%MOMM*%
%LPD*%
G01*
G04 APERTURE LIST*
G04 Aperture macros list*
%AMRoundRect*
0 Rectangle with rounded corners*
0 $1 Rounding radius*
0 $2 $3 $4 $5 $6 $7 $8 $9 X,Y pos of 4 corners*
0 Add a 4 corners polygon primitive as box body*
4,1,4,$2,$3,$4,$5,$6,$7,$8,$9,$2,$3,0*
0 Add four circle primitives for the rounded corners*
1,1,$1+$1,$2,$3*
1,1,$1+$1,$4,$5*
1,1,$1+$1,$6,$7*
1,1,$1+$1,$8,$9*
0 Add four rect primitives between the rounded corners*
20,1,$1+$1,$2,$3,$4,$5,0*
20,1,$1+$1,$4,$5,$6,$7,0*
20,1,$1+$1,$6,$7,$8,$9,0*
20,1,$1+$1,$8,$9,$2,$3,0*%
G04 Aperture macros list end*
%ADD10RoundRect,0.100000X-0.100000X0.637500X-0.100000X-0.637500X0.100000X-0.637500X0.100000X0.637500X0*%
%ADD11C,3.200000*%
%ADD12O,4.000000X1.600000*%
%ADD13O,1.600000X4.000000*%
%ADD14RoundRect,0.112500X-0.112500X-0.237500X0.112500X-0.237500X0.112500X0.237500X-0.112500X0.237500X0*%
%ADD15RoundRect,0.250000X-1.000000X-0.650000X1.000000X-0.650000X1.000000X0.650000X-1.000000X0.650000X0*%
%ADD16R,1.700000X1.700000*%
%ADD17O,1.700000X1.700000*%
%ADD18RoundRect,0.225000X0.250000X-0.225000X0.250000X0.225000X-0.250000X0.225000X-0.250000X-0.225000X0*%
%ADD19RoundRect,0.150000X0.150000X-0.725000X0.150000X0.725000X-0.150000X0.725000X-0.150000X-0.725000X0*%
%ADD20RoundRect,0.200000X0.200000X0.275000X-0.200000X0.275000X-0.200000X-0.275000X0.200000X-0.275000X0*%
%ADD21RoundRect,0.225000X-0.225000X-0.250000X0.225000X-0.250000X0.225000X0.250000X-0.225000X0.250000X0*%
%ADD22RoundRect,0.200000X-0.275000X0.200000X-0.275000X-0.200000X0.275000X-0.200000X0.275000X0.200000X0*%
%ADD23RoundRect,0.250000X1.500000X0.550000X-1.500000X0.550000X-1.500000X-0.550000X1.500000X-0.550000X0*%
%ADD24RoundRect,0.200000X0.275000X-0.200000X0.275000X0.200000X-0.275000X0.200000X-0.275000X-0.200000X0*%
%ADD25RoundRect,0.225000X-0.250000X0.225000X-0.250000X-0.225000X0.250000X-0.225000X0.250000X0.225000X0*%
%ADD26RoundRect,0.225000X0.225000X0.250000X-0.225000X0.250000X-0.225000X-0.250000X0.225000X-0.250000X0*%
%ADD27RoundRect,0.200000X-0.200000X-0.275000X0.200000X-0.275000X0.200000X0.275000X-0.200000X0.275000X0*%
%ADD28RoundRect,0.250000X-0.375000X-0.625000X0.375000X-0.625000X0.375000X0.625000X-0.375000X0.625000X0*%
%ADD29RoundRect,0.250000X0.475000X-0.250000X0.475000X0.250000X-0.475000X0.250000X-0.475000X-0.250000X0*%
%ADD30RoundRect,0.250000X1.425000X-0.362500X1.425000X0.362500X-1.425000X0.362500X-1.425000X-0.362500X0*%
%ADD31RoundRect,0.250000X0.600000X-0.400000X0.600000X0.400000X-0.600000X0.400000X-0.600000X-0.400000X0*%
%ADD32O,1.800000X1.800000*%
%ADD33R,1.800000X1.800000*%
%ADD34O,1.600000X5.000000*%
%ADD35O,5.000000X1.600000*%
%ADD36C,4.000000*%
%ADD37C,1.800000*%
%ADD38O,3.000000X2.000000*%
%ADD39RoundRect,0.250000X-1.500000X-0.550000X1.500000X-0.550000X1.500000X0.550000X-1.500000X0.550000X0*%
G04 APERTURE END LIST*
D10*
G04 #@! TO.C,U8*
X76050000Y-156437500D03*
X75400000Y-156437500D03*
X74750000Y-156437500D03*
X74100000Y-156437500D03*
X73450000Y-156437500D03*
X72800000Y-156437500D03*
X72150000Y-156437500D03*
X72150000Y-162162500D03*
X72800000Y-162162500D03*
X73450000Y-162162500D03*
X74100000Y-162162500D03*
X74750000Y-162162500D03*
X75400000Y-162162500D03*
X76050000Y-162162500D03*
G04 #@! TD*
D11*
G04 #@! TO.C,REF\u002A\u002A*
X49000000Y-131000000D03*
G04 #@! TD*
G04 #@! TO.C,REF\u002A\u002A*
X130000000Y-161000000D03*
G04 #@! TD*
G04 #@! TO.C,REF\u002A\u002A*
X130000000Y-131000000D03*
G04 #@! TD*
G04 #@! TO.C,*
X66000000Y-158000000D03*
G04 #@! TD*
D12*
G04 #@! TO.C,J3*
X102400000Y-137300000D03*
D13*
X98900000Y-134100000D03*
X105900000Y-134100000D03*
D12*
X102400000Y-129200000D03*
G04 #@! TD*
G04 #@! TO.C,J2*
X90900000Y-137300000D03*
D13*
X87400000Y-134100000D03*
X94400000Y-134100000D03*
D12*
X90900000Y-129200000D03*
G04 #@! TD*
D14*
G04 #@! TO.C,D4*
X77450000Y-137800000D03*
X78750000Y-137800000D03*
X78100000Y-135800000D03*
G04 #@! TD*
D15*
G04 #@! TO.C,D1*
X120950000Y-134700000D03*
X124950000Y-134700000D03*
G04 #@! TD*
D16*
G04 #@! TO.C,J10*
X81325000Y-140000000D03*
D17*
X81325000Y-142540000D03*
X81325000Y-145080000D03*
X81325000Y-147620000D03*
X81325000Y-150160000D03*
X81325000Y-152700000D03*
G04 #@! TD*
D18*
G04 #@! TO.C,C8*
X77700000Y-158575000D03*
X77700000Y-157025000D03*
G04 #@! TD*
D19*
G04 #@! TO.C,U5*
X113395000Y-162575000D03*
X114665000Y-162575000D03*
X115935000Y-162575000D03*
X117205000Y-162575000D03*
X117205000Y-157425000D03*
X115935000Y-157425000D03*
X114665000Y-157425000D03*
X113395000Y-157425000D03*
G04 #@! TD*
D20*
G04 #@! TO.C,R7*
X88025000Y-129000000D03*
X86375000Y-129000000D03*
G04 #@! TD*
G04 #@! TO.C,R36*
X114825000Y-164600000D03*
X113175000Y-164600000D03*
G04 #@! TD*
G04 #@! TO.C,R68*
X101825000Y-155300000D03*
X100175000Y-155300000D03*
G04 #@! TD*
D21*
G04 #@! TO.C,C61*
X97025000Y-153700000D03*
X98575000Y-153700000D03*
G04 #@! TD*
G04 #@! TO.C,C51*
X97025000Y-155300000D03*
X98575000Y-155300000D03*
G04 #@! TD*
D22*
G04 #@! TO.C,R71*
X78800000Y-152975000D03*
X78800000Y-154625000D03*
G04 #@! TD*
G04 #@! TO.C,R18*
X95700000Y-159775000D03*
X95700000Y-161425000D03*
G04 #@! TD*
D23*
G04 #@! TO.C,C19*
X53300000Y-143400000D03*
X47900000Y-143400000D03*
G04 #@! TD*
D24*
G04 #@! TO.C,R4*
X91800000Y-134625000D03*
X91800000Y-132975000D03*
G04 #@! TD*
D16*
G04 #@! TO.C,J9*
X87925000Y-140000000D03*
D17*
X87925000Y-142540000D03*
X87925000Y-145080000D03*
X87925000Y-147620000D03*
X87925000Y-150160000D03*
X87925000Y-152700000D03*
G04 #@! TD*
D16*
G04 #@! TO.C,J7*
X101125000Y-140000000D03*
D17*
X101125000Y-142540000D03*
X101125000Y-145080000D03*
X101125000Y-147620000D03*
X101125000Y-150160000D03*
X101125000Y-152700000D03*
G04 #@! TD*
D18*
G04 #@! TO.C,C16*
X104500000Y-162175000D03*
X104500000Y-160625000D03*
G04 #@! TD*
D10*
G04 #@! TO.C,U9*
X83250000Y-156437500D03*
X82600000Y-156437500D03*
X81950000Y-156437500D03*
X81300000Y-156437500D03*
X80650000Y-156437500D03*
X80000000Y-156437500D03*
X79350000Y-156437500D03*
X79350000Y-162162500D03*
X80000000Y-162162500D03*
X80650000Y-162162500D03*
X81300000Y-162162500D03*
X81950000Y-162162500D03*
X82600000Y-162162500D03*
X83250000Y-162162500D03*
G04 #@! TD*
D21*
G04 #@! TO.C,C31*
X95625000Y-164500000D03*
X97175000Y-164500000D03*
G04 #@! TD*
D25*
G04 #@! TO.C,C56*
X70500000Y-155225000D03*
X70500000Y-156775000D03*
G04 #@! TD*
D22*
G04 #@! TO.C,R12*
X57300000Y-155275000D03*
X57300000Y-156925000D03*
G04 #@! TD*
D18*
G04 #@! TO.C,C20*
X104500000Y-158875000D03*
X104500000Y-157325000D03*
G04 #@! TD*
D24*
G04 #@! TO.C,R6*
X90200000Y-134625000D03*
X90200000Y-132975000D03*
G04 #@! TD*
D26*
G04 #@! TO.C,C15*
X97275000Y-157300000D03*
X95725000Y-157300000D03*
G04 #@! TD*
D20*
G04 #@! TO.C,R14*
X70025000Y-133200000D03*
X68375000Y-133200000D03*
G04 #@! TD*
D25*
G04 #@! TO.C,C6*
X70500000Y-158525000D03*
X70500000Y-160075000D03*
G04 #@! TD*
D27*
G04 #@! TO.C,R40*
X90075000Y-164000000D03*
X91725000Y-164000000D03*
G04 #@! TD*
D10*
G04 #@! TO.C,U10*
X90450000Y-156437500D03*
X89800000Y-156437500D03*
X89150000Y-156437500D03*
X88500000Y-156437500D03*
X87850000Y-156437500D03*
X87200000Y-156437500D03*
X86550000Y-156437500D03*
X86550000Y-162162500D03*
X87200000Y-162162500D03*
X87850000Y-162162500D03*
X88500000Y-162162500D03*
X89150000Y-162162500D03*
X89800000Y-162162500D03*
X90450000Y-162162500D03*
G04 #@! TD*
D16*
G04 #@! TO.C,J12*
X68125000Y-140000000D03*
D17*
X68125000Y-142540000D03*
X68125000Y-145080000D03*
X68125000Y-147620000D03*
X68125000Y-150160000D03*
X68125000Y-152700000D03*
G04 #@! TD*
D22*
G04 #@! TO.C,R11*
X125200000Y-163125000D03*
X125200000Y-161475000D03*
G04 #@! TD*
D20*
G04 #@! TO.C,R67*
X108925000Y-155400000D03*
X107275000Y-155400000D03*
G04 #@! TD*
D16*
G04 #@! TO.C,J13*
X61525000Y-140000000D03*
D17*
X61525000Y-142540000D03*
X61525000Y-145080000D03*
X61525000Y-147620000D03*
X61525000Y-150160000D03*
X61525000Y-152700000D03*
G04 #@! TD*
D20*
G04 #@! TO.C,R38*
X100425000Y-164500000D03*
X98775000Y-164500000D03*
G04 #@! TD*
D22*
G04 #@! TO.C,R69*
X85400000Y-153075000D03*
X85400000Y-154725000D03*
G04 #@! TD*
D20*
G04 #@! TO.C,R66*
X116025000Y-155400000D03*
X114375000Y-155400000D03*
G04 #@! TD*
D16*
G04 #@! TO.C,J6*
X107725000Y-140000000D03*
D17*
X107725000Y-142540000D03*
X107725000Y-145080000D03*
X107725000Y-147620000D03*
X107725000Y-150160000D03*
X107725000Y-152700000D03*
G04 #@! TD*
D16*
G04 #@! TO.C,J11*
X74725000Y-140000000D03*
D17*
X74725000Y-142540000D03*
X74725000Y-145080000D03*
X74725000Y-147620000D03*
X74725000Y-150160000D03*
X74725000Y-152700000D03*
G04 #@! TD*
D28*
G04 #@! TO.C,F1*
X113300000Y-127750000D03*
X110500000Y-127750000D03*
G04 #@! TD*
D29*
G04 #@! TO.C,C68*
X52300000Y-137950000D03*
X52300000Y-136050000D03*
G04 #@! TD*
D23*
G04 #@! TO.C,C17*
X134300000Y-153300000D03*
X128900000Y-153300000D03*
G04 #@! TD*
D18*
G04 #@! TO.C,C13*
X77700000Y-161875000D03*
X77700000Y-160325000D03*
G04 #@! TD*
D20*
G04 #@! TO.C,R37*
X107625000Y-164600000D03*
X105975000Y-164600000D03*
G04 #@! TD*
D27*
G04 #@! TO.C,R75*
X52475000Y-134143630D03*
X54125000Y-134143630D03*
G04 #@! TD*
D22*
G04 #@! TO.C,R8*
X125200000Y-160150000D03*
X125200000Y-158500000D03*
G04 #@! TD*
D21*
G04 #@! TO.C,C46*
X68825000Y-163400000D03*
X70375000Y-163400000D03*
G04 #@! TD*
D20*
G04 #@! TO.C,R5*
X88025000Y-130600000D03*
X86375000Y-130600000D03*
G04 #@! TD*
D24*
G04 #@! TO.C,R48*
X97300000Y-161425000D03*
X97300000Y-159775000D03*
G04 #@! TD*
D16*
G04 #@! TO.C,J5*
X114325000Y-140000000D03*
D17*
X114325000Y-142540000D03*
X114325000Y-145080000D03*
X114325000Y-147620000D03*
X114325000Y-150160000D03*
X114325000Y-152700000D03*
G04 #@! TD*
D18*
G04 #@! TO.C,C7*
X118900000Y-164275000D03*
X118900000Y-162725000D03*
G04 #@! TD*
D19*
G04 #@! TO.C,U6*
X106195000Y-162575000D03*
X107465000Y-162575000D03*
X108735000Y-162575000D03*
X110005000Y-162575000D03*
X110005000Y-157425000D03*
X108735000Y-157425000D03*
X107465000Y-157425000D03*
X106195000Y-157425000D03*
G04 #@! TD*
D27*
G04 #@! TO.C,R44*
X74975000Y-164200000D03*
X76625000Y-164200000D03*
G04 #@! TD*
D23*
G04 #@! TO.C,C26*
X53300000Y-151000000D03*
X47900000Y-151000000D03*
G04 #@! TD*
D22*
G04 #@! TO.C,R74*
X77200000Y-152975000D03*
X77200000Y-154625000D03*
G04 #@! TD*
G04 #@! TO.C,R73*
X72100000Y-153075000D03*
X72100000Y-154725000D03*
G04 #@! TD*
D30*
G04 #@! TO.C,R3*
X122000000Y-163062500D03*
X122000000Y-157137500D03*
G04 #@! TD*
D18*
G04 #@! TO.C,C66*
X70500000Y-153475000D03*
X70500000Y-151925000D03*
G04 #@! TD*
D21*
G04 #@! TO.C,C36*
X68825000Y-161800000D03*
X70375000Y-161800000D03*
G04 #@! TD*
D16*
G04 #@! TO.C,J8*
X94525000Y-140000000D03*
D17*
X94525000Y-142540000D03*
X94525000Y-145080000D03*
X94525000Y-147620000D03*
X94525000Y-150160000D03*
X94525000Y-152700000D03*
G04 #@! TD*
D19*
G04 #@! TO.C,U7*
X98995000Y-162475000D03*
X100265000Y-162475000D03*
X101535000Y-162475000D03*
X102805000Y-162475000D03*
X102805000Y-157325000D03*
X101535000Y-157325000D03*
X100265000Y-157325000D03*
X98995000Y-157325000D03*
G04 #@! TD*
D16*
G04 #@! TO.C,J4*
X120925000Y-140000000D03*
D17*
X120925000Y-142540000D03*
X120925000Y-145080000D03*
X120925000Y-147620000D03*
X120925000Y-150160000D03*
X120925000Y-152700000D03*
G04 #@! TD*
D22*
G04 #@! TO.C,R28*
X94100000Y-159775000D03*
X94100000Y-161425000D03*
G04 #@! TD*
G04 #@! TO.C,R58*
X97200000Y-150575000D03*
X97200000Y-152225000D03*
G04 #@! TD*
D18*
G04 #@! TO.C,C10*
X84900000Y-158475000D03*
X84900000Y-156925000D03*
G04 #@! TD*
D31*
G04 #@! TO.C,D5*
X125400000Y-156250000D03*
X125400000Y-152750000D03*
G04 #@! TD*
D18*
G04 #@! TO.C,C11*
X92100000Y-161675000D03*
X92100000Y-160125000D03*
G04 #@! TD*
D22*
G04 #@! TO.C,R39*
X90400000Y-153075000D03*
X90400000Y-154725000D03*
G04 #@! TD*
D32*
G04 #@! TO.C,U3*
X47100000Y-157350000D03*
X48800000Y-161050000D03*
X50500000Y-157350000D03*
X52200000Y-161050000D03*
D33*
X53900000Y-157350000D03*
G04 #@! TD*
D18*
G04 #@! TO.C,C12*
X111700000Y-158875000D03*
X111700000Y-157325000D03*
G04 #@! TD*
D20*
G04 #@! TO.C,R42*
X79625000Y-164000000D03*
X77975000Y-164000000D03*
G04 #@! TD*
D18*
G04 #@! TO.C,C9*
X84900000Y-161775000D03*
X84900000Y-160225000D03*
G04 #@! TD*
D23*
G04 #@! TO.C,C22*
X134300000Y-146100000D03*
X128900000Y-146100000D03*
G04 #@! TD*
D20*
G04 #@! TO.C,R70*
X87325000Y-164000000D03*
X85675000Y-164000000D03*
G04 #@! TD*
D27*
G04 #@! TO.C,R33*
X65575000Y-163400000D03*
X67225000Y-163400000D03*
G04 #@! TD*
D18*
G04 #@! TO.C,C21*
X111700000Y-162175000D03*
X111700000Y-160625000D03*
G04 #@! TD*
D27*
G04 #@! TO.C,R72*
X81775000Y-164200000D03*
X83425000Y-164200000D03*
G04 #@! TD*
D29*
G04 #@! TO.C,C58*
X54300000Y-137950000D03*
X54300000Y-136050000D03*
G04 #@! TD*
D21*
G04 #@! TO.C,C41*
X95625000Y-162900000D03*
X97175000Y-162900000D03*
G04 #@! TD*
D22*
G04 #@! TO.C,R41*
X83800000Y-153075000D03*
X83800000Y-154725000D03*
G04 #@! TD*
D20*
G04 #@! TO.C,R43*
X73625000Y-164200000D03*
X71975000Y-164200000D03*
G04 #@! TD*
D22*
G04 #@! TO.C,R13*
X57300000Y-158675000D03*
X57300000Y-160325000D03*
G04 #@! TD*
D34*
G04 #@! TO.C,J1*
X117500000Y-133650000D03*
D35*
X119800000Y-128350000D03*
X123500000Y-130850000D03*
G04 #@! TD*
D36*
G04 #@! TO.C,RV1*
X71300000Y-128700000D03*
X71300000Y-137500000D03*
D37*
X64300000Y-130600000D03*
X64300000Y-133100000D03*
X64300000Y-135600000D03*
G04 #@! TD*
D16*
G04 #@! TO.C,JP3*
X83475000Y-132960000D03*
D17*
X80935000Y-132960000D03*
G04 #@! TD*
D24*
G04 #@! TO.C,R15*
X60500000Y-135325000D03*
X60500000Y-133675000D03*
G04 #@! TD*
D38*
G04 #@! TO.C,SW1*
X111800000Y-130660000D03*
X111800000Y-133200000D03*
X111800000Y-135740000D03*
G04 #@! TD*
D39*
G04 #@! TO.C,C2*
X129000000Y-138900000D03*
X134400000Y-138900000D03*
G04 #@! TD*
D16*
G04 #@! TO.C,JP2*
X83475000Y-135500000D03*
D17*
X80935000Y-135500000D03*
G04 #@! TD*
D16*
G04 #@! TO.C,JP1*
X83475000Y-130420000D03*
D17*
X80935000Y-130420000D03*
G04 #@! TD*
M02*
