M48
; DRILL file {KiCad 7.0.9-69-ge1c0bddff3} date Mon Feb 19 13:42:36 2024
; FORMAT={-:-/ absolute / metric / decimal}
; #@! TF.CreationDate,2024-02-19T13:42:36+01:00
; #@! TF.GenerationSoftware,Kicad,Pcbnew,7.0.9-69-ge1c0bddff3
; #@! TF.FileFunction,Plated,1,4,PTH
FMAT,2
METRIC
; #@! TA.AperFunction,Plated,PTH,ViaDrill
T1C0.300
; #@! TA.AperFunction,Plated,PTH,ViaDrill
T2C0.400
; #@! TA.AperFunction,Plated,PTH,ViaDrill
T3C0.500
; #@! TA.AperFunction,Plated,PTH,ComponentDrill
T4C0.800
; #@! TA.AperFunction,Plated,PTH,ComponentDrill
T5C1.000
; #@! TA.AperFunction,Plated,PTH,ComponentDrill
T6C1.100
; #@! TA.AperFunction,Plated,PTH,ComponentDrill
T7C1.200
%
G90
G05
T1
X68.0Y-164.6
X69.1Y-154.7
X69.679Y-156.0
X72.078Y-149.094
X72.2Y-157.7
X73.7Y-153.7
X74.4Y-160.2
X74.894Y-158.201
X75.2Y-160.2
X76.074Y-154.45
X76.2Y-152.7
X76.916Y-156.362
X78.767Y-163.488
X79.2Y-160.0
X79.3Y-157.5
X80.2Y-157.6
X80.2Y-160.0
X80.7Y-153.975
X82.1Y-160.0
X82.5Y-157.5
X82.838Y-153.905
X82.926Y-147.391
X83.0Y-159.9
X83.3Y-143.8
X83.43Y-157.482
X84.205Y-157.678
X84.6Y-165.1
X84.9Y-155.7
X86.0Y-157.4
X86.7Y-151.6
X86.8Y-159.9
X87.2Y-157.5
X87.6Y-160.0
X88.173Y-154.155
X89.161Y-150.846
X89.7Y-157.5
X89.7Y-159.9
X90.6Y-159.9
X90.701Y-157.6
X93.5Y-158.691
X106.344Y-161.325
X107.5Y-158.8
X107.544Y-161.325
X108.7Y-158.8
X113.403Y-161.325
X114.4Y-158.8
X114.603Y-161.325
X115.9Y-158.8
X123.0Y-160.804
T2
X44.9Y-155.8
X44.9Y-165.1
X46.6Y-141.6
X46.6Y-145.1
X46.6Y-149.3
X46.6Y-152.8
X47.9Y-145.1
X47.9Y-149.3
X47.9Y-152.8
X48.3Y-140.7
X48.5Y-136.2
X49.2Y-145.1
X50.7Y-137.6
X52.0Y-145.3
X52.0Y-148.0
X53.4Y-145.3
X53.4Y-148.0
X53.4Y-165.1
X54.7Y-145.3
X54.7Y-148.0
X55.7Y-157.1
X55.9Y-140.8
X56.2Y-142.9
X56.3Y-134.0
X56.3Y-135.8
X56.3Y-138.1
X56.391Y-151.709
X56.4Y-150.7
X56.6Y-137.0
X57.8Y-134.9
X58.7Y-132.7
X58.9Y-160.4
X59.1Y-135.7
X59.1Y-156.2
X60.3Y-130.1
X60.8Y-158.0
X61.6Y-159.4
X61.6Y-163.6
X62.251Y-134.849
X62.3Y-156.2
X62.433Y-133.811
X62.8Y-136.5
X64.4Y-163.4
X65.2Y-161.7
X65.2Y-165.2
X78.8Y-139.2
X90.2Y-131.55
X91.7Y-165.2
X91.8Y-131.6
X121.4Y-161.6
X122.366Y-161.646
X123.3Y-155.5
X123.8Y-161.7
X124.0Y-154.8
X126.3Y-164.2
X126.5Y-162.6
X126.7Y-157.9
T3
X69.62Y-149.324
X70.0Y-165.1
X72.156Y-160.075
X76.3Y-159.951
X77.1Y-151.5
X79.254Y-147.346
X80.8Y-165.022
X85.0Y-147.7
X88.724Y-164.1
X90.3Y-146.4
X92.7Y-157.3
X93.25Y-159.688
X93.9Y-163.3
X94.5Y-156.5
X97.1Y-148.9
X97.929Y-158.743
X101.8Y-164.3
X103.7Y-154.9
X109.2Y-164.7
X111.2Y-154.8
X116.7Y-164.4
X119.371Y-158.417
X123.3Y-137.4
X124.5Y-137.4
X126.1Y-140.1
X126.1Y-141.3
X126.1Y-145.2
X126.1Y-146.9
X127.5Y-133.9
X127.5Y-135.35
X127.7Y-143.125
X129.7Y-143.125
X131.4Y-151.6
X131.7Y-143.125
X133.4Y-136.9
X133.4Y-140.7
X133.4Y-144.725
X133.4Y-148.0
X133.4Y-151.5
X133.4Y-155.1
X135.4Y-136.9
X135.4Y-140.7
X135.4Y-144.2
X135.4Y-148.0
X135.4Y-151.5
X135.4Y-155.1
T5
X61.525Y-140.0
X61.525Y-142.54
X61.525Y-145.08
X61.525Y-147.62
X61.525Y-150.16
X61.525Y-152.7
X64.3Y-130.6
X64.3Y-133.1
X64.3Y-135.6
X68.125Y-140.0
X68.125Y-142.54
X68.125Y-145.08
X68.125Y-147.62
X68.125Y-150.16
X68.125Y-152.7
X74.725Y-140.0
X74.725Y-142.54
X74.725Y-145.08
X74.725Y-147.62
X74.725Y-150.16
X74.725Y-152.7
X80.935Y-130.42
X80.935Y-132.96
X80.935Y-135.5
X81.325Y-140.0
X81.325Y-142.54
X81.325Y-145.08
X81.325Y-147.62
X81.325Y-150.16
X81.325Y-152.7
X83.475Y-130.42
X83.475Y-132.96
X83.475Y-135.5
X87.925Y-140.0
X87.925Y-142.54
X87.925Y-145.08
X87.925Y-147.62
X87.925Y-150.16
X87.925Y-152.7
X94.525Y-140.0
X94.525Y-142.54
X94.525Y-145.08
X94.525Y-147.62
X94.525Y-150.16
X94.525Y-152.7
X101.125Y-140.0
X101.125Y-142.54
X101.125Y-145.08
X101.125Y-147.62
X101.125Y-150.16
X101.125Y-152.7
X107.725Y-140.0
X107.725Y-142.54
X107.725Y-145.08
X107.725Y-147.62
X107.725Y-150.16
X107.725Y-152.7
X114.325Y-140.0
X114.325Y-142.54
X114.325Y-145.08
X114.325Y-147.62
X114.325Y-150.16
X114.325Y-152.7
X120.925Y-140.0
X120.925Y-142.54
X120.925Y-145.08
X120.925Y-147.62
X120.925Y-150.16
X120.925Y-152.7
T6
X47.1Y-157.35
X48.8Y-161.05
X50.5Y-157.35
X52.2Y-161.05
X53.9Y-157.35
T7
X111.8Y-130.66
X111.8Y-133.2
X111.8Y-135.74
T4
X87.4Y-133.25G85X87.4Y-134.95
G05
X90.05Y-129.2G85X91.75Y-129.2
G05
X90.05Y-137.3G85X91.75Y-137.3
G05
X94.4Y-133.25G85X94.4Y-134.95
G05
X98.9Y-133.25G85X98.9Y-134.95
G05
X101.55Y-129.2G85X103.25Y-129.2
G05
X101.55Y-137.3G85X103.25Y-137.3
G05
X105.9Y-133.25G85X105.9Y-134.95
G05
X117.5Y-132.3G85X117.5Y-135.0
G05
X121.15Y-128.35G85X118.45Y-128.35
G05
X124.85Y-130.85G85X122.15Y-130.85
G05
M30
