%TF.GenerationSoftware,KiCad,Pcbnew,7.0.9-69-ge1c0bddff3*%
%TF.CreationDate,2024-02-19T13:42:37+01:00*%
%TF.ProjectId,ASP_Backplane,4153505f-4261-4636-9b70-6c616e652e6b,B*%
%TF.SameCoordinates,Original*%
%TF.FileFunction,Drillmap*%
%TF.FilePolarity,Positive*%
%FSLAX45Y45*%
G04 Gerber Fmt 4.5, Leading zero omitted, Abs format (unit mm)*
G04 Created by KiCad (PCBNEW 7.0.9-69-ge1c0bddff3) date 2024-02-19 13:42:37*
%MOMM*%
%LPD*%
G01*
G04 APERTURE LIST*
%ADD10C,0.100000*%
%ADD11C,0.200000*%
%ADD12C,0.320000*%
G04 APERTURE END LIST*
D10*
X4400000Y-12600000D02*
X13700000Y-12600000D01*
X13700000Y-16600000D01*
X4400000Y-16600000D01*
X4400000Y-12600000D01*
D11*
X7030000Y-12770000D02*
X7230000Y-12970000D01*
X7230000Y-12770000D02*
X7030000Y-12970000D01*
X7030000Y-13650000D02*
X7230000Y-13850000D01*
X7230000Y-13650000D02*
X7030000Y-13850000D01*
D12*
X5060000Y-13100000D02*
G75*
G03*
X5060000Y-13100000I-160000J0D01*
G01*
X6760000Y-15800000D02*
G75*
G03*
X6760000Y-15800000I-160000J0D01*
G01*
X13160000Y-13100000D02*
G75*
G03*
X13160000Y-13100000I-160000J0D01*
G01*
X13160000Y-16100000D02*
G75*
G03*
X13160000Y-16100000I-160000J0D01*
G01*
D11*
X4655777Y-16916484D02*
X4655777Y-16716484D01*
X4655777Y-16716484D02*
X4703396Y-16716484D01*
X4703396Y-16716484D02*
X4731967Y-16726008D01*
X4731967Y-16726008D02*
X4751015Y-16745055D01*
X4751015Y-16745055D02*
X4760539Y-16764103D01*
X4760539Y-16764103D02*
X4770063Y-16802198D01*
X4770063Y-16802198D02*
X4770063Y-16830770D01*
X4770063Y-16830770D02*
X4760539Y-16868865D01*
X4760539Y-16868865D02*
X4751015Y-16887912D01*
X4751015Y-16887912D02*
X4731967Y-16906960D01*
X4731967Y-16906960D02*
X4703396Y-16916484D01*
X4703396Y-16916484D02*
X4655777Y-16916484D01*
X4855777Y-16916484D02*
X4855777Y-16783150D01*
X4855777Y-16821246D02*
X4865301Y-16802198D01*
X4865301Y-16802198D02*
X4874824Y-16792674D01*
X4874824Y-16792674D02*
X4893872Y-16783150D01*
X4893872Y-16783150D02*
X4912920Y-16783150D01*
X4979586Y-16916484D02*
X4979586Y-16783150D01*
X4979586Y-16716484D02*
X4970063Y-16726008D01*
X4970063Y-16726008D02*
X4979586Y-16735531D01*
X4979586Y-16735531D02*
X4989110Y-16726008D01*
X4989110Y-16726008D02*
X4979586Y-16716484D01*
X4979586Y-16716484D02*
X4979586Y-16735531D01*
X5103396Y-16916484D02*
X5084348Y-16906960D01*
X5084348Y-16906960D02*
X5074824Y-16887912D01*
X5074824Y-16887912D02*
X5074824Y-16716484D01*
X5208158Y-16916484D02*
X5189110Y-16906960D01*
X5189110Y-16906960D02*
X5179586Y-16887912D01*
X5179586Y-16887912D02*
X5179586Y-16716484D01*
X5436729Y-16916484D02*
X5436729Y-16716484D01*
X5436729Y-16716484D02*
X5503396Y-16859341D01*
X5503396Y-16859341D02*
X5570063Y-16716484D01*
X5570063Y-16716484D02*
X5570063Y-16916484D01*
X5751015Y-16916484D02*
X5751015Y-16811722D01*
X5751015Y-16811722D02*
X5741491Y-16792674D01*
X5741491Y-16792674D02*
X5722443Y-16783150D01*
X5722443Y-16783150D02*
X5684348Y-16783150D01*
X5684348Y-16783150D02*
X5665301Y-16792674D01*
X5751015Y-16906960D02*
X5731967Y-16916484D01*
X5731967Y-16916484D02*
X5684348Y-16916484D01*
X5684348Y-16916484D02*
X5665301Y-16906960D01*
X5665301Y-16906960D02*
X5655777Y-16887912D01*
X5655777Y-16887912D02*
X5655777Y-16868865D01*
X5655777Y-16868865D02*
X5665301Y-16849817D01*
X5665301Y-16849817D02*
X5684348Y-16840293D01*
X5684348Y-16840293D02*
X5731967Y-16840293D01*
X5731967Y-16840293D02*
X5751015Y-16830770D01*
X5846253Y-16783150D02*
X5846253Y-16983150D01*
X5846253Y-16792674D02*
X5865301Y-16783150D01*
X5865301Y-16783150D02*
X5903396Y-16783150D01*
X5903396Y-16783150D02*
X5922443Y-16792674D01*
X5922443Y-16792674D02*
X5931967Y-16802198D01*
X5931967Y-16802198D02*
X5941491Y-16821246D01*
X5941491Y-16821246D02*
X5941491Y-16878389D01*
X5941491Y-16878389D02*
X5931967Y-16897436D01*
X5931967Y-16897436D02*
X5922443Y-16906960D01*
X5922443Y-16906960D02*
X5903396Y-16916484D01*
X5903396Y-16916484D02*
X5865301Y-16916484D01*
X5865301Y-16916484D02*
X5846253Y-16906960D01*
X6027205Y-16897436D02*
X6036729Y-16906960D01*
X6036729Y-16906960D02*
X6027205Y-16916484D01*
X6027205Y-16916484D02*
X6017682Y-16906960D01*
X6017682Y-16906960D02*
X6027205Y-16897436D01*
X6027205Y-16897436D02*
X6027205Y-16916484D01*
X6027205Y-16792674D02*
X6036729Y-16802198D01*
X6036729Y-16802198D02*
X6027205Y-16811722D01*
X6027205Y-16811722D02*
X6017682Y-16802198D01*
X6017682Y-16802198D02*
X6027205Y-16792674D01*
X6027205Y-16792674D02*
X6027205Y-16811722D01*
X4195000Y-17145000D02*
X4395000Y-17345000D01*
X4395000Y-17145000D02*
X4195000Y-17345000D01*
X4646253Y-17155531D02*
X4655777Y-17146008D01*
X4655777Y-17146008D02*
X4674824Y-17136484D01*
X4674824Y-17136484D02*
X4722444Y-17136484D01*
X4722444Y-17136484D02*
X4741491Y-17146008D01*
X4741491Y-17146008D02*
X4751015Y-17155531D01*
X4751015Y-17155531D02*
X4760539Y-17174579D01*
X4760539Y-17174579D02*
X4760539Y-17193627D01*
X4760539Y-17193627D02*
X4751015Y-17222198D01*
X4751015Y-17222198D02*
X4636729Y-17336484D01*
X4636729Y-17336484D02*
X4760539Y-17336484D01*
X4846253Y-17317436D02*
X4855777Y-17326960D01*
X4855777Y-17326960D02*
X4846253Y-17336484D01*
X4846253Y-17336484D02*
X4836729Y-17326960D01*
X4836729Y-17326960D02*
X4846253Y-17317436D01*
X4846253Y-17317436D02*
X4846253Y-17336484D01*
X4979586Y-17136484D02*
X4998634Y-17136484D01*
X4998634Y-17136484D02*
X5017682Y-17146008D01*
X5017682Y-17146008D02*
X5027205Y-17155531D01*
X5027205Y-17155531D02*
X5036729Y-17174579D01*
X5036729Y-17174579D02*
X5046253Y-17212674D01*
X5046253Y-17212674D02*
X5046253Y-17260293D01*
X5046253Y-17260293D02*
X5036729Y-17298389D01*
X5036729Y-17298389D02*
X5027205Y-17317436D01*
X5027205Y-17317436D02*
X5017682Y-17326960D01*
X5017682Y-17326960D02*
X4998634Y-17336484D01*
X4998634Y-17336484D02*
X4979586Y-17336484D01*
X4979586Y-17336484D02*
X4960539Y-17326960D01*
X4960539Y-17326960D02*
X4951015Y-17317436D01*
X4951015Y-17317436D02*
X4941491Y-17298389D01*
X4941491Y-17298389D02*
X4931967Y-17260293D01*
X4931967Y-17260293D02*
X4931967Y-17212674D01*
X4931967Y-17212674D02*
X4941491Y-17174579D01*
X4941491Y-17174579D02*
X4951015Y-17155531D01*
X4951015Y-17155531D02*
X4960539Y-17146008D01*
X4960539Y-17146008D02*
X4979586Y-17136484D01*
X5170063Y-17136484D02*
X5189110Y-17136484D01*
X5189110Y-17136484D02*
X5208158Y-17146008D01*
X5208158Y-17146008D02*
X5217682Y-17155531D01*
X5217682Y-17155531D02*
X5227205Y-17174579D01*
X5227205Y-17174579D02*
X5236729Y-17212674D01*
X5236729Y-17212674D02*
X5236729Y-17260293D01*
X5236729Y-17260293D02*
X5227205Y-17298389D01*
X5227205Y-17298389D02*
X5217682Y-17317436D01*
X5217682Y-17317436D02*
X5208158Y-17326960D01*
X5208158Y-17326960D02*
X5189110Y-17336484D01*
X5189110Y-17336484D02*
X5170063Y-17336484D01*
X5170063Y-17336484D02*
X5151015Y-17326960D01*
X5151015Y-17326960D02*
X5141491Y-17317436D01*
X5141491Y-17317436D02*
X5131967Y-17298389D01*
X5131967Y-17298389D02*
X5122444Y-17260293D01*
X5122444Y-17260293D02*
X5122444Y-17212674D01*
X5122444Y-17212674D02*
X5131967Y-17174579D01*
X5131967Y-17174579D02*
X5141491Y-17155531D01*
X5141491Y-17155531D02*
X5151015Y-17146008D01*
X5151015Y-17146008D02*
X5170063Y-17136484D01*
X5360539Y-17136484D02*
X5379586Y-17136484D01*
X5379586Y-17136484D02*
X5398634Y-17146008D01*
X5398634Y-17146008D02*
X5408158Y-17155531D01*
X5408158Y-17155531D02*
X5417682Y-17174579D01*
X5417682Y-17174579D02*
X5427205Y-17212674D01*
X5427205Y-17212674D02*
X5427205Y-17260293D01*
X5427205Y-17260293D02*
X5417682Y-17298389D01*
X5417682Y-17298389D02*
X5408158Y-17317436D01*
X5408158Y-17317436D02*
X5398634Y-17326960D01*
X5398634Y-17326960D02*
X5379586Y-17336484D01*
X5379586Y-17336484D02*
X5360539Y-17336484D01*
X5360539Y-17336484D02*
X5341491Y-17326960D01*
X5341491Y-17326960D02*
X5331967Y-17317436D01*
X5331967Y-17317436D02*
X5322444Y-17298389D01*
X5322444Y-17298389D02*
X5312920Y-17260293D01*
X5312920Y-17260293D02*
X5312920Y-17212674D01*
X5312920Y-17212674D02*
X5322444Y-17174579D01*
X5322444Y-17174579D02*
X5331967Y-17155531D01*
X5331967Y-17155531D02*
X5341491Y-17146008D01*
X5341491Y-17146008D02*
X5360539Y-17136484D01*
X5512920Y-17336484D02*
X5512920Y-17203150D01*
X5512920Y-17222198D02*
X5522444Y-17212674D01*
X5522444Y-17212674D02*
X5541491Y-17203150D01*
X5541491Y-17203150D02*
X5570063Y-17203150D01*
X5570063Y-17203150D02*
X5589110Y-17212674D01*
X5589110Y-17212674D02*
X5598634Y-17231722D01*
X5598634Y-17231722D02*
X5598634Y-17336484D01*
X5598634Y-17231722D02*
X5608158Y-17212674D01*
X5608158Y-17212674D02*
X5627205Y-17203150D01*
X5627205Y-17203150D02*
X5655777Y-17203150D01*
X5655777Y-17203150D02*
X5674824Y-17212674D01*
X5674824Y-17212674D02*
X5684348Y-17231722D01*
X5684348Y-17231722D02*
X5684348Y-17336484D01*
X5779586Y-17336484D02*
X5779586Y-17203150D01*
X5779586Y-17222198D02*
X5789110Y-17212674D01*
X5789110Y-17212674D02*
X5808158Y-17203150D01*
X5808158Y-17203150D02*
X5836729Y-17203150D01*
X5836729Y-17203150D02*
X5855777Y-17212674D01*
X5855777Y-17212674D02*
X5865301Y-17231722D01*
X5865301Y-17231722D02*
X5865301Y-17336484D01*
X5865301Y-17231722D02*
X5874824Y-17212674D01*
X5874824Y-17212674D02*
X5893872Y-17203150D01*
X5893872Y-17203150D02*
X5922443Y-17203150D01*
X5922443Y-17203150D02*
X5941491Y-17212674D01*
X5941491Y-17212674D02*
X5951015Y-17231722D01*
X5951015Y-17231722D02*
X5951015Y-17336484D01*
X6341491Y-17126960D02*
X6170063Y-17384103D01*
X6598634Y-17136484D02*
X6617682Y-17136484D01*
X6617682Y-17136484D02*
X6636729Y-17146008D01*
X6636729Y-17146008D02*
X6646253Y-17155531D01*
X6646253Y-17155531D02*
X6655777Y-17174579D01*
X6655777Y-17174579D02*
X6665301Y-17212674D01*
X6665301Y-17212674D02*
X6665301Y-17260293D01*
X6665301Y-17260293D02*
X6655777Y-17298389D01*
X6655777Y-17298389D02*
X6646253Y-17317436D01*
X6646253Y-17317436D02*
X6636729Y-17326960D01*
X6636729Y-17326960D02*
X6617682Y-17336484D01*
X6617682Y-17336484D02*
X6598634Y-17336484D01*
X6598634Y-17336484D02*
X6579586Y-17326960D01*
X6579586Y-17326960D02*
X6570063Y-17317436D01*
X6570063Y-17317436D02*
X6560539Y-17298389D01*
X6560539Y-17298389D02*
X6551015Y-17260293D01*
X6551015Y-17260293D02*
X6551015Y-17212674D01*
X6551015Y-17212674D02*
X6560539Y-17174579D01*
X6560539Y-17174579D02*
X6570063Y-17155531D01*
X6570063Y-17155531D02*
X6579586Y-17146008D01*
X6579586Y-17146008D02*
X6598634Y-17136484D01*
X6751015Y-17317436D02*
X6760539Y-17326960D01*
X6760539Y-17326960D02*
X6751015Y-17336484D01*
X6751015Y-17336484D02*
X6741491Y-17326960D01*
X6741491Y-17326960D02*
X6751015Y-17317436D01*
X6751015Y-17317436D02*
X6751015Y-17336484D01*
X6884348Y-17136484D02*
X6903396Y-17136484D01*
X6903396Y-17136484D02*
X6922444Y-17146008D01*
X6922444Y-17146008D02*
X6931967Y-17155531D01*
X6931967Y-17155531D02*
X6941491Y-17174579D01*
X6941491Y-17174579D02*
X6951015Y-17212674D01*
X6951015Y-17212674D02*
X6951015Y-17260293D01*
X6951015Y-17260293D02*
X6941491Y-17298389D01*
X6941491Y-17298389D02*
X6931967Y-17317436D01*
X6931967Y-17317436D02*
X6922444Y-17326960D01*
X6922444Y-17326960D02*
X6903396Y-17336484D01*
X6903396Y-17336484D02*
X6884348Y-17336484D01*
X6884348Y-17336484D02*
X6865301Y-17326960D01*
X6865301Y-17326960D02*
X6855777Y-17317436D01*
X6855777Y-17317436D02*
X6846253Y-17298389D01*
X6846253Y-17298389D02*
X6836729Y-17260293D01*
X6836729Y-17260293D02*
X6836729Y-17212674D01*
X6836729Y-17212674D02*
X6846253Y-17174579D01*
X6846253Y-17174579D02*
X6855777Y-17155531D01*
X6855777Y-17155531D02*
X6865301Y-17146008D01*
X6865301Y-17146008D02*
X6884348Y-17136484D01*
X7017682Y-17136484D02*
X7151015Y-17136484D01*
X7151015Y-17136484D02*
X7065301Y-17336484D01*
X7255777Y-17222198D02*
X7236729Y-17212674D01*
X7236729Y-17212674D02*
X7227206Y-17203150D01*
X7227206Y-17203150D02*
X7217682Y-17184103D01*
X7217682Y-17184103D02*
X7217682Y-17174579D01*
X7217682Y-17174579D02*
X7227206Y-17155531D01*
X7227206Y-17155531D02*
X7236729Y-17146008D01*
X7236729Y-17146008D02*
X7255777Y-17136484D01*
X7255777Y-17136484D02*
X7293872Y-17136484D01*
X7293872Y-17136484D02*
X7312920Y-17146008D01*
X7312920Y-17146008D02*
X7322444Y-17155531D01*
X7322444Y-17155531D02*
X7331967Y-17174579D01*
X7331967Y-17174579D02*
X7331967Y-17184103D01*
X7331967Y-17184103D02*
X7322444Y-17203150D01*
X7322444Y-17203150D02*
X7312920Y-17212674D01*
X7312920Y-17212674D02*
X7293872Y-17222198D01*
X7293872Y-17222198D02*
X7255777Y-17222198D01*
X7255777Y-17222198D02*
X7236729Y-17231722D01*
X7236729Y-17231722D02*
X7227206Y-17241246D01*
X7227206Y-17241246D02*
X7217682Y-17260293D01*
X7217682Y-17260293D02*
X7217682Y-17298389D01*
X7217682Y-17298389D02*
X7227206Y-17317436D01*
X7227206Y-17317436D02*
X7236729Y-17326960D01*
X7236729Y-17326960D02*
X7255777Y-17336484D01*
X7255777Y-17336484D02*
X7293872Y-17336484D01*
X7293872Y-17336484D02*
X7312920Y-17326960D01*
X7312920Y-17326960D02*
X7322444Y-17317436D01*
X7322444Y-17317436D02*
X7331967Y-17298389D01*
X7331967Y-17298389D02*
X7331967Y-17260293D01*
X7331967Y-17260293D02*
X7322444Y-17241246D01*
X7322444Y-17241246D02*
X7312920Y-17231722D01*
X7312920Y-17231722D02*
X7293872Y-17222198D01*
X7398634Y-17136484D02*
X7531967Y-17136484D01*
X7531967Y-17136484D02*
X7446253Y-17336484D01*
X7598634Y-17136484D02*
X7598634Y-17174579D01*
X7674825Y-17136484D02*
X7674825Y-17174579D01*
X7970063Y-17412674D02*
X7960539Y-17403150D01*
X7960539Y-17403150D02*
X7941491Y-17374579D01*
X7941491Y-17374579D02*
X7931968Y-17355531D01*
X7931968Y-17355531D02*
X7922444Y-17326960D01*
X7922444Y-17326960D02*
X7912920Y-17279341D01*
X7912920Y-17279341D02*
X7912920Y-17241246D01*
X7912920Y-17241246D02*
X7922444Y-17193627D01*
X7922444Y-17193627D02*
X7931968Y-17165055D01*
X7931968Y-17165055D02*
X7941491Y-17146008D01*
X7941491Y-17146008D02*
X7960539Y-17117436D01*
X7960539Y-17117436D02*
X7970063Y-17107912D01*
X8036729Y-17155531D02*
X8046253Y-17146008D01*
X8046253Y-17146008D02*
X8065301Y-17136484D01*
X8065301Y-17136484D02*
X8112920Y-17136484D01*
X8112920Y-17136484D02*
X8131968Y-17146008D01*
X8131968Y-17146008D02*
X8141491Y-17155531D01*
X8141491Y-17155531D02*
X8151015Y-17174579D01*
X8151015Y-17174579D02*
X8151015Y-17193627D01*
X8151015Y-17193627D02*
X8141491Y-17222198D01*
X8141491Y-17222198D02*
X8027206Y-17336484D01*
X8027206Y-17336484D02*
X8151015Y-17336484D01*
X8389111Y-17336484D02*
X8389111Y-17136484D01*
X8474825Y-17336484D02*
X8474825Y-17231722D01*
X8474825Y-17231722D02*
X8465301Y-17212674D01*
X8465301Y-17212674D02*
X8446253Y-17203150D01*
X8446253Y-17203150D02*
X8417682Y-17203150D01*
X8417682Y-17203150D02*
X8398634Y-17212674D01*
X8398634Y-17212674D02*
X8389111Y-17222198D01*
X8598634Y-17336484D02*
X8579587Y-17326960D01*
X8579587Y-17326960D02*
X8570063Y-17317436D01*
X8570063Y-17317436D02*
X8560539Y-17298389D01*
X8560539Y-17298389D02*
X8560539Y-17241246D01*
X8560539Y-17241246D02*
X8570063Y-17222198D01*
X8570063Y-17222198D02*
X8579587Y-17212674D01*
X8579587Y-17212674D02*
X8598634Y-17203150D01*
X8598634Y-17203150D02*
X8627206Y-17203150D01*
X8627206Y-17203150D02*
X8646253Y-17212674D01*
X8646253Y-17212674D02*
X8655777Y-17222198D01*
X8655777Y-17222198D02*
X8665301Y-17241246D01*
X8665301Y-17241246D02*
X8665301Y-17298389D01*
X8665301Y-17298389D02*
X8655777Y-17317436D01*
X8655777Y-17317436D02*
X8646253Y-17326960D01*
X8646253Y-17326960D02*
X8627206Y-17336484D01*
X8627206Y-17336484D02*
X8598634Y-17336484D01*
X8779587Y-17336484D02*
X8760539Y-17326960D01*
X8760539Y-17326960D02*
X8751015Y-17307912D01*
X8751015Y-17307912D02*
X8751015Y-17136484D01*
X8931968Y-17326960D02*
X8912920Y-17336484D01*
X8912920Y-17336484D02*
X8874825Y-17336484D01*
X8874825Y-17336484D02*
X8855777Y-17326960D01*
X8855777Y-17326960D02*
X8846253Y-17307912D01*
X8846253Y-17307912D02*
X8846253Y-17231722D01*
X8846253Y-17231722D02*
X8855777Y-17212674D01*
X8855777Y-17212674D02*
X8874825Y-17203150D01*
X8874825Y-17203150D02*
X8912920Y-17203150D01*
X8912920Y-17203150D02*
X8931968Y-17212674D01*
X8931968Y-17212674D02*
X8941492Y-17231722D01*
X8941492Y-17231722D02*
X8941492Y-17250770D01*
X8941492Y-17250770D02*
X8846253Y-17269817D01*
X9017682Y-17326960D02*
X9036730Y-17336484D01*
X9036730Y-17336484D02*
X9074825Y-17336484D01*
X9074825Y-17336484D02*
X9093873Y-17326960D01*
X9093873Y-17326960D02*
X9103396Y-17307912D01*
X9103396Y-17307912D02*
X9103396Y-17298389D01*
X9103396Y-17298389D02*
X9093873Y-17279341D01*
X9093873Y-17279341D02*
X9074825Y-17269817D01*
X9074825Y-17269817D02*
X9046253Y-17269817D01*
X9046253Y-17269817D02*
X9027206Y-17260293D01*
X9027206Y-17260293D02*
X9017682Y-17241246D01*
X9017682Y-17241246D02*
X9017682Y-17231722D01*
X9017682Y-17231722D02*
X9027206Y-17212674D01*
X9027206Y-17212674D02*
X9046253Y-17203150D01*
X9046253Y-17203150D02*
X9074825Y-17203150D01*
X9074825Y-17203150D02*
X9093873Y-17212674D01*
X9170063Y-17412674D02*
X9179587Y-17403150D01*
X9179587Y-17403150D02*
X9198634Y-17374579D01*
X9198634Y-17374579D02*
X9208158Y-17355531D01*
X9208158Y-17355531D02*
X9217682Y-17326960D01*
X9217682Y-17326960D02*
X9227206Y-17279341D01*
X9227206Y-17279341D02*
X9227206Y-17241246D01*
X9227206Y-17241246D02*
X9217682Y-17193627D01*
X9217682Y-17193627D02*
X9208158Y-17165055D01*
X9208158Y-17165055D02*
X9198634Y-17146008D01*
X9198634Y-17146008D02*
X9179587Y-17117436D01*
X9179587Y-17117436D02*
X9170063Y-17107912D01*
X9531968Y-17412674D02*
X9522444Y-17403150D01*
X9522444Y-17403150D02*
X9503396Y-17374579D01*
X9503396Y-17374579D02*
X9493873Y-17355531D01*
X9493873Y-17355531D02*
X9484349Y-17326960D01*
X9484349Y-17326960D02*
X9474825Y-17279341D01*
X9474825Y-17279341D02*
X9474825Y-17241246D01*
X9474825Y-17241246D02*
X9484349Y-17193627D01*
X9484349Y-17193627D02*
X9493873Y-17165055D01*
X9493873Y-17165055D02*
X9503396Y-17146008D01*
X9503396Y-17146008D02*
X9522444Y-17117436D01*
X9522444Y-17117436D02*
X9531968Y-17107912D01*
X9608158Y-17203150D02*
X9608158Y-17336484D01*
X9608158Y-17222198D02*
X9617682Y-17212674D01*
X9617682Y-17212674D02*
X9636730Y-17203150D01*
X9636730Y-17203150D02*
X9665301Y-17203150D01*
X9665301Y-17203150D02*
X9684349Y-17212674D01*
X9684349Y-17212674D02*
X9693873Y-17231722D01*
X9693873Y-17231722D02*
X9693873Y-17336484D01*
X9817682Y-17336484D02*
X9798634Y-17326960D01*
X9798634Y-17326960D02*
X9789111Y-17317436D01*
X9789111Y-17317436D02*
X9779587Y-17298389D01*
X9779587Y-17298389D02*
X9779587Y-17241246D01*
X9779587Y-17241246D02*
X9789111Y-17222198D01*
X9789111Y-17222198D02*
X9798634Y-17212674D01*
X9798634Y-17212674D02*
X9817682Y-17203150D01*
X9817682Y-17203150D02*
X9846254Y-17203150D01*
X9846254Y-17203150D02*
X9865301Y-17212674D01*
X9865301Y-17212674D02*
X9874825Y-17222198D01*
X9874825Y-17222198D02*
X9884349Y-17241246D01*
X9884349Y-17241246D02*
X9884349Y-17298389D01*
X9884349Y-17298389D02*
X9874825Y-17317436D01*
X9874825Y-17317436D02*
X9865301Y-17326960D01*
X9865301Y-17326960D02*
X9846254Y-17336484D01*
X9846254Y-17336484D02*
X9817682Y-17336484D01*
X9941492Y-17203150D02*
X10017682Y-17203150D01*
X9970063Y-17136484D02*
X9970063Y-17307912D01*
X9970063Y-17307912D02*
X9979587Y-17326960D01*
X9979587Y-17326960D02*
X9998634Y-17336484D01*
X9998634Y-17336484D02*
X10017682Y-17336484D01*
X10236730Y-17203150D02*
X10236730Y-17403150D01*
X10236730Y-17212674D02*
X10255777Y-17203150D01*
X10255777Y-17203150D02*
X10293873Y-17203150D01*
X10293873Y-17203150D02*
X10312920Y-17212674D01*
X10312920Y-17212674D02*
X10322444Y-17222198D01*
X10322444Y-17222198D02*
X10331968Y-17241246D01*
X10331968Y-17241246D02*
X10331968Y-17298389D01*
X10331968Y-17298389D02*
X10322444Y-17317436D01*
X10322444Y-17317436D02*
X10312920Y-17326960D01*
X10312920Y-17326960D02*
X10293873Y-17336484D01*
X10293873Y-17336484D02*
X10255777Y-17336484D01*
X10255777Y-17336484D02*
X10236730Y-17326960D01*
X10446254Y-17336484D02*
X10427206Y-17326960D01*
X10427206Y-17326960D02*
X10417682Y-17307912D01*
X10417682Y-17307912D02*
X10417682Y-17136484D01*
X10608158Y-17336484D02*
X10608158Y-17231722D01*
X10608158Y-17231722D02*
X10598635Y-17212674D01*
X10598635Y-17212674D02*
X10579587Y-17203150D01*
X10579587Y-17203150D02*
X10541492Y-17203150D01*
X10541492Y-17203150D02*
X10522444Y-17212674D01*
X10608158Y-17326960D02*
X10589111Y-17336484D01*
X10589111Y-17336484D02*
X10541492Y-17336484D01*
X10541492Y-17336484D02*
X10522444Y-17326960D01*
X10522444Y-17326960D02*
X10512920Y-17307912D01*
X10512920Y-17307912D02*
X10512920Y-17288865D01*
X10512920Y-17288865D02*
X10522444Y-17269817D01*
X10522444Y-17269817D02*
X10541492Y-17260293D01*
X10541492Y-17260293D02*
X10589111Y-17260293D01*
X10589111Y-17260293D02*
X10608158Y-17250770D01*
X10674825Y-17203150D02*
X10751015Y-17203150D01*
X10703396Y-17136484D02*
X10703396Y-17307912D01*
X10703396Y-17307912D02*
X10712920Y-17326960D01*
X10712920Y-17326960D02*
X10731968Y-17336484D01*
X10731968Y-17336484D02*
X10751015Y-17336484D01*
X10893873Y-17326960D02*
X10874825Y-17336484D01*
X10874825Y-17336484D02*
X10836730Y-17336484D01*
X10836730Y-17336484D02*
X10817682Y-17326960D01*
X10817682Y-17326960D02*
X10808158Y-17307912D01*
X10808158Y-17307912D02*
X10808158Y-17231722D01*
X10808158Y-17231722D02*
X10817682Y-17212674D01*
X10817682Y-17212674D02*
X10836730Y-17203150D01*
X10836730Y-17203150D02*
X10874825Y-17203150D01*
X10874825Y-17203150D02*
X10893873Y-17212674D01*
X10893873Y-17212674D02*
X10903396Y-17231722D01*
X10903396Y-17231722D02*
X10903396Y-17250770D01*
X10903396Y-17250770D02*
X10808158Y-17269817D01*
X11074825Y-17336484D02*
X11074825Y-17136484D01*
X11074825Y-17326960D02*
X11055777Y-17336484D01*
X11055777Y-17336484D02*
X11017682Y-17336484D01*
X11017682Y-17336484D02*
X10998635Y-17326960D01*
X10998635Y-17326960D02*
X10989111Y-17317436D01*
X10989111Y-17317436D02*
X10979587Y-17298389D01*
X10979587Y-17298389D02*
X10979587Y-17241246D01*
X10979587Y-17241246D02*
X10989111Y-17222198D01*
X10989111Y-17222198D02*
X10998635Y-17212674D01*
X10998635Y-17212674D02*
X11017682Y-17203150D01*
X11017682Y-17203150D02*
X11055777Y-17203150D01*
X11055777Y-17203150D02*
X11074825Y-17212674D01*
X11151016Y-17412674D02*
X11160539Y-17403150D01*
X11160539Y-17403150D02*
X11179587Y-17374579D01*
X11179587Y-17374579D02*
X11189111Y-17355531D01*
X11189111Y-17355531D02*
X11198634Y-17326960D01*
X11198634Y-17326960D02*
X11208158Y-17279341D01*
X11208158Y-17279341D02*
X11208158Y-17241246D01*
X11208158Y-17241246D02*
X11198634Y-17193627D01*
X11198634Y-17193627D02*
X11189111Y-17165055D01*
X11189111Y-17165055D02*
X11179587Y-17146008D01*
X11179587Y-17146008D02*
X11160539Y-17117436D01*
X11160539Y-17117436D02*
X11151016Y-17107912D01*
X4395000Y-17565000D02*
G75*
G03*
X4395000Y-17565000I-100000J0D01*
G01*
X4636729Y-17456484D02*
X4760539Y-17456484D01*
X4760539Y-17456484D02*
X4693872Y-17532674D01*
X4693872Y-17532674D02*
X4722444Y-17532674D01*
X4722444Y-17532674D02*
X4741491Y-17542198D01*
X4741491Y-17542198D02*
X4751015Y-17551722D01*
X4751015Y-17551722D02*
X4760539Y-17570770D01*
X4760539Y-17570770D02*
X4760539Y-17618389D01*
X4760539Y-17618389D02*
X4751015Y-17637436D01*
X4751015Y-17637436D02*
X4741491Y-17646960D01*
X4741491Y-17646960D02*
X4722444Y-17656484D01*
X4722444Y-17656484D02*
X4665301Y-17656484D01*
X4665301Y-17656484D02*
X4646253Y-17646960D01*
X4646253Y-17646960D02*
X4636729Y-17637436D01*
X4846253Y-17637436D02*
X4855777Y-17646960D01*
X4855777Y-17646960D02*
X4846253Y-17656484D01*
X4846253Y-17656484D02*
X4836729Y-17646960D01*
X4836729Y-17646960D02*
X4846253Y-17637436D01*
X4846253Y-17637436D02*
X4846253Y-17656484D01*
X4931967Y-17475531D02*
X4941491Y-17466008D01*
X4941491Y-17466008D02*
X4960539Y-17456484D01*
X4960539Y-17456484D02*
X5008158Y-17456484D01*
X5008158Y-17456484D02*
X5027205Y-17466008D01*
X5027205Y-17466008D02*
X5036729Y-17475531D01*
X5036729Y-17475531D02*
X5046253Y-17494579D01*
X5046253Y-17494579D02*
X5046253Y-17513627D01*
X5046253Y-17513627D02*
X5036729Y-17542198D01*
X5036729Y-17542198D02*
X4922444Y-17656484D01*
X4922444Y-17656484D02*
X5046253Y-17656484D01*
X5170063Y-17456484D02*
X5189110Y-17456484D01*
X5189110Y-17456484D02*
X5208158Y-17466008D01*
X5208158Y-17466008D02*
X5217682Y-17475531D01*
X5217682Y-17475531D02*
X5227205Y-17494579D01*
X5227205Y-17494579D02*
X5236729Y-17532674D01*
X5236729Y-17532674D02*
X5236729Y-17580293D01*
X5236729Y-17580293D02*
X5227205Y-17618389D01*
X5227205Y-17618389D02*
X5217682Y-17637436D01*
X5217682Y-17637436D02*
X5208158Y-17646960D01*
X5208158Y-17646960D02*
X5189110Y-17656484D01*
X5189110Y-17656484D02*
X5170063Y-17656484D01*
X5170063Y-17656484D02*
X5151015Y-17646960D01*
X5151015Y-17646960D02*
X5141491Y-17637436D01*
X5141491Y-17637436D02*
X5131967Y-17618389D01*
X5131967Y-17618389D02*
X5122444Y-17580293D01*
X5122444Y-17580293D02*
X5122444Y-17532674D01*
X5122444Y-17532674D02*
X5131967Y-17494579D01*
X5131967Y-17494579D02*
X5141491Y-17475531D01*
X5141491Y-17475531D02*
X5151015Y-17466008D01*
X5151015Y-17466008D02*
X5170063Y-17456484D01*
X5360539Y-17456484D02*
X5379586Y-17456484D01*
X5379586Y-17456484D02*
X5398634Y-17466008D01*
X5398634Y-17466008D02*
X5408158Y-17475531D01*
X5408158Y-17475531D02*
X5417682Y-17494579D01*
X5417682Y-17494579D02*
X5427205Y-17532674D01*
X5427205Y-17532674D02*
X5427205Y-17580293D01*
X5427205Y-17580293D02*
X5417682Y-17618389D01*
X5417682Y-17618389D02*
X5408158Y-17637436D01*
X5408158Y-17637436D02*
X5398634Y-17646960D01*
X5398634Y-17646960D02*
X5379586Y-17656484D01*
X5379586Y-17656484D02*
X5360539Y-17656484D01*
X5360539Y-17656484D02*
X5341491Y-17646960D01*
X5341491Y-17646960D02*
X5331967Y-17637436D01*
X5331967Y-17637436D02*
X5322444Y-17618389D01*
X5322444Y-17618389D02*
X5312920Y-17580293D01*
X5312920Y-17580293D02*
X5312920Y-17532674D01*
X5312920Y-17532674D02*
X5322444Y-17494579D01*
X5322444Y-17494579D02*
X5331967Y-17475531D01*
X5331967Y-17475531D02*
X5341491Y-17466008D01*
X5341491Y-17466008D02*
X5360539Y-17456484D01*
X5512920Y-17656484D02*
X5512920Y-17523150D01*
X5512920Y-17542198D02*
X5522444Y-17532674D01*
X5522444Y-17532674D02*
X5541491Y-17523150D01*
X5541491Y-17523150D02*
X5570063Y-17523150D01*
X5570063Y-17523150D02*
X5589110Y-17532674D01*
X5589110Y-17532674D02*
X5598634Y-17551722D01*
X5598634Y-17551722D02*
X5598634Y-17656484D01*
X5598634Y-17551722D02*
X5608158Y-17532674D01*
X5608158Y-17532674D02*
X5627205Y-17523150D01*
X5627205Y-17523150D02*
X5655777Y-17523150D01*
X5655777Y-17523150D02*
X5674824Y-17532674D01*
X5674824Y-17532674D02*
X5684348Y-17551722D01*
X5684348Y-17551722D02*
X5684348Y-17656484D01*
X5779586Y-17656484D02*
X5779586Y-17523150D01*
X5779586Y-17542198D02*
X5789110Y-17532674D01*
X5789110Y-17532674D02*
X5808158Y-17523150D01*
X5808158Y-17523150D02*
X5836729Y-17523150D01*
X5836729Y-17523150D02*
X5855777Y-17532674D01*
X5855777Y-17532674D02*
X5865301Y-17551722D01*
X5865301Y-17551722D02*
X5865301Y-17656484D01*
X5865301Y-17551722D02*
X5874824Y-17532674D01*
X5874824Y-17532674D02*
X5893872Y-17523150D01*
X5893872Y-17523150D02*
X5922443Y-17523150D01*
X5922443Y-17523150D02*
X5941491Y-17532674D01*
X5941491Y-17532674D02*
X5951015Y-17551722D01*
X5951015Y-17551722D02*
X5951015Y-17656484D01*
X6341491Y-17446960D02*
X6170063Y-17704103D01*
X6598634Y-17456484D02*
X6617682Y-17456484D01*
X6617682Y-17456484D02*
X6636729Y-17466008D01*
X6636729Y-17466008D02*
X6646253Y-17475531D01*
X6646253Y-17475531D02*
X6655777Y-17494579D01*
X6655777Y-17494579D02*
X6665301Y-17532674D01*
X6665301Y-17532674D02*
X6665301Y-17580293D01*
X6665301Y-17580293D02*
X6655777Y-17618389D01*
X6655777Y-17618389D02*
X6646253Y-17637436D01*
X6646253Y-17637436D02*
X6636729Y-17646960D01*
X6636729Y-17646960D02*
X6617682Y-17656484D01*
X6617682Y-17656484D02*
X6598634Y-17656484D01*
X6598634Y-17656484D02*
X6579586Y-17646960D01*
X6579586Y-17646960D02*
X6570063Y-17637436D01*
X6570063Y-17637436D02*
X6560539Y-17618389D01*
X6560539Y-17618389D02*
X6551015Y-17580293D01*
X6551015Y-17580293D02*
X6551015Y-17532674D01*
X6551015Y-17532674D02*
X6560539Y-17494579D01*
X6560539Y-17494579D02*
X6570063Y-17475531D01*
X6570063Y-17475531D02*
X6579586Y-17466008D01*
X6579586Y-17466008D02*
X6598634Y-17456484D01*
X6751015Y-17637436D02*
X6760539Y-17646960D01*
X6760539Y-17646960D02*
X6751015Y-17656484D01*
X6751015Y-17656484D02*
X6741491Y-17646960D01*
X6741491Y-17646960D02*
X6751015Y-17637436D01*
X6751015Y-17637436D02*
X6751015Y-17656484D01*
X6951015Y-17656484D02*
X6836729Y-17656484D01*
X6893872Y-17656484D02*
X6893872Y-17456484D01*
X6893872Y-17456484D02*
X6874825Y-17485055D01*
X6874825Y-17485055D02*
X6855777Y-17504103D01*
X6855777Y-17504103D02*
X6836729Y-17513627D01*
X7027206Y-17475531D02*
X7036729Y-17466008D01*
X7036729Y-17466008D02*
X7055777Y-17456484D01*
X7055777Y-17456484D02*
X7103396Y-17456484D01*
X7103396Y-17456484D02*
X7122444Y-17466008D01*
X7122444Y-17466008D02*
X7131967Y-17475531D01*
X7131967Y-17475531D02*
X7141491Y-17494579D01*
X7141491Y-17494579D02*
X7141491Y-17513627D01*
X7141491Y-17513627D02*
X7131967Y-17542198D01*
X7131967Y-17542198D02*
X7017682Y-17656484D01*
X7017682Y-17656484D02*
X7141491Y-17656484D01*
X7312920Y-17456484D02*
X7274825Y-17456484D01*
X7274825Y-17456484D02*
X7255777Y-17466008D01*
X7255777Y-17466008D02*
X7246253Y-17475531D01*
X7246253Y-17475531D02*
X7227206Y-17504103D01*
X7227206Y-17504103D02*
X7217682Y-17542198D01*
X7217682Y-17542198D02*
X7217682Y-17618389D01*
X7217682Y-17618389D02*
X7227206Y-17637436D01*
X7227206Y-17637436D02*
X7236729Y-17646960D01*
X7236729Y-17646960D02*
X7255777Y-17656484D01*
X7255777Y-17656484D02*
X7293872Y-17656484D01*
X7293872Y-17656484D02*
X7312920Y-17646960D01*
X7312920Y-17646960D02*
X7322444Y-17637436D01*
X7322444Y-17637436D02*
X7331967Y-17618389D01*
X7331967Y-17618389D02*
X7331967Y-17570770D01*
X7331967Y-17570770D02*
X7322444Y-17551722D01*
X7322444Y-17551722D02*
X7312920Y-17542198D01*
X7312920Y-17542198D02*
X7293872Y-17532674D01*
X7293872Y-17532674D02*
X7255777Y-17532674D01*
X7255777Y-17532674D02*
X7236729Y-17542198D01*
X7236729Y-17542198D02*
X7227206Y-17551722D01*
X7227206Y-17551722D02*
X7217682Y-17570770D01*
X7455777Y-17456484D02*
X7474825Y-17456484D01*
X7474825Y-17456484D02*
X7493872Y-17466008D01*
X7493872Y-17466008D02*
X7503396Y-17475531D01*
X7503396Y-17475531D02*
X7512920Y-17494579D01*
X7512920Y-17494579D02*
X7522444Y-17532674D01*
X7522444Y-17532674D02*
X7522444Y-17580293D01*
X7522444Y-17580293D02*
X7512920Y-17618389D01*
X7512920Y-17618389D02*
X7503396Y-17637436D01*
X7503396Y-17637436D02*
X7493872Y-17646960D01*
X7493872Y-17646960D02*
X7474825Y-17656484D01*
X7474825Y-17656484D02*
X7455777Y-17656484D01*
X7455777Y-17656484D02*
X7436729Y-17646960D01*
X7436729Y-17646960D02*
X7427206Y-17637436D01*
X7427206Y-17637436D02*
X7417682Y-17618389D01*
X7417682Y-17618389D02*
X7408158Y-17580293D01*
X7408158Y-17580293D02*
X7408158Y-17532674D01*
X7408158Y-17532674D02*
X7417682Y-17494579D01*
X7417682Y-17494579D02*
X7427206Y-17475531D01*
X7427206Y-17475531D02*
X7436729Y-17466008D01*
X7436729Y-17466008D02*
X7455777Y-17456484D01*
X7598634Y-17456484D02*
X7598634Y-17494579D01*
X7674825Y-17456484D02*
X7674825Y-17494579D01*
X7970063Y-17732674D02*
X7960539Y-17723150D01*
X7960539Y-17723150D02*
X7941491Y-17694579D01*
X7941491Y-17694579D02*
X7931968Y-17675531D01*
X7931968Y-17675531D02*
X7922444Y-17646960D01*
X7922444Y-17646960D02*
X7912920Y-17599341D01*
X7912920Y-17599341D02*
X7912920Y-17561246D01*
X7912920Y-17561246D02*
X7922444Y-17513627D01*
X7922444Y-17513627D02*
X7931968Y-17485055D01*
X7931968Y-17485055D02*
X7941491Y-17466008D01*
X7941491Y-17466008D02*
X7960539Y-17437436D01*
X7960539Y-17437436D02*
X7970063Y-17427912D01*
X8131968Y-17523150D02*
X8131968Y-17656484D01*
X8084348Y-17446960D02*
X8036729Y-17589817D01*
X8036729Y-17589817D02*
X8160539Y-17589817D01*
X8389111Y-17656484D02*
X8389111Y-17456484D01*
X8474825Y-17656484D02*
X8474825Y-17551722D01*
X8474825Y-17551722D02*
X8465301Y-17532674D01*
X8465301Y-17532674D02*
X8446253Y-17523150D01*
X8446253Y-17523150D02*
X8417682Y-17523150D01*
X8417682Y-17523150D02*
X8398634Y-17532674D01*
X8398634Y-17532674D02*
X8389111Y-17542198D01*
X8598634Y-17656484D02*
X8579587Y-17646960D01*
X8579587Y-17646960D02*
X8570063Y-17637436D01*
X8570063Y-17637436D02*
X8560539Y-17618389D01*
X8560539Y-17618389D02*
X8560539Y-17561246D01*
X8560539Y-17561246D02*
X8570063Y-17542198D01*
X8570063Y-17542198D02*
X8579587Y-17532674D01*
X8579587Y-17532674D02*
X8598634Y-17523150D01*
X8598634Y-17523150D02*
X8627206Y-17523150D01*
X8627206Y-17523150D02*
X8646253Y-17532674D01*
X8646253Y-17532674D02*
X8655777Y-17542198D01*
X8655777Y-17542198D02*
X8665301Y-17561246D01*
X8665301Y-17561246D02*
X8665301Y-17618389D01*
X8665301Y-17618389D02*
X8655777Y-17637436D01*
X8655777Y-17637436D02*
X8646253Y-17646960D01*
X8646253Y-17646960D02*
X8627206Y-17656484D01*
X8627206Y-17656484D02*
X8598634Y-17656484D01*
X8779587Y-17656484D02*
X8760539Y-17646960D01*
X8760539Y-17646960D02*
X8751015Y-17627912D01*
X8751015Y-17627912D02*
X8751015Y-17456484D01*
X8931968Y-17646960D02*
X8912920Y-17656484D01*
X8912920Y-17656484D02*
X8874825Y-17656484D01*
X8874825Y-17656484D02*
X8855777Y-17646960D01*
X8855777Y-17646960D02*
X8846253Y-17627912D01*
X8846253Y-17627912D02*
X8846253Y-17551722D01*
X8846253Y-17551722D02*
X8855777Y-17532674D01*
X8855777Y-17532674D02*
X8874825Y-17523150D01*
X8874825Y-17523150D02*
X8912920Y-17523150D01*
X8912920Y-17523150D02*
X8931968Y-17532674D01*
X8931968Y-17532674D02*
X8941492Y-17551722D01*
X8941492Y-17551722D02*
X8941492Y-17570770D01*
X8941492Y-17570770D02*
X8846253Y-17589817D01*
X9017682Y-17646960D02*
X9036730Y-17656484D01*
X9036730Y-17656484D02*
X9074825Y-17656484D01*
X9074825Y-17656484D02*
X9093873Y-17646960D01*
X9093873Y-17646960D02*
X9103396Y-17627912D01*
X9103396Y-17627912D02*
X9103396Y-17618389D01*
X9103396Y-17618389D02*
X9093873Y-17599341D01*
X9093873Y-17599341D02*
X9074825Y-17589817D01*
X9074825Y-17589817D02*
X9046253Y-17589817D01*
X9046253Y-17589817D02*
X9027206Y-17580293D01*
X9027206Y-17580293D02*
X9017682Y-17561246D01*
X9017682Y-17561246D02*
X9017682Y-17551722D01*
X9017682Y-17551722D02*
X9027206Y-17532674D01*
X9027206Y-17532674D02*
X9046253Y-17523150D01*
X9046253Y-17523150D02*
X9074825Y-17523150D01*
X9074825Y-17523150D02*
X9093873Y-17532674D01*
X9170063Y-17732674D02*
X9179587Y-17723150D01*
X9179587Y-17723150D02*
X9198634Y-17694579D01*
X9198634Y-17694579D02*
X9208158Y-17675531D01*
X9208158Y-17675531D02*
X9217682Y-17646960D01*
X9217682Y-17646960D02*
X9227206Y-17599341D01*
X9227206Y-17599341D02*
X9227206Y-17561246D01*
X9227206Y-17561246D02*
X9217682Y-17513627D01*
X9217682Y-17513627D02*
X9208158Y-17485055D01*
X9208158Y-17485055D02*
X9198634Y-17466008D01*
X9198634Y-17466008D02*
X9179587Y-17437436D01*
X9179587Y-17437436D02*
X9170063Y-17427912D01*
X9531968Y-17732674D02*
X9522444Y-17723150D01*
X9522444Y-17723150D02*
X9503396Y-17694579D01*
X9503396Y-17694579D02*
X9493873Y-17675531D01*
X9493873Y-17675531D02*
X9484349Y-17646960D01*
X9484349Y-17646960D02*
X9474825Y-17599341D01*
X9474825Y-17599341D02*
X9474825Y-17561246D01*
X9474825Y-17561246D02*
X9484349Y-17513627D01*
X9484349Y-17513627D02*
X9493873Y-17485055D01*
X9493873Y-17485055D02*
X9503396Y-17466008D01*
X9503396Y-17466008D02*
X9522444Y-17437436D01*
X9522444Y-17437436D02*
X9531968Y-17427912D01*
X9608158Y-17523150D02*
X9608158Y-17656484D01*
X9608158Y-17542198D02*
X9617682Y-17532674D01*
X9617682Y-17532674D02*
X9636730Y-17523150D01*
X9636730Y-17523150D02*
X9665301Y-17523150D01*
X9665301Y-17523150D02*
X9684349Y-17532674D01*
X9684349Y-17532674D02*
X9693873Y-17551722D01*
X9693873Y-17551722D02*
X9693873Y-17656484D01*
X9817682Y-17656484D02*
X9798634Y-17646960D01*
X9798634Y-17646960D02*
X9789111Y-17637436D01*
X9789111Y-17637436D02*
X9779587Y-17618389D01*
X9779587Y-17618389D02*
X9779587Y-17561246D01*
X9779587Y-17561246D02*
X9789111Y-17542198D01*
X9789111Y-17542198D02*
X9798634Y-17532674D01*
X9798634Y-17532674D02*
X9817682Y-17523150D01*
X9817682Y-17523150D02*
X9846254Y-17523150D01*
X9846254Y-17523150D02*
X9865301Y-17532674D01*
X9865301Y-17532674D02*
X9874825Y-17542198D01*
X9874825Y-17542198D02*
X9884349Y-17561246D01*
X9884349Y-17561246D02*
X9884349Y-17618389D01*
X9884349Y-17618389D02*
X9874825Y-17637436D01*
X9874825Y-17637436D02*
X9865301Y-17646960D01*
X9865301Y-17646960D02*
X9846254Y-17656484D01*
X9846254Y-17656484D02*
X9817682Y-17656484D01*
X9941492Y-17523150D02*
X10017682Y-17523150D01*
X9970063Y-17456484D02*
X9970063Y-17627912D01*
X9970063Y-17627912D02*
X9979587Y-17646960D01*
X9979587Y-17646960D02*
X9998634Y-17656484D01*
X9998634Y-17656484D02*
X10017682Y-17656484D01*
X10236730Y-17523150D02*
X10236730Y-17723150D01*
X10236730Y-17532674D02*
X10255777Y-17523150D01*
X10255777Y-17523150D02*
X10293873Y-17523150D01*
X10293873Y-17523150D02*
X10312920Y-17532674D01*
X10312920Y-17532674D02*
X10322444Y-17542198D01*
X10322444Y-17542198D02*
X10331968Y-17561246D01*
X10331968Y-17561246D02*
X10331968Y-17618389D01*
X10331968Y-17618389D02*
X10322444Y-17637436D01*
X10322444Y-17637436D02*
X10312920Y-17646960D01*
X10312920Y-17646960D02*
X10293873Y-17656484D01*
X10293873Y-17656484D02*
X10255777Y-17656484D01*
X10255777Y-17656484D02*
X10236730Y-17646960D01*
X10446254Y-17656484D02*
X10427206Y-17646960D01*
X10427206Y-17646960D02*
X10417682Y-17627912D01*
X10417682Y-17627912D02*
X10417682Y-17456484D01*
X10608158Y-17656484D02*
X10608158Y-17551722D01*
X10608158Y-17551722D02*
X10598635Y-17532674D01*
X10598635Y-17532674D02*
X10579587Y-17523150D01*
X10579587Y-17523150D02*
X10541492Y-17523150D01*
X10541492Y-17523150D02*
X10522444Y-17532674D01*
X10608158Y-17646960D02*
X10589111Y-17656484D01*
X10589111Y-17656484D02*
X10541492Y-17656484D01*
X10541492Y-17656484D02*
X10522444Y-17646960D01*
X10522444Y-17646960D02*
X10512920Y-17627912D01*
X10512920Y-17627912D02*
X10512920Y-17608865D01*
X10512920Y-17608865D02*
X10522444Y-17589817D01*
X10522444Y-17589817D02*
X10541492Y-17580293D01*
X10541492Y-17580293D02*
X10589111Y-17580293D01*
X10589111Y-17580293D02*
X10608158Y-17570770D01*
X10674825Y-17523150D02*
X10751015Y-17523150D01*
X10703396Y-17456484D02*
X10703396Y-17627912D01*
X10703396Y-17627912D02*
X10712920Y-17646960D01*
X10712920Y-17646960D02*
X10731968Y-17656484D01*
X10731968Y-17656484D02*
X10751015Y-17656484D01*
X10893873Y-17646960D02*
X10874825Y-17656484D01*
X10874825Y-17656484D02*
X10836730Y-17656484D01*
X10836730Y-17656484D02*
X10817682Y-17646960D01*
X10817682Y-17646960D02*
X10808158Y-17627912D01*
X10808158Y-17627912D02*
X10808158Y-17551722D01*
X10808158Y-17551722D02*
X10817682Y-17532674D01*
X10817682Y-17532674D02*
X10836730Y-17523150D01*
X10836730Y-17523150D02*
X10874825Y-17523150D01*
X10874825Y-17523150D02*
X10893873Y-17532674D01*
X10893873Y-17532674D02*
X10903396Y-17551722D01*
X10903396Y-17551722D02*
X10903396Y-17570770D01*
X10903396Y-17570770D02*
X10808158Y-17589817D01*
X11074825Y-17656484D02*
X11074825Y-17456484D01*
X11074825Y-17646960D02*
X11055777Y-17656484D01*
X11055777Y-17656484D02*
X11017682Y-17656484D01*
X11017682Y-17656484D02*
X10998635Y-17646960D01*
X10998635Y-17646960D02*
X10989111Y-17637436D01*
X10989111Y-17637436D02*
X10979587Y-17618389D01*
X10979587Y-17618389D02*
X10979587Y-17561246D01*
X10979587Y-17561246D02*
X10989111Y-17542198D01*
X10989111Y-17542198D02*
X10998635Y-17532674D01*
X10998635Y-17532674D02*
X11017682Y-17523150D01*
X11017682Y-17523150D02*
X11055777Y-17523150D01*
X11055777Y-17523150D02*
X11074825Y-17532674D01*
X11151016Y-17732674D02*
X11160539Y-17723150D01*
X11160539Y-17723150D02*
X11179587Y-17694579D01*
X11179587Y-17694579D02*
X11189111Y-17675531D01*
X11189111Y-17675531D02*
X11198634Y-17646960D01*
X11198634Y-17646960D02*
X11208158Y-17599341D01*
X11208158Y-17599341D02*
X11208158Y-17561246D01*
X11208158Y-17561246D02*
X11198634Y-17513627D01*
X11198634Y-17513627D02*
X11189111Y-17485055D01*
X11189111Y-17485055D02*
X11179587Y-17466008D01*
X11179587Y-17466008D02*
X11160539Y-17437436D01*
X11160539Y-17437436D02*
X11151016Y-17427912D01*
M02*
