G04 #@! TF.GenerationSoftware,KiCad,Pcbnew,7.0.9-69-ge1c0bddff3*
G04 #@! TF.CreationDate,2024-02-19T13:42:33+01:00*
G04 #@! TF.ProjectId,ASP_Backplane,4153505f-4261-4636-9b70-6c616e652e6b,B*
G04 #@! TF.SameCoordinates,Original*
G04 #@! TF.FileFunction,Copper,L2,Inr*
G04 #@! TF.FilePolarity,Positive*
%FSLAX46Y46*%
G04 Gerber Fmt 4.6, Leading zero omitted, Abs format (unit mm)*
G04 Created by KiCad (PCBNEW 7.0.9-69-ge1c0bddff3) date 2024-02-19 13:42:33*
%MOMM*%
%LPD*%
G01*
G04 APERTURE LIST*
G04 #@! TA.AperFunction,ComponentPad*
%ADD10O,4.000000X1.600000*%
G04 #@! TD*
G04 #@! TA.AperFunction,ComponentPad*
%ADD11O,1.600000X4.000000*%
G04 #@! TD*
G04 #@! TA.AperFunction,ComponentPad*
%ADD12R,1.700000X1.700000*%
G04 #@! TD*
G04 #@! TA.AperFunction,ComponentPad*
%ADD13O,1.700000X1.700000*%
G04 #@! TD*
G04 #@! TA.AperFunction,ComponentPad*
%ADD14O,1.800000X1.800000*%
G04 #@! TD*
G04 #@! TA.AperFunction,ComponentPad*
%ADD15R,1.800000X1.800000*%
G04 #@! TD*
G04 #@! TA.AperFunction,ComponentPad*
%ADD16O,1.600000X5.000000*%
G04 #@! TD*
G04 #@! TA.AperFunction,ComponentPad*
%ADD17O,5.000000X1.600000*%
G04 #@! TD*
G04 #@! TA.AperFunction,WasherPad*
%ADD18C,4.000000*%
G04 #@! TD*
G04 #@! TA.AperFunction,ComponentPad*
%ADD19C,1.800000*%
G04 #@! TD*
G04 #@! TA.AperFunction,ComponentPad*
%ADD20O,3.000000X2.000000*%
G04 #@! TD*
G04 #@! TA.AperFunction,ViaPad*
%ADD21C,0.600000*%
G04 #@! TD*
G04 #@! TA.AperFunction,ViaPad*
%ADD22C,1.000000*%
G04 #@! TD*
G04 #@! TA.AperFunction,ViaPad*
%ADD23C,0.800000*%
G04 #@! TD*
G04 #@! TA.AperFunction,Conductor*
%ADD24C,0.400000*%
G04 #@! TD*
G04 APERTURE END LIST*
D10*
G04 #@! TO.N,Net-(J2-Pad2)*
G04 #@! TO.C,J3*
X102400000Y-137300000D03*
D11*
G04 #@! TO.N,unconnected-(J3-Pad4)*
X98900000Y-134100000D03*
G04 #@! TO.N,GND*
X105900000Y-134100000D03*
D10*
G04 #@! TO.N,Net-(J2-Pad5)*
X102400000Y-129200000D03*
G04 #@! TD*
G04 #@! TO.N,Net-(J2-Pad2)*
G04 #@! TO.C,J2*
X90900000Y-137300000D03*
D11*
G04 #@! TO.N,unconnected-(J2-Pad4)*
X87400000Y-134100000D03*
G04 #@! TO.N,GND*
X94400000Y-134100000D03*
D10*
G04 #@! TO.N,Net-(J2-Pad5)*
X90900000Y-129200000D03*
G04 #@! TD*
D12*
G04 #@! TO.N,Net-(J10-Pin_1)*
G04 #@! TO.C,J10*
X81325000Y-140000000D03*
D13*
G04 #@! TO.N,GND*
X81325000Y-142540000D03*
G04 #@! TO.N,unconnected-(J10-Pin_3-Pad3)*
X81325000Y-145080000D03*
G04 #@! TO.N,+12V*
X81325000Y-147620000D03*
G04 #@! TO.N,-10V*
X81325000Y-150160000D03*
G04 #@! TO.N,+5V*
X81325000Y-152700000D03*
G04 #@! TD*
D12*
G04 #@! TO.N,Net-(J9-Pin_1)*
G04 #@! TO.C,J9*
X87925000Y-140000000D03*
D13*
G04 #@! TO.N,GND*
X87925000Y-142540000D03*
G04 #@! TO.N,unconnected-(J9-Pin_3-Pad3)*
X87925000Y-145080000D03*
G04 #@! TO.N,+12V*
X87925000Y-147620000D03*
G04 #@! TO.N,-10V*
X87925000Y-150160000D03*
G04 #@! TO.N,+5V*
X87925000Y-152700000D03*
G04 #@! TD*
D12*
G04 #@! TO.N,Net-(J7-Pin_1)*
G04 #@! TO.C,J7*
X101125000Y-140000000D03*
D13*
G04 #@! TO.N,GND*
X101125000Y-142540000D03*
G04 #@! TO.N,unconnected-(J7-Pin_3-Pad3)*
X101125000Y-145080000D03*
G04 #@! TO.N,+12V*
X101125000Y-147620000D03*
G04 #@! TO.N,-10V*
X101125000Y-150160000D03*
G04 #@! TO.N,+5V*
X101125000Y-152700000D03*
G04 #@! TD*
D12*
G04 #@! TO.N,Net-(J12-Pin_1)*
G04 #@! TO.C,J12*
X68125000Y-140000000D03*
D13*
G04 #@! TO.N,GND*
X68125000Y-142540000D03*
G04 #@! TO.N,unconnected-(J12-Pin_3-Pad3)*
X68125000Y-145080000D03*
G04 #@! TO.N,+12V*
X68125000Y-147620000D03*
G04 #@! TO.N,-10V*
X68125000Y-150160000D03*
G04 #@! TO.N,+5V*
X68125000Y-152700000D03*
G04 #@! TD*
D12*
G04 #@! TO.N,Net-(J13-Pin_1)*
G04 #@! TO.C,J13*
X61525000Y-140000000D03*
D13*
G04 #@! TO.N,GND*
X61525000Y-142540000D03*
G04 #@! TO.N,unconnected-(J13-Pin_3-Pad3)*
X61525000Y-145080000D03*
G04 #@! TO.N,+12V*
X61525000Y-147620000D03*
G04 #@! TO.N,-10V*
X61525000Y-150160000D03*
G04 #@! TO.N,+5V*
X61525000Y-152700000D03*
G04 #@! TD*
D12*
G04 #@! TO.N,Net-(J6-Pin_1)*
G04 #@! TO.C,J6*
X107725000Y-140000000D03*
D13*
G04 #@! TO.N,GND*
X107725000Y-142540000D03*
G04 #@! TO.N,unconnected-(J6-Pin_3-Pad3)*
X107725000Y-145080000D03*
G04 #@! TO.N,+12V*
X107725000Y-147620000D03*
G04 #@! TO.N,-10V*
X107725000Y-150160000D03*
G04 #@! TO.N,+5V*
X107725000Y-152700000D03*
G04 #@! TD*
D12*
G04 #@! TO.N,Net-(J11-Pin_1)*
G04 #@! TO.C,J11*
X74725000Y-140000000D03*
D13*
G04 #@! TO.N,GND*
X74725000Y-142540000D03*
G04 #@! TO.N,unconnected-(J11-Pin_3-Pad3)*
X74725000Y-145080000D03*
G04 #@! TO.N,+12V*
X74725000Y-147620000D03*
G04 #@! TO.N,-10V*
X74725000Y-150160000D03*
G04 #@! TO.N,+5V*
X74725000Y-152700000D03*
G04 #@! TD*
D12*
G04 #@! TO.N,Net-(J5-Pin_1)*
G04 #@! TO.C,J5*
X114325000Y-140000000D03*
D13*
G04 #@! TO.N,GND*
X114325000Y-142540000D03*
G04 #@! TO.N,unconnected-(J5-Pin_3-Pad3)*
X114325000Y-145080000D03*
G04 #@! TO.N,+12V*
X114325000Y-147620000D03*
G04 #@! TO.N,-10V*
X114325000Y-150160000D03*
G04 #@! TO.N,+5V*
X114325000Y-152700000D03*
G04 #@! TD*
D12*
G04 #@! TO.N,Net-(J8-Pin_1)*
G04 #@! TO.C,J8*
X94525000Y-140000000D03*
D13*
G04 #@! TO.N,GND*
X94525000Y-142540000D03*
G04 #@! TO.N,unconnected-(J8-Pin_3-Pad3)*
X94525000Y-145080000D03*
G04 #@! TO.N,+12V*
X94525000Y-147620000D03*
G04 #@! TO.N,-10V*
X94525000Y-150160000D03*
G04 #@! TO.N,+5V*
X94525000Y-152700000D03*
G04 #@! TD*
D12*
G04 #@! TO.N,Net-(J4-Pin_1)*
G04 #@! TO.C,J4*
X120925000Y-140000000D03*
D13*
G04 #@! TO.N,GND*
X120925000Y-142540000D03*
G04 #@! TO.N,unconnected-(J4-Pin_3-Pad3)*
X120925000Y-145080000D03*
G04 #@! TO.N,+12V*
X120925000Y-147620000D03*
G04 #@! TO.N,-10V*
X120925000Y-150160000D03*
G04 #@! TO.N,+5V*
X120925000Y-152700000D03*
G04 #@! TD*
D14*
G04 #@! TO.N,GND*
G04 #@! TO.C,U3*
X47100000Y-157350000D03*
G04 #@! TO.N,Net-(U3-FB)*
X48800000Y-161050000D03*
G04 #@! TO.N,GND*
X50500000Y-157350000D03*
G04 #@! TO.N,Net-(D2-K)*
X52200000Y-161050000D03*
D15*
G04 #@! TO.N,+12V*
X53900000Y-157350000D03*
G04 #@! TD*
D16*
G04 #@! TO.N,Net-(SW1-B)*
G04 #@! TO.C,J1*
X117500000Y-133650000D03*
D17*
G04 #@! TO.N,GND*
X119800000Y-128350000D03*
G04 #@! TO.N,unconnected-(J1-Pad3)*
X123500000Y-130850000D03*
G04 #@! TD*
D18*
G04 #@! TO.N,*
G04 #@! TO.C,RV1*
X71300000Y-128700000D03*
X71300000Y-137500000D03*
D19*
G04 #@! TO.N,Net-(R16-Pad1)*
X64300000Y-130600000D03*
X64300000Y-133100000D03*
G04 #@! TO.N,Net-(R14-Pad2)*
X64300000Y-135600000D03*
G04 #@! TD*
D12*
G04 #@! TO.N,Net-(JP3-A)*
G04 #@! TO.C,JP3*
X83475000Y-132960000D03*
D13*
G04 #@! TO.N,Net-(D4-C)*
X80935000Y-132960000D03*
G04 #@! TD*
D20*
G04 #@! TO.N,Net-(SW1-A)*
G04 #@! TO.C,SW1*
X111800000Y-130660000D03*
G04 #@! TO.N,Net-(SW1-B)*
X111800000Y-133200000D03*
G04 #@! TO.N,unconnected-(SW1-C-Pad3)*
X111800000Y-135740000D03*
G04 #@! TD*
D12*
G04 #@! TO.N,Net-(JP2-A)*
G04 #@! TO.C,JP2*
X83475000Y-135500000D03*
D13*
G04 #@! TO.N,Net-(D4-C)*
X80935000Y-135500000D03*
G04 #@! TD*
D12*
G04 #@! TO.N,Net-(JP1-A)*
G04 #@! TO.C,JP1*
X83475000Y-130420000D03*
D13*
G04 #@! TO.N,Net-(D4-C)*
X80935000Y-130420000D03*
G04 #@! TD*
D21*
G04 #@! TO.N,Net-(J12-Pin_1)*
X76074463Y-154450000D03*
D22*
G04 #@! TO.N,+12V*
X126100000Y-141300000D03*
X126100000Y-140100000D03*
G04 #@! TO.N,Net-(D1-K)*
X124500000Y-137400000D03*
X123300000Y-137400000D03*
G04 #@! TO.N,GND*
X127500000Y-135350096D03*
X127500000Y-133900000D03*
X133400000Y-140700000D03*
D23*
X53400000Y-165100000D03*
X44900000Y-165100000D03*
X44900000Y-155800000D03*
X55700000Y-157100000D03*
X59100000Y-156200000D03*
X60800000Y-158000000D03*
X62300000Y-156200000D03*
D22*
X135400000Y-140700000D03*
X135400000Y-155100000D03*
X133400000Y-155100000D03*
X135400000Y-151500000D03*
X133400000Y-151500000D03*
X135400000Y-148000000D03*
X133400000Y-148000000D03*
X133400000Y-144725000D03*
X135400000Y-144200000D03*
X127700000Y-143125000D03*
X129700000Y-143125000D03*
X131700000Y-143125000D03*
X133400000Y-136900000D03*
X135400000Y-136900000D03*
G04 #@! TO.N,-10V*
X131400000Y-151600000D03*
X126100000Y-146900000D03*
X126100000Y-145200000D03*
D21*
X123000000Y-160804000D03*
D23*
X126700000Y-157900000D03*
G04 #@! TO.N,Net-(D5-K)*
X123300000Y-155500000D03*
X124000000Y-154800000D03*
G04 #@! TO.N,Net-(U2-Vfb)*
X126500000Y-162600000D03*
G04 #@! TO.N,GND*
X126300000Y-164200000D03*
G04 #@! TO.N,+12V*
X123800000Y-161700000D03*
G04 #@! TO.N,Net-(U2-DC)*
X122365570Y-161645677D03*
X121400000Y-161600000D03*
G04 #@! TO.N,GND*
X46600000Y-141600000D03*
X46600000Y-152800000D03*
X47900000Y-152800000D03*
X46600000Y-149300000D03*
X47900000Y-149300000D03*
X49200000Y-145100000D03*
X47900000Y-145100000D03*
X46600000Y-145100000D03*
G04 #@! TO.N,+5V*
X56400000Y-150700000D03*
X56391002Y-151708998D03*
X48300000Y-140700000D03*
X56200000Y-142900000D03*
X55900000Y-140800000D03*
X54700000Y-148000000D03*
X53400000Y-148000000D03*
X52000000Y-148000000D03*
X54700000Y-145300000D03*
X53400000Y-145300000D03*
X52000000Y-145300000D03*
G04 #@! TO.N,GND*
X65200000Y-161700000D03*
X65200000Y-165200000D03*
X61600000Y-159400000D03*
X61600000Y-163600000D03*
X58900000Y-160400000D03*
X64400000Y-163400000D03*
G04 #@! TO.N,+12V*
X78800000Y-139200000D03*
G04 #@! TO.N,-10V*
X57799996Y-134900000D03*
G04 #@! TO.N,GND*
X48500000Y-136200000D03*
G04 #@! TO.N,+12V*
X62800000Y-136500000D03*
G04 #@! TO.N,GND*
X62250837Y-134849163D03*
G04 #@! TO.N,Net-(U4B-+)*
X59100000Y-135700000D03*
G04 #@! TO.N,Net-(C58-Pad1)*
X50700000Y-137600000D03*
G04 #@! TO.N,Net-(J13-Pin_1)*
X56300000Y-138100000D03*
G04 #@! TO.N,Net-(U4C--)*
X56600000Y-137000000D03*
G04 #@! TO.N,GND*
X56300000Y-135800000D03*
X60300000Y-130100000D03*
X58700000Y-132700000D03*
X56300000Y-134000000D03*
G04 #@! TO.N,Net-(D4-C)*
X62433190Y-133811055D03*
G04 #@! TO.N,Net-(JP1-A)*
X91800000Y-131600000D03*
G04 #@! TO.N,Net-(JP3-A)*
X90200000Y-131550000D03*
D22*
G04 #@! TO.N,GND*
X90300000Y-146400000D03*
D21*
X84600000Y-165100000D03*
D22*
X103700000Y-154900000D03*
X93249925Y-159688253D03*
X119371170Y-158417170D03*
X94500000Y-156500000D03*
X69619987Y-149324000D03*
D21*
X88172913Y-154154758D03*
D22*
X111200000Y-154800000D03*
X116700000Y-164400000D03*
X80799707Y-165022180D03*
X88724500Y-164100000D03*
X72156427Y-160075000D03*
X101800000Y-164300000D03*
X76300000Y-159950500D03*
X70000000Y-165100000D03*
X109200000Y-164700000D03*
D21*
X76916380Y-156361526D03*
D22*
X93900000Y-163300000D03*
X77100000Y-151500000D03*
X79253971Y-147345987D03*
X85000000Y-147700000D03*
D21*
X84205200Y-157678114D03*
X80700000Y-153975500D03*
D22*
X97100000Y-148900000D03*
D21*
X73700000Y-153700000D03*
D22*
G04 #@! TO.N,+12V*
X92700000Y-157300000D03*
X97928772Y-158743198D03*
D21*
G04 #@! TO.N,Net-(U5A--)*
X114602815Y-161324500D03*
G04 #@! TO.N,Net-(U6A--)*
X107544412Y-161324500D03*
G04 #@! TO.N,Net-(U10A--)*
X89700000Y-157500000D03*
G04 #@! TO.N,Net-(U10D--)*
X89700000Y-159900000D03*
G04 #@! TO.N,Net-(U9A--)*
X82500000Y-157500000D03*
G04 #@! TO.N,Net-(U9C--)*
X80200000Y-160000000D03*
G04 #@! TO.N,Net-(C36-Pad1)*
X68000000Y-164600000D03*
G04 #@! TO.N,Net-(U8D--)*
X74400000Y-160200000D03*
G04 #@! TO.N,Net-(C39-Pad2)*
X113402815Y-161324500D03*
G04 #@! TO.N,Net-(C40-Pad2)*
X106344412Y-161324500D03*
G04 #@! TO.N,Net-(C42-Pad2)*
X86700000Y-151600000D03*
X90701489Y-157600000D03*
G04 #@! TO.N,Net-(C43-Pad2)*
X90600000Y-159900000D03*
D23*
X91700000Y-165200000D03*
D21*
G04 #@! TO.N,Net-(C44-Pad2)*
X83430040Y-157482330D03*
X82837720Y-153905004D03*
G04 #@! TO.N,Net-(C45-Pad2)*
X78766849Y-163488066D03*
X79200000Y-160000000D03*
G04 #@! TO.N,Net-(C46-Pad2)*
X69679000Y-156000000D03*
G04 #@! TO.N,Net-(C47-Pad2)*
X75200000Y-160200000D03*
G04 #@! TO.N,Net-(J4-Pin_1)*
X114400000Y-158800000D03*
G04 #@! TO.N,Net-(J5-Pin_1)*
X107500004Y-158800000D03*
G04 #@! TO.N,Net-(J7-Pin_1)*
X86000000Y-157400000D03*
G04 #@! TO.N,Net-(J8-Pin_1)*
X86800000Y-159900000D03*
G04 #@! TO.N,Net-(J9-Pin_1)*
X79300000Y-157500000D03*
X83300000Y-143800000D03*
G04 #@! TO.N,Net-(J10-Pin_1)*
X84900000Y-155700000D03*
X82925855Y-147390538D03*
X83000000Y-159900000D03*
G04 #@! TO.N,Net-(C56-Pad1)*
X69100000Y-154700000D03*
G04 #@! TO.N,Net-(J11-Pin_1)*
X72077915Y-149093767D03*
X72200000Y-157700000D03*
G04 #@! TO.N,Net-(J12-Pin_1)*
X76200000Y-152700000D03*
G04 #@! TO.N,Net-(U5B--)*
X115900000Y-158800000D03*
G04 #@! TO.N,Net-(U6B--)*
X108700000Y-158800000D03*
G04 #@! TO.N,Net-(U10B--)*
X87200000Y-157500000D03*
G04 #@! TO.N,Net-(U10C--)*
X87600000Y-160000000D03*
G04 #@! TO.N,Net-(U9B--)*
X80200000Y-157600000D03*
G04 #@! TO.N,Net-(U9D--)*
X82100000Y-160000000D03*
G04 #@! TO.N,Net-(U8A--)*
X74893776Y-158201488D03*
G04 #@! TO.N,Net-(R16-Pad1)*
X93500000Y-158690631D03*
X89161395Y-150846202D03*
G04 #@! TD*
D24*
G04 #@! TO.N,-10V*
X61525000Y-150160000D02*
X57799996Y-146434996D01*
X57799996Y-146434996D02*
X57799996Y-134900000D01*
G04 #@! TD*
G04 #@! TA.AperFunction,Conductor*
G04 #@! TO.N,-10V*
G36*
X127225456Y-144014877D02*
G01*
X127312196Y-144061241D01*
X127502299Y-144118908D01*
X127502303Y-144118908D01*
X127502305Y-144118909D01*
X127699997Y-144138380D01*
X127700000Y-144138380D01*
X127700003Y-144138380D01*
X127897694Y-144118909D01*
X127897695Y-144118908D01*
X127897701Y-144118908D01*
X128087804Y-144061241D01*
X128174543Y-144014877D01*
X128233939Y-144000000D01*
X129166061Y-144000000D01*
X129225456Y-144014877D01*
X129312196Y-144061241D01*
X129502299Y-144118908D01*
X129502303Y-144118908D01*
X129502305Y-144118909D01*
X129699997Y-144138380D01*
X129700000Y-144138380D01*
X129700003Y-144138380D01*
X129897694Y-144118909D01*
X129897695Y-144118908D01*
X129897701Y-144118908D01*
X130087804Y-144061241D01*
X130174543Y-144014877D01*
X130233939Y-144000000D01*
X131166061Y-144000000D01*
X131225456Y-144014877D01*
X131312196Y-144061241D01*
X131502299Y-144118908D01*
X131502303Y-144118908D01*
X131502305Y-144118909D01*
X131699997Y-144138380D01*
X131700000Y-144138380D01*
X131700003Y-144138380D01*
X131897694Y-144118909D01*
X131897695Y-144118908D01*
X131897701Y-144118908D01*
X132087804Y-144061241D01*
X132174543Y-144014877D01*
X132233939Y-144000000D01*
X132274000Y-144000000D01*
X132342121Y-144020002D01*
X132388614Y-144073658D01*
X132400000Y-144126000D01*
X132400000Y-144582963D01*
X132399393Y-144595313D01*
X132386620Y-144724997D01*
X132386620Y-144725001D01*
X132399393Y-144854684D01*
X132400000Y-144867035D01*
X132400000Y-147857963D01*
X132399393Y-147870313D01*
X132386620Y-147999997D01*
X132386620Y-148000001D01*
X132399393Y-148129684D01*
X132400000Y-148142035D01*
X132400000Y-151357963D01*
X132399393Y-151370313D01*
X132386620Y-151499997D01*
X132386620Y-151500001D01*
X132399393Y-151629684D01*
X132400000Y-151642035D01*
X132400000Y-154957963D01*
X132399393Y-154970313D01*
X132386620Y-155099997D01*
X132386620Y-155100001D01*
X132399393Y-155229684D01*
X132400000Y-155242035D01*
X132400000Y-159495761D01*
X132379998Y-159563882D01*
X132326342Y-159610375D01*
X132256068Y-159620479D01*
X132191488Y-159590985D01*
X132168966Y-159565359D01*
X132079188Y-159429869D01*
X131870479Y-159186264D01*
X131870478Y-159186263D01*
X131747940Y-159074555D01*
X131633415Y-158970151D01*
X131371599Y-158784816D01*
X131371591Y-158784811D01*
X131371588Y-158784809D01*
X131371581Y-158784805D01*
X131371574Y-158784801D01*
X131088979Y-158633050D01*
X131088976Y-158633048D01*
X131088971Y-158633046D01*
X130789847Y-158517165D01*
X130789845Y-158517164D01*
X130789844Y-158517164D01*
X130615241Y-158473250D01*
X130478749Y-158438921D01*
X130478746Y-158438920D01*
X130478744Y-158438920D01*
X130478739Y-158438919D01*
X130204906Y-158405011D01*
X130160393Y-158399500D01*
X129919874Y-158399500D01*
X129919873Y-158399500D01*
X129679824Y-158414305D01*
X129364497Y-158473250D01*
X129058811Y-158570496D01*
X129058808Y-158570497D01*
X129058806Y-158570498D01*
X128922849Y-158633048D01*
X128767384Y-158704573D01*
X128767367Y-158704582D01*
X128494654Y-158873438D01*
X128494637Y-158873450D01*
X128244724Y-159074555D01*
X128244723Y-159074555D01*
X128021412Y-159304854D01*
X128021409Y-159304858D01*
X127828100Y-159560839D01*
X127828096Y-159560845D01*
X127667707Y-159838649D01*
X127667700Y-159838663D01*
X127542666Y-160134069D01*
X127542664Y-160134073D01*
X127454878Y-160442609D01*
X127405672Y-160759599D01*
X127405670Y-160759616D01*
X127395793Y-161080229D01*
X127403075Y-161158819D01*
X127412671Y-161262376D01*
X127399040Y-161332050D01*
X127349903Y-161383295D01*
X127287209Y-161400000D01*
X124748211Y-161400000D01*
X124680090Y-161379998D01*
X124639525Y-161333183D01*
X124637829Y-161334163D01*
X124539041Y-161163058D01*
X124539034Y-161163048D01*
X124411255Y-161021135D01*
X124256752Y-160908882D01*
X124082288Y-160831206D01*
X123895487Y-160791500D01*
X123704513Y-160791500D01*
X123517711Y-160831206D01*
X123343247Y-160908882D01*
X123183405Y-161025015D01*
X123181882Y-161022918D01*
X123128306Y-161048607D01*
X123057856Y-161039818D01*
X123014410Y-161008556D01*
X122976822Y-160966810D01*
X122822322Y-160854559D01*
X122769870Y-160831206D01*
X122647858Y-160776883D01*
X122647857Y-160776882D01*
X122647853Y-160776881D01*
X122613303Y-160769537D01*
X122550829Y-160735809D01*
X122516508Y-160673659D01*
X122513500Y-160646291D01*
X122513500Y-156298830D01*
X122533502Y-156230709D01*
X122587158Y-156184216D01*
X122657432Y-156174112D01*
X122713559Y-156196893D01*
X122843248Y-156291118D01*
X123017712Y-156368794D01*
X123204513Y-156408500D01*
X123395487Y-156408500D01*
X123582288Y-156368794D01*
X123756752Y-156291118D01*
X123911253Y-156178866D01*
X123911255Y-156178864D01*
X124039034Y-156036951D01*
X124039035Y-156036949D01*
X124039040Y-156036944D01*
X124134527Y-155871556D01*
X124171854Y-155756673D01*
X124211927Y-155698069D01*
X124265490Y-155672364D01*
X124282288Y-155668794D01*
X124456752Y-155591118D01*
X124611253Y-155478866D01*
X124631810Y-155456035D01*
X124739034Y-155336951D01*
X124739035Y-155336949D01*
X124739040Y-155336944D01*
X124834527Y-155171556D01*
X124893542Y-154989928D01*
X124913504Y-154800000D01*
X124893542Y-154610072D01*
X124834527Y-154428444D01*
X124739040Y-154263056D01*
X124739038Y-154263054D01*
X124739034Y-154263048D01*
X124611255Y-154121135D01*
X124456752Y-154008882D01*
X124282288Y-153931206D01*
X124095487Y-153891500D01*
X123904513Y-153891500D01*
X123717711Y-153931206D01*
X123543247Y-154008882D01*
X123388744Y-154121135D01*
X123260965Y-154263048D01*
X123260958Y-154263058D01*
X123165476Y-154428438D01*
X123165472Y-154428445D01*
X123128145Y-154543325D01*
X123088071Y-154601931D01*
X123034513Y-154627634D01*
X123017713Y-154631205D01*
X122843247Y-154708882D01*
X122713561Y-154803105D01*
X122646693Y-154826964D01*
X122577541Y-154810883D01*
X122528061Y-154759969D01*
X122513500Y-154701169D01*
X122513500Y-151626005D01*
X122513499Y-151625988D01*
X122501767Y-151516856D01*
X122501624Y-151515973D01*
X122501479Y-151514182D01*
X122501406Y-151513496D01*
X122501424Y-151513494D01*
X122500000Y-151495809D01*
X122500000Y-151200000D01*
X122395970Y-151200000D01*
X122327849Y-151179998D01*
X122313458Y-151169225D01*
X122247642Y-151112196D01*
X122219739Y-151088018D01*
X122219737Y-151088017D01*
X122219738Y-151088017D01*
X122086789Y-151027301D01*
X122018677Y-151007302D01*
X122018670Y-151007300D01*
X121978203Y-151001482D01*
X121874000Y-150986500D01*
X121158877Y-150986500D01*
X121158866Y-150986500D01*
X121116495Y-150988251D01*
X121095729Y-150989972D01*
X121053636Y-150995218D01*
X121005311Y-151003282D01*
X120984574Y-151005000D01*
X120865423Y-151005000D01*
X120844686Y-151003282D01*
X120796366Y-150995219D01*
X120754265Y-150989971D01*
X120733504Y-150988251D01*
X120691134Y-150986500D01*
X120691123Y-150986500D01*
X114558877Y-150986500D01*
X114558866Y-150986500D01*
X114516495Y-150988251D01*
X114495729Y-150989972D01*
X114453636Y-150995218D01*
X114405311Y-151003282D01*
X114384574Y-151005000D01*
X114265423Y-151005000D01*
X114244686Y-151003282D01*
X114196366Y-150995219D01*
X114154265Y-150989971D01*
X114133504Y-150988251D01*
X114091134Y-150986500D01*
X114091123Y-150986500D01*
X107958877Y-150986500D01*
X107958866Y-150986500D01*
X107916495Y-150988251D01*
X107895729Y-150989972D01*
X107853636Y-150995218D01*
X107805311Y-151003282D01*
X107784574Y-151005000D01*
X107665423Y-151005000D01*
X107644686Y-151003282D01*
X107596366Y-150995219D01*
X107554265Y-150989971D01*
X107533504Y-150988251D01*
X107491134Y-150986500D01*
X107491123Y-150986500D01*
X101358877Y-150986500D01*
X101358866Y-150986500D01*
X101316495Y-150988251D01*
X101295729Y-150989972D01*
X101253636Y-150995218D01*
X101205311Y-151003282D01*
X101184574Y-151005000D01*
X101065423Y-151005000D01*
X101044686Y-151003282D01*
X100996366Y-150995219D01*
X100954265Y-150989971D01*
X100933504Y-150988251D01*
X100891134Y-150986500D01*
X100891123Y-150986500D01*
X94758877Y-150986500D01*
X94758866Y-150986500D01*
X94716495Y-150988251D01*
X94695729Y-150989972D01*
X94653636Y-150995218D01*
X94605311Y-151003282D01*
X94584574Y-151005000D01*
X94465423Y-151005000D01*
X94444686Y-151003282D01*
X94396366Y-150995219D01*
X94354265Y-150989971D01*
X94333504Y-150988251D01*
X94291134Y-150986500D01*
X94291123Y-150986500D01*
X90100197Y-150986500D01*
X90032076Y-150966498D01*
X89985583Y-150912842D01*
X89976088Y-150853278D01*
X89975011Y-150853278D01*
X89975011Y-150846519D01*
X89974990Y-150846388D01*
X89975011Y-150846202D01*
X89954612Y-150665155D01*
X89894438Y-150493187D01*
X89894436Y-150493184D01*
X89894436Y-150493183D01*
X89797507Y-150338922D01*
X89797506Y-150338920D01*
X89668676Y-150210090D01*
X89668674Y-150210089D01*
X89514413Y-150113160D01*
X89514410Y-150113159D01*
X89342445Y-150052986D01*
X89342444Y-150052985D01*
X89342442Y-150052985D01*
X89161395Y-150032586D01*
X88980348Y-150052985D01*
X88980345Y-150052985D01*
X88980344Y-150052986D01*
X88808379Y-150113159D01*
X88808376Y-150113160D01*
X88654115Y-150210089D01*
X88654113Y-150210090D01*
X88525283Y-150338920D01*
X88525282Y-150338922D01*
X88428353Y-150493183D01*
X88428352Y-150493186D01*
X88370890Y-150657405D01*
X88368178Y-150665155D01*
X88347779Y-150846202D01*
X88347779Y-150846203D01*
X88347800Y-150846388D01*
X88347779Y-150846507D01*
X88347779Y-150853278D01*
X88346593Y-150853278D01*
X88335554Y-150916320D01*
X88287443Y-150968530D01*
X88222593Y-150986500D01*
X88158866Y-150986500D01*
X88116495Y-150988251D01*
X88095729Y-150989972D01*
X88053636Y-150995218D01*
X88005311Y-151003282D01*
X87984574Y-151005000D01*
X87865423Y-151005000D01*
X87844686Y-151003282D01*
X87796366Y-150995219D01*
X87754265Y-150989971D01*
X87733504Y-150988251D01*
X87691134Y-150986500D01*
X87691123Y-150986500D01*
X87637484Y-150986500D01*
X87593649Y-150989972D01*
X87556639Y-150992903D01*
X87517458Y-150999149D01*
X87438630Y-151018202D01*
X87401163Y-151036718D01*
X87331231Y-151048965D01*
X87265779Y-151021461D01*
X87256246Y-151012853D01*
X87207281Y-150963888D01*
X87207279Y-150963887D01*
X87053018Y-150866958D01*
X87053015Y-150866957D01*
X86881050Y-150806784D01*
X86881049Y-150806783D01*
X86881047Y-150806783D01*
X86700000Y-150786384D01*
X86518953Y-150806783D01*
X86518950Y-150806783D01*
X86518949Y-150806784D01*
X86346984Y-150866957D01*
X86346982Y-150866958D01*
X86192719Y-150963888D01*
X86142883Y-151013723D01*
X86080570Y-151047747D01*
X86009754Y-151042681D01*
X86001448Y-151039240D01*
X85975308Y-151027302D01*
X85907193Y-151007302D01*
X85907186Y-151007300D01*
X85866719Y-151001482D01*
X85762516Y-150986500D01*
X81558877Y-150986500D01*
X81558866Y-150986500D01*
X81516495Y-150988251D01*
X81495729Y-150989972D01*
X81453636Y-150995218D01*
X81405311Y-151003282D01*
X81384574Y-151005000D01*
X81265423Y-151005000D01*
X81244686Y-151003282D01*
X81196366Y-150995219D01*
X81154265Y-150989971D01*
X81133504Y-150988251D01*
X81091134Y-150986500D01*
X81091123Y-150986500D01*
X78227580Y-150986500D01*
X78164277Y-150991738D01*
X78143175Y-150993484D01*
X78143154Y-150993487D01*
X78102329Y-151000289D01*
X78086965Y-151004175D01*
X78016020Y-151001482D01*
X77957793Y-150960860D01*
X77944955Y-150941412D01*
X77942595Y-150936996D01*
X77816568Y-150783432D01*
X77663004Y-150657405D01*
X77487804Y-150563759D01*
X77297701Y-150506092D01*
X77297700Y-150506091D01*
X77297694Y-150506090D01*
X77100003Y-150486620D01*
X77099997Y-150486620D01*
X76902305Y-150506090D01*
X76712195Y-150563759D01*
X76536995Y-150657405D01*
X76383432Y-150783432D01*
X76257403Y-150936997D01*
X76254001Y-150943363D01*
X76204248Y-150994010D01*
X76135010Y-151009718D01*
X76121556Y-151007844D01*
X76121543Y-151007941D01*
X76117093Y-151007301D01*
X76117089Y-151007300D01*
X75972420Y-150986500D01*
X74958877Y-150986500D01*
X74958866Y-150986500D01*
X74916495Y-150988251D01*
X74895729Y-150989972D01*
X74853636Y-150995218D01*
X74805311Y-151003282D01*
X74784574Y-151005000D01*
X74665423Y-151005000D01*
X74644686Y-151003282D01*
X74596366Y-150995219D01*
X74554265Y-150989971D01*
X74533504Y-150988251D01*
X74491134Y-150986500D01*
X74491123Y-150986500D01*
X68358877Y-150986500D01*
X68358866Y-150986500D01*
X68316495Y-150988251D01*
X68295729Y-150989972D01*
X68253636Y-150995218D01*
X68205311Y-151003282D01*
X68184574Y-151005000D01*
X68065423Y-151005000D01*
X68044686Y-151003282D01*
X67996366Y-150995219D01*
X67954265Y-150989971D01*
X67933504Y-150988251D01*
X67891134Y-150986500D01*
X67891123Y-150986500D01*
X61758877Y-150986500D01*
X61758866Y-150986500D01*
X61716495Y-150988251D01*
X61695729Y-150989972D01*
X61653636Y-150995218D01*
X61605311Y-151003282D01*
X61584574Y-151005000D01*
X61465423Y-151005000D01*
X61444686Y-151003282D01*
X61396366Y-150995219D01*
X61354265Y-150989971D01*
X61333504Y-150988251D01*
X61291134Y-150986500D01*
X61291123Y-150986500D01*
X61217899Y-150986500D01*
X61149778Y-150966498D01*
X61148007Y-150965338D01*
X60656108Y-150637405D01*
X60610523Y-150582976D01*
X60600000Y-150532567D01*
X60600000Y-149847343D01*
X60620002Y-149779222D01*
X60631175Y-149764371D01*
X60650230Y-149742594D01*
X61262351Y-149043027D01*
X61322261Y-149004934D01*
X61357175Y-149000000D01*
X68499498Y-149000000D01*
X68567619Y-149020002D01*
X68614112Y-149073658D01*
X68624891Y-149138350D01*
X68606607Y-149323996D01*
X68606607Y-149324003D01*
X68626077Y-149521694D01*
X68626078Y-149521700D01*
X68626079Y-149521701D01*
X68683746Y-149711804D01*
X68777392Y-149887004D01*
X68903419Y-150040568D01*
X69056983Y-150166595D01*
X69232183Y-150260241D01*
X69422286Y-150317908D01*
X69422290Y-150317908D01*
X69422292Y-150317909D01*
X69619984Y-150337380D01*
X69619987Y-150337380D01*
X69619990Y-150337380D01*
X69817681Y-150317909D01*
X69817682Y-150317908D01*
X69817688Y-150317908D01*
X70007791Y-150260241D01*
X70182991Y-150166595D01*
X70336555Y-150040568D01*
X70462582Y-149887004D01*
X70556228Y-149711804D01*
X70613895Y-149521701D01*
X70613976Y-149520886D01*
X70633367Y-149324003D01*
X70633367Y-149323996D01*
X70615083Y-149138350D01*
X70628312Y-149068597D01*
X70677152Y-149017068D01*
X70740476Y-149000000D01*
X71141134Y-149000000D01*
X71209255Y-149020002D01*
X71255748Y-149073658D01*
X71266340Y-149111888D01*
X71278231Y-149217421D01*
X71284698Y-149274816D01*
X71344872Y-149446782D01*
X71344873Y-149446785D01*
X71441802Y-149601046D01*
X71441803Y-149601048D01*
X71570633Y-149729878D01*
X71570635Y-149729879D01*
X71724896Y-149826808D01*
X71724897Y-149826808D01*
X71724900Y-149826810D01*
X71896868Y-149886984D01*
X72077915Y-149907383D01*
X72258962Y-149886984D01*
X72430930Y-149826810D01*
X72585196Y-149729878D01*
X72714026Y-149601048D01*
X72810958Y-149446782D01*
X72871132Y-149274814D01*
X72889488Y-149111890D01*
X72916992Y-149046440D01*
X72975515Y-149006247D01*
X73014696Y-149000000D01*
X95983253Y-149000000D01*
X96051374Y-149020002D01*
X96097867Y-149073658D01*
X96103769Y-149091937D01*
X96104296Y-149091778D01*
X96106091Y-149097697D01*
X96106092Y-149097701D01*
X96163759Y-149287804D01*
X96257405Y-149463004D01*
X96383432Y-149616568D01*
X96536996Y-149742595D01*
X96712196Y-149836241D01*
X96902299Y-149893908D01*
X96902303Y-149893908D01*
X96902305Y-149893909D01*
X97099997Y-149913380D01*
X97100000Y-149913380D01*
X97100003Y-149913380D01*
X97297694Y-149893909D01*
X97297695Y-149893908D01*
X97297701Y-149893908D01*
X97487804Y-149836241D01*
X97663004Y-149742595D01*
X97816568Y-149616568D01*
X97942595Y-149463004D01*
X98036241Y-149287804D01*
X98093908Y-149097701D01*
X98093908Y-149097697D01*
X98095704Y-149091778D01*
X98097868Y-149092434D01*
X98126074Y-149038511D01*
X98187768Y-149003378D01*
X98216747Y-149000000D01*
X125200000Y-149000000D01*
X125200000Y-144126000D01*
X125220002Y-144057879D01*
X125273658Y-144011386D01*
X125326000Y-144000000D01*
X127166061Y-144000000D01*
X127225456Y-144014877D01*
G37*
G04 #@! TD.AperFunction*
G04 #@! TD*
G04 #@! TA.AperFunction,Conductor*
G04 #@! TO.N,+5V*
G36*
X57033617Y-140120002D02*
G01*
X57080110Y-140173658D01*
X57091496Y-140226000D01*
X57091496Y-146409778D01*
X57091266Y-146417386D01*
X57087594Y-146478088D01*
X57097936Y-146534527D01*
X57100000Y-146557238D01*
X57100000Y-151500000D01*
X61291123Y-151500000D01*
X61311861Y-151501718D01*
X61412431Y-151518500D01*
X61412434Y-151518500D01*
X61637566Y-151518500D01*
X61637569Y-151518500D01*
X61738139Y-151501718D01*
X61758877Y-151500000D01*
X67891123Y-151500000D01*
X67911861Y-151501718D01*
X68012431Y-151518500D01*
X68012434Y-151518500D01*
X68237566Y-151518500D01*
X68237569Y-151518500D01*
X68338139Y-151501718D01*
X68358877Y-151500000D01*
X74491123Y-151500000D01*
X74511861Y-151501718D01*
X74612431Y-151518500D01*
X74612434Y-151518500D01*
X74837566Y-151518500D01*
X74837569Y-151518500D01*
X74938139Y-151501718D01*
X74958877Y-151500000D01*
X75972420Y-151500000D01*
X76040541Y-151520002D01*
X76087034Y-151573658D01*
X76097813Y-151613650D01*
X76106090Y-151697694D01*
X76120605Y-151745543D01*
X76121238Y-151816537D01*
X76083388Y-151876603D01*
X76025499Y-151903666D01*
X76025851Y-151905209D01*
X76018950Y-151906783D01*
X75846984Y-151966957D01*
X75846981Y-151966958D01*
X75692720Y-152063887D01*
X75692718Y-152063888D01*
X75563888Y-152192718D01*
X75563887Y-152192720D01*
X75466958Y-152346981D01*
X75466957Y-152346984D01*
X75409455Y-152511318D01*
X75406783Y-152518953D01*
X75386384Y-152700000D01*
X75406783Y-152881047D01*
X75406783Y-152881049D01*
X75406784Y-152881050D01*
X75466957Y-153053015D01*
X75466958Y-153053018D01*
X75563887Y-153207279D01*
X75563888Y-153207281D01*
X75692718Y-153336111D01*
X75692720Y-153336112D01*
X75846981Y-153433041D01*
X75846982Y-153433041D01*
X75846985Y-153433043D01*
X75850025Y-153434106D01*
X75851723Y-153435324D01*
X75853356Y-153436111D01*
X75853218Y-153436396D01*
X75907717Y-153475484D01*
X75933880Y-153541483D01*
X75920208Y-153611151D01*
X75871041Y-153662368D01*
X75850027Y-153671965D01*
X75721444Y-153716958D01*
X75567183Y-153813887D01*
X75567181Y-153813888D01*
X75438351Y-153942718D01*
X75438350Y-153942720D01*
X75341421Y-154096981D01*
X75341420Y-154096984D01*
X75292429Y-154236995D01*
X75281246Y-154268953D01*
X75260847Y-154450000D01*
X75281246Y-154631047D01*
X75281246Y-154631049D01*
X75281247Y-154631050D01*
X75341420Y-154803015D01*
X75341421Y-154803018D01*
X75438350Y-154957279D01*
X75438351Y-154957281D01*
X75567181Y-155086111D01*
X75567183Y-155086112D01*
X75721444Y-155183041D01*
X75721445Y-155183041D01*
X75721448Y-155183043D01*
X75893416Y-155243217D01*
X76074463Y-155263616D01*
X76255510Y-155243217D01*
X76427478Y-155183043D01*
X76581744Y-155086111D01*
X76710574Y-154957281D01*
X76807506Y-154803015D01*
X76867680Y-154631047D01*
X76888079Y-154450000D01*
X76867680Y-154268953D01*
X76807506Y-154096985D01*
X76807504Y-154096982D01*
X76807504Y-154096981D01*
X76731172Y-153975500D01*
X79886384Y-153975500D01*
X79906783Y-154156547D01*
X79906783Y-154156549D01*
X79906784Y-154156550D01*
X79966957Y-154328515D01*
X79966958Y-154328518D01*
X80063887Y-154482779D01*
X80063888Y-154482781D01*
X80192718Y-154611611D01*
X80192720Y-154611612D01*
X80346981Y-154708541D01*
X80346982Y-154708541D01*
X80346985Y-154708543D01*
X80518953Y-154768717D01*
X80700000Y-154789116D01*
X80881047Y-154768717D01*
X81053015Y-154708543D01*
X81207281Y-154611611D01*
X81336111Y-154482781D01*
X81433043Y-154328515D01*
X81493217Y-154156547D01*
X81513616Y-153975500D01*
X81505673Y-153905004D01*
X82024104Y-153905004D01*
X82044503Y-154086051D01*
X82044503Y-154086053D01*
X82044504Y-154086054D01*
X82104677Y-154258019D01*
X82104678Y-154258022D01*
X82201607Y-154412283D01*
X82201608Y-154412285D01*
X82330438Y-154541115D01*
X82330440Y-154541116D01*
X82484701Y-154638045D01*
X82484702Y-154638045D01*
X82484705Y-154638047D01*
X82656673Y-154698221D01*
X82837720Y-154718620D01*
X83018767Y-154698221D01*
X83190735Y-154638047D01*
X83345001Y-154541115D01*
X83473831Y-154412285D01*
X83570763Y-154258019D01*
X83606895Y-154154758D01*
X87359297Y-154154758D01*
X87379696Y-154335805D01*
X87379696Y-154335807D01*
X87379697Y-154335808D01*
X87439870Y-154507773D01*
X87439871Y-154507776D01*
X87536800Y-154662037D01*
X87536801Y-154662039D01*
X87665631Y-154790869D01*
X87665633Y-154790870D01*
X87819894Y-154887799D01*
X87819895Y-154887799D01*
X87819898Y-154887801D01*
X87991866Y-154947975D01*
X88172913Y-154968374D01*
X88353960Y-154947975D01*
X88491057Y-154900003D01*
X102686620Y-154900003D01*
X102706090Y-155097694D01*
X102706091Y-155097700D01*
X102706092Y-155097701D01*
X102763759Y-155287804D01*
X102857405Y-155463004D01*
X102983432Y-155616568D01*
X103136996Y-155742595D01*
X103312196Y-155836241D01*
X103502299Y-155893908D01*
X103502303Y-155893908D01*
X103502305Y-155893909D01*
X103699997Y-155913380D01*
X103700000Y-155913380D01*
X103700003Y-155913380D01*
X103897694Y-155893909D01*
X103897695Y-155893908D01*
X103897701Y-155893908D01*
X104087804Y-155836241D01*
X104263004Y-155742595D01*
X104416568Y-155616568D01*
X104542595Y-155463004D01*
X104636241Y-155287804D01*
X104693908Y-155097701D01*
X104695050Y-155086112D01*
X104713380Y-154900003D01*
X104713380Y-154899996D01*
X104703531Y-154800003D01*
X110186620Y-154800003D01*
X110206090Y-154997694D01*
X110206091Y-154997700D01*
X110206092Y-154997701D01*
X110263759Y-155187804D01*
X110357405Y-155363004D01*
X110483432Y-155516568D01*
X110636996Y-155642595D01*
X110812196Y-155736241D01*
X111002299Y-155793908D01*
X111002303Y-155793908D01*
X111002305Y-155793909D01*
X111199997Y-155813380D01*
X111200000Y-155813380D01*
X111200003Y-155813380D01*
X111397694Y-155793909D01*
X111397695Y-155793908D01*
X111397701Y-155793908D01*
X111587804Y-155736241D01*
X111763004Y-155642595D01*
X111916568Y-155516568D01*
X112042595Y-155363004D01*
X112136241Y-155187804D01*
X112193908Y-154997701D01*
X112196797Y-154968374D01*
X112213380Y-154800003D01*
X112213380Y-154799996D01*
X112193909Y-154602305D01*
X112193908Y-154602303D01*
X112193908Y-154602299D01*
X112136241Y-154412196D01*
X112042595Y-154236996D01*
X111916568Y-154083432D01*
X111763004Y-153957405D01*
X111587804Y-153863759D01*
X111397701Y-153806092D01*
X111397700Y-153806091D01*
X111397694Y-153806090D01*
X111200003Y-153786620D01*
X111199997Y-153786620D01*
X111002305Y-153806090D01*
X110812195Y-153863759D01*
X110636995Y-153957405D01*
X110483432Y-154083432D01*
X110357405Y-154236995D01*
X110263759Y-154412195D01*
X110206090Y-154602305D01*
X110186620Y-154799996D01*
X110186620Y-154800003D01*
X104703531Y-154800003D01*
X104693909Y-154702305D01*
X104693908Y-154702303D01*
X104693908Y-154702299D01*
X104636241Y-154512196D01*
X104542595Y-154336996D01*
X104416568Y-154183432D01*
X104263004Y-154057405D01*
X104087804Y-153963759D01*
X103897701Y-153906092D01*
X103897700Y-153906091D01*
X103897694Y-153906090D01*
X103700003Y-153886620D01*
X103699997Y-153886620D01*
X103502305Y-153906090D01*
X103312195Y-153963759D01*
X103136995Y-154057405D01*
X102983432Y-154183432D01*
X102857405Y-154336995D01*
X102763759Y-154512195D01*
X102706090Y-154702305D01*
X102686620Y-154899996D01*
X102686620Y-154900003D01*
X88491057Y-154900003D01*
X88525928Y-154887801D01*
X88680194Y-154790869D01*
X88809024Y-154662039D01*
X88905956Y-154507773D01*
X88966130Y-154335805D01*
X88986529Y-154154758D01*
X88966130Y-153973711D01*
X88905956Y-153801743D01*
X88905954Y-153801740D01*
X88905954Y-153801739D01*
X88809025Y-153647478D01*
X88809024Y-153647476D01*
X88680194Y-153518646D01*
X88680192Y-153518645D01*
X88525931Y-153421716D01*
X88525928Y-153421715D01*
X88353963Y-153361542D01*
X88353962Y-153361541D01*
X88353960Y-153361541D01*
X88172913Y-153341142D01*
X87991866Y-153361541D01*
X87991863Y-153361541D01*
X87991862Y-153361542D01*
X87819897Y-153421715D01*
X87819894Y-153421716D01*
X87665633Y-153518645D01*
X87665631Y-153518646D01*
X87536801Y-153647476D01*
X87536800Y-153647478D01*
X87439871Y-153801739D01*
X87439870Y-153801742D01*
X87385402Y-153957405D01*
X87379696Y-153973711D01*
X87359297Y-154154758D01*
X83606895Y-154154758D01*
X83630937Y-154086051D01*
X83651336Y-153905004D01*
X83630937Y-153723957D01*
X83570763Y-153551989D01*
X83570761Y-153551986D01*
X83570761Y-153551985D01*
X83473832Y-153397724D01*
X83473831Y-153397722D01*
X83345001Y-153268892D01*
X83344999Y-153268891D01*
X83190738Y-153171962D01*
X83190735Y-153171961D01*
X83018770Y-153111788D01*
X83018769Y-153111787D01*
X83018767Y-153111787D01*
X82837720Y-153091388D01*
X82656673Y-153111787D01*
X82656670Y-153111787D01*
X82656669Y-153111788D01*
X82484704Y-153171961D01*
X82484701Y-153171962D01*
X82330440Y-153268891D01*
X82330438Y-153268892D01*
X82201608Y-153397722D01*
X82201607Y-153397724D01*
X82104678Y-153551985D01*
X82104677Y-153551988D01*
X82047326Y-153715890D01*
X82044503Y-153723957D01*
X82024104Y-153905004D01*
X81505673Y-153905004D01*
X81493217Y-153794453D01*
X81433043Y-153622485D01*
X81433041Y-153622482D01*
X81433041Y-153622481D01*
X81336112Y-153468220D01*
X81336111Y-153468218D01*
X81207281Y-153339388D01*
X81207279Y-153339387D01*
X81053018Y-153242458D01*
X81053015Y-153242457D01*
X80881050Y-153182284D01*
X80881049Y-153182283D01*
X80881047Y-153182283D01*
X80700000Y-153161884D01*
X80518953Y-153182283D01*
X80518950Y-153182283D01*
X80518949Y-153182284D01*
X80346984Y-153242457D01*
X80346981Y-153242458D01*
X80192720Y-153339387D01*
X80192718Y-153339388D01*
X80063888Y-153468218D01*
X80063887Y-153468220D01*
X79966958Y-153622481D01*
X79966957Y-153622484D01*
X79909524Y-153786620D01*
X79906783Y-153794453D01*
X79886384Y-153975500D01*
X76731172Y-153975500D01*
X76710575Y-153942720D01*
X76710574Y-153942718D01*
X76581744Y-153813888D01*
X76581742Y-153813887D01*
X76427481Y-153716958D01*
X76427474Y-153716955D01*
X76424431Y-153715890D01*
X76422732Y-153714671D01*
X76421107Y-153713889D01*
X76421244Y-153713604D01*
X76366741Y-153674510D01*
X76340581Y-153608508D01*
X76354257Y-153538841D01*
X76403427Y-153487628D01*
X76424421Y-153478039D01*
X76553015Y-153433043D01*
X76571044Y-153421715D01*
X76689975Y-153346985D01*
X76707281Y-153336111D01*
X76836111Y-153207281D01*
X76933043Y-153053015D01*
X76993217Y-152881047D01*
X77013616Y-152700000D01*
X77008074Y-152650816D01*
X77020323Y-152580887D01*
X77068436Y-152528679D01*
X77120930Y-152511318D01*
X77216067Y-152501948D01*
X77297694Y-152493909D01*
X77297695Y-152493908D01*
X77297701Y-152493908D01*
X77487804Y-152436241D01*
X77663004Y-152342595D01*
X77816568Y-152216568D01*
X77942595Y-152063004D01*
X78036241Y-151887804D01*
X78093908Y-151697701D01*
X78093909Y-151697694D01*
X78102187Y-151613650D01*
X78128769Y-151547818D01*
X78186724Y-151506808D01*
X78227580Y-151500000D01*
X81091123Y-151500000D01*
X81111861Y-151501718D01*
X81212431Y-151518500D01*
X81212434Y-151518500D01*
X81437566Y-151518500D01*
X81437569Y-151518500D01*
X81538139Y-151501718D01*
X81558877Y-151500000D01*
X85762516Y-151500000D01*
X85830637Y-151520002D01*
X85877130Y-151573658D01*
X85887723Y-151611891D01*
X85906783Y-151781047D01*
X85944139Y-151887804D01*
X85966957Y-151953015D01*
X85966958Y-151953018D01*
X86063887Y-152107279D01*
X86063888Y-152107281D01*
X86192718Y-152236111D01*
X86192720Y-152236112D01*
X86346981Y-152333041D01*
X86346982Y-152333041D01*
X86346985Y-152333043D01*
X86518953Y-152393217D01*
X86700000Y-152413616D01*
X86881047Y-152393217D01*
X87053015Y-152333043D01*
X87207281Y-152236111D01*
X87336111Y-152107281D01*
X87433043Y-151953015D01*
X87493217Y-151781047D01*
X87512276Y-151611891D01*
X87539780Y-151546439D01*
X87598304Y-151506246D01*
X87637484Y-151500000D01*
X87691123Y-151500000D01*
X87711861Y-151501718D01*
X87812431Y-151518500D01*
X87812434Y-151518500D01*
X88037566Y-151518500D01*
X88037569Y-151518500D01*
X88138139Y-151501718D01*
X88158877Y-151500000D01*
X88645963Y-151500000D01*
X88712998Y-151519312D01*
X88808380Y-151579245D01*
X88980348Y-151639419D01*
X89161395Y-151659818D01*
X89342442Y-151639419D01*
X89514410Y-151579245D01*
X89609791Y-151519312D01*
X89676827Y-151500000D01*
X94291123Y-151500000D01*
X94311861Y-151501718D01*
X94412431Y-151518500D01*
X94412434Y-151518500D01*
X94637566Y-151518500D01*
X94637569Y-151518500D01*
X94738139Y-151501718D01*
X94758877Y-151500000D01*
X100891123Y-151500000D01*
X100911861Y-151501718D01*
X101012431Y-151518500D01*
X101012434Y-151518500D01*
X101237566Y-151518500D01*
X101237569Y-151518500D01*
X101338139Y-151501718D01*
X101358877Y-151500000D01*
X107491123Y-151500000D01*
X107511861Y-151501718D01*
X107612431Y-151518500D01*
X107612434Y-151518500D01*
X107837566Y-151518500D01*
X107837569Y-151518500D01*
X107938139Y-151501718D01*
X107958877Y-151500000D01*
X114091123Y-151500000D01*
X114111861Y-151501718D01*
X114212431Y-151518500D01*
X114212434Y-151518500D01*
X114437566Y-151518500D01*
X114437569Y-151518500D01*
X114538139Y-151501718D01*
X114558877Y-151500000D01*
X120691123Y-151500000D01*
X120711861Y-151501718D01*
X120812431Y-151518500D01*
X120812434Y-151518500D01*
X121037566Y-151518500D01*
X121037569Y-151518500D01*
X121138139Y-151501718D01*
X121158877Y-151500000D01*
X121874000Y-151500000D01*
X121942121Y-151520002D01*
X121988614Y-151573658D01*
X122000000Y-151626000D01*
X122000000Y-160678637D01*
X121979998Y-160746758D01*
X121926342Y-160793251D01*
X121856068Y-160803355D01*
X121822751Y-160793744D01*
X121821567Y-160793217D01*
X121682288Y-160731206D01*
X121495487Y-160691500D01*
X121304513Y-160691500D01*
X121117711Y-160731206D01*
X120943247Y-160808882D01*
X120788744Y-160921135D01*
X120660965Y-161063048D01*
X120660958Y-161063058D01*
X120565476Y-161228438D01*
X120565473Y-161228445D01*
X120506457Y-161410072D01*
X120486496Y-161600000D01*
X120506457Y-161789927D01*
X120520056Y-161831779D01*
X120565473Y-161971556D01*
X120565476Y-161971561D01*
X120660958Y-162136941D01*
X120660965Y-162136951D01*
X120788744Y-162278864D01*
X120799419Y-162286620D01*
X120943248Y-162391118D01*
X121117712Y-162468794D01*
X121304513Y-162508500D01*
X121495487Y-162508500D01*
X121682288Y-162468794D01*
X121682288Y-162468793D01*
X121682292Y-162468793D01*
X121783596Y-162423689D01*
X121853962Y-162414254D01*
X121902643Y-162434282D01*
X121903099Y-162433493D01*
X121908812Y-162436790D01*
X121908818Y-162436795D01*
X121925247Y-162444109D01*
X121979342Y-162490085D01*
X121999994Y-162558011D01*
X122000000Y-162559216D01*
X122000000Y-165473500D01*
X121979998Y-165541621D01*
X121926342Y-165588114D01*
X121874000Y-165599500D01*
X117069378Y-165599500D01*
X117001257Y-165579498D01*
X116954764Y-165525842D01*
X116944660Y-165455568D01*
X116974154Y-165390988D01*
X117032802Y-165352925D01*
X117087804Y-165336241D01*
X117263004Y-165242595D01*
X117416568Y-165116568D01*
X117542595Y-164963004D01*
X117636241Y-164787804D01*
X117693908Y-164597701D01*
X117697321Y-164563056D01*
X117713380Y-164400003D01*
X117713380Y-164399996D01*
X117693909Y-164202305D01*
X117693908Y-164202303D01*
X117693908Y-164202299D01*
X117636241Y-164012196D01*
X117542595Y-163836996D01*
X117416568Y-163683432D01*
X117263004Y-163557405D01*
X117087804Y-163463759D01*
X116897701Y-163406092D01*
X116897700Y-163406091D01*
X116897694Y-163406090D01*
X116700003Y-163386620D01*
X116699997Y-163386620D01*
X116502305Y-163406090D01*
X116312195Y-163463759D01*
X116136995Y-163557405D01*
X115983432Y-163683432D01*
X115857405Y-163836995D01*
X115763759Y-164012195D01*
X115706090Y-164202305D01*
X115686620Y-164399996D01*
X115686620Y-164400003D01*
X115706090Y-164597694D01*
X115706091Y-164597700D01*
X115706092Y-164597701D01*
X115763759Y-164787804D01*
X115857405Y-164963004D01*
X115983432Y-165116568D01*
X116136996Y-165242595D01*
X116312196Y-165336241D01*
X116367197Y-165352925D01*
X116426579Y-165391840D01*
X116455494Y-165456681D01*
X116444764Y-165526862D01*
X116397795Y-165580101D01*
X116330622Y-165599500D01*
X110032844Y-165599500D01*
X109964723Y-165579498D01*
X109918230Y-165525842D01*
X109908126Y-165455568D01*
X109935445Y-165393566D01*
X110042595Y-165263004D01*
X110136241Y-165087804D01*
X110193908Y-164897701D01*
X110195675Y-164879768D01*
X110213380Y-164700003D01*
X110213380Y-164699996D01*
X110193909Y-164502305D01*
X110193908Y-164502303D01*
X110193908Y-164502299D01*
X110136241Y-164312196D01*
X110042595Y-164136996D01*
X109916568Y-163983432D01*
X109763004Y-163857405D01*
X109587804Y-163763759D01*
X109397701Y-163706092D01*
X109397700Y-163706091D01*
X109397694Y-163706090D01*
X109200003Y-163686620D01*
X109199997Y-163686620D01*
X109002305Y-163706090D01*
X108812195Y-163763759D01*
X108636995Y-163857405D01*
X108483432Y-163983432D01*
X108357405Y-164136995D01*
X108263759Y-164312195D01*
X108206090Y-164502305D01*
X108186620Y-164699996D01*
X108186620Y-164700003D01*
X108206090Y-164897694D01*
X108206091Y-164897700D01*
X108206092Y-164897701D01*
X108263759Y-165087804D01*
X108357405Y-165263004D01*
X108464268Y-165393217D01*
X108464555Y-165393566D01*
X108492309Y-165458913D01*
X108480327Y-165528892D01*
X108432415Y-165581283D01*
X108367156Y-165599500D01*
X92698872Y-165599500D01*
X92630751Y-165579498D01*
X92584258Y-165525842D01*
X92574154Y-165455568D01*
X92579039Y-165434563D01*
X92587025Y-165409984D01*
X92593542Y-165389928D01*
X92613504Y-165200000D01*
X92593542Y-165010072D01*
X92534527Y-164828444D01*
X92439040Y-164663056D01*
X92439038Y-164663054D01*
X92439034Y-164663048D01*
X92311255Y-164521135D01*
X92156752Y-164408882D01*
X91982288Y-164331206D01*
X91795487Y-164291500D01*
X91604513Y-164291500D01*
X91417711Y-164331206D01*
X91243247Y-164408882D01*
X91088744Y-164521135D01*
X90960965Y-164663048D01*
X90960958Y-164663058D01*
X90865476Y-164828438D01*
X90865473Y-164828444D01*
X90859854Y-164845737D01*
X90806457Y-165010072D01*
X90786496Y-165200000D01*
X90806457Y-165389927D01*
X90820961Y-165434563D01*
X90822989Y-165505531D01*
X90786327Y-165566329D01*
X90722615Y-165597654D01*
X90701128Y-165599500D01*
X85459366Y-165599500D01*
X85391245Y-165579498D01*
X85344752Y-165525842D01*
X85334648Y-165455568D01*
X85340437Y-165431885D01*
X85368066Y-165352925D01*
X85393217Y-165281047D01*
X85413616Y-165100000D01*
X85393217Y-164918953D01*
X85333043Y-164746985D01*
X85333041Y-164746982D01*
X85333041Y-164746981D01*
X85236112Y-164592720D01*
X85236111Y-164592718D01*
X85107281Y-164463888D01*
X85107279Y-164463887D01*
X84953018Y-164366958D01*
X84953015Y-164366957D01*
X84781050Y-164306784D01*
X84781049Y-164306783D01*
X84781047Y-164306783D01*
X84600000Y-164286384D01*
X84418953Y-164306783D01*
X84418950Y-164306783D01*
X84418949Y-164306784D01*
X84246984Y-164366957D01*
X84246981Y-164366958D01*
X84092720Y-164463887D01*
X84092718Y-164463888D01*
X83963888Y-164592718D01*
X83963887Y-164592720D01*
X83866958Y-164746981D01*
X83866957Y-164746984D01*
X83809891Y-164910072D01*
X83806783Y-164918953D01*
X83786384Y-165100000D01*
X83806783Y-165281047D01*
X83806783Y-165281049D01*
X83806784Y-165281050D01*
X83859563Y-165431885D01*
X83863182Y-165502790D01*
X83827893Y-165564395D01*
X83764900Y-165597141D01*
X83740634Y-165599500D01*
X81844868Y-165599500D01*
X81776747Y-165579498D01*
X81730254Y-165525842D01*
X81720150Y-165455568D01*
X81733746Y-165414105D01*
X81735946Y-165409988D01*
X81735947Y-165409985D01*
X81735948Y-165409984D01*
X81793615Y-165219881D01*
X81804706Y-165107281D01*
X81813087Y-165022183D01*
X81813087Y-165022176D01*
X81793616Y-164824485D01*
X81793615Y-164824483D01*
X81793615Y-164824479D01*
X81735948Y-164634376D01*
X81642302Y-164459176D01*
X81516275Y-164305612D01*
X81362711Y-164179585D01*
X81213823Y-164100003D01*
X87711120Y-164100003D01*
X87730590Y-164297694D01*
X87730591Y-164297700D01*
X87730592Y-164297701D01*
X87788259Y-164487804D01*
X87881905Y-164663004D01*
X88007932Y-164816568D01*
X88161496Y-164942595D01*
X88336696Y-165036241D01*
X88526799Y-165093908D01*
X88526803Y-165093908D01*
X88526805Y-165093909D01*
X88724497Y-165113380D01*
X88724500Y-165113380D01*
X88724503Y-165113380D01*
X88922194Y-165093909D01*
X88922195Y-165093908D01*
X88922201Y-165093908D01*
X89112304Y-165036241D01*
X89287504Y-164942595D01*
X89441068Y-164816568D01*
X89567095Y-164663004D01*
X89660741Y-164487804D01*
X89718408Y-164297701D01*
X89718782Y-164293909D01*
X89737880Y-164100003D01*
X89737880Y-164099996D01*
X89718409Y-163902305D01*
X89718408Y-163902303D01*
X89718408Y-163902299D01*
X89660741Y-163712196D01*
X89567095Y-163536996D01*
X89441068Y-163383432D01*
X89339410Y-163300003D01*
X92886620Y-163300003D01*
X92906090Y-163497694D01*
X92906091Y-163497700D01*
X92906092Y-163497701D01*
X92963759Y-163687804D01*
X93057405Y-163863004D01*
X93183432Y-164016568D01*
X93336996Y-164142595D01*
X93512196Y-164236241D01*
X93702299Y-164293908D01*
X93702303Y-164293908D01*
X93702305Y-164293909D01*
X93899997Y-164313380D01*
X93900000Y-164313380D01*
X93900003Y-164313380D01*
X94035821Y-164300003D01*
X100786620Y-164300003D01*
X100806090Y-164497694D01*
X100806091Y-164497700D01*
X100806092Y-164497701D01*
X100863759Y-164687804D01*
X100957405Y-164863004D01*
X101083432Y-165016568D01*
X101236996Y-165142595D01*
X101412196Y-165236241D01*
X101602299Y-165293908D01*
X101602303Y-165293908D01*
X101602305Y-165293909D01*
X101799997Y-165313380D01*
X101800000Y-165313380D01*
X101800003Y-165313380D01*
X101997694Y-165293909D01*
X101997695Y-165293908D01*
X101997701Y-165293908D01*
X102187804Y-165236241D01*
X102363004Y-165142595D01*
X102516568Y-165016568D01*
X102642595Y-164863004D01*
X102736241Y-164687804D01*
X102793908Y-164497701D01*
X102796756Y-164468793D01*
X102813380Y-164300003D01*
X102813380Y-164299996D01*
X102793909Y-164102305D01*
X102793908Y-164102303D01*
X102793908Y-164102299D01*
X102736241Y-163912196D01*
X102642595Y-163736996D01*
X102516568Y-163583432D01*
X102363004Y-163457405D01*
X102187804Y-163363759D01*
X101997701Y-163306092D01*
X101997700Y-163306091D01*
X101997694Y-163306090D01*
X101800003Y-163286620D01*
X101799997Y-163286620D01*
X101602305Y-163306090D01*
X101412195Y-163363759D01*
X101236995Y-163457405D01*
X101083432Y-163583432D01*
X100957405Y-163736995D01*
X100863759Y-163912195D01*
X100806090Y-164102305D01*
X100786620Y-164299996D01*
X100786620Y-164300003D01*
X94035821Y-164300003D01*
X94097694Y-164293909D01*
X94097695Y-164293908D01*
X94097701Y-164293908D01*
X94287804Y-164236241D01*
X94463004Y-164142595D01*
X94616568Y-164016568D01*
X94742595Y-163863004D01*
X94836241Y-163687804D01*
X94893908Y-163497701D01*
X94907101Y-163363759D01*
X94913380Y-163300003D01*
X94913380Y-163299996D01*
X94893909Y-163102305D01*
X94893908Y-163102303D01*
X94893908Y-163102299D01*
X94836241Y-162912196D01*
X94742595Y-162736996D01*
X94616568Y-162583432D01*
X94463004Y-162457405D01*
X94287804Y-162363759D01*
X94097701Y-162306092D01*
X94097700Y-162306091D01*
X94097694Y-162306090D01*
X93900003Y-162286620D01*
X93899997Y-162286620D01*
X93702305Y-162306090D01*
X93512195Y-162363759D01*
X93336995Y-162457405D01*
X93183432Y-162583432D01*
X93057405Y-162736995D01*
X92963759Y-162912195D01*
X92906090Y-163102305D01*
X92886620Y-163299996D01*
X92886620Y-163300003D01*
X89339410Y-163300003D01*
X89287504Y-163257405D01*
X89112304Y-163163759D01*
X88922201Y-163106092D01*
X88922200Y-163106091D01*
X88922194Y-163106090D01*
X88724503Y-163086620D01*
X88724497Y-163086620D01*
X88526805Y-163106090D01*
X88336695Y-163163759D01*
X88161495Y-163257405D01*
X88007932Y-163383432D01*
X87881905Y-163536995D01*
X87788259Y-163712195D01*
X87730590Y-163902305D01*
X87711120Y-164099996D01*
X87711120Y-164100003D01*
X81213823Y-164100003D01*
X81187511Y-164085939D01*
X80997408Y-164028272D01*
X80997407Y-164028271D01*
X80997401Y-164028270D01*
X80799710Y-164008800D01*
X80799704Y-164008800D01*
X80602012Y-164028270D01*
X80411902Y-164085939D01*
X80236702Y-164179585D01*
X80083139Y-164305612D01*
X79957112Y-164459175D01*
X79863466Y-164634375D01*
X79805797Y-164824485D01*
X79786327Y-165022176D01*
X79786327Y-165022183D01*
X79805797Y-165219874D01*
X79805798Y-165219880D01*
X79805799Y-165219881D01*
X79810762Y-165236241D01*
X79863466Y-165409985D01*
X79863467Y-165409988D01*
X79865668Y-165414105D01*
X79880140Y-165483611D01*
X79854736Y-165549907D01*
X79797522Y-165591944D01*
X79754546Y-165599500D01*
X71072250Y-165599500D01*
X71004129Y-165579498D01*
X70957636Y-165525842D01*
X70947532Y-165455568D01*
X70951675Y-165436925D01*
X70958597Y-165414105D01*
X70993908Y-165297701D01*
X70994282Y-165293909D01*
X71013380Y-165100003D01*
X71013380Y-165099996D01*
X70993909Y-164902305D01*
X70993908Y-164902303D01*
X70993908Y-164902299D01*
X70936241Y-164712196D01*
X70842595Y-164536996D01*
X70716568Y-164383432D01*
X70563004Y-164257405D01*
X70387804Y-164163759D01*
X70197701Y-164106092D01*
X70197700Y-164106091D01*
X70197694Y-164106090D01*
X70000003Y-164086620D01*
X69999997Y-164086620D01*
X69802305Y-164106090D01*
X69612195Y-164163759D01*
X69436995Y-164257405D01*
X69283432Y-164383432D01*
X69157405Y-164536995D01*
X69063758Y-164712196D01*
X69063756Y-164712201D01*
X69045794Y-164771416D01*
X69006879Y-164830797D01*
X68973376Y-164845737D01*
X68986934Y-164858753D01*
X69003438Y-164927804D01*
X69002995Y-164933732D01*
X68986620Y-165099996D01*
X68986620Y-165100003D01*
X69006090Y-165297694D01*
X69048325Y-165436925D01*
X69048958Y-165507919D01*
X69011109Y-165567985D01*
X68946793Y-165598053D01*
X68927750Y-165599500D01*
X68333106Y-165599500D01*
X68264985Y-165579498D01*
X68218492Y-165525842D01*
X68208388Y-165455568D01*
X68237882Y-165390988D01*
X68291491Y-165354571D01*
X68296195Y-165352925D01*
X68353015Y-165333043D01*
X68507281Y-165236111D01*
X68636111Y-165107281D01*
X68733043Y-164953015D01*
X68758674Y-164879764D01*
X68800050Y-164822076D01*
X68828553Y-164810777D01*
X68818618Y-164802012D01*
X68799225Y-164733715D01*
X68800011Y-164720748D01*
X68813616Y-164600000D01*
X68793217Y-164418953D01*
X68733043Y-164246985D01*
X68733041Y-164246982D01*
X68733041Y-164246981D01*
X68636112Y-164092720D01*
X68636111Y-164092718D01*
X68507281Y-163963888D01*
X68507279Y-163963887D01*
X68353018Y-163866958D01*
X68353015Y-163866957D01*
X68181050Y-163806784D01*
X68181049Y-163806783D01*
X68181047Y-163806783D01*
X68000000Y-163786384D01*
X67818953Y-163806783D01*
X67818950Y-163806783D01*
X67818949Y-163806784D01*
X67646984Y-163866957D01*
X67646981Y-163866958D01*
X67492720Y-163963887D01*
X67492718Y-163963888D01*
X67363888Y-164092718D01*
X67363887Y-164092720D01*
X67266958Y-164246981D01*
X67266957Y-164246984D01*
X67213414Y-164400003D01*
X67206783Y-164418953D01*
X67186384Y-164600000D01*
X67206783Y-164781047D01*
X67206783Y-164781049D01*
X67206784Y-164781050D01*
X67266957Y-164953015D01*
X67266958Y-164953018D01*
X67363887Y-165107279D01*
X67363888Y-165107281D01*
X67492718Y-165236111D01*
X67492720Y-165236112D01*
X67646981Y-165333041D01*
X67646982Y-165333041D01*
X67646985Y-165333043D01*
X67703805Y-165352925D01*
X67708509Y-165354571D01*
X67766201Y-165395949D01*
X67792363Y-165461949D01*
X67778691Y-165531617D01*
X67729523Y-165582833D01*
X67666894Y-165599500D01*
X66198872Y-165599500D01*
X66130751Y-165579498D01*
X66084258Y-165525842D01*
X66074154Y-165455568D01*
X66079039Y-165434563D01*
X66087025Y-165409984D01*
X66093542Y-165389928D01*
X66113504Y-165200000D01*
X66093542Y-165010072D01*
X66034527Y-164828444D01*
X65939040Y-164663056D01*
X65939038Y-164663054D01*
X65939034Y-164663048D01*
X65811255Y-164521135D01*
X65656752Y-164408882D01*
X65482288Y-164331206D01*
X65295487Y-164291500D01*
X65104513Y-164291500D01*
X65102798Y-164291500D01*
X65034677Y-164271498D01*
X64988184Y-164217842D01*
X64978080Y-164147568D01*
X65007574Y-164082988D01*
X65009161Y-164081190D01*
X65071284Y-164012195D01*
X65139040Y-163936944D01*
X65234527Y-163771556D01*
X65293542Y-163589928D01*
X65304248Y-163488066D01*
X77953233Y-163488066D01*
X77973632Y-163669113D01*
X77973632Y-163669115D01*
X77973633Y-163669116D01*
X78033806Y-163841081D01*
X78033807Y-163841084D01*
X78130736Y-163995345D01*
X78130737Y-163995347D01*
X78259567Y-164124177D01*
X78259569Y-164124178D01*
X78413830Y-164221107D01*
X78413831Y-164221107D01*
X78413834Y-164221109D01*
X78585802Y-164281283D01*
X78766849Y-164301682D01*
X78947896Y-164281283D01*
X79119864Y-164221109D01*
X79274130Y-164124177D01*
X79402960Y-163995347D01*
X79499892Y-163841081D01*
X79560066Y-163669113D01*
X79580465Y-163488066D01*
X79560066Y-163307019D01*
X79499892Y-163135051D01*
X79499890Y-163135048D01*
X79499890Y-163135047D01*
X79402961Y-162980786D01*
X79402960Y-162980784D01*
X79274130Y-162851954D01*
X79274128Y-162851953D01*
X79119867Y-162755024D01*
X79119864Y-162755023D01*
X78947899Y-162694850D01*
X78947898Y-162694849D01*
X78947896Y-162694849D01*
X78766849Y-162674450D01*
X78585802Y-162694849D01*
X78585799Y-162694849D01*
X78585798Y-162694850D01*
X78413833Y-162755023D01*
X78413830Y-162755024D01*
X78259569Y-162851953D01*
X78259567Y-162851954D01*
X78130737Y-162980784D01*
X78130736Y-162980786D01*
X78033807Y-163135047D01*
X78033806Y-163135050D01*
X77990993Y-163257405D01*
X77973632Y-163307019D01*
X77953233Y-163488066D01*
X65304248Y-163488066D01*
X65313504Y-163400000D01*
X65293542Y-163210072D01*
X65234527Y-163028444D01*
X65139040Y-162863056D01*
X65099201Y-162818810D01*
X65068484Y-162754802D01*
X65077249Y-162684349D01*
X65122712Y-162629818D01*
X65190440Y-162608523D01*
X65192838Y-162608500D01*
X65295487Y-162608500D01*
X65482288Y-162568794D01*
X65656752Y-162491118D01*
X65811253Y-162378866D01*
X65811255Y-162378864D01*
X65939034Y-162236951D01*
X65939035Y-162236949D01*
X65939040Y-162236944D01*
X66034527Y-162071556D01*
X66093542Y-161889928D01*
X66113504Y-161700000D01*
X66093542Y-161510072D01*
X66034527Y-161328444D01*
X66032250Y-161324500D01*
X105530796Y-161324500D01*
X105551195Y-161505547D01*
X105551195Y-161505549D01*
X105551196Y-161505550D01*
X105611369Y-161677515D01*
X105611370Y-161677518D01*
X105708299Y-161831779D01*
X105708300Y-161831781D01*
X105837130Y-161960611D01*
X105837132Y-161960612D01*
X105991393Y-162057541D01*
X105991394Y-162057541D01*
X105991397Y-162057543D01*
X106163365Y-162117717D01*
X106344412Y-162138116D01*
X106525459Y-162117717D01*
X106697427Y-162057543D01*
X106851693Y-161960611D01*
X106855313Y-161956990D01*
X106917622Y-161922963D01*
X106988438Y-161928024D01*
X107033510Y-161956990D01*
X107037131Y-161960611D01*
X107037133Y-161960612D01*
X107037135Y-161960614D01*
X107191393Y-162057541D01*
X107191394Y-162057541D01*
X107191397Y-162057543D01*
X107363365Y-162117717D01*
X107544412Y-162138116D01*
X107725459Y-162117717D01*
X107897427Y-162057543D01*
X108051693Y-161960611D01*
X108180523Y-161831781D01*
X108277455Y-161677515D01*
X108337629Y-161505547D01*
X108358028Y-161324500D01*
X112589199Y-161324500D01*
X112609598Y-161505547D01*
X112609598Y-161505549D01*
X112609599Y-161505550D01*
X112669772Y-161677515D01*
X112669773Y-161677518D01*
X112766702Y-161831779D01*
X112766703Y-161831781D01*
X112895533Y-161960611D01*
X112895535Y-161960612D01*
X113049796Y-162057541D01*
X113049797Y-162057541D01*
X113049800Y-162057543D01*
X113221768Y-162117717D01*
X113402815Y-162138116D01*
X113583862Y-162117717D01*
X113755830Y-162057543D01*
X113910096Y-161960611D01*
X113913716Y-161956990D01*
X113976025Y-161922963D01*
X114046841Y-161928024D01*
X114091913Y-161956990D01*
X114095534Y-161960611D01*
X114095536Y-161960612D01*
X114095538Y-161960614D01*
X114249796Y-162057541D01*
X114249797Y-162057541D01*
X114249800Y-162057543D01*
X114421768Y-162117717D01*
X114602815Y-162138116D01*
X114783862Y-162117717D01*
X114955830Y-162057543D01*
X115110096Y-161960611D01*
X115238926Y-161831781D01*
X115335858Y-161677515D01*
X115396032Y-161505547D01*
X115416431Y-161324500D01*
X115396032Y-161143453D01*
X115335858Y-160971485D01*
X115335856Y-160971482D01*
X115335856Y-160971481D01*
X115238927Y-160817220D01*
X115238926Y-160817218D01*
X115110096Y-160688388D01*
X115110094Y-160688387D01*
X114955833Y-160591458D01*
X114955830Y-160591457D01*
X114783865Y-160531284D01*
X114783864Y-160531283D01*
X114783862Y-160531283D01*
X114602815Y-160510884D01*
X114421768Y-160531283D01*
X114421765Y-160531283D01*
X114421764Y-160531284D01*
X114249799Y-160591457D01*
X114249796Y-160591458D01*
X114095535Y-160688387D01*
X114095533Y-160688388D01*
X114091910Y-160692012D01*
X114029598Y-160726038D01*
X113958783Y-160720973D01*
X113913720Y-160692012D01*
X113910096Y-160688388D01*
X113910094Y-160688387D01*
X113755833Y-160591458D01*
X113755830Y-160591457D01*
X113583865Y-160531284D01*
X113583864Y-160531283D01*
X113583862Y-160531283D01*
X113402815Y-160510884D01*
X113221768Y-160531283D01*
X113221765Y-160531283D01*
X113221764Y-160531284D01*
X113049799Y-160591457D01*
X113049796Y-160591458D01*
X112895535Y-160688387D01*
X112895533Y-160688388D01*
X112766703Y-160817218D01*
X112766702Y-160817220D01*
X112669773Y-160971481D01*
X112669772Y-160971484D01*
X112628869Y-161088380D01*
X112609598Y-161143453D01*
X112589199Y-161324500D01*
X108358028Y-161324500D01*
X108337629Y-161143453D01*
X108277455Y-160971485D01*
X108277453Y-160971482D01*
X108277453Y-160971481D01*
X108180524Y-160817220D01*
X108180523Y-160817218D01*
X108051693Y-160688388D01*
X108051691Y-160688387D01*
X107897430Y-160591458D01*
X107897427Y-160591457D01*
X107725462Y-160531284D01*
X107725461Y-160531283D01*
X107725459Y-160531283D01*
X107544412Y-160510884D01*
X107363365Y-160531283D01*
X107363362Y-160531283D01*
X107363361Y-160531284D01*
X107191396Y-160591457D01*
X107191393Y-160591458D01*
X107037132Y-160688387D01*
X107037130Y-160688388D01*
X107033507Y-160692012D01*
X106971195Y-160726038D01*
X106900380Y-160720973D01*
X106855317Y-160692012D01*
X106851693Y-160688388D01*
X106851691Y-160688387D01*
X106697430Y-160591458D01*
X106697427Y-160591457D01*
X106525462Y-160531284D01*
X106525461Y-160531283D01*
X106525459Y-160531283D01*
X106344412Y-160510884D01*
X106163365Y-160531283D01*
X106163362Y-160531283D01*
X106163361Y-160531284D01*
X105991396Y-160591457D01*
X105991393Y-160591458D01*
X105837132Y-160688387D01*
X105837130Y-160688388D01*
X105708300Y-160817218D01*
X105708299Y-160817220D01*
X105611370Y-160971481D01*
X105611369Y-160971484D01*
X105570466Y-161088380D01*
X105551195Y-161143453D01*
X105530796Y-161324500D01*
X66032250Y-161324500D01*
X65939040Y-161163056D01*
X65939038Y-161163054D01*
X65939034Y-161163048D01*
X65811255Y-161021135D01*
X65656752Y-160908882D01*
X65482288Y-160831206D01*
X65295487Y-160791500D01*
X65104513Y-160791500D01*
X64917711Y-160831206D01*
X64743247Y-160908882D01*
X64588744Y-161021135D01*
X64460965Y-161163048D01*
X64460958Y-161163058D01*
X64365476Y-161328438D01*
X64365473Y-161328445D01*
X64306457Y-161510072D01*
X64286496Y-161700000D01*
X64306457Y-161889927D01*
X64329424Y-161960611D01*
X64365473Y-162071556D01*
X64365476Y-162071561D01*
X64460958Y-162236941D01*
X64460961Y-162236945D01*
X64500799Y-162281190D01*
X64531516Y-162345198D01*
X64522751Y-162415651D01*
X64477288Y-162470182D01*
X64409560Y-162491477D01*
X64407162Y-162491500D01*
X64304513Y-162491500D01*
X64117711Y-162531206D01*
X63943247Y-162608882D01*
X63788744Y-162721135D01*
X63660965Y-162863048D01*
X63660958Y-162863058D01*
X63565476Y-163028438D01*
X63565473Y-163028445D01*
X63506457Y-163210072D01*
X63486496Y-163400000D01*
X63506457Y-163589927D01*
X63532187Y-163669113D01*
X63565473Y-163771556D01*
X63565476Y-163771561D01*
X63660958Y-163936941D01*
X63660965Y-163936951D01*
X63788744Y-164078864D01*
X63807814Y-164092719D01*
X63943248Y-164191118D01*
X64117712Y-164268794D01*
X64304513Y-164308500D01*
X64497202Y-164308500D01*
X64565323Y-164328502D01*
X64611816Y-164382158D01*
X64621920Y-164452432D01*
X64592426Y-164517012D01*
X64590839Y-164518810D01*
X64460961Y-164663054D01*
X64460958Y-164663058D01*
X64365476Y-164828438D01*
X64365473Y-164828444D01*
X64359854Y-164845737D01*
X64306457Y-165010072D01*
X64286496Y-165200000D01*
X64306457Y-165389927D01*
X64320961Y-165434563D01*
X64322989Y-165505531D01*
X64286327Y-165566329D01*
X64222615Y-165597654D01*
X64201128Y-165599500D01*
X54366380Y-165599500D01*
X54298259Y-165579498D01*
X54251766Y-165525842D01*
X54241662Y-165455568D01*
X54246547Y-165434564D01*
X54293542Y-165289928D01*
X54298517Y-165242594D01*
X54313504Y-165100000D01*
X54293542Y-164910072D01*
X54234527Y-164728444D01*
X54139040Y-164563056D01*
X54139038Y-164563054D01*
X54139034Y-164563048D01*
X54011255Y-164421135D01*
X53856752Y-164308882D01*
X53682288Y-164231206D01*
X53495487Y-164191500D01*
X53304513Y-164191500D01*
X53117711Y-164231206D01*
X52943247Y-164308882D01*
X52788744Y-164421135D01*
X52660965Y-164563048D01*
X52660958Y-164563058D01*
X52565476Y-164728438D01*
X52565473Y-164728444D01*
X52559450Y-164746981D01*
X52506457Y-164910072D01*
X52486496Y-165100000D01*
X52506457Y-165289928D01*
X52553453Y-165434564D01*
X52555481Y-165505531D01*
X52518818Y-165566329D01*
X52455106Y-165597655D01*
X52433620Y-165599500D01*
X45866380Y-165599500D01*
X45798259Y-165579498D01*
X45751766Y-165525842D01*
X45741662Y-165455568D01*
X45746547Y-165434564D01*
X45793542Y-165289928D01*
X45798517Y-165242594D01*
X45813504Y-165100000D01*
X45793542Y-164910072D01*
X45734527Y-164728444D01*
X45639040Y-164563056D01*
X45639038Y-164563054D01*
X45639034Y-164563048D01*
X45511255Y-164421135D01*
X45356752Y-164308882D01*
X45182288Y-164231206D01*
X44995487Y-164191500D01*
X44804513Y-164191500D01*
X44617707Y-164231207D01*
X44577747Y-164248998D01*
X44507380Y-164258432D01*
X44443084Y-164228325D01*
X44405271Y-164168235D01*
X44400500Y-164133891D01*
X44400500Y-163600000D01*
X60686496Y-163600000D01*
X60706457Y-163789927D01*
X60728383Y-163857405D01*
X60765473Y-163971556D01*
X60765476Y-163971561D01*
X60860958Y-164136941D01*
X60860965Y-164136951D01*
X60988744Y-164278864D01*
X61030060Y-164308882D01*
X61143248Y-164391118D01*
X61317712Y-164468794D01*
X61504513Y-164508500D01*
X61695487Y-164508500D01*
X61882288Y-164468794D01*
X62056752Y-164391118D01*
X62211253Y-164278866D01*
X62239960Y-164246984D01*
X62339034Y-164136951D01*
X62339035Y-164136949D01*
X62339040Y-164136944D01*
X62434527Y-163971556D01*
X62493542Y-163789928D01*
X62513504Y-163600000D01*
X62493542Y-163410072D01*
X62434527Y-163228444D01*
X62339040Y-163063056D01*
X62339038Y-163063054D01*
X62339034Y-163063048D01*
X62211255Y-162921135D01*
X62056752Y-162808882D01*
X61882288Y-162731206D01*
X61695487Y-162691500D01*
X61504513Y-162691500D01*
X61317711Y-162731206D01*
X61143247Y-162808882D01*
X60988744Y-162921135D01*
X60860965Y-163063048D01*
X60860958Y-163063058D01*
X60765476Y-163228438D01*
X60765473Y-163228445D01*
X60706457Y-163410072D01*
X60686496Y-163600000D01*
X44400500Y-163600000D01*
X44400500Y-161050000D01*
X47386673Y-161050000D01*
X47401459Y-161228445D01*
X47405950Y-161282633D01*
X47463249Y-161508903D01*
X47463252Y-161508910D01*
X47557015Y-161722668D01*
X47684685Y-161918083D01*
X47842774Y-162089813D01*
X47842778Y-162089817D01*
X47904833Y-162138116D01*
X48026983Y-162233190D01*
X48232273Y-162344287D01*
X48453049Y-162420080D01*
X48683288Y-162458500D01*
X48683292Y-162458500D01*
X48916708Y-162458500D01*
X48916712Y-162458500D01*
X49146951Y-162420080D01*
X49367727Y-162344287D01*
X49573017Y-162233190D01*
X49757220Y-162089818D01*
X49774032Y-162071556D01*
X49915314Y-161918083D01*
X50042984Y-161722669D01*
X50136749Y-161508907D01*
X50194051Y-161282626D01*
X50213327Y-161050000D01*
X50786673Y-161050000D01*
X50801459Y-161228445D01*
X50805950Y-161282633D01*
X50863249Y-161508903D01*
X50863252Y-161508910D01*
X50957015Y-161722668D01*
X51084685Y-161918083D01*
X51242774Y-162089813D01*
X51242778Y-162089817D01*
X51304833Y-162138116D01*
X51426983Y-162233190D01*
X51632273Y-162344287D01*
X51853049Y-162420080D01*
X52083288Y-162458500D01*
X52083292Y-162458500D01*
X52316708Y-162458500D01*
X52316712Y-162458500D01*
X52546951Y-162420080D01*
X52767727Y-162344287D01*
X52973017Y-162233190D01*
X53157220Y-162089818D01*
X53174032Y-162071556D01*
X53315314Y-161918083D01*
X53442984Y-161722669D01*
X53536749Y-161508907D01*
X53594051Y-161282626D01*
X53613327Y-161050000D01*
X53594051Y-160817374D01*
X53594012Y-160817219D01*
X53536750Y-160591096D01*
X53536747Y-160591089D01*
X53536237Y-160589927D01*
X53452928Y-160400000D01*
X57986496Y-160400000D01*
X58006457Y-160589927D01*
X58031738Y-160667732D01*
X58065473Y-160771556D01*
X58065476Y-160771561D01*
X58160958Y-160936941D01*
X58160965Y-160936951D01*
X58288744Y-161078864D01*
X58288747Y-161078866D01*
X58443248Y-161191118D01*
X58617712Y-161268794D01*
X58804513Y-161308500D01*
X58995487Y-161308500D01*
X59182288Y-161268794D01*
X59356752Y-161191118D01*
X59511253Y-161078866D01*
X59511255Y-161078864D01*
X59639034Y-160936951D01*
X59639035Y-160936949D01*
X59639040Y-160936944D01*
X59734527Y-160771556D01*
X59793542Y-160589928D01*
X59813504Y-160400000D01*
X59793542Y-160210072D01*
X59734527Y-160028444D01*
X59639040Y-159863056D01*
X59639038Y-159863054D01*
X59639034Y-159863048D01*
X59511255Y-159721135D01*
X59356752Y-159608882D01*
X59182288Y-159531206D01*
X58995487Y-159491500D01*
X58804513Y-159491500D01*
X58617711Y-159531206D01*
X58443247Y-159608882D01*
X58288744Y-159721135D01*
X58160965Y-159863048D01*
X58160958Y-159863058D01*
X58065476Y-160028438D01*
X58065473Y-160028444D01*
X58051660Y-160070957D01*
X58006457Y-160210072D01*
X57986496Y-160400000D01*
X53452928Y-160400000D01*
X53442984Y-160377331D01*
X53427098Y-160353015D01*
X53315314Y-160181916D01*
X53157225Y-160010186D01*
X53157221Y-160010182D01*
X53063133Y-159936951D01*
X52973017Y-159866810D01*
X52767727Y-159755713D01*
X52767724Y-159755712D01*
X52767723Y-159755711D01*
X52546955Y-159679921D01*
X52546948Y-159679919D01*
X52448411Y-159663476D01*
X52316712Y-159641500D01*
X52083288Y-159641500D01*
X51968066Y-159660727D01*
X51853051Y-159679919D01*
X51853044Y-159679921D01*
X51632276Y-159755711D01*
X51632273Y-159755713D01*
X51426985Y-159866809D01*
X51426983Y-159866810D01*
X51242778Y-160010182D01*
X51242774Y-160010186D01*
X51084685Y-160181916D01*
X50957015Y-160377331D01*
X50863252Y-160591089D01*
X50863249Y-160591096D01*
X50805950Y-160817366D01*
X50805949Y-160817372D01*
X50805949Y-160817374D01*
X50786673Y-161050000D01*
X50213327Y-161050000D01*
X50194051Y-160817374D01*
X50194012Y-160817219D01*
X50136750Y-160591096D01*
X50136747Y-160591089D01*
X50136237Y-160589927D01*
X50042984Y-160377331D01*
X50027098Y-160353015D01*
X49915314Y-160181916D01*
X49757225Y-160010186D01*
X49757221Y-160010182D01*
X49663133Y-159936951D01*
X49573017Y-159866810D01*
X49367727Y-159755713D01*
X49367724Y-159755712D01*
X49367723Y-159755711D01*
X49146955Y-159679921D01*
X49146948Y-159679919D01*
X49048411Y-159663476D01*
X48916712Y-159641500D01*
X48683288Y-159641500D01*
X48568066Y-159660727D01*
X48453051Y-159679919D01*
X48453044Y-159679921D01*
X48232276Y-159755711D01*
X48232273Y-159755713D01*
X48026985Y-159866809D01*
X48026983Y-159866810D01*
X47842778Y-160010182D01*
X47842774Y-160010186D01*
X47684685Y-160181916D01*
X47557015Y-160377331D01*
X47463252Y-160591089D01*
X47463249Y-160591096D01*
X47405950Y-160817366D01*
X47405949Y-160817372D01*
X47405949Y-160817374D01*
X47386673Y-161050000D01*
X44400500Y-161050000D01*
X44400500Y-157350000D01*
X45686673Y-157350000D01*
X45705818Y-157581047D01*
X45705950Y-157582633D01*
X45763249Y-157808903D01*
X45763252Y-157808910D01*
X45857015Y-158022668D01*
X45984685Y-158218083D01*
X46142774Y-158389813D01*
X46142778Y-158389817D01*
X46198314Y-158433042D01*
X46326983Y-158533190D01*
X46532273Y-158644287D01*
X46753049Y-158720080D01*
X46983288Y-158758500D01*
X46983292Y-158758500D01*
X47216708Y-158758500D01*
X47216712Y-158758500D01*
X47446951Y-158720080D01*
X47667727Y-158644287D01*
X47873017Y-158533190D01*
X48057220Y-158389818D01*
X48074032Y-158371556D01*
X48215314Y-158218083D01*
X48231561Y-158193215D01*
X48342984Y-158022669D01*
X48436749Y-157808907D01*
X48494051Y-157582626D01*
X48513327Y-157350000D01*
X49086673Y-157350000D01*
X49105818Y-157581047D01*
X49105950Y-157582633D01*
X49163249Y-157808903D01*
X49163252Y-157808910D01*
X49257015Y-158022668D01*
X49384685Y-158218083D01*
X49542774Y-158389813D01*
X49542778Y-158389817D01*
X49598314Y-158433042D01*
X49726983Y-158533190D01*
X49932273Y-158644287D01*
X50153049Y-158720080D01*
X50383288Y-158758500D01*
X50383292Y-158758500D01*
X50616708Y-158758500D01*
X50616712Y-158758500D01*
X50846951Y-158720080D01*
X51067727Y-158644287D01*
X51273017Y-158533190D01*
X51457220Y-158389818D01*
X51474032Y-158371556D01*
X51541148Y-158298649D01*
X52491500Y-158298649D01*
X52498009Y-158359196D01*
X52498011Y-158359204D01*
X52549110Y-158496202D01*
X52549112Y-158496207D01*
X52636738Y-158613261D01*
X52753792Y-158700887D01*
X52753794Y-158700888D01*
X52753796Y-158700889D01*
X52786323Y-158713021D01*
X52890795Y-158751988D01*
X52890803Y-158751990D01*
X52951350Y-158758499D01*
X52951355Y-158758499D01*
X52951362Y-158758500D01*
X52951368Y-158758500D01*
X54848632Y-158758500D01*
X54848638Y-158758500D01*
X54848645Y-158758499D01*
X54848649Y-158758499D01*
X54909196Y-158751990D01*
X54909199Y-158751989D01*
X54909201Y-158751989D01*
X55046204Y-158700889D01*
X55163261Y-158613261D01*
X55240876Y-158509580D01*
X55250887Y-158496207D01*
X55250887Y-158496206D01*
X55250889Y-158496204D01*
X55301989Y-158359201D01*
X55302399Y-158355394D01*
X55308499Y-158298649D01*
X55308500Y-158298632D01*
X55308500Y-158101177D01*
X55328502Y-158033056D01*
X55382158Y-157986563D01*
X55452432Y-157976459D01*
X55460698Y-157977931D01*
X55604509Y-158008500D01*
X55604513Y-158008500D01*
X55795487Y-158008500D01*
X55835476Y-158000000D01*
X59886496Y-158000000D01*
X59906457Y-158189927D01*
X59934900Y-158277464D01*
X59965473Y-158371556D01*
X59975768Y-158389387D01*
X60060958Y-158536941D01*
X60060965Y-158536951D01*
X60188744Y-158678864D01*
X60188747Y-158678866D01*
X60343248Y-158791118D01*
X60517712Y-158868794D01*
X60661111Y-158899274D01*
X60723583Y-158933002D01*
X60757905Y-158995152D01*
X60754746Y-159061458D01*
X60706457Y-159210072D01*
X60686496Y-159400000D01*
X60706457Y-159589927D01*
X60723215Y-159641500D01*
X60765473Y-159771556D01*
X60765476Y-159771561D01*
X60860958Y-159936941D01*
X60860965Y-159936951D01*
X60988744Y-160078864D01*
X60988747Y-160078866D01*
X61143248Y-160191118D01*
X61317712Y-160268794D01*
X61504513Y-160308500D01*
X61695487Y-160308500D01*
X61882288Y-160268794D01*
X62056752Y-160191118D01*
X62211253Y-160078866D01*
X62265199Y-160018953D01*
X62339034Y-159936951D01*
X62339035Y-159936949D01*
X62339040Y-159936944D01*
X62434527Y-159771556D01*
X62493542Y-159589928D01*
X62513504Y-159400000D01*
X62493542Y-159210072D01*
X62434527Y-159028444D01*
X62339040Y-158863056D01*
X62339038Y-158863054D01*
X62339034Y-158863048D01*
X62211255Y-158721135D01*
X62056752Y-158608882D01*
X61882288Y-158531206D01*
X61882287Y-158531205D01*
X61882283Y-158531204D01*
X61738889Y-158500724D01*
X61676415Y-158466996D01*
X61642094Y-158404846D01*
X61645252Y-158338545D01*
X61693542Y-158189928D01*
X61705071Y-158080237D01*
X63395793Y-158080237D01*
X63425390Y-158399637D01*
X63425391Y-158399643D01*
X63425392Y-158399653D01*
X63491364Y-158700889D01*
X63494021Y-158713021D01*
X63600632Y-159015560D01*
X63600634Y-159015564D01*
X63743621Y-159302721D01*
X63743622Y-159302723D01*
X63920811Y-159570130D01*
X64129520Y-159813735D01*
X64129522Y-159813737D01*
X64224148Y-159900000D01*
X64366584Y-160029848D01*
X64628400Y-160215183D01*
X64628404Y-160215185D01*
X64628412Y-160215191D01*
X64911029Y-160366954D01*
X65210153Y-160482835D01*
X65521251Y-160561079D01*
X65839607Y-160600500D01*
X65839609Y-160600500D01*
X66080111Y-160600500D01*
X66080126Y-160600500D01*
X66320178Y-160585694D01*
X66635503Y-160526750D01*
X66941194Y-160429502D01*
X67232618Y-160295426D01*
X67505356Y-160126554D01*
X67569419Y-160075003D01*
X71143047Y-160075003D01*
X71162517Y-160272694D01*
X71162518Y-160272700D01*
X71162519Y-160272701D01*
X71220186Y-160462804D01*
X71313832Y-160638004D01*
X71439859Y-160791568D01*
X71593423Y-160917595D01*
X71768623Y-161011241D01*
X71958726Y-161068908D01*
X71958730Y-161068908D01*
X71958732Y-161068909D01*
X72156424Y-161088380D01*
X72156427Y-161088380D01*
X72156430Y-161088380D01*
X72354121Y-161068909D01*
X72354122Y-161068908D01*
X72354128Y-161068908D01*
X72544231Y-161011241D01*
X72719431Y-160917595D01*
X72872995Y-160791568D01*
X72999022Y-160638004D01*
X73092668Y-160462804D01*
X73150335Y-160272701D01*
X73156000Y-160215191D01*
X73157496Y-160200000D01*
X73586384Y-160200000D01*
X73606783Y-160381047D01*
X73606783Y-160381049D01*
X73606784Y-160381050D01*
X73666957Y-160553015D01*
X73666958Y-160553018D01*
X73763887Y-160707279D01*
X73763888Y-160707281D01*
X73892718Y-160836111D01*
X73892720Y-160836112D01*
X74046981Y-160933041D01*
X74046982Y-160933041D01*
X74046985Y-160933043D01*
X74218953Y-160993217D01*
X74400000Y-161013616D01*
X74581047Y-160993217D01*
X74753015Y-160933043D01*
X74753015Y-160933042D01*
X74758385Y-160931164D01*
X74829289Y-160927544D01*
X74841615Y-160931164D01*
X74846985Y-160933043D01*
X75018953Y-160993217D01*
X75200000Y-161013616D01*
X75381047Y-160993217D01*
X75553015Y-160933043D01*
X75696005Y-160843195D01*
X75764322Y-160823891D01*
X75822431Y-160838761D01*
X75912196Y-160886741D01*
X76102299Y-160944408D01*
X76102303Y-160944408D01*
X76102305Y-160944409D01*
X76299997Y-160963880D01*
X76300000Y-160963880D01*
X76300003Y-160963880D01*
X76497694Y-160944409D01*
X76497695Y-160944408D01*
X76497701Y-160944408D01*
X76687804Y-160886741D01*
X76863004Y-160793095D01*
X77016568Y-160667068D01*
X77142595Y-160513504D01*
X77236241Y-160338304D01*
X77293908Y-160148201D01*
X77296040Y-160126561D01*
X77308505Y-160000000D01*
X78386384Y-160000000D01*
X78406783Y-160181047D01*
X78406783Y-160181049D01*
X78406784Y-160181050D01*
X78466957Y-160353015D01*
X78466958Y-160353018D01*
X78563887Y-160507279D01*
X78563888Y-160507281D01*
X78692718Y-160636111D01*
X78692720Y-160636112D01*
X78846981Y-160733041D01*
X78846982Y-160733041D01*
X78846985Y-160733043D01*
X79018953Y-160793217D01*
X79200000Y-160813616D01*
X79381047Y-160793217D01*
X79553015Y-160733043D01*
X79632964Y-160682806D01*
X79701284Y-160663501D01*
X79767034Y-160682806D01*
X79846985Y-160733043D01*
X80018953Y-160793217D01*
X80200000Y-160813616D01*
X80381047Y-160793217D01*
X80553015Y-160733043D01*
X80707281Y-160636111D01*
X80836111Y-160507281D01*
X80933043Y-160353015D01*
X80993217Y-160181047D01*
X81013616Y-160000000D01*
X81286384Y-160000000D01*
X81306783Y-160181047D01*
X81306783Y-160181049D01*
X81306784Y-160181050D01*
X81366957Y-160353015D01*
X81366958Y-160353018D01*
X81463887Y-160507279D01*
X81463888Y-160507281D01*
X81592718Y-160636111D01*
X81592720Y-160636112D01*
X81746981Y-160733041D01*
X81746982Y-160733041D01*
X81746985Y-160733043D01*
X81918953Y-160793217D01*
X82100000Y-160813616D01*
X82281047Y-160793217D01*
X82453015Y-160733043D01*
X82573244Y-160657497D01*
X82641561Y-160638193D01*
X82681889Y-160645256D01*
X82818953Y-160693217D01*
X83000000Y-160713616D01*
X83181047Y-160693217D01*
X83353015Y-160633043D01*
X83507281Y-160536111D01*
X83636111Y-160407281D01*
X83733043Y-160253015D01*
X83793217Y-160081047D01*
X83813616Y-159900000D01*
X85986384Y-159900000D01*
X86006783Y-160081047D01*
X86006783Y-160081049D01*
X86006784Y-160081050D01*
X86066957Y-160253015D01*
X86066958Y-160253018D01*
X86163887Y-160407279D01*
X86163888Y-160407281D01*
X86292718Y-160536111D01*
X86292720Y-160536112D01*
X86446981Y-160633041D01*
X86446982Y-160633041D01*
X86446985Y-160633043D01*
X86618953Y-160693217D01*
X86800000Y-160713616D01*
X86981047Y-160693217D01*
X87053879Y-160667731D01*
X87124779Y-160664112D01*
X87162523Y-160679971D01*
X87246985Y-160733043D01*
X87418953Y-160793217D01*
X87600000Y-160813616D01*
X87781047Y-160793217D01*
X87953015Y-160733043D01*
X88107281Y-160636111D01*
X88236111Y-160507281D01*
X88333043Y-160353015D01*
X88393217Y-160181047D01*
X88413616Y-160000000D01*
X88402349Y-159900000D01*
X88886384Y-159900000D01*
X88906783Y-160081047D01*
X88906783Y-160081049D01*
X88906784Y-160081050D01*
X88966957Y-160253015D01*
X88966958Y-160253018D01*
X89063887Y-160407279D01*
X89063888Y-160407281D01*
X89192718Y-160536111D01*
X89192720Y-160536112D01*
X89346981Y-160633041D01*
X89346982Y-160633041D01*
X89346985Y-160633043D01*
X89518953Y-160693217D01*
X89700000Y-160713616D01*
X89881047Y-160693217D01*
X90053015Y-160633043D01*
X90082963Y-160614224D01*
X90151284Y-160594919D01*
X90217035Y-160614224D01*
X90246985Y-160633043D01*
X90418953Y-160693217D01*
X90600000Y-160713616D01*
X90781047Y-160693217D01*
X90953015Y-160633043D01*
X91107281Y-160536111D01*
X91236111Y-160407281D01*
X91333043Y-160253015D01*
X91393217Y-160081047D01*
X91413616Y-159900000D01*
X91393217Y-159718953D01*
X91333043Y-159546985D01*
X91333041Y-159546982D01*
X91333041Y-159546981D01*
X91236112Y-159392720D01*
X91236111Y-159392718D01*
X91107281Y-159263888D01*
X91107279Y-159263887D01*
X90953018Y-159166958D01*
X90953015Y-159166957D01*
X90781050Y-159106784D01*
X90781049Y-159106783D01*
X90781047Y-159106783D01*
X90600000Y-159086384D01*
X90418953Y-159106783D01*
X90418950Y-159106783D01*
X90418949Y-159106784D01*
X90246985Y-159166956D01*
X90246984Y-159166957D01*
X90217033Y-159185776D01*
X90148712Y-159205080D01*
X90082967Y-159185776D01*
X90053015Y-159166957D01*
X90053014Y-159166956D01*
X89881050Y-159106784D01*
X89881049Y-159106783D01*
X89881047Y-159106783D01*
X89700000Y-159086384D01*
X89518953Y-159106783D01*
X89518950Y-159106783D01*
X89518949Y-159106784D01*
X89346984Y-159166957D01*
X89346981Y-159166958D01*
X89192720Y-159263887D01*
X89192718Y-159263888D01*
X89063888Y-159392718D01*
X89063887Y-159392720D01*
X88966958Y-159546981D01*
X88966957Y-159546984D01*
X88915113Y-159695148D01*
X88906783Y-159718953D01*
X88886384Y-159900000D01*
X88402349Y-159900000D01*
X88393217Y-159818953D01*
X88333043Y-159646985D01*
X88333041Y-159646982D01*
X88333041Y-159646981D01*
X88236112Y-159492720D01*
X88236111Y-159492718D01*
X88107281Y-159363888D01*
X88107279Y-159363887D01*
X87953018Y-159266958D01*
X87953015Y-159266957D01*
X87781050Y-159206784D01*
X87781049Y-159206783D01*
X87781047Y-159206783D01*
X87600000Y-159186384D01*
X87599999Y-159186384D01*
X87418955Y-159206782D01*
X87418953Y-159206782D01*
X87346121Y-159232267D01*
X87275216Y-159235885D01*
X87237471Y-159220024D01*
X87153017Y-159166958D01*
X87153015Y-159166957D01*
X86981050Y-159106784D01*
X86981049Y-159106783D01*
X86981047Y-159106783D01*
X86800000Y-159086384D01*
X86618953Y-159106783D01*
X86618950Y-159106783D01*
X86618949Y-159106784D01*
X86446984Y-159166957D01*
X86446981Y-159166958D01*
X86292720Y-159263887D01*
X86292718Y-159263888D01*
X86163888Y-159392718D01*
X86163887Y-159392720D01*
X86066958Y-159546981D01*
X86066957Y-159546984D01*
X86015113Y-159695148D01*
X86006783Y-159718953D01*
X85986384Y-159900000D01*
X83813616Y-159900000D01*
X83793217Y-159718953D01*
X83733043Y-159546985D01*
X83733041Y-159546982D01*
X83733041Y-159546981D01*
X83636112Y-159392720D01*
X83636111Y-159392718D01*
X83507281Y-159263888D01*
X83507279Y-159263887D01*
X83353018Y-159166958D01*
X83353015Y-159166957D01*
X83181050Y-159106784D01*
X83181049Y-159106783D01*
X83181047Y-159106783D01*
X83000000Y-159086384D01*
X82818953Y-159106783D01*
X82818950Y-159106783D01*
X82818949Y-159106784D01*
X82646984Y-159166957D01*
X82646982Y-159166958D01*
X82526758Y-159242500D01*
X82458437Y-159261806D01*
X82418107Y-159254742D01*
X82281050Y-159206784D01*
X82281049Y-159206783D01*
X82281047Y-159206783D01*
X82100000Y-159186384D01*
X81918953Y-159206783D01*
X81918950Y-159206783D01*
X81918949Y-159206784D01*
X81746984Y-159266957D01*
X81746981Y-159266958D01*
X81592720Y-159363887D01*
X81592718Y-159363888D01*
X81463888Y-159492718D01*
X81463887Y-159492720D01*
X81366958Y-159646981D01*
X81366957Y-159646984D01*
X81308609Y-159813736D01*
X81306783Y-159818953D01*
X81286384Y-160000000D01*
X81013616Y-160000000D01*
X80993217Y-159818953D01*
X80933043Y-159646985D01*
X80933041Y-159646982D01*
X80933041Y-159646981D01*
X80836112Y-159492720D01*
X80836111Y-159492718D01*
X80707281Y-159363888D01*
X80707279Y-159363887D01*
X80553018Y-159266958D01*
X80553015Y-159266957D01*
X80381050Y-159206784D01*
X80381049Y-159206783D01*
X80381047Y-159206783D01*
X80200000Y-159186384D01*
X80018953Y-159206783D01*
X80018950Y-159206783D01*
X80018949Y-159206784D01*
X79846984Y-159266957D01*
X79846982Y-159266958D01*
X79767036Y-159317192D01*
X79698715Y-159336498D01*
X79632964Y-159317192D01*
X79553017Y-159266958D01*
X79553015Y-159266957D01*
X79381050Y-159206784D01*
X79381049Y-159206783D01*
X79381047Y-159206783D01*
X79200000Y-159186384D01*
X79018953Y-159206783D01*
X79018950Y-159206783D01*
X79018949Y-159206784D01*
X78846984Y-159266957D01*
X78846981Y-159266958D01*
X78692720Y-159363887D01*
X78692718Y-159363888D01*
X78563888Y-159492718D01*
X78563887Y-159492720D01*
X78466958Y-159646981D01*
X78466957Y-159646984D01*
X78408609Y-159813736D01*
X78406783Y-159818953D01*
X78386384Y-160000000D01*
X77308505Y-160000000D01*
X77313380Y-159950503D01*
X77313380Y-159950496D01*
X77293909Y-159752805D01*
X77293908Y-159752803D01*
X77293908Y-159752799D01*
X77236241Y-159562696D01*
X77142595Y-159387496D01*
X77016568Y-159233932D01*
X76863004Y-159107905D01*
X76687804Y-159014259D01*
X76497701Y-158956592D01*
X76497700Y-158956591D01*
X76497694Y-158956590D01*
X76300003Y-158937120D01*
X76299997Y-158937120D01*
X76102305Y-158956590D01*
X75912195Y-159014259D01*
X75736995Y-159107905D01*
X75583431Y-159233932D01*
X75479901Y-159360083D01*
X75421223Y-159400052D01*
X75368395Y-159405357D01*
X75200000Y-159386384D01*
X75018952Y-159406783D01*
X74841614Y-159468836D01*
X74770710Y-159472454D01*
X74758386Y-159468836D01*
X74581047Y-159406783D01*
X74400000Y-159386384D01*
X74218953Y-159406783D01*
X74218950Y-159406783D01*
X74218949Y-159406784D01*
X74046984Y-159466957D01*
X74046981Y-159466958D01*
X73892720Y-159563887D01*
X73892718Y-159563888D01*
X73763888Y-159692718D01*
X73763887Y-159692720D01*
X73666958Y-159846981D01*
X73666957Y-159846984D01*
X73609642Y-160010783D01*
X73606783Y-160018953D01*
X73586384Y-160200000D01*
X73157496Y-160200000D01*
X73169807Y-160075003D01*
X73169807Y-160074996D01*
X73150336Y-159877305D01*
X73150335Y-159877303D01*
X73150335Y-159877299D01*
X73092668Y-159687196D01*
X72999022Y-159511996D01*
X72872995Y-159358432D01*
X72719431Y-159232405D01*
X72544231Y-159138759D01*
X72354128Y-159081092D01*
X72354127Y-159081091D01*
X72354121Y-159081090D01*
X72156430Y-159061620D01*
X72156424Y-159061620D01*
X71958732Y-159081090D01*
X71768622Y-159138759D01*
X71593422Y-159232405D01*
X71439859Y-159358432D01*
X71313832Y-159511995D01*
X71220186Y-159687195D01*
X71162517Y-159877305D01*
X71143047Y-160074996D01*
X71143047Y-160075003D01*
X67569419Y-160075003D01*
X67755275Y-159925445D01*
X67978585Y-159695148D01*
X68171903Y-159439155D01*
X68332296Y-159161345D01*
X68457334Y-158865931D01*
X68545122Y-158557390D01*
X68594328Y-158240400D01*
X68594457Y-158236241D01*
X68603182Y-157953015D01*
X68604206Y-157919765D01*
X68603049Y-157907281D01*
X68583842Y-157700000D01*
X71386384Y-157700000D01*
X71406783Y-157881047D01*
X71406783Y-157881049D01*
X71406784Y-157881050D01*
X71466957Y-158053015D01*
X71466958Y-158053018D01*
X71563887Y-158207279D01*
X71563888Y-158207281D01*
X71692718Y-158336111D01*
X71692720Y-158336112D01*
X71846981Y-158433041D01*
X71846982Y-158433041D01*
X71846985Y-158433043D01*
X72018953Y-158493217D01*
X72200000Y-158513616D01*
X72381047Y-158493217D01*
X72553015Y-158433043D01*
X72707281Y-158336111D01*
X72836111Y-158207281D01*
X72839751Y-158201488D01*
X74080160Y-158201488D01*
X74100559Y-158382535D01*
X74100559Y-158382537D01*
X74100560Y-158382538D01*
X74160733Y-158554503D01*
X74160734Y-158554506D01*
X74257663Y-158708767D01*
X74257664Y-158708769D01*
X74386494Y-158837599D01*
X74386496Y-158837600D01*
X74540757Y-158934529D01*
X74540758Y-158934529D01*
X74540761Y-158934531D01*
X74712729Y-158994705D01*
X74893776Y-159015104D01*
X75074823Y-158994705D01*
X75246791Y-158934531D01*
X75401057Y-158837599D01*
X75529887Y-158708769D01*
X75626819Y-158554503D01*
X75686993Y-158382535D01*
X75707392Y-158201488D01*
X75686993Y-158020441D01*
X75626819Y-157848473D01*
X75626817Y-157848470D01*
X75626817Y-157848469D01*
X75529888Y-157694208D01*
X75529887Y-157694206D01*
X75401057Y-157565376D01*
X75401055Y-157565375D01*
X75297012Y-157500000D01*
X78486384Y-157500000D01*
X78506783Y-157681047D01*
X78506783Y-157681049D01*
X78506784Y-157681050D01*
X78566957Y-157853015D01*
X78566958Y-157853018D01*
X78663887Y-158007279D01*
X78663888Y-158007281D01*
X78792718Y-158136111D01*
X78792720Y-158136112D01*
X78946981Y-158233041D01*
X78946982Y-158233041D01*
X78946985Y-158233043D01*
X79118953Y-158293217D01*
X79300000Y-158313616D01*
X79481047Y-158293217D01*
X79593857Y-158253743D01*
X79618107Y-158245258D01*
X79689011Y-158241639D01*
X79726758Y-158257500D01*
X79816067Y-158313616D01*
X79846985Y-158333043D01*
X80018953Y-158393217D01*
X80200000Y-158413616D01*
X80381047Y-158393217D01*
X80553015Y-158333043D01*
X80707281Y-158236111D01*
X80836111Y-158107281D01*
X80933043Y-157953015D01*
X80993217Y-157781047D01*
X81013616Y-157600000D01*
X81002349Y-157500000D01*
X81686384Y-157500000D01*
X81706783Y-157681047D01*
X81706783Y-157681049D01*
X81706784Y-157681050D01*
X81766957Y-157853015D01*
X81766958Y-157853018D01*
X81863887Y-158007279D01*
X81863888Y-158007281D01*
X81992718Y-158136111D01*
X81992720Y-158136112D01*
X82146981Y-158233041D01*
X82146982Y-158233041D01*
X82146985Y-158233043D01*
X82318953Y-158293217D01*
X82500000Y-158313616D01*
X82681047Y-158293217D01*
X82853015Y-158233043D01*
X82894018Y-158207279D01*
X82912043Y-158195953D01*
X82980363Y-158176646D01*
X83046116Y-158195952D01*
X83070577Y-158211321D01*
X83077025Y-158215373D01*
X83248993Y-158275547D01*
X83430040Y-158295946D01*
X83594069Y-158277464D01*
X83663999Y-158289713D01*
X83692258Y-158309982D01*
X83692391Y-158309817D01*
X83695635Y-158312404D01*
X83697270Y-158313577D01*
X83697918Y-158314225D01*
X83697920Y-158314226D01*
X83852181Y-158411155D01*
X83852182Y-158411155D01*
X83852185Y-158411157D01*
X84024153Y-158471331D01*
X84205200Y-158491730D01*
X84386247Y-158471331D01*
X84558215Y-158411157D01*
X84712481Y-158314225D01*
X84841311Y-158185395D01*
X84938243Y-158031129D01*
X84998417Y-157859161D01*
X85011063Y-157746917D01*
X85038565Y-157681469D01*
X85097089Y-157641276D01*
X85168052Y-157639103D01*
X85228925Y-157675641D01*
X85255199Y-157719413D01*
X85266958Y-157753017D01*
X85266958Y-157753018D01*
X85363887Y-157907279D01*
X85363888Y-157907281D01*
X85492718Y-158036111D01*
X85492720Y-158036112D01*
X85646981Y-158133041D01*
X85646982Y-158133041D01*
X85646985Y-158133043D01*
X85818953Y-158193217D01*
X86000000Y-158213616D01*
X86181047Y-158193217D01*
X86353015Y-158133043D01*
X86474673Y-158056599D01*
X86542990Y-158037295D01*
X86610903Y-158057990D01*
X86630796Y-158074188D01*
X86663887Y-158107279D01*
X86692721Y-158136113D01*
X86846981Y-158233041D01*
X86846982Y-158233041D01*
X86846985Y-158233043D01*
X87018953Y-158293217D01*
X87200000Y-158313616D01*
X87381047Y-158293217D01*
X87553015Y-158233043D01*
X87707281Y-158136111D01*
X87836111Y-158007281D01*
X87933043Y-157853015D01*
X87993217Y-157681047D01*
X88013616Y-157500000D01*
X88886384Y-157500000D01*
X88906783Y-157681047D01*
X88906783Y-157681049D01*
X88906784Y-157681050D01*
X88966957Y-157853015D01*
X88966958Y-157853018D01*
X89063887Y-158007279D01*
X89063888Y-158007281D01*
X89192718Y-158136111D01*
X89192720Y-158136112D01*
X89346981Y-158233041D01*
X89346982Y-158233041D01*
X89346985Y-158233043D01*
X89518953Y-158293217D01*
X89700000Y-158313616D01*
X89881047Y-158293217D01*
X90053015Y-158233043D01*
X90054120Y-158232348D01*
X90054938Y-158232117D01*
X90059395Y-158229971D01*
X90059770Y-158230750D01*
X90122436Y-158213032D01*
X90187836Y-158232951D01*
X90188216Y-158232347D01*
X90348470Y-158333041D01*
X90348471Y-158333041D01*
X90348474Y-158333043D01*
X90520442Y-158393217D01*
X90701489Y-158413616D01*
X90882536Y-158393217D01*
X91054504Y-158333043D01*
X91208770Y-158236111D01*
X91337600Y-158107281D01*
X91434532Y-157953015D01*
X91494706Y-157781047D01*
X91506823Y-157673500D01*
X91534325Y-157608051D01*
X91592849Y-157567858D01*
X91663812Y-157565685D01*
X91724685Y-157602223D01*
X91752604Y-157651034D01*
X91763757Y-157687801D01*
X91763758Y-157687803D01*
X91849638Y-157848473D01*
X91857405Y-157863004D01*
X91983432Y-158016568D01*
X92136996Y-158142595D01*
X92312196Y-158236241D01*
X92502299Y-158293908D01*
X92502303Y-158293908D01*
X92502305Y-158293909D01*
X92613404Y-158304851D01*
X92679236Y-158331433D01*
X92720246Y-158389387D01*
X92723413Y-158460313D01*
X92719984Y-158471858D01*
X92706783Y-158509583D01*
X92686384Y-158690632D01*
X92694749Y-158764883D01*
X92682499Y-158834815D01*
X92649475Y-158876388D01*
X92533357Y-158971684D01*
X92407330Y-159125248D01*
X92313684Y-159300448D01*
X92256015Y-159490558D01*
X92236545Y-159688249D01*
X92236545Y-159688256D01*
X92256015Y-159885947D01*
X92256016Y-159885953D01*
X92256017Y-159885954D01*
X92313684Y-160076057D01*
X92407330Y-160251257D01*
X92533357Y-160404821D01*
X92686921Y-160530848D01*
X92862121Y-160624494D01*
X93052224Y-160682161D01*
X93052228Y-160682161D01*
X93052230Y-160682162D01*
X93249922Y-160701633D01*
X93249925Y-160701633D01*
X93249928Y-160701633D01*
X93447619Y-160682162D01*
X93447620Y-160682161D01*
X93447626Y-160682161D01*
X93637729Y-160624494D01*
X93812929Y-160530848D01*
X93966493Y-160404821D01*
X94092520Y-160251257D01*
X94186166Y-160076057D01*
X94243833Y-159885954D01*
X94244686Y-159877299D01*
X94263305Y-159688256D01*
X94263305Y-159688249D01*
X94243834Y-159490558D01*
X94243833Y-159490556D01*
X94243833Y-159490552D01*
X94186166Y-159300449D01*
X94168020Y-159266501D01*
X94153549Y-159196996D01*
X94172456Y-159140070D01*
X94221749Y-159061620D01*
X94233043Y-159043646D01*
X94293217Y-158871678D01*
X94307693Y-158743201D01*
X96915392Y-158743201D01*
X96934862Y-158940892D01*
X96934863Y-158940898D01*
X96934864Y-158940899D01*
X96992531Y-159131002D01*
X97086177Y-159306202D01*
X97212204Y-159459766D01*
X97365768Y-159585793D01*
X97540968Y-159679439D01*
X97731071Y-159737106D01*
X97731075Y-159737106D01*
X97731077Y-159737107D01*
X97928769Y-159756578D01*
X97928772Y-159756578D01*
X97928775Y-159756578D01*
X98126466Y-159737107D01*
X98126467Y-159737106D01*
X98126473Y-159737106D01*
X98316576Y-159679439D01*
X98491776Y-159585793D01*
X98645340Y-159459766D01*
X98771367Y-159306202D01*
X98865013Y-159131002D01*
X98922680Y-158940899D01*
X98923053Y-158937120D01*
X98936558Y-158800000D01*
X106686388Y-158800000D01*
X106706787Y-158981047D01*
X106706787Y-158981049D01*
X106706788Y-158981050D01*
X106766961Y-159153015D01*
X106766962Y-159153018D01*
X106863891Y-159307279D01*
X106863892Y-159307281D01*
X106992722Y-159436111D01*
X106992724Y-159436112D01*
X107146985Y-159533041D01*
X107146986Y-159533041D01*
X107146989Y-159533043D01*
X107318957Y-159593217D01*
X107500004Y-159613616D01*
X107681051Y-159593217D01*
X107853019Y-159533043D01*
X108007285Y-159436111D01*
X108010903Y-159432492D01*
X108073212Y-159398465D01*
X108144028Y-159403526D01*
X108189100Y-159432492D01*
X108192719Y-159436111D01*
X108192721Y-159436112D01*
X108192723Y-159436114D01*
X108346981Y-159533041D01*
X108346982Y-159533041D01*
X108346985Y-159533043D01*
X108518953Y-159593217D01*
X108700000Y-159613616D01*
X108881047Y-159593217D01*
X109053015Y-159533043D01*
X109207281Y-159436111D01*
X109336111Y-159307281D01*
X109433043Y-159153015D01*
X109493217Y-158981047D01*
X109513616Y-158800000D01*
X113586384Y-158800000D01*
X113606783Y-158981047D01*
X113606783Y-158981049D01*
X113606784Y-158981050D01*
X113666957Y-159153015D01*
X113666958Y-159153018D01*
X113763887Y-159307279D01*
X113763888Y-159307281D01*
X113892718Y-159436111D01*
X113892720Y-159436112D01*
X114046981Y-159533041D01*
X114046982Y-159533041D01*
X114046985Y-159533043D01*
X114218953Y-159593217D01*
X114400000Y-159613616D01*
X114581047Y-159593217D01*
X114753015Y-159533043D01*
X114907281Y-159436111D01*
X115036111Y-159307281D01*
X115036113Y-159307279D01*
X115043312Y-159295822D01*
X115096489Y-159248783D01*
X115166656Y-159237962D01*
X115231535Y-159266793D01*
X115256688Y-159295822D01*
X115263886Y-159307279D01*
X115392718Y-159436111D01*
X115392720Y-159436112D01*
X115546981Y-159533041D01*
X115546982Y-159533041D01*
X115546985Y-159533043D01*
X115718953Y-159593217D01*
X115900000Y-159613616D01*
X116081047Y-159593217D01*
X116253015Y-159533043D01*
X116407281Y-159436111D01*
X116536111Y-159307281D01*
X116633043Y-159153015D01*
X116693217Y-158981047D01*
X116713616Y-158800000D01*
X116693217Y-158618953D01*
X116633043Y-158446985D01*
X116633041Y-158446982D01*
X116633041Y-158446981D01*
X116614311Y-158417173D01*
X118357790Y-158417173D01*
X118377260Y-158614864D01*
X118377261Y-158614870D01*
X118377262Y-158614871D01*
X118434929Y-158804974D01*
X118528575Y-158980174D01*
X118654602Y-159133738D01*
X118808166Y-159259765D01*
X118983366Y-159353411D01*
X119173469Y-159411078D01*
X119173473Y-159411078D01*
X119173475Y-159411079D01*
X119371167Y-159430550D01*
X119371170Y-159430550D01*
X119371173Y-159430550D01*
X119568864Y-159411079D01*
X119568865Y-159411078D01*
X119568871Y-159411078D01*
X119758974Y-159353411D01*
X119934174Y-159259765D01*
X120087738Y-159133738D01*
X120213765Y-158980174D01*
X120307411Y-158804974D01*
X120365078Y-158614871D01*
X120370740Y-158557390D01*
X120384550Y-158417173D01*
X120384550Y-158417166D01*
X120365079Y-158219475D01*
X120365078Y-158219473D01*
X120365078Y-158219469D01*
X120307411Y-158029366D01*
X120213765Y-157854166D01*
X120087738Y-157700602D01*
X119934174Y-157574575D01*
X119758974Y-157480929D01*
X119568871Y-157423262D01*
X119568870Y-157423261D01*
X119568864Y-157423260D01*
X119371173Y-157403790D01*
X119371167Y-157403790D01*
X119173475Y-157423260D01*
X118983365Y-157480929D01*
X118808165Y-157574575D01*
X118654602Y-157700602D01*
X118528575Y-157854165D01*
X118434929Y-158029365D01*
X118377260Y-158219475D01*
X118357790Y-158417166D01*
X118357790Y-158417173D01*
X116614311Y-158417173D01*
X116536112Y-158292720D01*
X116536111Y-158292718D01*
X116407281Y-158163888D01*
X116407279Y-158163887D01*
X116253018Y-158066958D01*
X116253015Y-158066957D01*
X116081050Y-158006784D01*
X116081049Y-158006783D01*
X116081047Y-158006783D01*
X115900000Y-157986384D01*
X115718953Y-158006783D01*
X115718950Y-158006783D01*
X115718949Y-158006784D01*
X115546984Y-158066957D01*
X115546981Y-158066958D01*
X115392720Y-158163887D01*
X115392718Y-158163888D01*
X115263889Y-158292717D01*
X115256687Y-158304180D01*
X115203508Y-158351217D01*
X115133340Y-158362037D01*
X115068462Y-158333203D01*
X115043313Y-158304180D01*
X115036110Y-158292717D01*
X114907281Y-158163888D01*
X114907279Y-158163887D01*
X114753018Y-158066958D01*
X114753015Y-158066957D01*
X114581050Y-158006784D01*
X114581049Y-158006783D01*
X114581047Y-158006783D01*
X114400000Y-157986384D01*
X114218953Y-158006783D01*
X114218950Y-158006783D01*
X114218949Y-158006784D01*
X114046984Y-158066957D01*
X114046981Y-158066958D01*
X113892720Y-158163887D01*
X113892718Y-158163888D01*
X113763888Y-158292718D01*
X113763887Y-158292720D01*
X113666958Y-158446981D01*
X113666957Y-158446984D01*
X113608214Y-158614864D01*
X113606783Y-158618953D01*
X113586384Y-158800000D01*
X109513616Y-158800000D01*
X109493217Y-158618953D01*
X109433043Y-158446985D01*
X109433041Y-158446982D01*
X109433041Y-158446981D01*
X109336112Y-158292720D01*
X109336111Y-158292718D01*
X109207281Y-158163888D01*
X109207279Y-158163887D01*
X109053018Y-158066958D01*
X109053015Y-158066957D01*
X108881050Y-158006784D01*
X108881049Y-158006783D01*
X108881047Y-158006783D01*
X108700000Y-157986384D01*
X108518953Y-158006783D01*
X108518950Y-158006783D01*
X108518949Y-158006784D01*
X108346984Y-158066957D01*
X108346981Y-158066958D01*
X108192720Y-158163887D01*
X108192718Y-158163888D01*
X108189097Y-158167510D01*
X108126785Y-158201536D01*
X108055970Y-158196471D01*
X108010907Y-158167510D01*
X108007285Y-158163888D01*
X108007283Y-158163887D01*
X107853022Y-158066958D01*
X107853019Y-158066957D01*
X107681054Y-158006784D01*
X107681053Y-158006783D01*
X107681051Y-158006783D01*
X107500004Y-157986384D01*
X107318957Y-158006783D01*
X107318954Y-158006783D01*
X107318953Y-158006784D01*
X107146988Y-158066957D01*
X107146985Y-158066958D01*
X106992724Y-158163887D01*
X106992722Y-158163888D01*
X106863892Y-158292718D01*
X106863891Y-158292720D01*
X106766962Y-158446981D01*
X106766961Y-158446984D01*
X106708218Y-158614864D01*
X106706787Y-158618953D01*
X106686388Y-158800000D01*
X98936558Y-158800000D01*
X98942152Y-158743201D01*
X98942152Y-158743194D01*
X98922681Y-158545503D01*
X98922680Y-158545501D01*
X98922680Y-158545497D01*
X98865013Y-158355394D01*
X98771367Y-158180194D01*
X98645340Y-158026630D01*
X98491776Y-157900603D01*
X98316576Y-157806957D01*
X98126473Y-157749290D01*
X98126472Y-157749289D01*
X98126466Y-157749288D01*
X97928775Y-157729818D01*
X97928769Y-157729818D01*
X97731077Y-157749288D01*
X97540967Y-157806957D01*
X97365767Y-157900603D01*
X97212204Y-158026630D01*
X97086177Y-158180193D01*
X96992531Y-158355393D01*
X96934862Y-158545503D01*
X96915392Y-158743194D01*
X96915392Y-158743201D01*
X94307693Y-158743201D01*
X94313616Y-158690631D01*
X94293217Y-158509584D01*
X94233043Y-158337616D01*
X94233041Y-158337613D01*
X94233041Y-158337612D01*
X94136112Y-158183351D01*
X94136111Y-158183349D01*
X94007281Y-158054519D01*
X94007279Y-158054518D01*
X93853018Y-157957589D01*
X93853015Y-157957588D01*
X93746077Y-157920169D01*
X93687767Y-157899765D01*
X93630076Y-157858388D01*
X93603914Y-157792388D01*
X93617587Y-157722720D01*
X93618207Y-157721542D01*
X93636241Y-157687804D01*
X93693908Y-157497701D01*
X93693971Y-157497067D01*
X93703116Y-157404212D01*
X93729698Y-157338379D01*
X93787652Y-157297369D01*
X93858578Y-157294201D01*
X93908442Y-157319161D01*
X93936996Y-157342595D01*
X94112196Y-157436241D01*
X94302299Y-157493908D01*
X94302303Y-157493908D01*
X94302305Y-157493909D01*
X94499997Y-157513380D01*
X94500000Y-157513380D01*
X94500003Y-157513380D01*
X94697694Y-157493909D01*
X94697695Y-157493908D01*
X94697701Y-157493908D01*
X94887804Y-157436241D01*
X95063004Y-157342595D01*
X95216568Y-157216568D01*
X95342595Y-157063004D01*
X95436241Y-156887804D01*
X95493908Y-156697701D01*
X95494489Y-156691810D01*
X95513380Y-156500003D01*
X95513380Y-156499996D01*
X95493909Y-156302305D01*
X95493908Y-156302303D01*
X95493908Y-156302299D01*
X95436241Y-156112196D01*
X95342595Y-155936996D01*
X95216568Y-155783432D01*
X95063004Y-155657405D01*
X94887804Y-155563759D01*
X94697701Y-155506092D01*
X94697700Y-155506091D01*
X94697694Y-155506090D01*
X94500003Y-155486620D01*
X94499997Y-155486620D01*
X94302305Y-155506090D01*
X94112195Y-155563759D01*
X93936995Y-155657405D01*
X93783432Y-155783432D01*
X93657405Y-155936995D01*
X93563759Y-156112195D01*
X93506090Y-156302305D01*
X93496883Y-156395789D01*
X93470300Y-156461621D01*
X93412346Y-156502630D01*
X93341420Y-156505797D01*
X93291556Y-156480837D01*
X93263004Y-156457405D01*
X93087804Y-156363759D01*
X92999430Y-156336951D01*
X92897701Y-156306092D01*
X92897700Y-156306091D01*
X92897694Y-156306090D01*
X92700003Y-156286620D01*
X92699997Y-156286620D01*
X92502305Y-156306090D01*
X92312195Y-156363759D01*
X92136995Y-156457405D01*
X91983432Y-156583432D01*
X91857405Y-156736995D01*
X91763759Y-156912195D01*
X91706090Y-157102305D01*
X91691237Y-157253111D01*
X91664654Y-157318943D01*
X91606700Y-157359952D01*
X91535774Y-157363119D01*
X91474395Y-157327438D01*
X91446916Y-157282378D01*
X91434532Y-157246985D01*
X91416918Y-157218953D01*
X91337601Y-157092720D01*
X91337600Y-157092718D01*
X91208770Y-156963888D01*
X91208768Y-156963887D01*
X91054507Y-156866958D01*
X91054504Y-156866957D01*
X90882539Y-156806784D01*
X90882538Y-156806783D01*
X90882536Y-156806783D01*
X90701489Y-156786384D01*
X90520442Y-156806783D01*
X90520439Y-156806783D01*
X90520438Y-156806784D01*
X90348474Y-156866956D01*
X90348469Y-156866959D01*
X90347346Y-156867665D01*
X90346518Y-156867898D01*
X90342099Y-156870027D01*
X90341726Y-156869252D01*
X90279023Y-156886966D01*
X90213657Y-156867040D01*
X90213273Y-156867653D01*
X90053018Y-156766958D01*
X90053015Y-156766957D01*
X89881050Y-156706784D01*
X89881049Y-156706783D01*
X89881047Y-156706783D01*
X89700000Y-156686384D01*
X89518953Y-156706783D01*
X89518950Y-156706783D01*
X89518949Y-156706784D01*
X89346984Y-156766957D01*
X89346981Y-156766958D01*
X89192719Y-156863887D01*
X89063888Y-156992718D01*
X89063887Y-156992720D01*
X88966958Y-157146981D01*
X88966957Y-157146984D01*
X88914336Y-157297369D01*
X88906783Y-157318953D01*
X88886384Y-157500000D01*
X88013616Y-157500000D01*
X87993217Y-157318953D01*
X87933043Y-157146985D01*
X87933041Y-157146982D01*
X87933041Y-157146981D01*
X87836112Y-156992720D01*
X87836111Y-156992718D01*
X87707280Y-156863887D01*
X87553018Y-156766958D01*
X87553015Y-156766957D01*
X87381050Y-156706784D01*
X87381049Y-156706783D01*
X87381047Y-156706783D01*
X87200000Y-156686384D01*
X87018953Y-156706783D01*
X87018950Y-156706783D01*
X87018949Y-156706784D01*
X86846984Y-156766957D01*
X86725328Y-156843398D01*
X86657007Y-156862703D01*
X86589094Y-156842007D01*
X86569198Y-156825805D01*
X86507280Y-156763887D01*
X86353018Y-156666958D01*
X86353015Y-156666957D01*
X86181050Y-156606784D01*
X86181049Y-156606783D01*
X86181047Y-156606783D01*
X86000000Y-156586384D01*
X85818953Y-156606783D01*
X85818950Y-156606783D01*
X85818949Y-156606784D01*
X85646984Y-156666957D01*
X85646981Y-156666958D01*
X85492719Y-156763887D01*
X85363888Y-156892718D01*
X85363887Y-156892720D01*
X85266958Y-157046981D01*
X85266957Y-157046984D01*
X85206784Y-157218950D01*
X85206783Y-157218953D01*
X85194560Y-157327438D01*
X85194137Y-157331192D01*
X85166633Y-157396645D01*
X85108109Y-157436838D01*
X85037146Y-157439009D01*
X84976273Y-157402471D01*
X84950001Y-157358703D01*
X84938243Y-157325099D01*
X84938240Y-157325095D01*
X84938240Y-157325093D01*
X84841312Y-157170834D01*
X84841311Y-157170832D01*
X84712481Y-157042002D01*
X84712479Y-157042001D01*
X84558218Y-156945072D01*
X84558215Y-156945071D01*
X84386250Y-156884898D01*
X84386249Y-156884897D01*
X84386247Y-156884897D01*
X84205200Y-156864498D01*
X84205199Y-156864498D01*
X84041171Y-156882979D01*
X83971239Y-156870729D01*
X83942981Y-156850461D01*
X83942849Y-156850627D01*
X83939600Y-156848036D01*
X83937969Y-156846866D01*
X83937321Y-156846218D01*
X83937319Y-156846217D01*
X83783058Y-156749288D01*
X83783055Y-156749287D01*
X83611090Y-156689114D01*
X83611089Y-156689113D01*
X83611087Y-156689113D01*
X83430040Y-156668714D01*
X83248993Y-156689113D01*
X83248990Y-156689113D01*
X83248989Y-156689114D01*
X83077026Y-156749286D01*
X83017994Y-156786378D01*
X82949672Y-156805683D01*
X82883925Y-156786378D01*
X82853017Y-156766958D01*
X82853014Y-156766956D01*
X82681050Y-156706784D01*
X82681049Y-156706783D01*
X82681047Y-156706783D01*
X82500000Y-156686384D01*
X82318953Y-156706783D01*
X82318950Y-156706783D01*
X82318949Y-156706784D01*
X82146984Y-156766957D01*
X82146981Y-156766958D01*
X81992719Y-156863887D01*
X81863888Y-156992718D01*
X81863887Y-156992720D01*
X81766958Y-157146981D01*
X81766957Y-157146984D01*
X81714336Y-157297369D01*
X81706783Y-157318953D01*
X81686384Y-157500000D01*
X81002349Y-157500000D01*
X80993217Y-157418953D01*
X80933043Y-157246985D01*
X80933041Y-157246982D01*
X80933041Y-157246981D01*
X80836112Y-157092720D01*
X80836111Y-157092718D01*
X80707281Y-156963888D01*
X80707279Y-156963887D01*
X80553018Y-156866958D01*
X80553015Y-156866957D01*
X80381050Y-156806784D01*
X80381049Y-156806783D01*
X80381047Y-156806783D01*
X80200000Y-156786384D01*
X80018953Y-156806783D01*
X80018950Y-156806783D01*
X80018949Y-156806784D01*
X79881893Y-156854742D01*
X79810989Y-156858361D01*
X79773242Y-156842500D01*
X79653017Y-156766958D01*
X79653015Y-156766957D01*
X79481050Y-156706784D01*
X79481049Y-156706783D01*
X79481047Y-156706783D01*
X79300000Y-156686384D01*
X79118953Y-156706783D01*
X79118950Y-156706783D01*
X79118949Y-156706784D01*
X78946984Y-156766957D01*
X78946981Y-156766958D01*
X78792719Y-156863887D01*
X78663888Y-156992718D01*
X78663887Y-156992720D01*
X78566958Y-157146981D01*
X78566957Y-157146984D01*
X78514336Y-157297369D01*
X78506783Y-157318953D01*
X78486384Y-157500000D01*
X75297012Y-157500000D01*
X75246794Y-157468446D01*
X75246791Y-157468445D01*
X75074826Y-157408272D01*
X75074825Y-157408271D01*
X75074823Y-157408271D01*
X74893776Y-157387872D01*
X74712729Y-157408271D01*
X74712726Y-157408271D01*
X74712725Y-157408272D01*
X74540760Y-157468445D01*
X74540757Y-157468446D01*
X74386496Y-157565375D01*
X74386494Y-157565376D01*
X74257664Y-157694206D01*
X74257663Y-157694208D01*
X74160734Y-157848469D01*
X74160733Y-157848472D01*
X74101915Y-158016567D01*
X74100559Y-158020441D01*
X74080160Y-158201488D01*
X72839751Y-158201488D01*
X72933043Y-158053015D01*
X72993217Y-157881047D01*
X73013616Y-157700000D01*
X72993217Y-157518953D01*
X72933043Y-157346985D01*
X72933041Y-157346982D01*
X72933041Y-157346981D01*
X72836112Y-157192720D01*
X72836111Y-157192718D01*
X72707281Y-157063888D01*
X72707279Y-157063887D01*
X72553018Y-156966958D01*
X72553015Y-156966957D01*
X72381050Y-156906784D01*
X72381049Y-156906783D01*
X72381047Y-156906783D01*
X72200000Y-156886384D01*
X72018953Y-156906783D01*
X72018950Y-156906783D01*
X72018949Y-156906784D01*
X71846984Y-156966957D01*
X71846981Y-156966958D01*
X71692720Y-157063887D01*
X71692718Y-157063888D01*
X71563888Y-157192718D01*
X71563887Y-157192720D01*
X71466958Y-157346981D01*
X71466957Y-157346984D01*
X71415547Y-157493908D01*
X71406783Y-157518953D01*
X71386384Y-157700000D01*
X68583842Y-157700000D01*
X68579305Y-157651034D01*
X68574608Y-157600347D01*
X68505981Y-157286987D01*
X68504355Y-157282374D01*
X68419652Y-157042003D01*
X68399366Y-156984436D01*
X68256379Y-156697279D01*
X68256377Y-156697276D01*
X68079188Y-156429869D01*
X67870479Y-156186264D01*
X67870478Y-156186263D01*
X67706683Y-156036944D01*
X67633415Y-155970151D01*
X67371599Y-155784816D01*
X67371591Y-155784811D01*
X67371588Y-155784809D01*
X67371581Y-155784805D01*
X67371574Y-155784801D01*
X67088979Y-155633050D01*
X67088976Y-155633048D01*
X67077195Y-155628484D01*
X66789847Y-155517165D01*
X66789845Y-155517164D01*
X66789844Y-155517164D01*
X66574503Y-155463004D01*
X66478749Y-155438921D01*
X66478746Y-155438920D01*
X66478744Y-155438920D01*
X66478739Y-155438919D01*
X66204906Y-155405011D01*
X66160393Y-155399500D01*
X65919874Y-155399500D01*
X65919873Y-155399500D01*
X65679824Y-155414305D01*
X65364497Y-155473250D01*
X65058811Y-155570496D01*
X65058808Y-155570497D01*
X65058806Y-155570498D01*
X64922849Y-155633048D01*
X64767384Y-155704573D01*
X64767367Y-155704582D01*
X64494654Y-155873438D01*
X64494637Y-155873450D01*
X64244724Y-156074555D01*
X64244723Y-156074555D01*
X64021412Y-156304854D01*
X64021409Y-156304858D01*
X63828100Y-156560839D01*
X63828096Y-156560845D01*
X63667707Y-156838649D01*
X63667700Y-156838663D01*
X63542666Y-157134069D01*
X63542664Y-157134073D01*
X63454878Y-157442609D01*
X63405672Y-157759599D01*
X63405670Y-157759616D01*
X63395793Y-158080237D01*
X61705071Y-158080237D01*
X61713504Y-158000000D01*
X61693542Y-157810072D01*
X61634527Y-157628444D01*
X61539040Y-157463056D01*
X61539038Y-157463054D01*
X61539034Y-157463048D01*
X61411255Y-157321135D01*
X61256752Y-157208882D01*
X61082288Y-157131206D01*
X60895487Y-157091500D01*
X60704513Y-157091500D01*
X60517711Y-157131206D01*
X60343247Y-157208882D01*
X60188744Y-157321135D01*
X60060965Y-157463048D01*
X60060958Y-157463058D01*
X59965476Y-157628438D01*
X59965473Y-157628445D01*
X59906457Y-157810072D01*
X59886496Y-158000000D01*
X55835476Y-158000000D01*
X55982288Y-157968794D01*
X56156752Y-157891118D01*
X56311253Y-157778866D01*
X56334528Y-157753017D01*
X56439034Y-157636951D01*
X56439035Y-157636949D01*
X56439040Y-157636944D01*
X56534527Y-157471556D01*
X56593542Y-157289928D01*
X56613504Y-157100000D01*
X56593542Y-156910072D01*
X56534527Y-156728444D01*
X56439040Y-156563056D01*
X56439038Y-156563054D01*
X56439034Y-156563048D01*
X56311255Y-156421135D01*
X56156752Y-156308882D01*
X55982288Y-156231206D01*
X55835476Y-156200000D01*
X58186496Y-156200000D01*
X58206457Y-156389927D01*
X58220467Y-156433043D01*
X58265473Y-156571556D01*
X58265476Y-156571561D01*
X58360958Y-156736941D01*
X58360965Y-156736951D01*
X58488744Y-156878864D01*
X58531698Y-156910072D01*
X58643248Y-156991118D01*
X58817712Y-157068794D01*
X59004513Y-157108500D01*
X59195487Y-157108500D01*
X59382288Y-157068794D01*
X59556752Y-156991118D01*
X59711253Y-156878866D01*
X59719212Y-156870027D01*
X59839034Y-156736951D01*
X59839035Y-156736949D01*
X59839040Y-156736944D01*
X59934527Y-156571556D01*
X59993542Y-156389928D01*
X60013504Y-156200000D01*
X61386496Y-156200000D01*
X61406457Y-156389927D01*
X61420467Y-156433043D01*
X61465473Y-156571556D01*
X61465476Y-156571561D01*
X61560958Y-156736941D01*
X61560965Y-156736951D01*
X61688744Y-156878864D01*
X61731698Y-156910072D01*
X61843248Y-156991118D01*
X62017712Y-157068794D01*
X62204513Y-157108500D01*
X62395487Y-157108500D01*
X62582288Y-157068794D01*
X62756752Y-156991118D01*
X62911253Y-156878866D01*
X62919212Y-156870027D01*
X63039034Y-156736951D01*
X63039035Y-156736949D01*
X63039040Y-156736944D01*
X63134527Y-156571556D01*
X63193542Y-156389928D01*
X63213504Y-156200000D01*
X63193542Y-156010072D01*
X63134527Y-155828444D01*
X63039040Y-155663056D01*
X63039038Y-155663054D01*
X63039034Y-155663048D01*
X62911255Y-155521135D01*
X62756752Y-155408882D01*
X62582288Y-155331206D01*
X62395487Y-155291500D01*
X62204513Y-155291500D01*
X62017711Y-155331206D01*
X61843247Y-155408882D01*
X61688744Y-155521135D01*
X61560965Y-155663048D01*
X61560958Y-155663058D01*
X61465476Y-155828438D01*
X61465473Y-155828445D01*
X61406457Y-156010072D01*
X61386496Y-156200000D01*
X60013504Y-156200000D01*
X59993542Y-156010072D01*
X59934527Y-155828444D01*
X59839040Y-155663056D01*
X59839038Y-155663054D01*
X59839034Y-155663048D01*
X59711255Y-155521135D01*
X59556752Y-155408882D01*
X59382288Y-155331206D01*
X59195487Y-155291500D01*
X59004513Y-155291500D01*
X58817711Y-155331206D01*
X58643247Y-155408882D01*
X58488744Y-155521135D01*
X58360965Y-155663048D01*
X58360958Y-155663058D01*
X58265476Y-155828438D01*
X58265473Y-155828445D01*
X58206457Y-156010072D01*
X58186496Y-156200000D01*
X55835476Y-156200000D01*
X55795487Y-156191500D01*
X55604513Y-156191500D01*
X55417709Y-156231206D01*
X55399836Y-156239164D01*
X55329469Y-156248597D01*
X55265173Y-156218489D01*
X55247722Y-156199565D01*
X55163261Y-156086738D01*
X55046207Y-155999112D01*
X55046202Y-155999110D01*
X54909204Y-155948011D01*
X54909196Y-155948009D01*
X54848649Y-155941500D01*
X54848638Y-155941500D01*
X52951362Y-155941500D01*
X52951350Y-155941500D01*
X52890803Y-155948009D01*
X52890795Y-155948011D01*
X52753797Y-155999110D01*
X52753792Y-155999112D01*
X52636738Y-156086738D01*
X52549112Y-156203792D01*
X52549110Y-156203797D01*
X52498011Y-156340795D01*
X52498009Y-156340803D01*
X52491500Y-156401350D01*
X52491500Y-158298649D01*
X51541148Y-158298649D01*
X51615314Y-158218083D01*
X51631561Y-158193215D01*
X51742984Y-158022669D01*
X51836749Y-157808907D01*
X51894051Y-157582626D01*
X51913327Y-157350000D01*
X51894051Y-157117374D01*
X51888276Y-157094568D01*
X51836750Y-156891096D01*
X51836747Y-156891089D01*
X51834938Y-156886966D01*
X51742984Y-156677331D01*
X51726104Y-156651494D01*
X51615314Y-156481916D01*
X51457225Y-156310186D01*
X51457221Y-156310182D01*
X51355752Y-156231206D01*
X51273017Y-156166810D01*
X51067727Y-156055713D01*
X51067724Y-156055712D01*
X51067723Y-156055711D01*
X50846955Y-155979921D01*
X50846948Y-155979919D01*
X50748411Y-155963476D01*
X50616712Y-155941500D01*
X50383288Y-155941500D01*
X50268066Y-155960727D01*
X50153051Y-155979919D01*
X50153044Y-155979921D01*
X49932276Y-156055711D01*
X49932273Y-156055713D01*
X49726985Y-156166809D01*
X49726983Y-156166810D01*
X49542778Y-156310182D01*
X49542774Y-156310186D01*
X49384685Y-156481916D01*
X49257015Y-156677331D01*
X49163252Y-156891089D01*
X49163249Y-156891096D01*
X49105950Y-157117366D01*
X49105949Y-157117372D01*
X49105949Y-157117374D01*
X49086673Y-157350000D01*
X48513327Y-157350000D01*
X48494051Y-157117374D01*
X48488276Y-157094568D01*
X48436750Y-156891096D01*
X48436747Y-156891089D01*
X48434938Y-156886966D01*
X48342984Y-156677331D01*
X48326104Y-156651494D01*
X48215314Y-156481916D01*
X48057225Y-156310186D01*
X48057221Y-156310182D01*
X47955752Y-156231206D01*
X47873017Y-156166810D01*
X47667727Y-156055713D01*
X47667724Y-156055712D01*
X47667723Y-156055711D01*
X47446955Y-155979921D01*
X47446948Y-155979919D01*
X47348411Y-155963476D01*
X47216712Y-155941500D01*
X46983288Y-155941500D01*
X46868066Y-155960727D01*
X46753051Y-155979919D01*
X46753044Y-155979921D01*
X46532276Y-156055711D01*
X46532273Y-156055713D01*
X46326985Y-156166809D01*
X46326983Y-156166810D01*
X46142778Y-156310182D01*
X46142774Y-156310186D01*
X45984685Y-156481916D01*
X45857015Y-156677331D01*
X45763252Y-156891089D01*
X45763249Y-156891096D01*
X45705950Y-157117366D01*
X45705949Y-157117372D01*
X45705949Y-157117374D01*
X45686673Y-157350000D01*
X44400500Y-157350000D01*
X44400500Y-156766108D01*
X44420502Y-156697987D01*
X44474158Y-156651494D01*
X44544432Y-156641390D01*
X44577749Y-156651002D01*
X44617707Y-156668793D01*
X44751723Y-156697279D01*
X44804513Y-156708500D01*
X44995487Y-156708500D01*
X45182288Y-156668794D01*
X45356752Y-156591118D01*
X45511253Y-156478866D01*
X45511255Y-156478864D01*
X45639034Y-156336951D01*
X45639035Y-156336949D01*
X45639040Y-156336944D01*
X45734527Y-156171556D01*
X45793542Y-155989928D01*
X45813504Y-155800000D01*
X45793542Y-155610072D01*
X45734527Y-155428444D01*
X45639040Y-155263056D01*
X45639038Y-155263054D01*
X45639034Y-155263048D01*
X45511255Y-155121135D01*
X45356752Y-155008882D01*
X45182288Y-154931206D01*
X44995487Y-154891500D01*
X44804513Y-154891500D01*
X44617707Y-154931207D01*
X44577747Y-154948998D01*
X44507380Y-154958432D01*
X44443084Y-154928325D01*
X44405271Y-154868235D01*
X44400500Y-154833891D01*
X44400500Y-154700000D01*
X68286384Y-154700000D01*
X68306783Y-154881047D01*
X68306783Y-154881049D01*
X68306784Y-154881050D01*
X68366957Y-155053015D01*
X68366958Y-155053018D01*
X68463887Y-155207279D01*
X68463888Y-155207281D01*
X68592718Y-155336111D01*
X68592720Y-155336112D01*
X68717165Y-155414306D01*
X68746985Y-155433043D01*
X68872354Y-155476911D01*
X68930043Y-155518288D01*
X68956206Y-155584288D01*
X68946241Y-155639587D01*
X68948294Y-155640306D01*
X68894547Y-155793908D01*
X68885783Y-155818953D01*
X68865384Y-156000000D01*
X68885783Y-156181047D01*
X68885783Y-156181049D01*
X68885784Y-156181050D01*
X68945957Y-156353015D01*
X68945958Y-156353018D01*
X69042887Y-156507279D01*
X69042888Y-156507281D01*
X69171718Y-156636111D01*
X69171720Y-156636112D01*
X69325981Y-156733041D01*
X69325982Y-156733041D01*
X69325985Y-156733043D01*
X69497953Y-156793217D01*
X69679000Y-156813616D01*
X69860047Y-156793217D01*
X70032015Y-156733043D01*
X70186281Y-156636111D01*
X70315111Y-156507281D01*
X70406695Y-156361526D01*
X76102764Y-156361526D01*
X76123163Y-156542573D01*
X76123163Y-156542575D01*
X76123164Y-156542576D01*
X76183337Y-156714541D01*
X76183338Y-156714544D01*
X76280267Y-156868805D01*
X76280268Y-156868807D01*
X76409098Y-156997637D01*
X76409100Y-156997638D01*
X76563361Y-157094567D01*
X76563362Y-157094567D01*
X76563365Y-157094569D01*
X76735333Y-157154743D01*
X76916380Y-157175142D01*
X77097427Y-157154743D01*
X77269395Y-157094569D01*
X77423661Y-156997637D01*
X77552491Y-156868807D01*
X77649423Y-156714541D01*
X77709597Y-156542573D01*
X77729996Y-156361526D01*
X77709597Y-156180479D01*
X77649423Y-156008511D01*
X77649421Y-156008508D01*
X77649421Y-156008507D01*
X77552492Y-155854246D01*
X77552491Y-155854244D01*
X77423661Y-155725414D01*
X77423659Y-155725413D01*
X77383215Y-155700000D01*
X84086384Y-155700000D01*
X84106783Y-155881047D01*
X84106783Y-155881049D01*
X84106784Y-155881050D01*
X84166957Y-156053015D01*
X84166958Y-156053018D01*
X84263887Y-156207279D01*
X84263888Y-156207281D01*
X84392718Y-156336111D01*
X84392720Y-156336112D01*
X84546981Y-156433041D01*
X84546982Y-156433041D01*
X84546985Y-156433043D01*
X84718953Y-156493217D01*
X84900000Y-156513616D01*
X85081047Y-156493217D01*
X85253015Y-156433043D01*
X85407281Y-156336111D01*
X85536111Y-156207281D01*
X85633043Y-156053015D01*
X85693217Y-155881047D01*
X85713616Y-155700000D01*
X85693217Y-155518953D01*
X85633043Y-155346985D01*
X85633041Y-155346982D01*
X85633041Y-155346981D01*
X85536112Y-155192720D01*
X85536111Y-155192718D01*
X85407281Y-155063888D01*
X85407279Y-155063887D01*
X85253018Y-154966958D01*
X85253015Y-154966957D01*
X85081050Y-154906784D01*
X85081049Y-154906783D01*
X85081047Y-154906783D01*
X84900000Y-154886384D01*
X84718953Y-154906783D01*
X84718950Y-154906783D01*
X84718949Y-154906784D01*
X84546984Y-154966957D01*
X84546981Y-154966958D01*
X84392720Y-155063887D01*
X84392718Y-155063888D01*
X84263888Y-155192718D01*
X84263887Y-155192720D01*
X84166958Y-155346981D01*
X84166957Y-155346984D01*
X84107016Y-155518288D01*
X84106783Y-155518953D01*
X84086384Y-155700000D01*
X77383215Y-155700000D01*
X77269398Y-155628484D01*
X77269395Y-155628483D01*
X77097430Y-155568310D01*
X77097429Y-155568309D01*
X77097427Y-155568309D01*
X76916380Y-155547910D01*
X76735333Y-155568309D01*
X76735330Y-155568309D01*
X76735329Y-155568310D01*
X76563364Y-155628483D01*
X76563361Y-155628484D01*
X76409100Y-155725413D01*
X76409098Y-155725414D01*
X76280268Y-155854244D01*
X76280267Y-155854246D01*
X76183338Y-156008507D01*
X76183337Y-156008510D01*
X76126284Y-156171561D01*
X76123163Y-156180479D01*
X76102764Y-156361526D01*
X70406695Y-156361526D01*
X70412043Y-156353015D01*
X70472217Y-156181047D01*
X70492616Y-156000000D01*
X70472217Y-155818953D01*
X70412043Y-155646985D01*
X70412041Y-155646982D01*
X70412041Y-155646981D01*
X70315112Y-155492720D01*
X70315111Y-155492718D01*
X70186281Y-155363888D01*
X70186279Y-155363887D01*
X70032018Y-155266958D01*
X70032015Y-155266957D01*
X69906647Y-155223089D01*
X69848955Y-155181711D01*
X69822793Y-155115711D01*
X69832768Y-155060415D01*
X69830706Y-155059694D01*
X69852398Y-154997701D01*
X69893217Y-154881047D01*
X69913616Y-154700000D01*
X69893217Y-154518953D01*
X69833043Y-154346985D01*
X69833041Y-154346982D01*
X69833041Y-154346981D01*
X69736112Y-154192720D01*
X69736111Y-154192718D01*
X69607281Y-154063888D01*
X69607279Y-154063887D01*
X69453018Y-153966958D01*
X69453015Y-153966957D01*
X69281050Y-153906784D01*
X69281049Y-153906783D01*
X69281047Y-153906783D01*
X69100000Y-153886384D01*
X68918953Y-153906783D01*
X68918950Y-153906783D01*
X68918949Y-153906784D01*
X68746984Y-153966957D01*
X68746981Y-153966958D01*
X68592720Y-154063887D01*
X68592718Y-154063888D01*
X68463888Y-154192718D01*
X68463887Y-154192720D01*
X68366958Y-154346981D01*
X68366957Y-154346984D01*
X68308651Y-154513615D01*
X68306783Y-154518953D01*
X68286384Y-154700000D01*
X44400500Y-154700000D01*
X44400500Y-152800000D01*
X45686496Y-152800000D01*
X45706457Y-152989927D01*
X45736526Y-153082470D01*
X45765473Y-153171556D01*
X45777692Y-153192720D01*
X45860958Y-153336941D01*
X45860965Y-153336951D01*
X45988744Y-153478864D01*
X45988747Y-153478866D01*
X46143248Y-153591118D01*
X46317712Y-153668794D01*
X46504513Y-153708500D01*
X46695487Y-153708500D01*
X46882288Y-153668794D01*
X47056752Y-153591118D01*
X47175939Y-153504522D01*
X47242807Y-153480665D01*
X47311958Y-153496745D01*
X47324058Y-153504521D01*
X47443248Y-153591118D01*
X47617712Y-153668794D01*
X47804513Y-153708500D01*
X47995487Y-153708500D01*
X48035476Y-153700000D01*
X72886384Y-153700000D01*
X72906783Y-153881047D01*
X72906783Y-153881049D01*
X72906784Y-153881050D01*
X72966957Y-154053015D01*
X72966958Y-154053018D01*
X73063887Y-154207279D01*
X73063888Y-154207281D01*
X73192718Y-154336111D01*
X73192720Y-154336112D01*
X73346981Y-154433041D01*
X73346982Y-154433041D01*
X73346985Y-154433043D01*
X73518953Y-154493217D01*
X73700000Y-154513616D01*
X73881047Y-154493217D01*
X74053015Y-154433043D01*
X74207281Y-154336111D01*
X74336111Y-154207281D01*
X74433043Y-154053015D01*
X74493217Y-153881047D01*
X74513616Y-153700000D01*
X74493217Y-153518953D01*
X74433043Y-153346985D01*
X74433041Y-153346982D01*
X74433041Y-153346981D01*
X74336112Y-153192720D01*
X74336111Y-153192718D01*
X74207281Y-153063888D01*
X74207279Y-153063887D01*
X74053018Y-152966958D01*
X74053015Y-152966957D01*
X73881050Y-152906784D01*
X73881049Y-152906783D01*
X73881047Y-152906783D01*
X73700000Y-152886384D01*
X73518953Y-152906783D01*
X73518950Y-152906783D01*
X73518949Y-152906784D01*
X73346984Y-152966957D01*
X73346981Y-152966958D01*
X73192720Y-153063887D01*
X73192718Y-153063888D01*
X73063888Y-153192718D01*
X73063887Y-153192720D01*
X72966958Y-153346981D01*
X72966957Y-153346984D01*
X72906891Y-153518645D01*
X72906783Y-153518953D01*
X72886384Y-153700000D01*
X48035476Y-153700000D01*
X48182288Y-153668794D01*
X48356752Y-153591118D01*
X48511253Y-153478866D01*
X48520840Y-153468219D01*
X48639034Y-153336951D01*
X48639035Y-153336949D01*
X48639040Y-153336944D01*
X48734527Y-153171556D01*
X48793542Y-152989928D01*
X48813504Y-152800000D01*
X48793542Y-152610072D01*
X48734527Y-152428444D01*
X48639040Y-152263056D01*
X48639038Y-152263054D01*
X48639034Y-152263048D01*
X48511255Y-152121135D01*
X48356752Y-152008882D01*
X48182288Y-151931206D01*
X47995487Y-151891500D01*
X47804513Y-151891500D01*
X47617711Y-151931206D01*
X47443247Y-152008882D01*
X47324061Y-152095476D01*
X47257193Y-152119335D01*
X47188041Y-152103254D01*
X47175939Y-152095476D01*
X47056752Y-152008882D01*
X46882288Y-151931206D01*
X46695487Y-151891500D01*
X46504513Y-151891500D01*
X46317711Y-151931206D01*
X46143247Y-152008882D01*
X45988744Y-152121135D01*
X45860965Y-152263048D01*
X45860958Y-152263058D01*
X45765476Y-152428438D01*
X45765473Y-152428445D01*
X45706457Y-152610072D01*
X45686496Y-152800000D01*
X44400500Y-152800000D01*
X44400500Y-149300000D01*
X45686496Y-149300000D01*
X45706457Y-149489927D01*
X45736526Y-149582470D01*
X45765473Y-149671556D01*
X45765476Y-149671561D01*
X45860958Y-149836941D01*
X45860965Y-149836951D01*
X45988744Y-149978864D01*
X45988747Y-149978866D01*
X46143248Y-150091118D01*
X46317712Y-150168794D01*
X46504513Y-150208500D01*
X46695487Y-150208500D01*
X46882288Y-150168794D01*
X47056752Y-150091118D01*
X47175939Y-150004522D01*
X47242807Y-149980665D01*
X47311958Y-149996745D01*
X47324058Y-150004521D01*
X47443248Y-150091118D01*
X47617712Y-150168794D01*
X47804513Y-150208500D01*
X47995487Y-150208500D01*
X48182288Y-150168794D01*
X48356752Y-150091118D01*
X48511253Y-149978866D01*
X48575617Y-149907383D01*
X48639034Y-149836951D01*
X48639035Y-149836949D01*
X48639040Y-149836944D01*
X48734527Y-149671556D01*
X48793542Y-149489928D01*
X48813504Y-149300000D01*
X48793542Y-149110072D01*
X48734527Y-148928444D01*
X48639040Y-148763056D01*
X48639038Y-148763054D01*
X48639034Y-148763048D01*
X48511255Y-148621135D01*
X48356752Y-148508882D01*
X48182288Y-148431206D01*
X47995487Y-148391500D01*
X47804513Y-148391500D01*
X47617711Y-148431206D01*
X47443247Y-148508882D01*
X47324061Y-148595476D01*
X47257193Y-148619335D01*
X47188041Y-148603254D01*
X47175939Y-148595476D01*
X47056752Y-148508882D01*
X46882288Y-148431206D01*
X46695487Y-148391500D01*
X46504513Y-148391500D01*
X46317711Y-148431206D01*
X46143247Y-148508882D01*
X45988744Y-148621135D01*
X45860965Y-148763048D01*
X45860958Y-148763058D01*
X45765476Y-148928438D01*
X45765473Y-148928445D01*
X45706457Y-149110072D01*
X45686496Y-149300000D01*
X44400500Y-149300000D01*
X44400500Y-145100000D01*
X45686496Y-145100000D01*
X45706457Y-145289927D01*
X45736526Y-145382470D01*
X45765473Y-145471556D01*
X45765476Y-145471561D01*
X45860958Y-145636941D01*
X45860965Y-145636951D01*
X45988744Y-145778864D01*
X45988747Y-145778866D01*
X46143248Y-145891118D01*
X46317712Y-145968794D01*
X46504513Y-146008500D01*
X46695487Y-146008500D01*
X46882288Y-145968794D01*
X47056752Y-145891118D01*
X47175939Y-145804522D01*
X47242807Y-145780665D01*
X47311958Y-145796745D01*
X47324058Y-145804521D01*
X47443248Y-145891118D01*
X47617712Y-145968794D01*
X47804513Y-146008500D01*
X47995487Y-146008500D01*
X48182288Y-145968794D01*
X48356752Y-145891118D01*
X48475939Y-145804522D01*
X48542807Y-145780665D01*
X48611958Y-145796745D01*
X48624058Y-145804521D01*
X48743248Y-145891118D01*
X48917712Y-145968794D01*
X49104513Y-146008500D01*
X49295487Y-146008500D01*
X49482288Y-145968794D01*
X49656752Y-145891118D01*
X49811253Y-145778866D01*
X49939040Y-145636944D01*
X50034527Y-145471556D01*
X50093542Y-145289928D01*
X50113504Y-145100000D01*
X50093542Y-144910072D01*
X50034527Y-144728444D01*
X49939040Y-144563056D01*
X49939038Y-144563054D01*
X49939034Y-144563048D01*
X49811255Y-144421135D01*
X49656752Y-144308882D01*
X49482288Y-144231206D01*
X49295487Y-144191500D01*
X49104513Y-144191500D01*
X48917711Y-144231206D01*
X48743247Y-144308882D01*
X48624061Y-144395476D01*
X48557193Y-144419335D01*
X48488041Y-144403254D01*
X48475939Y-144395476D01*
X48356752Y-144308882D01*
X48182288Y-144231206D01*
X47995487Y-144191500D01*
X47804513Y-144191500D01*
X47617711Y-144231206D01*
X47443247Y-144308882D01*
X47324061Y-144395476D01*
X47257193Y-144419335D01*
X47188041Y-144403254D01*
X47175939Y-144395476D01*
X47056752Y-144308882D01*
X46882288Y-144231206D01*
X46695487Y-144191500D01*
X46504513Y-144191500D01*
X46317711Y-144231206D01*
X46143247Y-144308882D01*
X45988744Y-144421135D01*
X45860965Y-144563048D01*
X45860958Y-144563058D01*
X45765476Y-144728438D01*
X45765473Y-144728445D01*
X45706457Y-144910072D01*
X45686496Y-145100000D01*
X44400500Y-145100000D01*
X44400500Y-141600000D01*
X45686496Y-141600000D01*
X45706457Y-141789927D01*
X45736526Y-141882470D01*
X45765473Y-141971556D01*
X45765476Y-141971561D01*
X45860958Y-142136941D01*
X45860965Y-142136951D01*
X45988744Y-142278864D01*
X45988747Y-142278866D01*
X46143248Y-142391118D01*
X46317712Y-142468794D01*
X46504513Y-142508500D01*
X46695487Y-142508500D01*
X46882288Y-142468794D01*
X47056752Y-142391118D01*
X47211253Y-142278866D01*
X47339040Y-142136944D01*
X47434527Y-141971556D01*
X47493542Y-141789928D01*
X47513504Y-141600000D01*
X47493542Y-141410072D01*
X47434527Y-141228444D01*
X47339040Y-141063056D01*
X47339038Y-141063054D01*
X47339034Y-141063048D01*
X47211255Y-140921135D01*
X47056752Y-140808882D01*
X46882288Y-140731206D01*
X46695487Y-140691500D01*
X46504513Y-140691500D01*
X46317711Y-140731206D01*
X46143247Y-140808882D01*
X45988744Y-140921135D01*
X45860965Y-141063048D01*
X45860958Y-141063058D01*
X45765476Y-141228438D01*
X45765473Y-141228445D01*
X45706457Y-141410072D01*
X45686496Y-141600000D01*
X44400500Y-141600000D01*
X44400500Y-140226000D01*
X44420502Y-140157879D01*
X44474158Y-140111386D01*
X44526500Y-140100000D01*
X56965496Y-140100000D01*
X57033617Y-140120002D01*
G37*
G04 #@! TD.AperFunction*
G04 #@! TD*
M02*
