G04 #@! TF.GenerationSoftware,KiCad,Pcbnew,7.0.9-69-ge1c0bddff3*
G04 #@! TF.CreationDate,2024-02-19T13:42:33+01:00*
G04 #@! TF.ProjectId,ASP_Backplane,4153505f-4261-4636-9b70-6c616e652e6b,B*
G04 #@! TF.SameCoordinates,Original*
G04 #@! TF.FileFunction,Soldermask,Bot*
G04 #@! TF.FilePolarity,Negative*
%FSLAX46Y46*%
G04 Gerber Fmt 4.6, Leading zero omitted, Abs format (unit mm)*
G04 Created by KiCad (PCBNEW 7.0.9-69-ge1c0bddff3) date 2024-02-19 13:42:33*
%MOMM*%
%LPD*%
G01*
G04 APERTURE LIST*
G04 Aperture macros list*
%AMRoundRect*
0 Rectangle with rounded corners*
0 $1 Rounding radius*
0 $2 $3 $4 $5 $6 $7 $8 $9 X,Y pos of 4 corners*
0 Add a 4 corners polygon primitive as box body*
4,1,4,$2,$3,$4,$5,$6,$7,$8,$9,$2,$3,0*
0 Add four circle primitives for the rounded corners*
1,1,$1+$1,$2,$3*
1,1,$1+$1,$4,$5*
1,1,$1+$1,$6,$7*
1,1,$1+$1,$8,$9*
0 Add four rect primitives between the rounded corners*
20,1,$1+$1,$2,$3,$4,$5,0*
20,1,$1+$1,$4,$5,$6,$7,0*
20,1,$1+$1,$6,$7,$8,$9,0*
20,1,$1+$1,$8,$9,$2,$3,0*%
G04 Aperture macros list end*
%ADD10RoundRect,0.250000X-0.475000X0.250000X-0.475000X-0.250000X0.475000X-0.250000X0.475000X0.250000X0*%
%ADD11C,3.200000*%
%ADD12O,4.000000X1.600000*%
%ADD13O,1.600000X4.000000*%
%ADD14RoundRect,0.250000X-1.500000X-0.550000X1.500000X-0.550000X1.500000X0.550000X-1.500000X0.550000X0*%
%ADD15R,1.700000X1.700000*%
%ADD16O,1.700000X1.700000*%
%ADD17RoundRect,0.225000X0.225000X0.250000X-0.225000X0.250000X-0.225000X-0.250000X0.225000X-0.250000X0*%
%ADD18O,1.800000X1.800000*%
%ADD19R,1.800000X1.800000*%
%ADD20RoundRect,0.150000X-0.150000X0.825000X-0.150000X-0.825000X0.150000X-0.825000X0.150000X0.825000X0*%
%ADD21RoundRect,0.200000X-0.200000X-0.275000X0.200000X-0.275000X0.200000X0.275000X-0.200000X0.275000X0*%
%ADD22RoundRect,0.225000X0.250000X-0.225000X0.250000X0.225000X-0.250000X0.225000X-0.250000X-0.225000X0*%
%ADD23RoundRect,0.200000X-0.275000X0.200000X-0.275000X-0.200000X0.275000X-0.200000X0.275000X0.200000X0*%
%ADD24RoundRect,0.225000X-0.250000X0.225000X-0.250000X-0.225000X0.250000X-0.225000X0.250000X0.225000X0*%
%ADD25RoundRect,0.250000X-0.400000X-0.600000X0.400000X-0.600000X0.400000X0.600000X-0.400000X0.600000X0*%
%ADD26O,1.600000X5.000000*%
%ADD27O,5.000000X1.600000*%
%ADD28RoundRect,0.200000X0.275000X-0.200000X0.275000X0.200000X-0.275000X0.200000X-0.275000X-0.200000X0*%
%ADD29RoundRect,0.200000X0.200000X0.275000X-0.200000X0.275000X-0.200000X-0.275000X0.200000X-0.275000X0*%
%ADD30RoundRect,0.250000X0.475000X-0.250000X0.475000X0.250000X-0.475000X0.250000X-0.475000X-0.250000X0*%
%ADD31RoundRect,0.100000X0.637500X0.100000X-0.637500X0.100000X-0.637500X-0.100000X0.637500X-0.100000X0*%
%ADD32C,4.000000*%
%ADD33C,1.800000*%
%ADD34RoundRect,0.250000X0.600000X-0.400000X0.600000X0.400000X-0.600000X0.400000X-0.600000X-0.400000X0*%
%ADD35O,3.000000X2.000000*%
%ADD36RoundRect,0.250000X2.450000X-1.200000X2.450000X1.200000X-2.450000X1.200000X-2.450000X-1.200000X0*%
%ADD37RoundRect,0.250000X2.250000X-2.000000X2.250000X2.000000X-2.250000X2.000000X-2.250000X-2.000000X0*%
G04 APERTURE END LIST*
D10*
G04 #@! TO.C,C67*
X73900000Y-155450000D03*
X73900000Y-157350000D03*
G04 #@! TD*
D11*
G04 #@! TO.C,REF\u002A\u002A*
X49000000Y-131000000D03*
G04 #@! TD*
G04 #@! TO.C,REF\u002A\u002A*
X130000000Y-161000000D03*
G04 #@! TD*
G04 #@! TO.C,REF\u002A\u002A*
X130000000Y-131000000D03*
G04 #@! TD*
G04 #@! TO.C,*
X66000000Y-158000000D03*
G04 #@! TD*
D12*
G04 #@! TO.C,J3*
X102400000Y-137300000D03*
D13*
X98900000Y-134100000D03*
X105900000Y-134100000D03*
D12*
X102400000Y-129200000D03*
G04 #@! TD*
G04 #@! TO.C,J2*
X90900000Y-137300000D03*
D13*
X87400000Y-134100000D03*
X94400000Y-134100000D03*
D12*
X90900000Y-129200000D03*
G04 #@! TD*
D14*
G04 #@! TO.C,C3*
X129000000Y-138900000D03*
X134400000Y-138900000D03*
G04 #@! TD*
D15*
G04 #@! TO.C,J10*
X81325000Y-140000000D03*
D16*
X81325000Y-142540000D03*
X81325000Y-145080000D03*
X81325000Y-147620000D03*
X81325000Y-150160000D03*
X81325000Y-152700000D03*
G04 #@! TD*
D15*
G04 #@! TO.C,J9*
X87925000Y-140000000D03*
D16*
X87925000Y-142540000D03*
X87925000Y-145080000D03*
X87925000Y-147620000D03*
X87925000Y-150160000D03*
X87925000Y-152700000D03*
G04 #@! TD*
D15*
G04 #@! TO.C,J7*
X101125000Y-140000000D03*
D16*
X101125000Y-142540000D03*
X101125000Y-145080000D03*
X101125000Y-147620000D03*
X101125000Y-150160000D03*
X101125000Y-152700000D03*
G04 #@! TD*
D15*
G04 #@! TO.C,J12*
X68125000Y-140000000D03*
D16*
X68125000Y-142540000D03*
X68125000Y-145080000D03*
X68125000Y-147620000D03*
X68125000Y-150160000D03*
X68125000Y-152700000D03*
G04 #@! TD*
D15*
G04 #@! TO.C,J13*
X61525000Y-140000000D03*
D16*
X61525000Y-142540000D03*
X61525000Y-145080000D03*
X61525000Y-147620000D03*
X61525000Y-150160000D03*
X61525000Y-152700000D03*
G04 #@! TD*
D15*
G04 #@! TO.C,J6*
X107725000Y-140000000D03*
D16*
X107725000Y-142540000D03*
X107725000Y-145080000D03*
X107725000Y-147620000D03*
X107725000Y-150160000D03*
X107725000Y-152700000D03*
G04 #@! TD*
D15*
G04 #@! TO.C,J11*
X74725000Y-140000000D03*
D16*
X74725000Y-142540000D03*
X74725000Y-145080000D03*
X74725000Y-147620000D03*
X74725000Y-150160000D03*
X74725000Y-152700000D03*
G04 #@! TD*
D15*
G04 #@! TO.C,J5*
X114325000Y-140000000D03*
D16*
X114325000Y-142540000D03*
X114325000Y-145080000D03*
X114325000Y-147620000D03*
X114325000Y-150160000D03*
X114325000Y-152700000D03*
G04 #@! TD*
D15*
G04 #@! TO.C,J8*
X94525000Y-140000000D03*
D16*
X94525000Y-142540000D03*
X94525000Y-145080000D03*
X94525000Y-147620000D03*
X94525000Y-150160000D03*
X94525000Y-152700000D03*
G04 #@! TD*
D17*
G04 #@! TO.C,C24*
X61875000Y-131400000D03*
X60325000Y-131400000D03*
G04 #@! TD*
D15*
G04 #@! TO.C,J4*
X120925000Y-140000000D03*
D16*
X120925000Y-142540000D03*
X120925000Y-145080000D03*
X120925000Y-147620000D03*
X120925000Y-150160000D03*
X120925000Y-152700000D03*
G04 #@! TD*
D18*
G04 #@! TO.C,U3*
X47100000Y-157350000D03*
X48800000Y-161050000D03*
X50500000Y-157350000D03*
X52200000Y-161050000D03*
D19*
X53900000Y-157350000D03*
G04 #@! TD*
D20*
G04 #@! TO.C,U2*
X121395000Y-163775000D03*
X122665000Y-163775000D03*
X123935000Y-163775000D03*
X125205000Y-163775000D03*
X125205000Y-158825000D03*
X123935000Y-158825000D03*
X122665000Y-158825000D03*
X121395000Y-158825000D03*
G04 #@! TD*
D21*
G04 #@! TO.C,R27*
X103175000Y-163600000D03*
X104825000Y-163600000D03*
G04 #@! TD*
D22*
G04 #@! TO.C,C43*
X91000000Y-162375000D03*
X91000000Y-160825000D03*
G04 #@! TD*
D23*
G04 #@! TO.C,R19*
X90100000Y-151775000D03*
X90100000Y-153425000D03*
G04 #@! TD*
D21*
G04 #@! TO.C,R16*
X110075000Y-162200000D03*
X111725000Y-162200000D03*
G04 #@! TD*
D24*
G04 #@! TO.C,C52*
X85700000Y-154925000D03*
X85700000Y-156475000D03*
G04 #@! TD*
D21*
G04 #@! TO.C,R17*
X103175000Y-161964166D03*
X104825000Y-161964166D03*
G04 #@! TD*
G04 #@! TO.C,R24*
X70675000Y-162400000D03*
X72325000Y-162400000D03*
G04 #@! TD*
D24*
G04 #@! TO.C,C62*
X87300000Y-154925000D03*
X87300000Y-156475000D03*
G04 #@! TD*
D25*
G04 #@! TO.C,D2*
X57250000Y-156200000D03*
X60750000Y-156200000D03*
G04 #@! TD*
D22*
G04 #@! TO.C,C35*
X79800000Y-162475000D03*
X79800000Y-160925000D03*
G04 #@! TD*
D21*
G04 #@! TO.C,R57*
X104175000Y-156100000D03*
X105825000Y-156100000D03*
G04 #@! TD*
D23*
G04 #@! TO.C,R63*
X70500000Y-151975000D03*
X70500000Y-153625000D03*
G04 #@! TD*
G04 #@! TO.C,R49*
X85900000Y-151675000D03*
X85900000Y-153325000D03*
G04 #@! TD*
G04 #@! TO.C,R55*
X52700000Y-134675000D03*
X52700000Y-136325000D03*
G04 #@! TD*
D22*
G04 #@! TO.C,C30*
X107900000Y-163575000D03*
X107900000Y-162025000D03*
G04 #@! TD*
D26*
G04 #@! TO.C,J1*
X117500000Y-133650000D03*
D27*
X119800000Y-128350000D03*
X123500000Y-130850000D03*
G04 #@! TD*
D21*
G04 #@! TO.C,R46*
X111275000Y-157800000D03*
X112925000Y-157800000D03*
G04 #@! TD*
D28*
G04 #@! TO.C,R35*
X57300000Y-129325000D03*
X57300000Y-127675000D03*
G04 #@! TD*
D29*
G04 #@! TO.C,R62*
X84625000Y-164100000D03*
X82975000Y-164100000D03*
G04 #@! TD*
G04 #@! TO.C,R30*
X92725000Y-164000000D03*
X91075000Y-164000000D03*
G04 #@! TD*
D24*
G04 #@! TO.C,C42*
X90500000Y-154925000D03*
X90500000Y-156475000D03*
G04 #@! TD*
D29*
G04 #@! TO.C,R45*
X55325000Y-131400000D03*
X53675000Y-131400000D03*
G04 #@! TD*
G04 #@! TO.C,R32*
X78325000Y-164800000D03*
X76675000Y-164800000D03*
G04 #@! TD*
D28*
G04 #@! TO.C,R53*
X70500000Y-156625000D03*
X70500000Y-154975000D03*
G04 #@! TD*
D23*
G04 #@! TO.C,R20*
X92600000Y-160875000D03*
X92600000Y-162525000D03*
G04 #@! TD*
D21*
G04 #@! TO.C,R34*
X70675000Y-164000000D03*
X72325000Y-164000000D03*
G04 #@! TD*
D23*
G04 #@! TO.C,R31*
X83700000Y-148675000D03*
X83700000Y-150325000D03*
G04 #@! TD*
D30*
G04 #@! TO.C,C37*
X74000000Y-163050000D03*
X74000000Y-161150000D03*
G04 #@! TD*
D31*
G04 #@! TO.C,U4*
X60562500Y-133050000D03*
X60562500Y-133700000D03*
X60562500Y-134350000D03*
X60562500Y-135000000D03*
X60562500Y-135650000D03*
X60562500Y-136300000D03*
X60562500Y-136950000D03*
X54837500Y-136950000D03*
X54837500Y-136300000D03*
X54837500Y-135650000D03*
X54837500Y-135000000D03*
X54837500Y-134350000D03*
X54837500Y-133700000D03*
X54837500Y-133050000D03*
G04 #@! TD*
D24*
G04 #@! TO.C,C54*
X79300000Y-154925000D03*
X79300000Y-156475000D03*
G04 #@! TD*
D10*
G04 #@! TO.C,C48*
X53500000Y-127550000D03*
X53500000Y-129450000D03*
G04 #@! TD*
D21*
G04 #@! TO.C,R26*
X110075000Y-163800000D03*
X111725000Y-163800000D03*
G04 #@! TD*
D23*
G04 #@! TO.C,R64*
X77700000Y-152675000D03*
X77700000Y-154325000D03*
G04 #@! TD*
D32*
G04 #@! TO.C,RV1*
X71300000Y-128700000D03*
X71300000Y-137500000D03*
D33*
X64300000Y-130600000D03*
X64300000Y-133100000D03*
X64300000Y-135600000D03*
G04 #@! TD*
D23*
G04 #@! TO.C,R29*
X90100000Y-148775000D03*
X90100000Y-150425000D03*
G04 #@! TD*
D34*
G04 #@! TO.C,D3*
X124500000Y-142550000D03*
X124500000Y-139050000D03*
G04 #@! TD*
D17*
G04 #@! TO.C,C5*
X121875000Y-156400000D03*
X120325000Y-156400000D03*
G04 #@! TD*
G04 #@! TO.C,C25*
X58675000Y-131400000D03*
X57125000Y-131400000D03*
G04 #@! TD*
D23*
G04 #@! TO.C,R51*
X79300000Y-151675000D03*
X79300000Y-153325000D03*
G04 #@! TD*
D24*
G04 #@! TO.C,C50*
X107300000Y-156125000D03*
X107300000Y-157675000D03*
G04 #@! TD*
D10*
G04 #@! TO.C,C38*
X55500000Y-127550000D03*
X55500000Y-129450000D03*
G04 #@! TD*
D21*
G04 #@! TO.C,R47*
X104175000Y-157700000D03*
X105825000Y-157700000D03*
G04 #@! TD*
D22*
G04 #@! TO.C,C65*
X81400000Y-162475000D03*
X81400000Y-160925000D03*
G04 #@! TD*
D15*
G04 #@! TO.C,JP3*
X83475000Y-132960000D03*
D16*
X80935000Y-132960000D03*
G04 #@! TD*
D28*
G04 #@! TO.C,R25*
X58900000Y-129325000D03*
X58900000Y-127675000D03*
G04 #@! TD*
D21*
G04 #@! TO.C,R22*
X73675000Y-164800000D03*
X75325000Y-164800000D03*
G04 #@! TD*
D22*
G04 #@! TO.C,C33*
X89400000Y-162375000D03*
X89400000Y-160825000D03*
G04 #@! TD*
D30*
G04 #@! TO.C,C47*
X76000000Y-163050000D03*
X76000000Y-161150000D03*
G04 #@! TD*
D22*
G04 #@! TO.C,C39*
X113200000Y-163775000D03*
X113200000Y-162225000D03*
G04 #@! TD*
D21*
G04 #@! TO.C,R52*
X79975000Y-164100000D03*
X81625000Y-164100000D03*
G04 #@! TD*
D24*
G04 #@! TO.C,C59*
X116000000Y-156225000D03*
X116000000Y-157775000D03*
G04 #@! TD*
G04 #@! TO.C,C49*
X114400000Y-156225000D03*
X114400000Y-157775000D03*
G04 #@! TD*
D28*
G04 #@! TO.C,R54*
X77700000Y-157325000D03*
X77700000Y-155675000D03*
G04 #@! TD*
D35*
G04 #@! TO.C,SW1*
X111800000Y-130660000D03*
X111800000Y-133200000D03*
X111800000Y-135740000D03*
G04 #@! TD*
D24*
G04 #@! TO.C,C34*
X82500000Y-154925000D03*
X82500000Y-156475000D03*
G04 #@! TD*
G04 #@! TO.C,C32*
X88900000Y-154925000D03*
X88900000Y-156475000D03*
G04 #@! TD*
D22*
G04 #@! TO.C,C55*
X83000000Y-162475000D03*
X83000000Y-160925000D03*
G04 #@! TD*
D21*
G04 #@! TO.C,R56*
X111275000Y-156200000D03*
X112925000Y-156200000D03*
G04 #@! TD*
D24*
G04 #@! TO.C,C60*
X108900000Y-156125000D03*
X108900000Y-157675000D03*
G04 #@! TD*
D22*
G04 #@! TO.C,C40*
X106300000Y-163575000D03*
X106300000Y-162025000D03*
G04 #@! TD*
D24*
G04 #@! TO.C,C44*
X84100000Y-154925000D03*
X84100000Y-156475000D03*
G04 #@! TD*
D29*
G04 #@! TO.C,R50*
X87625000Y-164100000D03*
X85975000Y-164100000D03*
G04 #@! TD*
D21*
G04 #@! TO.C,R65*
X49575000Y-136200000D03*
X51225000Y-136200000D03*
G04 #@! TD*
D24*
G04 #@! TO.C,C64*
X80900000Y-154925000D03*
X80900000Y-156475000D03*
G04 #@! TD*
D10*
G04 #@! TO.C,C57*
X75900000Y-155450000D03*
X75900000Y-157350000D03*
G04 #@! TD*
D36*
G04 #@! TO.C,L1*
X129700000Y-145450000D03*
X129700000Y-155350000D03*
G04 #@! TD*
D37*
G04 #@! TO.C,L3*
X52000000Y-151250000D03*
X52000000Y-140750000D03*
G04 #@! TD*
D28*
G04 #@! TO.C,R60*
X84600000Y-162625000D03*
X84600000Y-160975000D03*
G04 #@! TD*
D22*
G04 #@! TO.C,C29*
X114800000Y-163775000D03*
X114800000Y-162225000D03*
G04 #@! TD*
D14*
G04 #@! TO.C,C1*
X56100000Y-161700000D03*
X61500000Y-161700000D03*
G04 #@! TD*
D23*
G04 #@! TO.C,R21*
X83700000Y-151675000D03*
X83700000Y-153325000D03*
G04 #@! TD*
G04 #@! TO.C,R59*
X85900000Y-148675000D03*
X85900000Y-150325000D03*
G04 #@! TD*
D22*
G04 #@! TO.C,C45*
X78200000Y-162475000D03*
X78200000Y-160925000D03*
G04 #@! TD*
D15*
G04 #@! TO.C,JP2*
X83475000Y-135500000D03*
D16*
X80935000Y-135500000D03*
G04 #@! TD*
D15*
G04 #@! TO.C,JP1*
X83475000Y-130420000D03*
D16*
X80935000Y-130420000D03*
G04 #@! TD*
D23*
G04 #@! TO.C,R61*
X79300000Y-148675000D03*
X79300000Y-150325000D03*
G04 #@! TD*
G04 #@! TO.C,R23*
X69200000Y-162475000D03*
X69200000Y-164125000D03*
G04 #@! TD*
D22*
G04 #@! TO.C,C53*
X86200000Y-162375000D03*
X86200000Y-160825000D03*
G04 #@! TD*
G04 #@! TO.C,C63*
X87800000Y-162375000D03*
X87800000Y-160825000D03*
G04 #@! TD*
M02*
