G04 #@! TF.GenerationSoftware,KiCad,Pcbnew,7.0.9-69-ge1c0bddff3*
G04 #@! TF.CreationDate,2024-02-19T13:42:33+01:00*
G04 #@! TF.ProjectId,ASP_Backplane,4153505f-4261-4636-9b70-6c616e652e6b,B*
G04 #@! TF.SameCoordinates,Original*
G04 #@! TF.FileFunction,Legend,Top*
G04 #@! TF.FilePolarity,Positive*
%FSLAX46Y46*%
G04 Gerber Fmt 4.6, Leading zero omitted, Abs format (unit mm)*
G04 Created by KiCad (PCBNEW 7.0.9-69-ge1c0bddff3) date 2024-02-19 13:42:33*
%MOMM*%
%LPD*%
G01*
G04 APERTURE LIST*
G04 Aperture macros list*
%AMRoundRect*
0 Rectangle with rounded corners*
0 $1 Rounding radius*
0 $2 $3 $4 $5 $6 $7 $8 $9 X,Y pos of 4 corners*
0 Add a 4 corners polygon primitive as box body*
4,1,4,$2,$3,$4,$5,$6,$7,$8,$9,$2,$3,0*
0 Add four circle primitives for the rounded corners*
1,1,$1+$1,$2,$3*
1,1,$1+$1,$4,$5*
1,1,$1+$1,$6,$7*
1,1,$1+$1,$8,$9*
0 Add four rect primitives between the rounded corners*
20,1,$1+$1,$2,$3,$4,$5,0*
20,1,$1+$1,$4,$5,$6,$7,0*
20,1,$1+$1,$6,$7,$8,$9,0*
20,1,$1+$1,$8,$9,$2,$3,0*%
G04 Aperture macros list end*
%ADD10C,0.150000*%
%ADD11C,0.120000*%
%ADD12C,0.300000*%
%ADD13C,0.100000*%
%ADD14C,0.200000*%
%ADD15RoundRect,0.100000X-0.100000X0.637500X-0.100000X-0.637500X0.100000X-0.637500X0.100000X0.637500X0*%
%ADD16C,3.200000*%
%ADD17O,4.000000X1.600000*%
%ADD18O,1.600000X4.000000*%
%ADD19RoundRect,0.112500X-0.112500X-0.237500X0.112500X-0.237500X0.112500X0.237500X-0.112500X0.237500X0*%
%ADD20RoundRect,0.250000X-1.000000X-0.650000X1.000000X-0.650000X1.000000X0.650000X-1.000000X0.650000X0*%
%ADD21R,1.700000X1.700000*%
%ADD22O,1.700000X1.700000*%
%ADD23RoundRect,0.225000X0.250000X-0.225000X0.250000X0.225000X-0.250000X0.225000X-0.250000X-0.225000X0*%
%ADD24RoundRect,0.150000X0.150000X-0.725000X0.150000X0.725000X-0.150000X0.725000X-0.150000X-0.725000X0*%
%ADD25RoundRect,0.200000X0.200000X0.275000X-0.200000X0.275000X-0.200000X-0.275000X0.200000X-0.275000X0*%
%ADD26RoundRect,0.225000X-0.225000X-0.250000X0.225000X-0.250000X0.225000X0.250000X-0.225000X0.250000X0*%
%ADD27RoundRect,0.200000X-0.275000X0.200000X-0.275000X-0.200000X0.275000X-0.200000X0.275000X0.200000X0*%
%ADD28RoundRect,0.250000X1.500000X0.550000X-1.500000X0.550000X-1.500000X-0.550000X1.500000X-0.550000X0*%
%ADD29RoundRect,0.200000X0.275000X-0.200000X0.275000X0.200000X-0.275000X0.200000X-0.275000X-0.200000X0*%
%ADD30RoundRect,0.225000X-0.250000X0.225000X-0.250000X-0.225000X0.250000X-0.225000X0.250000X0.225000X0*%
%ADD31RoundRect,0.225000X0.225000X0.250000X-0.225000X0.250000X-0.225000X-0.250000X0.225000X-0.250000X0*%
%ADD32RoundRect,0.200000X-0.200000X-0.275000X0.200000X-0.275000X0.200000X0.275000X-0.200000X0.275000X0*%
%ADD33RoundRect,0.250000X-0.375000X-0.625000X0.375000X-0.625000X0.375000X0.625000X-0.375000X0.625000X0*%
%ADD34RoundRect,0.250000X0.475000X-0.250000X0.475000X0.250000X-0.475000X0.250000X-0.475000X-0.250000X0*%
%ADD35RoundRect,0.250000X1.425000X-0.362500X1.425000X0.362500X-1.425000X0.362500X-1.425000X-0.362500X0*%
%ADD36RoundRect,0.250000X0.600000X-0.400000X0.600000X0.400000X-0.600000X0.400000X-0.600000X-0.400000X0*%
%ADD37O,1.800000X1.800000*%
%ADD38R,1.800000X1.800000*%
%ADD39O,1.600000X5.000000*%
%ADD40O,5.000000X1.600000*%
%ADD41C,4.000000*%
%ADD42C,1.800000*%
%ADD43O,3.000000X2.000000*%
%ADD44RoundRect,0.250000X-1.500000X-0.550000X1.500000X-0.550000X1.500000X0.550000X-1.500000X0.550000X0*%
G04 APERTURE END LIST*
D10*
X106642857Y-129054819D02*
X106071429Y-129054819D01*
X106357143Y-129054819D02*
X106357143Y-128054819D01*
X106357143Y-128054819D02*
X106261905Y-128197676D01*
X106261905Y-128197676D02*
X106166667Y-128292914D01*
X106166667Y-128292914D02*
X106071429Y-128340533D01*
X107071429Y-128959580D02*
X107119048Y-129007200D01*
X107119048Y-129007200D02*
X107071429Y-129054819D01*
X107071429Y-129054819D02*
X107023810Y-129007200D01*
X107023810Y-129007200D02*
X107071429Y-128959580D01*
X107071429Y-128959580D02*
X107071429Y-129054819D01*
X108023809Y-128054819D02*
X107547619Y-128054819D01*
X107547619Y-128054819D02*
X107500000Y-128531009D01*
X107500000Y-128531009D02*
X107547619Y-128483390D01*
X107547619Y-128483390D02*
X107642857Y-128435771D01*
X107642857Y-128435771D02*
X107880952Y-128435771D01*
X107880952Y-128435771D02*
X107976190Y-128483390D01*
X107976190Y-128483390D02*
X108023809Y-128531009D01*
X108023809Y-128531009D02*
X108071428Y-128626247D01*
X108071428Y-128626247D02*
X108071428Y-128864342D01*
X108071428Y-128864342D02*
X108023809Y-128959580D01*
X108023809Y-128959580D02*
X107976190Y-129007200D01*
X107976190Y-129007200D02*
X107880952Y-129054819D01*
X107880952Y-129054819D02*
X107642857Y-129054819D01*
X107642857Y-129054819D02*
X107547619Y-129007200D01*
X107547619Y-129007200D02*
X107500000Y-128959580D01*
X108452381Y-128769104D02*
X108928571Y-128769104D01*
X108357143Y-129054819D02*
X108690476Y-128054819D01*
X108690476Y-128054819D02*
X109023809Y-129054819D01*
X73554819Y-160061904D02*
X74364342Y-160061904D01*
X74364342Y-160061904D02*
X74459580Y-160014285D01*
X74459580Y-160014285D02*
X74507200Y-159966666D01*
X74507200Y-159966666D02*
X74554819Y-159871428D01*
X74554819Y-159871428D02*
X74554819Y-159680952D01*
X74554819Y-159680952D02*
X74507200Y-159585714D01*
X74507200Y-159585714D02*
X74459580Y-159538095D01*
X74459580Y-159538095D02*
X74364342Y-159490476D01*
X74364342Y-159490476D02*
X73554819Y-159490476D01*
X73983390Y-158871428D02*
X73935771Y-158966666D01*
X73935771Y-158966666D02*
X73888152Y-159014285D01*
X73888152Y-159014285D02*
X73792914Y-159061904D01*
X73792914Y-159061904D02*
X73745295Y-159061904D01*
X73745295Y-159061904D02*
X73650057Y-159014285D01*
X73650057Y-159014285D02*
X73602438Y-158966666D01*
X73602438Y-158966666D02*
X73554819Y-158871428D01*
X73554819Y-158871428D02*
X73554819Y-158680952D01*
X73554819Y-158680952D02*
X73602438Y-158585714D01*
X73602438Y-158585714D02*
X73650057Y-158538095D01*
X73650057Y-158538095D02*
X73745295Y-158490476D01*
X73745295Y-158490476D02*
X73792914Y-158490476D01*
X73792914Y-158490476D02*
X73888152Y-158538095D01*
X73888152Y-158538095D02*
X73935771Y-158585714D01*
X73935771Y-158585714D02*
X73983390Y-158680952D01*
X73983390Y-158680952D02*
X73983390Y-158871428D01*
X73983390Y-158871428D02*
X74031009Y-158966666D01*
X74031009Y-158966666D02*
X74078628Y-159014285D01*
X74078628Y-159014285D02*
X74173866Y-159061904D01*
X74173866Y-159061904D02*
X74364342Y-159061904D01*
X74364342Y-159061904D02*
X74459580Y-159014285D01*
X74459580Y-159014285D02*
X74507200Y-158966666D01*
X74507200Y-158966666D02*
X74554819Y-158871428D01*
X74554819Y-158871428D02*
X74554819Y-158680952D01*
X74554819Y-158680952D02*
X74507200Y-158585714D01*
X74507200Y-158585714D02*
X74459580Y-158538095D01*
X74459580Y-158538095D02*
X74364342Y-158490476D01*
X74364342Y-158490476D02*
X74173866Y-158490476D01*
X74173866Y-158490476D02*
X74078628Y-158538095D01*
X74078628Y-158538095D02*
X74031009Y-158585714D01*
X74031009Y-158585714D02*
X73983390Y-158680952D01*
X102066666Y-126554819D02*
X102066666Y-127269104D01*
X102066666Y-127269104D02*
X102019047Y-127411961D01*
X102019047Y-127411961D02*
X101923809Y-127507200D01*
X101923809Y-127507200D02*
X101780952Y-127554819D01*
X101780952Y-127554819D02*
X101685714Y-127554819D01*
X102447619Y-126554819D02*
X103066666Y-126554819D01*
X103066666Y-126554819D02*
X102733333Y-126935771D01*
X102733333Y-126935771D02*
X102876190Y-126935771D01*
X102876190Y-126935771D02*
X102971428Y-126983390D01*
X102971428Y-126983390D02*
X103019047Y-127031009D01*
X103019047Y-127031009D02*
X103066666Y-127126247D01*
X103066666Y-127126247D02*
X103066666Y-127364342D01*
X103066666Y-127364342D02*
X103019047Y-127459580D01*
X103019047Y-127459580D02*
X102971428Y-127507200D01*
X102971428Y-127507200D02*
X102876190Y-127554819D01*
X102876190Y-127554819D02*
X102590476Y-127554819D01*
X102590476Y-127554819D02*
X102495238Y-127507200D01*
X102495238Y-127507200D02*
X102447619Y-127459580D01*
X90566666Y-126554819D02*
X90566666Y-127269104D01*
X90566666Y-127269104D02*
X90519047Y-127411961D01*
X90519047Y-127411961D02*
X90423809Y-127507200D01*
X90423809Y-127507200D02*
X90280952Y-127554819D01*
X90280952Y-127554819D02*
X90185714Y-127554819D01*
X90995238Y-126650057D02*
X91042857Y-126602438D01*
X91042857Y-126602438D02*
X91138095Y-126554819D01*
X91138095Y-126554819D02*
X91376190Y-126554819D01*
X91376190Y-126554819D02*
X91471428Y-126602438D01*
X91471428Y-126602438D02*
X91519047Y-126650057D01*
X91519047Y-126650057D02*
X91566666Y-126745295D01*
X91566666Y-126745295D02*
X91566666Y-126840533D01*
X91566666Y-126840533D02*
X91519047Y-126983390D01*
X91519047Y-126983390D02*
X90947619Y-127554819D01*
X90947619Y-127554819D02*
X91566666Y-127554819D01*
X76411319Y-137588094D02*
X75411319Y-137588094D01*
X75411319Y-137588094D02*
X75411319Y-137349999D01*
X75411319Y-137349999D02*
X75458938Y-137207142D01*
X75458938Y-137207142D02*
X75554176Y-137111904D01*
X75554176Y-137111904D02*
X75649414Y-137064285D01*
X75649414Y-137064285D02*
X75839890Y-137016666D01*
X75839890Y-137016666D02*
X75982747Y-137016666D01*
X75982747Y-137016666D02*
X76173223Y-137064285D01*
X76173223Y-137064285D02*
X76268461Y-137111904D01*
X76268461Y-137111904D02*
X76363700Y-137207142D01*
X76363700Y-137207142D02*
X76411319Y-137349999D01*
X76411319Y-137349999D02*
X76411319Y-137588094D01*
X75744652Y-136159523D02*
X76411319Y-136159523D01*
X75363700Y-136397618D02*
X76077985Y-136635713D01*
X76077985Y-136635713D02*
X76077985Y-136016666D01*
X118711905Y-132454819D02*
X118711905Y-131454819D01*
X118711905Y-131454819D02*
X118950000Y-131454819D01*
X118950000Y-131454819D02*
X119092857Y-131502438D01*
X119092857Y-131502438D02*
X119188095Y-131597676D01*
X119188095Y-131597676D02*
X119235714Y-131692914D01*
X119235714Y-131692914D02*
X119283333Y-131883390D01*
X119283333Y-131883390D02*
X119283333Y-132026247D01*
X119283333Y-132026247D02*
X119235714Y-132216723D01*
X119235714Y-132216723D02*
X119188095Y-132311961D01*
X119188095Y-132311961D02*
X119092857Y-132407200D01*
X119092857Y-132407200D02*
X118950000Y-132454819D01*
X118950000Y-132454819D02*
X118711905Y-132454819D01*
X120235714Y-132454819D02*
X119664286Y-132454819D01*
X119950000Y-132454819D02*
X119950000Y-131454819D01*
X119950000Y-131454819D02*
X119854762Y-131597676D01*
X119854762Y-131597676D02*
X119759524Y-131692914D01*
X119759524Y-131692914D02*
X119664286Y-131740533D01*
X80790476Y-136954819D02*
X80790476Y-137669104D01*
X80790476Y-137669104D02*
X80742857Y-137811961D01*
X80742857Y-137811961D02*
X80647619Y-137907200D01*
X80647619Y-137907200D02*
X80504762Y-137954819D01*
X80504762Y-137954819D02*
X80409524Y-137954819D01*
X81790476Y-137954819D02*
X81219048Y-137954819D01*
X81504762Y-137954819D02*
X81504762Y-136954819D01*
X81504762Y-136954819D02*
X81409524Y-137097676D01*
X81409524Y-137097676D02*
X81314286Y-137192914D01*
X81314286Y-137192914D02*
X81219048Y-137240533D01*
X82409524Y-136954819D02*
X82504762Y-136954819D01*
X82504762Y-136954819D02*
X82600000Y-137002438D01*
X82600000Y-137002438D02*
X82647619Y-137050057D01*
X82647619Y-137050057D02*
X82695238Y-137145295D01*
X82695238Y-137145295D02*
X82742857Y-137335771D01*
X82742857Y-137335771D02*
X82742857Y-137573866D01*
X82742857Y-137573866D02*
X82695238Y-137764342D01*
X82695238Y-137764342D02*
X82647619Y-137859580D01*
X82647619Y-137859580D02*
X82600000Y-137907200D01*
X82600000Y-137907200D02*
X82504762Y-137954819D01*
X82504762Y-137954819D02*
X82409524Y-137954819D01*
X82409524Y-137954819D02*
X82314286Y-137907200D01*
X82314286Y-137907200D02*
X82266667Y-137859580D01*
X82266667Y-137859580D02*
X82219048Y-137764342D01*
X82219048Y-137764342D02*
X82171429Y-137573866D01*
X82171429Y-137573866D02*
X82171429Y-137335771D01*
X82171429Y-137335771D02*
X82219048Y-137145295D01*
X82219048Y-137145295D02*
X82266667Y-137050057D01*
X82266667Y-137050057D02*
X82314286Y-137002438D01*
X82314286Y-137002438D02*
X82409524Y-136954819D01*
X114754819Y-160761904D02*
X115564342Y-160761904D01*
X115564342Y-160761904D02*
X115659580Y-160714285D01*
X115659580Y-160714285D02*
X115707200Y-160666666D01*
X115707200Y-160666666D02*
X115754819Y-160571428D01*
X115754819Y-160571428D02*
X115754819Y-160380952D01*
X115754819Y-160380952D02*
X115707200Y-160285714D01*
X115707200Y-160285714D02*
X115659580Y-160238095D01*
X115659580Y-160238095D02*
X115564342Y-160190476D01*
X115564342Y-160190476D02*
X114754819Y-160190476D01*
X114754819Y-159238095D02*
X114754819Y-159714285D01*
X114754819Y-159714285D02*
X115231009Y-159761904D01*
X115231009Y-159761904D02*
X115183390Y-159714285D01*
X115183390Y-159714285D02*
X115135771Y-159619047D01*
X115135771Y-159619047D02*
X115135771Y-159380952D01*
X115135771Y-159380952D02*
X115183390Y-159285714D01*
X115183390Y-159285714D02*
X115231009Y-159238095D01*
X115231009Y-159238095D02*
X115326247Y-159190476D01*
X115326247Y-159190476D02*
X115564342Y-159190476D01*
X115564342Y-159190476D02*
X115659580Y-159238095D01*
X115659580Y-159238095D02*
X115707200Y-159285714D01*
X115707200Y-159285714D02*
X115754819Y-159380952D01*
X115754819Y-159380952D02*
X115754819Y-159619047D01*
X115754819Y-159619047D02*
X115707200Y-159714285D01*
X115707200Y-159714285D02*
X115659580Y-159761904D01*
X50959580Y-144042857D02*
X51007200Y-144090476D01*
X51007200Y-144090476D02*
X51054819Y-144233333D01*
X51054819Y-144233333D02*
X51054819Y-144328571D01*
X51054819Y-144328571D02*
X51007200Y-144471428D01*
X51007200Y-144471428D02*
X50911961Y-144566666D01*
X50911961Y-144566666D02*
X50816723Y-144614285D01*
X50816723Y-144614285D02*
X50626247Y-144661904D01*
X50626247Y-144661904D02*
X50483390Y-144661904D01*
X50483390Y-144661904D02*
X50292914Y-144614285D01*
X50292914Y-144614285D02*
X50197676Y-144566666D01*
X50197676Y-144566666D02*
X50102438Y-144471428D01*
X50102438Y-144471428D02*
X50054819Y-144328571D01*
X50054819Y-144328571D02*
X50054819Y-144233333D01*
X50054819Y-144233333D02*
X50102438Y-144090476D01*
X50102438Y-144090476D02*
X50150057Y-144042857D01*
X51054819Y-143090476D02*
X51054819Y-143661904D01*
X51054819Y-143376190D02*
X50054819Y-143376190D01*
X50054819Y-143376190D02*
X50197676Y-143471428D01*
X50197676Y-143471428D02*
X50292914Y-143566666D01*
X50292914Y-143566666D02*
X50340533Y-143661904D01*
X51054819Y-142614285D02*
X51054819Y-142423809D01*
X51054819Y-142423809D02*
X51007200Y-142328571D01*
X51007200Y-142328571D02*
X50959580Y-142280952D01*
X50959580Y-142280952D02*
X50816723Y-142185714D01*
X50816723Y-142185714D02*
X50626247Y-142138095D01*
X50626247Y-142138095D02*
X50245295Y-142138095D01*
X50245295Y-142138095D02*
X50150057Y-142185714D01*
X50150057Y-142185714D02*
X50102438Y-142233333D01*
X50102438Y-142233333D02*
X50054819Y-142328571D01*
X50054819Y-142328571D02*
X50054819Y-142519047D01*
X50054819Y-142519047D02*
X50102438Y-142614285D01*
X50102438Y-142614285D02*
X50150057Y-142661904D01*
X50150057Y-142661904D02*
X50245295Y-142709523D01*
X50245295Y-142709523D02*
X50483390Y-142709523D01*
X50483390Y-142709523D02*
X50578628Y-142661904D01*
X50578628Y-142661904D02*
X50626247Y-142614285D01*
X50626247Y-142614285D02*
X50673866Y-142519047D01*
X50673866Y-142519047D02*
X50673866Y-142328571D01*
X50673866Y-142328571D02*
X50626247Y-142233333D01*
X50626247Y-142233333D02*
X50578628Y-142185714D01*
X50578628Y-142185714D02*
X50483390Y-142138095D01*
X87066666Y-137154819D02*
X87066666Y-137869104D01*
X87066666Y-137869104D02*
X87019047Y-138011961D01*
X87019047Y-138011961D02*
X86923809Y-138107200D01*
X86923809Y-138107200D02*
X86780952Y-138154819D01*
X86780952Y-138154819D02*
X86685714Y-138154819D01*
X87590476Y-138154819D02*
X87780952Y-138154819D01*
X87780952Y-138154819D02*
X87876190Y-138107200D01*
X87876190Y-138107200D02*
X87923809Y-138059580D01*
X87923809Y-138059580D02*
X88019047Y-137916723D01*
X88019047Y-137916723D02*
X88066666Y-137726247D01*
X88066666Y-137726247D02*
X88066666Y-137345295D01*
X88066666Y-137345295D02*
X88019047Y-137250057D01*
X88019047Y-137250057D02*
X87971428Y-137202438D01*
X87971428Y-137202438D02*
X87876190Y-137154819D01*
X87876190Y-137154819D02*
X87685714Y-137154819D01*
X87685714Y-137154819D02*
X87590476Y-137202438D01*
X87590476Y-137202438D02*
X87542857Y-137250057D01*
X87542857Y-137250057D02*
X87495238Y-137345295D01*
X87495238Y-137345295D02*
X87495238Y-137583390D01*
X87495238Y-137583390D02*
X87542857Y-137678628D01*
X87542857Y-137678628D02*
X87590476Y-137726247D01*
X87590476Y-137726247D02*
X87685714Y-137773866D01*
X87685714Y-137773866D02*
X87876190Y-137773866D01*
X87876190Y-137773866D02*
X87971428Y-137726247D01*
X87971428Y-137726247D02*
X88019047Y-137678628D01*
X88019047Y-137678628D02*
X88066666Y-137583390D01*
X97954819Y-140233333D02*
X98669104Y-140233333D01*
X98669104Y-140233333D02*
X98811961Y-140280952D01*
X98811961Y-140280952D02*
X98907200Y-140376190D01*
X98907200Y-140376190D02*
X98954819Y-140519047D01*
X98954819Y-140519047D02*
X98954819Y-140614285D01*
X97954819Y-139852380D02*
X97954819Y-139185714D01*
X97954819Y-139185714D02*
X98954819Y-139614285D01*
X80754819Y-160061904D02*
X81564342Y-160061904D01*
X81564342Y-160061904D02*
X81659580Y-160014285D01*
X81659580Y-160014285D02*
X81707200Y-159966666D01*
X81707200Y-159966666D02*
X81754819Y-159871428D01*
X81754819Y-159871428D02*
X81754819Y-159680952D01*
X81754819Y-159680952D02*
X81707200Y-159585714D01*
X81707200Y-159585714D02*
X81659580Y-159538095D01*
X81659580Y-159538095D02*
X81564342Y-159490476D01*
X81564342Y-159490476D02*
X80754819Y-159490476D01*
X81754819Y-158966666D02*
X81754819Y-158776190D01*
X81754819Y-158776190D02*
X81707200Y-158680952D01*
X81707200Y-158680952D02*
X81659580Y-158633333D01*
X81659580Y-158633333D02*
X81516723Y-158538095D01*
X81516723Y-158538095D02*
X81326247Y-158490476D01*
X81326247Y-158490476D02*
X80945295Y-158490476D01*
X80945295Y-158490476D02*
X80850057Y-158538095D01*
X80850057Y-158538095D02*
X80802438Y-158585714D01*
X80802438Y-158585714D02*
X80754819Y-158680952D01*
X80754819Y-158680952D02*
X80754819Y-158871428D01*
X80754819Y-158871428D02*
X80802438Y-158966666D01*
X80802438Y-158966666D02*
X80850057Y-159014285D01*
X80850057Y-159014285D02*
X80945295Y-159061904D01*
X80945295Y-159061904D02*
X81183390Y-159061904D01*
X81183390Y-159061904D02*
X81278628Y-159014285D01*
X81278628Y-159014285D02*
X81326247Y-158966666D01*
X81326247Y-158966666D02*
X81373866Y-158871428D01*
X81373866Y-158871428D02*
X81373866Y-158680952D01*
X81373866Y-158680952D02*
X81326247Y-158585714D01*
X81326247Y-158585714D02*
X81278628Y-158538095D01*
X81278628Y-158538095D02*
X81183390Y-158490476D01*
X87954819Y-160438094D02*
X88764342Y-160438094D01*
X88764342Y-160438094D02*
X88859580Y-160390475D01*
X88859580Y-160390475D02*
X88907200Y-160342856D01*
X88907200Y-160342856D02*
X88954819Y-160247618D01*
X88954819Y-160247618D02*
X88954819Y-160057142D01*
X88954819Y-160057142D02*
X88907200Y-159961904D01*
X88907200Y-159961904D02*
X88859580Y-159914285D01*
X88859580Y-159914285D02*
X88764342Y-159866666D01*
X88764342Y-159866666D02*
X87954819Y-159866666D01*
X88954819Y-158866666D02*
X88954819Y-159438094D01*
X88954819Y-159152380D02*
X87954819Y-159152380D01*
X87954819Y-159152380D02*
X88097676Y-159247618D01*
X88097676Y-159247618D02*
X88192914Y-159342856D01*
X88192914Y-159342856D02*
X88240533Y-159438094D01*
X87954819Y-158247618D02*
X87954819Y-158152380D01*
X87954819Y-158152380D02*
X88002438Y-158057142D01*
X88002438Y-158057142D02*
X88050057Y-158009523D01*
X88050057Y-158009523D02*
X88145295Y-157961904D01*
X88145295Y-157961904D02*
X88335771Y-157914285D01*
X88335771Y-157914285D02*
X88573866Y-157914285D01*
X88573866Y-157914285D02*
X88764342Y-157961904D01*
X88764342Y-157961904D02*
X88859580Y-158009523D01*
X88859580Y-158009523D02*
X88907200Y-158057142D01*
X88907200Y-158057142D02*
X88954819Y-158152380D01*
X88954819Y-158152380D02*
X88954819Y-158247618D01*
X88954819Y-158247618D02*
X88907200Y-158342856D01*
X88907200Y-158342856D02*
X88859580Y-158390475D01*
X88859580Y-158390475D02*
X88764342Y-158438094D01*
X88764342Y-158438094D02*
X88573866Y-158485713D01*
X88573866Y-158485713D02*
X88335771Y-158485713D01*
X88335771Y-158485713D02*
X88145295Y-158438094D01*
X88145295Y-158438094D02*
X88050057Y-158390475D01*
X88050057Y-158390475D02*
X88002438Y-158342856D01*
X88002438Y-158342856D02*
X87954819Y-158247618D01*
X66890476Y-137354819D02*
X66890476Y-138069104D01*
X66890476Y-138069104D02*
X66842857Y-138211961D01*
X66842857Y-138211961D02*
X66747619Y-138307200D01*
X66747619Y-138307200D02*
X66604762Y-138354819D01*
X66604762Y-138354819D02*
X66509524Y-138354819D01*
X67890476Y-138354819D02*
X67319048Y-138354819D01*
X67604762Y-138354819D02*
X67604762Y-137354819D01*
X67604762Y-137354819D02*
X67509524Y-137497676D01*
X67509524Y-137497676D02*
X67414286Y-137592914D01*
X67414286Y-137592914D02*
X67319048Y-137640533D01*
X68271429Y-137450057D02*
X68319048Y-137402438D01*
X68319048Y-137402438D02*
X68414286Y-137354819D01*
X68414286Y-137354819D02*
X68652381Y-137354819D01*
X68652381Y-137354819D02*
X68747619Y-137402438D01*
X68747619Y-137402438D02*
X68795238Y-137450057D01*
X68795238Y-137450057D02*
X68842857Y-137545295D01*
X68842857Y-137545295D02*
X68842857Y-137640533D01*
X68842857Y-137640533D02*
X68795238Y-137783390D01*
X68795238Y-137783390D02*
X68223810Y-138354819D01*
X68223810Y-138354819D02*
X68842857Y-138354819D01*
X60590476Y-137354819D02*
X60590476Y-138069104D01*
X60590476Y-138069104D02*
X60542857Y-138211961D01*
X60542857Y-138211961D02*
X60447619Y-138307200D01*
X60447619Y-138307200D02*
X60304762Y-138354819D01*
X60304762Y-138354819D02*
X60209524Y-138354819D01*
X61590476Y-138354819D02*
X61019048Y-138354819D01*
X61304762Y-138354819D02*
X61304762Y-137354819D01*
X61304762Y-137354819D02*
X61209524Y-137497676D01*
X61209524Y-137497676D02*
X61114286Y-137592914D01*
X61114286Y-137592914D02*
X61019048Y-137640533D01*
X61923810Y-137354819D02*
X62542857Y-137354819D01*
X62542857Y-137354819D02*
X62209524Y-137735771D01*
X62209524Y-137735771D02*
X62352381Y-137735771D01*
X62352381Y-137735771D02*
X62447619Y-137783390D01*
X62447619Y-137783390D02*
X62495238Y-137831009D01*
X62495238Y-137831009D02*
X62542857Y-137926247D01*
X62542857Y-137926247D02*
X62542857Y-138164342D01*
X62542857Y-138164342D02*
X62495238Y-138259580D01*
X62495238Y-138259580D02*
X62447619Y-138307200D01*
X62447619Y-138307200D02*
X62352381Y-138354819D01*
X62352381Y-138354819D02*
X62066667Y-138354819D01*
X62066667Y-138354819D02*
X61971429Y-138307200D01*
X61971429Y-138307200D02*
X61923810Y-138259580D01*
X107366666Y-137254819D02*
X107366666Y-137969104D01*
X107366666Y-137969104D02*
X107319047Y-138111961D01*
X107319047Y-138111961D02*
X107223809Y-138207200D01*
X107223809Y-138207200D02*
X107080952Y-138254819D01*
X107080952Y-138254819D02*
X106985714Y-138254819D01*
X108271428Y-137254819D02*
X108080952Y-137254819D01*
X108080952Y-137254819D02*
X107985714Y-137302438D01*
X107985714Y-137302438D02*
X107938095Y-137350057D01*
X107938095Y-137350057D02*
X107842857Y-137492914D01*
X107842857Y-137492914D02*
X107795238Y-137683390D01*
X107795238Y-137683390D02*
X107795238Y-138064342D01*
X107795238Y-138064342D02*
X107842857Y-138159580D01*
X107842857Y-138159580D02*
X107890476Y-138207200D01*
X107890476Y-138207200D02*
X107985714Y-138254819D01*
X107985714Y-138254819D02*
X108176190Y-138254819D01*
X108176190Y-138254819D02*
X108271428Y-138207200D01*
X108271428Y-138207200D02*
X108319047Y-138159580D01*
X108319047Y-138159580D02*
X108366666Y-138064342D01*
X108366666Y-138064342D02*
X108366666Y-137826247D01*
X108366666Y-137826247D02*
X108319047Y-137731009D01*
X108319047Y-137731009D02*
X108271428Y-137683390D01*
X108271428Y-137683390D02*
X108176190Y-137635771D01*
X108176190Y-137635771D02*
X107985714Y-137635771D01*
X107985714Y-137635771D02*
X107890476Y-137683390D01*
X107890476Y-137683390D02*
X107842857Y-137731009D01*
X107842857Y-137731009D02*
X107795238Y-137826247D01*
X71754819Y-142109523D02*
X72469104Y-142109523D01*
X72469104Y-142109523D02*
X72611961Y-142157142D01*
X72611961Y-142157142D02*
X72707200Y-142252380D01*
X72707200Y-142252380D02*
X72754819Y-142395237D01*
X72754819Y-142395237D02*
X72754819Y-142490475D01*
X72754819Y-141109523D02*
X72754819Y-141680951D01*
X72754819Y-141395237D02*
X71754819Y-141395237D01*
X71754819Y-141395237D02*
X71897676Y-141490475D01*
X71897676Y-141490475D02*
X71992914Y-141585713D01*
X71992914Y-141585713D02*
X72040533Y-141680951D01*
X72754819Y-140157142D02*
X72754819Y-140728570D01*
X72754819Y-140442856D02*
X71754819Y-140442856D01*
X71754819Y-140442856D02*
X71897676Y-140538094D01*
X71897676Y-140538094D02*
X71992914Y-140633332D01*
X71992914Y-140633332D02*
X72040533Y-140728570D01*
X107966666Y-127181009D02*
X107633333Y-127181009D01*
X107633333Y-127704819D02*
X107633333Y-126704819D01*
X107633333Y-126704819D02*
X108109523Y-126704819D01*
X109014285Y-127704819D02*
X108442857Y-127704819D01*
X108728571Y-127704819D02*
X108728571Y-126704819D01*
X108728571Y-126704819D02*
X108633333Y-126847676D01*
X108633333Y-126847676D02*
X108538095Y-126942914D01*
X108538095Y-126942914D02*
X108442857Y-126990533D01*
X131959580Y-153942857D02*
X132007200Y-153990476D01*
X132007200Y-153990476D02*
X132054819Y-154133333D01*
X132054819Y-154133333D02*
X132054819Y-154228571D01*
X132054819Y-154228571D02*
X132007200Y-154371428D01*
X132007200Y-154371428D02*
X131911961Y-154466666D01*
X131911961Y-154466666D02*
X131816723Y-154514285D01*
X131816723Y-154514285D02*
X131626247Y-154561904D01*
X131626247Y-154561904D02*
X131483390Y-154561904D01*
X131483390Y-154561904D02*
X131292914Y-154514285D01*
X131292914Y-154514285D02*
X131197676Y-154466666D01*
X131197676Y-154466666D02*
X131102438Y-154371428D01*
X131102438Y-154371428D02*
X131054819Y-154228571D01*
X131054819Y-154228571D02*
X131054819Y-154133333D01*
X131054819Y-154133333D02*
X131102438Y-153990476D01*
X131102438Y-153990476D02*
X131150057Y-153942857D01*
X132054819Y-152990476D02*
X132054819Y-153561904D01*
X132054819Y-153276190D02*
X131054819Y-153276190D01*
X131054819Y-153276190D02*
X131197676Y-153371428D01*
X131197676Y-153371428D02*
X131292914Y-153466666D01*
X131292914Y-153466666D02*
X131340533Y-153561904D01*
X131054819Y-152657142D02*
X131054819Y-151990476D01*
X131054819Y-151990476D02*
X132054819Y-152419047D01*
X113866666Y-137354819D02*
X113866666Y-138069104D01*
X113866666Y-138069104D02*
X113819047Y-138211961D01*
X113819047Y-138211961D02*
X113723809Y-138307200D01*
X113723809Y-138307200D02*
X113580952Y-138354819D01*
X113580952Y-138354819D02*
X113485714Y-138354819D01*
X114819047Y-137354819D02*
X114342857Y-137354819D01*
X114342857Y-137354819D02*
X114295238Y-137831009D01*
X114295238Y-137831009D02*
X114342857Y-137783390D01*
X114342857Y-137783390D02*
X114438095Y-137735771D01*
X114438095Y-137735771D02*
X114676190Y-137735771D01*
X114676190Y-137735771D02*
X114771428Y-137783390D01*
X114771428Y-137783390D02*
X114819047Y-137831009D01*
X114819047Y-137831009D02*
X114866666Y-137926247D01*
X114866666Y-137926247D02*
X114866666Y-138164342D01*
X114866666Y-138164342D02*
X114819047Y-138259580D01*
X114819047Y-138259580D02*
X114771428Y-138307200D01*
X114771428Y-138307200D02*
X114676190Y-138354819D01*
X114676190Y-138354819D02*
X114438095Y-138354819D01*
X114438095Y-138354819D02*
X114342857Y-138307200D01*
X114342857Y-138307200D02*
X114295238Y-138259580D01*
X107554819Y-160761904D02*
X108364342Y-160761904D01*
X108364342Y-160761904D02*
X108459580Y-160714285D01*
X108459580Y-160714285D02*
X108507200Y-160666666D01*
X108507200Y-160666666D02*
X108554819Y-160571428D01*
X108554819Y-160571428D02*
X108554819Y-160380952D01*
X108554819Y-160380952D02*
X108507200Y-160285714D01*
X108507200Y-160285714D02*
X108459580Y-160238095D01*
X108459580Y-160238095D02*
X108364342Y-160190476D01*
X108364342Y-160190476D02*
X107554819Y-160190476D01*
X107554819Y-159285714D02*
X107554819Y-159476190D01*
X107554819Y-159476190D02*
X107602438Y-159571428D01*
X107602438Y-159571428D02*
X107650057Y-159619047D01*
X107650057Y-159619047D02*
X107792914Y-159714285D01*
X107792914Y-159714285D02*
X107983390Y-159761904D01*
X107983390Y-159761904D02*
X108364342Y-159761904D01*
X108364342Y-159761904D02*
X108459580Y-159714285D01*
X108459580Y-159714285D02*
X108507200Y-159666666D01*
X108507200Y-159666666D02*
X108554819Y-159571428D01*
X108554819Y-159571428D02*
X108554819Y-159380952D01*
X108554819Y-159380952D02*
X108507200Y-159285714D01*
X108507200Y-159285714D02*
X108459580Y-159238095D01*
X108459580Y-159238095D02*
X108364342Y-159190476D01*
X108364342Y-159190476D02*
X108126247Y-159190476D01*
X108126247Y-159190476D02*
X108031009Y-159238095D01*
X108031009Y-159238095D02*
X107983390Y-159285714D01*
X107983390Y-159285714D02*
X107935771Y-159380952D01*
X107935771Y-159380952D02*
X107935771Y-159571428D01*
X107935771Y-159571428D02*
X107983390Y-159666666D01*
X107983390Y-159666666D02*
X108031009Y-159714285D01*
X108031009Y-159714285D02*
X108126247Y-159761904D01*
X50959580Y-151642857D02*
X51007200Y-151690476D01*
X51007200Y-151690476D02*
X51054819Y-151833333D01*
X51054819Y-151833333D02*
X51054819Y-151928571D01*
X51054819Y-151928571D02*
X51007200Y-152071428D01*
X51007200Y-152071428D02*
X50911961Y-152166666D01*
X50911961Y-152166666D02*
X50816723Y-152214285D01*
X50816723Y-152214285D02*
X50626247Y-152261904D01*
X50626247Y-152261904D02*
X50483390Y-152261904D01*
X50483390Y-152261904D02*
X50292914Y-152214285D01*
X50292914Y-152214285D02*
X50197676Y-152166666D01*
X50197676Y-152166666D02*
X50102438Y-152071428D01*
X50102438Y-152071428D02*
X50054819Y-151928571D01*
X50054819Y-151928571D02*
X50054819Y-151833333D01*
X50054819Y-151833333D02*
X50102438Y-151690476D01*
X50102438Y-151690476D02*
X50150057Y-151642857D01*
X50150057Y-151261904D02*
X50102438Y-151214285D01*
X50102438Y-151214285D02*
X50054819Y-151119047D01*
X50054819Y-151119047D02*
X50054819Y-150880952D01*
X50054819Y-150880952D02*
X50102438Y-150785714D01*
X50102438Y-150785714D02*
X50150057Y-150738095D01*
X50150057Y-150738095D02*
X50245295Y-150690476D01*
X50245295Y-150690476D02*
X50340533Y-150690476D01*
X50340533Y-150690476D02*
X50483390Y-150738095D01*
X50483390Y-150738095D02*
X51054819Y-151309523D01*
X51054819Y-151309523D02*
X51054819Y-150690476D01*
X50054819Y-149833333D02*
X50054819Y-150023809D01*
X50054819Y-150023809D02*
X50102438Y-150119047D01*
X50102438Y-150119047D02*
X50150057Y-150166666D01*
X50150057Y-150166666D02*
X50292914Y-150261904D01*
X50292914Y-150261904D02*
X50483390Y-150309523D01*
X50483390Y-150309523D02*
X50864342Y-150309523D01*
X50864342Y-150309523D02*
X50959580Y-150261904D01*
X50959580Y-150261904D02*
X51007200Y-150214285D01*
X51007200Y-150214285D02*
X51054819Y-150119047D01*
X51054819Y-150119047D02*
X51054819Y-149928571D01*
X51054819Y-149928571D02*
X51007200Y-149833333D01*
X51007200Y-149833333D02*
X50959580Y-149785714D01*
X50959580Y-149785714D02*
X50864342Y-149738095D01*
X50864342Y-149738095D02*
X50626247Y-149738095D01*
X50626247Y-149738095D02*
X50531009Y-149785714D01*
X50531009Y-149785714D02*
X50483390Y-149833333D01*
X50483390Y-149833333D02*
X50435771Y-149928571D01*
X50435771Y-149928571D02*
X50435771Y-150119047D01*
X50435771Y-150119047D02*
X50483390Y-150214285D01*
X50483390Y-150214285D02*
X50531009Y-150261904D01*
X50531009Y-150261904D02*
X50626247Y-150309523D01*
X122354819Y-160166666D02*
X121878628Y-160499999D01*
X122354819Y-160738094D02*
X121354819Y-160738094D01*
X121354819Y-160738094D02*
X121354819Y-160357142D01*
X121354819Y-160357142D02*
X121402438Y-160261904D01*
X121402438Y-160261904D02*
X121450057Y-160214285D01*
X121450057Y-160214285D02*
X121545295Y-160166666D01*
X121545295Y-160166666D02*
X121688152Y-160166666D01*
X121688152Y-160166666D02*
X121783390Y-160214285D01*
X121783390Y-160214285D02*
X121831009Y-160261904D01*
X121831009Y-160261904D02*
X121878628Y-160357142D01*
X121878628Y-160357142D02*
X121878628Y-160738094D01*
X121354819Y-159833332D02*
X121354819Y-159214285D01*
X121354819Y-159214285D02*
X121735771Y-159547618D01*
X121735771Y-159547618D02*
X121735771Y-159404761D01*
X121735771Y-159404761D02*
X121783390Y-159309523D01*
X121783390Y-159309523D02*
X121831009Y-159261904D01*
X121831009Y-159261904D02*
X121926247Y-159214285D01*
X121926247Y-159214285D02*
X122164342Y-159214285D01*
X122164342Y-159214285D02*
X122259580Y-159261904D01*
X122259580Y-159261904D02*
X122307200Y-159309523D01*
X122307200Y-159309523D02*
X122354819Y-159404761D01*
X122354819Y-159404761D02*
X122354819Y-159690475D01*
X122354819Y-159690475D02*
X122307200Y-159785713D01*
X122307200Y-159785713D02*
X122259580Y-159833332D01*
X94366666Y-137054819D02*
X94366666Y-137769104D01*
X94366666Y-137769104D02*
X94319047Y-137911961D01*
X94319047Y-137911961D02*
X94223809Y-138007200D01*
X94223809Y-138007200D02*
X94080952Y-138054819D01*
X94080952Y-138054819D02*
X93985714Y-138054819D01*
X94985714Y-137483390D02*
X94890476Y-137435771D01*
X94890476Y-137435771D02*
X94842857Y-137388152D01*
X94842857Y-137388152D02*
X94795238Y-137292914D01*
X94795238Y-137292914D02*
X94795238Y-137245295D01*
X94795238Y-137245295D02*
X94842857Y-137150057D01*
X94842857Y-137150057D02*
X94890476Y-137102438D01*
X94890476Y-137102438D02*
X94985714Y-137054819D01*
X94985714Y-137054819D02*
X95176190Y-137054819D01*
X95176190Y-137054819D02*
X95271428Y-137102438D01*
X95271428Y-137102438D02*
X95319047Y-137150057D01*
X95319047Y-137150057D02*
X95366666Y-137245295D01*
X95366666Y-137245295D02*
X95366666Y-137292914D01*
X95366666Y-137292914D02*
X95319047Y-137388152D01*
X95319047Y-137388152D02*
X95271428Y-137435771D01*
X95271428Y-137435771D02*
X95176190Y-137483390D01*
X95176190Y-137483390D02*
X94985714Y-137483390D01*
X94985714Y-137483390D02*
X94890476Y-137531009D01*
X94890476Y-137531009D02*
X94842857Y-137578628D01*
X94842857Y-137578628D02*
X94795238Y-137673866D01*
X94795238Y-137673866D02*
X94795238Y-137864342D01*
X94795238Y-137864342D02*
X94842857Y-137959580D01*
X94842857Y-137959580D02*
X94890476Y-138007200D01*
X94890476Y-138007200D02*
X94985714Y-138054819D01*
X94985714Y-138054819D02*
X95176190Y-138054819D01*
X95176190Y-138054819D02*
X95271428Y-138007200D01*
X95271428Y-138007200D02*
X95319047Y-137959580D01*
X95319047Y-137959580D02*
X95366666Y-137864342D01*
X95366666Y-137864342D02*
X95366666Y-137673866D01*
X95366666Y-137673866D02*
X95319047Y-137578628D01*
X95319047Y-137578628D02*
X95271428Y-137531009D01*
X95271428Y-137531009D02*
X95176190Y-137483390D01*
X100354819Y-160661904D02*
X101164342Y-160661904D01*
X101164342Y-160661904D02*
X101259580Y-160614285D01*
X101259580Y-160614285D02*
X101307200Y-160566666D01*
X101307200Y-160566666D02*
X101354819Y-160471428D01*
X101354819Y-160471428D02*
X101354819Y-160280952D01*
X101354819Y-160280952D02*
X101307200Y-160185714D01*
X101307200Y-160185714D02*
X101259580Y-160138095D01*
X101259580Y-160138095D02*
X101164342Y-160090476D01*
X101164342Y-160090476D02*
X100354819Y-160090476D01*
X100354819Y-159709523D02*
X100354819Y-159042857D01*
X100354819Y-159042857D02*
X101354819Y-159471428D01*
X120566666Y-137354819D02*
X120566666Y-138069104D01*
X120566666Y-138069104D02*
X120519047Y-138211961D01*
X120519047Y-138211961D02*
X120423809Y-138307200D01*
X120423809Y-138307200D02*
X120280952Y-138354819D01*
X120280952Y-138354819D02*
X120185714Y-138354819D01*
X121471428Y-137688152D02*
X121471428Y-138354819D01*
X121233333Y-137307200D02*
X120995238Y-138021485D01*
X120995238Y-138021485D02*
X121614285Y-138021485D01*
X126454819Y-151538094D02*
X125454819Y-151538094D01*
X125454819Y-151538094D02*
X125454819Y-151299999D01*
X125454819Y-151299999D02*
X125502438Y-151157142D01*
X125502438Y-151157142D02*
X125597676Y-151061904D01*
X125597676Y-151061904D02*
X125692914Y-151014285D01*
X125692914Y-151014285D02*
X125883390Y-150966666D01*
X125883390Y-150966666D02*
X126026247Y-150966666D01*
X126026247Y-150966666D02*
X126216723Y-151014285D01*
X126216723Y-151014285D02*
X126311961Y-151061904D01*
X126311961Y-151061904D02*
X126407200Y-151157142D01*
X126407200Y-151157142D02*
X126454819Y-151299999D01*
X126454819Y-151299999D02*
X126454819Y-151538094D01*
X125454819Y-150061904D02*
X125454819Y-150538094D01*
X125454819Y-150538094D02*
X125931009Y-150585713D01*
X125931009Y-150585713D02*
X125883390Y-150538094D01*
X125883390Y-150538094D02*
X125835771Y-150442856D01*
X125835771Y-150442856D02*
X125835771Y-150204761D01*
X125835771Y-150204761D02*
X125883390Y-150109523D01*
X125883390Y-150109523D02*
X125931009Y-150061904D01*
X125931009Y-150061904D02*
X126026247Y-150014285D01*
X126026247Y-150014285D02*
X126264342Y-150014285D01*
X126264342Y-150014285D02*
X126359580Y-150061904D01*
X126359580Y-150061904D02*
X126407200Y-150109523D01*
X126407200Y-150109523D02*
X126454819Y-150204761D01*
X126454819Y-150204761D02*
X126454819Y-150442856D01*
X126454819Y-150442856D02*
X126407200Y-150538094D01*
X126407200Y-150538094D02*
X126359580Y-150585713D01*
X56054819Y-164061904D02*
X56864342Y-164061904D01*
X56864342Y-164061904D02*
X56959580Y-164014285D01*
X56959580Y-164014285D02*
X57007200Y-163966666D01*
X57007200Y-163966666D02*
X57054819Y-163871428D01*
X57054819Y-163871428D02*
X57054819Y-163680952D01*
X57054819Y-163680952D02*
X57007200Y-163585714D01*
X57007200Y-163585714D02*
X56959580Y-163538095D01*
X56959580Y-163538095D02*
X56864342Y-163490476D01*
X56864342Y-163490476D02*
X56054819Y-163490476D01*
X56054819Y-163109523D02*
X56054819Y-162490476D01*
X56054819Y-162490476D02*
X56435771Y-162823809D01*
X56435771Y-162823809D02*
X56435771Y-162680952D01*
X56435771Y-162680952D02*
X56483390Y-162585714D01*
X56483390Y-162585714D02*
X56531009Y-162538095D01*
X56531009Y-162538095D02*
X56626247Y-162490476D01*
X56626247Y-162490476D02*
X56864342Y-162490476D01*
X56864342Y-162490476D02*
X56959580Y-162538095D01*
X56959580Y-162538095D02*
X57007200Y-162585714D01*
X57007200Y-162585714D02*
X57054819Y-162680952D01*
X57054819Y-162680952D02*
X57054819Y-162966666D01*
X57054819Y-162966666D02*
X57007200Y-163061904D01*
X57007200Y-163061904D02*
X56959580Y-163109523D01*
X131959580Y-146742857D02*
X132007200Y-146790476D01*
X132007200Y-146790476D02*
X132054819Y-146933333D01*
X132054819Y-146933333D02*
X132054819Y-147028571D01*
X132054819Y-147028571D02*
X132007200Y-147171428D01*
X132007200Y-147171428D02*
X131911961Y-147266666D01*
X131911961Y-147266666D02*
X131816723Y-147314285D01*
X131816723Y-147314285D02*
X131626247Y-147361904D01*
X131626247Y-147361904D02*
X131483390Y-147361904D01*
X131483390Y-147361904D02*
X131292914Y-147314285D01*
X131292914Y-147314285D02*
X131197676Y-147266666D01*
X131197676Y-147266666D02*
X131102438Y-147171428D01*
X131102438Y-147171428D02*
X131054819Y-147028571D01*
X131054819Y-147028571D02*
X131054819Y-146933333D01*
X131054819Y-146933333D02*
X131102438Y-146790476D01*
X131102438Y-146790476D02*
X131150057Y-146742857D01*
X131150057Y-146361904D02*
X131102438Y-146314285D01*
X131102438Y-146314285D02*
X131054819Y-146219047D01*
X131054819Y-146219047D02*
X131054819Y-145980952D01*
X131054819Y-145980952D02*
X131102438Y-145885714D01*
X131102438Y-145885714D02*
X131150057Y-145838095D01*
X131150057Y-145838095D02*
X131245295Y-145790476D01*
X131245295Y-145790476D02*
X131340533Y-145790476D01*
X131340533Y-145790476D02*
X131483390Y-145838095D01*
X131483390Y-145838095D02*
X132054819Y-146409523D01*
X132054819Y-146409523D02*
X132054819Y-145790476D01*
X131150057Y-145409523D02*
X131102438Y-145361904D01*
X131102438Y-145361904D02*
X131054819Y-145266666D01*
X131054819Y-145266666D02*
X131054819Y-145028571D01*
X131054819Y-145028571D02*
X131102438Y-144933333D01*
X131102438Y-144933333D02*
X131150057Y-144885714D01*
X131150057Y-144885714D02*
X131245295Y-144838095D01*
X131245295Y-144838095D02*
X131340533Y-144838095D01*
X131340533Y-144838095D02*
X131483390Y-144885714D01*
X131483390Y-144885714D02*
X132054819Y-145457142D01*
X132054819Y-145457142D02*
X132054819Y-144838095D01*
X119480951Y-133626133D02*
X118719047Y-133626133D01*
X119099999Y-133245180D02*
X119099999Y-134007085D01*
X115066666Y-126954819D02*
X115066666Y-127669104D01*
X115066666Y-127669104D02*
X115019047Y-127811961D01*
X115019047Y-127811961D02*
X114923809Y-127907200D01*
X114923809Y-127907200D02*
X114780952Y-127954819D01*
X114780952Y-127954819D02*
X114685714Y-127954819D01*
X116066666Y-127954819D02*
X115495238Y-127954819D01*
X115780952Y-127954819D02*
X115780952Y-126954819D01*
X115780952Y-126954819D02*
X115685714Y-127097676D01*
X115685714Y-127097676D02*
X115590476Y-127192914D01*
X115590476Y-127192914D02*
X115495238Y-127240533D01*
X119780951Y-129826133D02*
X119019047Y-129826133D01*
X132059580Y-139066666D02*
X132107200Y-139114285D01*
X132107200Y-139114285D02*
X132154819Y-139257142D01*
X132154819Y-139257142D02*
X132154819Y-139352380D01*
X132154819Y-139352380D02*
X132107200Y-139495237D01*
X132107200Y-139495237D02*
X132011961Y-139590475D01*
X132011961Y-139590475D02*
X131916723Y-139638094D01*
X131916723Y-139638094D02*
X131726247Y-139685713D01*
X131726247Y-139685713D02*
X131583390Y-139685713D01*
X131583390Y-139685713D02*
X131392914Y-139638094D01*
X131392914Y-139638094D02*
X131297676Y-139590475D01*
X131297676Y-139590475D02*
X131202438Y-139495237D01*
X131202438Y-139495237D02*
X131154819Y-139352380D01*
X131154819Y-139352380D02*
X131154819Y-139257142D01*
X131154819Y-139257142D02*
X131202438Y-139114285D01*
X131202438Y-139114285D02*
X131250057Y-139066666D01*
X131250057Y-138685713D02*
X131202438Y-138638094D01*
X131202438Y-138638094D02*
X131154819Y-138542856D01*
X131154819Y-138542856D02*
X131154819Y-138304761D01*
X131154819Y-138304761D02*
X131202438Y-138209523D01*
X131202438Y-138209523D02*
X131250057Y-138161904D01*
X131250057Y-138161904D02*
X131345295Y-138114285D01*
X131345295Y-138114285D02*
X131440533Y-138114285D01*
X131440533Y-138114285D02*
X131583390Y-138161904D01*
X131583390Y-138161904D02*
X132154819Y-138733332D01*
X132154819Y-138733332D02*
X132154819Y-138114285D01*
D11*
G04 #@! TO.C,U8*
X76300000Y-155400000D02*
X71300000Y-155400000D01*
X71300000Y-155400000D02*
X71300000Y-163200000D01*
X76900000Y-163200000D02*
X76900000Y-156000000D01*
X71300000Y-163200000D02*
X76900000Y-163200000D01*
D12*
X76763500Y-155600000D02*
G75*
G03*
X76763500Y-155600000I-63500J0D01*
G01*
D11*
G04 #@! TO.C,D4*
X79500000Y-135000000D02*
X76700000Y-135000000D01*
X76700000Y-138600000D02*
X79500000Y-138600000D01*
X76700000Y-135000000D02*
X76700000Y-138600000D01*
X79500000Y-138600000D02*
X79500000Y-135000000D01*
G04 #@! TO.C,D1*
X119350000Y-132900000D02*
X119350000Y-136500000D01*
X126550000Y-136500000D02*
X126550000Y-132900000D01*
X119350000Y-136500000D02*
X126550000Y-136500000D01*
X126550000Y-132900000D02*
X119350000Y-132900000D01*
D13*
X121750000Y-132900000D02*
X120650000Y-132900000D01*
X120650000Y-132500000D01*
X121750000Y-132500000D01*
X121750000Y-132900000D01*
G36*
X121750000Y-132900000D02*
G01*
X120650000Y-132900000D01*
X120650000Y-132500000D01*
X121750000Y-132500000D01*
X121750000Y-132900000D01*
G37*
X121750000Y-136900000D02*
X120650000Y-136900000D01*
X120650000Y-136500000D01*
X121750000Y-136500000D01*
X121750000Y-136900000D01*
G36*
X121750000Y-136900000D02*
G01*
X120650000Y-136900000D01*
X120650000Y-136500000D01*
X121750000Y-136500000D01*
X121750000Y-136900000D01*
G37*
D11*
G04 #@! TO.C,J10*
X82655000Y-141270000D02*
X82655000Y-154030000D01*
X79995000Y-154030000D02*
X82655000Y-154030000D01*
X79995000Y-141270000D02*
X79995000Y-154030000D01*
X81325000Y-138670000D02*
X82655000Y-138670000D01*
X79995000Y-141270000D02*
X82655000Y-141270000D01*
X82655000Y-138670000D02*
X82655000Y-140000000D01*
G04 #@! TO.C,C8*
X78500002Y-159100000D02*
X78500000Y-156500000D01*
X76899998Y-156500000D02*
X76900000Y-159100000D01*
X76900001Y-159099999D02*
G75*
G03*
X78500001Y-159099999I800000J840223D01*
G01*
X78499999Y-156500001D02*
G75*
G03*
X76899999Y-156500001I-800000J-840223D01*
G01*
G04 #@! TO.C,U5*
X112500000Y-156200000D02*
X112500000Y-163300000D01*
X118100000Y-163800000D02*
X118100000Y-156200000D01*
X113000000Y-163800000D02*
X118100000Y-163800000D01*
X118100000Y-156200000D02*
X112500000Y-156200000D01*
D14*
X112763500Y-163600000D02*
G75*
G03*
X112763500Y-163600000I-63500J0D01*
G01*
D11*
G04 #@! TO.C,R7*
X85700000Y-129800000D02*
X88700000Y-129800000D01*
X88700000Y-129800000D02*
X88700000Y-128200000D01*
X85700000Y-128200000D02*
X85700000Y-129800000D01*
X88700000Y-128200000D02*
X85700000Y-128200000D01*
G04 #@! TO.C,R36*
X112500000Y-163800000D02*
X112500000Y-165400000D01*
X112500000Y-165400000D02*
X115500000Y-165400000D01*
X115500000Y-165400000D02*
X115500000Y-163800000D01*
X115500000Y-163800000D02*
X112500000Y-163800000D01*
G04 #@! TO.C,R68*
X102500000Y-154500000D02*
X99500000Y-154500000D01*
X102500000Y-156100000D02*
X102500000Y-154500000D01*
X99500000Y-154500000D02*
X99500000Y-156100000D01*
X99500000Y-156100000D02*
X102500000Y-156100000D01*
G04 #@! TO.C,C61*
X96500000Y-154500002D02*
X99100000Y-154500000D01*
X99100000Y-152899998D02*
X96500000Y-152900000D01*
X99099999Y-154499999D02*
G75*
G03*
X99099999Y-152899999I-840223J800000D01*
G01*
X96500001Y-152900001D02*
G75*
G03*
X96500001Y-154500001I840223J-800000D01*
G01*
G04 #@! TO.C,C51*
X99100000Y-154499998D02*
X96500000Y-154500000D01*
X96500000Y-156100002D02*
X99100000Y-156100000D01*
X99099999Y-156099999D02*
G75*
G03*
X99099999Y-154499999I-840223J800000D01*
G01*
X96500001Y-154500001D02*
G75*
G03*
X96500001Y-156100001I840223J-800000D01*
G01*
G04 #@! TO.C,R71*
X79600000Y-152300000D02*
X78000000Y-152300000D01*
X78000000Y-152300000D02*
X78000000Y-155300000D01*
X78000000Y-155300000D02*
X79600000Y-155300000D01*
X79600000Y-155300000D02*
X79600000Y-152300000D01*
G04 #@! TO.C,R18*
X96500000Y-159100000D02*
X94900000Y-159100000D01*
X94900000Y-159100000D02*
X94900000Y-162100000D01*
X96500000Y-162100000D02*
X96500000Y-159100000D01*
X94900000Y-162100000D02*
X96500000Y-162100000D01*
G04 #@! TO.C,C19*
X45800000Y-142300000D02*
X45800000Y-144500000D01*
X54200000Y-145900000D02*
X54200000Y-144500000D01*
X47000000Y-144500000D02*
X47000000Y-147000000D01*
X47000000Y-139800000D02*
X47000000Y-142300000D01*
X45800000Y-144500000D02*
X47000000Y-144500000D01*
X55400000Y-142300000D02*
X54200000Y-142300000D01*
X47000000Y-142300000D02*
X45800000Y-142300000D01*
X54200000Y-142300000D02*
X54200000Y-140900000D01*
X53100000Y-139800000D02*
X47000000Y-139800000D01*
X54200000Y-140900000D02*
X53100000Y-139800000D01*
X54900000Y-145593750D02*
X54900000Y-144806250D01*
X53100000Y-147000000D02*
X54200000Y-145900000D01*
X55400000Y-144500000D02*
X55400000Y-142300000D01*
X47000000Y-147000000D02*
X53100000Y-147000000D01*
X54200000Y-144500000D02*
X55400000Y-144500000D01*
X55293750Y-145200000D02*
X54506250Y-145200000D01*
G04 #@! TO.C,R4*
X92600000Y-135300000D02*
X92600000Y-132300000D01*
X91000000Y-135300000D02*
X92600000Y-135300000D01*
X92600000Y-132300000D02*
X91000000Y-132300000D01*
X91000000Y-132300000D02*
X91000000Y-135300000D01*
G04 #@! TO.C,J9*
X89255000Y-138670000D02*
X89255000Y-140000000D01*
X86595000Y-141270000D02*
X86595000Y-154030000D01*
X86595000Y-141270000D02*
X89255000Y-141270000D01*
X86595000Y-154030000D02*
X89255000Y-154030000D01*
X89255000Y-141270000D02*
X89255000Y-154030000D01*
X87925000Y-138670000D02*
X89255000Y-138670000D01*
G04 #@! TO.C,J7*
X99795000Y-141270000D02*
X99795000Y-154030000D01*
X102455000Y-141270000D02*
X102455000Y-154030000D01*
X102455000Y-138670000D02*
X102455000Y-140000000D01*
X99795000Y-154030000D02*
X102455000Y-154030000D01*
X101125000Y-138670000D02*
X102455000Y-138670000D01*
X99795000Y-141270000D02*
X102455000Y-141270000D01*
G04 #@! TO.C,C16*
X103699998Y-160100000D02*
X103700000Y-162700000D01*
X105300002Y-162700000D02*
X105300000Y-160100000D01*
X103700001Y-162699999D02*
G75*
G03*
X105300001Y-162699999I800000J840223D01*
G01*
X105299999Y-160100001D02*
G75*
G03*
X103699999Y-160100001I-800000J-840223D01*
G01*
G04 #@! TO.C,U9*
X83500000Y-155400000D02*
X78500000Y-155400000D01*
X78500000Y-163200000D02*
X84100000Y-163200000D01*
X84100000Y-163200000D02*
X84100000Y-156000000D01*
X78500000Y-155400000D02*
X78500000Y-163200000D01*
D12*
X83963500Y-155600000D02*
G75*
G03*
X83963500Y-155600000I-63500J0D01*
G01*
D11*
G04 #@! TO.C,C31*
X95100000Y-165300002D02*
X97700000Y-165300000D01*
X97700000Y-163699998D02*
X95100000Y-163700000D01*
X97699999Y-165299999D02*
G75*
G03*
X97699999Y-163699999I-840223J800000D01*
G01*
X95100001Y-163700001D02*
G75*
G03*
X95100001Y-165300001I840223J-800000D01*
G01*
G04 #@! TO.C,C56*
X69699998Y-154700000D02*
X69700000Y-157300000D01*
X71300002Y-157300000D02*
X71300000Y-154700000D01*
X69700001Y-157299999D02*
G75*
G03*
X71300001Y-157299999I800000J840223D01*
G01*
X71299999Y-154700001D02*
G75*
G03*
X69699999Y-154700001I-800000J-840223D01*
G01*
G04 #@! TO.C,R12*
X58100000Y-154600000D02*
X56500000Y-154600000D01*
X58100000Y-157600000D02*
X58100000Y-154600000D01*
X56500000Y-154600000D02*
X56500000Y-157600000D01*
X56500000Y-157600000D02*
X58100000Y-157600000D01*
G04 #@! TO.C,C20*
X103699998Y-156800000D02*
X103700000Y-159400000D01*
X105300002Y-159400000D02*
X105300000Y-156800000D01*
X103700001Y-159399999D02*
G75*
G03*
X105300001Y-159399999I800000J840223D01*
G01*
X105299999Y-156800001D02*
G75*
G03*
X103699999Y-156800001I-800000J-840223D01*
G01*
G04 #@! TO.C,R6*
X89400000Y-135300000D02*
X91000000Y-135300000D01*
X91000000Y-135300000D02*
X91000000Y-132300000D01*
X89400000Y-132300000D02*
X89400000Y-135300000D01*
X91000000Y-132300000D02*
X89400000Y-132300000D01*
G04 #@! TO.C,C15*
X95200000Y-158100002D02*
X97800000Y-158100000D01*
X97800000Y-156499998D02*
X95200000Y-156500000D01*
X95200001Y-156500001D02*
G75*
G03*
X95200001Y-158100001I840223J-800000D01*
G01*
X97799999Y-158099999D02*
G75*
G03*
X97799999Y-156499999I-840223J800000D01*
G01*
G04 #@! TO.C,R14*
X70700000Y-132400000D02*
X67700000Y-132400000D01*
X67700000Y-132400000D02*
X67700000Y-134000000D01*
X70700000Y-134000000D02*
X70700000Y-132400000D01*
X67700000Y-134000000D02*
X70700000Y-134000000D01*
G04 #@! TO.C,C6*
X71300002Y-160600000D02*
X71300000Y-158000000D01*
X69699998Y-158000000D02*
X69700000Y-160600000D01*
X69700001Y-160599999D02*
G75*
G03*
X71300001Y-160599999I800000J840223D01*
G01*
X71299999Y-158000001D02*
G75*
G03*
X69699999Y-158000001I-800000J-840223D01*
G01*
G04 #@! TO.C,R40*
X92400000Y-164800000D02*
X92400000Y-163200000D01*
X89400000Y-164800000D02*
X92400000Y-164800000D01*
X92400000Y-163200000D02*
X89400000Y-163200000D01*
X89400000Y-163200000D02*
X89400000Y-164800000D01*
G04 #@! TO.C,U10*
X85700000Y-163200000D02*
X91300000Y-163200000D01*
X90700000Y-155400000D02*
X85700000Y-155400000D01*
X85700000Y-155400000D02*
X85700000Y-163200000D01*
X91300000Y-163200000D02*
X91300000Y-156000000D01*
D12*
X91163500Y-155600000D02*
G75*
G03*
X91163500Y-155600000I-63500J0D01*
G01*
D11*
G04 #@! TO.C,J12*
X66795000Y-141270000D02*
X66795000Y-154030000D01*
X68125000Y-138670000D02*
X69455000Y-138670000D01*
X69455000Y-138670000D02*
X69455000Y-140000000D01*
X66795000Y-154030000D02*
X69455000Y-154030000D01*
X66795000Y-141270000D02*
X69455000Y-141270000D01*
X69455000Y-141270000D02*
X69455000Y-154030000D01*
G04 #@! TO.C,R11*
X126000000Y-160800000D02*
X124400000Y-160800000D01*
X126000000Y-163800000D02*
X126000000Y-160800000D01*
X124400000Y-160800000D02*
X124400000Y-163800000D01*
X124400000Y-163800000D02*
X126000000Y-163800000D01*
G04 #@! TO.C,R67*
X109600000Y-156200000D02*
X109600000Y-154600000D01*
X109600000Y-154600000D02*
X106600000Y-154600000D01*
X106600000Y-154600000D02*
X106600000Y-156200000D01*
X106600000Y-156200000D02*
X109600000Y-156200000D01*
G04 #@! TO.C,J13*
X60195000Y-141270000D02*
X62855000Y-141270000D01*
X60195000Y-154030000D02*
X62855000Y-154030000D01*
X61525000Y-138670000D02*
X62855000Y-138670000D01*
X60195000Y-141270000D02*
X60195000Y-154030000D01*
X62855000Y-141270000D02*
X62855000Y-154030000D01*
X62855000Y-138670000D02*
X62855000Y-140000000D01*
G04 #@! TO.C,R38*
X98100000Y-165300000D02*
X101100000Y-165300000D01*
X101100000Y-163700000D02*
X98100000Y-163700000D01*
X101100000Y-165300000D02*
X101100000Y-163700000D01*
X98100000Y-163700000D02*
X98100000Y-165300000D01*
G04 #@! TO.C,R69*
X86200000Y-155400000D02*
X86200000Y-152400000D01*
X86200000Y-152400000D02*
X84600000Y-152400000D01*
X84600000Y-152400000D02*
X84600000Y-155400000D01*
X84600000Y-155400000D02*
X86200000Y-155400000D01*
G04 #@! TO.C,R66*
X116700000Y-156200000D02*
X116700000Y-154600000D01*
X113700000Y-156200000D02*
X116700000Y-156200000D01*
X113700000Y-154600000D02*
X113700000Y-156200000D01*
X116700000Y-154600000D02*
X113700000Y-154600000D01*
G04 #@! TO.C,J6*
X106395000Y-141270000D02*
X109055000Y-141270000D01*
X109055000Y-138670000D02*
X109055000Y-140000000D01*
X106395000Y-154030000D02*
X109055000Y-154030000D01*
X109055000Y-141270000D02*
X109055000Y-154030000D01*
X107725000Y-138670000D02*
X109055000Y-138670000D01*
X106395000Y-141270000D02*
X106395000Y-154030000D01*
G04 #@! TO.C,J11*
X76055000Y-141270000D02*
X76055000Y-154030000D01*
X74725000Y-138670000D02*
X76055000Y-138670000D01*
X76055000Y-138670000D02*
X76055000Y-140000000D01*
X73395000Y-141270000D02*
X73395000Y-154030000D01*
X73395000Y-154030000D02*
X76055000Y-154030000D01*
X73395000Y-141270000D02*
X76055000Y-141270000D01*
G04 #@! TO.C,F1*
X114300000Y-126450000D02*
X109500000Y-126450000D01*
X109500000Y-126450000D02*
X109500000Y-129050000D01*
X109500000Y-129050000D02*
X114300000Y-129050000D01*
X114300000Y-129050000D02*
X114300000Y-126450000D01*
G04 #@! TO.C,C68*
X51300000Y-135500000D02*
X51300000Y-138500000D01*
X53300000Y-138500000D02*
X53300000Y-135500000D01*
X51300000Y-138500000D02*
G75*
G03*
X53300000Y-138500000I1000000J1122254D01*
G01*
X53300000Y-135500000D02*
G75*
G03*
X51300000Y-135500000I-1000000J-1122254D01*
G01*
G04 #@! TO.C,C17*
X128000000Y-152200000D02*
X126800000Y-152200000D01*
X135200000Y-152200000D02*
X135200000Y-150800000D01*
X135200000Y-150800000D02*
X134100000Y-149700000D01*
X126800000Y-154400000D02*
X128000000Y-154400000D01*
X134100000Y-149700000D02*
X128000000Y-149700000D01*
X126800000Y-152200000D02*
X126800000Y-154400000D01*
X128000000Y-149700000D02*
X128000000Y-152200000D01*
X128000000Y-156900000D02*
X134100000Y-156900000D01*
X136400000Y-154400000D02*
X136400000Y-152200000D01*
X136400000Y-152200000D02*
X135200000Y-152200000D01*
X135200000Y-155800000D02*
X135200000Y-154400000D01*
X135900000Y-155493750D02*
X135900000Y-154706250D01*
X134100000Y-156900000D02*
X135200000Y-155800000D01*
X135200000Y-154400000D02*
X136400000Y-154400000D01*
X128000000Y-154400000D02*
X128000000Y-156900000D01*
X136293750Y-155100000D02*
X135506250Y-155100000D01*
G04 #@! TO.C,C13*
X76899998Y-159800000D02*
X76900000Y-162400000D01*
X78500002Y-162400000D02*
X78500000Y-159800000D01*
X76900001Y-162399999D02*
G75*
G03*
X78500001Y-162399999I800000J840223D01*
G01*
X78499999Y-159800001D02*
G75*
G03*
X76899999Y-159800001I-800000J-840223D01*
G01*
G04 #@! TO.C,R37*
X105300000Y-165400000D02*
X108300000Y-165400000D01*
X105300000Y-163800000D02*
X105300000Y-165400000D01*
X108300000Y-165400000D02*
X108300000Y-163800000D01*
X108300000Y-163800000D02*
X105300000Y-163800000D01*
G04 #@! TO.C,R75*
X54800000Y-133343630D02*
X51800000Y-133343630D01*
X51800000Y-134943630D02*
X54800000Y-134943630D01*
X51800000Y-133343630D02*
X51800000Y-134943630D01*
X54800000Y-134943630D02*
X54800000Y-133343630D01*
G04 #@! TO.C,R8*
X126000000Y-160825000D02*
X126000000Y-157825000D01*
X124400000Y-157825000D02*
X124400000Y-160825000D01*
X124400000Y-160825000D02*
X126000000Y-160825000D01*
X126000000Y-157825000D02*
X124400000Y-157825000D01*
G04 #@! TO.C,C46*
X70900000Y-162599998D02*
X68300000Y-162600000D01*
X68300000Y-164200002D02*
X70900000Y-164200000D01*
X68300001Y-162600001D02*
G75*
G03*
X68300001Y-164200001I840223J-800000D01*
G01*
X70899999Y-164199999D02*
G75*
G03*
X70899999Y-162599999I-840223J800000D01*
G01*
G04 #@! TO.C,R5*
X85700000Y-131400000D02*
X88700000Y-131400000D01*
X88700000Y-131400000D02*
X88700000Y-129800000D01*
X88700000Y-129800000D02*
X85700000Y-129800000D01*
X85700000Y-129800000D02*
X85700000Y-131400000D01*
G04 #@! TO.C,R48*
X96500000Y-162100000D02*
X98100000Y-162100000D01*
X98100000Y-159100000D02*
X96500000Y-159100000D01*
X98100000Y-162100000D02*
X98100000Y-159100000D01*
X96500000Y-159100000D02*
X96500000Y-162100000D01*
G04 #@! TO.C,J5*
X114325000Y-138670000D02*
X115655000Y-138670000D01*
X112995000Y-141270000D02*
X112995000Y-154030000D01*
X112995000Y-141270000D02*
X115655000Y-141270000D01*
X115655000Y-141270000D02*
X115655000Y-154030000D01*
X112995000Y-154030000D02*
X115655000Y-154030000D01*
X115655000Y-138670000D02*
X115655000Y-140000000D01*
G04 #@! TO.C,C7*
X119700002Y-164800000D02*
X119700000Y-162200000D01*
X118099998Y-162200000D02*
X118100000Y-164800000D01*
X119699999Y-162200001D02*
G75*
G03*
X118099999Y-162200001I-800000J-840223D01*
G01*
X118100001Y-164799999D02*
G75*
G03*
X119700001Y-164799999I800000J840223D01*
G01*
G04 #@! TO.C,U6*
X110900000Y-163800000D02*
X110900000Y-156200000D01*
X105800000Y-163800000D02*
X110900000Y-163800000D01*
X105300000Y-156200000D02*
X105300000Y-163300000D01*
X110900000Y-156200000D02*
X105300000Y-156200000D01*
D14*
X105563500Y-163600000D02*
G75*
G03*
X105563500Y-163600000I-63500J0D01*
G01*
D11*
G04 #@! TO.C,R44*
X77300000Y-165000000D02*
X77300000Y-163400000D01*
X77300000Y-163400000D02*
X74300000Y-163400000D01*
X74300000Y-163400000D02*
X74300000Y-165000000D01*
X74300000Y-165000000D02*
X77300000Y-165000000D01*
G04 #@! TO.C,C26*
X45800000Y-149900000D02*
X45800000Y-152100000D01*
X47000000Y-154600000D02*
X53100000Y-154600000D01*
X45800000Y-152100000D02*
X47000000Y-152100000D01*
X53100000Y-154600000D02*
X54200000Y-153500000D01*
X54900000Y-153193750D02*
X54900000Y-152406250D01*
X54200000Y-149900000D02*
X54200000Y-148500000D01*
X47000000Y-152100000D02*
X47000000Y-154600000D01*
X54200000Y-153500000D02*
X54200000Y-152100000D01*
X55400000Y-152100000D02*
X55400000Y-149900000D01*
X47000000Y-149900000D02*
X45800000Y-149900000D01*
X54200000Y-148500000D02*
X53100000Y-147400000D01*
X54200000Y-152100000D02*
X55400000Y-152100000D01*
X55400000Y-149900000D02*
X54200000Y-149900000D01*
X55293750Y-152800000D02*
X54506250Y-152800000D01*
X47000000Y-147400000D02*
X47000000Y-149900000D01*
X53100000Y-147400000D02*
X47000000Y-147400000D01*
G04 #@! TO.C,R74*
X78000000Y-155300000D02*
X78000000Y-152300000D01*
X76400000Y-152300000D02*
X76400000Y-155300000D01*
X78000000Y-152300000D02*
X76400000Y-152300000D01*
X76400000Y-155300000D02*
X78000000Y-155300000D01*
G04 #@! TO.C,R73*
X71300000Y-155400000D02*
X72900000Y-155400000D01*
X72900000Y-152400000D02*
X71300000Y-152400000D01*
X72900000Y-155400000D02*
X72900000Y-152400000D01*
X71300000Y-152400000D02*
X71300000Y-155400000D01*
G04 #@! TO.C,R3*
X124000000Y-156200000D02*
X120000000Y-156200000D01*
X124000000Y-164000000D02*
X124000000Y-156200000D01*
X120000000Y-164000000D02*
X124000000Y-164000000D01*
X120000000Y-156200000D02*
X120000000Y-164000000D01*
G04 #@! TO.C,C66*
X69699998Y-151400000D02*
X69700000Y-154000000D01*
X71300002Y-154000000D02*
X71300000Y-151400000D01*
X69700001Y-153999999D02*
G75*
G03*
X71300001Y-153999999I800000J840223D01*
G01*
X71299999Y-151400001D02*
G75*
G03*
X69699999Y-151400001I-800000J-840223D01*
G01*
G04 #@! TO.C,C36*
X70900000Y-160999998D02*
X68300000Y-161000000D01*
X68300000Y-162600002D02*
X70900000Y-162600000D01*
X68300001Y-161000001D02*
G75*
G03*
X68300001Y-162600001I840223J-800000D01*
G01*
X70899999Y-162599999D02*
G75*
G03*
X70899999Y-160999999I-840223J800000D01*
G01*
G04 #@! TO.C,J8*
X93195000Y-154030000D02*
X95855000Y-154030000D01*
X93195000Y-141270000D02*
X95855000Y-141270000D01*
X95855000Y-138670000D02*
X95855000Y-140000000D01*
X94525000Y-138670000D02*
X95855000Y-138670000D01*
X93195000Y-141270000D02*
X93195000Y-154030000D01*
X95855000Y-141270000D02*
X95855000Y-154030000D01*
G04 #@! TO.C,U7*
X98100000Y-156100000D02*
X98100000Y-163200000D01*
X98600000Y-163700000D02*
X103700000Y-163700000D01*
X103700000Y-163700000D02*
X103700000Y-156100000D01*
X103700000Y-156100000D02*
X98100000Y-156100000D01*
D14*
X98363500Y-163500000D02*
G75*
G03*
X98363500Y-163500000I-63500J0D01*
G01*
D11*
G04 #@! TO.C,J4*
X119595000Y-141270000D02*
X122255000Y-141270000D01*
X119595000Y-141270000D02*
X119595000Y-154030000D01*
X120925000Y-138670000D02*
X122255000Y-138670000D01*
X119595000Y-154030000D02*
X122255000Y-154030000D01*
X122255000Y-138670000D02*
X122255000Y-140000000D01*
X122255000Y-141270000D02*
X122255000Y-154030000D01*
G04 #@! TO.C,R28*
X94900000Y-159100000D02*
X93300000Y-159100000D01*
X93300000Y-159100000D02*
X93300000Y-162100000D01*
X94900000Y-162100000D02*
X94900000Y-159100000D01*
X93300000Y-162100000D02*
X94900000Y-162100000D01*
G04 #@! TO.C,R58*
X96400000Y-152900000D02*
X98000000Y-152900000D01*
X98000000Y-149900000D02*
X96400000Y-149900000D01*
X96400000Y-149900000D02*
X96400000Y-152900000D01*
X98000000Y-152900000D02*
X98000000Y-149900000D01*
G04 #@! TO.C,C10*
X84099998Y-156400000D02*
X84100000Y-159000000D01*
X85700002Y-159000000D02*
X85700000Y-156400000D01*
X84100001Y-158999999D02*
G75*
G03*
X85700001Y-158999999I800000J840223D01*
G01*
X85699999Y-156400001D02*
G75*
G03*
X84099999Y-156400001I-800000J-840223D01*
G01*
G04 #@! TO.C,D5*
X124200000Y-151800000D02*
X124200000Y-157200000D01*
X126600000Y-157200000D02*
X126600000Y-151800000D01*
X124200000Y-157200000D02*
X126600000Y-157200000D01*
X126600000Y-151800000D02*
X124200000Y-151800000D01*
D13*
X124200000Y-156000000D02*
X123900000Y-156000000D01*
X123900000Y-155200000D01*
X124200000Y-155200000D01*
X124200000Y-156000000D01*
G36*
X124200000Y-156000000D02*
G01*
X123900000Y-156000000D01*
X123900000Y-155200000D01*
X124200000Y-155200000D01*
X124200000Y-156000000D01*
G37*
X126900000Y-156000000D02*
X126600000Y-156000000D01*
X126600000Y-155200000D01*
X126900000Y-155200000D01*
X126900000Y-156000000D01*
G36*
X126900000Y-156000000D02*
G01*
X126600000Y-156000000D01*
X126600000Y-155200000D01*
X126900000Y-155200000D01*
X126900000Y-156000000D01*
G37*
D11*
G04 #@! TO.C,C11*
X91299998Y-159600000D02*
X91300000Y-162200000D01*
X92900002Y-162200000D02*
X92900000Y-159600000D01*
X92899999Y-159600001D02*
G75*
G03*
X91299999Y-159600001I-800000J-840223D01*
G01*
X91300001Y-162199999D02*
G75*
G03*
X92900001Y-162199999I800000J840223D01*
G01*
G04 #@! TO.C,R39*
X91200000Y-155400000D02*
X91200000Y-152400000D01*
X89600000Y-152400000D02*
X89600000Y-155400000D01*
X89600000Y-155400000D02*
X91200000Y-155400000D01*
X91200000Y-152400000D02*
X89600000Y-152400000D01*
G04 #@! TO.C,U3*
X53400000Y-161013500D02*
X53400000Y-158913500D01*
X46600000Y-161013500D02*
X46600000Y-158913500D01*
X47400000Y-158713500D02*
X47400000Y-158513500D01*
X55621000Y-165670000D02*
X45380000Y-165670000D01*
X46800000Y-158713500D02*
X46800000Y-158513500D01*
X51135000Y-161029000D02*
X49865000Y-161029000D01*
X54200000Y-158713500D02*
X54200000Y-158513500D01*
X47600000Y-161013500D02*
X47600000Y-158913500D01*
X52350000Y-165670000D02*
X52350000Y-164161000D01*
X55621000Y-164161000D02*
X45380000Y-164161000D01*
X54400000Y-158913500D02*
X54200000Y-158713500D01*
X55621000Y-165670000D02*
X55621000Y-161029000D01*
X45380000Y-165670000D02*
X45380000Y-161029000D01*
X50000000Y-158913500D02*
X50200000Y-158713500D01*
X47600000Y-158913500D02*
X47400000Y-158713500D01*
X48650000Y-165670000D02*
X48650000Y-164161000D01*
X50800000Y-158713500D02*
X50800000Y-158513500D01*
X47735000Y-161029000D02*
X45380000Y-161029000D01*
X53600000Y-158713500D02*
X53600000Y-158513500D01*
X53400000Y-158913500D02*
X53600000Y-158713500D01*
X51000000Y-158913500D02*
X50800000Y-158713500D01*
X55621000Y-161029000D02*
X53265000Y-161029000D01*
X54400000Y-161013500D02*
X54400000Y-158913500D01*
X50200000Y-158713500D02*
X50200000Y-158513500D01*
X46600000Y-158913500D02*
X46800000Y-158713500D01*
X50000000Y-161013500D02*
X50000000Y-158913500D01*
X51000000Y-161013500D02*
X51000000Y-158913500D01*
G04 #@! TO.C,C12*
X112500002Y-159400000D02*
X112500000Y-156800000D01*
X110899998Y-156800000D02*
X110900000Y-159400000D01*
X110900001Y-159399999D02*
G75*
G03*
X112500001Y-159399999I800000J840223D01*
G01*
X112499999Y-156800001D02*
G75*
G03*
X110899999Y-156800001I-800000J-840223D01*
G01*
G04 #@! TO.C,R42*
X80300000Y-164800000D02*
X80300000Y-163200000D01*
X77300000Y-164800000D02*
X80300000Y-164800000D01*
X80300000Y-163200000D02*
X77300000Y-163200000D01*
X77300000Y-163200000D02*
X77300000Y-164800000D01*
G04 #@! TO.C,C9*
X85700002Y-162300000D02*
X85700000Y-159700000D01*
X84099998Y-159700000D02*
X84100000Y-162300000D01*
X85699999Y-159700001D02*
G75*
G03*
X84099999Y-159700001I-800000J-840223D01*
G01*
X84100001Y-162299999D02*
G75*
G03*
X85700001Y-162299999I800000J840223D01*
G01*
G04 #@! TO.C,C22*
X134100000Y-142500000D02*
X128000000Y-142500000D01*
X135200000Y-147200000D02*
X136400000Y-147200000D01*
X128000000Y-142500000D02*
X128000000Y-145000000D01*
X136400000Y-145000000D02*
X135200000Y-145000000D01*
X135200000Y-143600000D02*
X134100000Y-142500000D01*
X135200000Y-145000000D02*
X135200000Y-143600000D01*
X126800000Y-145000000D02*
X126800000Y-147200000D01*
X128000000Y-147200000D02*
X128000000Y-149700000D01*
X135200000Y-148600000D02*
X135200000Y-147200000D01*
X136400000Y-147200000D02*
X136400000Y-145000000D01*
X128000000Y-149700000D02*
X134100000Y-149700000D01*
X136293750Y-147900000D02*
X135506250Y-147900000D01*
X128000000Y-145000000D02*
X126800000Y-145000000D01*
X126800000Y-147200000D02*
X128000000Y-147200000D01*
X134100000Y-149700000D02*
X135200000Y-148600000D01*
X135900000Y-148293750D02*
X135900000Y-147506250D01*
G04 #@! TO.C,R70*
X85000000Y-163200000D02*
X85000000Y-164800000D01*
X85000000Y-164800000D02*
X88000000Y-164800000D01*
X88000000Y-163200000D02*
X85000000Y-163200000D01*
X88000000Y-164800000D02*
X88000000Y-163200000D01*
G04 #@! TO.C,R33*
X64900000Y-164200000D02*
X67900000Y-164200000D01*
X67900000Y-162600000D02*
X64900000Y-162600000D01*
X67900000Y-164200000D02*
X67900000Y-162600000D01*
X64900000Y-162600000D02*
X64900000Y-164200000D01*
G04 #@! TO.C,C21*
X110899998Y-160100000D02*
X110900000Y-162700000D01*
X112500002Y-162700000D02*
X112500000Y-160100000D01*
X110900001Y-162699999D02*
G75*
G03*
X112500001Y-162699999I800000J840223D01*
G01*
X112499999Y-160100001D02*
G75*
G03*
X110899999Y-160100001I-800000J-840223D01*
G01*
G04 #@! TO.C,R72*
X81100000Y-165000000D02*
X84100000Y-165000000D01*
X84100000Y-165000000D02*
X84100000Y-163400000D01*
X81100000Y-163400000D02*
X81100000Y-165000000D01*
X84100000Y-163400000D02*
X81100000Y-163400000D01*
G04 #@! TO.C,C58*
X55300000Y-138500000D02*
X55300000Y-135500000D01*
X53300000Y-135500000D02*
X53300000Y-138500000D01*
X53300000Y-138500000D02*
G75*
G03*
X55300000Y-138500000I1000000J1122254D01*
G01*
X55300000Y-135500000D02*
G75*
G03*
X53300000Y-135500000I-1000000J-1122254D01*
G01*
G04 #@! TO.C,C41*
X97700000Y-162099998D02*
X95100000Y-162100000D01*
X95100000Y-163700002D02*
X97700000Y-163700000D01*
X95100001Y-162100001D02*
G75*
G03*
X95100001Y-163700001I840223J-800000D01*
G01*
X97699999Y-163699999D02*
G75*
G03*
X97699999Y-162099999I-840223J800000D01*
G01*
G04 #@! TO.C,R41*
X83000000Y-152400000D02*
X83000000Y-155400000D01*
X84600000Y-152400000D02*
X83000000Y-152400000D01*
X84600000Y-155400000D02*
X84600000Y-152400000D01*
X83000000Y-155400000D02*
X84600000Y-155400000D01*
G04 #@! TO.C,R43*
X71300000Y-163400000D02*
X71300000Y-165000000D01*
X71300000Y-165000000D02*
X74300000Y-165000000D01*
X74300000Y-163400000D02*
X71300000Y-163400000D01*
X74300000Y-165000000D02*
X74300000Y-163400000D01*
G04 #@! TO.C,R13*
X58100000Y-161000000D02*
X58100000Y-158000000D01*
X56500000Y-161000000D02*
X58100000Y-161000000D01*
X56500000Y-158000000D02*
X56500000Y-161000000D01*
X58100000Y-158000000D02*
X56500000Y-158000000D01*
G04 #@! TO.C,R15*
X61300000Y-136000000D02*
X61300000Y-133000000D01*
X59700000Y-136000000D02*
X61300000Y-136000000D01*
X61300000Y-133000000D02*
X59700000Y-133000000D01*
X59700000Y-133000000D02*
X59700000Y-136000000D01*
G04 #@! TO.C,C2*
X128100000Y-140000000D02*
X128100000Y-141400000D01*
X126900000Y-140000000D02*
X128100000Y-140000000D01*
X135300000Y-140000000D02*
X136500000Y-140000000D01*
X129200000Y-142500000D02*
X135300000Y-142500000D01*
X135300000Y-137800000D02*
X135300000Y-135300000D01*
X128100000Y-136400000D02*
X128100000Y-137800000D01*
X127400000Y-136706250D02*
X127400000Y-137493750D01*
X126900000Y-137800000D02*
X126900000Y-140000000D01*
X136500000Y-140000000D02*
X136500000Y-137800000D01*
X135300000Y-142500000D02*
X135300000Y-140000000D01*
X127006250Y-137100000D02*
X127793750Y-137100000D01*
X136500000Y-137800000D02*
X135300000Y-137800000D01*
X129200000Y-135300000D02*
X128100000Y-136400000D01*
X128100000Y-137800000D02*
X126900000Y-137800000D01*
X135300000Y-135300000D02*
X129200000Y-135300000D01*
X128100000Y-141400000D02*
X129200000Y-142500000D01*
G04 #@! TD*
%LPC*%
D15*
G04 #@! TO.C,U8*
X76050000Y-156437500D03*
X75400000Y-156437500D03*
X74750000Y-156437500D03*
X74100000Y-156437500D03*
X73450000Y-156437500D03*
X72800000Y-156437500D03*
X72150000Y-156437500D03*
X72150000Y-162162500D03*
X72800000Y-162162500D03*
X73450000Y-162162500D03*
X74100000Y-162162500D03*
X74750000Y-162162500D03*
X75400000Y-162162500D03*
X76050000Y-162162500D03*
G04 #@! TD*
D16*
G04 #@! TO.C,REF\u002A\u002A*
X49000000Y-131000000D03*
G04 #@! TD*
G04 #@! TO.C,REF\u002A\u002A*
X130000000Y-161000000D03*
G04 #@! TD*
G04 #@! TO.C,REF\u002A\u002A*
X130000000Y-131000000D03*
G04 #@! TD*
G04 #@! TO.C,*
X66000000Y-158000000D03*
G04 #@! TD*
D17*
G04 #@! TO.C,J3*
X102400000Y-137300000D03*
D18*
X98900000Y-134100000D03*
X105900000Y-134100000D03*
D17*
X102400000Y-129200000D03*
G04 #@! TD*
G04 #@! TO.C,J2*
X90900000Y-137300000D03*
D18*
X87400000Y-134100000D03*
X94400000Y-134100000D03*
D17*
X90900000Y-129200000D03*
G04 #@! TD*
D19*
G04 #@! TO.C,D4*
X77450000Y-137800000D03*
X78750000Y-137800000D03*
X78100000Y-135800000D03*
G04 #@! TD*
D20*
G04 #@! TO.C,D1*
X120950000Y-134700000D03*
X124950000Y-134700000D03*
G04 #@! TD*
D21*
G04 #@! TO.C,J10*
X81325000Y-140000000D03*
D22*
X81325000Y-142540000D03*
X81325000Y-145080000D03*
X81325000Y-147620000D03*
X81325000Y-150160000D03*
X81325000Y-152700000D03*
G04 #@! TD*
D23*
G04 #@! TO.C,C8*
X77700000Y-158575000D03*
X77700000Y-157025000D03*
G04 #@! TD*
D24*
G04 #@! TO.C,U5*
X113395000Y-162575000D03*
X114665000Y-162575000D03*
X115935000Y-162575000D03*
X117205000Y-162575000D03*
X117205000Y-157425000D03*
X115935000Y-157425000D03*
X114665000Y-157425000D03*
X113395000Y-157425000D03*
G04 #@! TD*
D25*
G04 #@! TO.C,R7*
X88025000Y-129000000D03*
X86375000Y-129000000D03*
G04 #@! TD*
G04 #@! TO.C,R36*
X114825000Y-164600000D03*
X113175000Y-164600000D03*
G04 #@! TD*
G04 #@! TO.C,R68*
X101825000Y-155300000D03*
X100175000Y-155300000D03*
G04 #@! TD*
D26*
G04 #@! TO.C,C61*
X97025000Y-153700000D03*
X98575000Y-153700000D03*
G04 #@! TD*
G04 #@! TO.C,C51*
X97025000Y-155300000D03*
X98575000Y-155300000D03*
G04 #@! TD*
D27*
G04 #@! TO.C,R71*
X78800000Y-152975000D03*
X78800000Y-154625000D03*
G04 #@! TD*
G04 #@! TO.C,R18*
X95700000Y-159775000D03*
X95700000Y-161425000D03*
G04 #@! TD*
D28*
G04 #@! TO.C,C19*
X53300000Y-143400000D03*
X47900000Y-143400000D03*
G04 #@! TD*
D29*
G04 #@! TO.C,R4*
X91800000Y-134625000D03*
X91800000Y-132975000D03*
G04 #@! TD*
D21*
G04 #@! TO.C,J9*
X87925000Y-140000000D03*
D22*
X87925000Y-142540000D03*
X87925000Y-145080000D03*
X87925000Y-147620000D03*
X87925000Y-150160000D03*
X87925000Y-152700000D03*
G04 #@! TD*
D21*
G04 #@! TO.C,J7*
X101125000Y-140000000D03*
D22*
X101125000Y-142540000D03*
X101125000Y-145080000D03*
X101125000Y-147620000D03*
X101125000Y-150160000D03*
X101125000Y-152700000D03*
G04 #@! TD*
D23*
G04 #@! TO.C,C16*
X104500000Y-162175000D03*
X104500000Y-160625000D03*
G04 #@! TD*
D15*
G04 #@! TO.C,U9*
X83250000Y-156437500D03*
X82600000Y-156437500D03*
X81950000Y-156437500D03*
X81300000Y-156437500D03*
X80650000Y-156437500D03*
X80000000Y-156437500D03*
X79350000Y-156437500D03*
X79350000Y-162162500D03*
X80000000Y-162162500D03*
X80650000Y-162162500D03*
X81300000Y-162162500D03*
X81950000Y-162162500D03*
X82600000Y-162162500D03*
X83250000Y-162162500D03*
G04 #@! TD*
D26*
G04 #@! TO.C,C31*
X95625000Y-164500000D03*
X97175000Y-164500000D03*
G04 #@! TD*
D30*
G04 #@! TO.C,C56*
X70500000Y-155225000D03*
X70500000Y-156775000D03*
G04 #@! TD*
D27*
G04 #@! TO.C,R12*
X57300000Y-155275000D03*
X57300000Y-156925000D03*
G04 #@! TD*
D23*
G04 #@! TO.C,C20*
X104500000Y-158875000D03*
X104500000Y-157325000D03*
G04 #@! TD*
D29*
G04 #@! TO.C,R6*
X90200000Y-134625000D03*
X90200000Y-132975000D03*
G04 #@! TD*
D31*
G04 #@! TO.C,C15*
X97275000Y-157300000D03*
X95725000Y-157300000D03*
G04 #@! TD*
D25*
G04 #@! TO.C,R14*
X70025000Y-133200000D03*
X68375000Y-133200000D03*
G04 #@! TD*
D30*
G04 #@! TO.C,C6*
X70500000Y-158525000D03*
X70500000Y-160075000D03*
G04 #@! TD*
D32*
G04 #@! TO.C,R40*
X90075000Y-164000000D03*
X91725000Y-164000000D03*
G04 #@! TD*
D15*
G04 #@! TO.C,U10*
X90450000Y-156437500D03*
X89800000Y-156437500D03*
X89150000Y-156437500D03*
X88500000Y-156437500D03*
X87850000Y-156437500D03*
X87200000Y-156437500D03*
X86550000Y-156437500D03*
X86550000Y-162162500D03*
X87200000Y-162162500D03*
X87850000Y-162162500D03*
X88500000Y-162162500D03*
X89150000Y-162162500D03*
X89800000Y-162162500D03*
X90450000Y-162162500D03*
G04 #@! TD*
D21*
G04 #@! TO.C,J12*
X68125000Y-140000000D03*
D22*
X68125000Y-142540000D03*
X68125000Y-145080000D03*
X68125000Y-147620000D03*
X68125000Y-150160000D03*
X68125000Y-152700000D03*
G04 #@! TD*
D27*
G04 #@! TO.C,R11*
X125200000Y-163125000D03*
X125200000Y-161475000D03*
G04 #@! TD*
D25*
G04 #@! TO.C,R67*
X108925000Y-155400000D03*
X107275000Y-155400000D03*
G04 #@! TD*
D21*
G04 #@! TO.C,J13*
X61525000Y-140000000D03*
D22*
X61525000Y-142540000D03*
X61525000Y-145080000D03*
X61525000Y-147620000D03*
X61525000Y-150160000D03*
X61525000Y-152700000D03*
G04 #@! TD*
D25*
G04 #@! TO.C,R38*
X100425000Y-164500000D03*
X98775000Y-164500000D03*
G04 #@! TD*
D27*
G04 #@! TO.C,R69*
X85400000Y-153075000D03*
X85400000Y-154725000D03*
G04 #@! TD*
D25*
G04 #@! TO.C,R66*
X116025000Y-155400000D03*
X114375000Y-155400000D03*
G04 #@! TD*
D21*
G04 #@! TO.C,J6*
X107725000Y-140000000D03*
D22*
X107725000Y-142540000D03*
X107725000Y-145080000D03*
X107725000Y-147620000D03*
X107725000Y-150160000D03*
X107725000Y-152700000D03*
G04 #@! TD*
D21*
G04 #@! TO.C,J11*
X74725000Y-140000000D03*
D22*
X74725000Y-142540000D03*
X74725000Y-145080000D03*
X74725000Y-147620000D03*
X74725000Y-150160000D03*
X74725000Y-152700000D03*
G04 #@! TD*
D33*
G04 #@! TO.C,F1*
X113300000Y-127750000D03*
X110500000Y-127750000D03*
G04 #@! TD*
D34*
G04 #@! TO.C,C68*
X52300000Y-137950000D03*
X52300000Y-136050000D03*
G04 #@! TD*
D28*
G04 #@! TO.C,C17*
X134300000Y-153300000D03*
X128900000Y-153300000D03*
G04 #@! TD*
D23*
G04 #@! TO.C,C13*
X77700000Y-161875000D03*
X77700000Y-160325000D03*
G04 #@! TD*
D25*
G04 #@! TO.C,R37*
X107625000Y-164600000D03*
X105975000Y-164600000D03*
G04 #@! TD*
D32*
G04 #@! TO.C,R75*
X52475000Y-134143630D03*
X54125000Y-134143630D03*
G04 #@! TD*
D27*
G04 #@! TO.C,R8*
X125200000Y-160150000D03*
X125200000Y-158500000D03*
G04 #@! TD*
D26*
G04 #@! TO.C,C46*
X68825000Y-163400000D03*
X70375000Y-163400000D03*
G04 #@! TD*
D25*
G04 #@! TO.C,R5*
X88025000Y-130600000D03*
X86375000Y-130600000D03*
G04 #@! TD*
D29*
G04 #@! TO.C,R48*
X97300000Y-161425000D03*
X97300000Y-159775000D03*
G04 #@! TD*
D21*
G04 #@! TO.C,J5*
X114325000Y-140000000D03*
D22*
X114325000Y-142540000D03*
X114325000Y-145080000D03*
X114325000Y-147620000D03*
X114325000Y-150160000D03*
X114325000Y-152700000D03*
G04 #@! TD*
D23*
G04 #@! TO.C,C7*
X118900000Y-164275000D03*
X118900000Y-162725000D03*
G04 #@! TD*
D24*
G04 #@! TO.C,U6*
X106195000Y-162575000D03*
X107465000Y-162575000D03*
X108735000Y-162575000D03*
X110005000Y-162575000D03*
X110005000Y-157425000D03*
X108735000Y-157425000D03*
X107465000Y-157425000D03*
X106195000Y-157425000D03*
G04 #@! TD*
D32*
G04 #@! TO.C,R44*
X74975000Y-164200000D03*
X76625000Y-164200000D03*
G04 #@! TD*
D28*
G04 #@! TO.C,C26*
X53300000Y-151000000D03*
X47900000Y-151000000D03*
G04 #@! TD*
D27*
G04 #@! TO.C,R74*
X77200000Y-152975000D03*
X77200000Y-154625000D03*
G04 #@! TD*
G04 #@! TO.C,R73*
X72100000Y-153075000D03*
X72100000Y-154725000D03*
G04 #@! TD*
D35*
G04 #@! TO.C,R3*
X122000000Y-163062500D03*
X122000000Y-157137500D03*
G04 #@! TD*
D23*
G04 #@! TO.C,C66*
X70500000Y-153475000D03*
X70500000Y-151925000D03*
G04 #@! TD*
D26*
G04 #@! TO.C,C36*
X68825000Y-161800000D03*
X70375000Y-161800000D03*
G04 #@! TD*
D21*
G04 #@! TO.C,J8*
X94525000Y-140000000D03*
D22*
X94525000Y-142540000D03*
X94525000Y-145080000D03*
X94525000Y-147620000D03*
X94525000Y-150160000D03*
X94525000Y-152700000D03*
G04 #@! TD*
D24*
G04 #@! TO.C,U7*
X98995000Y-162475000D03*
X100265000Y-162475000D03*
X101535000Y-162475000D03*
X102805000Y-162475000D03*
X102805000Y-157325000D03*
X101535000Y-157325000D03*
X100265000Y-157325000D03*
X98995000Y-157325000D03*
G04 #@! TD*
D21*
G04 #@! TO.C,J4*
X120925000Y-140000000D03*
D22*
X120925000Y-142540000D03*
X120925000Y-145080000D03*
X120925000Y-147620000D03*
X120925000Y-150160000D03*
X120925000Y-152700000D03*
G04 #@! TD*
D27*
G04 #@! TO.C,R28*
X94100000Y-159775000D03*
X94100000Y-161425000D03*
G04 #@! TD*
G04 #@! TO.C,R58*
X97200000Y-150575000D03*
X97200000Y-152225000D03*
G04 #@! TD*
D23*
G04 #@! TO.C,C10*
X84900000Y-158475000D03*
X84900000Y-156925000D03*
G04 #@! TD*
D36*
G04 #@! TO.C,D5*
X125400000Y-156250000D03*
X125400000Y-152750000D03*
G04 #@! TD*
D23*
G04 #@! TO.C,C11*
X92100000Y-161675000D03*
X92100000Y-160125000D03*
G04 #@! TD*
D27*
G04 #@! TO.C,R39*
X90400000Y-153075000D03*
X90400000Y-154725000D03*
G04 #@! TD*
D37*
G04 #@! TO.C,U3*
X47100000Y-157350000D03*
X48800000Y-161050000D03*
X50500000Y-157350000D03*
X52200000Y-161050000D03*
D38*
X53900000Y-157350000D03*
G04 #@! TD*
D23*
G04 #@! TO.C,C12*
X111700000Y-158875000D03*
X111700000Y-157325000D03*
G04 #@! TD*
D25*
G04 #@! TO.C,R42*
X79625000Y-164000000D03*
X77975000Y-164000000D03*
G04 #@! TD*
D23*
G04 #@! TO.C,C9*
X84900000Y-161775000D03*
X84900000Y-160225000D03*
G04 #@! TD*
D28*
G04 #@! TO.C,C22*
X134300000Y-146100000D03*
X128900000Y-146100000D03*
G04 #@! TD*
D25*
G04 #@! TO.C,R70*
X87325000Y-164000000D03*
X85675000Y-164000000D03*
G04 #@! TD*
D32*
G04 #@! TO.C,R33*
X65575000Y-163400000D03*
X67225000Y-163400000D03*
G04 #@! TD*
D23*
G04 #@! TO.C,C21*
X111700000Y-162175000D03*
X111700000Y-160625000D03*
G04 #@! TD*
D32*
G04 #@! TO.C,R72*
X81775000Y-164200000D03*
X83425000Y-164200000D03*
G04 #@! TD*
D34*
G04 #@! TO.C,C58*
X54300000Y-137950000D03*
X54300000Y-136050000D03*
G04 #@! TD*
D26*
G04 #@! TO.C,C41*
X95625000Y-162900000D03*
X97175000Y-162900000D03*
G04 #@! TD*
D27*
G04 #@! TO.C,R41*
X83800000Y-153075000D03*
X83800000Y-154725000D03*
G04 #@! TD*
D25*
G04 #@! TO.C,R43*
X73625000Y-164200000D03*
X71975000Y-164200000D03*
G04 #@! TD*
D27*
G04 #@! TO.C,R13*
X57300000Y-158675000D03*
X57300000Y-160325000D03*
G04 #@! TD*
D39*
G04 #@! TO.C,J1*
X117500000Y-133650000D03*
D40*
X119800000Y-128350000D03*
X123500000Y-130850000D03*
G04 #@! TD*
D41*
G04 #@! TO.C,RV1*
X71300000Y-128700000D03*
X71300000Y-137500000D03*
D42*
X64300000Y-130600000D03*
X64300000Y-133100000D03*
X64300000Y-135600000D03*
G04 #@! TD*
D21*
G04 #@! TO.C,JP3*
X83475000Y-132960000D03*
D22*
X80935000Y-132960000D03*
G04 #@! TD*
D29*
G04 #@! TO.C,R15*
X60500000Y-135325000D03*
X60500000Y-133675000D03*
G04 #@! TD*
D43*
G04 #@! TO.C,SW1*
X111800000Y-130660000D03*
X111800000Y-133200000D03*
X111800000Y-135740000D03*
G04 #@! TD*
D44*
G04 #@! TO.C,C2*
X129000000Y-138900000D03*
X134400000Y-138900000D03*
G04 #@! TD*
D21*
G04 #@! TO.C,JP2*
X83475000Y-135500000D03*
D22*
X80935000Y-135500000D03*
G04 #@! TD*
D21*
G04 #@! TO.C,JP1*
X83475000Y-130420000D03*
D22*
X80935000Y-130420000D03*
G04 #@! TD*
%LPD*%
M02*
