%TF.GenerationSoftware,KiCad,Pcbnew,7.0.9-69-ge1c0bddff3*%
%TF.CreationDate,2024-02-19T13:42:37+01:00*%
%TF.ProjectId,ASP_Backplane,4153505f-4261-4636-9b70-6c616e652e6b,B*%
%TF.SameCoordinates,Original*%
%TF.FileFunction,Drillmap*%
%TF.FilePolarity,Positive*%
%FSLAX45Y45*%
G04 Gerber Fmt 4.5, Leading zero omitted, Abs format (unit mm)*
G04 Created by KiCad (PCBNEW 7.0.9-69-ge1c0bddff3) date 2024-02-19 13:42:37*
%MOMM*%
%LPD*%
G01*
G04 APERTURE LIST*
%ADD10C,0.100000*%
%ADD11C,0.200000*%
%ADD12C,0.110000*%
%ADD13C,0.120000*%
G04 APERTURE END LIST*
D10*
X4400000Y-12600000D02*
X13700000Y-12600000D01*
X13700000Y-16600000D01*
X4400000Y-16600000D01*
X4400000Y-12600000D01*
D11*
D10*
X6785000Y-16445000D02*
X6815000Y-16475000D01*
X6815000Y-16445000D02*
X6785000Y-16475000D01*
X6895000Y-15455000D02*
X6925000Y-15485000D01*
X6925000Y-15455000D02*
X6895000Y-15485000D01*
X6952900Y-15585000D02*
X6982900Y-15615000D01*
X6982900Y-15585000D02*
X6952900Y-15615000D01*
X7192791Y-14894377D02*
X7222791Y-14924377D01*
X7222791Y-14894377D02*
X7192791Y-14924377D01*
X7205000Y-15755000D02*
X7235000Y-15785000D01*
X7235000Y-15755000D02*
X7205000Y-15785000D01*
X7355000Y-15355000D02*
X7385000Y-15385000D01*
X7385000Y-15355000D02*
X7355000Y-15385000D01*
X7425000Y-16005000D02*
X7455000Y-16035000D01*
X7455000Y-16005000D02*
X7425000Y-16035000D01*
X7474378Y-15805149D02*
X7504378Y-15835149D01*
X7504378Y-15805149D02*
X7474378Y-15835149D01*
X7505000Y-16005000D02*
X7535000Y-16035000D01*
X7535000Y-16005000D02*
X7505000Y-16035000D01*
X7592446Y-15430000D02*
X7622446Y-15460000D01*
X7622446Y-15430000D02*
X7592446Y-15460000D01*
X7605000Y-15255000D02*
X7635000Y-15285000D01*
X7635000Y-15255000D02*
X7605000Y-15285000D01*
X7676638Y-15621153D02*
X7706638Y-15651153D01*
X7706638Y-15621153D02*
X7676638Y-15651153D01*
X7861685Y-16333807D02*
X7891685Y-16363807D01*
X7891685Y-16333807D02*
X7861685Y-16363807D01*
X7905000Y-15985000D02*
X7935000Y-16015000D01*
X7935000Y-15985000D02*
X7905000Y-16015000D01*
X7915000Y-15735000D02*
X7945000Y-15765000D01*
X7945000Y-15735000D02*
X7915000Y-15765000D01*
X8005000Y-15745000D02*
X8035000Y-15775000D01*
X8035000Y-15745000D02*
X8005000Y-15775000D01*
X8005000Y-15985000D02*
X8035000Y-16015000D01*
X8035000Y-15985000D02*
X8005000Y-16015000D01*
X8055000Y-15382550D02*
X8085000Y-15412550D01*
X8085000Y-15382550D02*
X8055000Y-15412550D01*
X8195000Y-15985000D02*
X8225000Y-16015000D01*
X8225000Y-15985000D02*
X8195000Y-16015000D01*
X8235000Y-15735000D02*
X8265000Y-15765000D01*
X8265000Y-15735000D02*
X8235000Y-15765000D01*
X8268772Y-15375500D02*
X8298772Y-15405500D01*
X8298772Y-15375500D02*
X8268772Y-15405500D01*
X8277585Y-14724054D02*
X8307585Y-14754054D01*
X8307585Y-14724054D02*
X8277585Y-14754054D01*
X8285000Y-15975000D02*
X8315000Y-16005000D01*
X8315000Y-15975000D02*
X8285000Y-16005000D01*
X8315000Y-14365000D02*
X8345000Y-14395000D01*
X8345000Y-14365000D02*
X8315000Y-14395000D01*
X8328004Y-15733233D02*
X8358004Y-15763233D01*
X8358004Y-15733233D02*
X8328004Y-15763233D01*
X8405520Y-15752811D02*
X8435520Y-15782811D01*
X8435520Y-15752811D02*
X8405520Y-15782811D01*
X8445000Y-16495000D02*
X8475000Y-16525000D01*
X8475000Y-16495000D02*
X8445000Y-16525000D01*
X8475000Y-15555000D02*
X8505000Y-15585000D01*
X8505000Y-15555000D02*
X8475000Y-15585000D01*
X8585000Y-15725000D02*
X8615000Y-15755000D01*
X8615000Y-15725000D02*
X8585000Y-15755000D01*
X8655000Y-15145000D02*
X8685000Y-15175000D01*
X8685000Y-15145000D02*
X8655000Y-15175000D01*
X8665000Y-15975000D02*
X8695000Y-16005000D01*
X8695000Y-15975000D02*
X8665000Y-16005000D01*
X8705000Y-15735000D02*
X8735000Y-15765000D01*
X8735000Y-15735000D02*
X8705000Y-15765000D01*
X8745000Y-15985000D02*
X8775000Y-16015000D01*
X8775000Y-15985000D02*
X8745000Y-16015000D01*
X8802291Y-15400476D02*
X8832291Y-15430476D01*
X8832291Y-15400476D02*
X8802291Y-15430476D01*
X8901140Y-15069620D02*
X8931140Y-15099620D01*
X8931140Y-15069620D02*
X8901140Y-15099620D01*
X8955000Y-15735000D02*
X8985000Y-15765000D01*
X8985000Y-15735000D02*
X8955000Y-15765000D01*
X8955000Y-15975000D02*
X8985000Y-16005000D01*
X8985000Y-15975000D02*
X8955000Y-16005000D01*
X9045000Y-15975000D02*
X9075000Y-16005000D01*
X9075000Y-15975000D02*
X9045000Y-16005000D01*
X9055149Y-15745000D02*
X9085149Y-15775000D01*
X9085149Y-15745000D02*
X9055149Y-15775000D01*
X9335000Y-15854063D02*
X9365000Y-15884063D01*
X9365000Y-15854063D02*
X9335000Y-15884063D01*
X10619441Y-16117450D02*
X10649441Y-16147450D01*
X10649441Y-16117450D02*
X10619441Y-16147450D01*
X10735000Y-15865000D02*
X10765000Y-15895000D01*
X10765000Y-15865000D02*
X10735000Y-15895000D01*
X10739441Y-16117450D02*
X10769441Y-16147450D01*
X10769441Y-16117450D02*
X10739441Y-16147450D01*
X10855000Y-15865000D02*
X10885000Y-15895000D01*
X10885000Y-15865000D02*
X10855000Y-15895000D01*
X11325281Y-16117450D02*
X11355281Y-16147450D01*
X11355281Y-16117450D02*
X11325281Y-16147450D01*
X11425000Y-15865000D02*
X11455000Y-15895000D01*
X11455000Y-15865000D02*
X11425000Y-15895000D01*
X11445281Y-16117450D02*
X11475281Y-16147450D01*
X11475281Y-16117450D02*
X11445281Y-16147450D01*
X11575000Y-15865000D02*
X11605000Y-15895000D01*
X11605000Y-15865000D02*
X11575000Y-15895000D01*
X12285000Y-16065400D02*
X12315000Y-16095400D01*
X12315000Y-16065400D02*
X12285000Y-16095400D01*
X4510000Y-15580000D02*
G75*
G03*
X4510000Y-15580000I-20000J0D01*
G01*
X4510000Y-16510000D02*
G75*
G03*
X4510000Y-16510000I-20000J0D01*
G01*
X4680000Y-14160000D02*
G75*
G03*
X4680000Y-14160000I-20000J0D01*
G01*
X4680000Y-14510000D02*
G75*
G03*
X4680000Y-14510000I-20000J0D01*
G01*
X4680000Y-14930000D02*
G75*
G03*
X4680000Y-14930000I-20000J0D01*
G01*
X4680000Y-15280000D02*
G75*
G03*
X4680000Y-15280000I-20000J0D01*
G01*
X4810000Y-14510000D02*
G75*
G03*
X4810000Y-14510000I-20000J0D01*
G01*
X4810000Y-14930000D02*
G75*
G03*
X4810000Y-14930000I-20000J0D01*
G01*
X4810000Y-15280000D02*
G75*
G03*
X4810000Y-15280000I-20000J0D01*
G01*
X4850000Y-14070000D02*
G75*
G03*
X4850000Y-14070000I-20000J0D01*
G01*
X4870000Y-13620000D02*
G75*
G03*
X4870000Y-13620000I-20000J0D01*
G01*
X4940000Y-14510000D02*
G75*
G03*
X4940000Y-14510000I-20000J0D01*
G01*
X5090000Y-13760000D02*
G75*
G03*
X5090000Y-13760000I-20000J0D01*
G01*
X5220000Y-14530000D02*
G75*
G03*
X5220000Y-14530000I-20000J0D01*
G01*
X5220000Y-14800000D02*
G75*
G03*
X5220000Y-14800000I-20000J0D01*
G01*
X5360000Y-14530000D02*
G75*
G03*
X5360000Y-14530000I-20000J0D01*
G01*
X5360000Y-14800000D02*
G75*
G03*
X5360000Y-14800000I-20000J0D01*
G01*
X5360000Y-16510000D02*
G75*
G03*
X5360000Y-16510000I-20000J0D01*
G01*
X5490000Y-14530000D02*
G75*
G03*
X5490000Y-14530000I-20000J0D01*
G01*
X5490000Y-14800000D02*
G75*
G03*
X5490000Y-14800000I-20000J0D01*
G01*
X5590000Y-15710000D02*
G75*
G03*
X5590000Y-15710000I-20000J0D01*
G01*
X5610000Y-14080000D02*
G75*
G03*
X5610000Y-14080000I-20000J0D01*
G01*
X5640000Y-14290000D02*
G75*
G03*
X5640000Y-14290000I-20000J0D01*
G01*
X5650000Y-13400000D02*
G75*
G03*
X5650000Y-13400000I-20000J0D01*
G01*
X5650000Y-13580000D02*
G75*
G03*
X5650000Y-13580000I-20000J0D01*
G01*
X5650000Y-13810000D02*
G75*
G03*
X5650000Y-13810000I-20000J0D01*
G01*
X5659100Y-15170900D02*
G75*
G03*
X5659100Y-15170900I-20000J0D01*
G01*
X5660000Y-15070000D02*
G75*
G03*
X5660000Y-15070000I-20000J0D01*
G01*
X5680000Y-13700000D02*
G75*
G03*
X5680000Y-13700000I-20000J0D01*
G01*
X5800000Y-13490000D02*
G75*
G03*
X5800000Y-13490000I-20000J0D01*
G01*
X5890000Y-13270000D02*
G75*
G03*
X5890000Y-13270000I-20000J0D01*
G01*
X5910000Y-16040000D02*
G75*
G03*
X5910000Y-16040000I-20000J0D01*
G01*
X5930000Y-13570000D02*
G75*
G03*
X5930000Y-13570000I-20000J0D01*
G01*
X5930000Y-15620000D02*
G75*
G03*
X5930000Y-15620000I-20000J0D01*
G01*
X6050000Y-13010000D02*
G75*
G03*
X6050000Y-13010000I-20000J0D01*
G01*
X6100000Y-15800000D02*
G75*
G03*
X6100000Y-15800000I-20000J0D01*
G01*
X6180000Y-15940000D02*
G75*
G03*
X6180000Y-15940000I-20000J0D01*
G01*
X6180000Y-16360000D02*
G75*
G03*
X6180000Y-16360000I-20000J0D01*
G01*
X6245084Y-13484916D02*
G75*
G03*
X6245084Y-13484916I-20000J0D01*
G01*
X6250000Y-15620000D02*
G75*
G03*
X6250000Y-15620000I-20000J0D01*
G01*
X6263319Y-13381105D02*
G75*
G03*
X6263319Y-13381105I-20000J0D01*
G01*
X6300000Y-13650000D02*
G75*
G03*
X6300000Y-13650000I-20000J0D01*
G01*
X6460000Y-16340000D02*
G75*
G03*
X6460000Y-16340000I-20000J0D01*
G01*
X6540000Y-16170000D02*
G75*
G03*
X6540000Y-16170000I-20000J0D01*
G01*
X6540000Y-16520000D02*
G75*
G03*
X6540000Y-16520000I-20000J0D01*
G01*
X7900000Y-13920000D02*
G75*
G03*
X7900000Y-13920000I-20000J0D01*
G01*
X9040000Y-13155000D02*
G75*
G03*
X9040000Y-13155000I-20000J0D01*
G01*
X9190000Y-16520000D02*
G75*
G03*
X9190000Y-16520000I-20000J0D01*
G01*
X9200000Y-13160000D02*
G75*
G03*
X9200000Y-13160000I-20000J0D01*
G01*
X12160000Y-16160000D02*
G75*
G03*
X12160000Y-16160000I-20000J0D01*
G01*
X12256557Y-16164568D02*
G75*
G03*
X12256557Y-16164568I-20000J0D01*
G01*
X12350000Y-15550000D02*
G75*
G03*
X12350000Y-15550000I-20000J0D01*
G01*
X12400000Y-16170000D02*
G75*
G03*
X12400000Y-16170000I-20000J0D01*
G01*
X12420000Y-15480000D02*
G75*
G03*
X12420000Y-15480000I-20000J0D01*
G01*
X12650000Y-16420000D02*
G75*
G03*
X12650000Y-16420000I-20000J0D01*
G01*
X12670000Y-16260000D02*
G75*
G03*
X12670000Y-16260000I-20000J0D01*
G01*
X12690000Y-15790000D02*
G75*
G03*
X12690000Y-15790000I-20000J0D01*
G01*
X6961999Y-14907400D02*
X6961999Y-14957400D01*
X6936999Y-14932400D02*
X6986999Y-14932400D01*
X7000000Y-16485000D02*
X7000000Y-16535000D01*
X6975000Y-16510000D02*
X7025000Y-16510000D01*
X7215643Y-15982500D02*
X7215643Y-16032500D01*
X7190643Y-16007500D02*
X7240643Y-16007500D01*
X7630000Y-15970050D02*
X7630000Y-16020050D01*
X7605000Y-15995050D02*
X7655000Y-15995050D01*
X7710000Y-15125000D02*
X7710000Y-15175000D01*
X7685000Y-15150000D02*
X7735000Y-15150000D01*
X7925397Y-14709599D02*
X7925397Y-14759599D01*
X7900397Y-14734599D02*
X7950397Y-14734599D01*
X8079971Y-16477218D02*
X8079971Y-16527218D01*
X8054971Y-16502218D02*
X8104971Y-16502218D01*
X8500000Y-14745000D02*
X8500000Y-14795000D01*
X8475000Y-14770000D02*
X8525000Y-14770000D01*
X8872450Y-16385000D02*
X8872450Y-16435000D01*
X8847450Y-16410000D02*
X8897450Y-16410000D01*
X9030000Y-14615000D02*
X9030000Y-14665000D01*
X9005000Y-14640000D02*
X9055000Y-14640000D01*
X9270000Y-15705000D02*
X9270000Y-15755000D01*
X9245000Y-15730000D02*
X9295000Y-15730000D01*
X9324993Y-15943825D02*
X9324993Y-15993825D01*
X9299993Y-15968825D02*
X9349993Y-15968825D01*
X9390000Y-16305000D02*
X9390000Y-16355000D01*
X9365000Y-16330000D02*
X9415000Y-16330000D01*
X9450000Y-15625000D02*
X9450000Y-15675000D01*
X9425000Y-15650000D02*
X9475000Y-15650000D01*
X9710000Y-14865000D02*
X9710000Y-14915000D01*
X9685000Y-14890000D02*
X9735000Y-14890000D01*
X9792877Y-15849320D02*
X9792877Y-15899320D01*
X9767877Y-15874320D02*
X9817877Y-15874320D01*
X10180000Y-16405000D02*
X10180000Y-16455000D01*
X10155000Y-16430000D02*
X10205000Y-16430000D01*
X10370000Y-15465000D02*
X10370000Y-15515000D01*
X10345000Y-15490000D02*
X10395000Y-15490000D01*
X10920000Y-16445000D02*
X10920000Y-16495000D01*
X10895000Y-16470000D02*
X10945000Y-16470000D01*
X11120000Y-15455000D02*
X11120000Y-15505000D01*
X11095000Y-15480000D02*
X11145000Y-15480000D01*
X11670000Y-16415000D02*
X11670000Y-16465000D01*
X11645000Y-16440000D02*
X11695000Y-16440000D01*
X11937117Y-15816717D02*
X11937117Y-15866717D01*
X11912117Y-15841717D02*
X11962117Y-15841717D01*
X12330000Y-13715000D02*
X12330000Y-13765000D01*
X12305000Y-13740000D02*
X12355000Y-13740000D01*
X12450000Y-13715000D02*
X12450000Y-13765000D01*
X12425000Y-13740000D02*
X12475000Y-13740000D01*
X12610000Y-13985000D02*
X12610000Y-14035000D01*
X12585000Y-14010000D02*
X12635000Y-14010000D01*
X12610000Y-14105000D02*
X12610000Y-14155000D01*
X12585000Y-14130000D02*
X12635000Y-14130000D01*
X12610000Y-14495000D02*
X12610000Y-14545000D01*
X12585000Y-14520000D02*
X12635000Y-14520000D01*
X12610000Y-14665000D02*
X12610000Y-14715000D01*
X12585000Y-14690000D02*
X12635000Y-14690000D01*
X12750000Y-13365000D02*
X12750000Y-13415000D01*
X12725000Y-13390000D02*
X12775000Y-13390000D01*
X12750000Y-13510010D02*
X12750000Y-13560010D01*
X12725000Y-13535010D02*
X12775000Y-13535010D01*
X12770000Y-14287500D02*
X12770000Y-14337500D01*
X12745000Y-14312500D02*
X12795000Y-14312500D01*
X12970000Y-14287500D02*
X12970000Y-14337500D01*
X12945000Y-14312500D02*
X12995000Y-14312500D01*
X13140000Y-15135000D02*
X13140000Y-15185000D01*
X13115000Y-15160000D02*
X13165000Y-15160000D01*
X13170000Y-14287500D02*
X13170000Y-14337500D01*
X13145000Y-14312500D02*
X13195000Y-14312500D01*
X13340000Y-13665000D02*
X13340000Y-13715000D01*
X13315000Y-13690000D02*
X13365000Y-13690000D01*
X13340000Y-14045000D02*
X13340000Y-14095000D01*
X13315000Y-14070000D02*
X13365000Y-14070000D01*
X13340000Y-14447500D02*
X13340000Y-14497500D01*
X13315000Y-14472500D02*
X13365000Y-14472500D01*
X13340000Y-14775000D02*
X13340000Y-14825000D01*
X13315000Y-14800000D02*
X13365000Y-14800000D01*
X13340000Y-15125000D02*
X13340000Y-15175000D01*
X13315000Y-15150000D02*
X13365000Y-15150000D01*
X13340000Y-15485000D02*
X13340000Y-15535000D01*
X13315000Y-15510000D02*
X13365000Y-15510000D01*
X13540000Y-13665000D02*
X13540000Y-13715000D01*
X13515000Y-13690000D02*
X13565000Y-13690000D01*
X13540000Y-14045000D02*
X13540000Y-14095000D01*
X13515000Y-14070000D02*
X13565000Y-14070000D01*
X13540000Y-14395000D02*
X13540000Y-14445000D01*
X13515000Y-14420000D02*
X13565000Y-14420000D01*
X13540000Y-14775000D02*
X13540000Y-14825000D01*
X13515000Y-14800000D02*
X13565000Y-14800000D01*
X13540000Y-15125000D02*
X13540000Y-15175000D01*
X13515000Y-15150000D02*
X13565000Y-15150000D01*
X13540000Y-15485000D02*
X13540000Y-15535000D01*
X13515000Y-15510000D02*
X13565000Y-15510000D01*
X8768285Y-13438284D02*
X8768285Y-13381715D01*
X8711716Y-13381715D01*
X8711716Y-13438284D01*
X8768285Y-13438284D01*
X8700000Y-13325000D02*
X8700000Y-13495000D01*
X8700000Y-13495000D02*
G75*
G03*
X8780000Y-13495000I40000J0D01*
G01*
X8780000Y-13495000D02*
X8780000Y-13325000D01*
X8780000Y-13325000D02*
G75*
G03*
X8700000Y-13325000I-40000J0D01*
G01*
X9118285Y-12948284D02*
X9118285Y-12891715D01*
X9061716Y-12891715D01*
X9061716Y-12948284D01*
X9118285Y-12948284D01*
X9005000Y-12960000D02*
X9175000Y-12960000D01*
X9175000Y-12960000D02*
G75*
G03*
X9175000Y-12880000I0J40000D01*
G01*
X9175000Y-12880000D02*
X9005000Y-12880000D01*
X9005000Y-12880000D02*
G75*
G03*
X9005000Y-12960000I0J-40000D01*
G01*
X9118285Y-13758284D02*
X9118285Y-13701715D01*
X9061716Y-13701715D01*
X9061716Y-13758284D01*
X9118285Y-13758284D01*
X9005000Y-13770000D02*
X9175000Y-13770000D01*
X9175000Y-13770000D02*
G75*
G03*
X9175000Y-13690000I0J40000D01*
G01*
X9175000Y-13690000D02*
X9005000Y-13690000D01*
X9005000Y-13690000D02*
G75*
G03*
X9005000Y-13770000I0J-40000D01*
G01*
X9468285Y-13438284D02*
X9468285Y-13381715D01*
X9411716Y-13381715D01*
X9411716Y-13438284D01*
X9468285Y-13438284D01*
X9400000Y-13325000D02*
X9400000Y-13495000D01*
X9400000Y-13495000D02*
G75*
G03*
X9480000Y-13495000I40000J0D01*
G01*
X9480000Y-13495000D02*
X9480000Y-13325000D01*
X9480000Y-13325000D02*
G75*
G03*
X9400000Y-13325000I-40000J0D01*
G01*
X9918285Y-13438284D02*
X9918285Y-13381715D01*
X9861716Y-13381715D01*
X9861716Y-13438284D01*
X9918285Y-13438284D01*
X9850000Y-13325000D02*
X9850000Y-13495000D01*
X9850000Y-13495000D02*
G75*
G03*
X9930000Y-13495000I40000J0D01*
G01*
X9930000Y-13495000D02*
X9930000Y-13325000D01*
X9930000Y-13325000D02*
G75*
G03*
X9850000Y-13325000I-40000J0D01*
G01*
X10268285Y-12948284D02*
X10268285Y-12891715D01*
X10211716Y-12891715D01*
X10211716Y-12948284D01*
X10268285Y-12948284D01*
X10155000Y-12960000D02*
X10325000Y-12960000D01*
X10325000Y-12960000D02*
G75*
G03*
X10325000Y-12880000I0J40000D01*
G01*
X10325000Y-12880000D02*
X10155000Y-12880000D01*
X10155000Y-12880000D02*
G75*
G03*
X10155000Y-12960000I0J-40000D01*
G01*
X10268285Y-13758284D02*
X10268285Y-13701715D01*
X10211716Y-13701715D01*
X10211716Y-13758284D01*
X10268285Y-13758284D01*
X10155000Y-13770000D02*
X10325000Y-13770000D01*
X10325000Y-13770000D02*
G75*
G03*
X10325000Y-13690000I0J40000D01*
G01*
X10325000Y-13690000D02*
X10155000Y-13690000D01*
X10155000Y-13690000D02*
G75*
G03*
X10155000Y-13770000I0J-40000D01*
G01*
X10618285Y-13438284D02*
X10618285Y-13381715D01*
X10561716Y-13381715D01*
X10561716Y-13438284D01*
X10618285Y-13438284D01*
X10550000Y-13325000D02*
X10550000Y-13495000D01*
X10550000Y-13495000D02*
G75*
G03*
X10630000Y-13495000I40000J0D01*
G01*
X10630000Y-13495000D02*
X10630000Y-13325000D01*
X10630000Y-13325000D02*
G75*
G03*
X10550000Y-13325000I-40000J0D01*
G01*
X11778284Y-13393284D02*
X11778284Y-13336715D01*
X11721715Y-13336715D01*
X11721715Y-13393284D01*
X11778284Y-13393284D01*
X11710000Y-13230000D02*
X11710000Y-13500000D01*
X11710000Y-13500000D02*
G75*
G03*
X11790000Y-13500000I40000J0D01*
G01*
X11790000Y-13500000D02*
X11790000Y-13230000D01*
X11790000Y-13230000D02*
G75*
G03*
X11710000Y-13230000I-40000J0D01*
G01*
X12008284Y-12863284D02*
X12008284Y-12806715D01*
X11951715Y-12806715D01*
X11951715Y-12863284D01*
X12008284Y-12863284D01*
X12115000Y-12795000D02*
X11845000Y-12795000D01*
X11845000Y-12795000D02*
G75*
G03*
X11845000Y-12875000I0J-40000D01*
G01*
X11845000Y-12875000D02*
X12115000Y-12875000D01*
X12115000Y-12875000D02*
G75*
G03*
X12115000Y-12795000I0J40000D01*
G01*
X12378284Y-13113284D02*
X12378284Y-13056715D01*
X12321715Y-13056715D01*
X12321715Y-13113284D01*
X12378284Y-13113284D01*
X12485000Y-13045000D02*
X12215000Y-13045000D01*
X12215000Y-13045000D02*
G75*
G03*
X12215000Y-13125000I0J-40000D01*
G01*
X12215000Y-13125000D02*
X12485000Y-13125000D01*
X12485000Y-13125000D02*
G75*
G03*
X12485000Y-13045000I0J40000D01*
G01*
X6152500Y-14050000D02*
X6202500Y-14000000D01*
X6152500Y-13950000D01*
X6102500Y-14000000D01*
X6152500Y-14050000D01*
X6152500Y-14304000D02*
X6202500Y-14254000D01*
X6152500Y-14204000D01*
X6102500Y-14254000D01*
X6152500Y-14304000D01*
X6152500Y-14558000D02*
X6202500Y-14508000D01*
X6152500Y-14458000D01*
X6102500Y-14508000D01*
X6152500Y-14558000D01*
X6152500Y-14812000D02*
X6202500Y-14762000D01*
X6152500Y-14712000D01*
X6102500Y-14762000D01*
X6152500Y-14812000D01*
X6152500Y-15066000D02*
X6202500Y-15016000D01*
X6152500Y-14966000D01*
X6102500Y-15016000D01*
X6152500Y-15066000D01*
X6152500Y-15320000D02*
X6202500Y-15270000D01*
X6152500Y-15220000D01*
X6102500Y-15270000D01*
X6152500Y-15320000D01*
X6430000Y-13110000D02*
X6480000Y-13060000D01*
X6430000Y-13010000D01*
X6380000Y-13060000D01*
X6430000Y-13110000D01*
X6430000Y-13360000D02*
X6480000Y-13310000D01*
X6430000Y-13260000D01*
X6380000Y-13310000D01*
X6430000Y-13360000D01*
X6430000Y-13610000D02*
X6480000Y-13560000D01*
X6430000Y-13510000D01*
X6380000Y-13560000D01*
X6430000Y-13610000D01*
X6812500Y-14050000D02*
X6862500Y-14000000D01*
X6812500Y-13950000D01*
X6762500Y-14000000D01*
X6812500Y-14050000D01*
X6812500Y-14304000D02*
X6862500Y-14254000D01*
X6812500Y-14204000D01*
X6762500Y-14254000D01*
X6812500Y-14304000D01*
X6812500Y-14558000D02*
X6862500Y-14508000D01*
X6812500Y-14458000D01*
X6762500Y-14508000D01*
X6812500Y-14558000D01*
X6812500Y-14812000D02*
X6862500Y-14762000D01*
X6812500Y-14712000D01*
X6762500Y-14762000D01*
X6812500Y-14812000D01*
X6812500Y-15066000D02*
X6862500Y-15016000D01*
X6812500Y-14966000D01*
X6762500Y-15016000D01*
X6812500Y-15066000D01*
X6812500Y-15320000D02*
X6862500Y-15270000D01*
X6812500Y-15220000D01*
X6762500Y-15270000D01*
X6812500Y-15320000D01*
X7472500Y-14050000D02*
X7522500Y-14000000D01*
X7472500Y-13950000D01*
X7422500Y-14000000D01*
X7472500Y-14050000D01*
X7472500Y-14304000D02*
X7522500Y-14254000D01*
X7472500Y-14204000D01*
X7422500Y-14254000D01*
X7472500Y-14304000D01*
X7472500Y-14558000D02*
X7522500Y-14508000D01*
X7472500Y-14458000D01*
X7422500Y-14508000D01*
X7472500Y-14558000D01*
X7472500Y-14812000D02*
X7522500Y-14762000D01*
X7472500Y-14712000D01*
X7422500Y-14762000D01*
X7472500Y-14812000D01*
X7472500Y-15066000D02*
X7522500Y-15016000D01*
X7472500Y-14966000D01*
X7422500Y-15016000D01*
X7472500Y-15066000D01*
X7472500Y-15320000D02*
X7522500Y-15270000D01*
X7472500Y-15220000D01*
X7422500Y-15270000D01*
X7472500Y-15320000D01*
X8093500Y-13092000D02*
X8143500Y-13042000D01*
X8093500Y-12992000D01*
X8043500Y-13042000D01*
X8093500Y-13092000D01*
X8093500Y-13346000D02*
X8143500Y-13296000D01*
X8093500Y-13246000D01*
X8043500Y-13296000D01*
X8093500Y-13346000D01*
X8093500Y-13600000D02*
X8143500Y-13550000D01*
X8093500Y-13500000D01*
X8043500Y-13550000D01*
X8093500Y-13600000D01*
X8132500Y-14050000D02*
X8182500Y-14000000D01*
X8132500Y-13950000D01*
X8082500Y-14000000D01*
X8132500Y-14050000D01*
X8132500Y-14304000D02*
X8182500Y-14254000D01*
X8132500Y-14204000D01*
X8082500Y-14254000D01*
X8132500Y-14304000D01*
X8132500Y-14558000D02*
X8182500Y-14508000D01*
X8132500Y-14458000D01*
X8082500Y-14508000D01*
X8132500Y-14558000D01*
X8132500Y-14812000D02*
X8182500Y-14762000D01*
X8132500Y-14712000D01*
X8082500Y-14762000D01*
X8132500Y-14812000D01*
X8132500Y-15066000D02*
X8182500Y-15016000D01*
X8132500Y-14966000D01*
X8082500Y-15016000D01*
X8132500Y-15066000D01*
X8132500Y-15320000D02*
X8182500Y-15270000D01*
X8132500Y-15220000D01*
X8082500Y-15270000D01*
X8132500Y-15320000D01*
X8347500Y-13092000D02*
X8397500Y-13042000D01*
X8347500Y-12992000D01*
X8297500Y-13042000D01*
X8347500Y-13092000D01*
X8347500Y-13346000D02*
X8397500Y-13296000D01*
X8347500Y-13246000D01*
X8297500Y-13296000D01*
X8347500Y-13346000D01*
X8347500Y-13600000D02*
X8397500Y-13550000D01*
X8347500Y-13500000D01*
X8297500Y-13550000D01*
X8347500Y-13600000D01*
X8792500Y-14050000D02*
X8842500Y-14000000D01*
X8792500Y-13950000D01*
X8742500Y-14000000D01*
X8792500Y-14050000D01*
X8792500Y-14304000D02*
X8842500Y-14254000D01*
X8792500Y-14204000D01*
X8742500Y-14254000D01*
X8792500Y-14304000D01*
X8792500Y-14558000D02*
X8842500Y-14508000D01*
X8792500Y-14458000D01*
X8742500Y-14508000D01*
X8792500Y-14558000D01*
X8792500Y-14812000D02*
X8842500Y-14762000D01*
X8792500Y-14712000D01*
X8742500Y-14762000D01*
X8792500Y-14812000D01*
X8792500Y-15066000D02*
X8842500Y-15016000D01*
X8792500Y-14966000D01*
X8742500Y-15016000D01*
X8792500Y-15066000D01*
X8792500Y-15320000D02*
X8842500Y-15270000D01*
X8792500Y-15220000D01*
X8742500Y-15270000D01*
X8792500Y-15320000D01*
X9452500Y-14050000D02*
X9502500Y-14000000D01*
X9452500Y-13950000D01*
X9402500Y-14000000D01*
X9452500Y-14050000D01*
X9452500Y-14304000D02*
X9502500Y-14254000D01*
X9452500Y-14204000D01*
X9402500Y-14254000D01*
X9452500Y-14304000D01*
X9452500Y-14558000D02*
X9502500Y-14508000D01*
X9452500Y-14458000D01*
X9402500Y-14508000D01*
X9452500Y-14558000D01*
X9452500Y-14812000D02*
X9502500Y-14762000D01*
X9452500Y-14712000D01*
X9402500Y-14762000D01*
X9452500Y-14812000D01*
X9452500Y-15066000D02*
X9502500Y-15016000D01*
X9452500Y-14966000D01*
X9402500Y-15016000D01*
X9452500Y-15066000D01*
X9452500Y-15320000D02*
X9502500Y-15270000D01*
X9452500Y-15220000D01*
X9402500Y-15270000D01*
X9452500Y-15320000D01*
X10112500Y-14050000D02*
X10162500Y-14000000D01*
X10112500Y-13950000D01*
X10062500Y-14000000D01*
X10112500Y-14050000D01*
X10112500Y-14304000D02*
X10162500Y-14254000D01*
X10112500Y-14204000D01*
X10062500Y-14254000D01*
X10112500Y-14304000D01*
X10112500Y-14558000D02*
X10162500Y-14508000D01*
X10112500Y-14458000D01*
X10062500Y-14508000D01*
X10112500Y-14558000D01*
X10112500Y-14812000D02*
X10162500Y-14762000D01*
X10112500Y-14712000D01*
X10062500Y-14762000D01*
X10112500Y-14812000D01*
X10112500Y-15066000D02*
X10162500Y-15016000D01*
X10112500Y-14966000D01*
X10062500Y-15016000D01*
X10112500Y-15066000D01*
X10112500Y-15320000D02*
X10162500Y-15270000D01*
X10112500Y-15220000D01*
X10062500Y-15270000D01*
X10112500Y-15320000D01*
X10772500Y-14050000D02*
X10822500Y-14000000D01*
X10772500Y-13950000D01*
X10722500Y-14000000D01*
X10772500Y-14050000D01*
X10772500Y-14304000D02*
X10822500Y-14254000D01*
X10772500Y-14204000D01*
X10722500Y-14254000D01*
X10772500Y-14304000D01*
X10772500Y-14558000D02*
X10822500Y-14508000D01*
X10772500Y-14458000D01*
X10722500Y-14508000D01*
X10772500Y-14558000D01*
X10772500Y-14812000D02*
X10822500Y-14762000D01*
X10772500Y-14712000D01*
X10722500Y-14762000D01*
X10772500Y-14812000D01*
X10772500Y-15066000D02*
X10822500Y-15016000D01*
X10772500Y-14966000D01*
X10722500Y-15016000D01*
X10772500Y-15066000D01*
X10772500Y-15320000D02*
X10822500Y-15270000D01*
X10772500Y-15220000D01*
X10722500Y-15270000D01*
X10772500Y-15320000D01*
X11432500Y-14050000D02*
X11482500Y-14000000D01*
X11432500Y-13950000D01*
X11382500Y-14000000D01*
X11432500Y-14050000D01*
X11432500Y-14304000D02*
X11482500Y-14254000D01*
X11432500Y-14204000D01*
X11382500Y-14254000D01*
X11432500Y-14304000D01*
X11432500Y-14558000D02*
X11482500Y-14508000D01*
X11432500Y-14458000D01*
X11382500Y-14508000D01*
X11432500Y-14558000D01*
X11432500Y-14812000D02*
X11482500Y-14762000D01*
X11432500Y-14712000D01*
X11382500Y-14762000D01*
X11432500Y-14812000D01*
X11432500Y-15066000D02*
X11482500Y-15016000D01*
X11432500Y-14966000D01*
X11382500Y-15016000D01*
X11432500Y-15066000D01*
X11432500Y-15320000D02*
X11482500Y-15270000D01*
X11432500Y-15220000D01*
X11382500Y-15270000D01*
X11432500Y-15320000D01*
X12092500Y-14050000D02*
X12142500Y-14000000D01*
X12092500Y-13950000D01*
X12042500Y-14000000D01*
X12092500Y-14050000D01*
X12092500Y-14304000D02*
X12142500Y-14254000D01*
X12092500Y-14204000D01*
X12042500Y-14254000D01*
X12092500Y-14304000D01*
X12092500Y-14558000D02*
X12142500Y-14508000D01*
X12092500Y-14458000D01*
X12042500Y-14508000D01*
X12092500Y-14558000D01*
X12092500Y-14812000D02*
X12142500Y-14762000D01*
X12092500Y-14712000D01*
X12042500Y-14762000D01*
X12092500Y-14812000D01*
X12092500Y-15066000D02*
X12142500Y-15016000D01*
X12092500Y-14966000D01*
X12042500Y-15016000D01*
X12092500Y-15066000D01*
X12092500Y-15320000D02*
X12142500Y-15270000D01*
X12092500Y-15220000D01*
X12042500Y-15270000D01*
X12092500Y-15320000D01*
D12*
X4655000Y-15680000D02*
X4765000Y-15790000D01*
X4765000Y-15680000D02*
X4655000Y-15790000D01*
X4765000Y-15735000D02*
G75*
G03*
X4765000Y-15735000I-55000J0D01*
G01*
X4825000Y-16050000D02*
X4935000Y-16160000D01*
X4935000Y-16050000D02*
X4825000Y-16160000D01*
X4935000Y-16105000D02*
G75*
G03*
X4935000Y-16105000I-55000J0D01*
G01*
X4995000Y-15680000D02*
X5105000Y-15790000D01*
X5105000Y-15680000D02*
X4995000Y-15790000D01*
X5105000Y-15735000D02*
G75*
G03*
X5105000Y-15735000I-55000J0D01*
G01*
X5165000Y-16050000D02*
X5275000Y-16160000D01*
X5275000Y-16050000D02*
X5165000Y-16160000D01*
X5275000Y-16105000D02*
G75*
G03*
X5275000Y-16105000I-55000J0D01*
G01*
X5335000Y-15680000D02*
X5445000Y-15790000D01*
X5445000Y-15680000D02*
X5335000Y-15790000D01*
X5445000Y-15735000D02*
G75*
G03*
X5445000Y-15735000I-55000J0D01*
G01*
D13*
X11120000Y-13006000D02*
X11240000Y-13126000D01*
X11240000Y-13006000D02*
X11120000Y-13126000D01*
X11180000Y-13006000D02*
X11180000Y-13126000D01*
X11120000Y-13066000D02*
X11240000Y-13066000D01*
X11120000Y-13260000D02*
X11240000Y-13380000D01*
X11240000Y-13260000D02*
X11120000Y-13380000D01*
X11180000Y-13260000D02*
X11180000Y-13380000D01*
X11120000Y-13320000D02*
X11240000Y-13320000D01*
X11120000Y-13514000D02*
X11240000Y-13634000D01*
X11240000Y-13514000D02*
X11120000Y-13634000D01*
X11180000Y-13514000D02*
X11180000Y-13634000D01*
X11120000Y-13574000D02*
X11240000Y-13574000D01*
D11*
X4655777Y-16916484D02*
X4655777Y-16716484D01*
X4655777Y-16716484D02*
X4703396Y-16716484D01*
X4703396Y-16716484D02*
X4731967Y-16726008D01*
X4731967Y-16726008D02*
X4751015Y-16745055D01*
X4751015Y-16745055D02*
X4760539Y-16764103D01*
X4760539Y-16764103D02*
X4770063Y-16802198D01*
X4770063Y-16802198D02*
X4770063Y-16830770D01*
X4770063Y-16830770D02*
X4760539Y-16868865D01*
X4760539Y-16868865D02*
X4751015Y-16887912D01*
X4751015Y-16887912D02*
X4731967Y-16906960D01*
X4731967Y-16906960D02*
X4703396Y-16916484D01*
X4703396Y-16916484D02*
X4655777Y-16916484D01*
X4855777Y-16916484D02*
X4855777Y-16783150D01*
X4855777Y-16821246D02*
X4865301Y-16802198D01*
X4865301Y-16802198D02*
X4874824Y-16792674D01*
X4874824Y-16792674D02*
X4893872Y-16783150D01*
X4893872Y-16783150D02*
X4912920Y-16783150D01*
X4979586Y-16916484D02*
X4979586Y-16783150D01*
X4979586Y-16716484D02*
X4970063Y-16726008D01*
X4970063Y-16726008D02*
X4979586Y-16735531D01*
X4979586Y-16735531D02*
X4989110Y-16726008D01*
X4989110Y-16726008D02*
X4979586Y-16716484D01*
X4979586Y-16716484D02*
X4979586Y-16735531D01*
X5103396Y-16916484D02*
X5084348Y-16906960D01*
X5084348Y-16906960D02*
X5074824Y-16887912D01*
X5074824Y-16887912D02*
X5074824Y-16716484D01*
X5208158Y-16916484D02*
X5189110Y-16906960D01*
X5189110Y-16906960D02*
X5179586Y-16887912D01*
X5179586Y-16887912D02*
X5179586Y-16716484D01*
X5436729Y-16916484D02*
X5436729Y-16716484D01*
X5436729Y-16716484D02*
X5503396Y-16859341D01*
X5503396Y-16859341D02*
X5570063Y-16716484D01*
X5570063Y-16716484D02*
X5570063Y-16916484D01*
X5751015Y-16916484D02*
X5751015Y-16811722D01*
X5751015Y-16811722D02*
X5741491Y-16792674D01*
X5741491Y-16792674D02*
X5722443Y-16783150D01*
X5722443Y-16783150D02*
X5684348Y-16783150D01*
X5684348Y-16783150D02*
X5665301Y-16792674D01*
X5751015Y-16906960D02*
X5731967Y-16916484D01*
X5731967Y-16916484D02*
X5684348Y-16916484D01*
X5684348Y-16916484D02*
X5665301Y-16906960D01*
X5665301Y-16906960D02*
X5655777Y-16887912D01*
X5655777Y-16887912D02*
X5655777Y-16868865D01*
X5655777Y-16868865D02*
X5665301Y-16849817D01*
X5665301Y-16849817D02*
X5684348Y-16840293D01*
X5684348Y-16840293D02*
X5731967Y-16840293D01*
X5731967Y-16840293D02*
X5751015Y-16830770D01*
X5846253Y-16783150D02*
X5846253Y-16983150D01*
X5846253Y-16792674D02*
X5865301Y-16783150D01*
X5865301Y-16783150D02*
X5903396Y-16783150D01*
X5903396Y-16783150D02*
X5922443Y-16792674D01*
X5922443Y-16792674D02*
X5931967Y-16802198D01*
X5931967Y-16802198D02*
X5941491Y-16821246D01*
X5941491Y-16821246D02*
X5941491Y-16878389D01*
X5941491Y-16878389D02*
X5931967Y-16897436D01*
X5931967Y-16897436D02*
X5922443Y-16906960D01*
X5922443Y-16906960D02*
X5903396Y-16916484D01*
X5903396Y-16916484D02*
X5865301Y-16916484D01*
X5865301Y-16916484D02*
X5846253Y-16906960D01*
X6027205Y-16897436D02*
X6036729Y-16906960D01*
X6036729Y-16906960D02*
X6027205Y-16916484D01*
X6027205Y-16916484D02*
X6017682Y-16906960D01*
X6017682Y-16906960D02*
X6027205Y-16897436D01*
X6027205Y-16897436D02*
X6027205Y-16916484D01*
X6027205Y-16792674D02*
X6036729Y-16802198D01*
X6036729Y-16802198D02*
X6027205Y-16811722D01*
X6027205Y-16811722D02*
X6017682Y-16802198D01*
X6017682Y-16802198D02*
X6027205Y-16792674D01*
X6027205Y-16792674D02*
X6027205Y-16811722D01*
D10*
X4365000Y-17230000D02*
X4395000Y-17260000D01*
X4395000Y-17230000D02*
X4365000Y-17260000D01*
D11*
X4693872Y-17136484D02*
X4712920Y-17136484D01*
X4712920Y-17136484D02*
X4731967Y-17146008D01*
X4731967Y-17146008D02*
X4741491Y-17155531D01*
X4741491Y-17155531D02*
X4751015Y-17174579D01*
X4751015Y-17174579D02*
X4760539Y-17212674D01*
X4760539Y-17212674D02*
X4760539Y-17260293D01*
X4760539Y-17260293D02*
X4751015Y-17298389D01*
X4751015Y-17298389D02*
X4741491Y-17317436D01*
X4741491Y-17317436D02*
X4731967Y-17326960D01*
X4731967Y-17326960D02*
X4712920Y-17336484D01*
X4712920Y-17336484D02*
X4693872Y-17336484D01*
X4693872Y-17336484D02*
X4674824Y-17326960D01*
X4674824Y-17326960D02*
X4665301Y-17317436D01*
X4665301Y-17317436D02*
X4655777Y-17298389D01*
X4655777Y-17298389D02*
X4646253Y-17260293D01*
X4646253Y-17260293D02*
X4646253Y-17212674D01*
X4646253Y-17212674D02*
X4655777Y-17174579D01*
X4655777Y-17174579D02*
X4665301Y-17155531D01*
X4665301Y-17155531D02*
X4674824Y-17146008D01*
X4674824Y-17146008D02*
X4693872Y-17136484D01*
X4846253Y-17317436D02*
X4855777Y-17326960D01*
X4855777Y-17326960D02*
X4846253Y-17336484D01*
X4846253Y-17336484D02*
X4836729Y-17326960D01*
X4836729Y-17326960D02*
X4846253Y-17317436D01*
X4846253Y-17317436D02*
X4846253Y-17336484D01*
X4922444Y-17136484D02*
X5046253Y-17136484D01*
X5046253Y-17136484D02*
X4979586Y-17212674D01*
X4979586Y-17212674D02*
X5008158Y-17212674D01*
X5008158Y-17212674D02*
X5027205Y-17222198D01*
X5027205Y-17222198D02*
X5036729Y-17231722D01*
X5036729Y-17231722D02*
X5046253Y-17250770D01*
X5046253Y-17250770D02*
X5046253Y-17298389D01*
X5046253Y-17298389D02*
X5036729Y-17317436D01*
X5036729Y-17317436D02*
X5027205Y-17326960D01*
X5027205Y-17326960D02*
X5008158Y-17336484D01*
X5008158Y-17336484D02*
X4951015Y-17336484D01*
X4951015Y-17336484D02*
X4931967Y-17326960D01*
X4931967Y-17326960D02*
X4922444Y-17317436D01*
X5170063Y-17136484D02*
X5189110Y-17136484D01*
X5189110Y-17136484D02*
X5208158Y-17146008D01*
X5208158Y-17146008D02*
X5217682Y-17155531D01*
X5217682Y-17155531D02*
X5227205Y-17174579D01*
X5227205Y-17174579D02*
X5236729Y-17212674D01*
X5236729Y-17212674D02*
X5236729Y-17260293D01*
X5236729Y-17260293D02*
X5227205Y-17298389D01*
X5227205Y-17298389D02*
X5217682Y-17317436D01*
X5217682Y-17317436D02*
X5208158Y-17326960D01*
X5208158Y-17326960D02*
X5189110Y-17336484D01*
X5189110Y-17336484D02*
X5170063Y-17336484D01*
X5170063Y-17336484D02*
X5151015Y-17326960D01*
X5151015Y-17326960D02*
X5141491Y-17317436D01*
X5141491Y-17317436D02*
X5131967Y-17298389D01*
X5131967Y-17298389D02*
X5122444Y-17260293D01*
X5122444Y-17260293D02*
X5122444Y-17212674D01*
X5122444Y-17212674D02*
X5131967Y-17174579D01*
X5131967Y-17174579D02*
X5141491Y-17155531D01*
X5141491Y-17155531D02*
X5151015Y-17146008D01*
X5151015Y-17146008D02*
X5170063Y-17136484D01*
X5360539Y-17136484D02*
X5379586Y-17136484D01*
X5379586Y-17136484D02*
X5398634Y-17146008D01*
X5398634Y-17146008D02*
X5408158Y-17155531D01*
X5408158Y-17155531D02*
X5417682Y-17174579D01*
X5417682Y-17174579D02*
X5427205Y-17212674D01*
X5427205Y-17212674D02*
X5427205Y-17260293D01*
X5427205Y-17260293D02*
X5417682Y-17298389D01*
X5417682Y-17298389D02*
X5408158Y-17317436D01*
X5408158Y-17317436D02*
X5398634Y-17326960D01*
X5398634Y-17326960D02*
X5379586Y-17336484D01*
X5379586Y-17336484D02*
X5360539Y-17336484D01*
X5360539Y-17336484D02*
X5341491Y-17326960D01*
X5341491Y-17326960D02*
X5331967Y-17317436D01*
X5331967Y-17317436D02*
X5322444Y-17298389D01*
X5322444Y-17298389D02*
X5312920Y-17260293D01*
X5312920Y-17260293D02*
X5312920Y-17212674D01*
X5312920Y-17212674D02*
X5322444Y-17174579D01*
X5322444Y-17174579D02*
X5331967Y-17155531D01*
X5331967Y-17155531D02*
X5341491Y-17146008D01*
X5341491Y-17146008D02*
X5360539Y-17136484D01*
X5512920Y-17336484D02*
X5512920Y-17203150D01*
X5512920Y-17222198D02*
X5522444Y-17212674D01*
X5522444Y-17212674D02*
X5541491Y-17203150D01*
X5541491Y-17203150D02*
X5570063Y-17203150D01*
X5570063Y-17203150D02*
X5589110Y-17212674D01*
X5589110Y-17212674D02*
X5598634Y-17231722D01*
X5598634Y-17231722D02*
X5598634Y-17336484D01*
X5598634Y-17231722D02*
X5608158Y-17212674D01*
X5608158Y-17212674D02*
X5627205Y-17203150D01*
X5627205Y-17203150D02*
X5655777Y-17203150D01*
X5655777Y-17203150D02*
X5674824Y-17212674D01*
X5674824Y-17212674D02*
X5684348Y-17231722D01*
X5684348Y-17231722D02*
X5684348Y-17336484D01*
X5779586Y-17336484D02*
X5779586Y-17203150D01*
X5779586Y-17222198D02*
X5789110Y-17212674D01*
X5789110Y-17212674D02*
X5808158Y-17203150D01*
X5808158Y-17203150D02*
X5836729Y-17203150D01*
X5836729Y-17203150D02*
X5855777Y-17212674D01*
X5855777Y-17212674D02*
X5865301Y-17231722D01*
X5865301Y-17231722D02*
X5865301Y-17336484D01*
X5865301Y-17231722D02*
X5874824Y-17212674D01*
X5874824Y-17212674D02*
X5893872Y-17203150D01*
X5893872Y-17203150D02*
X5922443Y-17203150D01*
X5922443Y-17203150D02*
X5941491Y-17212674D01*
X5941491Y-17212674D02*
X5951015Y-17231722D01*
X5951015Y-17231722D02*
X5951015Y-17336484D01*
X6341491Y-17126960D02*
X6170063Y-17384103D01*
X6598634Y-17136484D02*
X6617682Y-17136484D01*
X6617682Y-17136484D02*
X6636729Y-17146008D01*
X6636729Y-17146008D02*
X6646253Y-17155531D01*
X6646253Y-17155531D02*
X6655777Y-17174579D01*
X6655777Y-17174579D02*
X6665301Y-17212674D01*
X6665301Y-17212674D02*
X6665301Y-17260293D01*
X6665301Y-17260293D02*
X6655777Y-17298389D01*
X6655777Y-17298389D02*
X6646253Y-17317436D01*
X6646253Y-17317436D02*
X6636729Y-17326960D01*
X6636729Y-17326960D02*
X6617682Y-17336484D01*
X6617682Y-17336484D02*
X6598634Y-17336484D01*
X6598634Y-17336484D02*
X6579586Y-17326960D01*
X6579586Y-17326960D02*
X6570063Y-17317436D01*
X6570063Y-17317436D02*
X6560539Y-17298389D01*
X6560539Y-17298389D02*
X6551015Y-17260293D01*
X6551015Y-17260293D02*
X6551015Y-17212674D01*
X6551015Y-17212674D02*
X6560539Y-17174579D01*
X6560539Y-17174579D02*
X6570063Y-17155531D01*
X6570063Y-17155531D02*
X6579586Y-17146008D01*
X6579586Y-17146008D02*
X6598634Y-17136484D01*
X6751015Y-17317436D02*
X6760539Y-17326960D01*
X6760539Y-17326960D02*
X6751015Y-17336484D01*
X6751015Y-17336484D02*
X6741491Y-17326960D01*
X6741491Y-17326960D02*
X6751015Y-17317436D01*
X6751015Y-17317436D02*
X6751015Y-17336484D01*
X6884348Y-17136484D02*
X6903396Y-17136484D01*
X6903396Y-17136484D02*
X6922444Y-17146008D01*
X6922444Y-17146008D02*
X6931967Y-17155531D01*
X6931967Y-17155531D02*
X6941491Y-17174579D01*
X6941491Y-17174579D02*
X6951015Y-17212674D01*
X6951015Y-17212674D02*
X6951015Y-17260293D01*
X6951015Y-17260293D02*
X6941491Y-17298389D01*
X6941491Y-17298389D02*
X6931967Y-17317436D01*
X6931967Y-17317436D02*
X6922444Y-17326960D01*
X6922444Y-17326960D02*
X6903396Y-17336484D01*
X6903396Y-17336484D02*
X6884348Y-17336484D01*
X6884348Y-17336484D02*
X6865301Y-17326960D01*
X6865301Y-17326960D02*
X6855777Y-17317436D01*
X6855777Y-17317436D02*
X6846253Y-17298389D01*
X6846253Y-17298389D02*
X6836729Y-17260293D01*
X6836729Y-17260293D02*
X6836729Y-17212674D01*
X6836729Y-17212674D02*
X6846253Y-17174579D01*
X6846253Y-17174579D02*
X6855777Y-17155531D01*
X6855777Y-17155531D02*
X6865301Y-17146008D01*
X6865301Y-17146008D02*
X6884348Y-17136484D01*
X7141491Y-17336484D02*
X7027206Y-17336484D01*
X7084348Y-17336484D02*
X7084348Y-17136484D01*
X7084348Y-17136484D02*
X7065301Y-17165055D01*
X7065301Y-17165055D02*
X7046253Y-17184103D01*
X7046253Y-17184103D02*
X7027206Y-17193627D01*
X7331967Y-17336484D02*
X7217682Y-17336484D01*
X7274825Y-17336484D02*
X7274825Y-17136484D01*
X7274825Y-17136484D02*
X7255777Y-17165055D01*
X7255777Y-17165055D02*
X7236729Y-17184103D01*
X7236729Y-17184103D02*
X7217682Y-17193627D01*
X7446253Y-17222198D02*
X7427206Y-17212674D01*
X7427206Y-17212674D02*
X7417682Y-17203150D01*
X7417682Y-17203150D02*
X7408158Y-17184103D01*
X7408158Y-17184103D02*
X7408158Y-17174579D01*
X7408158Y-17174579D02*
X7417682Y-17155531D01*
X7417682Y-17155531D02*
X7427206Y-17146008D01*
X7427206Y-17146008D02*
X7446253Y-17136484D01*
X7446253Y-17136484D02*
X7484348Y-17136484D01*
X7484348Y-17136484D02*
X7503396Y-17146008D01*
X7503396Y-17146008D02*
X7512920Y-17155531D01*
X7512920Y-17155531D02*
X7522444Y-17174579D01*
X7522444Y-17174579D02*
X7522444Y-17184103D01*
X7522444Y-17184103D02*
X7512920Y-17203150D01*
X7512920Y-17203150D02*
X7503396Y-17212674D01*
X7503396Y-17212674D02*
X7484348Y-17222198D01*
X7484348Y-17222198D02*
X7446253Y-17222198D01*
X7446253Y-17222198D02*
X7427206Y-17231722D01*
X7427206Y-17231722D02*
X7417682Y-17241246D01*
X7417682Y-17241246D02*
X7408158Y-17260293D01*
X7408158Y-17260293D02*
X7408158Y-17298389D01*
X7408158Y-17298389D02*
X7417682Y-17317436D01*
X7417682Y-17317436D02*
X7427206Y-17326960D01*
X7427206Y-17326960D02*
X7446253Y-17336484D01*
X7446253Y-17336484D02*
X7484348Y-17336484D01*
X7484348Y-17336484D02*
X7503396Y-17326960D01*
X7503396Y-17326960D02*
X7512920Y-17317436D01*
X7512920Y-17317436D02*
X7522444Y-17298389D01*
X7522444Y-17298389D02*
X7522444Y-17260293D01*
X7522444Y-17260293D02*
X7512920Y-17241246D01*
X7512920Y-17241246D02*
X7503396Y-17231722D01*
X7503396Y-17231722D02*
X7484348Y-17222198D01*
X7598634Y-17136484D02*
X7598634Y-17174579D01*
X7674825Y-17136484D02*
X7674825Y-17174579D01*
X7970063Y-17412674D02*
X7960539Y-17403150D01*
X7960539Y-17403150D02*
X7941491Y-17374579D01*
X7941491Y-17374579D02*
X7931968Y-17355531D01*
X7931968Y-17355531D02*
X7922444Y-17326960D01*
X7922444Y-17326960D02*
X7912920Y-17279341D01*
X7912920Y-17279341D02*
X7912920Y-17241246D01*
X7912920Y-17241246D02*
X7922444Y-17193627D01*
X7922444Y-17193627D02*
X7931968Y-17165055D01*
X7931968Y-17165055D02*
X7941491Y-17146008D01*
X7941491Y-17146008D02*
X7960539Y-17117436D01*
X7960539Y-17117436D02*
X7970063Y-17107912D01*
X8131968Y-17203150D02*
X8131968Y-17336484D01*
X8084348Y-17126960D02*
X8036729Y-17269817D01*
X8036729Y-17269817D02*
X8160539Y-17269817D01*
X8246253Y-17336484D02*
X8284348Y-17336484D01*
X8284348Y-17336484D02*
X8303396Y-17326960D01*
X8303396Y-17326960D02*
X8312920Y-17317436D01*
X8312920Y-17317436D02*
X8331968Y-17288865D01*
X8331968Y-17288865D02*
X8341491Y-17250770D01*
X8341491Y-17250770D02*
X8341491Y-17174579D01*
X8341491Y-17174579D02*
X8331968Y-17155531D01*
X8331968Y-17155531D02*
X8322444Y-17146008D01*
X8322444Y-17146008D02*
X8303396Y-17136484D01*
X8303396Y-17136484D02*
X8265301Y-17136484D01*
X8265301Y-17136484D02*
X8246253Y-17146008D01*
X8246253Y-17146008D02*
X8236729Y-17155531D01*
X8236729Y-17155531D02*
X8227206Y-17174579D01*
X8227206Y-17174579D02*
X8227206Y-17222198D01*
X8227206Y-17222198D02*
X8236729Y-17241246D01*
X8236729Y-17241246D02*
X8246253Y-17250770D01*
X8246253Y-17250770D02*
X8265301Y-17260293D01*
X8265301Y-17260293D02*
X8303396Y-17260293D01*
X8303396Y-17260293D02*
X8322444Y-17250770D01*
X8322444Y-17250770D02*
X8331968Y-17241246D01*
X8331968Y-17241246D02*
X8341491Y-17222198D01*
X8579587Y-17336484D02*
X8579587Y-17136484D01*
X8665301Y-17336484D02*
X8665301Y-17231722D01*
X8665301Y-17231722D02*
X8655777Y-17212674D01*
X8655777Y-17212674D02*
X8636730Y-17203150D01*
X8636730Y-17203150D02*
X8608158Y-17203150D01*
X8608158Y-17203150D02*
X8589111Y-17212674D01*
X8589111Y-17212674D02*
X8579587Y-17222198D01*
X8789111Y-17336484D02*
X8770063Y-17326960D01*
X8770063Y-17326960D02*
X8760539Y-17317436D01*
X8760539Y-17317436D02*
X8751015Y-17298389D01*
X8751015Y-17298389D02*
X8751015Y-17241246D01*
X8751015Y-17241246D02*
X8760539Y-17222198D01*
X8760539Y-17222198D02*
X8770063Y-17212674D01*
X8770063Y-17212674D02*
X8789111Y-17203150D01*
X8789111Y-17203150D02*
X8817682Y-17203150D01*
X8817682Y-17203150D02*
X8836730Y-17212674D01*
X8836730Y-17212674D02*
X8846253Y-17222198D01*
X8846253Y-17222198D02*
X8855777Y-17241246D01*
X8855777Y-17241246D02*
X8855777Y-17298389D01*
X8855777Y-17298389D02*
X8846253Y-17317436D01*
X8846253Y-17317436D02*
X8836730Y-17326960D01*
X8836730Y-17326960D02*
X8817682Y-17336484D01*
X8817682Y-17336484D02*
X8789111Y-17336484D01*
X8970063Y-17336484D02*
X8951015Y-17326960D01*
X8951015Y-17326960D02*
X8941492Y-17307912D01*
X8941492Y-17307912D02*
X8941492Y-17136484D01*
X9122444Y-17326960D02*
X9103396Y-17336484D01*
X9103396Y-17336484D02*
X9065301Y-17336484D01*
X9065301Y-17336484D02*
X9046253Y-17326960D01*
X9046253Y-17326960D02*
X9036730Y-17307912D01*
X9036730Y-17307912D02*
X9036730Y-17231722D01*
X9036730Y-17231722D02*
X9046253Y-17212674D01*
X9046253Y-17212674D02*
X9065301Y-17203150D01*
X9065301Y-17203150D02*
X9103396Y-17203150D01*
X9103396Y-17203150D02*
X9122444Y-17212674D01*
X9122444Y-17212674D02*
X9131968Y-17231722D01*
X9131968Y-17231722D02*
X9131968Y-17250770D01*
X9131968Y-17250770D02*
X9036730Y-17269817D01*
X9208158Y-17326960D02*
X9227206Y-17336484D01*
X9227206Y-17336484D02*
X9265301Y-17336484D01*
X9265301Y-17336484D02*
X9284349Y-17326960D01*
X9284349Y-17326960D02*
X9293873Y-17307912D01*
X9293873Y-17307912D02*
X9293873Y-17298389D01*
X9293873Y-17298389D02*
X9284349Y-17279341D01*
X9284349Y-17279341D02*
X9265301Y-17269817D01*
X9265301Y-17269817D02*
X9236730Y-17269817D01*
X9236730Y-17269817D02*
X9217682Y-17260293D01*
X9217682Y-17260293D02*
X9208158Y-17241246D01*
X9208158Y-17241246D02*
X9208158Y-17231722D01*
X9208158Y-17231722D02*
X9217682Y-17212674D01*
X9217682Y-17212674D02*
X9236730Y-17203150D01*
X9236730Y-17203150D02*
X9265301Y-17203150D01*
X9265301Y-17203150D02*
X9284349Y-17212674D01*
X9360539Y-17412674D02*
X9370063Y-17403150D01*
X9370063Y-17403150D02*
X9389111Y-17374579D01*
X9389111Y-17374579D02*
X9398634Y-17355531D01*
X9398634Y-17355531D02*
X9408158Y-17326960D01*
X9408158Y-17326960D02*
X9417682Y-17279341D01*
X9417682Y-17279341D02*
X9417682Y-17241246D01*
X9417682Y-17241246D02*
X9408158Y-17193627D01*
X9408158Y-17193627D02*
X9398634Y-17165055D01*
X9398634Y-17165055D02*
X9389111Y-17146008D01*
X9389111Y-17146008D02*
X9370063Y-17117436D01*
X9370063Y-17117436D02*
X9360539Y-17107912D01*
D10*
X4395000Y-17509000D02*
G75*
G03*
X4395000Y-17509000I-20000J0D01*
G01*
D11*
X4693872Y-17400484D02*
X4712920Y-17400484D01*
X4712920Y-17400484D02*
X4731967Y-17410008D01*
X4731967Y-17410008D02*
X4741491Y-17419531D01*
X4741491Y-17419531D02*
X4751015Y-17438579D01*
X4751015Y-17438579D02*
X4760539Y-17476674D01*
X4760539Y-17476674D02*
X4760539Y-17524293D01*
X4760539Y-17524293D02*
X4751015Y-17562389D01*
X4751015Y-17562389D02*
X4741491Y-17581436D01*
X4741491Y-17581436D02*
X4731967Y-17590960D01*
X4731967Y-17590960D02*
X4712920Y-17600484D01*
X4712920Y-17600484D02*
X4693872Y-17600484D01*
X4693872Y-17600484D02*
X4674824Y-17590960D01*
X4674824Y-17590960D02*
X4665301Y-17581436D01*
X4665301Y-17581436D02*
X4655777Y-17562389D01*
X4655777Y-17562389D02*
X4646253Y-17524293D01*
X4646253Y-17524293D02*
X4646253Y-17476674D01*
X4646253Y-17476674D02*
X4655777Y-17438579D01*
X4655777Y-17438579D02*
X4665301Y-17419531D01*
X4665301Y-17419531D02*
X4674824Y-17410008D01*
X4674824Y-17410008D02*
X4693872Y-17400484D01*
X4846253Y-17581436D02*
X4855777Y-17590960D01*
X4855777Y-17590960D02*
X4846253Y-17600484D01*
X4846253Y-17600484D02*
X4836729Y-17590960D01*
X4836729Y-17590960D02*
X4846253Y-17581436D01*
X4846253Y-17581436D02*
X4846253Y-17600484D01*
X5027205Y-17467150D02*
X5027205Y-17600484D01*
X4979586Y-17390960D02*
X4931967Y-17533817D01*
X4931967Y-17533817D02*
X5055777Y-17533817D01*
X5170063Y-17400484D02*
X5189110Y-17400484D01*
X5189110Y-17400484D02*
X5208158Y-17410008D01*
X5208158Y-17410008D02*
X5217682Y-17419531D01*
X5217682Y-17419531D02*
X5227205Y-17438579D01*
X5227205Y-17438579D02*
X5236729Y-17476674D01*
X5236729Y-17476674D02*
X5236729Y-17524293D01*
X5236729Y-17524293D02*
X5227205Y-17562389D01*
X5227205Y-17562389D02*
X5217682Y-17581436D01*
X5217682Y-17581436D02*
X5208158Y-17590960D01*
X5208158Y-17590960D02*
X5189110Y-17600484D01*
X5189110Y-17600484D02*
X5170063Y-17600484D01*
X5170063Y-17600484D02*
X5151015Y-17590960D01*
X5151015Y-17590960D02*
X5141491Y-17581436D01*
X5141491Y-17581436D02*
X5131967Y-17562389D01*
X5131967Y-17562389D02*
X5122444Y-17524293D01*
X5122444Y-17524293D02*
X5122444Y-17476674D01*
X5122444Y-17476674D02*
X5131967Y-17438579D01*
X5131967Y-17438579D02*
X5141491Y-17419531D01*
X5141491Y-17419531D02*
X5151015Y-17410008D01*
X5151015Y-17410008D02*
X5170063Y-17400484D01*
X5360539Y-17400484D02*
X5379586Y-17400484D01*
X5379586Y-17400484D02*
X5398634Y-17410008D01*
X5398634Y-17410008D02*
X5408158Y-17419531D01*
X5408158Y-17419531D02*
X5417682Y-17438579D01*
X5417682Y-17438579D02*
X5427205Y-17476674D01*
X5427205Y-17476674D02*
X5427205Y-17524293D01*
X5427205Y-17524293D02*
X5417682Y-17562389D01*
X5417682Y-17562389D02*
X5408158Y-17581436D01*
X5408158Y-17581436D02*
X5398634Y-17590960D01*
X5398634Y-17590960D02*
X5379586Y-17600484D01*
X5379586Y-17600484D02*
X5360539Y-17600484D01*
X5360539Y-17600484D02*
X5341491Y-17590960D01*
X5341491Y-17590960D02*
X5331967Y-17581436D01*
X5331967Y-17581436D02*
X5322444Y-17562389D01*
X5322444Y-17562389D02*
X5312920Y-17524293D01*
X5312920Y-17524293D02*
X5312920Y-17476674D01*
X5312920Y-17476674D02*
X5322444Y-17438579D01*
X5322444Y-17438579D02*
X5331967Y-17419531D01*
X5331967Y-17419531D02*
X5341491Y-17410008D01*
X5341491Y-17410008D02*
X5360539Y-17400484D01*
X5512920Y-17600484D02*
X5512920Y-17467150D01*
X5512920Y-17486198D02*
X5522444Y-17476674D01*
X5522444Y-17476674D02*
X5541491Y-17467150D01*
X5541491Y-17467150D02*
X5570063Y-17467150D01*
X5570063Y-17467150D02*
X5589110Y-17476674D01*
X5589110Y-17476674D02*
X5598634Y-17495722D01*
X5598634Y-17495722D02*
X5598634Y-17600484D01*
X5598634Y-17495722D02*
X5608158Y-17476674D01*
X5608158Y-17476674D02*
X5627205Y-17467150D01*
X5627205Y-17467150D02*
X5655777Y-17467150D01*
X5655777Y-17467150D02*
X5674824Y-17476674D01*
X5674824Y-17476674D02*
X5684348Y-17495722D01*
X5684348Y-17495722D02*
X5684348Y-17600484D01*
X5779586Y-17600484D02*
X5779586Y-17467150D01*
X5779586Y-17486198D02*
X5789110Y-17476674D01*
X5789110Y-17476674D02*
X5808158Y-17467150D01*
X5808158Y-17467150D02*
X5836729Y-17467150D01*
X5836729Y-17467150D02*
X5855777Y-17476674D01*
X5855777Y-17476674D02*
X5865301Y-17495722D01*
X5865301Y-17495722D02*
X5865301Y-17600484D01*
X5865301Y-17495722D02*
X5874824Y-17476674D01*
X5874824Y-17476674D02*
X5893872Y-17467150D01*
X5893872Y-17467150D02*
X5922443Y-17467150D01*
X5922443Y-17467150D02*
X5941491Y-17476674D01*
X5941491Y-17476674D02*
X5951015Y-17495722D01*
X5951015Y-17495722D02*
X5951015Y-17600484D01*
X6341491Y-17390960D02*
X6170063Y-17648103D01*
X6598634Y-17400484D02*
X6617682Y-17400484D01*
X6617682Y-17400484D02*
X6636729Y-17410008D01*
X6636729Y-17410008D02*
X6646253Y-17419531D01*
X6646253Y-17419531D02*
X6655777Y-17438579D01*
X6655777Y-17438579D02*
X6665301Y-17476674D01*
X6665301Y-17476674D02*
X6665301Y-17524293D01*
X6665301Y-17524293D02*
X6655777Y-17562389D01*
X6655777Y-17562389D02*
X6646253Y-17581436D01*
X6646253Y-17581436D02*
X6636729Y-17590960D01*
X6636729Y-17590960D02*
X6617682Y-17600484D01*
X6617682Y-17600484D02*
X6598634Y-17600484D01*
X6598634Y-17600484D02*
X6579586Y-17590960D01*
X6579586Y-17590960D02*
X6570063Y-17581436D01*
X6570063Y-17581436D02*
X6560539Y-17562389D01*
X6560539Y-17562389D02*
X6551015Y-17524293D01*
X6551015Y-17524293D02*
X6551015Y-17476674D01*
X6551015Y-17476674D02*
X6560539Y-17438579D01*
X6560539Y-17438579D02*
X6570063Y-17419531D01*
X6570063Y-17419531D02*
X6579586Y-17410008D01*
X6579586Y-17410008D02*
X6598634Y-17400484D01*
X6751015Y-17581436D02*
X6760539Y-17590960D01*
X6760539Y-17590960D02*
X6751015Y-17600484D01*
X6751015Y-17600484D02*
X6741491Y-17590960D01*
X6741491Y-17590960D02*
X6751015Y-17581436D01*
X6751015Y-17581436D02*
X6751015Y-17600484D01*
X6884348Y-17400484D02*
X6903396Y-17400484D01*
X6903396Y-17400484D02*
X6922444Y-17410008D01*
X6922444Y-17410008D02*
X6931967Y-17419531D01*
X6931967Y-17419531D02*
X6941491Y-17438579D01*
X6941491Y-17438579D02*
X6951015Y-17476674D01*
X6951015Y-17476674D02*
X6951015Y-17524293D01*
X6951015Y-17524293D02*
X6941491Y-17562389D01*
X6941491Y-17562389D02*
X6931967Y-17581436D01*
X6931967Y-17581436D02*
X6922444Y-17590960D01*
X6922444Y-17590960D02*
X6903396Y-17600484D01*
X6903396Y-17600484D02*
X6884348Y-17600484D01*
X6884348Y-17600484D02*
X6865301Y-17590960D01*
X6865301Y-17590960D02*
X6855777Y-17581436D01*
X6855777Y-17581436D02*
X6846253Y-17562389D01*
X6846253Y-17562389D02*
X6836729Y-17524293D01*
X6836729Y-17524293D02*
X6836729Y-17476674D01*
X6836729Y-17476674D02*
X6846253Y-17438579D01*
X6846253Y-17438579D02*
X6855777Y-17419531D01*
X6855777Y-17419531D02*
X6865301Y-17410008D01*
X6865301Y-17410008D02*
X6884348Y-17400484D01*
X7141491Y-17600484D02*
X7027206Y-17600484D01*
X7084348Y-17600484D02*
X7084348Y-17400484D01*
X7084348Y-17400484D02*
X7065301Y-17429055D01*
X7065301Y-17429055D02*
X7046253Y-17448103D01*
X7046253Y-17448103D02*
X7027206Y-17457627D01*
X7322444Y-17400484D02*
X7227206Y-17400484D01*
X7227206Y-17400484D02*
X7217682Y-17495722D01*
X7217682Y-17495722D02*
X7227206Y-17486198D01*
X7227206Y-17486198D02*
X7246253Y-17476674D01*
X7246253Y-17476674D02*
X7293872Y-17476674D01*
X7293872Y-17476674D02*
X7312920Y-17486198D01*
X7312920Y-17486198D02*
X7322444Y-17495722D01*
X7322444Y-17495722D02*
X7331967Y-17514770D01*
X7331967Y-17514770D02*
X7331967Y-17562389D01*
X7331967Y-17562389D02*
X7322444Y-17581436D01*
X7322444Y-17581436D02*
X7312920Y-17590960D01*
X7312920Y-17590960D02*
X7293872Y-17600484D01*
X7293872Y-17600484D02*
X7246253Y-17600484D01*
X7246253Y-17600484D02*
X7227206Y-17590960D01*
X7227206Y-17590960D02*
X7217682Y-17581436D01*
X7398634Y-17400484D02*
X7531967Y-17400484D01*
X7531967Y-17400484D02*
X7446253Y-17600484D01*
X7598634Y-17400484D02*
X7598634Y-17438579D01*
X7674825Y-17400484D02*
X7674825Y-17438579D01*
X7970063Y-17676674D02*
X7960539Y-17667150D01*
X7960539Y-17667150D02*
X7941491Y-17638579D01*
X7941491Y-17638579D02*
X7931968Y-17619531D01*
X7931968Y-17619531D02*
X7922444Y-17590960D01*
X7922444Y-17590960D02*
X7912920Y-17543341D01*
X7912920Y-17543341D02*
X7912920Y-17505246D01*
X7912920Y-17505246D02*
X7922444Y-17457627D01*
X7922444Y-17457627D02*
X7931968Y-17429055D01*
X7931968Y-17429055D02*
X7941491Y-17410008D01*
X7941491Y-17410008D02*
X7960539Y-17381436D01*
X7960539Y-17381436D02*
X7970063Y-17371912D01*
X8141491Y-17400484D02*
X8046253Y-17400484D01*
X8046253Y-17400484D02*
X8036729Y-17495722D01*
X8036729Y-17495722D02*
X8046253Y-17486198D01*
X8046253Y-17486198D02*
X8065301Y-17476674D01*
X8065301Y-17476674D02*
X8112920Y-17476674D01*
X8112920Y-17476674D02*
X8131968Y-17486198D01*
X8131968Y-17486198D02*
X8141491Y-17495722D01*
X8141491Y-17495722D02*
X8151015Y-17514770D01*
X8151015Y-17514770D02*
X8151015Y-17562389D01*
X8151015Y-17562389D02*
X8141491Y-17581436D01*
X8141491Y-17581436D02*
X8131968Y-17590960D01*
X8131968Y-17590960D02*
X8112920Y-17600484D01*
X8112920Y-17600484D02*
X8065301Y-17600484D01*
X8065301Y-17600484D02*
X8046253Y-17590960D01*
X8046253Y-17590960D02*
X8036729Y-17581436D01*
X8217682Y-17400484D02*
X8351015Y-17400484D01*
X8351015Y-17400484D02*
X8265301Y-17600484D01*
X8579587Y-17600484D02*
X8579587Y-17400484D01*
X8665301Y-17600484D02*
X8665301Y-17495722D01*
X8665301Y-17495722D02*
X8655777Y-17476674D01*
X8655777Y-17476674D02*
X8636730Y-17467150D01*
X8636730Y-17467150D02*
X8608158Y-17467150D01*
X8608158Y-17467150D02*
X8589111Y-17476674D01*
X8589111Y-17476674D02*
X8579587Y-17486198D01*
X8789111Y-17600484D02*
X8770063Y-17590960D01*
X8770063Y-17590960D02*
X8760539Y-17581436D01*
X8760539Y-17581436D02*
X8751015Y-17562389D01*
X8751015Y-17562389D02*
X8751015Y-17505246D01*
X8751015Y-17505246D02*
X8760539Y-17486198D01*
X8760539Y-17486198D02*
X8770063Y-17476674D01*
X8770063Y-17476674D02*
X8789111Y-17467150D01*
X8789111Y-17467150D02*
X8817682Y-17467150D01*
X8817682Y-17467150D02*
X8836730Y-17476674D01*
X8836730Y-17476674D02*
X8846253Y-17486198D01*
X8846253Y-17486198D02*
X8855777Y-17505246D01*
X8855777Y-17505246D02*
X8855777Y-17562389D01*
X8855777Y-17562389D02*
X8846253Y-17581436D01*
X8846253Y-17581436D02*
X8836730Y-17590960D01*
X8836730Y-17590960D02*
X8817682Y-17600484D01*
X8817682Y-17600484D02*
X8789111Y-17600484D01*
X8970063Y-17600484D02*
X8951015Y-17590960D01*
X8951015Y-17590960D02*
X8941492Y-17571912D01*
X8941492Y-17571912D02*
X8941492Y-17400484D01*
X9122444Y-17590960D02*
X9103396Y-17600484D01*
X9103396Y-17600484D02*
X9065301Y-17600484D01*
X9065301Y-17600484D02*
X9046253Y-17590960D01*
X9046253Y-17590960D02*
X9036730Y-17571912D01*
X9036730Y-17571912D02*
X9036730Y-17495722D01*
X9036730Y-17495722D02*
X9046253Y-17476674D01*
X9046253Y-17476674D02*
X9065301Y-17467150D01*
X9065301Y-17467150D02*
X9103396Y-17467150D01*
X9103396Y-17467150D02*
X9122444Y-17476674D01*
X9122444Y-17476674D02*
X9131968Y-17495722D01*
X9131968Y-17495722D02*
X9131968Y-17514770D01*
X9131968Y-17514770D02*
X9036730Y-17533817D01*
X9208158Y-17590960D02*
X9227206Y-17600484D01*
X9227206Y-17600484D02*
X9265301Y-17600484D01*
X9265301Y-17600484D02*
X9284349Y-17590960D01*
X9284349Y-17590960D02*
X9293873Y-17571912D01*
X9293873Y-17571912D02*
X9293873Y-17562389D01*
X9293873Y-17562389D02*
X9284349Y-17543341D01*
X9284349Y-17543341D02*
X9265301Y-17533817D01*
X9265301Y-17533817D02*
X9236730Y-17533817D01*
X9236730Y-17533817D02*
X9217682Y-17524293D01*
X9217682Y-17524293D02*
X9208158Y-17505246D01*
X9208158Y-17505246D02*
X9208158Y-17495722D01*
X9208158Y-17495722D02*
X9217682Y-17476674D01*
X9217682Y-17476674D02*
X9236730Y-17467150D01*
X9236730Y-17467150D02*
X9265301Y-17467150D01*
X9265301Y-17467150D02*
X9284349Y-17476674D01*
X9360539Y-17676674D02*
X9370063Y-17667150D01*
X9370063Y-17667150D02*
X9389111Y-17638579D01*
X9389111Y-17638579D02*
X9398634Y-17619531D01*
X9398634Y-17619531D02*
X9408158Y-17590960D01*
X9408158Y-17590960D02*
X9417682Y-17543341D01*
X9417682Y-17543341D02*
X9417682Y-17505246D01*
X9417682Y-17505246D02*
X9408158Y-17457627D01*
X9408158Y-17457627D02*
X9398634Y-17429055D01*
X9398634Y-17429055D02*
X9389111Y-17410008D01*
X9389111Y-17410008D02*
X9370063Y-17381436D01*
X9370063Y-17381436D02*
X9360539Y-17371912D01*
D10*
X4370000Y-17748000D02*
X4370000Y-17798000D01*
X4345000Y-17773000D02*
X4395000Y-17773000D01*
D11*
X4693872Y-17664484D02*
X4712920Y-17664484D01*
X4712920Y-17664484D02*
X4731967Y-17674008D01*
X4731967Y-17674008D02*
X4741491Y-17683531D01*
X4741491Y-17683531D02*
X4751015Y-17702579D01*
X4751015Y-17702579D02*
X4760539Y-17740674D01*
X4760539Y-17740674D02*
X4760539Y-17788293D01*
X4760539Y-17788293D02*
X4751015Y-17826389D01*
X4751015Y-17826389D02*
X4741491Y-17845436D01*
X4741491Y-17845436D02*
X4731967Y-17854960D01*
X4731967Y-17854960D02*
X4712920Y-17864484D01*
X4712920Y-17864484D02*
X4693872Y-17864484D01*
X4693872Y-17864484D02*
X4674824Y-17854960D01*
X4674824Y-17854960D02*
X4665301Y-17845436D01*
X4665301Y-17845436D02*
X4655777Y-17826389D01*
X4655777Y-17826389D02*
X4646253Y-17788293D01*
X4646253Y-17788293D02*
X4646253Y-17740674D01*
X4646253Y-17740674D02*
X4655777Y-17702579D01*
X4655777Y-17702579D02*
X4665301Y-17683531D01*
X4665301Y-17683531D02*
X4674824Y-17674008D01*
X4674824Y-17674008D02*
X4693872Y-17664484D01*
X4846253Y-17845436D02*
X4855777Y-17854960D01*
X4855777Y-17854960D02*
X4846253Y-17864484D01*
X4846253Y-17864484D02*
X4836729Y-17854960D01*
X4836729Y-17854960D02*
X4846253Y-17845436D01*
X4846253Y-17845436D02*
X4846253Y-17864484D01*
X5036729Y-17664484D02*
X4941491Y-17664484D01*
X4941491Y-17664484D02*
X4931967Y-17759722D01*
X4931967Y-17759722D02*
X4941491Y-17750198D01*
X4941491Y-17750198D02*
X4960539Y-17740674D01*
X4960539Y-17740674D02*
X5008158Y-17740674D01*
X5008158Y-17740674D02*
X5027205Y-17750198D01*
X5027205Y-17750198D02*
X5036729Y-17759722D01*
X5036729Y-17759722D02*
X5046253Y-17778770D01*
X5046253Y-17778770D02*
X5046253Y-17826389D01*
X5046253Y-17826389D02*
X5036729Y-17845436D01*
X5036729Y-17845436D02*
X5027205Y-17854960D01*
X5027205Y-17854960D02*
X5008158Y-17864484D01*
X5008158Y-17864484D02*
X4960539Y-17864484D01*
X4960539Y-17864484D02*
X4941491Y-17854960D01*
X4941491Y-17854960D02*
X4931967Y-17845436D01*
X5170063Y-17664484D02*
X5189110Y-17664484D01*
X5189110Y-17664484D02*
X5208158Y-17674008D01*
X5208158Y-17674008D02*
X5217682Y-17683531D01*
X5217682Y-17683531D02*
X5227205Y-17702579D01*
X5227205Y-17702579D02*
X5236729Y-17740674D01*
X5236729Y-17740674D02*
X5236729Y-17788293D01*
X5236729Y-17788293D02*
X5227205Y-17826389D01*
X5227205Y-17826389D02*
X5217682Y-17845436D01*
X5217682Y-17845436D02*
X5208158Y-17854960D01*
X5208158Y-17854960D02*
X5189110Y-17864484D01*
X5189110Y-17864484D02*
X5170063Y-17864484D01*
X5170063Y-17864484D02*
X5151015Y-17854960D01*
X5151015Y-17854960D02*
X5141491Y-17845436D01*
X5141491Y-17845436D02*
X5131967Y-17826389D01*
X5131967Y-17826389D02*
X5122444Y-17788293D01*
X5122444Y-17788293D02*
X5122444Y-17740674D01*
X5122444Y-17740674D02*
X5131967Y-17702579D01*
X5131967Y-17702579D02*
X5141491Y-17683531D01*
X5141491Y-17683531D02*
X5151015Y-17674008D01*
X5151015Y-17674008D02*
X5170063Y-17664484D01*
X5360539Y-17664484D02*
X5379586Y-17664484D01*
X5379586Y-17664484D02*
X5398634Y-17674008D01*
X5398634Y-17674008D02*
X5408158Y-17683531D01*
X5408158Y-17683531D02*
X5417682Y-17702579D01*
X5417682Y-17702579D02*
X5427205Y-17740674D01*
X5427205Y-17740674D02*
X5427205Y-17788293D01*
X5427205Y-17788293D02*
X5417682Y-17826389D01*
X5417682Y-17826389D02*
X5408158Y-17845436D01*
X5408158Y-17845436D02*
X5398634Y-17854960D01*
X5398634Y-17854960D02*
X5379586Y-17864484D01*
X5379586Y-17864484D02*
X5360539Y-17864484D01*
X5360539Y-17864484D02*
X5341491Y-17854960D01*
X5341491Y-17854960D02*
X5331967Y-17845436D01*
X5331967Y-17845436D02*
X5322444Y-17826389D01*
X5322444Y-17826389D02*
X5312920Y-17788293D01*
X5312920Y-17788293D02*
X5312920Y-17740674D01*
X5312920Y-17740674D02*
X5322444Y-17702579D01*
X5322444Y-17702579D02*
X5331967Y-17683531D01*
X5331967Y-17683531D02*
X5341491Y-17674008D01*
X5341491Y-17674008D02*
X5360539Y-17664484D01*
X5512920Y-17864484D02*
X5512920Y-17731150D01*
X5512920Y-17750198D02*
X5522444Y-17740674D01*
X5522444Y-17740674D02*
X5541491Y-17731150D01*
X5541491Y-17731150D02*
X5570063Y-17731150D01*
X5570063Y-17731150D02*
X5589110Y-17740674D01*
X5589110Y-17740674D02*
X5598634Y-17759722D01*
X5598634Y-17759722D02*
X5598634Y-17864484D01*
X5598634Y-17759722D02*
X5608158Y-17740674D01*
X5608158Y-17740674D02*
X5627205Y-17731150D01*
X5627205Y-17731150D02*
X5655777Y-17731150D01*
X5655777Y-17731150D02*
X5674824Y-17740674D01*
X5674824Y-17740674D02*
X5684348Y-17759722D01*
X5684348Y-17759722D02*
X5684348Y-17864484D01*
X5779586Y-17864484D02*
X5779586Y-17731150D01*
X5779586Y-17750198D02*
X5789110Y-17740674D01*
X5789110Y-17740674D02*
X5808158Y-17731150D01*
X5808158Y-17731150D02*
X5836729Y-17731150D01*
X5836729Y-17731150D02*
X5855777Y-17740674D01*
X5855777Y-17740674D02*
X5865301Y-17759722D01*
X5865301Y-17759722D02*
X5865301Y-17864484D01*
X5865301Y-17759722D02*
X5874824Y-17740674D01*
X5874824Y-17740674D02*
X5893872Y-17731150D01*
X5893872Y-17731150D02*
X5922443Y-17731150D01*
X5922443Y-17731150D02*
X5941491Y-17740674D01*
X5941491Y-17740674D02*
X5951015Y-17759722D01*
X5951015Y-17759722D02*
X5951015Y-17864484D01*
X6341491Y-17654960D02*
X6170063Y-17912103D01*
X6598634Y-17664484D02*
X6617682Y-17664484D01*
X6617682Y-17664484D02*
X6636729Y-17674008D01*
X6636729Y-17674008D02*
X6646253Y-17683531D01*
X6646253Y-17683531D02*
X6655777Y-17702579D01*
X6655777Y-17702579D02*
X6665301Y-17740674D01*
X6665301Y-17740674D02*
X6665301Y-17788293D01*
X6665301Y-17788293D02*
X6655777Y-17826389D01*
X6655777Y-17826389D02*
X6646253Y-17845436D01*
X6646253Y-17845436D02*
X6636729Y-17854960D01*
X6636729Y-17854960D02*
X6617682Y-17864484D01*
X6617682Y-17864484D02*
X6598634Y-17864484D01*
X6598634Y-17864484D02*
X6579586Y-17854960D01*
X6579586Y-17854960D02*
X6570063Y-17845436D01*
X6570063Y-17845436D02*
X6560539Y-17826389D01*
X6560539Y-17826389D02*
X6551015Y-17788293D01*
X6551015Y-17788293D02*
X6551015Y-17740674D01*
X6551015Y-17740674D02*
X6560539Y-17702579D01*
X6560539Y-17702579D02*
X6570063Y-17683531D01*
X6570063Y-17683531D02*
X6579586Y-17674008D01*
X6579586Y-17674008D02*
X6598634Y-17664484D01*
X6751015Y-17845436D02*
X6760539Y-17854960D01*
X6760539Y-17854960D02*
X6751015Y-17864484D01*
X6751015Y-17864484D02*
X6741491Y-17854960D01*
X6741491Y-17854960D02*
X6751015Y-17845436D01*
X6751015Y-17845436D02*
X6751015Y-17864484D01*
X6884348Y-17664484D02*
X6903396Y-17664484D01*
X6903396Y-17664484D02*
X6922444Y-17674008D01*
X6922444Y-17674008D02*
X6931967Y-17683531D01*
X6931967Y-17683531D02*
X6941491Y-17702579D01*
X6941491Y-17702579D02*
X6951015Y-17740674D01*
X6951015Y-17740674D02*
X6951015Y-17788293D01*
X6951015Y-17788293D02*
X6941491Y-17826389D01*
X6941491Y-17826389D02*
X6931967Y-17845436D01*
X6931967Y-17845436D02*
X6922444Y-17854960D01*
X6922444Y-17854960D02*
X6903396Y-17864484D01*
X6903396Y-17864484D02*
X6884348Y-17864484D01*
X6884348Y-17864484D02*
X6865301Y-17854960D01*
X6865301Y-17854960D02*
X6855777Y-17845436D01*
X6855777Y-17845436D02*
X6846253Y-17826389D01*
X6846253Y-17826389D02*
X6836729Y-17788293D01*
X6836729Y-17788293D02*
X6836729Y-17740674D01*
X6836729Y-17740674D02*
X6846253Y-17702579D01*
X6846253Y-17702579D02*
X6855777Y-17683531D01*
X6855777Y-17683531D02*
X6865301Y-17674008D01*
X6865301Y-17674008D02*
X6884348Y-17664484D01*
X7141491Y-17864484D02*
X7027206Y-17864484D01*
X7084348Y-17864484D02*
X7084348Y-17664484D01*
X7084348Y-17664484D02*
X7065301Y-17693055D01*
X7065301Y-17693055D02*
X7046253Y-17712103D01*
X7046253Y-17712103D02*
X7027206Y-17721627D01*
X7236729Y-17864484D02*
X7274825Y-17864484D01*
X7274825Y-17864484D02*
X7293872Y-17854960D01*
X7293872Y-17854960D02*
X7303396Y-17845436D01*
X7303396Y-17845436D02*
X7322444Y-17816865D01*
X7322444Y-17816865D02*
X7331967Y-17778770D01*
X7331967Y-17778770D02*
X7331967Y-17702579D01*
X7331967Y-17702579D02*
X7322444Y-17683531D01*
X7322444Y-17683531D02*
X7312920Y-17674008D01*
X7312920Y-17674008D02*
X7293872Y-17664484D01*
X7293872Y-17664484D02*
X7255777Y-17664484D01*
X7255777Y-17664484D02*
X7236729Y-17674008D01*
X7236729Y-17674008D02*
X7227206Y-17683531D01*
X7227206Y-17683531D02*
X7217682Y-17702579D01*
X7217682Y-17702579D02*
X7217682Y-17750198D01*
X7217682Y-17750198D02*
X7227206Y-17769246D01*
X7227206Y-17769246D02*
X7236729Y-17778770D01*
X7236729Y-17778770D02*
X7255777Y-17788293D01*
X7255777Y-17788293D02*
X7293872Y-17788293D01*
X7293872Y-17788293D02*
X7312920Y-17778770D01*
X7312920Y-17778770D02*
X7322444Y-17769246D01*
X7322444Y-17769246D02*
X7331967Y-17750198D01*
X7398634Y-17664484D02*
X7531967Y-17664484D01*
X7531967Y-17664484D02*
X7446253Y-17864484D01*
X7598634Y-17664484D02*
X7598634Y-17702579D01*
X7674825Y-17664484D02*
X7674825Y-17702579D01*
X7970063Y-17940674D02*
X7960539Y-17931150D01*
X7960539Y-17931150D02*
X7941491Y-17902579D01*
X7941491Y-17902579D02*
X7931968Y-17883531D01*
X7931968Y-17883531D02*
X7922444Y-17854960D01*
X7922444Y-17854960D02*
X7912920Y-17807341D01*
X7912920Y-17807341D02*
X7912920Y-17769246D01*
X7912920Y-17769246D02*
X7922444Y-17721627D01*
X7922444Y-17721627D02*
X7931968Y-17693055D01*
X7931968Y-17693055D02*
X7941491Y-17674008D01*
X7941491Y-17674008D02*
X7960539Y-17645436D01*
X7960539Y-17645436D02*
X7970063Y-17635912D01*
X8131968Y-17731150D02*
X8131968Y-17864484D01*
X8084348Y-17654960D02*
X8036729Y-17797817D01*
X8036729Y-17797817D02*
X8160539Y-17797817D01*
X8322444Y-17664484D02*
X8284348Y-17664484D01*
X8284348Y-17664484D02*
X8265301Y-17674008D01*
X8265301Y-17674008D02*
X8255777Y-17683531D01*
X8255777Y-17683531D02*
X8236729Y-17712103D01*
X8236729Y-17712103D02*
X8227206Y-17750198D01*
X8227206Y-17750198D02*
X8227206Y-17826389D01*
X8227206Y-17826389D02*
X8236729Y-17845436D01*
X8236729Y-17845436D02*
X8246253Y-17854960D01*
X8246253Y-17854960D02*
X8265301Y-17864484D01*
X8265301Y-17864484D02*
X8303396Y-17864484D01*
X8303396Y-17864484D02*
X8322444Y-17854960D01*
X8322444Y-17854960D02*
X8331968Y-17845436D01*
X8331968Y-17845436D02*
X8341491Y-17826389D01*
X8341491Y-17826389D02*
X8341491Y-17778770D01*
X8341491Y-17778770D02*
X8331968Y-17759722D01*
X8331968Y-17759722D02*
X8322444Y-17750198D01*
X8322444Y-17750198D02*
X8303396Y-17740674D01*
X8303396Y-17740674D02*
X8265301Y-17740674D01*
X8265301Y-17740674D02*
X8246253Y-17750198D01*
X8246253Y-17750198D02*
X8236729Y-17759722D01*
X8236729Y-17759722D02*
X8227206Y-17778770D01*
X8579587Y-17864484D02*
X8579587Y-17664484D01*
X8665301Y-17864484D02*
X8665301Y-17759722D01*
X8665301Y-17759722D02*
X8655777Y-17740674D01*
X8655777Y-17740674D02*
X8636730Y-17731150D01*
X8636730Y-17731150D02*
X8608158Y-17731150D01*
X8608158Y-17731150D02*
X8589111Y-17740674D01*
X8589111Y-17740674D02*
X8579587Y-17750198D01*
X8789111Y-17864484D02*
X8770063Y-17854960D01*
X8770063Y-17854960D02*
X8760539Y-17845436D01*
X8760539Y-17845436D02*
X8751015Y-17826389D01*
X8751015Y-17826389D02*
X8751015Y-17769246D01*
X8751015Y-17769246D02*
X8760539Y-17750198D01*
X8760539Y-17750198D02*
X8770063Y-17740674D01*
X8770063Y-17740674D02*
X8789111Y-17731150D01*
X8789111Y-17731150D02*
X8817682Y-17731150D01*
X8817682Y-17731150D02*
X8836730Y-17740674D01*
X8836730Y-17740674D02*
X8846253Y-17750198D01*
X8846253Y-17750198D02*
X8855777Y-17769246D01*
X8855777Y-17769246D02*
X8855777Y-17826389D01*
X8855777Y-17826389D02*
X8846253Y-17845436D01*
X8846253Y-17845436D02*
X8836730Y-17854960D01*
X8836730Y-17854960D02*
X8817682Y-17864484D01*
X8817682Y-17864484D02*
X8789111Y-17864484D01*
X8970063Y-17864484D02*
X8951015Y-17854960D01*
X8951015Y-17854960D02*
X8941492Y-17835912D01*
X8941492Y-17835912D02*
X8941492Y-17664484D01*
X9122444Y-17854960D02*
X9103396Y-17864484D01*
X9103396Y-17864484D02*
X9065301Y-17864484D01*
X9065301Y-17864484D02*
X9046253Y-17854960D01*
X9046253Y-17854960D02*
X9036730Y-17835912D01*
X9036730Y-17835912D02*
X9036730Y-17759722D01*
X9036730Y-17759722D02*
X9046253Y-17740674D01*
X9046253Y-17740674D02*
X9065301Y-17731150D01*
X9065301Y-17731150D02*
X9103396Y-17731150D01*
X9103396Y-17731150D02*
X9122444Y-17740674D01*
X9122444Y-17740674D02*
X9131968Y-17759722D01*
X9131968Y-17759722D02*
X9131968Y-17778770D01*
X9131968Y-17778770D02*
X9036730Y-17797817D01*
X9208158Y-17854960D02*
X9227206Y-17864484D01*
X9227206Y-17864484D02*
X9265301Y-17864484D01*
X9265301Y-17864484D02*
X9284349Y-17854960D01*
X9284349Y-17854960D02*
X9293873Y-17835912D01*
X9293873Y-17835912D02*
X9293873Y-17826389D01*
X9293873Y-17826389D02*
X9284349Y-17807341D01*
X9284349Y-17807341D02*
X9265301Y-17797817D01*
X9265301Y-17797817D02*
X9236730Y-17797817D01*
X9236730Y-17797817D02*
X9217682Y-17788293D01*
X9217682Y-17788293D02*
X9208158Y-17769246D01*
X9208158Y-17769246D02*
X9208158Y-17759722D01*
X9208158Y-17759722D02*
X9217682Y-17740674D01*
X9217682Y-17740674D02*
X9236730Y-17731150D01*
X9236730Y-17731150D02*
X9265301Y-17731150D01*
X9265301Y-17731150D02*
X9284349Y-17740674D01*
X9360539Y-17940674D02*
X9370063Y-17931150D01*
X9370063Y-17931150D02*
X9389111Y-17902579D01*
X9389111Y-17902579D02*
X9398634Y-17883531D01*
X9398634Y-17883531D02*
X9408158Y-17854960D01*
X9408158Y-17854960D02*
X9417682Y-17807341D01*
X9417682Y-17807341D02*
X9417682Y-17769246D01*
X9417682Y-17769246D02*
X9408158Y-17721627D01*
X9408158Y-17721627D02*
X9398634Y-17693055D01*
X9398634Y-17693055D02*
X9389111Y-17674008D01*
X9389111Y-17674008D02*
X9370063Y-17645436D01*
X9370063Y-17645436D02*
X9360539Y-17635912D01*
D10*
X4383285Y-18065285D02*
X4383285Y-18008716D01*
X4326716Y-18008716D01*
X4326716Y-18065285D01*
X4383285Y-18065285D01*
D11*
X4693872Y-17928484D02*
X4712920Y-17928484D01*
X4712920Y-17928484D02*
X4731967Y-17938008D01*
X4731967Y-17938008D02*
X4741491Y-17947531D01*
X4741491Y-17947531D02*
X4751015Y-17966579D01*
X4751015Y-17966579D02*
X4760539Y-18004674D01*
X4760539Y-18004674D02*
X4760539Y-18052293D01*
X4760539Y-18052293D02*
X4751015Y-18090389D01*
X4751015Y-18090389D02*
X4741491Y-18109436D01*
X4741491Y-18109436D02*
X4731967Y-18118960D01*
X4731967Y-18118960D02*
X4712920Y-18128484D01*
X4712920Y-18128484D02*
X4693872Y-18128484D01*
X4693872Y-18128484D02*
X4674824Y-18118960D01*
X4674824Y-18118960D02*
X4665301Y-18109436D01*
X4665301Y-18109436D02*
X4655777Y-18090389D01*
X4655777Y-18090389D02*
X4646253Y-18052293D01*
X4646253Y-18052293D02*
X4646253Y-18004674D01*
X4646253Y-18004674D02*
X4655777Y-17966579D01*
X4655777Y-17966579D02*
X4665301Y-17947531D01*
X4665301Y-17947531D02*
X4674824Y-17938008D01*
X4674824Y-17938008D02*
X4693872Y-17928484D01*
X4846253Y-18109436D02*
X4855777Y-18118960D01*
X4855777Y-18118960D02*
X4846253Y-18128484D01*
X4846253Y-18128484D02*
X4836729Y-18118960D01*
X4836729Y-18118960D02*
X4846253Y-18109436D01*
X4846253Y-18109436D02*
X4846253Y-18128484D01*
X4970063Y-18014198D02*
X4951015Y-18004674D01*
X4951015Y-18004674D02*
X4941491Y-17995150D01*
X4941491Y-17995150D02*
X4931967Y-17976103D01*
X4931967Y-17976103D02*
X4931967Y-17966579D01*
X4931967Y-17966579D02*
X4941491Y-17947531D01*
X4941491Y-17947531D02*
X4951015Y-17938008D01*
X4951015Y-17938008D02*
X4970063Y-17928484D01*
X4970063Y-17928484D02*
X5008158Y-17928484D01*
X5008158Y-17928484D02*
X5027205Y-17938008D01*
X5027205Y-17938008D02*
X5036729Y-17947531D01*
X5036729Y-17947531D02*
X5046253Y-17966579D01*
X5046253Y-17966579D02*
X5046253Y-17976103D01*
X5046253Y-17976103D02*
X5036729Y-17995150D01*
X5036729Y-17995150D02*
X5027205Y-18004674D01*
X5027205Y-18004674D02*
X5008158Y-18014198D01*
X5008158Y-18014198D02*
X4970063Y-18014198D01*
X4970063Y-18014198D02*
X4951015Y-18023722D01*
X4951015Y-18023722D02*
X4941491Y-18033246D01*
X4941491Y-18033246D02*
X4931967Y-18052293D01*
X4931967Y-18052293D02*
X4931967Y-18090389D01*
X4931967Y-18090389D02*
X4941491Y-18109436D01*
X4941491Y-18109436D02*
X4951015Y-18118960D01*
X4951015Y-18118960D02*
X4970063Y-18128484D01*
X4970063Y-18128484D02*
X5008158Y-18128484D01*
X5008158Y-18128484D02*
X5027205Y-18118960D01*
X5027205Y-18118960D02*
X5036729Y-18109436D01*
X5036729Y-18109436D02*
X5046253Y-18090389D01*
X5046253Y-18090389D02*
X5046253Y-18052293D01*
X5046253Y-18052293D02*
X5036729Y-18033246D01*
X5036729Y-18033246D02*
X5027205Y-18023722D01*
X5027205Y-18023722D02*
X5008158Y-18014198D01*
X5170063Y-17928484D02*
X5189110Y-17928484D01*
X5189110Y-17928484D02*
X5208158Y-17938008D01*
X5208158Y-17938008D02*
X5217682Y-17947531D01*
X5217682Y-17947531D02*
X5227205Y-17966579D01*
X5227205Y-17966579D02*
X5236729Y-18004674D01*
X5236729Y-18004674D02*
X5236729Y-18052293D01*
X5236729Y-18052293D02*
X5227205Y-18090389D01*
X5227205Y-18090389D02*
X5217682Y-18109436D01*
X5217682Y-18109436D02*
X5208158Y-18118960D01*
X5208158Y-18118960D02*
X5189110Y-18128484D01*
X5189110Y-18128484D02*
X5170063Y-18128484D01*
X5170063Y-18128484D02*
X5151015Y-18118960D01*
X5151015Y-18118960D02*
X5141491Y-18109436D01*
X5141491Y-18109436D02*
X5131967Y-18090389D01*
X5131967Y-18090389D02*
X5122444Y-18052293D01*
X5122444Y-18052293D02*
X5122444Y-18004674D01*
X5122444Y-18004674D02*
X5131967Y-17966579D01*
X5131967Y-17966579D02*
X5141491Y-17947531D01*
X5141491Y-17947531D02*
X5151015Y-17938008D01*
X5151015Y-17938008D02*
X5170063Y-17928484D01*
X5360539Y-17928484D02*
X5379586Y-17928484D01*
X5379586Y-17928484D02*
X5398634Y-17938008D01*
X5398634Y-17938008D02*
X5408158Y-17947531D01*
X5408158Y-17947531D02*
X5417682Y-17966579D01*
X5417682Y-17966579D02*
X5427205Y-18004674D01*
X5427205Y-18004674D02*
X5427205Y-18052293D01*
X5427205Y-18052293D02*
X5417682Y-18090389D01*
X5417682Y-18090389D02*
X5408158Y-18109436D01*
X5408158Y-18109436D02*
X5398634Y-18118960D01*
X5398634Y-18118960D02*
X5379586Y-18128484D01*
X5379586Y-18128484D02*
X5360539Y-18128484D01*
X5360539Y-18128484D02*
X5341491Y-18118960D01*
X5341491Y-18118960D02*
X5331967Y-18109436D01*
X5331967Y-18109436D02*
X5322444Y-18090389D01*
X5322444Y-18090389D02*
X5312920Y-18052293D01*
X5312920Y-18052293D02*
X5312920Y-18004674D01*
X5312920Y-18004674D02*
X5322444Y-17966579D01*
X5322444Y-17966579D02*
X5331967Y-17947531D01*
X5331967Y-17947531D02*
X5341491Y-17938008D01*
X5341491Y-17938008D02*
X5360539Y-17928484D01*
X5512920Y-18128484D02*
X5512920Y-17995150D01*
X5512920Y-18014198D02*
X5522444Y-18004674D01*
X5522444Y-18004674D02*
X5541491Y-17995150D01*
X5541491Y-17995150D02*
X5570063Y-17995150D01*
X5570063Y-17995150D02*
X5589110Y-18004674D01*
X5589110Y-18004674D02*
X5598634Y-18023722D01*
X5598634Y-18023722D02*
X5598634Y-18128484D01*
X5598634Y-18023722D02*
X5608158Y-18004674D01*
X5608158Y-18004674D02*
X5627205Y-17995150D01*
X5627205Y-17995150D02*
X5655777Y-17995150D01*
X5655777Y-17995150D02*
X5674824Y-18004674D01*
X5674824Y-18004674D02*
X5684348Y-18023722D01*
X5684348Y-18023722D02*
X5684348Y-18128484D01*
X5779586Y-18128484D02*
X5779586Y-17995150D01*
X5779586Y-18014198D02*
X5789110Y-18004674D01*
X5789110Y-18004674D02*
X5808158Y-17995150D01*
X5808158Y-17995150D02*
X5836729Y-17995150D01*
X5836729Y-17995150D02*
X5855777Y-18004674D01*
X5855777Y-18004674D02*
X5865301Y-18023722D01*
X5865301Y-18023722D02*
X5865301Y-18128484D01*
X5865301Y-18023722D02*
X5874824Y-18004674D01*
X5874824Y-18004674D02*
X5893872Y-17995150D01*
X5893872Y-17995150D02*
X5922443Y-17995150D01*
X5922443Y-17995150D02*
X5941491Y-18004674D01*
X5941491Y-18004674D02*
X5951015Y-18023722D01*
X5951015Y-18023722D02*
X5951015Y-18128484D01*
X6341491Y-17918960D02*
X6170063Y-18176103D01*
X6598634Y-17928484D02*
X6617682Y-17928484D01*
X6617682Y-17928484D02*
X6636729Y-17938008D01*
X6636729Y-17938008D02*
X6646253Y-17947531D01*
X6646253Y-17947531D02*
X6655777Y-17966579D01*
X6655777Y-17966579D02*
X6665301Y-18004674D01*
X6665301Y-18004674D02*
X6665301Y-18052293D01*
X6665301Y-18052293D02*
X6655777Y-18090389D01*
X6655777Y-18090389D02*
X6646253Y-18109436D01*
X6646253Y-18109436D02*
X6636729Y-18118960D01*
X6636729Y-18118960D02*
X6617682Y-18128484D01*
X6617682Y-18128484D02*
X6598634Y-18128484D01*
X6598634Y-18128484D02*
X6579586Y-18118960D01*
X6579586Y-18118960D02*
X6570063Y-18109436D01*
X6570063Y-18109436D02*
X6560539Y-18090389D01*
X6560539Y-18090389D02*
X6551015Y-18052293D01*
X6551015Y-18052293D02*
X6551015Y-18004674D01*
X6551015Y-18004674D02*
X6560539Y-17966579D01*
X6560539Y-17966579D02*
X6570063Y-17947531D01*
X6570063Y-17947531D02*
X6579586Y-17938008D01*
X6579586Y-17938008D02*
X6598634Y-17928484D01*
X6751015Y-18109436D02*
X6760539Y-18118960D01*
X6760539Y-18118960D02*
X6751015Y-18128484D01*
X6751015Y-18128484D02*
X6741491Y-18118960D01*
X6741491Y-18118960D02*
X6751015Y-18109436D01*
X6751015Y-18109436D02*
X6751015Y-18128484D01*
X6884348Y-17928484D02*
X6903396Y-17928484D01*
X6903396Y-17928484D02*
X6922444Y-17938008D01*
X6922444Y-17938008D02*
X6931967Y-17947531D01*
X6931967Y-17947531D02*
X6941491Y-17966579D01*
X6941491Y-17966579D02*
X6951015Y-18004674D01*
X6951015Y-18004674D02*
X6951015Y-18052293D01*
X6951015Y-18052293D02*
X6941491Y-18090389D01*
X6941491Y-18090389D02*
X6931967Y-18109436D01*
X6931967Y-18109436D02*
X6922444Y-18118960D01*
X6922444Y-18118960D02*
X6903396Y-18128484D01*
X6903396Y-18128484D02*
X6884348Y-18128484D01*
X6884348Y-18128484D02*
X6865301Y-18118960D01*
X6865301Y-18118960D02*
X6855777Y-18109436D01*
X6855777Y-18109436D02*
X6846253Y-18090389D01*
X6846253Y-18090389D02*
X6836729Y-18052293D01*
X6836729Y-18052293D02*
X6836729Y-18004674D01*
X6836729Y-18004674D02*
X6846253Y-17966579D01*
X6846253Y-17966579D02*
X6855777Y-17947531D01*
X6855777Y-17947531D02*
X6865301Y-17938008D01*
X6865301Y-17938008D02*
X6884348Y-17928484D01*
X7017682Y-17928484D02*
X7141491Y-17928484D01*
X7141491Y-17928484D02*
X7074825Y-18004674D01*
X7074825Y-18004674D02*
X7103396Y-18004674D01*
X7103396Y-18004674D02*
X7122444Y-18014198D01*
X7122444Y-18014198D02*
X7131967Y-18023722D01*
X7131967Y-18023722D02*
X7141491Y-18042770D01*
X7141491Y-18042770D02*
X7141491Y-18090389D01*
X7141491Y-18090389D02*
X7131967Y-18109436D01*
X7131967Y-18109436D02*
X7122444Y-18118960D01*
X7122444Y-18118960D02*
X7103396Y-18128484D01*
X7103396Y-18128484D02*
X7046253Y-18128484D01*
X7046253Y-18128484D02*
X7027206Y-18118960D01*
X7027206Y-18118960D02*
X7017682Y-18109436D01*
X7331967Y-18128484D02*
X7217682Y-18128484D01*
X7274825Y-18128484D02*
X7274825Y-17928484D01*
X7274825Y-17928484D02*
X7255777Y-17957055D01*
X7255777Y-17957055D02*
X7236729Y-17976103D01*
X7236729Y-17976103D02*
X7217682Y-17985627D01*
X7512920Y-17928484D02*
X7417682Y-17928484D01*
X7417682Y-17928484D02*
X7408158Y-18023722D01*
X7408158Y-18023722D02*
X7417682Y-18014198D01*
X7417682Y-18014198D02*
X7436729Y-18004674D01*
X7436729Y-18004674D02*
X7484348Y-18004674D01*
X7484348Y-18004674D02*
X7503396Y-18014198D01*
X7503396Y-18014198D02*
X7512920Y-18023722D01*
X7512920Y-18023722D02*
X7522444Y-18042770D01*
X7522444Y-18042770D02*
X7522444Y-18090389D01*
X7522444Y-18090389D02*
X7512920Y-18109436D01*
X7512920Y-18109436D02*
X7503396Y-18118960D01*
X7503396Y-18118960D02*
X7484348Y-18128484D01*
X7484348Y-18128484D02*
X7436729Y-18128484D01*
X7436729Y-18128484D02*
X7417682Y-18118960D01*
X7417682Y-18118960D02*
X7408158Y-18109436D01*
X7598634Y-17928484D02*
X7598634Y-17966579D01*
X7674825Y-17928484D02*
X7674825Y-17966579D01*
X7970063Y-18204674D02*
X7960539Y-18195150D01*
X7960539Y-18195150D02*
X7941491Y-18166579D01*
X7941491Y-18166579D02*
X7931968Y-18147531D01*
X7931968Y-18147531D02*
X7922444Y-18118960D01*
X7922444Y-18118960D02*
X7912920Y-18071341D01*
X7912920Y-18071341D02*
X7912920Y-18033246D01*
X7912920Y-18033246D02*
X7922444Y-17985627D01*
X7922444Y-17985627D02*
X7931968Y-17957055D01*
X7931968Y-17957055D02*
X7941491Y-17938008D01*
X7941491Y-17938008D02*
X7960539Y-17909436D01*
X7960539Y-17909436D02*
X7970063Y-17899912D01*
X8084348Y-17928484D02*
X8103396Y-17928484D01*
X8103396Y-17928484D02*
X8122444Y-17938008D01*
X8122444Y-17938008D02*
X8131968Y-17947531D01*
X8131968Y-17947531D02*
X8141491Y-17966579D01*
X8141491Y-17966579D02*
X8151015Y-18004674D01*
X8151015Y-18004674D02*
X8151015Y-18052293D01*
X8151015Y-18052293D02*
X8141491Y-18090389D01*
X8141491Y-18090389D02*
X8131968Y-18109436D01*
X8131968Y-18109436D02*
X8122444Y-18118960D01*
X8122444Y-18118960D02*
X8103396Y-18128484D01*
X8103396Y-18128484D02*
X8084348Y-18128484D01*
X8084348Y-18128484D02*
X8065301Y-18118960D01*
X8065301Y-18118960D02*
X8055777Y-18109436D01*
X8055777Y-18109436D02*
X8046253Y-18090389D01*
X8046253Y-18090389D02*
X8036729Y-18052293D01*
X8036729Y-18052293D02*
X8036729Y-18004674D01*
X8036729Y-18004674D02*
X8046253Y-17966579D01*
X8046253Y-17966579D02*
X8055777Y-17947531D01*
X8055777Y-17947531D02*
X8065301Y-17938008D01*
X8065301Y-17938008D02*
X8084348Y-17928484D01*
X8389111Y-18128484D02*
X8389111Y-17928484D01*
X8474825Y-18128484D02*
X8474825Y-18023722D01*
X8474825Y-18023722D02*
X8465301Y-18004674D01*
X8465301Y-18004674D02*
X8446253Y-17995150D01*
X8446253Y-17995150D02*
X8417682Y-17995150D01*
X8417682Y-17995150D02*
X8398634Y-18004674D01*
X8398634Y-18004674D02*
X8389111Y-18014198D01*
X8598634Y-18128484D02*
X8579587Y-18118960D01*
X8579587Y-18118960D02*
X8570063Y-18109436D01*
X8570063Y-18109436D02*
X8560539Y-18090389D01*
X8560539Y-18090389D02*
X8560539Y-18033246D01*
X8560539Y-18033246D02*
X8570063Y-18014198D01*
X8570063Y-18014198D02*
X8579587Y-18004674D01*
X8579587Y-18004674D02*
X8598634Y-17995150D01*
X8598634Y-17995150D02*
X8627206Y-17995150D01*
X8627206Y-17995150D02*
X8646253Y-18004674D01*
X8646253Y-18004674D02*
X8655777Y-18014198D01*
X8655777Y-18014198D02*
X8665301Y-18033246D01*
X8665301Y-18033246D02*
X8665301Y-18090389D01*
X8665301Y-18090389D02*
X8655777Y-18109436D01*
X8655777Y-18109436D02*
X8646253Y-18118960D01*
X8646253Y-18118960D02*
X8627206Y-18128484D01*
X8627206Y-18128484D02*
X8598634Y-18128484D01*
X8779587Y-18128484D02*
X8760539Y-18118960D01*
X8760539Y-18118960D02*
X8751015Y-18099912D01*
X8751015Y-18099912D02*
X8751015Y-17928484D01*
X8931968Y-18118960D02*
X8912920Y-18128484D01*
X8912920Y-18128484D02*
X8874825Y-18128484D01*
X8874825Y-18128484D02*
X8855777Y-18118960D01*
X8855777Y-18118960D02*
X8846253Y-18099912D01*
X8846253Y-18099912D02*
X8846253Y-18023722D01*
X8846253Y-18023722D02*
X8855777Y-18004674D01*
X8855777Y-18004674D02*
X8874825Y-17995150D01*
X8874825Y-17995150D02*
X8912920Y-17995150D01*
X8912920Y-17995150D02*
X8931968Y-18004674D01*
X8931968Y-18004674D02*
X8941492Y-18023722D01*
X8941492Y-18023722D02*
X8941492Y-18042770D01*
X8941492Y-18042770D02*
X8846253Y-18061817D01*
X9017682Y-18118960D02*
X9036730Y-18128484D01*
X9036730Y-18128484D02*
X9074825Y-18128484D01*
X9074825Y-18128484D02*
X9093873Y-18118960D01*
X9093873Y-18118960D02*
X9103396Y-18099912D01*
X9103396Y-18099912D02*
X9103396Y-18090389D01*
X9103396Y-18090389D02*
X9093873Y-18071341D01*
X9093873Y-18071341D02*
X9074825Y-18061817D01*
X9074825Y-18061817D02*
X9046253Y-18061817D01*
X9046253Y-18061817D02*
X9027206Y-18052293D01*
X9027206Y-18052293D02*
X9017682Y-18033246D01*
X9017682Y-18033246D02*
X9017682Y-18023722D01*
X9017682Y-18023722D02*
X9027206Y-18004674D01*
X9027206Y-18004674D02*
X9046253Y-17995150D01*
X9046253Y-17995150D02*
X9074825Y-17995150D01*
X9074825Y-17995150D02*
X9093873Y-18004674D01*
X9341492Y-18052293D02*
X9493873Y-18052293D01*
X9417682Y-18128484D02*
X9417682Y-17976103D01*
X9846254Y-18128484D02*
X9731968Y-18128484D01*
X9789111Y-18128484D02*
X9789111Y-17928484D01*
X9789111Y-17928484D02*
X9770063Y-17957055D01*
X9770063Y-17957055D02*
X9751015Y-17976103D01*
X9751015Y-17976103D02*
X9731968Y-17985627D01*
X10036730Y-18128484D02*
X9922444Y-18128484D01*
X9979587Y-18128484D02*
X9979587Y-17928484D01*
X9979587Y-17928484D02*
X9960539Y-17957055D01*
X9960539Y-17957055D02*
X9941492Y-17976103D01*
X9941492Y-17976103D02*
X9922444Y-17985627D01*
X10265301Y-18118960D02*
X10284349Y-18128484D01*
X10284349Y-18128484D02*
X10322444Y-18128484D01*
X10322444Y-18128484D02*
X10341492Y-18118960D01*
X10341492Y-18118960D02*
X10351016Y-18099912D01*
X10351016Y-18099912D02*
X10351016Y-18090389D01*
X10351016Y-18090389D02*
X10341492Y-18071341D01*
X10341492Y-18071341D02*
X10322444Y-18061817D01*
X10322444Y-18061817D02*
X10293873Y-18061817D01*
X10293873Y-18061817D02*
X10274825Y-18052293D01*
X10274825Y-18052293D02*
X10265301Y-18033246D01*
X10265301Y-18033246D02*
X10265301Y-18023722D01*
X10265301Y-18023722D02*
X10274825Y-18004674D01*
X10274825Y-18004674D02*
X10293873Y-17995150D01*
X10293873Y-17995150D02*
X10322444Y-17995150D01*
X10322444Y-17995150D02*
X10341492Y-18004674D01*
X10465301Y-18128484D02*
X10446254Y-18118960D01*
X10446254Y-18118960D02*
X10436730Y-18099912D01*
X10436730Y-18099912D02*
X10436730Y-17928484D01*
X10570063Y-18128484D02*
X10551016Y-18118960D01*
X10551016Y-18118960D02*
X10541492Y-18109436D01*
X10541492Y-18109436D02*
X10531968Y-18090389D01*
X10531968Y-18090389D02*
X10531968Y-18033246D01*
X10531968Y-18033246D02*
X10541492Y-18014198D01*
X10541492Y-18014198D02*
X10551016Y-18004674D01*
X10551016Y-18004674D02*
X10570063Y-17995150D01*
X10570063Y-17995150D02*
X10598635Y-17995150D01*
X10598635Y-17995150D02*
X10617682Y-18004674D01*
X10617682Y-18004674D02*
X10627206Y-18014198D01*
X10627206Y-18014198D02*
X10636730Y-18033246D01*
X10636730Y-18033246D02*
X10636730Y-18090389D01*
X10636730Y-18090389D02*
X10627206Y-18109436D01*
X10627206Y-18109436D02*
X10617682Y-18118960D01*
X10617682Y-18118960D02*
X10598635Y-18128484D01*
X10598635Y-18128484D02*
X10570063Y-18128484D01*
X10693873Y-17995150D02*
X10770063Y-17995150D01*
X10722444Y-17928484D02*
X10722444Y-18099912D01*
X10722444Y-18099912D02*
X10731968Y-18118960D01*
X10731968Y-18118960D02*
X10751016Y-18128484D01*
X10751016Y-18128484D02*
X10770063Y-18128484D01*
X10827206Y-18118960D02*
X10846254Y-18128484D01*
X10846254Y-18128484D02*
X10884349Y-18128484D01*
X10884349Y-18128484D02*
X10903397Y-18118960D01*
X10903397Y-18118960D02*
X10912920Y-18099912D01*
X10912920Y-18099912D02*
X10912920Y-18090389D01*
X10912920Y-18090389D02*
X10903397Y-18071341D01*
X10903397Y-18071341D02*
X10884349Y-18061817D01*
X10884349Y-18061817D02*
X10855777Y-18061817D01*
X10855777Y-18061817D02*
X10836730Y-18052293D01*
X10836730Y-18052293D02*
X10827206Y-18033246D01*
X10827206Y-18033246D02*
X10827206Y-18023722D01*
X10827206Y-18023722D02*
X10836730Y-18004674D01*
X10836730Y-18004674D02*
X10855777Y-17995150D01*
X10855777Y-17995150D02*
X10884349Y-17995150D01*
X10884349Y-17995150D02*
X10903397Y-18004674D01*
X10979587Y-18204674D02*
X10989111Y-18195150D01*
X10989111Y-18195150D02*
X11008158Y-18166579D01*
X11008158Y-18166579D02*
X11017682Y-18147531D01*
X11017682Y-18147531D02*
X11027206Y-18118960D01*
X11027206Y-18118960D02*
X11036730Y-18071341D01*
X11036730Y-18071341D02*
X11036730Y-18033246D01*
X11036730Y-18033246D02*
X11027206Y-17985627D01*
X11027206Y-17985627D02*
X11017682Y-17957055D01*
X11017682Y-17957055D02*
X11008158Y-17938008D01*
X11008158Y-17938008D02*
X10989111Y-17909436D01*
X10989111Y-17909436D02*
X10979587Y-17899912D01*
D10*
X4345000Y-18351000D02*
X4395000Y-18301000D01*
X4345000Y-18251000D01*
X4295000Y-18301000D01*
X4345000Y-18351000D01*
D11*
X4760539Y-18392484D02*
X4646253Y-18392484D01*
X4703396Y-18392484D02*
X4703396Y-18192484D01*
X4703396Y-18192484D02*
X4684348Y-18221055D01*
X4684348Y-18221055D02*
X4665301Y-18240103D01*
X4665301Y-18240103D02*
X4646253Y-18249627D01*
X4846253Y-18373436D02*
X4855777Y-18382960D01*
X4855777Y-18382960D02*
X4846253Y-18392484D01*
X4846253Y-18392484D02*
X4836729Y-18382960D01*
X4836729Y-18382960D02*
X4846253Y-18373436D01*
X4846253Y-18373436D02*
X4846253Y-18392484D01*
X4979586Y-18192484D02*
X4998634Y-18192484D01*
X4998634Y-18192484D02*
X5017682Y-18202008D01*
X5017682Y-18202008D02*
X5027205Y-18211531D01*
X5027205Y-18211531D02*
X5036729Y-18230579D01*
X5036729Y-18230579D02*
X5046253Y-18268674D01*
X5046253Y-18268674D02*
X5046253Y-18316293D01*
X5046253Y-18316293D02*
X5036729Y-18354389D01*
X5036729Y-18354389D02*
X5027205Y-18373436D01*
X5027205Y-18373436D02*
X5017682Y-18382960D01*
X5017682Y-18382960D02*
X4998634Y-18392484D01*
X4998634Y-18392484D02*
X4979586Y-18392484D01*
X4979586Y-18392484D02*
X4960539Y-18382960D01*
X4960539Y-18382960D02*
X4951015Y-18373436D01*
X4951015Y-18373436D02*
X4941491Y-18354389D01*
X4941491Y-18354389D02*
X4931967Y-18316293D01*
X4931967Y-18316293D02*
X4931967Y-18268674D01*
X4931967Y-18268674D02*
X4941491Y-18230579D01*
X4941491Y-18230579D02*
X4951015Y-18211531D01*
X4951015Y-18211531D02*
X4960539Y-18202008D01*
X4960539Y-18202008D02*
X4979586Y-18192484D01*
X5170063Y-18192484D02*
X5189110Y-18192484D01*
X5189110Y-18192484D02*
X5208158Y-18202008D01*
X5208158Y-18202008D02*
X5217682Y-18211531D01*
X5217682Y-18211531D02*
X5227205Y-18230579D01*
X5227205Y-18230579D02*
X5236729Y-18268674D01*
X5236729Y-18268674D02*
X5236729Y-18316293D01*
X5236729Y-18316293D02*
X5227205Y-18354389D01*
X5227205Y-18354389D02*
X5217682Y-18373436D01*
X5217682Y-18373436D02*
X5208158Y-18382960D01*
X5208158Y-18382960D02*
X5189110Y-18392484D01*
X5189110Y-18392484D02*
X5170063Y-18392484D01*
X5170063Y-18392484D02*
X5151015Y-18382960D01*
X5151015Y-18382960D02*
X5141491Y-18373436D01*
X5141491Y-18373436D02*
X5131967Y-18354389D01*
X5131967Y-18354389D02*
X5122444Y-18316293D01*
X5122444Y-18316293D02*
X5122444Y-18268674D01*
X5122444Y-18268674D02*
X5131967Y-18230579D01*
X5131967Y-18230579D02*
X5141491Y-18211531D01*
X5141491Y-18211531D02*
X5151015Y-18202008D01*
X5151015Y-18202008D02*
X5170063Y-18192484D01*
X5360539Y-18192484D02*
X5379586Y-18192484D01*
X5379586Y-18192484D02*
X5398634Y-18202008D01*
X5398634Y-18202008D02*
X5408158Y-18211531D01*
X5408158Y-18211531D02*
X5417682Y-18230579D01*
X5417682Y-18230579D02*
X5427205Y-18268674D01*
X5427205Y-18268674D02*
X5427205Y-18316293D01*
X5427205Y-18316293D02*
X5417682Y-18354389D01*
X5417682Y-18354389D02*
X5408158Y-18373436D01*
X5408158Y-18373436D02*
X5398634Y-18382960D01*
X5398634Y-18382960D02*
X5379586Y-18392484D01*
X5379586Y-18392484D02*
X5360539Y-18392484D01*
X5360539Y-18392484D02*
X5341491Y-18382960D01*
X5341491Y-18382960D02*
X5331967Y-18373436D01*
X5331967Y-18373436D02*
X5322444Y-18354389D01*
X5322444Y-18354389D02*
X5312920Y-18316293D01*
X5312920Y-18316293D02*
X5312920Y-18268674D01*
X5312920Y-18268674D02*
X5322444Y-18230579D01*
X5322444Y-18230579D02*
X5331967Y-18211531D01*
X5331967Y-18211531D02*
X5341491Y-18202008D01*
X5341491Y-18202008D02*
X5360539Y-18192484D01*
X5512920Y-18392484D02*
X5512920Y-18259150D01*
X5512920Y-18278198D02*
X5522444Y-18268674D01*
X5522444Y-18268674D02*
X5541491Y-18259150D01*
X5541491Y-18259150D02*
X5570063Y-18259150D01*
X5570063Y-18259150D02*
X5589110Y-18268674D01*
X5589110Y-18268674D02*
X5598634Y-18287722D01*
X5598634Y-18287722D02*
X5598634Y-18392484D01*
X5598634Y-18287722D02*
X5608158Y-18268674D01*
X5608158Y-18268674D02*
X5627205Y-18259150D01*
X5627205Y-18259150D02*
X5655777Y-18259150D01*
X5655777Y-18259150D02*
X5674824Y-18268674D01*
X5674824Y-18268674D02*
X5684348Y-18287722D01*
X5684348Y-18287722D02*
X5684348Y-18392484D01*
X5779586Y-18392484D02*
X5779586Y-18259150D01*
X5779586Y-18278198D02*
X5789110Y-18268674D01*
X5789110Y-18268674D02*
X5808158Y-18259150D01*
X5808158Y-18259150D02*
X5836729Y-18259150D01*
X5836729Y-18259150D02*
X5855777Y-18268674D01*
X5855777Y-18268674D02*
X5865301Y-18287722D01*
X5865301Y-18287722D02*
X5865301Y-18392484D01*
X5865301Y-18287722D02*
X5874824Y-18268674D01*
X5874824Y-18268674D02*
X5893872Y-18259150D01*
X5893872Y-18259150D02*
X5922443Y-18259150D01*
X5922443Y-18259150D02*
X5941491Y-18268674D01*
X5941491Y-18268674D02*
X5951015Y-18287722D01*
X5951015Y-18287722D02*
X5951015Y-18392484D01*
X6341491Y-18182960D02*
X6170063Y-18440103D01*
X6598634Y-18192484D02*
X6617682Y-18192484D01*
X6617682Y-18192484D02*
X6636729Y-18202008D01*
X6636729Y-18202008D02*
X6646253Y-18211531D01*
X6646253Y-18211531D02*
X6655777Y-18230579D01*
X6655777Y-18230579D02*
X6665301Y-18268674D01*
X6665301Y-18268674D02*
X6665301Y-18316293D01*
X6665301Y-18316293D02*
X6655777Y-18354389D01*
X6655777Y-18354389D02*
X6646253Y-18373436D01*
X6646253Y-18373436D02*
X6636729Y-18382960D01*
X6636729Y-18382960D02*
X6617682Y-18392484D01*
X6617682Y-18392484D02*
X6598634Y-18392484D01*
X6598634Y-18392484D02*
X6579586Y-18382960D01*
X6579586Y-18382960D02*
X6570063Y-18373436D01*
X6570063Y-18373436D02*
X6560539Y-18354389D01*
X6560539Y-18354389D02*
X6551015Y-18316293D01*
X6551015Y-18316293D02*
X6551015Y-18268674D01*
X6551015Y-18268674D02*
X6560539Y-18230579D01*
X6560539Y-18230579D02*
X6570063Y-18211531D01*
X6570063Y-18211531D02*
X6579586Y-18202008D01*
X6579586Y-18202008D02*
X6598634Y-18192484D01*
X6751015Y-18373436D02*
X6760539Y-18382960D01*
X6760539Y-18382960D02*
X6751015Y-18392484D01*
X6751015Y-18392484D02*
X6741491Y-18382960D01*
X6741491Y-18382960D02*
X6751015Y-18373436D01*
X6751015Y-18373436D02*
X6751015Y-18392484D01*
X6884348Y-18192484D02*
X6903396Y-18192484D01*
X6903396Y-18192484D02*
X6922444Y-18202008D01*
X6922444Y-18202008D02*
X6931967Y-18211531D01*
X6931967Y-18211531D02*
X6941491Y-18230579D01*
X6941491Y-18230579D02*
X6951015Y-18268674D01*
X6951015Y-18268674D02*
X6951015Y-18316293D01*
X6951015Y-18316293D02*
X6941491Y-18354389D01*
X6941491Y-18354389D02*
X6931967Y-18373436D01*
X6931967Y-18373436D02*
X6922444Y-18382960D01*
X6922444Y-18382960D02*
X6903396Y-18392484D01*
X6903396Y-18392484D02*
X6884348Y-18392484D01*
X6884348Y-18392484D02*
X6865301Y-18382960D01*
X6865301Y-18382960D02*
X6855777Y-18373436D01*
X6855777Y-18373436D02*
X6846253Y-18354389D01*
X6846253Y-18354389D02*
X6836729Y-18316293D01*
X6836729Y-18316293D02*
X6836729Y-18268674D01*
X6836729Y-18268674D02*
X6846253Y-18230579D01*
X6846253Y-18230579D02*
X6855777Y-18211531D01*
X6855777Y-18211531D02*
X6865301Y-18202008D01*
X6865301Y-18202008D02*
X6884348Y-18192484D01*
X7017682Y-18192484D02*
X7141491Y-18192484D01*
X7141491Y-18192484D02*
X7074825Y-18268674D01*
X7074825Y-18268674D02*
X7103396Y-18268674D01*
X7103396Y-18268674D02*
X7122444Y-18278198D01*
X7122444Y-18278198D02*
X7131967Y-18287722D01*
X7131967Y-18287722D02*
X7141491Y-18306770D01*
X7141491Y-18306770D02*
X7141491Y-18354389D01*
X7141491Y-18354389D02*
X7131967Y-18373436D01*
X7131967Y-18373436D02*
X7122444Y-18382960D01*
X7122444Y-18382960D02*
X7103396Y-18392484D01*
X7103396Y-18392484D02*
X7046253Y-18392484D01*
X7046253Y-18392484D02*
X7027206Y-18382960D01*
X7027206Y-18382960D02*
X7017682Y-18373436D01*
X7236729Y-18392484D02*
X7274825Y-18392484D01*
X7274825Y-18392484D02*
X7293872Y-18382960D01*
X7293872Y-18382960D02*
X7303396Y-18373436D01*
X7303396Y-18373436D02*
X7322444Y-18344865D01*
X7322444Y-18344865D02*
X7331967Y-18306770D01*
X7331967Y-18306770D02*
X7331967Y-18230579D01*
X7331967Y-18230579D02*
X7322444Y-18211531D01*
X7322444Y-18211531D02*
X7312920Y-18202008D01*
X7312920Y-18202008D02*
X7293872Y-18192484D01*
X7293872Y-18192484D02*
X7255777Y-18192484D01*
X7255777Y-18192484D02*
X7236729Y-18202008D01*
X7236729Y-18202008D02*
X7227206Y-18211531D01*
X7227206Y-18211531D02*
X7217682Y-18230579D01*
X7217682Y-18230579D02*
X7217682Y-18278198D01*
X7217682Y-18278198D02*
X7227206Y-18297246D01*
X7227206Y-18297246D02*
X7236729Y-18306770D01*
X7236729Y-18306770D02*
X7255777Y-18316293D01*
X7255777Y-18316293D02*
X7293872Y-18316293D01*
X7293872Y-18316293D02*
X7312920Y-18306770D01*
X7312920Y-18306770D02*
X7322444Y-18297246D01*
X7322444Y-18297246D02*
X7331967Y-18278198D01*
X7503396Y-18259150D02*
X7503396Y-18392484D01*
X7455777Y-18182960D02*
X7408158Y-18325817D01*
X7408158Y-18325817D02*
X7531967Y-18325817D01*
X7598634Y-18192484D02*
X7598634Y-18230579D01*
X7674825Y-18192484D02*
X7674825Y-18230579D01*
X7970063Y-18468674D02*
X7960539Y-18459150D01*
X7960539Y-18459150D02*
X7941491Y-18430579D01*
X7941491Y-18430579D02*
X7931968Y-18411531D01*
X7931968Y-18411531D02*
X7922444Y-18382960D01*
X7922444Y-18382960D02*
X7912920Y-18335341D01*
X7912920Y-18335341D02*
X7912920Y-18297246D01*
X7912920Y-18297246D02*
X7922444Y-18249627D01*
X7922444Y-18249627D02*
X7931968Y-18221055D01*
X7931968Y-18221055D02*
X7941491Y-18202008D01*
X7941491Y-18202008D02*
X7960539Y-18173436D01*
X7960539Y-18173436D02*
X7970063Y-18163912D01*
X8131968Y-18192484D02*
X8093872Y-18192484D01*
X8093872Y-18192484D02*
X8074825Y-18202008D01*
X8074825Y-18202008D02*
X8065301Y-18211531D01*
X8065301Y-18211531D02*
X8046253Y-18240103D01*
X8046253Y-18240103D02*
X8036729Y-18278198D01*
X8036729Y-18278198D02*
X8036729Y-18354389D01*
X8036729Y-18354389D02*
X8046253Y-18373436D01*
X8046253Y-18373436D02*
X8055777Y-18382960D01*
X8055777Y-18382960D02*
X8074825Y-18392484D01*
X8074825Y-18392484D02*
X8112920Y-18392484D01*
X8112920Y-18392484D02*
X8131968Y-18382960D01*
X8131968Y-18382960D02*
X8141491Y-18373436D01*
X8141491Y-18373436D02*
X8151015Y-18354389D01*
X8151015Y-18354389D02*
X8151015Y-18306770D01*
X8151015Y-18306770D02*
X8141491Y-18287722D01*
X8141491Y-18287722D02*
X8131968Y-18278198D01*
X8131968Y-18278198D02*
X8112920Y-18268674D01*
X8112920Y-18268674D02*
X8074825Y-18268674D01*
X8074825Y-18268674D02*
X8055777Y-18278198D01*
X8055777Y-18278198D02*
X8046253Y-18287722D01*
X8046253Y-18287722D02*
X8036729Y-18306770D01*
X8246253Y-18392484D02*
X8284348Y-18392484D01*
X8284348Y-18392484D02*
X8303396Y-18382960D01*
X8303396Y-18382960D02*
X8312920Y-18373436D01*
X8312920Y-18373436D02*
X8331968Y-18344865D01*
X8331968Y-18344865D02*
X8341491Y-18306770D01*
X8341491Y-18306770D02*
X8341491Y-18230579D01*
X8341491Y-18230579D02*
X8331968Y-18211531D01*
X8331968Y-18211531D02*
X8322444Y-18202008D01*
X8322444Y-18202008D02*
X8303396Y-18192484D01*
X8303396Y-18192484D02*
X8265301Y-18192484D01*
X8265301Y-18192484D02*
X8246253Y-18202008D01*
X8246253Y-18202008D02*
X8236729Y-18211531D01*
X8236729Y-18211531D02*
X8227206Y-18230579D01*
X8227206Y-18230579D02*
X8227206Y-18278198D01*
X8227206Y-18278198D02*
X8236729Y-18297246D01*
X8236729Y-18297246D02*
X8246253Y-18306770D01*
X8246253Y-18306770D02*
X8265301Y-18316293D01*
X8265301Y-18316293D02*
X8303396Y-18316293D01*
X8303396Y-18316293D02*
X8322444Y-18306770D01*
X8322444Y-18306770D02*
X8331968Y-18297246D01*
X8331968Y-18297246D02*
X8341491Y-18278198D01*
X8579587Y-18392484D02*
X8579587Y-18192484D01*
X8665301Y-18392484D02*
X8665301Y-18287722D01*
X8665301Y-18287722D02*
X8655777Y-18268674D01*
X8655777Y-18268674D02*
X8636730Y-18259150D01*
X8636730Y-18259150D02*
X8608158Y-18259150D01*
X8608158Y-18259150D02*
X8589111Y-18268674D01*
X8589111Y-18268674D02*
X8579587Y-18278198D01*
X8789111Y-18392484D02*
X8770063Y-18382960D01*
X8770063Y-18382960D02*
X8760539Y-18373436D01*
X8760539Y-18373436D02*
X8751015Y-18354389D01*
X8751015Y-18354389D02*
X8751015Y-18297246D01*
X8751015Y-18297246D02*
X8760539Y-18278198D01*
X8760539Y-18278198D02*
X8770063Y-18268674D01*
X8770063Y-18268674D02*
X8789111Y-18259150D01*
X8789111Y-18259150D02*
X8817682Y-18259150D01*
X8817682Y-18259150D02*
X8836730Y-18268674D01*
X8836730Y-18268674D02*
X8846253Y-18278198D01*
X8846253Y-18278198D02*
X8855777Y-18297246D01*
X8855777Y-18297246D02*
X8855777Y-18354389D01*
X8855777Y-18354389D02*
X8846253Y-18373436D01*
X8846253Y-18373436D02*
X8836730Y-18382960D01*
X8836730Y-18382960D02*
X8817682Y-18392484D01*
X8817682Y-18392484D02*
X8789111Y-18392484D01*
X8970063Y-18392484D02*
X8951015Y-18382960D01*
X8951015Y-18382960D02*
X8941492Y-18363912D01*
X8941492Y-18363912D02*
X8941492Y-18192484D01*
X9122444Y-18382960D02*
X9103396Y-18392484D01*
X9103396Y-18392484D02*
X9065301Y-18392484D01*
X9065301Y-18392484D02*
X9046253Y-18382960D01*
X9046253Y-18382960D02*
X9036730Y-18363912D01*
X9036730Y-18363912D02*
X9036730Y-18287722D01*
X9036730Y-18287722D02*
X9046253Y-18268674D01*
X9046253Y-18268674D02*
X9065301Y-18259150D01*
X9065301Y-18259150D02*
X9103396Y-18259150D01*
X9103396Y-18259150D02*
X9122444Y-18268674D01*
X9122444Y-18268674D02*
X9131968Y-18287722D01*
X9131968Y-18287722D02*
X9131968Y-18306770D01*
X9131968Y-18306770D02*
X9036730Y-18325817D01*
X9208158Y-18382960D02*
X9227206Y-18392484D01*
X9227206Y-18392484D02*
X9265301Y-18392484D01*
X9265301Y-18392484D02*
X9284349Y-18382960D01*
X9284349Y-18382960D02*
X9293873Y-18363912D01*
X9293873Y-18363912D02*
X9293873Y-18354389D01*
X9293873Y-18354389D02*
X9284349Y-18335341D01*
X9284349Y-18335341D02*
X9265301Y-18325817D01*
X9265301Y-18325817D02*
X9236730Y-18325817D01*
X9236730Y-18325817D02*
X9217682Y-18316293D01*
X9217682Y-18316293D02*
X9208158Y-18297246D01*
X9208158Y-18297246D02*
X9208158Y-18287722D01*
X9208158Y-18287722D02*
X9217682Y-18268674D01*
X9217682Y-18268674D02*
X9236730Y-18259150D01*
X9236730Y-18259150D02*
X9265301Y-18259150D01*
X9265301Y-18259150D02*
X9284349Y-18268674D01*
X9360539Y-18468674D02*
X9370063Y-18459150D01*
X9370063Y-18459150D02*
X9389111Y-18430579D01*
X9389111Y-18430579D02*
X9398634Y-18411531D01*
X9398634Y-18411531D02*
X9408158Y-18382960D01*
X9408158Y-18382960D02*
X9417682Y-18335341D01*
X9417682Y-18335341D02*
X9417682Y-18297246D01*
X9417682Y-18297246D02*
X9408158Y-18249627D01*
X9408158Y-18249627D02*
X9398634Y-18221055D01*
X9398634Y-18221055D02*
X9389111Y-18202008D01*
X9389111Y-18202008D02*
X9370063Y-18173436D01*
X9370063Y-18173436D02*
X9360539Y-18163912D01*
D12*
X4285000Y-18510000D02*
X4395000Y-18620000D01*
X4395000Y-18510000D02*
X4285000Y-18620000D01*
X4395000Y-18565000D02*
G75*
G03*
X4395000Y-18565000I-55000J0D01*
G01*
D11*
X4760539Y-18656484D02*
X4646253Y-18656484D01*
X4703396Y-18656484D02*
X4703396Y-18456484D01*
X4703396Y-18456484D02*
X4684348Y-18485055D01*
X4684348Y-18485055D02*
X4665301Y-18504103D01*
X4665301Y-18504103D02*
X4646253Y-18513627D01*
X4846253Y-18637436D02*
X4855777Y-18646960D01*
X4855777Y-18646960D02*
X4846253Y-18656484D01*
X4846253Y-18656484D02*
X4836729Y-18646960D01*
X4836729Y-18646960D02*
X4846253Y-18637436D01*
X4846253Y-18637436D02*
X4846253Y-18656484D01*
X5046253Y-18656484D02*
X4931967Y-18656484D01*
X4989110Y-18656484D02*
X4989110Y-18456484D01*
X4989110Y-18456484D02*
X4970063Y-18485055D01*
X4970063Y-18485055D02*
X4951015Y-18504103D01*
X4951015Y-18504103D02*
X4931967Y-18513627D01*
X5170063Y-18456484D02*
X5189110Y-18456484D01*
X5189110Y-18456484D02*
X5208158Y-18466008D01*
X5208158Y-18466008D02*
X5217682Y-18475531D01*
X5217682Y-18475531D02*
X5227205Y-18494579D01*
X5227205Y-18494579D02*
X5236729Y-18532674D01*
X5236729Y-18532674D02*
X5236729Y-18580293D01*
X5236729Y-18580293D02*
X5227205Y-18618389D01*
X5227205Y-18618389D02*
X5217682Y-18637436D01*
X5217682Y-18637436D02*
X5208158Y-18646960D01*
X5208158Y-18646960D02*
X5189110Y-18656484D01*
X5189110Y-18656484D02*
X5170063Y-18656484D01*
X5170063Y-18656484D02*
X5151015Y-18646960D01*
X5151015Y-18646960D02*
X5141491Y-18637436D01*
X5141491Y-18637436D02*
X5131967Y-18618389D01*
X5131967Y-18618389D02*
X5122444Y-18580293D01*
X5122444Y-18580293D02*
X5122444Y-18532674D01*
X5122444Y-18532674D02*
X5131967Y-18494579D01*
X5131967Y-18494579D02*
X5141491Y-18475531D01*
X5141491Y-18475531D02*
X5151015Y-18466008D01*
X5151015Y-18466008D02*
X5170063Y-18456484D01*
X5360539Y-18456484D02*
X5379586Y-18456484D01*
X5379586Y-18456484D02*
X5398634Y-18466008D01*
X5398634Y-18466008D02*
X5408158Y-18475531D01*
X5408158Y-18475531D02*
X5417682Y-18494579D01*
X5417682Y-18494579D02*
X5427205Y-18532674D01*
X5427205Y-18532674D02*
X5427205Y-18580293D01*
X5427205Y-18580293D02*
X5417682Y-18618389D01*
X5417682Y-18618389D02*
X5408158Y-18637436D01*
X5408158Y-18637436D02*
X5398634Y-18646960D01*
X5398634Y-18646960D02*
X5379586Y-18656484D01*
X5379586Y-18656484D02*
X5360539Y-18656484D01*
X5360539Y-18656484D02*
X5341491Y-18646960D01*
X5341491Y-18646960D02*
X5331967Y-18637436D01*
X5331967Y-18637436D02*
X5322444Y-18618389D01*
X5322444Y-18618389D02*
X5312920Y-18580293D01*
X5312920Y-18580293D02*
X5312920Y-18532674D01*
X5312920Y-18532674D02*
X5322444Y-18494579D01*
X5322444Y-18494579D02*
X5331967Y-18475531D01*
X5331967Y-18475531D02*
X5341491Y-18466008D01*
X5341491Y-18466008D02*
X5360539Y-18456484D01*
X5512920Y-18656484D02*
X5512920Y-18523150D01*
X5512920Y-18542198D02*
X5522444Y-18532674D01*
X5522444Y-18532674D02*
X5541491Y-18523150D01*
X5541491Y-18523150D02*
X5570063Y-18523150D01*
X5570063Y-18523150D02*
X5589110Y-18532674D01*
X5589110Y-18532674D02*
X5598634Y-18551722D01*
X5598634Y-18551722D02*
X5598634Y-18656484D01*
X5598634Y-18551722D02*
X5608158Y-18532674D01*
X5608158Y-18532674D02*
X5627205Y-18523150D01*
X5627205Y-18523150D02*
X5655777Y-18523150D01*
X5655777Y-18523150D02*
X5674824Y-18532674D01*
X5674824Y-18532674D02*
X5684348Y-18551722D01*
X5684348Y-18551722D02*
X5684348Y-18656484D01*
X5779586Y-18656484D02*
X5779586Y-18523150D01*
X5779586Y-18542198D02*
X5789110Y-18532674D01*
X5789110Y-18532674D02*
X5808158Y-18523150D01*
X5808158Y-18523150D02*
X5836729Y-18523150D01*
X5836729Y-18523150D02*
X5855777Y-18532674D01*
X5855777Y-18532674D02*
X5865301Y-18551722D01*
X5865301Y-18551722D02*
X5865301Y-18656484D01*
X5865301Y-18551722D02*
X5874824Y-18532674D01*
X5874824Y-18532674D02*
X5893872Y-18523150D01*
X5893872Y-18523150D02*
X5922443Y-18523150D01*
X5922443Y-18523150D02*
X5941491Y-18532674D01*
X5941491Y-18532674D02*
X5951015Y-18551722D01*
X5951015Y-18551722D02*
X5951015Y-18656484D01*
X6341491Y-18446960D02*
X6170063Y-18704103D01*
X6598634Y-18456484D02*
X6617682Y-18456484D01*
X6617682Y-18456484D02*
X6636729Y-18466008D01*
X6636729Y-18466008D02*
X6646253Y-18475531D01*
X6646253Y-18475531D02*
X6655777Y-18494579D01*
X6655777Y-18494579D02*
X6665301Y-18532674D01*
X6665301Y-18532674D02*
X6665301Y-18580293D01*
X6665301Y-18580293D02*
X6655777Y-18618389D01*
X6655777Y-18618389D02*
X6646253Y-18637436D01*
X6646253Y-18637436D02*
X6636729Y-18646960D01*
X6636729Y-18646960D02*
X6617682Y-18656484D01*
X6617682Y-18656484D02*
X6598634Y-18656484D01*
X6598634Y-18656484D02*
X6579586Y-18646960D01*
X6579586Y-18646960D02*
X6570063Y-18637436D01*
X6570063Y-18637436D02*
X6560539Y-18618389D01*
X6560539Y-18618389D02*
X6551015Y-18580293D01*
X6551015Y-18580293D02*
X6551015Y-18532674D01*
X6551015Y-18532674D02*
X6560539Y-18494579D01*
X6560539Y-18494579D02*
X6570063Y-18475531D01*
X6570063Y-18475531D02*
X6579586Y-18466008D01*
X6579586Y-18466008D02*
X6598634Y-18456484D01*
X6751015Y-18637436D02*
X6760539Y-18646960D01*
X6760539Y-18646960D02*
X6751015Y-18656484D01*
X6751015Y-18656484D02*
X6741491Y-18646960D01*
X6741491Y-18646960D02*
X6751015Y-18637436D01*
X6751015Y-18637436D02*
X6751015Y-18656484D01*
X6884348Y-18456484D02*
X6903396Y-18456484D01*
X6903396Y-18456484D02*
X6922444Y-18466008D01*
X6922444Y-18466008D02*
X6931967Y-18475531D01*
X6931967Y-18475531D02*
X6941491Y-18494579D01*
X6941491Y-18494579D02*
X6951015Y-18532674D01*
X6951015Y-18532674D02*
X6951015Y-18580293D01*
X6951015Y-18580293D02*
X6941491Y-18618389D01*
X6941491Y-18618389D02*
X6931967Y-18637436D01*
X6931967Y-18637436D02*
X6922444Y-18646960D01*
X6922444Y-18646960D02*
X6903396Y-18656484D01*
X6903396Y-18656484D02*
X6884348Y-18656484D01*
X6884348Y-18656484D02*
X6865301Y-18646960D01*
X6865301Y-18646960D02*
X6855777Y-18637436D01*
X6855777Y-18637436D02*
X6846253Y-18618389D01*
X6846253Y-18618389D02*
X6836729Y-18580293D01*
X6836729Y-18580293D02*
X6836729Y-18532674D01*
X6836729Y-18532674D02*
X6846253Y-18494579D01*
X6846253Y-18494579D02*
X6855777Y-18475531D01*
X6855777Y-18475531D02*
X6865301Y-18466008D01*
X6865301Y-18466008D02*
X6884348Y-18456484D01*
X7122444Y-18523150D02*
X7122444Y-18656484D01*
X7074825Y-18446960D02*
X7027206Y-18589817D01*
X7027206Y-18589817D02*
X7151015Y-18589817D01*
X7208158Y-18456484D02*
X7331967Y-18456484D01*
X7331967Y-18456484D02*
X7265301Y-18532674D01*
X7265301Y-18532674D02*
X7293872Y-18532674D01*
X7293872Y-18532674D02*
X7312920Y-18542198D01*
X7312920Y-18542198D02*
X7322444Y-18551722D01*
X7322444Y-18551722D02*
X7331967Y-18570770D01*
X7331967Y-18570770D02*
X7331967Y-18618389D01*
X7331967Y-18618389D02*
X7322444Y-18637436D01*
X7322444Y-18637436D02*
X7312920Y-18646960D01*
X7312920Y-18646960D02*
X7293872Y-18656484D01*
X7293872Y-18656484D02*
X7236729Y-18656484D01*
X7236729Y-18656484D02*
X7217682Y-18646960D01*
X7217682Y-18646960D02*
X7208158Y-18637436D01*
X7398634Y-18456484D02*
X7522444Y-18456484D01*
X7522444Y-18456484D02*
X7455777Y-18532674D01*
X7455777Y-18532674D02*
X7484348Y-18532674D01*
X7484348Y-18532674D02*
X7503396Y-18542198D01*
X7503396Y-18542198D02*
X7512920Y-18551722D01*
X7512920Y-18551722D02*
X7522444Y-18570770D01*
X7522444Y-18570770D02*
X7522444Y-18618389D01*
X7522444Y-18618389D02*
X7512920Y-18637436D01*
X7512920Y-18637436D02*
X7503396Y-18646960D01*
X7503396Y-18646960D02*
X7484348Y-18656484D01*
X7484348Y-18656484D02*
X7427206Y-18656484D01*
X7427206Y-18656484D02*
X7408158Y-18646960D01*
X7408158Y-18646960D02*
X7398634Y-18637436D01*
X7598634Y-18456484D02*
X7598634Y-18494579D01*
X7674825Y-18456484D02*
X7674825Y-18494579D01*
X7970063Y-18732674D02*
X7960539Y-18723150D01*
X7960539Y-18723150D02*
X7941491Y-18694579D01*
X7941491Y-18694579D02*
X7931968Y-18675531D01*
X7931968Y-18675531D02*
X7922444Y-18646960D01*
X7922444Y-18646960D02*
X7912920Y-18599341D01*
X7912920Y-18599341D02*
X7912920Y-18561246D01*
X7912920Y-18561246D02*
X7922444Y-18513627D01*
X7922444Y-18513627D02*
X7931968Y-18485055D01*
X7931968Y-18485055D02*
X7941491Y-18466008D01*
X7941491Y-18466008D02*
X7960539Y-18437436D01*
X7960539Y-18437436D02*
X7970063Y-18427912D01*
X8141491Y-18456484D02*
X8046253Y-18456484D01*
X8046253Y-18456484D02*
X8036729Y-18551722D01*
X8036729Y-18551722D02*
X8046253Y-18542198D01*
X8046253Y-18542198D02*
X8065301Y-18532674D01*
X8065301Y-18532674D02*
X8112920Y-18532674D01*
X8112920Y-18532674D02*
X8131968Y-18542198D01*
X8131968Y-18542198D02*
X8141491Y-18551722D01*
X8141491Y-18551722D02*
X8151015Y-18570770D01*
X8151015Y-18570770D02*
X8151015Y-18618389D01*
X8151015Y-18618389D02*
X8141491Y-18637436D01*
X8141491Y-18637436D02*
X8131968Y-18646960D01*
X8131968Y-18646960D02*
X8112920Y-18656484D01*
X8112920Y-18656484D02*
X8065301Y-18656484D01*
X8065301Y-18656484D02*
X8046253Y-18646960D01*
X8046253Y-18646960D02*
X8036729Y-18637436D01*
X8389111Y-18656484D02*
X8389111Y-18456484D01*
X8474825Y-18656484D02*
X8474825Y-18551722D01*
X8474825Y-18551722D02*
X8465301Y-18532674D01*
X8465301Y-18532674D02*
X8446253Y-18523150D01*
X8446253Y-18523150D02*
X8417682Y-18523150D01*
X8417682Y-18523150D02*
X8398634Y-18532674D01*
X8398634Y-18532674D02*
X8389111Y-18542198D01*
X8598634Y-18656484D02*
X8579587Y-18646960D01*
X8579587Y-18646960D02*
X8570063Y-18637436D01*
X8570063Y-18637436D02*
X8560539Y-18618389D01*
X8560539Y-18618389D02*
X8560539Y-18561246D01*
X8560539Y-18561246D02*
X8570063Y-18542198D01*
X8570063Y-18542198D02*
X8579587Y-18532674D01*
X8579587Y-18532674D02*
X8598634Y-18523150D01*
X8598634Y-18523150D02*
X8627206Y-18523150D01*
X8627206Y-18523150D02*
X8646253Y-18532674D01*
X8646253Y-18532674D02*
X8655777Y-18542198D01*
X8655777Y-18542198D02*
X8665301Y-18561246D01*
X8665301Y-18561246D02*
X8665301Y-18618389D01*
X8665301Y-18618389D02*
X8655777Y-18637436D01*
X8655777Y-18637436D02*
X8646253Y-18646960D01*
X8646253Y-18646960D02*
X8627206Y-18656484D01*
X8627206Y-18656484D02*
X8598634Y-18656484D01*
X8779587Y-18656484D02*
X8760539Y-18646960D01*
X8760539Y-18646960D02*
X8751015Y-18627912D01*
X8751015Y-18627912D02*
X8751015Y-18456484D01*
X8931968Y-18646960D02*
X8912920Y-18656484D01*
X8912920Y-18656484D02*
X8874825Y-18656484D01*
X8874825Y-18656484D02*
X8855777Y-18646960D01*
X8855777Y-18646960D02*
X8846253Y-18627912D01*
X8846253Y-18627912D02*
X8846253Y-18551722D01*
X8846253Y-18551722D02*
X8855777Y-18532674D01*
X8855777Y-18532674D02*
X8874825Y-18523150D01*
X8874825Y-18523150D02*
X8912920Y-18523150D01*
X8912920Y-18523150D02*
X8931968Y-18532674D01*
X8931968Y-18532674D02*
X8941492Y-18551722D01*
X8941492Y-18551722D02*
X8941492Y-18570770D01*
X8941492Y-18570770D02*
X8846253Y-18589817D01*
X9017682Y-18646960D02*
X9036730Y-18656484D01*
X9036730Y-18656484D02*
X9074825Y-18656484D01*
X9074825Y-18656484D02*
X9093873Y-18646960D01*
X9093873Y-18646960D02*
X9103396Y-18627912D01*
X9103396Y-18627912D02*
X9103396Y-18618389D01*
X9103396Y-18618389D02*
X9093873Y-18599341D01*
X9093873Y-18599341D02*
X9074825Y-18589817D01*
X9074825Y-18589817D02*
X9046253Y-18589817D01*
X9046253Y-18589817D02*
X9027206Y-18580293D01*
X9027206Y-18580293D02*
X9017682Y-18561246D01*
X9017682Y-18561246D02*
X9017682Y-18551722D01*
X9017682Y-18551722D02*
X9027206Y-18532674D01*
X9027206Y-18532674D02*
X9046253Y-18523150D01*
X9046253Y-18523150D02*
X9074825Y-18523150D01*
X9074825Y-18523150D02*
X9093873Y-18532674D01*
X9170063Y-18732674D02*
X9179587Y-18723150D01*
X9179587Y-18723150D02*
X9198634Y-18694579D01*
X9198634Y-18694579D02*
X9208158Y-18675531D01*
X9208158Y-18675531D02*
X9217682Y-18646960D01*
X9217682Y-18646960D02*
X9227206Y-18599341D01*
X9227206Y-18599341D02*
X9227206Y-18561246D01*
X9227206Y-18561246D02*
X9217682Y-18513627D01*
X9217682Y-18513627D02*
X9208158Y-18485055D01*
X9208158Y-18485055D02*
X9198634Y-18466008D01*
X9198634Y-18466008D02*
X9179587Y-18437436D01*
X9179587Y-18437436D02*
X9170063Y-18427912D01*
D13*
X4275000Y-18769000D02*
X4395000Y-18889000D01*
X4395000Y-18769000D02*
X4275000Y-18889000D01*
X4335000Y-18769000D02*
X4335000Y-18889000D01*
X4275000Y-18829000D02*
X4395000Y-18829000D01*
D11*
X4760539Y-18920484D02*
X4646253Y-18920484D01*
X4703396Y-18920484D02*
X4703396Y-18720484D01*
X4703396Y-18720484D02*
X4684348Y-18749055D01*
X4684348Y-18749055D02*
X4665301Y-18768103D01*
X4665301Y-18768103D02*
X4646253Y-18777627D01*
X4846253Y-18901436D02*
X4855777Y-18910960D01*
X4855777Y-18910960D02*
X4846253Y-18920484D01*
X4846253Y-18920484D02*
X4836729Y-18910960D01*
X4836729Y-18910960D02*
X4846253Y-18901436D01*
X4846253Y-18901436D02*
X4846253Y-18920484D01*
X4931967Y-18739531D02*
X4941491Y-18730008D01*
X4941491Y-18730008D02*
X4960539Y-18720484D01*
X4960539Y-18720484D02*
X5008158Y-18720484D01*
X5008158Y-18720484D02*
X5027205Y-18730008D01*
X5027205Y-18730008D02*
X5036729Y-18739531D01*
X5036729Y-18739531D02*
X5046253Y-18758579D01*
X5046253Y-18758579D02*
X5046253Y-18777627D01*
X5046253Y-18777627D02*
X5036729Y-18806198D01*
X5036729Y-18806198D02*
X4922444Y-18920484D01*
X4922444Y-18920484D02*
X5046253Y-18920484D01*
X5170063Y-18720484D02*
X5189110Y-18720484D01*
X5189110Y-18720484D02*
X5208158Y-18730008D01*
X5208158Y-18730008D02*
X5217682Y-18739531D01*
X5217682Y-18739531D02*
X5227205Y-18758579D01*
X5227205Y-18758579D02*
X5236729Y-18796674D01*
X5236729Y-18796674D02*
X5236729Y-18844293D01*
X5236729Y-18844293D02*
X5227205Y-18882389D01*
X5227205Y-18882389D02*
X5217682Y-18901436D01*
X5217682Y-18901436D02*
X5208158Y-18910960D01*
X5208158Y-18910960D02*
X5189110Y-18920484D01*
X5189110Y-18920484D02*
X5170063Y-18920484D01*
X5170063Y-18920484D02*
X5151015Y-18910960D01*
X5151015Y-18910960D02*
X5141491Y-18901436D01*
X5141491Y-18901436D02*
X5131967Y-18882389D01*
X5131967Y-18882389D02*
X5122444Y-18844293D01*
X5122444Y-18844293D02*
X5122444Y-18796674D01*
X5122444Y-18796674D02*
X5131967Y-18758579D01*
X5131967Y-18758579D02*
X5141491Y-18739531D01*
X5141491Y-18739531D02*
X5151015Y-18730008D01*
X5151015Y-18730008D02*
X5170063Y-18720484D01*
X5360539Y-18720484D02*
X5379586Y-18720484D01*
X5379586Y-18720484D02*
X5398634Y-18730008D01*
X5398634Y-18730008D02*
X5408158Y-18739531D01*
X5408158Y-18739531D02*
X5417682Y-18758579D01*
X5417682Y-18758579D02*
X5427205Y-18796674D01*
X5427205Y-18796674D02*
X5427205Y-18844293D01*
X5427205Y-18844293D02*
X5417682Y-18882389D01*
X5417682Y-18882389D02*
X5408158Y-18901436D01*
X5408158Y-18901436D02*
X5398634Y-18910960D01*
X5398634Y-18910960D02*
X5379586Y-18920484D01*
X5379586Y-18920484D02*
X5360539Y-18920484D01*
X5360539Y-18920484D02*
X5341491Y-18910960D01*
X5341491Y-18910960D02*
X5331967Y-18901436D01*
X5331967Y-18901436D02*
X5322444Y-18882389D01*
X5322444Y-18882389D02*
X5312920Y-18844293D01*
X5312920Y-18844293D02*
X5312920Y-18796674D01*
X5312920Y-18796674D02*
X5322444Y-18758579D01*
X5322444Y-18758579D02*
X5331967Y-18739531D01*
X5331967Y-18739531D02*
X5341491Y-18730008D01*
X5341491Y-18730008D02*
X5360539Y-18720484D01*
X5512920Y-18920484D02*
X5512920Y-18787150D01*
X5512920Y-18806198D02*
X5522444Y-18796674D01*
X5522444Y-18796674D02*
X5541491Y-18787150D01*
X5541491Y-18787150D02*
X5570063Y-18787150D01*
X5570063Y-18787150D02*
X5589110Y-18796674D01*
X5589110Y-18796674D02*
X5598634Y-18815722D01*
X5598634Y-18815722D02*
X5598634Y-18920484D01*
X5598634Y-18815722D02*
X5608158Y-18796674D01*
X5608158Y-18796674D02*
X5627205Y-18787150D01*
X5627205Y-18787150D02*
X5655777Y-18787150D01*
X5655777Y-18787150D02*
X5674824Y-18796674D01*
X5674824Y-18796674D02*
X5684348Y-18815722D01*
X5684348Y-18815722D02*
X5684348Y-18920484D01*
X5779586Y-18920484D02*
X5779586Y-18787150D01*
X5779586Y-18806198D02*
X5789110Y-18796674D01*
X5789110Y-18796674D02*
X5808158Y-18787150D01*
X5808158Y-18787150D02*
X5836729Y-18787150D01*
X5836729Y-18787150D02*
X5855777Y-18796674D01*
X5855777Y-18796674D02*
X5865301Y-18815722D01*
X5865301Y-18815722D02*
X5865301Y-18920484D01*
X5865301Y-18815722D02*
X5874824Y-18796674D01*
X5874824Y-18796674D02*
X5893872Y-18787150D01*
X5893872Y-18787150D02*
X5922443Y-18787150D01*
X5922443Y-18787150D02*
X5941491Y-18796674D01*
X5941491Y-18796674D02*
X5951015Y-18815722D01*
X5951015Y-18815722D02*
X5951015Y-18920484D01*
X6341491Y-18710960D02*
X6170063Y-18968103D01*
X6598634Y-18720484D02*
X6617682Y-18720484D01*
X6617682Y-18720484D02*
X6636729Y-18730008D01*
X6636729Y-18730008D02*
X6646253Y-18739531D01*
X6646253Y-18739531D02*
X6655777Y-18758579D01*
X6655777Y-18758579D02*
X6665301Y-18796674D01*
X6665301Y-18796674D02*
X6665301Y-18844293D01*
X6665301Y-18844293D02*
X6655777Y-18882389D01*
X6655777Y-18882389D02*
X6646253Y-18901436D01*
X6646253Y-18901436D02*
X6636729Y-18910960D01*
X6636729Y-18910960D02*
X6617682Y-18920484D01*
X6617682Y-18920484D02*
X6598634Y-18920484D01*
X6598634Y-18920484D02*
X6579586Y-18910960D01*
X6579586Y-18910960D02*
X6570063Y-18901436D01*
X6570063Y-18901436D02*
X6560539Y-18882389D01*
X6560539Y-18882389D02*
X6551015Y-18844293D01*
X6551015Y-18844293D02*
X6551015Y-18796674D01*
X6551015Y-18796674D02*
X6560539Y-18758579D01*
X6560539Y-18758579D02*
X6570063Y-18739531D01*
X6570063Y-18739531D02*
X6579586Y-18730008D01*
X6579586Y-18730008D02*
X6598634Y-18720484D01*
X6751015Y-18901436D02*
X6760539Y-18910960D01*
X6760539Y-18910960D02*
X6751015Y-18920484D01*
X6751015Y-18920484D02*
X6741491Y-18910960D01*
X6741491Y-18910960D02*
X6751015Y-18901436D01*
X6751015Y-18901436D02*
X6751015Y-18920484D01*
X6884348Y-18720484D02*
X6903396Y-18720484D01*
X6903396Y-18720484D02*
X6922444Y-18730008D01*
X6922444Y-18730008D02*
X6931967Y-18739531D01*
X6931967Y-18739531D02*
X6941491Y-18758579D01*
X6941491Y-18758579D02*
X6951015Y-18796674D01*
X6951015Y-18796674D02*
X6951015Y-18844293D01*
X6951015Y-18844293D02*
X6941491Y-18882389D01*
X6941491Y-18882389D02*
X6931967Y-18901436D01*
X6931967Y-18901436D02*
X6922444Y-18910960D01*
X6922444Y-18910960D02*
X6903396Y-18920484D01*
X6903396Y-18920484D02*
X6884348Y-18920484D01*
X6884348Y-18920484D02*
X6865301Y-18910960D01*
X6865301Y-18910960D02*
X6855777Y-18901436D01*
X6855777Y-18901436D02*
X6846253Y-18882389D01*
X6846253Y-18882389D02*
X6836729Y-18844293D01*
X6836729Y-18844293D02*
X6836729Y-18796674D01*
X6836729Y-18796674D02*
X6846253Y-18758579D01*
X6846253Y-18758579D02*
X6855777Y-18739531D01*
X6855777Y-18739531D02*
X6865301Y-18730008D01*
X6865301Y-18730008D02*
X6884348Y-18720484D01*
X7122444Y-18787150D02*
X7122444Y-18920484D01*
X7074825Y-18710960D02*
X7027206Y-18853817D01*
X7027206Y-18853817D02*
X7151015Y-18853817D01*
X7208158Y-18720484D02*
X7341491Y-18720484D01*
X7341491Y-18720484D02*
X7255777Y-18920484D01*
X7408158Y-18739531D02*
X7417682Y-18730008D01*
X7417682Y-18730008D02*
X7436729Y-18720484D01*
X7436729Y-18720484D02*
X7484348Y-18720484D01*
X7484348Y-18720484D02*
X7503396Y-18730008D01*
X7503396Y-18730008D02*
X7512920Y-18739531D01*
X7512920Y-18739531D02*
X7522444Y-18758579D01*
X7522444Y-18758579D02*
X7522444Y-18777627D01*
X7522444Y-18777627D02*
X7512920Y-18806198D01*
X7512920Y-18806198D02*
X7398634Y-18920484D01*
X7398634Y-18920484D02*
X7522444Y-18920484D01*
X7598634Y-18720484D02*
X7598634Y-18758579D01*
X7674825Y-18720484D02*
X7674825Y-18758579D01*
X7970063Y-18996674D02*
X7960539Y-18987150D01*
X7960539Y-18987150D02*
X7941491Y-18958579D01*
X7941491Y-18958579D02*
X7931968Y-18939531D01*
X7931968Y-18939531D02*
X7922444Y-18910960D01*
X7922444Y-18910960D02*
X7912920Y-18863341D01*
X7912920Y-18863341D02*
X7912920Y-18825246D01*
X7912920Y-18825246D02*
X7922444Y-18777627D01*
X7922444Y-18777627D02*
X7931968Y-18749055D01*
X7931968Y-18749055D02*
X7941491Y-18730008D01*
X7941491Y-18730008D02*
X7960539Y-18701436D01*
X7960539Y-18701436D02*
X7970063Y-18691912D01*
X8027206Y-18720484D02*
X8151015Y-18720484D01*
X8151015Y-18720484D02*
X8084348Y-18796674D01*
X8084348Y-18796674D02*
X8112920Y-18796674D01*
X8112920Y-18796674D02*
X8131968Y-18806198D01*
X8131968Y-18806198D02*
X8141491Y-18815722D01*
X8141491Y-18815722D02*
X8151015Y-18834770D01*
X8151015Y-18834770D02*
X8151015Y-18882389D01*
X8151015Y-18882389D02*
X8141491Y-18901436D01*
X8141491Y-18901436D02*
X8131968Y-18910960D01*
X8131968Y-18910960D02*
X8112920Y-18920484D01*
X8112920Y-18920484D02*
X8055777Y-18920484D01*
X8055777Y-18920484D02*
X8036729Y-18910960D01*
X8036729Y-18910960D02*
X8027206Y-18901436D01*
X8389111Y-18920484D02*
X8389111Y-18720484D01*
X8474825Y-18920484D02*
X8474825Y-18815722D01*
X8474825Y-18815722D02*
X8465301Y-18796674D01*
X8465301Y-18796674D02*
X8446253Y-18787150D01*
X8446253Y-18787150D02*
X8417682Y-18787150D01*
X8417682Y-18787150D02*
X8398634Y-18796674D01*
X8398634Y-18796674D02*
X8389111Y-18806198D01*
X8598634Y-18920484D02*
X8579587Y-18910960D01*
X8579587Y-18910960D02*
X8570063Y-18901436D01*
X8570063Y-18901436D02*
X8560539Y-18882389D01*
X8560539Y-18882389D02*
X8560539Y-18825246D01*
X8560539Y-18825246D02*
X8570063Y-18806198D01*
X8570063Y-18806198D02*
X8579587Y-18796674D01*
X8579587Y-18796674D02*
X8598634Y-18787150D01*
X8598634Y-18787150D02*
X8627206Y-18787150D01*
X8627206Y-18787150D02*
X8646253Y-18796674D01*
X8646253Y-18796674D02*
X8655777Y-18806198D01*
X8655777Y-18806198D02*
X8665301Y-18825246D01*
X8665301Y-18825246D02*
X8665301Y-18882389D01*
X8665301Y-18882389D02*
X8655777Y-18901436D01*
X8655777Y-18901436D02*
X8646253Y-18910960D01*
X8646253Y-18910960D02*
X8627206Y-18920484D01*
X8627206Y-18920484D02*
X8598634Y-18920484D01*
X8779587Y-18920484D02*
X8760539Y-18910960D01*
X8760539Y-18910960D02*
X8751015Y-18891912D01*
X8751015Y-18891912D02*
X8751015Y-18720484D01*
X8931968Y-18910960D02*
X8912920Y-18920484D01*
X8912920Y-18920484D02*
X8874825Y-18920484D01*
X8874825Y-18920484D02*
X8855777Y-18910960D01*
X8855777Y-18910960D02*
X8846253Y-18891912D01*
X8846253Y-18891912D02*
X8846253Y-18815722D01*
X8846253Y-18815722D02*
X8855777Y-18796674D01*
X8855777Y-18796674D02*
X8874825Y-18787150D01*
X8874825Y-18787150D02*
X8912920Y-18787150D01*
X8912920Y-18787150D02*
X8931968Y-18796674D01*
X8931968Y-18796674D02*
X8941492Y-18815722D01*
X8941492Y-18815722D02*
X8941492Y-18834770D01*
X8941492Y-18834770D02*
X8846253Y-18853817D01*
X9017682Y-18910960D02*
X9036730Y-18920484D01*
X9036730Y-18920484D02*
X9074825Y-18920484D01*
X9074825Y-18920484D02*
X9093873Y-18910960D01*
X9093873Y-18910960D02*
X9103396Y-18891912D01*
X9103396Y-18891912D02*
X9103396Y-18882389D01*
X9103396Y-18882389D02*
X9093873Y-18863341D01*
X9093873Y-18863341D02*
X9074825Y-18853817D01*
X9074825Y-18853817D02*
X9046253Y-18853817D01*
X9046253Y-18853817D02*
X9027206Y-18844293D01*
X9027206Y-18844293D02*
X9017682Y-18825246D01*
X9017682Y-18825246D02*
X9017682Y-18815722D01*
X9017682Y-18815722D02*
X9027206Y-18796674D01*
X9027206Y-18796674D02*
X9046253Y-18787150D01*
X9046253Y-18787150D02*
X9074825Y-18787150D01*
X9074825Y-18787150D02*
X9093873Y-18796674D01*
X9170063Y-18996674D02*
X9179587Y-18987150D01*
X9179587Y-18987150D02*
X9198634Y-18958579D01*
X9198634Y-18958579D02*
X9208158Y-18939531D01*
X9208158Y-18939531D02*
X9217682Y-18910960D01*
X9217682Y-18910960D02*
X9227206Y-18863341D01*
X9227206Y-18863341D02*
X9227206Y-18825246D01*
X9227206Y-18825246D02*
X9217682Y-18777627D01*
X9217682Y-18777627D02*
X9208158Y-18749055D01*
X9208158Y-18749055D02*
X9198634Y-18730008D01*
X9198634Y-18730008D02*
X9179587Y-18701436D01*
X9179587Y-18701436D02*
X9170063Y-18691912D01*
M02*
