G04 #@! TF.GenerationSoftware,KiCad,Pcbnew,7.0.9-69-ge1c0bddff3*
G04 #@! TF.CreationDate,2024-02-19T13:42:33+01:00*
G04 #@! TF.ProjectId,ASP_Backplane,4153505f-4261-4636-9b70-6c616e652e6b,B*
G04 #@! TF.SameCoordinates,Original*
G04 #@! TF.FileFunction,Copper,L1,Top*
G04 #@! TF.FilePolarity,Positive*
%FSLAX46Y46*%
G04 Gerber Fmt 4.6, Leading zero omitted, Abs format (unit mm)*
G04 Created by KiCad (PCBNEW 7.0.9-69-ge1c0bddff3) date 2024-02-19 13:42:33*
%MOMM*%
%LPD*%
G01*
G04 APERTURE LIST*
G04 Aperture macros list*
%AMRoundRect*
0 Rectangle with rounded corners*
0 $1 Rounding radius*
0 $2 $3 $4 $5 $6 $7 $8 $9 X,Y pos of 4 corners*
0 Add a 4 corners polygon primitive as box body*
4,1,4,$2,$3,$4,$5,$6,$7,$8,$9,$2,$3,0*
0 Add four circle primitives for the rounded corners*
1,1,$1+$1,$2,$3*
1,1,$1+$1,$4,$5*
1,1,$1+$1,$6,$7*
1,1,$1+$1,$8,$9*
0 Add four rect primitives between the rounded corners*
20,1,$1+$1,$2,$3,$4,$5,0*
20,1,$1+$1,$4,$5,$6,$7,0*
20,1,$1+$1,$6,$7,$8,$9,0*
20,1,$1+$1,$8,$9,$2,$3,0*%
G04 Aperture macros list end*
G04 #@! TA.AperFunction,SMDPad,CuDef*
%ADD10RoundRect,0.100000X-0.100000X0.637500X-0.100000X-0.637500X0.100000X-0.637500X0.100000X0.637500X0*%
G04 #@! TD*
G04 #@! TA.AperFunction,ComponentPad*
%ADD11O,4.000000X1.600000*%
G04 #@! TD*
G04 #@! TA.AperFunction,ComponentPad*
%ADD12O,1.600000X4.000000*%
G04 #@! TD*
G04 #@! TA.AperFunction,SMDPad,CuDef*
%ADD13RoundRect,0.112500X-0.112500X-0.237500X0.112500X-0.237500X0.112500X0.237500X-0.112500X0.237500X0*%
G04 #@! TD*
G04 #@! TA.AperFunction,SMDPad,CuDef*
%ADD14RoundRect,0.250000X-1.000000X-0.650000X1.000000X-0.650000X1.000000X0.650000X-1.000000X0.650000X0*%
G04 #@! TD*
G04 #@! TA.AperFunction,ComponentPad*
%ADD15R,1.700000X1.700000*%
G04 #@! TD*
G04 #@! TA.AperFunction,ComponentPad*
%ADD16O,1.700000X1.700000*%
G04 #@! TD*
G04 #@! TA.AperFunction,SMDPad,CuDef*
%ADD17RoundRect,0.225000X0.250000X-0.225000X0.250000X0.225000X-0.250000X0.225000X-0.250000X-0.225000X0*%
G04 #@! TD*
G04 #@! TA.AperFunction,SMDPad,CuDef*
%ADD18RoundRect,0.150000X0.150000X-0.725000X0.150000X0.725000X-0.150000X0.725000X-0.150000X-0.725000X0*%
G04 #@! TD*
G04 #@! TA.AperFunction,SMDPad,CuDef*
%ADD19RoundRect,0.200000X0.200000X0.275000X-0.200000X0.275000X-0.200000X-0.275000X0.200000X-0.275000X0*%
G04 #@! TD*
G04 #@! TA.AperFunction,SMDPad,CuDef*
%ADD20RoundRect,0.225000X-0.225000X-0.250000X0.225000X-0.250000X0.225000X0.250000X-0.225000X0.250000X0*%
G04 #@! TD*
G04 #@! TA.AperFunction,SMDPad,CuDef*
%ADD21RoundRect,0.200000X-0.275000X0.200000X-0.275000X-0.200000X0.275000X-0.200000X0.275000X0.200000X0*%
G04 #@! TD*
G04 #@! TA.AperFunction,SMDPad,CuDef*
%ADD22RoundRect,0.250000X1.500000X0.550000X-1.500000X0.550000X-1.500000X-0.550000X1.500000X-0.550000X0*%
G04 #@! TD*
G04 #@! TA.AperFunction,SMDPad,CuDef*
%ADD23RoundRect,0.200000X0.275000X-0.200000X0.275000X0.200000X-0.275000X0.200000X-0.275000X-0.200000X0*%
G04 #@! TD*
G04 #@! TA.AperFunction,SMDPad,CuDef*
%ADD24RoundRect,0.225000X-0.250000X0.225000X-0.250000X-0.225000X0.250000X-0.225000X0.250000X0.225000X0*%
G04 #@! TD*
G04 #@! TA.AperFunction,SMDPad,CuDef*
%ADD25RoundRect,0.225000X0.225000X0.250000X-0.225000X0.250000X-0.225000X-0.250000X0.225000X-0.250000X0*%
G04 #@! TD*
G04 #@! TA.AperFunction,SMDPad,CuDef*
%ADD26RoundRect,0.200000X-0.200000X-0.275000X0.200000X-0.275000X0.200000X0.275000X-0.200000X0.275000X0*%
G04 #@! TD*
G04 #@! TA.AperFunction,SMDPad,CuDef*
%ADD27RoundRect,0.250000X-0.375000X-0.625000X0.375000X-0.625000X0.375000X0.625000X-0.375000X0.625000X0*%
G04 #@! TD*
G04 #@! TA.AperFunction,SMDPad,CuDef*
%ADD28RoundRect,0.250000X0.475000X-0.250000X0.475000X0.250000X-0.475000X0.250000X-0.475000X-0.250000X0*%
G04 #@! TD*
G04 #@! TA.AperFunction,SMDPad,CuDef*
%ADD29RoundRect,0.250000X1.425000X-0.362500X1.425000X0.362500X-1.425000X0.362500X-1.425000X-0.362500X0*%
G04 #@! TD*
G04 #@! TA.AperFunction,SMDPad,CuDef*
%ADD30RoundRect,0.250000X0.600000X-0.400000X0.600000X0.400000X-0.600000X0.400000X-0.600000X-0.400000X0*%
G04 #@! TD*
G04 #@! TA.AperFunction,ComponentPad*
%ADD31O,1.800000X1.800000*%
G04 #@! TD*
G04 #@! TA.AperFunction,ComponentPad*
%ADD32R,1.800000X1.800000*%
G04 #@! TD*
G04 #@! TA.AperFunction,ComponentPad*
%ADD33O,1.600000X5.000000*%
G04 #@! TD*
G04 #@! TA.AperFunction,ComponentPad*
%ADD34O,5.000000X1.600000*%
G04 #@! TD*
G04 #@! TA.AperFunction,WasherPad*
%ADD35C,4.000000*%
G04 #@! TD*
G04 #@! TA.AperFunction,ComponentPad*
%ADD36C,1.800000*%
G04 #@! TD*
G04 #@! TA.AperFunction,ComponentPad*
%ADD37O,3.000000X2.000000*%
G04 #@! TD*
G04 #@! TA.AperFunction,SMDPad,CuDef*
%ADD38RoundRect,0.250000X-1.500000X-0.550000X1.500000X-0.550000X1.500000X0.550000X-1.500000X0.550000X0*%
G04 #@! TD*
G04 #@! TA.AperFunction,ViaPad*
%ADD39C,0.600000*%
G04 #@! TD*
G04 #@! TA.AperFunction,ViaPad*
%ADD40C,1.000000*%
G04 #@! TD*
G04 #@! TA.AperFunction,ViaPad*
%ADD41C,0.800000*%
G04 #@! TD*
G04 #@! TA.AperFunction,Conductor*
%ADD42C,0.400000*%
G04 #@! TD*
G04 #@! TA.AperFunction,Conductor*
%ADD43C,0.250000*%
G04 #@! TD*
G04 #@! TA.AperFunction,Conductor*
%ADD44C,1.000000*%
G04 #@! TD*
G04 APERTURE END LIST*
D10*
G04 #@! TO.P,U8,1*
G04 #@! TO.N,Net-(J12-Pin_1)*
X76050000Y-156437500D03*
G04 #@! TO.P,U8,2,-*
G04 #@! TO.N,Net-(U8A--)*
X75400000Y-156437500D03*
G04 #@! TO.P,U8,3,+*
G04 #@! TO.N,GND*
X74750000Y-156437500D03*
G04 #@! TO.P,U8,4,V+*
G04 #@! TO.N,+12V*
X74100000Y-156437500D03*
G04 #@! TO.P,U8,5,+*
G04 #@! TO.N,GND*
X73450000Y-156437500D03*
G04 #@! TO.P,U8,6,-*
G04 #@! TO.N,Net-(U8B--)*
X72800000Y-156437500D03*
G04 #@! TO.P,U8,7*
G04 #@! TO.N,Net-(J11-Pin_1)*
X72150000Y-156437500D03*
G04 #@! TO.P,U8,8*
G04 #@! TO.N,Net-(C46-Pad2)*
X72150000Y-162162500D03*
G04 #@! TO.P,U8,9,-*
G04 #@! TO.N,Net-(U8C--)*
X72800000Y-162162500D03*
G04 #@! TO.P,U8,10,+*
G04 #@! TO.N,GND*
X73450000Y-162162500D03*
G04 #@! TO.P,U8,11,V-*
G04 #@! TO.N,-10V*
X74100000Y-162162500D03*
G04 #@! TO.P,U8,12,+*
G04 #@! TO.N,GND*
X74750000Y-162162500D03*
G04 #@! TO.P,U8,13,-*
G04 #@! TO.N,Net-(U8D--)*
X75400000Y-162162500D03*
G04 #@! TO.P,U8,14*
G04 #@! TO.N,Net-(C47-Pad2)*
X76050000Y-162162500D03*
G04 #@! TD*
D11*
G04 #@! TO.P,J3,2*
G04 #@! TO.N,Net-(J2-Pad2)*
X102400000Y-137300000D03*
D12*
G04 #@! TO.P,J3,4*
G04 #@! TO.N,unconnected-(J3-Pad4)*
X98900000Y-134100000D03*
G04 #@! TO.P,J3,1*
G04 #@! TO.N,GND*
X105900000Y-134100000D03*
D11*
G04 #@! TO.P,J3,5*
G04 #@! TO.N,Net-(J2-Pad5)*
X102400000Y-129200000D03*
G04 #@! TD*
G04 #@! TO.P,J2,2*
G04 #@! TO.N,Net-(J2-Pad2)*
X90900000Y-137300000D03*
D12*
G04 #@! TO.P,J2,4*
G04 #@! TO.N,unconnected-(J2-Pad4)*
X87400000Y-134100000D03*
G04 #@! TO.P,J2,1*
G04 #@! TO.N,GND*
X94400000Y-134100000D03*
D11*
G04 #@! TO.P,J2,5*
G04 #@! TO.N,Net-(J2-Pad5)*
X90900000Y-129200000D03*
G04 #@! TD*
D13*
G04 #@! TO.P,D4,1,A*
G04 #@! TO.N,-10V*
X77450000Y-137800000D03*
G04 #@! TO.P,D4,2,K*
G04 #@! TO.N,+12V*
X78750000Y-137800000D03*
G04 #@! TO.P,D4,3,C*
G04 #@! TO.N,Net-(D4-C)*
X78100000Y-135800000D03*
G04 #@! TD*
D14*
G04 #@! TO.P,D1,1,K*
G04 #@! TO.N,Net-(D1-K)*
X120950000Y-134700000D03*
G04 #@! TO.P,D1,2,A*
G04 #@! TO.N,GND*
X124950000Y-134700000D03*
G04 #@! TD*
D15*
G04 #@! TO.P,J10,1,Pin_1*
G04 #@! TO.N,Net-(J10-Pin_1)*
X81325000Y-140000000D03*
D16*
G04 #@! TO.P,J10,2,Pin_2*
G04 #@! TO.N,GND*
X81325000Y-142540000D03*
G04 #@! TO.P,J10,3,Pin_3*
G04 #@! TO.N,unconnected-(J10-Pin_3-Pad3)*
X81325000Y-145080000D03*
G04 #@! TO.P,J10,4,Pin_4*
G04 #@! TO.N,+12V*
X81325000Y-147620000D03*
G04 #@! TO.P,J10,5,Pin_5*
G04 #@! TO.N,-10V*
X81325000Y-150160000D03*
G04 #@! TO.P,J10,6,Pin_6*
G04 #@! TO.N,+5V*
X81325000Y-152700000D03*
G04 #@! TD*
D17*
G04 #@! TO.P,C8,1*
G04 #@! TO.N,+12V*
X77700000Y-158575000D03*
G04 #@! TO.P,C8,2*
G04 #@! TO.N,GND*
X77700000Y-157025000D03*
G04 #@! TD*
D18*
G04 #@! TO.P,U5,1*
G04 #@! TO.N,Net-(C39-Pad2)*
X113395000Y-162575000D03*
G04 #@! TO.P,U5,2,-*
G04 #@! TO.N,Net-(U5A--)*
X114665000Y-162575000D03*
G04 #@! TO.P,U5,3,+*
G04 #@! TO.N,GND*
X115935000Y-162575000D03*
G04 #@! TO.P,U5,4,V-*
G04 #@! TO.N,-10V*
X117205000Y-162575000D03*
G04 #@! TO.P,U5,5,+*
G04 #@! TO.N,GND*
X117205000Y-157425000D03*
G04 #@! TO.P,U5,6,-*
G04 #@! TO.N,Net-(U5B--)*
X115935000Y-157425000D03*
G04 #@! TO.P,U5,7*
G04 #@! TO.N,Net-(J4-Pin_1)*
X114665000Y-157425000D03*
G04 #@! TO.P,U5,8,V+*
G04 #@! TO.N,+12V*
X113395000Y-157425000D03*
G04 #@! TD*
D19*
G04 #@! TO.P,R7,1*
G04 #@! TO.N,Net-(J2-Pad5)*
X88025000Y-129000000D03*
G04 #@! TO.P,R7,2*
G04 #@! TO.N,Net-(JP3-A)*
X86375000Y-129000000D03*
G04 #@! TD*
G04 #@! TO.P,R36,1*
G04 #@! TO.N,Net-(U5A--)*
X114825000Y-164600000D03*
G04 #@! TO.P,R36,2*
G04 #@! TO.N,Net-(C39-Pad2)*
X113175000Y-164600000D03*
G04 #@! TD*
G04 #@! TO.P,R68,1*
G04 #@! TO.N,Net-(U7B--)*
X101825000Y-155300000D03*
G04 #@! TO.P,R68,2*
G04 #@! TO.N,Net-(J6-Pin_1)*
X100175000Y-155300000D03*
G04 #@! TD*
D20*
G04 #@! TO.P,C61,1*
G04 #@! TO.N,Net-(C51-Pad1)*
X97025000Y-153700000D03*
G04 #@! TO.P,C61,2*
G04 #@! TO.N,Net-(U7B--)*
X98575000Y-153700000D03*
G04 #@! TD*
G04 #@! TO.P,C51,1*
G04 #@! TO.N,Net-(C51-Pad1)*
X97025000Y-155300000D03*
G04 #@! TO.P,C51,2*
G04 #@! TO.N,Net-(J6-Pin_1)*
X98575000Y-155300000D03*
G04 #@! TD*
D21*
G04 #@! TO.P,R71,1*
G04 #@! TO.N,Net-(U9B--)*
X78800000Y-152975000D03*
G04 #@! TO.P,R71,2*
G04 #@! TO.N,Net-(J9-Pin_1)*
X78800000Y-154625000D03*
G04 #@! TD*
G04 #@! TO.P,R18,1*
G04 #@! TO.N,Net-(R16-Pad1)*
X95700000Y-159775000D03*
G04 #@! TO.P,R18,2*
G04 #@! TO.N,Net-(C31-Pad1)*
X95700000Y-161425000D03*
G04 #@! TD*
D22*
G04 #@! TO.P,C19,1*
G04 #@! TO.N,+5V*
X53300000Y-143400000D03*
G04 #@! TO.P,C19,2*
G04 #@! TO.N,GND*
X47900000Y-143400000D03*
G04 #@! TD*
D23*
G04 #@! TO.P,R4,1*
G04 #@! TO.N,Net-(J2-Pad2)*
X91800000Y-134625000D03*
G04 #@! TO.P,R4,2*
G04 #@! TO.N,Net-(JP1-A)*
X91800000Y-132975000D03*
G04 #@! TD*
D15*
G04 #@! TO.P,J9,1,Pin_1*
G04 #@! TO.N,Net-(J9-Pin_1)*
X87925000Y-140000000D03*
D16*
G04 #@! TO.P,J9,2,Pin_2*
G04 #@! TO.N,GND*
X87925000Y-142540000D03*
G04 #@! TO.P,J9,3,Pin_3*
G04 #@! TO.N,unconnected-(J9-Pin_3-Pad3)*
X87925000Y-145080000D03*
G04 #@! TO.P,J9,4,Pin_4*
G04 #@! TO.N,+12V*
X87925000Y-147620000D03*
G04 #@! TO.P,J9,5,Pin_5*
G04 #@! TO.N,-10V*
X87925000Y-150160000D03*
G04 #@! TO.P,J9,6,Pin_6*
G04 #@! TO.N,+5V*
X87925000Y-152700000D03*
G04 #@! TD*
D15*
G04 #@! TO.P,J7,1,Pin_1*
G04 #@! TO.N,Net-(J7-Pin_1)*
X101125000Y-140000000D03*
D16*
G04 #@! TO.P,J7,2,Pin_2*
G04 #@! TO.N,GND*
X101125000Y-142540000D03*
G04 #@! TO.P,J7,3,Pin_3*
G04 #@! TO.N,unconnected-(J7-Pin_3-Pad3)*
X101125000Y-145080000D03*
G04 #@! TO.P,J7,4,Pin_4*
G04 #@! TO.N,+12V*
X101125000Y-147620000D03*
G04 #@! TO.P,J7,5,Pin_5*
G04 #@! TO.N,-10V*
X101125000Y-150160000D03*
G04 #@! TO.P,J7,6,Pin_6*
G04 #@! TO.N,+5V*
X101125000Y-152700000D03*
G04 #@! TD*
D17*
G04 #@! TO.P,C16,1*
G04 #@! TO.N,GND*
X104500000Y-162175000D03*
G04 #@! TO.P,C16,2*
G04 #@! TO.N,-10V*
X104500000Y-160625000D03*
G04 #@! TD*
D10*
G04 #@! TO.P,U9,1*
G04 #@! TO.N,Net-(C44-Pad2)*
X83250000Y-156437500D03*
G04 #@! TO.P,U9,2,-*
G04 #@! TO.N,Net-(U9A--)*
X82600000Y-156437500D03*
G04 #@! TO.P,U9,3,+*
G04 #@! TO.N,GND*
X81950000Y-156437500D03*
G04 #@! TO.P,U9,4,V+*
G04 #@! TO.N,+12V*
X81300000Y-156437500D03*
G04 #@! TO.P,U9,5,+*
G04 #@! TO.N,GND*
X80650000Y-156437500D03*
G04 #@! TO.P,U9,6,-*
G04 #@! TO.N,Net-(U9B--)*
X80000000Y-156437500D03*
G04 #@! TO.P,U9,7*
G04 #@! TO.N,Net-(J9-Pin_1)*
X79350000Y-156437500D03*
G04 #@! TO.P,U9,8*
G04 #@! TO.N,Net-(C45-Pad2)*
X79350000Y-162162500D03*
G04 #@! TO.P,U9,9,-*
G04 #@! TO.N,Net-(U9C--)*
X80000000Y-162162500D03*
G04 #@! TO.P,U9,10,+*
G04 #@! TO.N,GND*
X80650000Y-162162500D03*
G04 #@! TO.P,U9,11,V-*
G04 #@! TO.N,-10V*
X81300000Y-162162500D03*
G04 #@! TO.P,U9,12,+*
G04 #@! TO.N,GND*
X81950000Y-162162500D03*
G04 #@! TO.P,U9,13,-*
G04 #@! TO.N,Net-(U9D--)*
X82600000Y-162162500D03*
G04 #@! TO.P,U9,14*
G04 #@! TO.N,Net-(J10-Pin_1)*
X83250000Y-162162500D03*
G04 #@! TD*
D20*
G04 #@! TO.P,C31,1*
G04 #@! TO.N,Net-(C31-Pad1)*
X95625000Y-164500000D03*
G04 #@! TO.P,C31,2*
G04 #@! TO.N,Net-(U7A--)*
X97175000Y-164500000D03*
G04 #@! TD*
D24*
G04 #@! TO.P,C56,1*
G04 #@! TO.N,Net-(C56-Pad1)*
X70500000Y-155225000D03*
G04 #@! TO.P,C56,2*
G04 #@! TO.N,Net-(J11-Pin_1)*
X70500000Y-156775000D03*
G04 #@! TD*
D21*
G04 #@! TO.P,R12,1*
G04 #@! TO.N,+5V*
X57300000Y-155275000D03*
G04 #@! TO.P,R12,2*
G04 #@! TO.N,Net-(U3-FB)*
X57300000Y-156925000D03*
G04 #@! TD*
D17*
G04 #@! TO.P,C20,1*
G04 #@! TO.N,+12V*
X104500000Y-158875000D03*
G04 #@! TO.P,C20,2*
G04 #@! TO.N,GND*
X104500000Y-157325000D03*
G04 #@! TD*
D23*
G04 #@! TO.P,R6,1*
G04 #@! TO.N,Net-(J2-Pad2)*
X90200000Y-134625000D03*
G04 #@! TO.P,R6,2*
G04 #@! TO.N,Net-(JP3-A)*
X90200000Y-132975000D03*
G04 #@! TD*
D25*
G04 #@! TO.P,C15,1*
G04 #@! TO.N,+12V*
X97275000Y-157300000D03*
G04 #@! TO.P,C15,2*
G04 #@! TO.N,GND*
X95725000Y-157300000D03*
G04 #@! TD*
D19*
G04 #@! TO.P,R14,1*
G04 #@! TO.N,Net-(D4-C)*
X70025000Y-133200000D03*
G04 #@! TO.P,R14,2*
G04 #@! TO.N,Net-(R14-Pad2)*
X68375000Y-133200000D03*
G04 #@! TD*
D24*
G04 #@! TO.P,C6,1*
G04 #@! TO.N,+12V*
X70500000Y-158525000D03*
G04 #@! TO.P,C6,2*
G04 #@! TO.N,GND*
X70500000Y-160075000D03*
G04 #@! TD*
D26*
G04 #@! TO.P,R40,1*
G04 #@! TO.N,Net-(U10D--)*
X90075000Y-164000000D03*
G04 #@! TO.P,R40,2*
G04 #@! TO.N,Net-(C43-Pad2)*
X91725000Y-164000000D03*
G04 #@! TD*
D10*
G04 #@! TO.P,U10,1*
G04 #@! TO.N,Net-(C42-Pad2)*
X90450000Y-156437500D03*
G04 #@! TO.P,U10,2,-*
G04 #@! TO.N,Net-(U10A--)*
X89800000Y-156437500D03*
G04 #@! TO.P,U10,3,+*
G04 #@! TO.N,GND*
X89150000Y-156437500D03*
G04 #@! TO.P,U10,4,V+*
G04 #@! TO.N,+12V*
X88500000Y-156437500D03*
G04 #@! TO.P,U10,5,+*
G04 #@! TO.N,GND*
X87850000Y-156437500D03*
G04 #@! TO.P,U10,6,-*
G04 #@! TO.N,Net-(U10B--)*
X87200000Y-156437500D03*
G04 #@! TO.P,U10,7*
G04 #@! TO.N,Net-(J7-Pin_1)*
X86550000Y-156437500D03*
G04 #@! TO.P,U10,8*
G04 #@! TO.N,Net-(J8-Pin_1)*
X86550000Y-162162500D03*
G04 #@! TO.P,U10,9,-*
G04 #@! TO.N,Net-(U10C--)*
X87200000Y-162162500D03*
G04 #@! TO.P,U10,10,+*
G04 #@! TO.N,GND*
X87850000Y-162162500D03*
G04 #@! TO.P,U10,11,V-*
G04 #@! TO.N,-10V*
X88500000Y-162162500D03*
G04 #@! TO.P,U10,12,+*
G04 #@! TO.N,GND*
X89150000Y-162162500D03*
G04 #@! TO.P,U10,13,-*
G04 #@! TO.N,Net-(U10D--)*
X89800000Y-162162500D03*
G04 #@! TO.P,U10,14*
G04 #@! TO.N,Net-(C43-Pad2)*
X90450000Y-162162500D03*
G04 #@! TD*
D15*
G04 #@! TO.P,J12,1,Pin_1*
G04 #@! TO.N,Net-(J12-Pin_1)*
X68125000Y-140000000D03*
D16*
G04 #@! TO.P,J12,2,Pin_2*
G04 #@! TO.N,GND*
X68125000Y-142540000D03*
G04 #@! TO.P,J12,3,Pin_3*
G04 #@! TO.N,unconnected-(J12-Pin_3-Pad3)*
X68125000Y-145080000D03*
G04 #@! TO.P,J12,4,Pin_4*
G04 #@! TO.N,+12V*
X68125000Y-147620000D03*
G04 #@! TO.P,J12,5,Pin_5*
G04 #@! TO.N,-10V*
X68125000Y-150160000D03*
G04 #@! TO.P,J12,6,Pin_6*
G04 #@! TO.N,+5V*
X68125000Y-152700000D03*
G04 #@! TD*
D21*
G04 #@! TO.P,R11,2*
G04 #@! TO.N,GND*
X125200000Y-163125000D03*
G04 #@! TO.P,R11,1*
G04 #@! TO.N,Net-(U2-Vfb)*
X125200000Y-161475000D03*
G04 #@! TD*
D19*
G04 #@! TO.P,R67,1*
G04 #@! TO.N,Net-(U6B--)*
X108925000Y-155400000D03*
G04 #@! TO.P,R67,2*
G04 #@! TO.N,Net-(J5-Pin_1)*
X107275000Y-155400000D03*
G04 #@! TD*
D15*
G04 #@! TO.P,J13,1,Pin_1*
G04 #@! TO.N,Net-(J13-Pin_1)*
X61525000Y-140000000D03*
D16*
G04 #@! TO.P,J13,2,Pin_2*
G04 #@! TO.N,GND*
X61525000Y-142540000D03*
G04 #@! TO.P,J13,3,Pin_3*
G04 #@! TO.N,unconnected-(J13-Pin_3-Pad3)*
X61525000Y-145080000D03*
G04 #@! TO.P,J13,4,Pin_4*
G04 #@! TO.N,+12V*
X61525000Y-147620000D03*
G04 #@! TO.P,J13,5,Pin_5*
G04 #@! TO.N,-10V*
X61525000Y-150160000D03*
G04 #@! TO.P,J13,6,Pin_6*
G04 #@! TO.N,+5V*
X61525000Y-152700000D03*
G04 #@! TD*
D19*
G04 #@! TO.P,R38,1*
G04 #@! TO.N,Net-(U7A--)*
X100425000Y-164500000D03*
G04 #@! TO.P,R38,2*
G04 #@! TO.N,Net-(C41-Pad2)*
X98775000Y-164500000D03*
G04 #@! TD*
D21*
G04 #@! TO.P,R69,1*
G04 #@! TO.N,Net-(U10B--)*
X85400000Y-153075000D03*
G04 #@! TO.P,R69,2*
G04 #@! TO.N,Net-(J7-Pin_1)*
X85400000Y-154725000D03*
G04 #@! TD*
D19*
G04 #@! TO.P,R66,1*
G04 #@! TO.N,Net-(U5B--)*
X116025000Y-155400000D03*
G04 #@! TO.P,R66,2*
G04 #@! TO.N,Net-(J4-Pin_1)*
X114375000Y-155400000D03*
G04 #@! TD*
D15*
G04 #@! TO.P,J6,1,Pin_1*
G04 #@! TO.N,Net-(J6-Pin_1)*
X107725000Y-140000000D03*
D16*
G04 #@! TO.P,J6,2,Pin_2*
G04 #@! TO.N,GND*
X107725000Y-142540000D03*
G04 #@! TO.P,J6,3,Pin_3*
G04 #@! TO.N,unconnected-(J6-Pin_3-Pad3)*
X107725000Y-145080000D03*
G04 #@! TO.P,J6,4,Pin_4*
G04 #@! TO.N,+12V*
X107725000Y-147620000D03*
G04 #@! TO.P,J6,5,Pin_5*
G04 #@! TO.N,-10V*
X107725000Y-150160000D03*
G04 #@! TO.P,J6,6,Pin_6*
G04 #@! TO.N,+5V*
X107725000Y-152700000D03*
G04 #@! TD*
D15*
G04 #@! TO.P,J11,1,Pin_1*
G04 #@! TO.N,Net-(J11-Pin_1)*
X74725000Y-140000000D03*
D16*
G04 #@! TO.P,J11,2,Pin_2*
G04 #@! TO.N,GND*
X74725000Y-142540000D03*
G04 #@! TO.P,J11,3,Pin_3*
G04 #@! TO.N,unconnected-(J11-Pin_3-Pad3)*
X74725000Y-145080000D03*
G04 #@! TO.P,J11,4,Pin_4*
G04 #@! TO.N,+12V*
X74725000Y-147620000D03*
G04 #@! TO.P,J11,5,Pin_5*
G04 #@! TO.N,-10V*
X74725000Y-150160000D03*
G04 #@! TO.P,J11,6,Pin_6*
G04 #@! TO.N,+5V*
X74725000Y-152700000D03*
G04 #@! TD*
D27*
G04 #@! TO.P,F1,2*
G04 #@! TO.N,Net-(D1-K)*
X113300000Y-127750000D03*
G04 #@! TO.P,F1,1*
G04 #@! TO.N,Net-(SW1-A)*
X110500000Y-127750000D03*
G04 #@! TD*
D28*
G04 #@! TO.P,C68,1*
G04 #@! TO.N,Net-(C58-Pad1)*
X52300000Y-137950000D03*
G04 #@! TO.P,C68,2*
G04 #@! TO.N,Net-(U4C--)*
X52300000Y-136050000D03*
G04 #@! TD*
D22*
G04 #@! TO.P,C17,1*
G04 #@! TO.N,GND*
X134300000Y-153300000D03*
G04 #@! TO.P,C17,2*
G04 #@! TO.N,-10V*
X128900000Y-153300000D03*
G04 #@! TD*
D17*
G04 #@! TO.P,C13,1*
G04 #@! TO.N,GND*
X77700000Y-161875000D03*
G04 #@! TO.P,C13,2*
G04 #@! TO.N,-10V*
X77700000Y-160325000D03*
G04 #@! TD*
D19*
G04 #@! TO.P,R37,1*
G04 #@! TO.N,Net-(U6A--)*
X107625000Y-164600000D03*
G04 #@! TO.P,R37,2*
G04 #@! TO.N,Net-(C40-Pad2)*
X105975000Y-164600000D03*
G04 #@! TD*
D26*
G04 #@! TO.P,R75,1*
G04 #@! TO.N,Net-(U4C--)*
X52475000Y-134143630D03*
G04 #@! TO.P,R75,2*
G04 #@! TO.N,Net-(J13-Pin_1)*
X54125000Y-134143630D03*
G04 #@! TD*
D21*
G04 #@! TO.P,R8,2*
G04 #@! TO.N,Net-(U2-Vfb)*
X125200000Y-160150000D03*
G04 #@! TO.P,R8,1*
G04 #@! TO.N,-10V*
X125200000Y-158500000D03*
G04 #@! TD*
D20*
G04 #@! TO.P,C46,1*
G04 #@! TO.N,Net-(C36-Pad1)*
X68825000Y-163400000D03*
G04 #@! TO.P,C46,2*
G04 #@! TO.N,Net-(C46-Pad2)*
X70375000Y-163400000D03*
G04 #@! TD*
D19*
G04 #@! TO.P,R5,1*
G04 #@! TO.N,Net-(J2-Pad5)*
X88025000Y-130600000D03*
G04 #@! TO.P,R5,2*
G04 #@! TO.N,Net-(JP2-A)*
X86375000Y-130600000D03*
G04 #@! TD*
D23*
G04 #@! TO.P,R48,1*
G04 #@! TO.N,Net-(C41-Pad2)*
X97300000Y-161425000D03*
G04 #@! TO.P,R48,2*
G04 #@! TO.N,Net-(C51-Pad1)*
X97300000Y-159775000D03*
G04 #@! TD*
D15*
G04 #@! TO.P,J5,1,Pin_1*
G04 #@! TO.N,Net-(J5-Pin_1)*
X114325000Y-140000000D03*
D16*
G04 #@! TO.P,J5,2,Pin_2*
G04 #@! TO.N,GND*
X114325000Y-142540000D03*
G04 #@! TO.P,J5,3,Pin_3*
G04 #@! TO.N,unconnected-(J5-Pin_3-Pad3)*
X114325000Y-145080000D03*
G04 #@! TO.P,J5,4,Pin_4*
G04 #@! TO.N,+12V*
X114325000Y-147620000D03*
G04 #@! TO.P,J5,5,Pin_5*
G04 #@! TO.N,-10V*
X114325000Y-150160000D03*
G04 #@! TO.P,J5,6,Pin_6*
G04 #@! TO.N,+5V*
X114325000Y-152700000D03*
G04 #@! TD*
D17*
G04 #@! TO.P,C7,1*
G04 #@! TO.N,GND*
X118900000Y-164275000D03*
G04 #@! TO.P,C7,2*
G04 #@! TO.N,-10V*
X118900000Y-162725000D03*
G04 #@! TD*
D18*
G04 #@! TO.P,U6,1*
G04 #@! TO.N,Net-(C40-Pad2)*
X106195000Y-162575000D03*
G04 #@! TO.P,U6,2,-*
G04 #@! TO.N,Net-(U6A--)*
X107465000Y-162575000D03*
G04 #@! TO.P,U6,3,+*
G04 #@! TO.N,GND*
X108735000Y-162575000D03*
G04 #@! TO.P,U6,4,V-*
G04 #@! TO.N,-10V*
X110005000Y-162575000D03*
G04 #@! TO.P,U6,5,+*
G04 #@! TO.N,GND*
X110005000Y-157425000D03*
G04 #@! TO.P,U6,6,-*
G04 #@! TO.N,Net-(U6B--)*
X108735000Y-157425000D03*
G04 #@! TO.P,U6,7*
G04 #@! TO.N,Net-(J5-Pin_1)*
X107465000Y-157425000D03*
G04 #@! TO.P,U6,8,V+*
G04 #@! TO.N,+12V*
X106195000Y-157425000D03*
G04 #@! TD*
D26*
G04 #@! TO.P,R44,1*
G04 #@! TO.N,Net-(U8D--)*
X74975000Y-164200000D03*
G04 #@! TO.P,R44,2*
G04 #@! TO.N,Net-(C47-Pad2)*
X76625000Y-164200000D03*
G04 #@! TD*
D22*
G04 #@! TO.P,C26,1*
G04 #@! TO.N,+5V*
X53300000Y-151000000D03*
G04 #@! TO.P,C26,2*
G04 #@! TO.N,GND*
X47900000Y-151000000D03*
G04 #@! TD*
D21*
G04 #@! TO.P,R74,1*
G04 #@! TO.N,Net-(U8A--)*
X77200000Y-152975000D03*
G04 #@! TO.P,R74,2*
G04 #@! TO.N,Net-(J12-Pin_1)*
X77200000Y-154625000D03*
G04 #@! TD*
G04 #@! TO.P,R73,1*
G04 #@! TO.N,Net-(U8B--)*
X72100000Y-153075000D03*
G04 #@! TO.P,R73,2*
G04 #@! TO.N,Net-(J11-Pin_1)*
X72100000Y-154725000D03*
G04 #@! TD*
D29*
G04 #@! TO.P,R3,1*
G04 #@! TO.N,Net-(U2-DC)*
X122000000Y-163062500D03*
G04 #@! TO.P,R3,2*
G04 #@! TO.N,+12V*
X122000000Y-157137500D03*
G04 #@! TD*
D17*
G04 #@! TO.P,C66,1*
G04 #@! TO.N,Net-(C56-Pad1)*
X70500000Y-153475000D03*
G04 #@! TO.P,C66,2*
G04 #@! TO.N,Net-(U8B--)*
X70500000Y-151925000D03*
G04 #@! TD*
D20*
G04 #@! TO.P,C36,1*
G04 #@! TO.N,Net-(C36-Pad1)*
X68825000Y-161800000D03*
G04 #@! TO.P,C36,2*
G04 #@! TO.N,Net-(U8C--)*
X70375000Y-161800000D03*
G04 #@! TD*
D15*
G04 #@! TO.P,J8,1,Pin_1*
G04 #@! TO.N,Net-(J8-Pin_1)*
X94525000Y-140000000D03*
D16*
G04 #@! TO.P,J8,2,Pin_2*
G04 #@! TO.N,GND*
X94525000Y-142540000D03*
G04 #@! TO.P,J8,3,Pin_3*
G04 #@! TO.N,unconnected-(J8-Pin_3-Pad3)*
X94525000Y-145080000D03*
G04 #@! TO.P,J8,4,Pin_4*
G04 #@! TO.N,+12V*
X94525000Y-147620000D03*
G04 #@! TO.P,J8,5,Pin_5*
G04 #@! TO.N,-10V*
X94525000Y-150160000D03*
G04 #@! TO.P,J8,6,Pin_6*
G04 #@! TO.N,+5V*
X94525000Y-152700000D03*
G04 #@! TD*
D18*
G04 #@! TO.P,U7,1*
G04 #@! TO.N,Net-(C41-Pad2)*
X98995000Y-162475000D03*
G04 #@! TO.P,U7,2,-*
G04 #@! TO.N,Net-(U7A--)*
X100265000Y-162475000D03*
G04 #@! TO.P,U7,3,+*
G04 #@! TO.N,GND*
X101535000Y-162475000D03*
G04 #@! TO.P,U7,4,V-*
G04 #@! TO.N,-10V*
X102805000Y-162475000D03*
G04 #@! TO.P,U7,5,+*
G04 #@! TO.N,GND*
X102805000Y-157325000D03*
G04 #@! TO.P,U7,6,-*
G04 #@! TO.N,Net-(U7B--)*
X101535000Y-157325000D03*
G04 #@! TO.P,U7,7*
G04 #@! TO.N,Net-(J6-Pin_1)*
X100265000Y-157325000D03*
G04 #@! TO.P,U7,8,V+*
G04 #@! TO.N,+12V*
X98995000Y-157325000D03*
G04 #@! TD*
D15*
G04 #@! TO.P,J4,1,Pin_1*
G04 #@! TO.N,Net-(J4-Pin_1)*
X120925000Y-140000000D03*
D16*
G04 #@! TO.P,J4,2,Pin_2*
G04 #@! TO.N,GND*
X120925000Y-142540000D03*
G04 #@! TO.P,J4,3,Pin_3*
G04 #@! TO.N,unconnected-(J4-Pin_3-Pad3)*
X120925000Y-145080000D03*
G04 #@! TO.P,J4,4,Pin_4*
G04 #@! TO.N,+12V*
X120925000Y-147620000D03*
G04 #@! TO.P,J4,5,Pin_5*
G04 #@! TO.N,-10V*
X120925000Y-150160000D03*
G04 #@! TO.P,J4,6,Pin_6*
G04 #@! TO.N,+5V*
X120925000Y-152700000D03*
G04 #@! TD*
D21*
G04 #@! TO.P,R28,1*
G04 #@! TO.N,GND*
X94100000Y-159775000D03*
G04 #@! TO.P,R28,2*
G04 #@! TO.N,Net-(C31-Pad1)*
X94100000Y-161425000D03*
G04 #@! TD*
G04 #@! TO.P,R58,1*
G04 #@! TO.N,GND*
X97200000Y-150575000D03*
G04 #@! TO.P,R58,2*
G04 #@! TO.N,Net-(C51-Pad1)*
X97200000Y-152225000D03*
G04 #@! TD*
D17*
G04 #@! TO.P,C10,1*
G04 #@! TO.N,+12V*
X84900000Y-158475000D03*
G04 #@! TO.P,C10,2*
G04 #@! TO.N,GND*
X84900000Y-156925000D03*
G04 #@! TD*
D30*
G04 #@! TO.P,D5,1,K*
G04 #@! TO.N,Net-(D5-K)*
X125400000Y-156250000D03*
G04 #@! TO.P,D5,2,A*
G04 #@! TO.N,-10V*
X125400000Y-152750000D03*
G04 #@! TD*
D17*
G04 #@! TO.P,C11,1*
G04 #@! TO.N,GND*
X92100000Y-161675000D03*
G04 #@! TO.P,C11,2*
G04 #@! TO.N,-10V*
X92100000Y-160125000D03*
G04 #@! TD*
D21*
G04 #@! TO.P,R39,1*
G04 #@! TO.N,Net-(U10A--)*
X90400000Y-153075000D03*
G04 #@! TO.P,R39,2*
G04 #@! TO.N,Net-(C42-Pad2)*
X90400000Y-154725000D03*
G04 #@! TD*
D31*
G04 #@! TO.P,U3,5,~{ON}/OFF*
G04 #@! TO.N,GND*
X47100000Y-157350000D03*
G04 #@! TO.P,U3,4,FB*
G04 #@! TO.N,Net-(U3-FB)*
X48800000Y-161050000D03*
G04 #@! TO.P,U3,3,GND*
G04 #@! TO.N,GND*
X50500000Y-157350000D03*
G04 #@! TO.P,U3,2,OUT*
G04 #@! TO.N,Net-(D2-K)*
X52200000Y-161050000D03*
D32*
G04 #@! TO.P,U3,1,VIN*
G04 #@! TO.N,+12V*
X53900000Y-157350000D03*
G04 #@! TD*
D17*
G04 #@! TO.P,C12,1*
G04 #@! TO.N,+12V*
X111700000Y-158875000D03*
G04 #@! TO.P,C12,2*
G04 #@! TO.N,GND*
X111700000Y-157325000D03*
G04 #@! TD*
D19*
G04 #@! TO.P,R42,1*
G04 #@! TO.N,Net-(U9C--)*
X79625000Y-164000000D03*
G04 #@! TO.P,R42,2*
G04 #@! TO.N,Net-(C45-Pad2)*
X77975000Y-164000000D03*
G04 #@! TD*
D17*
G04 #@! TO.P,C9,1*
G04 #@! TO.N,GND*
X84900000Y-161775000D03*
G04 #@! TO.P,C9,2*
G04 #@! TO.N,-10V*
X84900000Y-160225000D03*
G04 #@! TD*
D22*
G04 #@! TO.P,C22,1*
G04 #@! TO.N,GND*
X134300000Y-146100000D03*
G04 #@! TO.P,C22,2*
G04 #@! TO.N,-10V*
X128900000Y-146100000D03*
G04 #@! TD*
D19*
G04 #@! TO.P,R70,1*
G04 #@! TO.N,Net-(U10C--)*
X87325000Y-164000000D03*
G04 #@! TO.P,R70,2*
G04 #@! TO.N,Net-(J8-Pin_1)*
X85675000Y-164000000D03*
G04 #@! TD*
D26*
G04 #@! TO.P,R33,1*
G04 #@! TO.N,GND*
X65575000Y-163400000D03*
G04 #@! TO.P,R33,2*
G04 #@! TO.N,Net-(C36-Pad1)*
X67225000Y-163400000D03*
G04 #@! TD*
D17*
G04 #@! TO.P,C21,1*
G04 #@! TO.N,GND*
X111700000Y-162175000D03*
G04 #@! TO.P,C21,2*
G04 #@! TO.N,-10V*
X111700000Y-160625000D03*
G04 #@! TD*
D26*
G04 #@! TO.P,R72,1*
G04 #@! TO.N,Net-(U9D--)*
X81775000Y-164200000D03*
G04 #@! TO.P,R72,2*
G04 #@! TO.N,Net-(J10-Pin_1)*
X83425000Y-164200000D03*
G04 #@! TD*
D28*
G04 #@! TO.P,C58,1*
G04 #@! TO.N,Net-(C58-Pad1)*
X54300000Y-137950000D03*
G04 #@! TO.P,C58,2*
G04 #@! TO.N,Net-(J13-Pin_1)*
X54300000Y-136050000D03*
G04 #@! TD*
D20*
G04 #@! TO.P,C41,1*
G04 #@! TO.N,Net-(C31-Pad1)*
X95625000Y-162900000D03*
G04 #@! TO.P,C41,2*
G04 #@! TO.N,Net-(C41-Pad2)*
X97175000Y-162900000D03*
G04 #@! TD*
D21*
G04 #@! TO.P,R41,1*
G04 #@! TO.N,Net-(U9A--)*
X83800000Y-153075000D03*
G04 #@! TO.P,R41,2*
G04 #@! TO.N,Net-(C44-Pad2)*
X83800000Y-154725000D03*
G04 #@! TD*
D19*
G04 #@! TO.P,R43,1*
G04 #@! TO.N,Net-(U8C--)*
X73625000Y-164200000D03*
G04 #@! TO.P,R43,2*
G04 #@! TO.N,Net-(C46-Pad2)*
X71975000Y-164200000D03*
G04 #@! TD*
D21*
G04 #@! TO.P,R13,1*
G04 #@! TO.N,Net-(U3-FB)*
X57300000Y-158675000D03*
G04 #@! TO.P,R13,2*
G04 #@! TO.N,GND*
X57300000Y-160325000D03*
G04 #@! TD*
D33*
G04 #@! TO.P,J1,1*
G04 #@! TO.N,Net-(SW1-B)*
X117500000Y-133650000D03*
D34*
G04 #@! TO.P,J1,2*
G04 #@! TO.N,GND*
X119800000Y-128350000D03*
G04 #@! TO.P,J1,3*
G04 #@! TO.N,unconnected-(J1-Pad3)*
X123500000Y-130850000D03*
G04 #@! TD*
D35*
G04 #@! TO.P,RV1,*
G04 #@! TO.N,*
X71300000Y-128700000D03*
X71300000Y-137500000D03*
D36*
G04 #@! TO.P,RV1,1,1*
G04 #@! TO.N,Net-(R16-Pad1)*
X64300000Y-130600000D03*
G04 #@! TO.P,RV1,2,2*
X64300000Y-133100000D03*
G04 #@! TO.P,RV1,3,3*
G04 #@! TO.N,Net-(R14-Pad2)*
X64300000Y-135600000D03*
G04 #@! TD*
D15*
G04 #@! TO.P,JP3,1,A*
G04 #@! TO.N,Net-(JP3-A)*
X83475000Y-132960000D03*
D16*
G04 #@! TO.P,JP3,2,B*
G04 #@! TO.N,Net-(D4-C)*
X80935000Y-132960000D03*
G04 #@! TD*
D23*
G04 #@! TO.P,R15,1*
G04 #@! TO.N,Net-(U4B-+)*
X60500000Y-135325000D03*
G04 #@! TO.P,R15,2*
G04 #@! TO.N,GND*
X60500000Y-133675000D03*
G04 #@! TD*
D37*
G04 #@! TO.P,SW1,1,A*
G04 #@! TO.N,Net-(SW1-A)*
X111800000Y-130660000D03*
G04 #@! TO.P,SW1,2,B*
G04 #@! TO.N,Net-(SW1-B)*
X111800000Y-133200000D03*
G04 #@! TO.P,SW1,3,C*
G04 #@! TO.N,unconnected-(SW1-C-Pad3)*
X111800000Y-135740000D03*
G04 #@! TD*
D38*
G04 #@! TO.P,C2,1*
G04 #@! TO.N,+12V*
X129000000Y-138900000D03*
G04 #@! TO.P,C2,2*
G04 #@! TO.N,GND*
X134400000Y-138900000D03*
G04 #@! TD*
D15*
G04 #@! TO.P,JP2,1,A*
G04 #@! TO.N,Net-(JP2-A)*
X83475000Y-135500000D03*
D16*
G04 #@! TO.P,JP2,2,B*
G04 #@! TO.N,Net-(D4-C)*
X80935000Y-135500000D03*
G04 #@! TD*
D15*
G04 #@! TO.P,JP1,1,A*
G04 #@! TO.N,Net-(JP1-A)*
X83475000Y-130420000D03*
D16*
G04 #@! TO.P,JP1,2,B*
G04 #@! TO.N,Net-(D4-C)*
X80935000Y-130420000D03*
G04 #@! TD*
D39*
G04 #@! TO.N,Net-(J12-Pin_1)*
X76074463Y-154450000D03*
D40*
G04 #@! TO.N,+12V*
X126100000Y-141300000D03*
X126100000Y-140100000D03*
G04 #@! TO.N,Net-(D1-K)*
X124500000Y-137400000D03*
X123300000Y-137400000D03*
G04 #@! TO.N,GND*
X127500000Y-135350096D03*
X127500000Y-133900000D03*
X133400000Y-140700000D03*
D41*
X53400000Y-165100000D03*
X44900000Y-165100000D03*
X44900000Y-155800000D03*
X55700000Y-157100000D03*
X59100000Y-156200000D03*
X60800000Y-158000000D03*
X62300000Y-156200000D03*
D40*
X135400000Y-140700000D03*
X135400000Y-155100000D03*
X133400000Y-155100000D03*
X135400000Y-151500000D03*
X133400000Y-151500000D03*
X135400000Y-148000000D03*
X133400000Y-148000000D03*
X133400000Y-144725000D03*
X135400000Y-144200000D03*
X127700000Y-143125000D03*
X129700000Y-143125000D03*
X131700000Y-143125000D03*
X133400000Y-136900000D03*
X135400000Y-136900000D03*
G04 #@! TO.N,-10V*
X131400000Y-151600000D03*
X126100000Y-146900000D03*
X126100000Y-145200000D03*
D39*
X123000000Y-160804000D03*
D41*
X126700000Y-157900000D03*
G04 #@! TO.N,Net-(D5-K)*
X123300000Y-155500000D03*
X124000000Y-154800000D03*
G04 #@! TO.N,Net-(U2-Vfb)*
X126500000Y-162600000D03*
G04 #@! TO.N,GND*
X126300000Y-164200000D03*
G04 #@! TO.N,+12V*
X123800000Y-161700000D03*
G04 #@! TO.N,Net-(U2-DC)*
X122365570Y-161645677D03*
X121400000Y-161600000D03*
G04 #@! TO.N,GND*
X46600000Y-141600000D03*
X46600000Y-152800000D03*
X47900000Y-152800000D03*
X46600000Y-149300000D03*
X47900000Y-149300000D03*
X49200000Y-145100000D03*
X47900000Y-145100000D03*
X46600000Y-145100000D03*
G04 #@! TO.N,+5V*
X56400000Y-150700000D03*
X56391002Y-151708998D03*
X48300000Y-140700000D03*
X56200000Y-142900000D03*
X55900000Y-140800000D03*
X54700000Y-148000000D03*
X53400000Y-148000000D03*
X52000000Y-148000000D03*
X54700000Y-145300000D03*
X53400000Y-145300000D03*
X52000000Y-145300000D03*
G04 #@! TO.N,GND*
X65200000Y-161700000D03*
X65200000Y-165200000D03*
X61600000Y-159400000D03*
X61600000Y-163600000D03*
X58900000Y-160400000D03*
X64400000Y-163400000D03*
G04 #@! TO.N,+12V*
X78800000Y-139200000D03*
G04 #@! TO.N,-10V*
X57799996Y-134900000D03*
G04 #@! TO.N,GND*
X48500000Y-136200000D03*
G04 #@! TO.N,+12V*
X62800000Y-136500000D03*
G04 #@! TO.N,GND*
X62250837Y-134849163D03*
G04 #@! TO.N,Net-(U4B-+)*
X59100000Y-135700000D03*
G04 #@! TO.N,Net-(C58-Pad1)*
X50700000Y-137600000D03*
G04 #@! TO.N,Net-(J13-Pin_1)*
X56300000Y-138100000D03*
G04 #@! TO.N,Net-(U4C--)*
X56600000Y-137000000D03*
G04 #@! TO.N,GND*
X56300000Y-135800000D03*
X60300000Y-130100000D03*
X58700000Y-132700000D03*
X56300000Y-134000000D03*
G04 #@! TO.N,Net-(D4-C)*
X62433190Y-133811055D03*
G04 #@! TO.N,Net-(JP1-A)*
X91800000Y-131600000D03*
G04 #@! TO.N,Net-(JP3-A)*
X90200000Y-131550000D03*
D40*
G04 #@! TO.N,GND*
X90300000Y-146400000D03*
D39*
X84600000Y-165100000D03*
D40*
X103700000Y-154900000D03*
X93249925Y-159688253D03*
X119371170Y-158417170D03*
X94500000Y-156500000D03*
X69619987Y-149324000D03*
D39*
X88172913Y-154154758D03*
D40*
X111200000Y-154800000D03*
X116700000Y-164400000D03*
X80799707Y-165022180D03*
X88724500Y-164100000D03*
X72156427Y-160075000D03*
X101800000Y-164300000D03*
X76300000Y-159950500D03*
X70000000Y-165100000D03*
X109200000Y-164700000D03*
D39*
X76916380Y-156361526D03*
D40*
X93900000Y-163300000D03*
X77100000Y-151500000D03*
X79253971Y-147345987D03*
X85000000Y-147700000D03*
D39*
X84205200Y-157678114D03*
X80700000Y-153975500D03*
D40*
X97100000Y-148900000D03*
D39*
X73700000Y-153700000D03*
D40*
G04 #@! TO.N,+12V*
X92700000Y-157300000D03*
X97928772Y-158743198D03*
D39*
G04 #@! TO.N,Net-(U5A--)*
X114602815Y-161324500D03*
G04 #@! TO.N,Net-(U6A--)*
X107544412Y-161324500D03*
G04 #@! TO.N,Net-(U10A--)*
X89700000Y-157500000D03*
G04 #@! TO.N,Net-(U10D--)*
X89700000Y-159900000D03*
G04 #@! TO.N,Net-(U9A--)*
X82500000Y-157500000D03*
G04 #@! TO.N,Net-(U9C--)*
X80200000Y-160000000D03*
G04 #@! TO.N,Net-(C36-Pad1)*
X68000000Y-164600000D03*
G04 #@! TO.N,Net-(U8D--)*
X74400000Y-160200000D03*
G04 #@! TO.N,Net-(C39-Pad2)*
X113402815Y-161324500D03*
G04 #@! TO.N,Net-(C40-Pad2)*
X106344412Y-161324500D03*
G04 #@! TO.N,Net-(C42-Pad2)*
X86700000Y-151600000D03*
X90701489Y-157600000D03*
G04 #@! TO.N,Net-(C43-Pad2)*
X90600000Y-159900000D03*
D41*
X91700000Y-165200000D03*
D39*
G04 #@! TO.N,Net-(C44-Pad2)*
X83430040Y-157482330D03*
X82837720Y-153905004D03*
G04 #@! TO.N,Net-(C45-Pad2)*
X78766849Y-163488066D03*
X79200000Y-160000000D03*
G04 #@! TO.N,Net-(C46-Pad2)*
X69679000Y-156000000D03*
G04 #@! TO.N,Net-(C47-Pad2)*
X75200000Y-160200000D03*
G04 #@! TO.N,Net-(J4-Pin_1)*
X114400000Y-158800000D03*
G04 #@! TO.N,Net-(J5-Pin_1)*
X107500004Y-158800000D03*
G04 #@! TO.N,Net-(J7-Pin_1)*
X86000000Y-157400000D03*
G04 #@! TO.N,Net-(J8-Pin_1)*
X86800000Y-159900000D03*
G04 #@! TO.N,Net-(J9-Pin_1)*
X79300000Y-157500000D03*
X83300000Y-143800000D03*
G04 #@! TO.N,Net-(J10-Pin_1)*
X84900000Y-155700000D03*
X82925855Y-147390538D03*
X83000000Y-159900000D03*
G04 #@! TO.N,Net-(C56-Pad1)*
X69100000Y-154700000D03*
G04 #@! TO.N,Net-(J11-Pin_1)*
X72077915Y-149093767D03*
X72200000Y-157700000D03*
G04 #@! TO.N,Net-(J12-Pin_1)*
X76200000Y-152700000D03*
G04 #@! TO.N,Net-(U5B--)*
X115900000Y-158800000D03*
G04 #@! TO.N,Net-(U6B--)*
X108700000Y-158800000D03*
G04 #@! TO.N,Net-(U10B--)*
X87200000Y-157500000D03*
G04 #@! TO.N,Net-(U10C--)*
X87600000Y-160000000D03*
G04 #@! TO.N,Net-(U9B--)*
X80200000Y-157600000D03*
G04 #@! TO.N,Net-(U9D--)*
X82100000Y-160000000D03*
G04 #@! TO.N,Net-(U8A--)*
X74893776Y-158201488D03*
G04 #@! TO.N,Net-(R16-Pad1)*
X93500000Y-158690631D03*
X89161395Y-150846202D03*
G04 #@! TD*
D42*
G04 #@! TO.N,GND*
X77036526Y-156361526D02*
X77700000Y-157025000D01*
X76916380Y-156361526D02*
X77036526Y-156361526D01*
D43*
G04 #@! TO.N,Net-(R16-Pad1)*
X94615631Y-158690631D02*
X93500000Y-158690631D01*
X95700000Y-159775000D02*
X94615631Y-158690631D01*
X93524501Y-154347014D02*
X93524501Y-158666130D01*
X93524501Y-158666130D02*
X93500000Y-158690631D01*
X89161395Y-150846202D02*
X90023689Y-150846202D01*
X90023689Y-150846202D02*
X93524501Y-154347014D01*
G04 #@! TO.N,Net-(C41-Pad2)*
X98770000Y-162700000D02*
X98995000Y-162475000D01*
X97375000Y-162700000D02*
X98770000Y-162700000D01*
X97175000Y-162900000D02*
X97375000Y-162700000D01*
D42*
G04 #@! TO.N,+12V*
X97928772Y-158743198D02*
X97985574Y-158800000D01*
X97985574Y-158800000D02*
X99000000Y-158800000D01*
X98995000Y-158795000D02*
X99000000Y-158800000D01*
X98995000Y-157325000D02*
X98995000Y-158795000D01*
X99000000Y-158800000D02*
X99300000Y-158800000D01*
X99300000Y-158800000D02*
X99375000Y-158875000D01*
X99375000Y-158875000D02*
X104500000Y-158875000D01*
G04 #@! TO.N,GND*
X101600000Y-162540000D02*
X101535000Y-162475000D01*
X101600000Y-164100000D02*
X101600000Y-162540000D01*
X101800000Y-164300000D02*
X101600000Y-164100000D01*
D43*
G04 #@! TO.N,Net-(U8A--)*
X76766783Y-153408217D02*
X77200000Y-152975000D01*
G04 #@! TO.N,Net-(J12-Pin_1)*
X77200000Y-154625000D02*
X76249463Y-154625000D01*
G04 #@! TO.N,Net-(U8A--)*
X76155994Y-153408217D02*
X76766783Y-153408217D01*
X75400000Y-154164211D02*
X76155994Y-153408217D01*
G04 #@! TO.N,Net-(J12-Pin_1)*
X76249463Y-154625000D02*
X76074463Y-154450000D01*
G04 #@! TO.N,Net-(U8A--)*
X75400000Y-156437500D02*
X75400000Y-154164211D01*
G04 #@! TO.N,Net-(J12-Pin_1)*
X76050000Y-156437500D02*
X76050000Y-156650581D01*
X76100000Y-156487500D02*
X76050000Y-156437500D01*
X76100000Y-156500000D02*
X76100000Y-156487500D01*
D42*
G04 #@! TO.N,GND*
X84600000Y-162075000D02*
X84600000Y-165100000D01*
X84900000Y-161775000D02*
X84600000Y-162075000D01*
D43*
G04 #@! TO.N,Net-(U6B--)*
X108735000Y-158765000D02*
X108700000Y-158800000D01*
X108735000Y-157425000D02*
X108735000Y-158765000D01*
G04 #@! TO.N,Net-(J5-Pin_1)*
X107465000Y-158764996D02*
X107500004Y-158800000D01*
X107465000Y-157425000D02*
X107465000Y-158764996D01*
D42*
G04 #@! TO.N,+12V*
X107154000Y-159654000D02*
X106195000Y-158695000D01*
X110921000Y-159654000D02*
X107154000Y-159654000D01*
X111700000Y-158875000D02*
X110921000Y-159654000D01*
D43*
G04 #@! TO.N,Net-(U5B--)*
X115935000Y-158765000D02*
X115900000Y-158800000D01*
X115935000Y-157425000D02*
X115935000Y-158765000D01*
G04 #@! TO.N,Net-(J4-Pin_1)*
X114665000Y-158535000D02*
X114400000Y-158800000D01*
X114665000Y-157425000D02*
X114665000Y-158535000D01*
D44*
G04 #@! TO.N,+12V*
X87925000Y-147620000D02*
X86551000Y-146246000D01*
X82545066Y-146246000D02*
X81325000Y-147466066D01*
X86551000Y-146246000D02*
X82545066Y-146246000D01*
X81325000Y-147466066D02*
X81325000Y-147620000D01*
X125400000Y-141300000D02*
X126100000Y-140600000D01*
X126100000Y-141300000D02*
X126100000Y-140600000D01*
X126100000Y-140600000D02*
X126100000Y-140100000D01*
X125300000Y-141300000D02*
X125400000Y-141300000D01*
X125300000Y-141300000D02*
X126100000Y-141300000D01*
X123000000Y-143600000D02*
X125300000Y-141300000D01*
X127300000Y-138900000D02*
X126100000Y-140100000D01*
X129000000Y-138900000D02*
X127300000Y-138900000D01*
X123000000Y-153900000D02*
X123000000Y-143600000D01*
G04 #@! TO.N,Net-(D1-K)*
X123800000Y-137400000D02*
X124500000Y-137400000D01*
X123300000Y-136900000D02*
X123800000Y-137400000D01*
X123300000Y-136900000D02*
X123300000Y-137400000D01*
X121100000Y-134700000D02*
X123300000Y-136900000D01*
X120950000Y-134700000D02*
X121100000Y-134700000D01*
X123300000Y-137400000D02*
X124500000Y-137400000D01*
G04 #@! TO.N,GND*
X126700000Y-134700000D02*
X126849904Y-134700000D01*
X126849904Y-134700000D02*
X127500000Y-135350096D01*
X127500000Y-133900000D02*
X127500000Y-135350096D01*
X124950000Y-134700000D02*
X126700000Y-134700000D01*
X126700000Y-134700000D02*
X127500000Y-133900000D01*
G04 #@! TO.N,+12V*
X122000000Y-157137500D02*
X122000000Y-154900000D01*
X122000000Y-154900000D02*
X123000000Y-153900000D01*
D42*
G04 #@! TO.N,-10V*
X77450000Y-147435000D02*
X74725000Y-150160000D01*
X77450000Y-137800000D02*
X77450000Y-147435000D01*
D43*
G04 #@! TO.N,+12V*
X64300000Y-138000000D02*
X64300000Y-147620000D01*
X62800000Y-136500000D02*
X64300000Y-138000000D01*
D44*
X68125000Y-147620000D02*
X64300000Y-147620000D01*
X64300000Y-147620000D02*
X61525000Y-147620000D01*
X59975000Y-149925000D02*
X53900000Y-156000000D01*
X53900000Y-156000000D02*
X53900000Y-157350000D01*
X61525000Y-147620000D02*
X59975000Y-149170000D01*
X59975000Y-149170000D02*
X59975000Y-149925000D01*
D43*
G04 #@! TO.N,Net-(J11-Pin_1)*
X72077915Y-142647085D02*
X72077915Y-149093767D01*
X74725000Y-140000000D02*
X72077915Y-142647085D01*
G04 #@! TO.N,Net-(J10-Pin_1)*
X82685769Y-147630624D02*
X82925855Y-147390538D01*
X82685769Y-148602287D02*
X82685769Y-147630624D01*
X84599520Y-150516038D02*
X82685769Y-148602287D01*
X84599520Y-155299520D02*
X84599520Y-150516038D01*
X85000000Y-155700000D02*
X84599520Y-155299520D01*
D44*
G04 #@! TO.N,+12V*
X94525000Y-147620000D02*
X87925000Y-147620000D01*
D42*
G04 #@! TO.N,GND*
X135400000Y-136900000D02*
X135400000Y-138900000D01*
X135400000Y-138900000D02*
X134400000Y-138900000D01*
X135400000Y-140700000D02*
X135400000Y-138900000D01*
X133400000Y-138900000D02*
X134400000Y-138900000D01*
X133400000Y-137900000D02*
X133400000Y-138900000D01*
X133400000Y-140700000D02*
X133400000Y-137900000D01*
X133400000Y-136900000D02*
X133400000Y-137900000D01*
X133400000Y-145400000D02*
X134100000Y-146100000D01*
X133400000Y-144200000D02*
X133400000Y-145400000D01*
X135400000Y-144200000D02*
X135400000Y-146100000D01*
X135400000Y-146100000D02*
X134300000Y-146100000D01*
X135400000Y-148000000D02*
X135400000Y-146100000D01*
X134100000Y-146100000D02*
X134300000Y-146100000D01*
X133400000Y-146800000D02*
X134100000Y-146100000D01*
X133400000Y-148000000D02*
X133400000Y-146800000D01*
X133400000Y-151500000D02*
X133400000Y-153300000D01*
X135400000Y-151500000D02*
X135400000Y-153300000D01*
X135400000Y-153300000D02*
X134300000Y-153300000D01*
X135400000Y-155100000D02*
X135400000Y-153300000D01*
X133400000Y-153300000D02*
X134300000Y-153300000D01*
X133400000Y-155100000D02*
X133400000Y-153300000D01*
D44*
G04 #@! TO.N,Net-(U2-DC)*
X122000000Y-162011247D02*
X122365570Y-161645677D01*
D42*
G04 #@! TO.N,-10V*
X119480000Y-160300000D02*
X122496000Y-160300000D01*
X117205000Y-162575000D02*
X119480000Y-160300000D01*
D44*
G04 #@! TO.N,Net-(U2-DC)*
X122000000Y-162200000D02*
X122000000Y-162011247D01*
D42*
G04 #@! TO.N,-10V*
X122496000Y-160300000D02*
X123000000Y-160804000D01*
X127500000Y-157100000D02*
X127500000Y-153300000D01*
X126700000Y-157900000D02*
X127500000Y-157100000D01*
X127500000Y-153300000D02*
X128900000Y-153300000D01*
X129800000Y-153300000D02*
X131400000Y-151700000D01*
X131400000Y-151700000D02*
X131400000Y-151600000D01*
X128900000Y-153300000D02*
X129800000Y-153300000D01*
X126900000Y-146100000D02*
X126100000Y-146900000D01*
X128900000Y-146100000D02*
X126900000Y-146100000D01*
X127000000Y-146100000D02*
X126100000Y-145200000D01*
X128900000Y-146100000D02*
X127000000Y-146100000D01*
X128900000Y-150400000D02*
X128900000Y-146100000D01*
X128200000Y-151100000D02*
X128900000Y-150400000D01*
X128900000Y-151800000D02*
X128900000Y-153300000D01*
X128200000Y-151100000D02*
X128900000Y-151800000D01*
X127050000Y-151100000D02*
X128200000Y-151100000D01*
X125400000Y-152750000D02*
X127050000Y-151100000D01*
G04 #@! TO.N,+12V*
X122000000Y-158300000D02*
X122000000Y-157137500D01*
X113300000Y-159700000D02*
X120600000Y-159700000D01*
X120600000Y-159700000D02*
X122000000Y-158300000D01*
X112475000Y-158875000D02*
X113300000Y-159700000D01*
G04 #@! TO.N,GND*
X118197170Y-158417170D02*
X119371170Y-158417170D01*
X117205000Y-157425000D02*
X118197170Y-158417170D01*
D44*
G04 #@! TO.N,Net-(D1-K)*
X120950000Y-132650000D02*
X120950000Y-134700000D01*
X118400000Y-130100000D02*
X120950000Y-132650000D01*
X115650000Y-130100000D02*
X118400000Y-130100000D01*
X113300000Y-127750000D02*
X115650000Y-130100000D01*
G04 #@! TO.N,Net-(SW1-A)*
X110500000Y-129360000D02*
X111800000Y-130660000D01*
X110500000Y-127750000D02*
X110500000Y-129360000D01*
D42*
G04 #@! TO.N,-10V*
X125200000Y-158500000D02*
X126100000Y-158500000D01*
X126100000Y-158500000D02*
X126700000Y-157900000D01*
G04 #@! TO.N,Net-(D5-K)*
X124000000Y-155200000D02*
X124000000Y-154800000D01*
X125000000Y-156200000D02*
X124000000Y-155200000D01*
X125400000Y-156200000D02*
X125000000Y-156200000D01*
X125400000Y-156250000D02*
X125400000Y-156200000D01*
G04 #@! TO.N,Net-(U2-Vfb)*
X125200000Y-161475000D02*
X125375000Y-161475000D01*
X125375000Y-161475000D02*
X126500000Y-162600000D01*
X125200000Y-160150000D02*
X125200000Y-161475000D01*
G04 #@! TO.N,GND*
X125225000Y-163125000D02*
X126300000Y-164200000D01*
X125200000Y-163125000D02*
X125225000Y-163125000D01*
G04 #@! TO.N,+12V*
X123800000Y-157900000D02*
X123800000Y-161700000D01*
X123037500Y-157137500D02*
X123800000Y-157900000D01*
X122000000Y-157137500D02*
X123037500Y-157137500D01*
D44*
G04 #@! TO.N,Net-(U2-DC)*
X122000000Y-162200000D02*
X121400000Y-161600000D01*
X122000000Y-163062500D02*
X122000000Y-162200000D01*
D42*
G04 #@! TO.N,+12V*
X106015000Y-158875000D02*
X106195000Y-158695000D01*
X104500000Y-158875000D02*
X106015000Y-158875000D01*
G04 #@! TO.N,GND*
X118775000Y-164400000D02*
X118900000Y-164275000D01*
X116700000Y-164400000D02*
X118775000Y-164400000D01*
G04 #@! TO.N,-10V*
X118750000Y-162575000D02*
X118900000Y-162725000D01*
X117205000Y-162575000D02*
X118750000Y-162575000D01*
G04 #@! TO.N,+5V*
X56391002Y-151291002D02*
X56391002Y-151708998D01*
X56100000Y-151000000D02*
X56391002Y-151291002D01*
X56100000Y-151000000D02*
X56400000Y-150700000D01*
X56391002Y-150708998D02*
X56400000Y-150700000D01*
X55700000Y-151000000D02*
X56100000Y-151000000D01*
X56391002Y-151708998D02*
X56391002Y-150708998D01*
X52350000Y-151000000D02*
X53300000Y-151000000D01*
X52000000Y-150650000D02*
X52350000Y-151000000D01*
X52000000Y-148000000D02*
X52000000Y-150650000D01*
X54700000Y-150800000D02*
X54500000Y-151000000D01*
X54500000Y-151000000D02*
X53300000Y-151000000D01*
X54700000Y-148000000D02*
X54700000Y-150800000D01*
X53400000Y-148000000D02*
X53400000Y-150900000D01*
X53400000Y-150900000D02*
X53300000Y-151000000D01*
X53300000Y-151000000D02*
X55700000Y-151000000D01*
G04 #@! TO.N,GND*
X46600000Y-149300000D02*
X46600000Y-151000000D01*
X46600000Y-151000000D02*
X47900000Y-151000000D01*
X47100000Y-151000000D02*
X47900000Y-151000000D01*
X46600000Y-151500000D02*
X47100000Y-151000000D01*
X46600000Y-152800000D02*
X46600000Y-151500000D01*
X47900000Y-152800000D02*
X47900000Y-151000000D01*
X47900000Y-151000000D02*
X47900000Y-149300000D01*
X48700000Y-143400000D02*
X47900000Y-143400000D01*
X49200000Y-143900000D02*
X48700000Y-143400000D01*
X49200000Y-145100000D02*
X49200000Y-143900000D01*
X46800000Y-143400000D02*
X47900000Y-143400000D01*
X46600000Y-143600000D02*
X46800000Y-143400000D01*
X46600000Y-145100000D02*
X46600000Y-143600000D01*
X46600000Y-143400000D02*
X47900000Y-143400000D01*
X46600000Y-141600000D02*
X46600000Y-143400000D01*
X47900000Y-145100000D02*
X47900000Y-143400000D01*
G04 #@! TO.N,+5V*
X52000000Y-144100000D02*
X52700000Y-143400000D01*
X52700000Y-143400000D02*
X53300000Y-143400000D01*
X52000000Y-145300000D02*
X52000000Y-144100000D01*
X54700000Y-143900000D02*
X54200000Y-143400000D01*
X54700000Y-145300000D02*
X54700000Y-143900000D01*
X54200000Y-143400000D02*
X53300000Y-143400000D01*
X53800000Y-142900000D02*
X53300000Y-143400000D01*
X56200000Y-142900000D02*
X53800000Y-142900000D01*
X53300000Y-145200000D02*
X53400000Y-145300000D01*
X53300000Y-143400000D02*
X53300000Y-145200000D01*
D43*
G04 #@! TO.N,Net-(C46-Pad2)*
X69599520Y-156079480D02*
X69679000Y-156000000D01*
X69599520Y-162624520D02*
X69599520Y-156079480D01*
X70375000Y-163400000D02*
X69599520Y-162624520D01*
G04 #@! TO.N,+5V*
X58950000Y-155275000D02*
X61525000Y-152700000D01*
X57300000Y-155275000D02*
X58950000Y-155275000D01*
G04 #@! TO.N,Net-(U3-FB)*
X51175000Y-158675000D02*
X48800000Y-161050000D01*
X57300000Y-158675000D02*
X51175000Y-158675000D01*
X57300000Y-156925000D02*
X57300000Y-158675000D01*
G04 #@! TO.N,GND*
X59025000Y-160325000D02*
X59100000Y-160400000D01*
X57300000Y-160325000D02*
X59025000Y-160325000D01*
X65575000Y-163400000D02*
X64400000Y-163400000D01*
G04 #@! TO.N,+12V*
X78750000Y-139150000D02*
X78800000Y-139200000D01*
X78750000Y-137800000D02*
X78750000Y-139150000D01*
G04 #@! TO.N,Net-(U4C--)*
X53418630Y-133200000D02*
X52475000Y-134143630D01*
X57025000Y-134473325D02*
X57025000Y-133699695D01*
X56920998Y-134577327D02*
X57025000Y-134473325D01*
X56525305Y-133200000D02*
X53418630Y-133200000D01*
X57025000Y-133699695D02*
X56525305Y-133200000D01*
X56920998Y-135222673D02*
X56920998Y-134577327D01*
X57025000Y-135326675D02*
X56920998Y-135222673D01*
X56600000Y-137000000D02*
X57025000Y-136575000D01*
X57025000Y-136575000D02*
X57025000Y-135326675D01*
G04 #@! TO.N,Net-(D4-C)*
X62947135Y-134325000D02*
X62433190Y-133811055D01*
X66026996Y-134325000D02*
X62947135Y-134325000D01*
X67951996Y-132400000D02*
X66026996Y-134325000D01*
X69225000Y-132400000D02*
X67951996Y-132400000D01*
X70025000Y-133200000D02*
X69225000Y-132400000D01*
G04 #@! TO.N,GND*
X59675000Y-133675000D02*
X58700000Y-132700000D01*
X60500000Y-133675000D02*
X59675000Y-133675000D01*
G04 #@! TO.N,Net-(J13-Pin_1)*
X58200000Y-140000000D02*
X56300000Y-138100000D01*
X61525000Y-140000000D02*
X58200000Y-140000000D01*
G04 #@! TO.N,Net-(C58-Pad1)*
X54300000Y-137950000D02*
X52300000Y-137950000D01*
G04 #@! TO.N,Net-(J13-Pin_1)*
X54300000Y-134318630D02*
X54125000Y-134143630D01*
X54300000Y-136050000D02*
X54300000Y-134318630D01*
G04 #@! TO.N,Net-(U4C--)*
X52300000Y-134318630D02*
X52475000Y-134143630D01*
X52300000Y-136050000D02*
X52300000Y-134318630D01*
G04 #@! TO.N,Net-(U4B-+)*
X60125000Y-135700000D02*
X60500000Y-135325000D01*
X59100000Y-135700000D02*
X60125000Y-135700000D01*
G04 #@! TO.N,Net-(C58-Pad1)*
X51950000Y-137600000D02*
X52300000Y-137950000D01*
X50700000Y-137600000D02*
X51950000Y-137600000D01*
G04 #@! TO.N,Net-(J13-Pin_1)*
X56300000Y-138100000D02*
X56300000Y-138050000D01*
X56300000Y-138050000D02*
X54300000Y-136050000D01*
G04 #@! TO.N,Net-(R14-Pad2)*
X68375000Y-133200000D02*
X65975000Y-135600000D01*
X65975000Y-135600000D02*
X64300000Y-135600000D01*
G04 #@! TO.N,Net-(R16-Pad1)*
X64300000Y-133100000D02*
X64300000Y-130600000D01*
G04 #@! TO.N,Net-(D4-C)*
X75500000Y-133200000D02*
X78100000Y-135800000D01*
X70025000Y-133200000D02*
X75500000Y-133200000D01*
X80935000Y-135500000D02*
X78400000Y-135500000D01*
X78400000Y-135500000D02*
X78100000Y-135800000D01*
X80935000Y-130420000D02*
X80935000Y-132960000D01*
X80935000Y-135500000D02*
X80935000Y-132960000D01*
G04 #@! TO.N,Net-(JP1-A)*
X91800000Y-132975000D02*
X91800000Y-131600000D01*
G04 #@! TO.N,Net-(JP3-A)*
X90200000Y-132975000D02*
X90200000Y-131550000D01*
X85650000Y-129725000D02*
X86375000Y-129000000D01*
X85650000Y-130785000D02*
X85650000Y-129725000D01*
X83475000Y-132960000D02*
X85650000Y-130785000D01*
G04 #@! TO.N,Net-(JP2-A)*
X86375000Y-132334010D02*
X86375000Y-130600000D01*
X83475000Y-135234010D02*
X86375000Y-132334010D01*
X83475000Y-135500000D02*
X83475000Y-135234010D01*
G04 #@! TO.N,Net-(J2-Pad2)*
X91800000Y-134625000D02*
X91600000Y-134625000D01*
X91600000Y-134625000D02*
X90900000Y-135325000D01*
X90900000Y-135325000D02*
X90200000Y-134625000D01*
X90900000Y-137300000D02*
X90900000Y-135325000D01*
G04 #@! TO.N,Net-(J2-Pad5)*
X88025000Y-130600000D02*
X88025000Y-129000000D01*
X88225000Y-129200000D02*
X88025000Y-129000000D01*
X90900000Y-129200000D02*
X88225000Y-129200000D01*
X102400000Y-129200000D02*
X90900000Y-129200000D01*
G04 #@! TO.N,Net-(J2-Pad2)*
X102400000Y-137300000D02*
X90900000Y-137300000D01*
D42*
G04 #@! TO.N,GND*
X88399520Y-163299520D02*
X88806907Y-163299520D01*
X108735000Y-164235000D02*
X109200000Y-164700000D01*
X93336672Y-159775000D02*
X93249925Y-159688253D01*
X73793093Y-155300480D02*
X73793093Y-153793093D01*
X70500000Y-160075000D02*
X72156427Y-160075000D01*
X95300000Y-157300000D02*
X94500000Y-156500000D01*
X81950000Y-156437500D02*
X81950000Y-155643573D01*
X89150000Y-155643573D02*
X88806907Y-155300480D01*
X73450000Y-155643573D02*
X73450000Y-156437500D01*
X94100000Y-159775000D02*
X93336672Y-159775000D01*
X76300000Y-160475000D02*
X76300000Y-159950500D01*
X74750000Y-156437500D02*
X74750000Y-155643573D01*
X88193093Y-155300480D02*
X88193093Y-154174938D01*
X80993093Y-154268593D02*
X80700000Y-153975500D01*
X108735000Y-162575000D02*
X108735000Y-164235000D01*
X115935000Y-163635000D02*
X116700000Y-164400000D01*
X73793093Y-153793093D02*
X73700000Y-153700000D01*
X73793093Y-163299520D02*
X74406907Y-163299520D01*
X102805000Y-157325000D02*
X102805000Y-155795000D01*
X88193093Y-163299520D02*
X88399520Y-163299520D01*
X87850000Y-155643573D02*
X87850000Y-156437500D01*
X81606907Y-163299520D02*
X80993093Y-163299520D01*
X115935000Y-162575000D02*
X115935000Y-163635000D01*
X80993093Y-163299520D02*
X80650000Y-162956427D01*
X73450000Y-161368573D02*
X73450000Y-162162500D01*
X87850000Y-162162500D02*
X87850000Y-162956427D01*
X74406907Y-155300480D02*
X73793093Y-155300480D01*
X97200000Y-150575000D02*
X97200000Y-149000000D01*
X89150000Y-162956427D02*
X89150000Y-162162500D01*
X77700000Y-161875000D02*
X76300000Y-160475000D01*
X88806907Y-163299520D02*
X89150000Y-162956427D01*
X88193093Y-155300480D02*
X87850000Y-155643573D01*
X80650000Y-155643573D02*
X80650000Y-156437500D01*
X97200000Y-149000000D02*
X97100000Y-148900000D01*
X88399520Y-163299520D02*
X88724500Y-163624500D01*
X93725000Y-163300000D02*
X92100000Y-161675000D01*
X73450000Y-162162500D02*
X73450000Y-162956427D01*
X89150000Y-156437500D02*
X89150000Y-155643573D01*
X81950000Y-162162500D02*
X81950000Y-162956427D01*
X93900000Y-163300000D02*
X93725000Y-163300000D01*
X111700000Y-155300000D02*
X111200000Y-154800000D01*
X80799707Y-163106134D02*
X80650000Y-162956427D01*
X73793093Y-155300480D02*
X73450000Y-155643573D01*
X88806907Y-155300480D02*
X88193093Y-155300480D01*
X101800000Y-164300000D02*
X102632138Y-164300000D01*
X84900000Y-156983314D02*
X84205200Y-157678114D01*
X72156427Y-160075000D02*
X73450000Y-161368573D01*
X111700000Y-157325000D02*
X111700000Y-155300000D01*
X109532138Y-164700000D02*
X109200000Y-164700000D01*
X111700000Y-162532138D02*
X109532138Y-164700000D01*
X74750000Y-155643573D02*
X74406907Y-155300480D01*
X81950000Y-162956427D02*
X81606907Y-163299520D01*
X81606907Y-155300480D02*
X80993093Y-155300480D01*
X74750000Y-162956427D02*
X74750000Y-162162500D01*
X74406907Y-163299520D02*
X74750000Y-162956427D01*
X102632138Y-164300000D02*
X104500000Y-162432138D01*
X87850000Y-162956427D02*
X88193093Y-163299520D01*
X110005000Y-157425000D02*
X111600000Y-157425000D01*
X104500000Y-157325000D02*
X104500000Y-155700000D01*
X88724500Y-163624500D02*
X88724500Y-164100000D01*
X80799707Y-165022180D02*
X80799707Y-163106134D01*
X88193093Y-154174938D02*
X88172913Y-154154758D01*
X84900000Y-156925000D02*
X84900000Y-156983314D01*
X80993093Y-155300480D02*
X80650000Y-155643573D01*
X111600000Y-157425000D02*
X111700000Y-157325000D01*
X111700000Y-162175000D02*
X111700000Y-162532138D01*
X80993093Y-155300480D02*
X80993093Y-154268593D01*
X104500000Y-162432138D02*
X104500000Y-162175000D01*
X80650000Y-162956427D02*
X80650000Y-162162500D01*
X95725000Y-157300000D02*
X95300000Y-157300000D01*
X81950000Y-155643573D02*
X81606907Y-155300480D01*
X102805000Y-155795000D02*
X103700000Y-154900000D01*
X73450000Y-162956427D02*
X73793093Y-163299520D01*
X104500000Y-155700000D02*
X103700000Y-154900000D01*
G04 #@! TO.N,+12V*
X74100000Y-156437500D02*
X74100000Y-158350000D01*
X77700000Y-158575000D02*
X81225000Y-158575000D01*
X91525000Y-158475000D02*
X88575000Y-158475000D01*
X81300000Y-156437500D02*
X81300000Y-158500000D01*
X75679087Y-158451489D02*
X75229588Y-158900988D01*
X75229588Y-158900988D02*
X74300988Y-158900988D01*
X111700000Y-158875000D02*
X112475000Y-158875000D01*
X84800000Y-158575000D02*
X84900000Y-158475000D01*
X77700000Y-158575000D02*
X77576489Y-158451489D01*
X88575000Y-158475000D02*
X84900000Y-158475000D01*
X81300000Y-158500000D02*
X81225000Y-158575000D01*
X97300000Y-157325000D02*
X97275000Y-157300000D01*
X77576489Y-158451489D02*
X75679087Y-158451489D01*
X98995000Y-157325000D02*
X97300000Y-157325000D01*
X74300988Y-158900988D02*
X73925000Y-158525000D01*
X88500000Y-156437500D02*
X88500000Y-158400000D01*
X113395000Y-157425000D02*
X113395000Y-157955000D01*
X106195000Y-158695000D02*
X106195000Y-157425000D01*
X88500000Y-158400000D02*
X88575000Y-158475000D01*
X113395000Y-157955000D02*
X112475000Y-158875000D01*
X92700000Y-157300000D02*
X91525000Y-158475000D01*
X81225000Y-158575000D02*
X84800000Y-158575000D01*
X74100000Y-158350000D02*
X73925000Y-158525000D01*
X73925000Y-158525000D02*
X70500000Y-158525000D01*
G04 #@! TO.N,-10V*
X117205000Y-162192862D02*
X117205000Y-162575000D01*
X77282957Y-159577913D02*
X76756043Y-159050999D01*
X110005000Y-160655000D02*
X109975000Y-160625000D01*
X92100000Y-159800000D02*
X91500000Y-159200000D01*
X110005000Y-162575000D02*
X110005000Y-160655000D01*
X102805000Y-162475000D02*
X102805000Y-162320000D01*
X85900000Y-159200000D02*
X84900000Y-160200000D01*
X84825000Y-160225000D02*
X83800000Y-159200000D01*
X75927413Y-159050999D02*
X75477913Y-159500499D01*
X73400000Y-160470737D02*
X74100000Y-161170737D01*
X101311639Y-160599501D02*
X102805000Y-162092862D01*
X73400000Y-160100000D02*
X73400000Y-160470737D01*
X77282957Y-160085321D02*
X77282957Y-159577913D01*
X104500000Y-160625000D02*
X109975000Y-160625000D01*
X88500000Y-162162500D02*
X88500000Y-159200000D01*
X111700000Y-160625000D02*
X115637138Y-160625000D01*
X81300000Y-159200000D02*
X78825000Y-159200000D01*
X74100000Y-161170737D02*
X74100000Y-162162500D01*
X102805000Y-162092862D02*
X102805000Y-162475000D01*
X84900000Y-160225000D02*
X84825000Y-160225000D01*
X81300000Y-162162500D02*
X81300000Y-159200000D01*
X88500000Y-159200000D02*
X85900000Y-159200000D01*
X109975000Y-160625000D02*
X111700000Y-160625000D01*
X91500000Y-159200000D02*
X88500000Y-159200000D01*
X77700000Y-160325000D02*
X77424991Y-160325000D01*
X78825000Y-159200000D02*
X77700000Y-160325000D01*
X92100000Y-160125000D02*
X92574501Y-160599501D01*
X77424990Y-160227354D02*
X77282957Y-160085321D01*
X115637138Y-160625000D02*
X117205000Y-162192862D01*
X75477913Y-159500499D02*
X73999501Y-159500499D01*
X92100000Y-160125000D02*
X92100000Y-159800000D01*
X92574501Y-160599501D02*
X101311639Y-160599501D01*
X83800000Y-159200000D02*
X81300000Y-159200000D01*
X84900000Y-160200000D02*
X84900000Y-160225000D01*
X76756043Y-159050999D02*
X75927413Y-159050999D01*
X77424991Y-160325000D02*
X77424990Y-160227354D01*
X102805000Y-162320000D02*
X104500000Y-160625000D01*
X73999501Y-159500499D02*
X73400000Y-160100000D01*
D43*
G04 #@! TO.N,Net-(U5A--)*
X114825000Y-164600000D02*
X114825000Y-162735000D01*
X114825000Y-162735000D02*
X114665000Y-162575000D01*
X114665000Y-162575000D02*
X114665000Y-161386685D01*
X114665000Y-161386685D02*
X114602815Y-161324500D01*
G04 #@! TO.N,Net-(U6A--)*
X107544412Y-162495588D02*
X107544412Y-161324500D01*
X107465000Y-162575000D02*
X107544412Y-162495588D01*
X107465000Y-162575000D02*
X107465000Y-164440000D01*
X107465000Y-164440000D02*
X107625000Y-164600000D01*
G04 #@! TO.N,Net-(C31-Pad1)*
X95625000Y-162900000D02*
X95625000Y-161500000D01*
X95625000Y-161500000D02*
X95700000Y-161425000D01*
X94100000Y-161425000D02*
X95700000Y-161425000D01*
X95625000Y-164500000D02*
X95625000Y-162900000D01*
G04 #@! TO.N,Net-(U7A--)*
X99625480Y-165299520D02*
X100425000Y-164500000D01*
X100425000Y-162635000D02*
X100265000Y-162475000D01*
X97175000Y-164500000D02*
X97974520Y-165299520D01*
X100425000Y-164500000D02*
X100425000Y-162635000D01*
X97974520Y-165299520D02*
X99625480Y-165299520D01*
G04 #@! TO.N,Net-(U10A--)*
X89600480Y-155142263D02*
X89600480Y-153874520D01*
X89700000Y-156537500D02*
X89700000Y-157500000D01*
X89800000Y-156437500D02*
X89700000Y-156537500D01*
X89800000Y-156437500D02*
X89800000Y-155341783D01*
X89800000Y-155341783D02*
X89600480Y-155142263D01*
X89600480Y-153874520D02*
X90400000Y-153075000D01*
G04 #@! TO.N,Net-(U10D--)*
X90075000Y-164000000D02*
X89800000Y-163725000D01*
X89800000Y-162162500D02*
X89800000Y-160000000D01*
X89800000Y-160000000D02*
X89700000Y-159900000D01*
X89800000Y-163725000D02*
X89800000Y-162162500D01*
G04 #@! TO.N,Net-(U9A--)*
X82500000Y-156537500D02*
X82600000Y-156437500D01*
X82696754Y-153075000D02*
X83800000Y-153075000D01*
X82180859Y-153590895D02*
X82696754Y-153075000D01*
X82500000Y-157500000D02*
X82500000Y-156537500D01*
X82600000Y-154550463D02*
X82180859Y-154131322D01*
X82180859Y-154131322D02*
X82180859Y-153590895D01*
X82600000Y-156437500D02*
X82600000Y-154550463D01*
G04 #@! TO.N,Net-(U9C--)*
X80000000Y-163625000D02*
X80000000Y-162162500D01*
X80000000Y-160200000D02*
X80000000Y-162162500D01*
X80200000Y-160000000D02*
X80000000Y-160200000D01*
X79625000Y-164000000D02*
X80000000Y-163625000D01*
G04 #@! TO.N,Net-(C36-Pad1)*
X68000000Y-163400000D02*
X68825000Y-163400000D01*
X68825000Y-163400000D02*
X68825000Y-161800000D01*
X68000000Y-164600000D02*
X68000000Y-163400000D01*
X67225000Y-163400000D02*
X68000000Y-163400000D01*
G04 #@! TO.N,Net-(U8C--)*
X72425841Y-161100480D02*
X72800000Y-161474639D01*
X70375000Y-161800000D02*
X71074520Y-161100480D01*
X71074520Y-161100480D02*
X72425841Y-161100480D01*
X72800000Y-162162500D02*
X72800000Y-163375000D01*
X72800000Y-163375000D02*
X73625000Y-164200000D01*
X72800000Y-161474639D02*
X72800000Y-162162500D01*
G04 #@! TO.N,Net-(U8D--)*
X75400000Y-162162500D02*
X75400000Y-163775000D01*
X75400000Y-161383179D02*
X74400000Y-160383179D01*
X75400000Y-163775000D02*
X74975000Y-164200000D01*
X74400000Y-160383179D02*
X74400000Y-160200000D01*
X75400000Y-162162500D02*
X75400000Y-161383179D01*
G04 #@! TO.N,Net-(C39-Pad2)*
X113175000Y-164600000D02*
X113175000Y-162795000D01*
X113402815Y-162567185D02*
X113402815Y-161324500D01*
X113175000Y-162795000D02*
X113395000Y-162575000D01*
X113395000Y-162575000D02*
X113402815Y-162567185D01*
G04 #@! TO.N,Net-(C40-Pad2)*
X105975000Y-164600000D02*
X105975000Y-162795000D01*
X106195000Y-162575000D02*
X106195000Y-161473912D01*
X106195000Y-161473912D02*
X106344412Y-161324500D01*
X105975000Y-162795000D02*
X106195000Y-162575000D01*
G04 #@! TO.N,Net-(C41-Pad2)*
X98995000Y-162475000D02*
X98995000Y-164280000D01*
X97300000Y-161425000D02*
X97300000Y-162775000D01*
X97300000Y-162775000D02*
X97175000Y-162900000D01*
X98995000Y-164280000D02*
X98775000Y-164500000D01*
G04 #@! TO.N,Net-(C42-Pad2)*
X86774511Y-151525489D02*
X89204978Y-151525489D01*
X90029969Y-152350480D02*
X90892263Y-152350480D01*
X89204978Y-151525489D02*
X90029969Y-152350480D01*
X90450000Y-156437500D02*
X90450000Y-157348511D01*
X91199520Y-153925480D02*
X90400000Y-154725000D01*
X90450000Y-156437500D02*
X90450000Y-154775000D01*
X90892263Y-152350480D02*
X91199520Y-152657737D01*
X86700000Y-151600000D02*
X86774511Y-151525489D01*
X90450000Y-157348511D02*
X90701489Y-157600000D01*
X91199520Y-152657737D02*
X91199520Y-153925480D01*
X90450000Y-154775000D02*
X90400000Y-154725000D01*
G04 #@! TO.N,Net-(C43-Pad2)*
X91700000Y-164025000D02*
X91725000Y-164000000D01*
X90450000Y-162725000D02*
X91725000Y-164000000D01*
X90450000Y-162162500D02*
X90450000Y-162725000D01*
X90600000Y-159900000D02*
X90600000Y-162012500D01*
X90600000Y-162012500D02*
X90450000Y-162162500D01*
X91700000Y-165200000D02*
X91700000Y-164025000D01*
G04 #@! TO.N,Net-(C44-Pad2)*
X83250000Y-155275000D02*
X83800000Y-154725000D01*
X83657716Y-154725000D02*
X82837720Y-153905004D01*
X83250000Y-156437500D02*
X83250000Y-157302290D01*
X83250000Y-157302290D02*
X83430040Y-157482330D01*
X83250000Y-156437500D02*
X83250000Y-155275000D01*
X83800000Y-154725000D02*
X83657716Y-154725000D01*
G04 #@! TO.N,Net-(C45-Pad2)*
X78766849Y-163488066D02*
X78604915Y-163650000D01*
X78200000Y-164000000D02*
X77975000Y-164000000D01*
X79350000Y-162850000D02*
X78200000Y-164000000D01*
X78604915Y-163650000D02*
X78550000Y-163650000D01*
X79350000Y-160150000D02*
X79200000Y-160000000D01*
X79350000Y-162162500D02*
X79350000Y-162850000D01*
X79350000Y-162162500D02*
X79350000Y-160150000D01*
G04 #@! TO.N,Net-(C46-Pad2)*
X72150000Y-162162500D02*
X72150000Y-164025000D01*
X70975000Y-164000000D02*
X70375000Y-163400000D01*
X71975000Y-164000000D02*
X70975000Y-164000000D01*
X72150000Y-164025000D02*
X71975000Y-164200000D01*
G04 #@! TO.N,Net-(C47-Pad2)*
X76050000Y-161050000D02*
X75200000Y-160200000D01*
X76050000Y-162162500D02*
X76050000Y-163625000D01*
X76050000Y-162162500D02*
X76050000Y-161050000D01*
X76050000Y-163625000D02*
X76625000Y-164200000D01*
G04 #@! TO.N,Net-(J4-Pin_1)*
X116300000Y-153475000D02*
X116300000Y-144625000D01*
X114375000Y-155400000D02*
X116300000Y-153475000D01*
X114665000Y-157425000D02*
X114665000Y-155690000D01*
X114665000Y-155690000D02*
X114375000Y-155400000D01*
X116300000Y-144625000D02*
X120925000Y-140000000D01*
G04 #@! TO.N,Net-(J5-Pin_1)*
X109200000Y-145125000D02*
X114325000Y-140000000D01*
X107465000Y-155590000D02*
X107275000Y-155400000D01*
X107465000Y-157425000D02*
X107465000Y-155590000D01*
X107275000Y-155400000D02*
X109200000Y-153475000D01*
X109200000Y-153475000D02*
X109200000Y-145125000D01*
G04 #@! TO.N,Net-(C51-Pad1)*
X97200000Y-152225000D02*
X97200000Y-153525000D01*
X96500480Y-155824520D02*
X97025000Y-155300000D01*
X96500480Y-158975480D02*
X96500480Y-155824520D01*
X97025000Y-153700000D02*
X97025000Y-155300000D01*
X97200000Y-153525000D02*
X97025000Y-153700000D01*
X97300000Y-159775000D02*
X96500480Y-158975480D01*
G04 #@! TO.N,Net-(J6-Pin_1)*
X97800480Y-154525480D02*
X98575000Y-155300000D01*
X98000000Y-153022862D02*
X97800480Y-153222382D01*
X107725000Y-140000000D02*
X103819511Y-143905489D01*
X100175000Y-155300000D02*
X100175000Y-157235000D01*
X103819511Y-143905489D02*
X100638501Y-143905489D01*
X97800480Y-153222382D02*
X97800480Y-154525480D01*
X98575000Y-155300000D02*
X100175000Y-155300000D01*
X100175000Y-157235000D02*
X100265000Y-157325000D01*
X100638501Y-143905489D02*
X98000000Y-146543990D01*
X98000000Y-146543990D02*
X98000000Y-153022862D01*
G04 #@! TO.N,Net-(J7-Pin_1)*
X86550000Y-156437500D02*
X86550000Y-155875000D01*
X86550000Y-155875000D02*
X85400000Y-154725000D01*
X86000000Y-157400000D02*
X86000000Y-156987500D01*
X86000000Y-156987500D02*
X86550000Y-156437500D01*
G04 #@! TO.N,Net-(J8-Pin_1)*
X86550000Y-163125000D02*
X85675000Y-164000000D01*
X86550000Y-160150000D02*
X86550000Y-162162500D01*
X86800000Y-159900000D02*
X86550000Y-160150000D01*
X86550000Y-162162500D02*
X86550000Y-163125000D01*
G04 #@! TO.N,Net-(J9-Pin_1)*
X78000480Y-153825480D02*
X78000480Y-146743510D01*
X78800000Y-154625000D02*
X78000480Y-153825480D01*
X80943990Y-143800000D02*
X83300000Y-143800000D01*
X79350000Y-156437500D02*
X79350000Y-155175000D01*
X79300000Y-156487500D02*
X79350000Y-156437500D01*
X79300000Y-157500000D02*
X79300000Y-156487500D01*
X78000480Y-146743510D02*
X80943990Y-143800000D01*
X79350000Y-155175000D02*
X78800000Y-154625000D01*
G04 #@! TO.N,Net-(J10-Pin_1)*
X83000000Y-159900000D02*
X83250000Y-160150000D01*
X83250000Y-160150000D02*
X83250000Y-162162500D01*
X83250000Y-164025000D02*
X83425000Y-164200000D01*
X83250000Y-162162500D02*
X83250000Y-164025000D01*
G04 #@! TO.N,Net-(C56-Pad1)*
X69625000Y-155225000D02*
X69100000Y-154700000D01*
X70500000Y-153475000D02*
X70500000Y-155225000D01*
X70500000Y-155225000D02*
X69625000Y-155225000D01*
G04 #@! TO.N,Net-(J11-Pin_1)*
X72150000Y-156437500D02*
X72150000Y-157650000D01*
X71812500Y-156775000D02*
X72150000Y-156437500D01*
X72150000Y-157650000D02*
X72200000Y-157700000D01*
X72100000Y-154725000D02*
X72100000Y-156387500D01*
X72100000Y-156387500D02*
X72150000Y-156437500D01*
X70500000Y-156775000D02*
X71812500Y-156775000D01*
G04 #@! TO.N,Net-(J12-Pin_1)*
X70600000Y-149600000D02*
X72500000Y-151500000D01*
X70600000Y-149366022D02*
X70600000Y-149600000D01*
X70624501Y-141399501D02*
X70624501Y-149341521D01*
X69225000Y-140000000D02*
X70624501Y-141399501D01*
X72500000Y-151500000D02*
X75600000Y-151500000D01*
X68125000Y-140000000D02*
X69225000Y-140000000D01*
X76200000Y-152100000D02*
X76200000Y-152700000D01*
X75600000Y-151500000D02*
X76200000Y-152100000D01*
X76050000Y-155775000D02*
X77200000Y-154625000D01*
X76050000Y-156437500D02*
X76050000Y-155775000D01*
X70624501Y-149341521D02*
X70600000Y-149366022D01*
G04 #@! TO.N,Net-(U5B--)*
X116025000Y-157335000D02*
X115935000Y-157425000D01*
X116025000Y-155400000D02*
X116025000Y-157335000D01*
G04 #@! TO.N,Net-(U6B--)*
X108735000Y-155590000D02*
X108925000Y-155400000D01*
X108735000Y-157425000D02*
X108735000Y-155590000D01*
G04 #@! TO.N,Net-(U7B--)*
X101535000Y-155590000D02*
X101825000Y-155300000D01*
X101535000Y-157325000D02*
X101535000Y-155590000D01*
X100225000Y-153700000D02*
X101825000Y-155300000D01*
X98575000Y-153700000D02*
X100225000Y-153700000D01*
G04 #@! TO.N,Net-(U10B--)*
X85400000Y-153508217D02*
X85400000Y-153075000D01*
X87200000Y-155308217D02*
X85400000Y-153508217D01*
X87200000Y-156437500D02*
X87200000Y-155308217D01*
X87200000Y-156437500D02*
X87200000Y-157500000D01*
G04 #@! TO.N,Net-(U10C--)*
X87200000Y-160400000D02*
X87600000Y-160000000D01*
D42*
X87325000Y-164000000D02*
X87200000Y-163875000D01*
D43*
X87200000Y-162162500D02*
X87200000Y-160400000D01*
D42*
X87200000Y-163875000D02*
X87200000Y-162162500D01*
D43*
G04 #@! TO.N,Net-(U9B--)*
X80000000Y-157400000D02*
X80200000Y-157600000D01*
X80000000Y-156437500D02*
X80000000Y-157400000D01*
X80000000Y-156437500D02*
X80000000Y-154175000D01*
X80000000Y-154175000D02*
X78800000Y-152975000D01*
G04 #@! TO.N,Net-(U9D--)*
X82600000Y-162162500D02*
X82600000Y-163375000D01*
X82600000Y-162162500D02*
X82600000Y-160500000D01*
X82600000Y-163375000D02*
X81775000Y-164200000D01*
X82600000Y-160500000D02*
X82100000Y-160000000D01*
G04 #@! TO.N,Net-(U8B--)*
X70500000Y-151925000D02*
X70950000Y-151925000D01*
X70950000Y-151925000D02*
X72100000Y-153075000D01*
X72100000Y-153075000D02*
X72899520Y-153874520D01*
X72899520Y-156337980D02*
X72800000Y-156437500D01*
X72899520Y-153874520D02*
X72899520Y-156337980D01*
G04 #@! TO.N,Net-(U8A--)*
X75400000Y-156437500D02*
X75400000Y-157254978D01*
X75400000Y-157254978D02*
X74893776Y-157761202D01*
X74893776Y-157761202D02*
X74893776Y-158201488D01*
G04 #@! TD*
M02*
